<svg xmlns="http://www.w3.org/2000/svg" width="712" height="368" style="background:#ffffff;border:1px solid #e5e5e5;border-radius:8px;max-width:100%;height:auto"><rect x="0" y="0" width="100%" height="100%" fill="#ffffff"/>
    <style>
        line, path, circle, rect, polygon{stroke:black;stroke-width:2;stroke-opacity:1;fill-opacity:1;stroke-linecap:round;stroke-linejoin:miter;}text{font-family:Iosevka Fixed, monospace;font-size:14px;}rect.backdrop{stroke:none;fill:transparent;}.broken{stroke-dasharray:8;}.filled{fill:black;}.bg_filled{fill:transparent;}.nofill{fill:transparent;}.end_marked_arrow{marker-end:url(#arrow);}.start_marked_arrow{marker-start:url(#arrow);}.end_marked_diamond{marker-end:url(#diamond);}.start_marked_diamond{marker-start:url(#diamond);}.end_marked_circle{marker-end:url(#circle);}.start_marked_circle{marker-start:url(#circle);}.end_marked_open_circle{marker-end:url(#open_circle);}.start_marked_open_circle{marker-start:url(#open_circle);}.end_marked_big_open_circle{marker-end:url(#big_open_circle);}.start_marked_big_open_circle{marker-start:url(#big_open_circle);}
        <!--separator-->
        
    </style>
    <defs>
        <marker id="arrow" viewBox="-2 -2 8 8" refX="4" refY="2" markerWidth="7" markerHeight="7" orient="auto-start-reverse">
            <polygon points="0,0 0,4 4,2 0,0"></polygon>
        </marker>
        <marker id="diamond" viewBox="-2 -2 8 8" refX="4" refY="2" markerWidth="7" markerHeight="7" orient="auto-start-reverse">
            <polygon points="0,2 2,0 4,2 2,4 0,2"></polygon>
        </marker>
        <marker id="circle" viewBox="0 0 8 8" refX="4" refY="4" markerWidth="7" markerHeight="7" orient="auto-start-reverse">
            <circle cx="4" cy="4" r="2" class="filled"></circle>
        </marker>
        <marker id="open_circle" viewBox="0 0 8 8" refX="4" refY="4" markerWidth="7" markerHeight="7" orient="auto-start-reverse">
            <circle cx="4" cy="4" r="2" class="bg_filled"></circle>
        </marker>
        <marker id="big_open_circle" viewBox="0 0 8 8" refX="4" refY="4" markerWidth="7" markerHeight="7" orient="auto-start-reverse">
            <circle cx="4" cy="4" r="3" class="bg_filled"></circle>
        </marker>
    </defs>
    <rect class="backdrop" x="0" y="0" width="712" height="368"></rect>
    <text x="2" y="12" >1.</text>
    <text x="26" y="12" >Player</text>
    <text x="82" y="12" >clicks</text>
    <text x="58" y="28" >React</text>
    <text x="106" y="28" >onClick</text>
    <text x="90" y="44" >Socket.io</text>
    <path d="M 240,0 A 16,16 0,0,0 240,16" class="nofill"></path>
    <text x="242" y="12" >Ace</text>
    <text x="274" y="12" >of</text>
    <text x="170" y="28" >handler</text>
    <text x="234" y="28" >fires</text>
    <text x="170" y="44" >client</text>
    <text x="226" y="44" >emits:</text>
    <text x="298" y="12" >Spades</text>
    <path d="M 344,0 A 16,16 0,0,1 344,16" class="nofill"></path>
    <text x="362" y="12" >in</text>
    <text x="386" y="12" >the</text>
    <text x="418" y="12" >browser</text>
    <text x="282" y="44" >game:play</text>
    <line x1="352" y1="48" x2="360" y2="48" class="solid"></line>
    <text x="362" y="44" >card</text>
    <text x="402" y="44" >{</text>
    <text x="418" y="44" >gameId,</text>
    <text x="482" y="44" >card:</text>
    <text x="562" y="44" >,</text>
    <text x="578" y="44" >playerId</text>
    <text x="650" y="44" >}</text>
    <text x="2" y="76" >2.</text>
    <text x="26" y="76" >Socket.io</text>
    <text x="106" y="76" >server</text>
    <text x="162" y="76" >receives</text>
    <text x="234" y="76" >the</text>
    <text x="266" y="76" >event</text>
    <text x="58" y="92" >Handler</text>
    <text x="122" y="92" >calls:</text>
    <text x="178" y="92" >validatePlay</text>
    <text x="282" y="92" >card,</text>
    <text x="330" y="92" >playerHand,</text>
    <text x="426" y="92" >currentTrick,</text>
    <text x="90" y="108" >[invalid]</text>
    <text x="290" y="108" >error&#39;,</text>
    <text x="354" y="108" >{</text>
    <text x="370" y="108" >message:</text>
    <text x="90" y="124" >[valid]</text>
    <text x="154" y="124" >→</text>
    <text x="122" y="140" >Write</text>
    <text x="170" y="140" >card</text>
    <text x="210" y="140" >to</text>
    <text x="234" y="140" >Redis:</text>
    <text x="290" y="140" >HSET</text>
    <text x="330" y="140" >game:{gameId}:state</text>
    <text x="490" y="140" >currentTrick</text>
    <text x="594" y="140" >[...]</text>
    <text x="122" y="156" >Write</text>
    <text x="170" y="156" >move</text>
    <text x="210" y="156" >to</text>
    <text x="234" y="156" >PostgreSQL:</text>
    <text x="330" y="156" >INSERT</text>
    <text x="386" y="156" >INTO</text>
    <text x="426" y="156" >game</text>
    <line x1="456" y1="160" x2="464" y2="160" class="solid"></line>
    <text x="466" y="156" >moves</text>
    <path d="M 520,144 A 16,16 0,0,0 520,160" class="nofill"></path>
    <text x="522" y="156" >game</text>
    <line x1="552" y1="160" x2="560" y2="160" class="solid"></line>
    <text x="562" y="156" >id,</text>
    <text x="594" y="156" >card,</text>
    <text x="642" y="156" >seq</text>
    <path d="M 664,144 A 16,16 0,0,1 664,160" class="nofill"></path>
    <text x="122" y="172" >Broadcast</text>
    <text x="202" y="172" >to</text>
    <text x="226" y="172" >all</text>
    <text x="258" y="172" >4</text>
    <text x="274" y="172" >players:</text>
    <text x="346" y="172" >io</text>
    <text x="370" y="172" >to</text>
    <path d="M 392,160 A 16,16 0,0,0 392,176" class="nofill"></path>
    <text x="394" y="172" >gameId</text>
    <path d="M 440,160 A 16,16 0,0,1 440,176" class="nofill"></path>
    <text x="450" y="172" >.emit</text>
    <path d="M 496,160 A 16,16 0,0,0 496,176" class="nofill"></path>
    <text x="498" y="172" >&#39;game:card</text>
    <line x1="576" y1="176" x2="584" y2="176" class="solid"></line>
    <text x="586" y="172" >played&#39;,</text>
    <text x="658" y="172" >{</text>
    <text x="154" y="188" >card:</text>
    <text x="234" y="188" >,</text>
    <text x="250" y="188" >playerId,</text>
    <text x="330" y="188" >seat:</text>
    <text x="538" y="92" >trumpSuit</text>
    <path d="M 608,80 A 16,16 0,0,1 608,96" class="nofill"></path>
    <text x="594" y="108" >}</text>
    <path d="M 600,96 A 16,16 0,0,1 600,112" class="nofill"></path>
    <text x="122" y="204" >}</text>
    <path d="M 128,192 A 16,16 0,0,1 128,208" class="nofill"></path>
    <text x="2" y="236" >3.</text>
    <text x="26" y="236" >All</text>
    <text x="58" y="236" >four</text>
    <text x="98" y="236" >browsers</text>
    <text x="170" y="236" >receive</text>
    <text x="234" y="236" >game:card</text>
    <line x1="304" y1="240" x2="312" y2="240" class="solid"></line>
    <text x="314" y="236" >played</text>
    <text x="58" y="252" >React</text>
    <text x="106" y="252" >state</text>
    <text x="154" y="252" >updates</text>
    <path d="M 224,240 A 16,16 0,0,0 224,256" class="nofill"></path>
    <text x="226" y="252" >via</text>
    <text x="258" y="252" >Zustand</text>
    <text x="322" y="252" >or</text>
    <text x="346" y="252" >useState</text>
    <path d="M 408,240 A 16,16 0,0,1 408,256" class="nofill"></path>
    <text x="90" y="268" >Component</text>
    <text x="170" y="268" >re</text>
    <line x1="184" y1="264" x2="192" y2="264" class="solid"></line>
    <text x="194" y="268" >renders</text>
    <line x1="256" y1="264" x2="264" y2="264" class="solid"></line>
    <text x="274" y="268" >the</text>
    <text x="306" y="268" >card</text>
    <text x="346" y="268" >appears</text>
    <text x="410" y="268" >on</text>
    <text x="434" y="268" >the</text>
    <text x="466" y="268" >table</text>
    <text x="514" y="268" >for</text>
    <text x="546" y="268" >all</text>
    <text x="578" y="268" >players</text>
    <text x="2" y="300" >4.</text>
    <text x="26" y="300" >Server</text>
    <text x="82" y="300" >checks:</text>
    <text x="146" y="300" >was</text>
    <text x="178" y="300" >that</text>
    <text x="218" y="300" >the</text>
    <text x="250" y="300" >4th</text>
    <text x="282" y="300" >card</text>
    <text x="322" y="300" >in</text>
    <text x="346" y="300" >this</text>
    <text x="386" y="300" >trick?</text>
    <text x="58" y="316" >[yes]</text>
    <text x="162" y="316" >determineTrickWinner</text>
    <path d="M 328,304 A 16,16 0,0,0 328,320" class="nofill"></path>
    <text x="330" y="316" >trick,</text>
    <text x="386" y="316" >trumpSuit</text>
    <path d="M 456,304 A 16,16 0,0,1 456,320" class="nofill"></path>
    <text x="90" y="332" >Broadcast:</text>
    <text x="178" y="332" >game:trick</text>
    <line x1="256" y1="336" x2="264" y2="336" class="solid"></line>
    <text x="266" y="332" >completed</text>
    <text x="346" y="332" >{</text>
    <text x="362" y="332" >winner:</text>
    <text x="122" y="348" >All</text>
    <text x="154" y="348" >browsers</text>
    <text x="226" y="348" >update</text>
    <text x="282" y="348" >the</text>
    <text x="314" y="348" >score</text>
    <text x="362" y="348" >display</text>
    <text x="482" y="332" >,</text>
    <text x="498" y="332" >tricks:</text>
    <text x="562" y="332" >{</text>
    <text x="578" y="332" >NS:</text>
    <text x="610" y="332" >5,</text>
    <text x="634" y="332" >EW:</text>
    <text x="666" y="332" >3</text>
    <text x="682" y="332" >}</text>
    <text x="698" y="332" >}</text>
    <text x="138" y="12" >Play Card</text>
    <text x="530" y="44" >AS</text>
    <text x="442" y="108" >Must follow suit</text>
    <text x="202" y="188" >AS</text>
    <text x="378" y="188" >NORTH</text>
    <text x="426" y="332" >NORTH</text>
    <g>
        <line x1="28" y1="16" x2="28" y2="24" class="solid"></line>
        <line x1="28" y1="24" x2="40" y2="24" class="solid"></line>
        <polygon points="40,20 48,24 40,28" class="filled"></polygon>
    </g>
    <g>
        <line x1="60" y1="32" x2="60" y2="40" class="solid"></line>
        <line x1="60" y1="40" x2="72" y2="40" class="solid"></line>
        <polygon points="72,36 80,40 72,44" class="filled"></polygon>
    </g>
    <g>
        <line x1="28" y1="80" x2="28" y2="88" class="solid"></line>
        <line x1="28" y1="88" x2="40" y2="88" class="solid"></line>
        <polygon points="40,84 48,88 40,92" class="filled"></polygon>
    </g>
    <g>
        <path d="M 280,80 A 16,16 0,0,0 280,96" class="nofill"></path>
        <path d="M 280,96 A 16,16 0,0,0 280,112" class="nofill"></path>
        <line x1="280" y1="96" x2="282" y2="100" class="solid"></line>
        <path d="M 282,100 A 8,8 0,0,0 288,104" class="nofill"></path>
    </g>
    <g>
        <line x1="60" y1="96" x2="60" y2="120" class="solid"></line>
        <line x1="60" y1="104" x2="72" y2="104" class="solid"></line>
        <polygon points="72,100 80,104 72,108" class="filled"></polygon>
        <line x1="60" y1="120" x2="72" y2="120" class="solid"></line>
        <polygon points="72,116 80,120 72,124" class="filled"></polygon>
    </g>
    <g>
        <text x="170" y="108">→</text>
        <text x="186" y="108">socket.emit</text>
    </g>
    <g>
        <line x1="92" y1="128" x2="92" y2="168" class="solid"></line>
        <line x1="92" y1="136" x2="104" y2="136" class="solid"></line>
        <polygon points="104,132 112,136 104,140" class="filled"></polygon>
        <line x1="92" y1="152" x2="104" y2="152" class="solid"></line>
        <polygon points="104,148 112,152 104,156" class="filled"></polygon>
        <line x1="92" y1="168" x2="104" y2="168" class="solid"></line>
        <polygon points="104,164 112,168 104,172" class="filled"></polygon>
    </g>
    <g>
        <path d="M 360,168 A 4,4 0,0,1 364,172" class="nofill"></path>
        <line x1="364" y1="172" x2="364" y2="176" class="solid"></line>
    </g>
    <g>
        <line x1="28" y1="240" x2="28" y2="248" class="solid"></line>
        <line x1="28" y1="248" x2="40" y2="248" class="solid"></line>
        <polygon points="40,244 48,248 40,252" class="filled"></polygon>
    </g>
    <g>
        <line x1="60" y1="256" x2="60" y2="264" class="solid"></line>
        <line x1="60" y1="264" x2="72" y2="264" class="solid"></line>
        <polygon points="72,260 80,264 72,268" class="filled"></polygon>
    </g>
    <g>
        <line x1="28" y1="304" x2="28" y2="312" class="solid"></line>
        <line x1="28" y1="312" x2="40" y2="312" class="solid"></line>
        <polygon points="40,308 48,312 40,316" class="filled"></polygon>
    </g>
    <g>
        <text x="106" y="316">→</text>
        <text x="122" y="316">call</text>
    </g>
    <g>
        <line x1="60" y1="320" x2="60" y2="328" class="solid"></line>
        <line x1="60" y1="328" x2="72" y2="328" class="solid"></line>
        <polygon points="72,324 80,328 72,332" class="filled"></polygon>
    </g>
    <g>
        <line x1="92" y1="336" x2="92" y2="344" class="solid"></line>
        <line x1="92" y1="344" x2="104" y2="344" class="solid"></line>
        <polygon points="104,340 112,344 104,348" class="filled"></polygon>
    </g>
</svg>