<svg xmlns="http://www.w3.org/2000/svg" width="448" height="160" style="background:#ffffff;border:1px solid #e5e5e5;border-radius:8px;max-width:100%;height:auto"><rect x="0" y="0" width="100%" height="100%" fill="#ffffff"/>
    <style>
        line, path, circle, rect, polygon{stroke:black;stroke-width:2;stroke-opacity:1;fill-opacity:1;stroke-linecap:round;stroke-linejoin:miter;}text{font-family:Iosevka Fixed, monospace;font-size:14px;}rect.backdrop{stroke:none;fill:transparent;}.broken{stroke-dasharray:8;}.filled{fill:black;}.bg_filled{fill:transparent;}.nofill{fill:transparent;}.end_marked_arrow{marker-end:url(#arrow);}.start_marked_arrow{marker-start:url(#arrow);}.end_marked_diamond{marker-end:url(#diamond);}.start_marked_diamond{marker-start:url(#diamond);}.end_marked_circle{marker-end:url(#circle);}.start_marked_circle{marker-start:url(#circle);}.end_marked_open_circle{marker-end:url(#open_circle);}.start_marked_open_circle{marker-start:url(#open_circle);}.end_marked_big_open_circle{marker-end:url(#big_open_circle);}.start_marked_big_open_circle{marker-start:url(#big_open_circle);}
        <!--separator-->
        
    </style>
    <defs>
        <marker id="arrow" viewBox="-2 -2 8 8" refX="4" refY="2" markerWidth="7" markerHeight="7" orient="auto-start-reverse">
            <polygon points="0,0 0,4 4,2 0,0"></polygon>
        </marker>
        <marker id="diamond" viewBox="-2 -2 8 8" refX="4" refY="2" markerWidth="7" markerHeight="7" orient="auto-start-reverse">
            <polygon points="0,2 2,0 4,2 2,4 0,2"></polygon>
        </marker>
        <marker id="circle" viewBox="0 0 8 8" refX="4" refY="4" markerWidth="7" markerHeight="7" orient="auto-start-reverse">
            <circle cx="4" cy="4" r="2" class="filled"></circle>
        </marker>
        <marker id="open_circle" viewBox="0 0 8 8" refX="4" refY="4" markerWidth="7" markerHeight="7" orient="auto-start-reverse">
            <circle cx="4" cy="4" r="2" class="bg_filled"></circle>
        </marker>
        <marker id="big_open_circle" viewBox="0 0 8 8" refX="4" refY="4" markerWidth="7" markerHeight="7" orient="auto-start-reverse">
            <circle cx="4" cy="4" r="3" class="bg_filled"></circle>
        </marker>
    </defs>
    <rect class="backdrop" x="0" y="0" width="448" height="160"></rect>
    <text x="2" y="12" >users</text>
    <text x="34" y="28" >game</text>
    <line x1="64" y1="32" x2="72" y2="32" class="solid"></line>
    <text x="74" y="28" >rooms</text>
    <path d="M 128,16 A 16,16 0,0,0 128,32" class="nofill"></path>
    <text x="130" y="28" >creator</text>
    <line x1="184" y1="32" x2="192" y2="32" class="solid"></line>
    <text x="194" y="28" >id</text>
    <path d="M 296,16 A 16,16 0,0,1 296,32" class="nofill"></path>
    <text x="66" y="44" >game</text>
    <text x="106" y="44" >players</text>
    <path d="M 176,32 A 16,16 0,0,0 176,48" class="nofill"></path>
    <text x="178" y="44" >game</text>
    <line x1="208" y1="48" x2="216" y2="48" class="solid"></line>
    <text x="218" y="44" >room</text>
    <text x="258" y="44" >id</text>
    <line x1="328" y1="48" x2="336" y2="48" class="solid"></line>
    <text x="338" y="44" >rooms.id</text>
    <path d="M 400,32 A 16,16 0,0,1 400,48" class="nofill"></path>
    <text x="106" y="60" >game</text>
    <line x1="136" y1="64" x2="144" y2="64" class="solid"></line>
    <text x="146" y="60" >id</text>
    <text x="66" y="76" >games</text>
    <path d="M 120,64 A 16,16 0,0,0 120,80" class="nofill"></path>
    <text x="122" y="76" >game</text>
    <line x1="152" y1="80" x2="160" y2="80" class="solid"></line>
    <text x="162" y="76" >room</text>
    <text x="202" y="76" >id</text>
    <line x1="272" y1="80" x2="280" y2="80" class="solid"></line>
    <text x="282" y="76" >rooms.id</text>
    <path d="M 344,64 A 16,16 0,0,1 344,80" class="nofill"></path>
    <text x="98" y="92" >game</text>
    <line x1="128" y1="96" x2="136" y2="96" class="solid"></line>
    <text x="138" y="92" >moves</text>
    <text x="194" y="92" >game</text>
    <line x1="224" y1="96" x2="232" y2="96" class="solid"></line>
    <text x="234" y="92" >id</text>
    <path d="M 336,80 A 16,16 0,0,1 336,96" class="nofill"></path>
    <text x="98" y="108" >game</text>
    <text x="138" y="108" >results</text>
    <path d="M 208,96 A 16,16 0,0,0 208,112" class="nofill"></path>
    <text x="210" y="108" >game</text>
    <line x1="240" y1="112" x2="248" y2="112" class="solid"></line>
    <text x="250" y="108" >id</text>
    <path d="M 352,96 A 16,16 0,0,1 352,112" class="nofill"></path>
    <text x="34" y="124" >friendships</text>
    <text x="138" y="124" >requester</text>
    <line x1="208" y1="128" x2="216" y2="128" class="solid"></line>
    <text x="218" y="124" >id,</text>
    <text x="250" y="124" >addressee</text>
    <line x1="320" y1="128" x2="328" y2="128" class="solid"></line>
    <text x="330" y="124" >id</text>
    <path d="M 432,112 A 16,16 0,0,1 432,128" class="nofill"></path>
    <text x="34" y="140" >room</text>
    <line x1="64" y1="144" x2="72" y2="144" class="solid"></line>
    <text x="74" y="140" >invitations</text>
    <path d="M 176,128 A 16,16 0,0,0 176,144" class="nofill"></path>
    <text x="178" y="140" >room</text>
    <line x1="208" y1="144" x2="216" y2="144" class="solid"></line>
    <text x="218" y="140" >id</text>
    <line x1="288" y1="144" x2="296" y2="144" class="solid"></line>
    <text x="298" y="140" >rooms.id</text>
    <path d="M 360,128 A 16,16 0,0,1 360,144" class="nofill"></path>
    <g>
        <line x1="4" y1="16" x2="4" y2="136" class="solid"></line>
        <line x1="4" y1="24" x2="24" y2="24" class="solid"></line>
        <line x1="4" y1="120" x2="24" y2="120" class="solid"></line>
        <line x1="4" y1="136" x2="24" y2="136" class="solid"></line>
    </g>
    <g>
        <text x="218" y="28">→</text>
        <text x="234" y="28">users.id</text>
    </g>
    <g>
        <line x1="36" y1="32" x2="36" y2="72" class="solid"></line>
        <line x1="36" y1="40" x2="56" y2="40" class="solid"></line>
        <line x1="36" y1="72" x2="56" y2="72" class="solid"></line>
    </g>
    <g>
        <line x1="96" y1="48" x2="104" y2="48" class="solid"></line>
        <path d="M 104,48 A 16,16 0,0,0 104,64" class="nofill"></path>
    </g>
    <g>
        <line x1="248" y1="48" x2="256" y2="48" class="solid"></line>
        <path d="M 248,48 A 16,16 0,0,1 248,64" class="nofill"></path>
    </g>
    <g>
        <text x="282" y="44">→</text>
        <text x="298" y="44">game</text>
    </g>
    <g>
        <line x1="68" y1="48" x2="68" y2="56" class="solid"></line>
        <line x1="68" y1="56" x2="88" y2="56" class="solid"></line>
    </g>
    <g>
        <text x="170" y="60">→</text>
        <text x="186" y="60">games.id</text>
    </g>
    <g>
        <line x1="192" y1="80" x2="200" y2="80" class="solid"></line>
        <path d="M 192,80 A 16,16 0,0,0 192,96" class="nofill"></path>
    </g>
    <g>
        <text x="226" y="76">→</text>
        <text x="242" y="76">game</text>
    </g>
    <g>
        <line x1="68" y1="80" x2="68" y2="104" class="solid"></line>
        <line x1="68" y1="88" x2="88" y2="88" class="solid"></line>
        <line x1="68" y1="104" x2="88" y2="104" class="solid"></line>
    </g>
    <g>
        <text x="258" y="92">→</text>
        <text x="274" y="92">games.id</text>
    </g>
    <g>
        <line x1="128" y1="112" x2="136" y2="112" class="solid"></line>
        <path d="M 136,112 A 16,16 0,0,0 136,128" class="nofill"></path>
    </g>
    <g>
        <text x="274" y="108">→</text>
        <text x="290" y="108">games.id</text>
    </g>
    <g>
        <text x="354" y="124">→</text>
        <text x="370" y="124">users.id</text>
    </g>
    <g>
        <text x="242" y="140">→</text>
        <text x="258" y="140">game</text>
    </g>
</svg>