<svg xmlns="http://www.w3.org/2000/svg" viewBox="0 0 736 522" width="736" height="522" style="background:#ffffff;border:1px solid #e5e5e5;border-radius:8px;max-width:100%;height:auto;font-family:Iosevka Fixed,ui-monospace,monospace"><rect x="0" y="0" width="736" height="522" fill="#ffffff"/><rect x="16" y="16" width="700" height="490" rx="10" fill="#dbe4ff" fill-opacity="0.3" stroke="#4a9eed" stroke-width="1"/><text x="36" y="48.8" font-size="18" fill="#2563eb" text-anchor="start" dominant-baseline="auto">GLOBAL CLOUD</text><rect x="36" y="66" width="205" height="180" rx="10" fill="#d0bfff" fill-opacity="0.35" stroke="#8b5cf6" stroke-width="1"/><text x="51" y="91.7" font-size="14" fill="#6d28d9" text-anchor="start" dominant-baseline="auto">Region: us-east-1</text><rect x="54" y="101" width="75" height="48" rx="10" fill="#a5d8ff" fill-opacity="1.0" stroke="#4a9eed" stroke-width="2"/><text x="91.5" y="130.1" font-size="14" fill="#1e1e1e" text-anchor="middle" dominant-baseline="auto">AZ 1a</text><rect x="146" y="101" width="75" height="48" rx="10" fill="#a5d8ff" fill-opacity="1.0" stroke="#4a9eed" stroke-width="2"/><text x="183.5" y="130.1" font-size="14" fill="#1e1e1e" text-anchor="middle" dominant-baseline="auto">AZ 1b</text><rect x="99" y="171" width="75" height="48" rx="10" fill="#a5d8ff" fill-opacity="1.0" stroke="#4a9eed" stroke-width="2"/><text x="136.5" y="200.1" font-size="14" fill="#1e1e1e" text-anchor="middle" dominant-baseline="auto">AZ 1c</text><rect x="261" y="66" width="205" height="180" rx="10" fill="#d0bfff" fill-opacity="0.35" stroke="#8b5cf6" stroke-width="1"/><text x="276" y="91.7" font-size="14" fill="#6d28d9" text-anchor="start" dominant-baseline="auto">Region: eu-west-1</text><rect x="279" y="101" width="75" height="48" rx="10" fill="#a5d8ff" fill-opacity="1.0" stroke="#4a9eed" stroke-width="2"/><text x="316.5" y="130.1" font-size="14" fill="#1e1e1e" text-anchor="middle" dominant-baseline="auto">AZ 1a</text><rect x="371" y="101" width="75" height="48" rx="10" fill="#a5d8ff" fill-opacity="1.0" stroke="#4a9eed" stroke-width="2"/><text x="408.5" y="130.1" font-size="14" fill="#1e1e1e" text-anchor="middle" dominant-baseline="auto">AZ 1b</text><rect x="279" y="171" width="75" height="48" rx="10" fill="#a5d8ff" fill-opacity="1.0" stroke="#4a9eed" stroke-width="2"/><text x="316.5" y="200.1" font-size="14" fill="#1e1e1e" text-anchor="middle" dominant-baseline="auto">AZ 1c</text><rect x="371" y="171" width="75" height="48" rx="10" fill="#a5d8ff" fill-opacity="1.0" stroke="#4a9eed" stroke-width="2"/><text x="408.5" y="200.1" font-size="14" fill="#1e1e1e" text-anchor="middle" dominant-baseline="auto">AZ 1d</text><rect x="486" y="66" width="205" height="180" rx="10" fill="#d0bfff" fill-opacity="0.35" stroke="#8b5cf6" stroke-width="1" stroke-dasharray="8 6"/><text x="588.5" y="161.8" font-size="16" fill="#1e1e1e" text-anchor="middle" dominant-baseline="auto">More Regions...</text><text x="36" y="288.7" font-size="14" fill="#b45309" text-anchor="start" dominant-baseline="auto">Edge Locations (CDN / PoPs)</text><rect x="36" y="296" width="115" height="55" rx="10" fill="#ffd8a8" fill-opacity="1.0" stroke="#f59e0b" stroke-width="2"/><text x="93.5" y="329.3" font-size="16" fill="#1e1e1e" text-anchor="middle" dominant-baseline="auto">Edge</text><rect x="166" y="296" width="115" height="55" rx="10" fill="#ffd8a8" fill-opacity="1.0" stroke="#f59e0b" stroke-width="2"/><text x="223.5" y="329.3" font-size="16" fill="#1e1e1e" text-anchor="middle" dominant-baseline="auto">Edge</text><rect x="296" y="296" width="115" height="55" rx="10" fill="#ffd8a8" fill-opacity="1.0" stroke="#f59e0b" stroke-width="2"/><text x="353.5" y="329.3" font-size="16" fill="#1e1e1e" text-anchor="middle" dominant-baseline="auto">Edge</text><rect x="426" y="296" width="115" height="55" rx="10" fill="#ffd8a8" fill-opacity="1.0" stroke="#f59e0b" stroke-width="2"/><text x="483.5" y="329.3" font-size="16" fill="#1e1e1e" text-anchor="middle" dominant-baseline="auto">Edge</text><rect x="556" y="296" width="115" height="55" rx="10" fill="#ffd8a8" fill-opacity="1.0" stroke="#f59e0b" stroke-width="2"/><text x="613.5" y="329.3" font-size="16" fill="#1e1e1e" text-anchor="middle" dominant-baseline="auto">Edge</text><rect x="36" y="386" width="200" height="60" rx="10" fill="#c3fae8" fill-opacity="1.0" stroke="#0d9488" stroke-width="2"/><text x="136.0" y="421.8" font-size="16" fill="#1e1e1e" text-anchor="middle" dominant-baseline="auto">Local Zone</text><rect x="256" y="386" width="200" height="60" rx="10" fill="#c3fae8" fill-opacity="1.0" stroke="#0d9488" stroke-width="2"/><text x="356.0" y="421.8" font-size="16" fill="#1e1e1e" text-anchor="middle" dominant-baseline="auto">Wavelength</text><text x="476" y="425.7" font-size="14" fill="#757575" text-anchor="start" dominant-baseline="auto">(extensions of parent region)</text></svg>