<svg xmlns="http://www.w3.org/2000/svg" width="568" height="128" style="background:#ffffff;border:1px solid #e5e5e5;border-radius:8px;max-width:100%;height:auto"><rect x="0" y="0" width="100%" height="100%" fill="#ffffff"/>
    <style>
        line, path, circle, rect, polygon{stroke:black;stroke-width:2;stroke-opacity:1;fill-opacity:1;stroke-linecap:round;stroke-linejoin:miter;}text{font-family:Iosevka Fixed, monospace;font-size:14px;}rect.backdrop{stroke:none;fill:transparent;}.broken{stroke-dasharray:8;}.filled{fill:black;}.bg_filled{fill:transparent;}.nofill{fill:transparent;}.end_marked_arrow{marker-end:url(#arrow);}.start_marked_arrow{marker-start:url(#arrow);}.end_marked_diamond{marker-end:url(#diamond);}.start_marked_diamond{marker-start:url(#diamond);}.end_marked_circle{marker-end:url(#circle);}.start_marked_circle{marker-start:url(#circle);}.end_marked_open_circle{marker-end:url(#open_circle);}.start_marked_open_circle{marker-start:url(#open_circle);}.end_marked_big_open_circle{marker-end:url(#big_open_circle);}.start_marked_big_open_circle{marker-start:url(#big_open_circle);}
        <!--separator-->
        
    </style>
    <defs>
        <marker id="arrow" viewBox="-2 -2 8 8" refX="4" refY="2" markerWidth="7" markerHeight="7" orient="auto-start-reverse">
            <polygon points="0,0 0,4 4,2 0,0"></polygon>
        </marker>
        <marker id="diamond" viewBox="-2 -2 8 8" refX="4" refY="2" markerWidth="7" markerHeight="7" orient="auto-start-reverse">
            <polygon points="0,2 2,0 4,2 2,4 0,2"></polygon>
        </marker>
        <marker id="circle" viewBox="0 0 8 8" refX="4" refY="4" markerWidth="7" markerHeight="7" orient="auto-start-reverse">
            <circle cx="4" cy="4" r="2" class="filled"></circle>
        </marker>
        <marker id="open_circle" viewBox="0 0 8 8" refX="4" refY="4" markerWidth="7" markerHeight="7" orient="auto-start-reverse">
            <circle cx="4" cy="4" r="2" class="bg_filled"></circle>
        </marker>
        <marker id="big_open_circle" viewBox="0 0 8 8" refX="4" refY="4" markerWidth="7" markerHeight="7" orient="auto-start-reverse">
            <circle cx="4" cy="4" r="3" class="bg_filled"></circle>
        </marker>
    </defs>
    <rect class="backdrop" x="0" y="0" width="568" height="128"></rect>
    <text x="2" y="12" >5G</text>
    <text x="26" y="12" >Device</text>
    <text x="114" y="12" >Cell</text>
    <text x="154" y="12" >Tower</text>
    <text x="234" y="12" >Carrier</text>
    <text x="298" y="12" >Network</text>
    <text x="394" y="12" >Wavelength</text>
    <text x="386" y="60" >EC2</text>
    <text x="418" y="60" >instances</text>
    <text x="386" y="76" >in</text>
    <text x="410" y="76" >carrier</text>
    <text x="474" y="76" >DC</text>
    <text x="306" y="108" >traversal</text>
    <text x="386" y="108" >of</text>
    <text x="410" y="108" >public</text>
    <text x="466" y="108" >internet</text>
    <path d="M 528,96 A 16,16 0,0,1 528,112" class="nofill"></path>
    <text x="482" y="12" >Zone</text>
    <path d="M 528,0 A 16,16 0,0,0 528,16" class="nofill"></path>
    <text x="530" y="12" >AWS</text>
    <path d="M 552,0 A 16,16 0,0,1 552,16" class="nofill"></path>
    <path d="M 280,96 A 16,16 0,0,0 280,112" class="nofill"></path>
    <text x="282" y="108" >No</text>
    <g>
        <line x1="80" y1="8" x2="96" y2="8" class="solid"></line>
        <polygon points="96,4 104,8 96,12" class="filled"></polygon>
    </g>
    <g>
        <line x1="200" y1="8" x2="216" y2="8" class="solid"></line>
        <polygon points="216,4 224,8 216,12" class="filled"></polygon>
    </g>
    <g>
        <line x1="360" y1="8" x2="376" y2="8" class="solid"></line>
        <polygon points="376,4 384,8 376,12" class="filled"></polygon>
    </g>
    <g>
        <line x1="436" y1="16" x2="436" y2="40" class="solid"></line>
        <line x1="372" y1="40" x2="500" y2="40" class="solid"></line>
        <line x1="372" y1="40" x2="372" y2="88" class="solid"></line>
        <line x1="500" y1="40" x2="500" y2="88" class="solid"></line>
        <line x1="372" y1="88" x2="500" y2="88" class="solid"></line>
    </g>
</svg>