<svg xmlns="http://www.w3.org/2000/svg" width="488" height="144" style="background:#ffffff;border:1px solid #e5e5e5;border-radius:8px;max-width:100%;height:auto"><rect x="0" y="0" width="100%" height="100%" fill="#ffffff"/>
    <style>
        line, path, circle, rect, polygon{stroke:black;stroke-width:2;stroke-opacity:1;fill-opacity:1;stroke-linecap:round;stroke-linejoin:miter;}text{font-family:Iosevka Fixed, monospace;font-size:14px;}rect.backdrop{stroke:none;fill:transparent;}.broken{stroke-dasharray:8;}.filled{fill:black;}.bg_filled{fill:transparent;}.nofill{fill:transparent;}.end_marked_arrow{marker-end:url(#arrow);}.start_marked_arrow{marker-start:url(#arrow);}.end_marked_diamond{marker-end:url(#diamond);}.start_marked_diamond{marker-start:url(#diamond);}.end_marked_circle{marker-end:url(#circle);}.start_marked_circle{marker-start:url(#circle);}.end_marked_open_circle{marker-end:url(#open_circle);}.start_marked_open_circle{marker-start:url(#open_circle);}.end_marked_big_open_circle{marker-end:url(#big_open_circle);}.start_marked_big_open_circle{marker-start:url(#big_open_circle);}
        <!--separator-->
        
    </style>
    <defs>
        <marker id="arrow" viewBox="-2 -2 8 8" refX="4" refY="2" markerWidth="7" markerHeight="7" orient="auto-start-reverse">
            <polygon points="0,0 0,4 4,2 0,0"></polygon>
        </marker>
        <marker id="diamond" viewBox="-2 -2 8 8" refX="4" refY="2" markerWidth="7" markerHeight="7" orient="auto-start-reverse">
            <polygon points="0,2 2,0 4,2 2,4 0,2"></polygon>
        </marker>
        <marker id="circle" viewBox="0 0 8 8" refX="4" refY="4" markerWidth="7" markerHeight="7" orient="auto-start-reverse">
            <circle cx="4" cy="4" r="2" class="filled"></circle>
        </marker>
        <marker id="open_circle" viewBox="0 0 8 8" refX="4" refY="4" markerWidth="7" markerHeight="7" orient="auto-start-reverse">
            <circle cx="4" cy="4" r="2" class="bg_filled"></circle>
        </marker>
        <marker id="big_open_circle" viewBox="0 0 8 8" refX="4" refY="4" markerWidth="7" markerHeight="7" orient="auto-start-reverse">
            <circle cx="4" cy="4" r="3" class="bg_filled"></circle>
        </marker>
    </defs>
    <rect class="backdrop" x="0" y="0" width="488" height="144"></rect>
    <rect x="20" y="24" width="72" height="48" class="solid nofill" rx="0"></rect>
    <text x="34" y="44" >i</text>
    <line x1="40" y1="40" x2="48" y2="40" class="solid"></line>
    <text x="50" y="44" >aaa</text>
    <text x="34" y="60" >i</text>
    <line x1="40" y1="56" x2="48" y2="56" class="solid"></line>
    <text x="50" y="60" >bbb</text>
    <rect x="172" y="24" width="72" height="48" class="solid nofill" rx="0"></rect>
    <text x="186" y="44" >i</text>
    <line x1="192" y1="40" x2="200" y2="40" class="solid"></line>
    <text x="202" y="44" >ccc</text>
    <text x="186" y="60" >i</text>
    <line x1="192" y1="56" x2="200" y2="56" class="solid"></line>
    <text x="202" y="60" >ddd</text>
    <text x="34" y="12" >Rack</text>
    <text x="74" y="12" >1</text>
    <text x="194" y="12" >Rack</text>
    <text x="234" y="12" >2</text>
    <text x="106" y="60" >low</text>
    <text x="138" y="60" >lat</text>
    <text x="274" y="44" >10</text>
    <text x="298" y="44" >Gbps+</text>
    <text x="346" y="44" >between</text>
    <text x="274" y="60" >&lt;</text>
    <text x="290" y="60" >1ms</text>
    <text x="322" y="60" >latency</text>
    <text x="410" y="44" >instances</text>
    <text x="18" y="108" >Use:</text>
    <text x="58" y="108" >HPC,</text>
    <text x="98" y="108" >distributed</text>
    <text x="194" y="108" >ML</text>
    <text x="218" y="108" >training,</text>
    <text x="298" y="108" >financial</text>
    <text x="378" y="108" >simulations</text>
    <text x="18" y="124" >Risk:</text>
    <text x="66" y="124" >Single</text>
    <text x="122" y="124" >rack</text>
    <text x="162" y="124" >failure</text>
    <text x="226" y="124" >takes</text>
    <text x="274" y="124" >out</text>
    <text x="306" y="124" >the</text>
    <text x="338" y="124" >group</text>
    <g>
        <polygon points="104,36 96,40 104,44" class="filled"></polygon>
        <line x1="104" y1="40" x2="160" y2="40" class="solid"></line>
        <polygon points="160,36 168,40 160,44" class="filled"></polygon>
    </g>
</svg>