<svg xmlns="http://www.w3.org/2000/svg" width="480" height="272" style="background:#ffffff;border:1px solid #e5e5e5;border-radius:8px;max-width:100%;height:auto"><rect x="0" y="0" width="100%" height="100%" fill="#ffffff"/>
    <style>
        line, path, circle, rect, polygon{stroke:black;stroke-width:2;stroke-opacity:1;fill-opacity:1;stroke-linecap:round;stroke-linejoin:miter;}text{font-family:Iosevka Fixed, monospace;font-size:14px;}rect.backdrop{stroke:none;fill:transparent;}.broken{stroke-dasharray:8;}.filled{fill:black;}.bg_filled{fill:transparent;}.nofill{fill:transparent;}.end_marked_arrow{marker-end:url(#arrow);}.start_marked_arrow{marker-start:url(#arrow);}.end_marked_diamond{marker-end:url(#diamond);}.start_marked_diamond{marker-start:url(#diamond);}.end_marked_circle{marker-end:url(#circle);}.start_marked_circle{marker-start:url(#circle);}.end_marked_open_circle{marker-end:url(#open_circle);}.start_marked_open_circle{marker-start:url(#open_circle);}.end_marked_big_open_circle{marker-end:url(#big_open_circle);}.start_marked_big_open_circle{marker-start:url(#big_open_circle);}
        <!--separator-->
        
    </style>
    <defs>
        <marker id="arrow" viewBox="-2 -2 8 8" refX="4" refY="2" markerWidth="7" markerHeight="7" orient="auto-start-reverse">
            <polygon points="0,0 0,4 4,2 0,0"></polygon>
        </marker>
        <marker id="diamond" viewBox="-2 -2 8 8" refX="4" refY="2" markerWidth="7" markerHeight="7" orient="auto-start-reverse">
            <polygon points="0,2 2,0 4,2 2,4 0,2"></polygon>
        </marker>
        <marker id="circle" viewBox="0 0 8 8" refX="4" refY="4" markerWidth="7" markerHeight="7" orient="auto-start-reverse">
            <circle cx="4" cy="4" r="2" class="filled"></circle>
        </marker>
        <marker id="open_circle" viewBox="0 0 8 8" refX="4" refY="4" markerWidth="7" markerHeight="7" orient="auto-start-reverse">
            <circle cx="4" cy="4" r="2" class="bg_filled"></circle>
        </marker>
        <marker id="big_open_circle" viewBox="0 0 8 8" refX="4" refY="4" markerWidth="7" markerHeight="7" orient="auto-start-reverse">
            <circle cx="4" cy="4" r="3" class="bg_filled"></circle>
        </marker>
    </defs>
    <rect class="backdrop" x="0" y="0" width="480" height="272"></rect>
    <rect x="20" y="56" width="80" height="32" class="solid nofill" rx="0"></rect>
    <text x="34" y="76" >Pending</text>
    <rect x="260" y="56" width="88" height="32" class="solid nofill" rx="0"></rect>
    <text x="274" y="76" >Stopping</text>
    <rect x="260" y="200" width="120" height="32" class="solid nofill" rx="0"></rect>
    <text x="282" y="220" >Terminated</text>
    <text x="154" y="76" >Running</text>
    <text x="402" y="76" >Stopped</text>
    <line x1="436" y1="96" x2="436" y2="128" class="solid"></line>
    <text x="274" y="140" >Shutting</text>
    <line x1="336" y1="136" x2="344" y2="136" class="solid"></line>
    <text x="346" y="140" >down</text>
    <line x1="388" y1="128" x2="388" y2="144" class="solid"></line>
    <line x1="444" y1="128" x2="444" y2="144" class="solid"></line>
    <path d="M 264,240 A 16,16 0,0,0 264,256" class="nofill"></path>
    <text x="266" y="252" >cannot</text>
    <text x="322" y="252" >restart</text>
    <path d="M 376,240 A 16,16 0,0,1 376,256" class="nofill"></path>
    <g>
        <line x1="60" y1="8" x2="436" y2="8" class="solid"></line>
        <line x1="60" y1="8" x2="60" y2="36" class="solid"></line>
        <line x1="436" y1="8" x2="436" y2="48" class="solid"></line>
        <polygon points="56,36 64,36 60,48" class="filled"></polygon>
    </g>
    <g>
        <line x1="140" y1="56" x2="220" y2="56" class="solid"></line>
        <line x1="140" y1="56" x2="140" y2="88" class="solid"></line>
        <line x1="220" y1="56" x2="220" y2="88" class="solid"></line>
        <line x1="140" y1="88" x2="220" y2="88" class="solid"></line>
        <line x1="180" y1="88" x2="180" y2="136" class="solid"></line>
        <line x1="180" y1="136" x2="248" y2="136" class="solid"></line>
        <polygon points="248,132 256,136 248,140" class="filled"></polygon>
    </g>
    <g>
        <line x1="388" y1="56" x2="468" y2="56" class="solid"></line>
        <line x1="388" y1="56" x2="388" y2="88" class="solid"></line>
        <line x1="428" y1="48" x2="428" y2="56" class="solid"></line>
        <line x1="468" y1="56" x2="468" y2="88" class="solid"></line>
        <line x1="388" y1="88" x2="468" y2="88" class="solid"></line>
    </g>
    <g>
        <line x1="104" y1="72" x2="128" y2="72" class="solid"></line>
        <polygon points="128,68 136,72 128,76" class="filled"></polygon>
    </g>
    <g>
        <line x1="224" y1="72" x2="248" y2="72" class="solid"></line>
        <polygon points="248,68 256,72 248,76" class="filled"></polygon>
    </g>
    <g>
        <line x1="352" y1="72" x2="376" y2="72" class="solid"></line>
        <polygon points="376,68 384,72 376,76" class="filled"></polygon>
    </g>
    <g>
        <line x1="260" y1="120" x2="380" y2="120" class="solid"></line>
        <line x1="260" y1="120" x2="260" y2="152" class="solid"></line>
        <line x1="380" y1="120" x2="380" y2="128" class="solid"></line>
        <line x1="260" y1="152" x2="380" y2="152" class="solid"></line>
        <line x1="316" y1="152" x2="316" y2="180" class="solid"></line>
        <line x1="380" y1="144" x2="380" y2="152" class="solid"></line>
        <polygon points="312,180 320,180 316,192" class="filled"></polygon>
    </g>
    <g>
        <line x1="436" y1="144" x2="436" y2="216" class="solid"></line>
        <polygon points="392,212 384,216 392,220" class="filled"></polygon>
        <line x1="392" y1="216" x2="436" y2="216" class="solid"></line>
    </g>
</svg>