<svg xmlns="http://www.w3.org/2000/svg" width="488" height="176" style="background:#ffffff;border:1px solid #e5e5e5;border-radius:8px;max-width:100%;height:auto"><rect x="0" y="0" width="100%" height="100%" fill="#ffffff"/>
    <style>
        line, path, circle, rect, polygon{stroke:black;stroke-width:2;stroke-opacity:1;fill-opacity:1;stroke-linecap:round;stroke-linejoin:miter;}text{font-family:Iosevka Fixed, monospace;font-size:14px;}rect.backdrop{stroke:none;fill:transparent;}.broken{stroke-dasharray:8;}.filled{fill:black;}.bg_filled{fill:transparent;}.nofill{fill:transparent;}.end_marked_arrow{marker-end:url(#arrow);}.start_marked_arrow{marker-start:url(#arrow);}.end_marked_diamond{marker-end:url(#diamond);}.start_marked_diamond{marker-start:url(#diamond);}.end_marked_circle{marker-end:url(#circle);}.start_marked_circle{marker-start:url(#circle);}.end_marked_open_circle{marker-end:url(#open_circle);}.start_marked_open_circle{marker-start:url(#open_circle);}.end_marked_big_open_circle{marker-end:url(#big_open_circle);}.start_marked_big_open_circle{marker-start:url(#big_open_circle);}
        <!--separator-->
        
    </style>
    <defs>
        <marker id="arrow" viewBox="-2 -2 8 8" refX="4" refY="2" markerWidth="7" markerHeight="7" orient="auto-start-reverse">
            <polygon points="0,0 0,4 4,2 0,0"></polygon>
        </marker>
        <marker id="diamond" viewBox="-2 -2 8 8" refX="4" refY="2" markerWidth="7" markerHeight="7" orient="auto-start-reverse">
            <polygon points="0,2 2,0 4,2 2,4 0,2"></polygon>
        </marker>
        <marker id="circle" viewBox="0 0 8 8" refX="4" refY="4" markerWidth="7" markerHeight="7" orient="auto-start-reverse">
            <circle cx="4" cy="4" r="2" class="filled"></circle>
        </marker>
        <marker id="open_circle" viewBox="0 0 8 8" refX="4" refY="4" markerWidth="7" markerHeight="7" orient="auto-start-reverse">
            <circle cx="4" cy="4" r="2" class="bg_filled"></circle>
        </marker>
        <marker id="big_open_circle" viewBox="0 0 8 8" refX="4" refY="4" markerWidth="7" markerHeight="7" orient="auto-start-reverse">
            <circle cx="4" cy="4" r="3" class="bg_filled"></circle>
        </marker>
    </defs>
    <rect class="backdrop" x="0" y="0" width="488" height="176"></rect>
    <text x="2" y="12" >CPU</text>
    <text x="34" y="12" >Utilization</text>
    <text x="2" y="28" >100%</text>
    <line x1="40" y1="24" x2="224" y2="24" class="solid"></line>
    <line x1="40" y1="88" x2="48" y2="88" class="solid"></line>
    <line x1="56" y1="88" x2="88" y2="88" class="solid"></line>
    <line x1="96" y1="88" x2="144" y2="88" class="solid"></line>
    <line x1="152" y1="88" x2="216" y2="88" class="solid"></line>
    <line x1="40" y1="152" x2="48" y2="152" class="solid"></line>
    <text x="234" y="28" >Burst</text>
    <text x="282" y="28" >ceiling</text>
    <text x="178" y="60" >Spending</text>
    <text x="250" y="60" >credits</text>
    <text x="10" y="92" >20%</text>
    <text x="226" y="92" >Baseline</text>
    <path d="M 304,80 A 16,16 0,0,0 304,96" class="nofill"></path>
    <text x="306" y="92" >e.g.,</text>
    <text x="354" y="92" >t3.medium</text>
    <line x1="432" y1="86" x2="440" y2="86" class="solid"></line>
    <line x1="432" y1="90" x2="440" y2="90" class="solid"></line>
    <text x="450" y="92" >20%</text>
    <path d="M 472,80 A 16,16 0,0,1 472,96" class="nofill"></path>
    <text x="186" y="124" >Earning</text>
    <text x="250" y="124" >credits</text>
    <text x="18" y="156" >0%</text>
    <text x="226" y="156" >Time</text>
    <g>
        <line x1="52" y1="32" x2="52" y2="152" class="solid"></line>
        <line x1="52" y1="152" x2="216" y2="152" class="solid"></line>
    </g>
    <g>
        <line x1="120" y1="32" x2="64" y2="144" class="solid"></line>
        <line x1="120" y1="32" x2="176" y2="144" class="solid"></line>
    </g>
</svg>