<svg xmlns="http://www.w3.org/2000/svg" width="392" height="304" style="background:#ffffff;border:1px solid #e5e5e5;border-radius:8px;max-width:100%;height:auto"><rect x="0" y="0" width="100%" height="100%" fill="#ffffff"/>
    <style>
        line, path, circle, rect, polygon{stroke:black;stroke-width:2;stroke-opacity:1;fill-opacity:1;stroke-linecap:round;stroke-linejoin:miter;}text{font-family:Iosevka Fixed, monospace;font-size:14px;}rect.backdrop{stroke:none;fill:transparent;}.broken{stroke-dasharray:8;}.filled{fill:black;}.bg_filled{fill:transparent;}.nofill{fill:transparent;}.end_marked_arrow{marker-end:url(#arrow);}.start_marked_arrow{marker-start:url(#arrow);}.end_marked_diamond{marker-end:url(#diamond);}.start_marked_diamond{marker-start:url(#diamond);}.end_marked_circle{marker-end:url(#circle);}.start_marked_circle{marker-start:url(#circle);}.end_marked_open_circle{marker-end:url(#open_circle);}.start_marked_open_circle{marker-start:url(#open_circle);}.end_marked_big_open_circle{marker-end:url(#big_open_circle);}.start_marked_big_open_circle{marker-start:url(#big_open_circle);}
        <!--separator-->
        
    </style>
    <defs>
        <marker id="arrow" viewBox="-2 -2 8 8" refX="4" refY="2" markerWidth="7" markerHeight="7" orient="auto-start-reverse">
            <polygon points="0,0 0,4 4,2 0,0"></polygon>
        </marker>
        <marker id="diamond" viewBox="-2 -2 8 8" refX="4" refY="2" markerWidth="7" markerHeight="7" orient="auto-start-reverse">
            <polygon points="0,2 2,0 4,2 2,4 0,2"></polygon>
        </marker>
        <marker id="circle" viewBox="0 0 8 8" refX="4" refY="4" markerWidth="7" markerHeight="7" orient="auto-start-reverse">
            <circle cx="4" cy="4" r="2" class="filled"></circle>
        </marker>
        <marker id="open_circle" viewBox="0 0 8 8" refX="4" refY="4" markerWidth="7" markerHeight="7" orient="auto-start-reverse">
            <circle cx="4" cy="4" r="2" class="bg_filled"></circle>
        </marker>
        <marker id="big_open_circle" viewBox="0 0 8 8" refX="4" refY="4" markerWidth="7" markerHeight="7" orient="auto-start-reverse">
            <circle cx="4" cy="4" r="3" class="bg_filled"></circle>
        </marker>
    </defs>
    <rect class="backdrop" x="0" y="0" width="392" height="304"></rect>
    <rect x="28" y="40" width="328" height="48" class="solid nofill" rx="0"></rect>
    <text x="122" y="60" >Customer</text>
    <text x="194" y="60" >Workload</text>
    <path d="M 96,64 A 16,16 0,0,0 96,80" class="nofill"></path>
    <text x="98" y="76" >all</text>
    <text x="130" y="76" >vCPUs</text>
    <text x="178" y="76" >dedicated</text>
    <text x="258" y="76" >to</text>
    <text x="282" y="76" >you</text>
    <path d="M 304,64 A 16,16 0,0,1 304,80" class="nofill"></path>
    <rect x="28" y="184" width="88" height="80" class="solid nofill" rx="0"></rect>
    <text x="42" y="204" >Nitro</text>
    <text x="42" y="220" >Card</text>
    <text x="82" y="220" >for</text>
    <text x="42" y="236" >VPC</text>
    <line x1="72" y1="224" x2="64" y2="240" class="solid"></line>
    <text x="74" y="236" >EBS</text>
    <text x="42" y="252" >Network</text>
    <rect x="132" y="184" width="88" height="80" class="solid nofill" rx="0"></rect>
    <text x="146" y="204" >Nitro</text>
    <text x="146" y="220" >Card</text>
    <text x="186" y="220" >for</text>
    <text x="146" y="236" >Storage</text>
    <path d="M 152,240 A 16,16 0,0,0 152,256" class="nofill"></path>
    <text x="154" y="252" >NVMe</text>
    <path d="M 184,240 A 16,16 0,0,1 184,256" class="nofill"></path>
    <rect x="236" y="184" width="104" height="80" class="solid nofill" rx="0"></rect>
    <text x="250" y="204" >Nitro</text>
    <text x="250" y="220" >Security</text>
    <text x="250" y="236" >Chip</text>
    <text x="122" y="28" >EC2</text>
    <text x="154" y="28" >Instance</text>
    <path d="M 232,16 A 16,16 0,0,0 232,32" class="nofill"></path>
    <text x="234" y="28" >Guest</text>
    <path d="M 272,16 A 16,16 0,0,1 272,32" class="nofill"></path>
    <line x1="380" y1="16" x2="380" y2="96" class="solid"></line>
    <text x="122" y="124" >Nitro</text>
    <text x="170" y="124" >Hypervisor</text>
    <path d="M 32,128 A 16,16 0,0,0 32,144" class="nofill"></path>
    <text x="34" y="140" >Lightweight</text>
    <text x="130" y="140" >KVM</text>
    <line x1="152" y1="136" x2="160" y2="136" class="solid"></line>
    <text x="162" y="140" >based,</text>
    <text x="218" y="140" >minimal</text>
    <text x="282" y="140" >overhead</text>
    <path d="M 344,128 A 16,16 0,0,1 344,144" class="nofill"></path>
    <text x="26" y="172" >Nitro</text>
    <text x="74" y="172" >Cards</text>
    <path d="M 128,160 A 16,16 0,0,0 128,176" class="nofill"></path>
    <text x="130" y="172" >dedicated</text>
    <text x="210" y="172" >hardware</text>
    <path d="M 272,160 A 16,16 0,0,1 272,176" class="nofill"></path>
    <line x1="364" y1="176" x2="364" y2="272" class="solid"></line>
    <g>
        <line x1="4" y1="8" x2="372" y2="8" class="solid"></line>
        <line x1="4" y1="8" x2="4" y2="280" class="solid"></line>
        <line x1="372" y1="8" x2="372" y2="16" class="solid"></line>
        <line x1="4" y1="104" x2="372" y2="104" class="solid"></line>
        <line x1="372" y1="96" x2="372" y2="176" class="solid"></line>
        <line x1="4" y1="152" x2="372" y2="152" class="solid"></line>
        <line x1="4" y1="280" x2="372" y2="280" class="solid"></line>
        <line x1="372" y1="272" x2="372" y2="280" class="solid"></line>
    </g>
</svg>