<svg xmlns="http://www.w3.org/2000/svg" width="600" height="80" style="background:#ffffff;border:1px solid #e5e5e5;border-radius:8px;max-width:100%;height:auto"><rect x="0" y="0" width="100%" height="100%" fill="#ffffff"/>
    <style>
        line, path, circle, rect, polygon{stroke:black;stroke-width:2;stroke-opacity:1;fill-opacity:1;stroke-linecap:round;stroke-linejoin:miter;}text{font-family:Iosevka Fixed, monospace;font-size:14px;}rect.backdrop{stroke:none;fill:transparent;}.broken{stroke-dasharray:8;}.filled{fill:black;}.bg_filled{fill:transparent;}.nofill{fill:transparent;}.end_marked_arrow{marker-end:url(#arrow);}.start_marked_arrow{marker-start:url(#arrow);}.end_marked_diamond{marker-end:url(#diamond);}.start_marked_diamond{marker-start:url(#diamond);}.end_marked_circle{marker-end:url(#circle);}.start_marked_circle{marker-start:url(#circle);}.end_marked_open_circle{marker-end:url(#open_circle);}.start_marked_open_circle{marker-start:url(#open_circle);}.end_marked_big_open_circle{marker-end:url(#big_open_circle);}.start_marked_big_open_circle{marker-start:url(#big_open_circle);}
        <!--separator-->
        
    </style>
    <defs>
        <marker id="arrow" viewBox="-2 -2 8 8" refX="4" refY="2" markerWidth="7" markerHeight="7" orient="auto-start-reverse">
            <polygon points="0,0 0,4 4,2 0,0"></polygon>
        </marker>
        <marker id="diamond" viewBox="-2 -2 8 8" refX="4" refY="2" markerWidth="7" markerHeight="7" orient="auto-start-reverse">
            <polygon points="0,2 2,0 4,2 2,4 0,2"></polygon>
        </marker>
        <marker id="circle" viewBox="0 0 8 8" refX="4" refY="4" markerWidth="7" markerHeight="7" orient="auto-start-reverse">
            <circle cx="4" cy="4" r="2" class="filled"></circle>
        </marker>
        <marker id="open_circle" viewBox="0 0 8 8" refX="4" refY="4" markerWidth="7" markerHeight="7" orient="auto-start-reverse">
            <circle cx="4" cy="4" r="2" class="bg_filled"></circle>
        </marker>
        <marker id="big_open_circle" viewBox="0 0 8 8" refX="4" refY="4" markerWidth="7" markerHeight="7" orient="auto-start-reverse">
            <circle cx="4" cy="4" r="3" class="bg_filled"></circle>
        </marker>
    </defs>
    <rect class="backdrop" x="0" y="0" width="600" height="80"></rect>
    <text x="2" y="12" >Day</text>
    <text x="2" y="60" >Standard</text>
    <text x="34" y="12" >0</text>
    <text x="106" y="12" >Day</text>
    <text x="106" y="60" >Standard</text>
    <line x1="168" y1="56" x2="176" y2="56" class="solid"></line>
    <text x="178" y="60" >IA</text>
    <text x="138" y="12" >30</text>
    <text x="242" y="12" >Day</text>
    <text x="234" y="60" >Glacier</text>
    <text x="274" y="12" >90</text>
    <text x="402" y="12" >Day</text>
    <text x="394" y="60" >Deep</text>
    <text x="434" y="12" >365</text>
    <text x="530" y="12" >Day</text>
    <text x="562" y="12" >2555</text>
    <text x="530" y="60" >DELETE</text>
    <text x="298" y="60" >Instant</text>
    <text x="434" y="60" >Archive</text>
    <g>
        <line x1="20" y1="16" x2="20" y2="36" class="solid"></line>
        <polygon points="16,36 24,36 20,48" class="filled"></polygon>
    </g>
    <g>
        <line x1="124" y1="16" x2="124" y2="36" class="solid"></line>
        <polygon points="120,36 128,36 124,48" class="filled"></polygon>
    </g>
    <g>
        <line x1="260" y1="16" x2="260" y2="36" class="solid"></line>
        <polygon points="256,36 264,36 260,48" class="filled"></polygon>
    </g>
    <g>
        <line x1="420" y1="16" x2="420" y2="36" class="solid"></line>
        <polygon points="416,36 424,36 420,48" class="filled"></polygon>
    </g>
    <g>
        <line x1="556" y1="16" x2="556" y2="36" class="solid"></line>
        <polygon points="552,36 560,36 556,48" class="filled"></polygon>
    </g>
    <g>
        <line x1="72" y1="56" x2="88" y2="56" class="solid"></line>
        <polygon points="88,52 96,56 88,60" class="filled"></polygon>
    </g>
    <g>
        <line x1="200" y1="56" x2="216" y2="56" class="solid"></line>
        <polygon points="216,52 224,56 216,60" class="filled"></polygon>
    </g>
    <g>
        <line x1="360" y1="56" x2="376" y2="56" class="solid"></line>
        <polygon points="376,52 384,56 376,60" class="filled"></polygon>
    </g>
    <g>
        <line x1="496" y1="56" x2="512" y2="56" class="solid"></line>
        <polygon points="512,52 520,56 512,60" class="filled"></polygon>
    </g>
</svg>