<svg xmlns="http://www.w3.org/2000/svg" width="592" height="240" style="background:#ffffff;border:1px solid #e5e5e5;border-radius:8px;max-width:100%;height:auto"><rect x="0" y="0" width="100%" height="100%" fill="#ffffff"/>
    <style>
        line, path, circle, rect, polygon{stroke:black;stroke-width:2;stroke-opacity:1;fill-opacity:1;stroke-linecap:round;stroke-linejoin:miter;}text{font-family:Iosevka Fixed, monospace;font-size:14px;}rect.backdrop{stroke:none;fill:transparent;}.broken{stroke-dasharray:8;}.filled{fill:black;}.bg_filled{fill:transparent;}.nofill{fill:transparent;}.end_marked_arrow{marker-end:url(#arrow);}.start_marked_arrow{marker-start:url(#arrow);}.end_marked_diamond{marker-end:url(#diamond);}.start_marked_diamond{marker-start:url(#diamond);}.end_marked_circle{marker-end:url(#circle);}.start_marked_circle{marker-start:url(#circle);}.end_marked_open_circle{marker-end:url(#open_circle);}.start_marked_open_circle{marker-start:url(#open_circle);}.end_marked_big_open_circle{marker-end:url(#big_open_circle);}.start_marked_big_open_circle{marker-start:url(#big_open_circle);}
        <!--separator-->
        
    </style>
    <defs>
        <marker id="arrow" viewBox="-2 -2 8 8" refX="4" refY="2" markerWidth="7" markerHeight="7" orient="auto-start-reverse">
            <polygon points="0,0 0,4 4,2 0,0"></polygon>
        </marker>
        <marker id="diamond" viewBox="-2 -2 8 8" refX="4" refY="2" markerWidth="7" markerHeight="7" orient="auto-start-reverse">
            <polygon points="0,2 2,0 4,2 2,4 0,2"></polygon>
        </marker>
        <marker id="circle" viewBox="0 0 8 8" refX="4" refY="4" markerWidth="7" markerHeight="7" orient="auto-start-reverse">
            <circle cx="4" cy="4" r="2" class="filled"></circle>
        </marker>
        <marker id="open_circle" viewBox="0 0 8 8" refX="4" refY="4" markerWidth="7" markerHeight="7" orient="auto-start-reverse">
            <circle cx="4" cy="4" r="2" class="bg_filled"></circle>
        </marker>
        <marker id="big_open_circle" viewBox="0 0 8 8" refX="4" refY="4" markerWidth="7" markerHeight="7" orient="auto-start-reverse">
            <circle cx="4" cy="4" r="3" class="bg_filled"></circle>
        </marker>
    </defs>
    <rect class="backdrop" x="0" y="0" width="592" height="240"></rect>
    <text x="2" y="12" >Without</text>
    <text x="66" y="12" >Transit</text>
    <text x="130" y="12" >Gateway</text>
    <path d="M 200,0 A 16,16 0,0,0 200,16" class="nofill"></path>
    <text x="202" y="12" >mesh</text>
    <path d="M 232,0 A 16,16 0,0,1 232,16" class="nofill"></path>
    <text x="242" y="12" >:</text>
    <text x="290" y="12" >With</text>
    <text x="330" y="12" >Transit</text>
    <text x="394" y="12" >Gateway</text>
    <path d="M 464,0 A 16,16 0,0,0 464,16" class="nofill"></path>
    <text x="466" y="12" >hub</text>
    <line x1="488" y1="8" x2="496" y2="8" class="solid"></line>
    <text x="498" y="12" >and</text>
    <line x1="520" y1="8" x2="528" y2="8" class="solid"></line>
    <text x="530" y="12" >spoke</text>
    <path d="M 568,0 A 16,16 0,0,1 568,16" class="nofill"></path>
    <text x="578" y="12" >:</text>
    <text x="2" y="44" >VPC</text>
    <line x1="24" y1="40" x2="32" y2="40" class="solid"></line>
    <text x="34" y="44" >A</text>
    <line x1="48" y1="40" x2="80" y2="40" class="solid"></line>
    <text x="90" y="44" >VPC</text>
    <line x1="112" y1="40" x2="120" y2="40" class="solid"></line>
    <text x="122" y="44" >B</text>
    <line x1="20" y1="48" x2="20" y2="128" class="solid"></line>
    <line x1="108" y1="48" x2="108" y2="128" class="solid"></line>
    <text x="2" y="140" >VPC</text>
    <line x1="24" y1="136" x2="32" y2="136" class="solid"></line>
    <text x="34" y="140" >C</text>
    <line x1="48" y1="136" x2="80" y2="136" class="solid"></line>
    <text x="98" y="140" >PC</text>
    <line x1="112" y1="136" x2="120" y2="136" class="solid"></line>
    <text x="122" y="140" >D</text>
    <text x="298" y="44" >VPC</text>
    <line x1="320" y1="40" x2="328" y2="40" class="solid"></line>
    <text x="330" y="44" >A</text>
    <line x1="328" y1="104" x2="400" y2="104" class="solid"></line>
    <text x="290" y="172" >On</text>
    <line x1="304" y1="168" x2="312" y2="168" class="solid"></line>
    <text x="314" y="172" >Prem</text>
    <text x="282" y="76" >VPC</text>
    <line x1="304" y1="72" x2="312" y2="72" class="solid"></line>
    <text x="314" y="76" >B</text>
    <text x="282" y="108" >VPC</text>
    <line x1="304" y1="104" x2="312" y2="104" class="solid"></line>
    <text x="314" y="108" >C</text>
    <text x="410" y="108" >Transit</text>
    <text x="474" y="108" >Gateway</text>
    <text x="282" y="140" >VPC</text>
    <line x1="304" y1="136" x2="312" y2="136" class="solid"></line>
    <text x="314" y="140" >D</text>
    <text x="2" y="172" >6</text>
    <text x="18" y="172" >peering</text>
    <text x="82" y="172" >connections</text>
    <text x="2" y="188" >for</text>
    <text x="34" y="188" >4</text>
    <text x="50" y="188" >VPCs.</text>
    <text x="98" y="188" >10</text>
    <text x="122" y="188" >VPCs</text>
    <line x1="160" y1="182" x2="168" y2="182" class="solid"></line>
    <line x1="160" y1="186" x2="168" y2="186" class="solid"></line>
    <text x="178" y="188" >45.</text>
    <text x="282" y="204" >5</text>
    <text x="298" y="204" >attachments</text>
    <text x="394" y="204" >for</text>
    <text x="426" y="204" >5</text>
    <text x="442" y="204" >networks.</text>
    <text x="282" y="220" >Each</text>
    <text x="322" y="220" >new</text>
    <text x="354" y="220" >network</text>
    <line x1="416" y1="214" x2="424" y2="214" class="solid"></line>
    <line x1="416" y1="218" x2="424" y2="218" class="solid"></line>
    <text x="434" y="220" >1</text>
    <text x="450" y="220" >attachment.</text>
    <g>
        <line x1="40" y1="48" x2="64" y2="96" class="solid"></line>
        <line x1="88" y1="48" x2="64" y2="96" class="solid"></line>
    </g>
    <g>
        <line x1="64" y1="80" x2="40" y2="128" class="solid"></line>
        <line x1="64" y1="80" x2="90" y2="132" class="solid"></line>
        <polygon points="87,132 94,140 94,129" class="filled"></polygon>
    </g>
    <g>
        <line x1="344" y1="40" x2="364" y2="40" class="solid"></line>
        <line x1="364" y1="40" x2="364" y2="168" class="solid"></line>
        <line x1="328" y1="72" x2="364" y2="72" class="solid"></line>
        <line x1="328" y1="136" x2="364" y2="136" class="solid"></line>
        <line x1="344" y1="168" x2="364" y2="168" class="solid"></line>
    </g>
</svg>