<svg xmlns="http://www.w3.org/2000/svg" width="480" height="128" style="background:#ffffff;border:1px solid #e5e5e5;border-radius:8px;max-width:100%;height:auto"><rect x="0" y="0" width="100%" height="100%" fill="#ffffff"/>
    <style>
        line, path, circle, rect, polygon{stroke:black;stroke-width:2;stroke-opacity:1;fill-opacity:1;stroke-linecap:round;stroke-linejoin:miter;}text{font-family:Iosevka Fixed, monospace;font-size:14px;}rect.backdrop{stroke:none;fill:transparent;}.broken{stroke-dasharray:8;}.filled{fill:black;}.bg_filled{fill:transparent;}.nofill{fill:transparent;}.end_marked_arrow{marker-end:url(#arrow);}.start_marked_arrow{marker-start:url(#arrow);}.end_marked_diamond{marker-end:url(#diamond);}.start_marked_diamond{marker-start:url(#diamond);}.end_marked_circle{marker-end:url(#circle);}.start_marked_circle{marker-start:url(#circle);}.end_marked_open_circle{marker-end:url(#open_circle);}.start_marked_open_circle{marker-start:url(#open_circle);}.end_marked_big_open_circle{marker-end:url(#big_open_circle);}.start_marked_big_open_circle{marker-start:url(#big_open_circle);}
        <!--separator-->
        
    </style>
    <defs>
        <marker id="arrow" viewBox="-2 -2 8 8" refX="4" refY="2" markerWidth="7" markerHeight="7" orient="auto-start-reverse">
            <polygon points="0,0 0,4 4,2 0,0"></polygon>
        </marker>
        <marker id="diamond" viewBox="-2 -2 8 8" refX="4" refY="2" markerWidth="7" markerHeight="7" orient="auto-start-reverse">
            <polygon points="0,2 2,0 4,2 2,4 0,2"></polygon>
        </marker>
        <marker id="circle" viewBox="0 0 8 8" refX="4" refY="4" markerWidth="7" markerHeight="7" orient="auto-start-reverse">
            <circle cx="4" cy="4" r="2" class="filled"></circle>
        </marker>
        <marker id="open_circle" viewBox="0 0 8 8" refX="4" refY="4" markerWidth="7" markerHeight="7" orient="auto-start-reverse">
            <circle cx="4" cy="4" r="2" class="bg_filled"></circle>
        </marker>
        <marker id="big_open_circle" viewBox="0 0 8 8" refX="4" refY="4" markerWidth="7" markerHeight="7" orient="auto-start-reverse">
            <circle cx="4" cy="4" r="3" class="bg_filled"></circle>
        </marker>
    </defs>
    <rect class="backdrop" x="0" y="0" width="480" height="128"></rect>
    <text x="2" y="12" >Internet</text>
    <text x="106" y="12" >ALB</text>
    <text x="138" y="12" >+</text>
    <text x="154" y="12" >WAF</text>
    <text x="218" y="12" >Application</text>
    <text x="146" y="44" >Block</text>
    <text x="194" y="44" >SQL</text>
    <text x="226" y="44" >injection</text>
    <text x="146" y="60" >Block</text>
    <text x="194" y="60" >XSS</text>
    <text x="226" y="60" >attempts</text>
    <text x="146" y="76" >Rate</text>
    <text x="186" y="76" >limit</text>
    <text x="234" y="76" >by</text>
    <text x="258" y="76" >IP</text>
    <text x="146" y="92" >Ge</text>
    <circle cx="164" cy="88" r="3" class="nofill"></circle>
    <line x1="168" y1="88" x2="176" y2="88" class="solid"></line>
    <text x="178" y="92" >block</text>
    <text x="226" y="92" >countries</text>
    <text x="146" y="108" >Block</text>
    <text x="194" y="108" >known</text>
    <text x="242" y="108" >bad</text>
    <text x="274" y="108" >IPs</text>
    <path d="M 312,96 A 16,16 0,0,0 312,112" class="nofill"></path>
    <text x="314" y="108" >threat</text>
    <text x="370" y="108" >intelligence</text>
    <path d="M 464,96 A 16,16 0,0,1 464,112" class="nofill"></path>
    <g>
        <line x1="72" y1="8" x2="88" y2="8" class="solid"></line>
        <polygon points="88,4 96,8 88,12" class="filled"></polygon>
    </g>
    <g>
        <line x1="116" y1="16" x2="116" y2="104" class="solid"></line>
        <line x1="116" y1="40" x2="136" y2="40" class="solid"></line>
        <line x1="116" y1="56" x2="136" y2="56" class="solid"></line>
        <line x1="116" y1="72" x2="136" y2="72" class="solid"></line>
        <line x1="116" y1="88" x2="136" y2="88" class="solid"></line>
        <line x1="116" y1="104" x2="136" y2="104" class="solid"></line>
    </g>
    <g>
        <line x1="184" y1="8" x2="200" y2="8" class="solid"></line>
        <polygon points="200,4 208,8 200,12" class="filled"></polygon>
    </g>
</svg>