<svg xmlns="http://www.w3.org/2000/svg" width="448" height="160" style="background:#ffffff;border:1px solid #e5e5e5;border-radius:8px;max-width:100%;height:auto"><rect x="0" y="0" width="100%" height="100%" fill="#ffffff"/>
    <style>
        line, path, circle, rect, polygon{stroke:black;stroke-width:2;stroke-opacity:1;fill-opacity:1;stroke-linecap:round;stroke-linejoin:miter;}text{font-family:Iosevka Fixed, monospace;font-size:14px;}rect.backdrop{stroke:none;fill:transparent;}.broken{stroke-dasharray:8;}.filled{fill:black;}.bg_filled{fill:transparent;}.nofill{fill:transparent;}.end_marked_arrow{marker-end:url(#arrow);}.start_marked_arrow{marker-start:url(#arrow);}.end_marked_diamond{marker-end:url(#diamond);}.start_marked_diamond{marker-start:url(#diamond);}.end_marked_circle{marker-end:url(#circle);}.start_marked_circle{marker-start:url(#circle);}.end_marked_open_circle{marker-end:url(#open_circle);}.start_marked_open_circle{marker-start:url(#open_circle);}.end_marked_big_open_circle{marker-end:url(#big_open_circle);}.start_marked_big_open_circle{marker-start:url(#big_open_circle);}
        <!--separator-->
        
    </style>
    <defs>
        <marker id="arrow" viewBox="-2 -2 8 8" refX="4" refY="2" markerWidth="7" markerHeight="7" orient="auto-start-reverse">
            <polygon points="0,0 0,4 4,2 0,0"></polygon>
        </marker>
        <marker id="diamond" viewBox="-2 -2 8 8" refX="4" refY="2" markerWidth="7" markerHeight="7" orient="auto-start-reverse">
            <polygon points="0,2 2,0 4,2 2,4 0,2"></polygon>
        </marker>
        <marker id="circle" viewBox="0 0 8 8" refX="4" refY="4" markerWidth="7" markerHeight="7" orient="auto-start-reverse">
            <circle cx="4" cy="4" r="2" class="filled"></circle>
        </marker>
        <marker id="open_circle" viewBox="0 0 8 8" refX="4" refY="4" markerWidth="7" markerHeight="7" orient="auto-start-reverse">
            <circle cx="4" cy="4" r="2" class="bg_filled"></circle>
        </marker>
        <marker id="big_open_circle" viewBox="0 0 8 8" refX="4" refY="4" markerWidth="7" markerHeight="7" orient="auto-start-reverse">
            <circle cx="4" cy="4" r="3" class="bg_filled"></circle>
        </marker>
    </defs>
    <rect class="backdrop" x="0" y="0" width="448" height="160"></rect>
    <text x="2" y="12" >Table:</text>
    <text x="2" y="28" >PK</text>
    <line x1="0" y1="40" x2="104" y2="40" class="solid"></line>
    <text x="2" y="60" >USER</text>
    <rect x="32" y="52" width="8" height="8" class="solid filled" rx="0"></rect>
    <line x1="36" y1="60" x2="36" y2="68" class="solid"></line>
    <text x="42" y="60" >alice</text>
    <text x="2" y="76" >USER</text>
    <rect x="32" y="68" width="8" height="8" class="solid filled" rx="0"></rect>
    <line x1="36" y1="76" x2="36" y2="84" class="solid"></line>
    <text x="42" y="76" >alice</text>
    <text x="2" y="92" >USER</text>
    <rect x="32" y="84" width="8" height="8" class="solid filled" rx="0"></rect>
    <text x="42" y="92" >alice</text>
    <text x="2" y="108" >PRODUCT</text>
    <rect x="56" y="100" width="8" height="8" class="solid filled" rx="0"></rect>
    <line x1="60" y1="108" x2="60" y2="116" class="solid"></line>
    <text x="66" y="108" >p123</text>
    <text x="2" y="124" >PRODUCT</text>
    <rect x="56" y="116" width="8" height="8" class="solid filled" rx="0"></rect>
    <text x="66" y="124" >p123</text>
    <text x="2" y="140" >ORDER</text>
    <rect x="40" y="132" width="8" height="8" class="solid filled" rx="0"></rect>
    <text x="50" y="140" >ord</text>
    <line x1="72" y1="136" x2="80" y2="136" class="solid"></line>
    <text x="82" y="140" >456</text>
    <text x="58" y="12" >MyApp</text>
    <text x="130" y="28" >SK</text>
    <line x1="128" y1="40" x2="272" y2="40" class="solid"></line>
    <text x="130" y="60" >PROFILE</text>
    <text x="130" y="76" >ORDER</text>
    <rect x="168" y="68" width="8" height="8" class="solid filled" rx="0"></rect>
    <line x1="172" y1="76" x2="172" y2="84" class="solid"></line>
    <text x="178" y="76" >2024</text>
    <line x1="208" y1="72" x2="216" y2="72" class="solid"></line>
    <text x="218" y="76" >01</text>
    <line x1="232" y1="72" x2="240" y2="72" class="solid"></line>
    <text x="242" y="76" >15</text>
    <text x="130" y="92" >ORDER</text>
    <rect x="168" y="84" width="8" height="8" class="solid filled" rx="0"></rect>
    <text x="178" y="92" >2024</text>
    <line x1="208" y1="88" x2="216" y2="88" class="solid"></line>
    <text x="218" y="92" >02</text>
    <line x1="232" y1="88" x2="240" y2="88" class="solid"></line>
    <text x="242" y="92" >20</text>
    <text x="130" y="108" >METADATA</text>
    <text x="130" y="124" >REVIEW#alice</text>
    <text x="130" y="140" >STATUS</text>
    <text x="290" y="28" >Attributes</text>
    <line x1="288" y1="40" x2="432" y2="40" class="solid"></line>
    <text x="290" y="60" >{name,</text>
    <text x="346" y="60" >email,</text>
    <text x="402" y="60" >...}</text>
    <text x="290" y="76" >{total,</text>
    <text x="354" y="76" >status}</text>
    <text x="290" y="92" >{total,</text>
    <text x="354" y="92" >status}</text>
    <text x="290" y="108" >{name,</text>
    <text x="346" y="108" >price,</text>
    <text x="402" y="108" >...}</text>
    <text x="290" y="124" >{rating,</text>
    <text x="362" y="124" >text}</text>
    <text x="290" y="140" >{status,</text>
    <text x="362" y="140" >ship</text>
    <line x1="392" y1="144" x2="400" y2="144" class="solid"></line>
    <text x="402" y="140" >date}</text>
</svg>