<svg xmlns="http://www.w3.org/2000/svg" width="200" height="288" style="background:#ffffff;border:1px solid #e5e5e5;border-radius:8px;max-width:100%;height:auto"><rect x="0" y="0" width="100%" height="100%" fill="#ffffff"/>
    <style>
        line, path, circle, rect, polygon{stroke:black;stroke-width:2;stroke-opacity:1;fill-opacity:1;stroke-linecap:round;stroke-linejoin:miter;}text{font-family:Iosevka Fixed, monospace;font-size:14px;}rect.backdrop{stroke:none;fill:transparent;}.broken{stroke-dasharray:8;}.filled{fill:black;}.bg_filled{fill:transparent;}.nofill{fill:transparent;}.end_marked_arrow{marker-end:url(#arrow);}.start_marked_arrow{marker-start:url(#arrow);}.end_marked_diamond{marker-end:url(#diamond);}.start_marked_diamond{marker-start:url(#diamond);}.end_marked_circle{marker-end:url(#circle);}.start_marked_circle{marker-start:url(#circle);}.end_marked_open_circle{marker-end:url(#open_circle);}.start_marked_open_circle{marker-start:url(#open_circle);}.end_marked_big_open_circle{marker-end:url(#big_open_circle);}.start_marked_big_open_circle{marker-start:url(#big_open_circle);}
        <!--separator-->
        
    </style>
    <defs>
        <marker id="arrow" viewBox="-2 -2 8 8" refX="4" refY="2" markerWidth="7" markerHeight="7" orient="auto-start-reverse">
            <polygon points="0,0 0,4 4,2 0,0"></polygon>
        </marker>
        <marker id="diamond" viewBox="-2 -2 8 8" refX="4" refY="2" markerWidth="7" markerHeight="7" orient="auto-start-reverse">
            <polygon points="0,2 2,0 4,2 2,4 0,2"></polygon>
        </marker>
        <marker id="circle" viewBox="0 0 8 8" refX="4" refY="4" markerWidth="7" markerHeight="7" orient="auto-start-reverse">
            <circle cx="4" cy="4" r="2" class="filled"></circle>
        </marker>
        <marker id="open_circle" viewBox="0 0 8 8" refX="4" refY="4" markerWidth="7" markerHeight="7" orient="auto-start-reverse">
            <circle cx="4" cy="4" r="2" class="bg_filled"></circle>
        </marker>
        <marker id="big_open_circle" viewBox="0 0 8 8" refX="4" refY="4" markerWidth="7" markerHeight="7" orient="auto-start-reverse">
            <circle cx="4" cy="4" r="3" class="bg_filled"></circle>
        </marker>
    </defs>
    <rect class="backdrop" x="0" y="0" width="200" height="288"></rect>
    <rect x="28" y="40" width="136" height="160" class="solid nofill" rx="0"></rect>
    <rect x="52" y="72" width="88" height="48" class="solid nofill" rx="0"></rect>
    <text x="74" y="92" >DB</text>
    <text x="74" y="108" >Engine</text>
    <rect x="52" y="136" width="88" height="48" class="solid nofill" rx="0"></rect>
    <text x="74" y="156" >EBS</text>
    <text x="74" y="172" >Volume</text>
    <text x="50" y="60" >EC2</text>
    <path d="M 88,48 A 16,16 0,0,0 88,64" class="nofill"></path>
    <text x="90" y="60" >hidden</text>
    <path d="M 136,48 A 16,16 0,0,1 136,64" class="nofill"></path>
    <text x="26" y="28" >AZ</text>
    <line x1="40" y1="24" x2="48" y2="24" class="solid"></line>
    <text x="50" y="28" >a</text>
    <text x="26" y="236" >Automated</text>
    <text x="106" y="236" >backups</text>
    <text x="58" y="252" >S3</text>
    <path d="M 88,240 A 16,16 0,0,0 88,256" class="nofill"></path>
    <text x="90" y="252" >snapshots</text>
    <path d="M 160,240 A 16,16 0,0,1 160,256" class="nofill"></path>
    <g>
        <line x1="4" y1="8" x2="180" y2="8" class="solid"></line>
        <line x1="4" y1="8" x2="4" y2="264" class="solid"></line>
        <line x1="180" y1="8" x2="180" y2="32" class="solid"></line>
        <line x1="188" y1="32" x2="188" y2="264" class="solid"></line>
        <line x1="4" y1="264" x2="188" y2="264" class="solid"></line>
    </g>
    <g>
        <line x1="24" y1="248" x2="40" y2="248" class="solid"></line>
        <polygon points="40,244 48,248 40,252" class="filled"></polygon>
    </g>
</svg>