<svg xmlns="http://www.w3.org/2000/svg" width="640" height="160" style="background:#ffffff;border:1px solid #e5e5e5;border-radius:8px;max-width:100%;height:auto"><rect x="0" y="0" width="100%" height="100%" fill="#ffffff"/>
    <style>
        line, path, circle, rect, polygon{stroke:black;stroke-width:2;stroke-opacity:1;fill-opacity:1;stroke-linecap:round;stroke-linejoin:miter;}text{font-family:Iosevka Fixed, monospace;font-size:14px;}rect.backdrop{stroke:none;fill:transparent;}.broken{stroke-dasharray:8;}.filled{fill:black;}.bg_filled{fill:transparent;}.nofill{fill:transparent;}.end_marked_arrow{marker-end:url(#arrow);}.start_marked_arrow{marker-start:url(#arrow);}.end_marked_diamond{marker-end:url(#diamond);}.start_marked_diamond{marker-start:url(#diamond);}.end_marked_circle{marker-end:url(#circle);}.start_marked_circle{marker-start:url(#circle);}.end_marked_open_circle{marker-end:url(#open_circle);}.start_marked_open_circle{marker-start:url(#open_circle);}.end_marked_big_open_circle{marker-end:url(#big_open_circle);}.start_marked_big_open_circle{marker-start:url(#big_open_circle);}
        <!--separator-->
        
    </style>
    <defs>
        <marker id="arrow" viewBox="-2 -2 8 8" refX="4" refY="2" markerWidth="7" markerHeight="7" orient="auto-start-reverse">
            <polygon points="0,0 0,4 4,2 0,0"></polygon>
        </marker>
        <marker id="diamond" viewBox="-2 -2 8 8" refX="4" refY="2" markerWidth="7" markerHeight="7" orient="auto-start-reverse">
            <polygon points="0,2 2,0 4,2 2,4 0,2"></polygon>
        </marker>
        <marker id="circle" viewBox="0 0 8 8" refX="4" refY="4" markerWidth="7" markerHeight="7" orient="auto-start-reverse">
            <circle cx="4" cy="4" r="2" class="filled"></circle>
        </marker>
        <marker id="open_circle" viewBox="0 0 8 8" refX="4" refY="4" markerWidth="7" markerHeight="7" orient="auto-start-reverse">
            <circle cx="4" cy="4" r="2" class="bg_filled"></circle>
        </marker>
        <marker id="big_open_circle" viewBox="0 0 8 8" refX="4" refY="4" markerWidth="7" markerHeight="7" orient="auto-start-reverse">
            <circle cx="4" cy="4" r="3" class="bg_filled"></circle>
        </marker>
    </defs>
    <rect class="backdrop" x="0" y="0" width="640" height="160"></rect>
    <text x="2" y="12" >Strategy</text>
    <line x1="0" y1="24" x2="136" y2="24" class="solid"></line>
    <text x="2" y="44" >Rehost</text>
    <path d="M 64,32 A 16,16 0,0,0 64,48" class="nofill"></path>
    <text x="66" y="44" >Lift</text>
    <path d="M 96,32 A 16,16 0,0,1 96,48" class="nofill"></path>
    <text x="2" y="60" >Replatform</text>
    <text x="2" y="76" >Refactor</text>
    <text x="154" y="12" >Description</text>
    <line x1="152" y1="24" x2="400" y2="24" class="solid"></line>
    <text x="154" y="44" >Move</text>
    <text x="194" y="44" >to</text>
    <text x="218" y="44" >RDS</text>
    <text x="250" y="44" >same</text>
    <text x="290" y="44" >engine</text>
    <text x="154" y="60" >Move</text>
    <text x="194" y="60" >to</text>
    <text x="218" y="60" >managed,</text>
    <text x="290" y="60" >same</text>
    <text x="330" y="60" >paradigm</text>
    <text x="154" y="76" >Change</text>
    <text x="210" y="76" >engine</text>
    <text x="266" y="76" >entirely</text>
    <text x="410" y="12" >Example</text>
    <line x1="408" y1="24" x2="600" y2="24" class="solid"></line>
    <text x="410" y="44" >Oracle</text>
    <text x="466" y="44" >on</text>
    <line x1="480" y1="40" x2="488" y2="40" class="solid"></line>
    <text x="490" y="44" >prem</text>
    <text x="578" y="44" >Oracle</text>
    <text x="410" y="60" >MySQL</text>
    <text x="458" y="60" >on</text>
    <line x1="472" y1="56" x2="480" y2="56" class="solid"></line>
    <text x="482" y="60" >prem</text>
    <text x="594" y="60" >MySQL</text>
    <text x="418" y="76" >Oracle</text>
    <text x="546" y="76" >PostgreSQL</text>
    <text x="410" y="92" >SQL</text>
    <text x="442" y="92" >Server</text>
    <text x="410" y="108" >Self</text>
    <line x1="440" y1="104" x2="448" y2="104" class="solid"></line>
    <text x="450" y="108" >hosted</text>
    <text x="506" y="108" >CRM</text>
    <text x="410" y="124" >Unused</text>
    <text x="466" y="124" >databases</text>
    <text x="410" y="140" >Mainframe</text>
    <text x="490" y="140" >DB</text>
    <path d="M 520,128 A 16,16 0,0,0 520,144" class="nofill"></path>
    <text x="522" y="140" >for</text>
    <text x="2" y="108" >Repurchase</text>
    <text x="2" y="124" >Retire</text>
    <text x="2" y="140" >Retain</text>
    <text x="154" y="108" >Move</text>
    <text x="194" y="108" >to</text>
    <text x="218" y="108" >SaaS</text>
    <text x="154" y="124" >Decommission</text>
    <text x="154" y="140" >Keep</text>
    <text x="194" y="140" >on</text>
    <line x1="208" y1="136" x2="216" y2="136" class="solid"></line>
    <text x="218" y="140" >premises</text>
    <text x="554" y="140" >now</text>
    <path d="M 576,128 A 16,16 0,0,1 576,144" class="nofill"></path>
    <g>
        <text x="530" y="44">→</text>
        <text x="546" y="44">RDS</text>
    </g>
    <g>
        <text x="522" y="60">→</text>
        <text x="538" y="60">Aurora</text>
    </g>
    <g>
        <text x="474" y="76">→</text>
        <text x="490" y="76">Aurora</text>
    </g>
    <g>
        <text x="498" y="92">→</text>
        <text x="514" y="92">DynamoDB</text>
    </g>
    <g>
        <text x="538" y="108">→</text>
        <text x="554" y="108">Salesforce</text>
    </g>
</svg>