<svg xmlns="http://www.w3.org/2000/svg" width="616" height="240" style="background:#ffffff;border:1px solid #e5e5e5;border-radius:8px;max-width:100%;height:auto"><rect x="0" y="0" width="100%" height="100%" fill="#ffffff"/>
    <style>
        line, path, circle, rect, polygon{stroke:black;stroke-width:2;stroke-opacity:1;fill-opacity:1;stroke-linecap:round;stroke-linejoin:miter;}text{font-family:Iosevka Fixed, monospace;font-size:14px;}rect.backdrop{stroke:none;fill:transparent;}.broken{stroke-dasharray:8;}.filled{fill:black;}.bg_filled{fill:transparent;}.nofill{fill:transparent;}.end_marked_arrow{marker-end:url(#arrow);}.start_marked_arrow{marker-start:url(#arrow);}.end_marked_diamond{marker-end:url(#diamond);}.start_marked_diamond{marker-start:url(#diamond);}.end_marked_circle{marker-end:url(#circle);}.start_marked_circle{marker-start:url(#circle);}.end_marked_open_circle{marker-end:url(#open_circle);}.start_marked_open_circle{marker-start:url(#open_circle);}.end_marked_big_open_circle{marker-end:url(#big_open_circle);}.start_marked_big_open_circle{marker-start:url(#big_open_circle);}
        <!--separator-->
        
    </style>
    <defs>
        <marker id="arrow" viewBox="-2 -2 8 8" refX="4" refY="2" markerWidth="7" markerHeight="7" orient="auto-start-reverse">
            <polygon points="0,0 0,4 4,2 0,0"></polygon>
        </marker>
        <marker id="diamond" viewBox="-2 -2 8 8" refX="4" refY="2" markerWidth="7" markerHeight="7" orient="auto-start-reverse">
            <polygon points="0,2 2,0 4,2 2,4 0,2"></polygon>
        </marker>
        <marker id="circle" viewBox="0 0 8 8" refX="4" refY="4" markerWidth="7" markerHeight="7" orient="auto-start-reverse">
            <circle cx="4" cy="4" r="2" class="filled"></circle>
        </marker>
        <marker id="open_circle" viewBox="0 0 8 8" refX="4" refY="4" markerWidth="7" markerHeight="7" orient="auto-start-reverse">
            <circle cx="4" cy="4" r="2" class="bg_filled"></circle>
        </marker>
        <marker id="big_open_circle" viewBox="0 0 8 8" refX="4" refY="4" markerWidth="7" markerHeight="7" orient="auto-start-reverse">
            <circle cx="4" cy="4" r="3" class="bg_filled"></circle>
        </marker>
    </defs>
    <rect class="backdrop" x="0" y="0" width="616" height="240"></rect>
    <rect x="28" y="40" width="136" height="112" class="solid nofill" rx="0"></rect>
    <rect x="52" y="104" width="88" height="32" class="solid nofill" rx="0"></rect>
    <text x="74" y="124" >EBS</text>
    <text x="50" y="60" >PRIMARY</text>
    <path d="M 56,64 A 16,16 0,0,0 56,80" class="nofill"></path>
    <text x="58" y="76" >read</text>
    <line x1="96" y1="64" x2="88" y2="80" class="solid"></line>
    <text x="98" y="76" >write</text>
    <path d="M 136,64 A 16,16 0,0,1 136,80" class="nofill"></path>
    <rect x="284" y="40" width="136" height="112" class="solid nofill" rx="0"></rect>
    <rect x="308" y="104" width="88" height="32" class="solid nofill" rx="0"></rect>
    <text x="330" y="124" >EBS</text>
    <text x="306" y="60" >STANDBY</text>
    <path d="M 312,64 A 16,16 0,0,0 312,80" class="nofill"></path>
    <text x="314" y="76" >no</text>
    <text x="338" y="76" >traffic</text>
    <path d="M 392,64 A 16,16 0,0,1 392,80" class="nofill"></path>
    <text x="26" y="28" >AZ</text>
    <line x1="40" y1="24" x2="48" y2="24" class="solid"></line>
    <text x="50" y="28" >a</text>
    <text x="274" y="28" >AZ</text>
    <line x1="288" y1="24" x2="296" y2="24" class="solid"></line>
    <text x="298" y="28" >b</text>
    <text x="202" y="60" >sync</text>
    <text x="202" y="92" >repl.</text>
    <text x="2" y="204" >Failover:</text>
    <text x="82" y="204" >DNS</text>
    <text x="114" y="204" >endpoint</text>
    <text x="2" y="220" >Standby</text>
    <text x="66" y="220" >does</text>
    <text x="106" y="220" >NOT</text>
    <text x="138" y="220" >serve</text>
    <path d="M 192,192 A 16,16 0,0,0 192,208" class="nofill"></path>
    <text x="194" y="204" >CNAME</text>
    <path d="M 232,192 A 16,16 0,0,1 232,208" class="nofill"></path>
    <text x="250" y="204" >swings</text>
    <text x="306" y="204" >to</text>
    <text x="330" y="204" >standby</text>
    <text x="186" y="220" >read</text>
    <text x="226" y="220" >traffic</text>
    <path d="M 296,208 A 16,16 0,0,0 296,224" class="nofill"></path>
    <text x="298" y="220" >it</text>
    <text x="322" y="220" >is</text>
    <text x="346" y="220" >a</text>
    <text x="362" y="220" >hot</text>
    <text x="394" y="204" >in</text>
    <text x="418" y="204" >60</text>
    <line x1="432" y1="200" x2="440" y2="200" class="solid"></line>
    <text x="442" y="204" >120</text>
    <text x="474" y="204" >seconds.</text>
    <text x="394" y="220" >standby</text>
    <text x="458" y="220" >for</text>
    <text x="490" y="220" >failo</text>
    <text x="538" y="220" >er</text>
    <text x="562" y="220" >only</text>
    <path d="M 592,208 A 16,16 0,0,1 592,224" class="nofill"></path>
    <text x="602" y="220" >.</text>
    <g>
        <line x1="4" y1="8" x2="180" y2="8" class="solid"></line>
        <line x1="4" y1="8" x2="4" y2="168" class="solid"></line>
        <line x1="180" y1="8" x2="180" y2="32" class="solid"></line>
        <line x1="188" y1="32" x2="188" y2="168" class="solid"></line>
        <line x1="4" y1="168" x2="188" y2="168" class="solid"></line>
    </g>
    <g>
        <line x1="252" y1="8" x2="428" y2="8" class="solid"></line>
        <line x1="252" y1="8" x2="252" y2="32" class="solid"></line>
        <line x1="428" y1="8" x2="428" y2="32" class="solid"></line>
    </g>
    <g>
        <line x1="260" y1="32" x2="260" y2="168" class="solid"></line>
        <line x1="444" y1="32" x2="444" y2="168" class="solid"></line>
        <line x1="260" y1="168" x2="444" y2="168" class="solid"></line>
    </g>
    <g>
        <line x1="168" y1="72" x2="248" y2="72" class="solid"></line>
        <polygon points="248,68 256,72 248,76" class="filled"></polygon>
    </g>
    <g>
        <line x1="532" y1="208" x2="532" y2="212" class="solid"></line>
        <polygon points="528,212 536,212 532,224" class="filled"></polygon>
    </g>
</svg>