<svg xmlns="http://www.w3.org/2000/svg" width="392" height="416" style="background:#ffffff;border:1px solid #e5e5e5;border-radius:8px;max-width:100%;height:auto"><rect x="0" y="0" width="100%" height="100%" fill="#ffffff"/>
    <style>
        line, path, circle, rect, polygon{stroke:black;stroke-width:2;stroke-opacity:1;fill-opacity:1;stroke-linecap:round;stroke-linejoin:miter;}text{font-family:Iosevka Fixed, monospace;font-size:14px;}rect.backdrop{stroke:none;fill:transparent;}.broken{stroke-dasharray:8;}.filled{fill:black;}.bg_filled{fill:transparent;}.nofill{fill:transparent;}.end_marked_arrow{marker-end:url(#arrow);}.start_marked_arrow{marker-start:url(#arrow);}.end_marked_diamond{marker-end:url(#diamond);}.start_marked_diamond{marker-start:url(#diamond);}.end_marked_circle{marker-end:url(#circle);}.start_marked_circle{marker-start:url(#circle);}.end_marked_open_circle{marker-end:url(#open_circle);}.start_marked_open_circle{marker-start:url(#open_circle);}.end_marked_big_open_circle{marker-end:url(#big_open_circle);}.start_marked_big_open_circle{marker-start:url(#big_open_circle);}
        <!--separator-->
        
    </style>
    <defs>
        <marker id="arrow" viewBox="-2 -2 8 8" refX="4" refY="2" markerWidth="7" markerHeight="7" orient="auto-start-reverse">
            <polygon points="0,0 0,4 4,2 0,0"></polygon>
        </marker>
        <marker id="diamond" viewBox="-2 -2 8 8" refX="4" refY="2" markerWidth="7" markerHeight="7" orient="auto-start-reverse">
            <polygon points="0,2 2,0 4,2 2,4 0,2"></polygon>
        </marker>
        <marker id="circle" viewBox="0 0 8 8" refX="4" refY="4" markerWidth="7" markerHeight="7" orient="auto-start-reverse">
            <circle cx="4" cy="4" r="2" class="filled"></circle>
        </marker>
        <marker id="open_circle" viewBox="0 0 8 8" refX="4" refY="4" markerWidth="7" markerHeight="7" orient="auto-start-reverse">
            <circle cx="4" cy="4" r="2" class="bg_filled"></circle>
        </marker>
        <marker id="big_open_circle" viewBox="0 0 8 8" refX="4" refY="4" markerWidth="7" markerHeight="7" orient="auto-start-reverse">
            <circle cx="4" cy="4" r="3" class="bg_filled"></circle>
        </marker>
    </defs>
    <rect class="backdrop" x="0" y="0" width="392" height="416"></rect>
    <text x="2" y="12" >CACHE</text>
    <line x1="40" y1="8" x2="48" y2="8" class="solid"></line>
    <text x="50" y="12" >ASIDE</text>
    <path d="M 104,0 A 16,16 0,0,0 104,16" class="nofill"></path>
    <text x="106" y="12" >Lazy</text>
    <text x="146" y="12" >Loading</text>
    <path d="M 200,0 A 16,16 0,0,1 200,16" class="nofill"></path>
    <text x="210" y="12" >:</text>
    <text x="2" y="28" >1.</text>
    <text x="26" y="28" >App</text>
    <text x="58" y="28" >checks</text>
    <text x="114" y="28" >cache</text>
    <text x="2" y="44" >2.</text>
    <text x="26" y="44" >Cache</text>
    <text x="74" y="44" >miss</text>
    <text x="170" y="44" >from</text>
    <text x="2" y="60" >3.</text>
    <text x="26" y="60" >Write</text>
    <text x="74" y="60" >result</text>
    <text x="130" y="60" >to</text>
    <text x="154" y="60" >cache</text>
    <text x="2" y="76" >4.</text>
    <text x="26" y="76" >Return</text>
    <text x="82" y="76" >to</text>
    <text x="106" y="76" >caller</text>
    <text x="210" y="44" >DB</text>
    <text x="42" y="108" >App</text>
    <text x="74" y="140" >2</text>
    <text x="114" y="140" >DB</text>
    <text x="74" y="204" >3</text>
    <line x1="72" y1="104" x2="88" y2="104" class="solid"></line>
    <text x="90" y="108" >1</text>
    <text x="130" y="108" >Cache</text>
    <path d="M 184,96 A 16,16 0,0,0 184,112" class="nofill"></path>
    <text x="186" y="108" >miss</text>
    <path d="M 216,96 A 16,16 0,0,1 216,112" class="nofill"></path>
    <text x="114" y="204" >Cache</text>
    <path d="M 208,192 A 16,16 0,0,0 208,208" class="nofill"></path>
    <text x="210" y="204" >store</text>
    <path d="M 248,192 A 16,16 0,0,1 248,208" class="nofill"></path>
    <text x="82" y="236" >4.</text>
    <text x="106" y="236" >Return</text>
    <text x="2" y="268" >WRITE</text>
    <line x1="40" y1="264" x2="48" y2="264" class="solid"></line>
    <text x="50" y="268" >THROUGH:</text>
    <text x="2" y="284" >1.</text>
    <text x="26" y="284" >App</text>
    <text x="58" y="284" >writes</text>
    <text x="114" y="284" >to</text>
    <text x="138" y="284" >cache</text>
    <text x="186" y="284" >AND</text>
    <text x="2" y="300" >2.</text>
    <text x="26" y="300" >Cache</text>
    <text x="74" y="300" >is</text>
    <text x="98" y="300" >always</text>
    <text x="154" y="300" >current</text>
    <text x="2" y="316" >3.</text>
    <text x="26" y="316" >Reads</text>
    <text x="74" y="316" >always</text>
    <text x="130" y="316" >hit</text>
    <text x="162" y="316" >cache</text>
    <text x="218" y="284" >DB</text>
    <text x="242" y="284" >simultaneously</text>
    <text x="2" y="348" >WRITE</text>
    <line x1="40" y1="344" x2="48" y2="344" class="solid"></line>
    <text x="50" y="348" >BEHIND:</text>
    <text x="2" y="364" >1.</text>
    <text x="26" y="364" >App</text>
    <text x="58" y="364" >writes</text>
    <text x="114" y="364" >to</text>
    <text x="138" y="364" >cache</text>
    <text x="186" y="364" >only</text>
    <text x="2" y="380" >2.</text>
    <text x="26" y="380" >Cache</text>
    <text x="74" y="380" >async</text>
    <text x="122" y="380" >writes</text>
    <text x="178" y="380" >to</text>
    <text x="202" y="380" >DB</text>
    <text x="2" y="396" >3.</text>
    <text x="26" y="396" >Risk:</text>
    <text x="74" y="396" >data</text>
    <text x="114" y="396" >loss</text>
    <text x="154" y="396" >if</text>
    <text x="178" y="396" >cache</text>
    <path d="M 232,368 A 16,16 0,0,0 232,384" class="nofill"></path>
    <text x="234" y="380" >batched</text>
    <path d="M 288,368 A 16,16 0,0,1 288,384" class="nofill"></path>
    <text x="226" y="396" >crashes</text>
    <text x="290" y="396" >before</text>
    <text x="346" y="396" >flush</text>
    <g>
        <text x="114" y="44">→</text>
        <text x="130" y="44">read</text>
    </g>
    <g>
        <line x1="52" y1="112" x2="52" y2="160" class="solid"></line>
        <line x1="52" y1="136" x2="72" y2="136" class="solid"></line>
    </g>
    <g>
        <line x1="80" y1="136" x2="96" y2="136" class="solid"></line>
        <polygon points="96,132 104,136 96,140" class="filled"></polygon>
    </g>
    <g>
        <line x1="116" y1="144" x2="116" y2="168" class="solid"></line>
        <polygon points="56,164 48,168 56,172" class="filled"></polygon>
        <line x1="56" y1="168" x2="116" y2="168" class="solid"></line>
    </g>
    <g>
        <line x1="52" y1="176" x2="52" y2="224" class="solid"></line>
        <line x1="52" y1="200" x2="72" y2="200" class="solid"></line>
    </g>
    <g>
        <line x1="80" y1="200" x2="96" y2="200" class="solid"></line>
        <polygon points="96,196 104,200 96,204" class="filled"></polygon>
    </g>
    <g>
        <polygon points="56,228 48,232 56,236" class="filled"></polygon>
        <line x1="56" y1="232" x2="72" y2="232" class="solid"></line>
    </g>
    <g>
        <line x1="96" y1="104" x2="112" y2="104" class="solid"></line>
        <polygon points="112,100 120,104 112,108" class="filled"></polygon>
    </g>
    <g>
        <line x1="188" y1="112" x2="188" y2="200" class="solid"></line>
        <line x1="160" y1="200" x2="188" y2="200" class="solid"></line>
    </g>
</svg>