<svg xmlns="http://www.w3.org/2000/svg" width="448" height="336" style="background:#ffffff;border:1px solid #e5e5e5;border-radius:8px;max-width:100%;height:auto"><rect x="0" y="0" width="100%" height="100%" fill="#ffffff"/>
    <style>
        line, path, circle, rect, polygon{stroke:black;stroke-width:2;stroke-opacity:1;fill-opacity:1;stroke-linecap:round;stroke-linejoin:miter;}text{font-family:Iosevka Fixed, monospace;font-size:14px;}rect.backdrop{stroke:none;fill:transparent;}.broken{stroke-dasharray:8;}.filled{fill:black;}.bg_filled{fill:transparent;}.nofill{fill:transparent;}.end_marked_arrow{marker-end:url(#arrow);}.start_marked_arrow{marker-start:url(#arrow);}.end_marked_diamond{marker-end:url(#diamond);}.start_marked_diamond{marker-start:url(#diamond);}.end_marked_circle{marker-end:url(#circle);}.start_marked_circle{marker-start:url(#circle);}.end_marked_open_circle{marker-end:url(#open_circle);}.start_marked_open_circle{marker-start:url(#open_circle);}.end_marked_big_open_circle{marker-end:url(#big_open_circle);}.start_marked_big_open_circle{marker-start:url(#big_open_circle);}
        <!--separator-->
        
    </style>
    <defs>
        <marker id="arrow" viewBox="-2 -2 8 8" refX="4" refY="2" markerWidth="7" markerHeight="7" orient="auto-start-reverse">
            <polygon points="0,0 0,4 4,2 0,0"></polygon>
        </marker>
        <marker id="diamond" viewBox="-2 -2 8 8" refX="4" refY="2" markerWidth="7" markerHeight="7" orient="auto-start-reverse">
            <polygon points="0,2 2,0 4,2 2,4 0,2"></polygon>
        </marker>
        <marker id="circle" viewBox="0 0 8 8" refX="4" refY="4" markerWidth="7" markerHeight="7" orient="auto-start-reverse">
            <circle cx="4" cy="4" r="2" class="filled"></circle>
        </marker>
        <marker id="open_circle" viewBox="0 0 8 8" refX="4" refY="4" markerWidth="7" markerHeight="7" orient="auto-start-reverse">
            <circle cx="4" cy="4" r="2" class="bg_filled"></circle>
        </marker>
        <marker id="big_open_circle" viewBox="0 0 8 8" refX="4" refY="4" markerWidth="7" markerHeight="7" orient="auto-start-reverse">
            <circle cx="4" cy="4" r="3" class="bg_filled"></circle>
        </marker>
    </defs>
    <rect class="backdrop" x="0" y="0" width="448" height="336"></rect>
    <text x="2" y="12" >Table:</text>
    <text x="58" y="12" >Orders</text>
    <text x="2" y="28" >Partition</text>
    <text x="82" y="28" >Key:</text>
    <text x="122" y="28" >customer</text>
    <line x1="184" y1="32" x2="192" y2="32" class="solid"></line>
    <text x="194" y="28" >id</text>
    <text x="2" y="44" >Sort</text>
    <text x="42" y="44" >Key:</text>
    <text x="82" y="44" >order</text>
    <line x1="120" y1="48" x2="128" y2="48" class="solid"></line>
    <text x="130" y="44" >date</text>
    <text x="2" y="76" >Partition</text>
    <text x="82" y="76" >1</text>
    <path d="M 104,64 A 16,16 0,0,0 104,80" class="nofill"></path>
    <text x="106" y="76" >hash</text>
    <text x="146" y="76" >range</text>
    <text x="194" y="76" >A</text>
    <line x1="200" y1="72" x2="208" y2="72" class="solid"></line>
    <text x="210" y="76" >M</text>
    <path d="M 216,64 A 16,16 0,0,1 216,80" class="nofill"></path>
    <text x="226" y="76" >:</text>
    <text x="18" y="108" >customer</text>
    <line x1="80" y1="112" x2="88" y2="112" class="solid"></line>
    <text x="90" y="108" >id</text>
    <path d="M 112,96 A 16,16 0,0,0 112,112" class="nofill"></path>
    <text x="114" y="108" >PK</text>
    <path d="M 128,96 A 16,16 0,0,1 128,112" class="nofill"></path>
    <text x="154" y="108" >order</text>
    <line x1="192" y1="112" x2="200" y2="112" class="solid"></line>
    <text x="202" y="108" >date</text>
    <path d="M 240,96 A 16,16 0,0,0 240,112" class="nofill"></path>
    <text x="242" y="108" >SK</text>
    <line x1="268" y1="96" x2="268" y2="112" class="solid"></line>
    <text x="282" y="108" >total</text>
    <line x1="348" y1="96" x2="348" y2="112" class="solid"></line>
    <text x="362" y="108" >status</text>
    <line x1="436" y1="96" x2="436" y2="112" class="solid"></line>
    <text x="18" y="140" >alice</text>
    <text x="154" y="140" >2024</text>
    <line x1="184" y1="136" x2="192" y2="136" class="solid"></line>
    <text x="194" y="140" >01</text>
    <line x1="208" y1="136" x2="216" y2="136" class="solid"></line>
    <text x="218" y="140" >15</text>
    <text x="274" y="140" >150.00</text>
    <text x="354" y="140" >shipped</text>
    <text x="18" y="156" >alice</text>
    <text x="154" y="156" >2024</text>
    <line x1="184" y1="152" x2="192" y2="152" class="solid"></line>
    <text x="194" y="156" >02</text>
    <line x1="208" y1="152" x2="216" y2="152" class="solid"></line>
    <text x="218" y="156" >20</text>
    <text x="274" y="156" >75.50</text>
    <text x="354" y="156" >delivered</text>
    <text x="18" y="172" >bob</text>
    <text x="154" y="172" >2024</text>
    <line x1="184" y1="168" x2="192" y2="168" class="solid"></line>
    <text x="194" y="172" >01</text>
    <line x1="208" y1="168" x2="216" y2="168" class="solid"></line>
    <text x="218" y="172" >10</text>
    <text x="274" y="172" >200.00</text>
    <text x="354" y="172" >delivered</text>
    <text x="2" y="220" >Partition</text>
    <text x="82" y="220" >2</text>
    <path d="M 104,208 A 16,16 0,0,0 104,224" class="nofill"></path>
    <text x="106" y="220" >hash</text>
    <text x="146" y="220" >range</text>
    <text x="194" y="220" >N</text>
    <line x1="200" y1="216" x2="208" y2="216" class="solid"></line>
    <text x="210" y="220" >Z</text>
    <path d="M 216,208 A 16,16 0,0,1 216,224" class="nofill"></path>
    <text x="226" y="220" >:</text>
    <text x="18" y="252" >customer</text>
    <line x1="80" y1="256" x2="88" y2="256" class="solid"></line>
    <text x="90" y="252" >id</text>
    <path d="M 112,240 A 16,16 0,0,0 112,256" class="nofill"></path>
    <text x="114" y="252" >PK</text>
    <path d="M 128,240 A 16,16 0,0,1 128,256" class="nofill"></path>
    <text x="154" y="252" >order</text>
    <line x1="192" y1="256" x2="200" y2="256" class="solid"></line>
    <text x="202" y="252" >date</text>
    <path d="M 240,240 A 16,16 0,0,0 240,256" class="nofill"></path>
    <text x="242" y="252" >SK</text>
    <line x1="268" y1="240" x2="268" y2="256" class="solid"></line>
    <text x="282" y="252" >total</text>
    <line x1="348" y1="240" x2="348" y2="256" class="solid"></line>
    <text x="362" y="252" >status</text>
    <line x1="436" y1="240" x2="436" y2="256" class="solid"></line>
    <text x="18" y="284" >nadia</text>
    <text x="154" y="284" >2024</text>
    <line x1="184" y1="280" x2="192" y2="280" class="solid"></line>
    <text x="194" y="284" >03</text>
    <line x1="208" y1="280" x2="216" y2="280" class="solid"></line>
    <text x="218" y="284" >01</text>
    <text x="274" y="284" >50.00</text>
    <text x="354" y="284" >pending</text>
    <text x="18" y="300" >zach</text>
    <text x="154" y="300" >2024</text>
    <line x1="184" y1="296" x2="192" y2="296" class="solid"></line>
    <text x="194" y="300" >01</text>
    <line x1="208" y1="296" x2="216" y2="296" class="solid"></line>
    <text x="218" y="300" >05</text>
    <text x="274" y="300" >300.00</text>
    <text x="354" y="300" >shipped</text>
    <g>
        <line x1="4" y1="88" x2="428" y2="88" class="solid"></line>
        <line x1="4" y1="88" x2="4" y2="184" class="solid"></line>
        <line x1="140" y1="88" x2="140" y2="184" class="solid"></line>
        <line x1="260" y1="88" x2="260" y2="96" class="solid"></line>
        <line x1="340" y1="88" x2="340" y2="96" class="solid"></line>
        <line x1="428" y1="88" x2="428" y2="96" class="solid"></line>
        <path d="M 260,96 A 12,12 0,0,1 260,112" class="nofill"></path>
        <line x1="4" y1="120" x2="428" y2="120" class="solid"></line>
        <line x1="260" y1="112" x2="260" y2="184" class="solid"></line>
        <line x1="428" y1="112" x2="428" y2="184" class="solid"></line>
        <line x1="340" y1="112" x2="340" y2="184" class="solid"></line>
        <line x1="4" y1="184" x2="428" y2="184" class="solid"></line>
    </g>
    <g>
        <line x1="4" y1="232" x2="428" y2="232" class="solid"></line>
        <line x1="4" y1="232" x2="4" y2="312" class="solid"></line>
        <line x1="140" y1="232" x2="140" y2="312" class="solid"></line>
        <line x1="260" y1="232" x2="260" y2="240" class="solid"></line>
        <line x1="340" y1="232" x2="340" y2="240" class="solid"></line>
        <line x1="428" y1="232" x2="428" y2="240" class="solid"></line>
        <path d="M 260,240 A 12,12 0,0,1 260,256" class="nofill"></path>
        <line x1="4" y1="264" x2="428" y2="264" class="solid"></line>
        <line x1="260" y1="256" x2="260" y2="312" class="solid"></line>
        <line x1="428" y1="256" x2="428" y2="312" class="solid"></line>
        <line x1="340" y1="256" x2="340" y2="312" class="solid"></line>
        <line x1="4" y1="312" x2="428" y2="312" class="solid"></line>
    </g>
</svg>