<svg xmlns="http://www.w3.org/2000/svg" width="520" height="336" style="background:#ffffff;border:1px solid #e5e5e5;border-radius:8px;max-width:100%;height:auto"><rect x="0" y="0" width="100%" height="100%" fill="#ffffff"/>
    <style>
        line, path, circle, rect, polygon{stroke:black;stroke-width:2;stroke-opacity:1;fill-opacity:1;stroke-linecap:round;stroke-linejoin:miter;}text{font-family:Iosevka Fixed, monospace;font-size:14px;}rect.backdrop{stroke:none;fill:transparent;}.broken{stroke-dasharray:8;}.filled{fill:black;}.bg_filled{fill:transparent;}.nofill{fill:transparent;}.end_marked_arrow{marker-end:url(#arrow);}.start_marked_arrow{marker-start:url(#arrow);}.end_marked_diamond{marker-end:url(#diamond);}.start_marked_diamond{marker-start:url(#diamond);}.end_marked_circle{marker-end:url(#circle);}.start_marked_circle{marker-start:url(#circle);}.end_marked_open_circle{marker-end:url(#open_circle);}.start_marked_open_circle{marker-start:url(#open_circle);}.end_marked_big_open_circle{marker-end:url(#big_open_circle);}.start_marked_big_open_circle{marker-start:url(#big_open_circle);}
        <!--separator-->
        
    </style>
    <defs>
        <marker id="arrow" viewBox="-2 -2 8 8" refX="4" refY="2" markerWidth="7" markerHeight="7" orient="auto-start-reverse">
            <polygon points="0,0 0,4 4,2 0,0"></polygon>
        </marker>
        <marker id="diamond" viewBox="-2 -2 8 8" refX="4" refY="2" markerWidth="7" markerHeight="7" orient="auto-start-reverse">
            <polygon points="0,2 2,0 4,2 2,4 0,2"></polygon>
        </marker>
        <marker id="circle" viewBox="0 0 8 8" refX="4" refY="4" markerWidth="7" markerHeight="7" orient="auto-start-reverse">
            <circle cx="4" cy="4" r="2" class="filled"></circle>
        </marker>
        <marker id="open_circle" viewBox="0 0 8 8" refX="4" refY="4" markerWidth="7" markerHeight="7" orient="auto-start-reverse">
            <circle cx="4" cy="4" r="2" class="bg_filled"></circle>
        </marker>
        <marker id="big_open_circle" viewBox="0 0 8 8" refX="4" refY="4" markerWidth="7" markerHeight="7" orient="auto-start-reverse">
            <circle cx="4" cy="4" r="3" class="bg_filled"></circle>
        </marker>
    </defs>
    <rect class="backdrop" x="0" y="0" width="520" height="336"></rect>
    <rect x="124" y="248" width="96" height="48" class="solid nofill" rx="0"></rect>
    <text x="146" y="268" >Lambda</text>
    <text x="138" y="284" >Function</text>
    <text x="170" y="28" >EVENT</text>
    <text x="218" y="28" >SOURCES</text>
    <line x1="500" y1="48" x2="500" y2="64" class="solid"></line>
    <text x="42" y="76" >API</text>
    <text x="74" y="76" >Gateway</text>
    <text x="194" y="76" >S3</text>
    <text x="306" y="76" >DynamoDB</text>
    <line x1="508" y1="64" x2="508" y2="96" class="solid"></line>
    <path d="M 48,80 A 16,16 0,0,0 48,96" class="nofill"></path>
    <text x="50" y="92" >sync</text>
    <path d="M 80,80 A 16,16 0,0,1 80,96" class="nofill"></path>
    <path d="M 176,80 A 16,16 0,0,0 176,96" class="nofill"></path>
    <text x="178" y="92" >async</text>
    <path d="M 216,80 A 16,16 0,0,1 216,96" class="nofill"></path>
    <text x="306" y="92" >Streams</text>
    <line x1="500" y1="96" x2="500" y2="208" class="solid"></line>
    <line x1="332" y1="112" x2="332" y2="128" class="solid"></line>
    <text x="50" y="156" >SQS</text>
    <text x="162" y="156" >EventBridge</text>
    <text x="306" y="156" >Kinesis</text>
    <path d="M 48,160 A 16,16 0,0,0 48,176" class="nofill"></path>
    <text x="50" y="172" >poll</text>
    <path d="M 80,160 A 16,16 0,0,1 80,176" class="nofill"></path>
    <path d="M 176,160 A 16,16 0,0,0 176,176" class="nofill"></path>
    <text x="178" y="172" >async</text>
    <path d="M 216,160 A 16,16 0,0,1 216,176" class="nofill"></path>
    <path d="M 312,160 A 16,16 0,0,0 312,176" class="nofill"></path>
    <text x="314" y="172" >poll</text>
    <path d="M 344,160 A 16,16 0,0,1 344,176" class="nofill"></path>
    <line x1="332" y1="192" x2="332" y2="208" class="solid"></line>
    <g>
        <line x1="4" y1="8" x2="508" y2="8" class="solid"></line>
        <line x1="4" y1="8" x2="4" y2="312" class="solid"></line>
        <line x1="508" y1="8" x2="508" y2="48" class="solid"></line>
        <line x1="508" y1="208" x2="508" y2="312" class="solid"></line>
        <line x1="4" y1="312" x2="508" y2="312" class="solid"></line>
    </g>
    <g>
        <line x1="28" y1="56" x2="132" y2="56" class="solid"></line>
        <line x1="28" y1="56" x2="28" y2="104" class="solid"></line>
        <line x1="132" y1="56" x2="132" y2="104" class="solid"></line>
        <line x1="28" y1="104" x2="132" y2="104" class="solid"></line>
        <line x1="76" y1="104" x2="76" y2="136" class="solid"></line>
        <line x1="28" y1="136" x2="132" y2="136" class="solid"></line>
        <line x1="28" y1="136" x2="28" y2="184" class="solid"></line>
        <line x1="132" y1="136" x2="132" y2="184" class="solid"></line>
        <line x1="28" y1="184" x2="132" y2="184" class="solid"></line>
        <line x1="76" y1="184" x2="76" y2="216" class="solid"></line>
        <line x1="76" y1="216" x2="340" y2="216" class="solid"></line>
        <line x1="172" y1="216" x2="172" y2="228" class="solid"></line>
        <line x1="212" y1="208" x2="212" y2="216" class="solid"></line>
        <line x1="340" y1="208" x2="340" y2="216" class="solid"></line>
        <polygon points="168,228 176,228 172,240" class="filled"></polygon>
    </g>
    <g>
        <line x1="156" y1="56" x2="260" y2="56" class="solid"></line>
        <line x1="156" y1="56" x2="156" y2="104" class="solid"></line>
        <line x1="260" y1="56" x2="260" y2="104" class="solid"></line>
        <line x1="156" y1="104" x2="260" y2="104" class="solid"></line>
        <line x1="204" y1="104" x2="204" y2="136" class="solid"></line>
        <line x1="156" y1="136" x2="260" y2="136" class="solid"></line>
        <line x1="156" y1="136" x2="156" y2="184" class="solid"></line>
        <line x1="260" y1="136" x2="260" y2="184" class="solid"></line>
        <line x1="156" y1="184" x2="260" y2="184" class="solid"></line>
        <line x1="204" y1="184" x2="204" y2="208" class="solid"></line>
    </g>
    <g>
        <line x1="284" y1="56" x2="388" y2="56" class="solid"></line>
        <line x1="284" y1="56" x2="284" y2="104" class="solid"></line>
        <line x1="388" y1="56" x2="388" y2="64" class="solid"></line>
        <line x1="396" y1="64" x2="396" y2="104" class="solid"></line>
        <line x1="284" y1="104" x2="396" y2="104" class="solid"></line>
        <line x1="340" y1="104" x2="340" y2="112" class="solid"></line>
    </g>
    <g>
        <line x1="284" y1="136" x2="396" y2="136" class="solid"></line>
        <line x1="284" y1="136" x2="284" y2="184" class="solid"></line>
        <line x1="340" y1="128" x2="340" y2="136" class="solid"></line>
        <line x1="396" y1="136" x2="396" y2="184" class="solid"></line>
        <line x1="284" y1="184" x2="396" y2="184" class="solid"></line>
        <line x1="340" y1="184" x2="340" y2="192" class="solid"></line>
    </g>
</svg>