<svg xmlns="http://www.w3.org/2000/svg" width="400" height="432" style="background:#ffffff;border:1px solid #e5e5e5;border-radius:8px;max-width:100%;height:auto"><rect x="0" y="0" width="100%" height="100%" fill="#ffffff"/>
    <style>
        line, path, circle, rect, polygon{stroke:black;stroke-width:2;stroke-opacity:1;fill-opacity:1;stroke-linecap:round;stroke-linejoin:miter;}text{font-family:Iosevka Fixed, monospace;font-size:14px;}rect.backdrop{stroke:none;fill:transparent;}.broken{stroke-dasharray:8;}.filled{fill:black;}.bg_filled{fill:transparent;}.nofill{fill:transparent;}.end_marked_arrow{marker-end:url(#arrow);}.start_marked_arrow{marker-start:url(#arrow);}.end_marked_diamond{marker-end:url(#diamond);}.start_marked_diamond{marker-start:url(#diamond);}.end_marked_circle{marker-end:url(#circle);}.start_marked_circle{marker-start:url(#circle);}.end_marked_open_circle{marker-end:url(#open_circle);}.start_marked_open_circle{marker-start:url(#open_circle);}.end_marked_big_open_circle{marker-end:url(#big_open_circle);}.start_marked_big_open_circle{marker-start:url(#big_open_circle);}
        <!--separator-->
        
    </style>
    <defs>
        <marker id="arrow" viewBox="-2 -2 8 8" refX="4" refY="2" markerWidth="7" markerHeight="7" orient="auto-start-reverse">
            <polygon points="0,0 0,4 4,2 0,0"></polygon>
        </marker>
        <marker id="diamond" viewBox="-2 -2 8 8" refX="4" refY="2" markerWidth="7" markerHeight="7" orient="auto-start-reverse">
            <polygon points="0,2 2,0 4,2 2,4 0,2"></polygon>
        </marker>
        <marker id="circle" viewBox="0 0 8 8" refX="4" refY="4" markerWidth="7" markerHeight="7" orient="auto-start-reverse">
            <circle cx="4" cy="4" r="2" class="filled"></circle>
        </marker>
        <marker id="open_circle" viewBox="0 0 8 8" refX="4" refY="4" markerWidth="7" markerHeight="7" orient="auto-start-reverse">
            <circle cx="4" cy="4" r="2" class="bg_filled"></circle>
        </marker>
        <marker id="big_open_circle" viewBox="0 0 8 8" refX="4" refY="4" markerWidth="7" markerHeight="7" orient="auto-start-reverse">
            <circle cx="4" cy="4" r="3" class="bg_filled"></circle>
        </marker>
    </defs>
    <rect class="backdrop" x="0" y="0" width="400" height="432"></rect>
    <rect x="60" y="200" width="280" height="96" class="solid nofill" rx="0"></rect>
    <rect x="84" y="232" width="232" height="48" class="solid nofill" rx="0"></rect>
    <text x="122" y="252" >Your</text>
    <text x="162" y="252" >Function</text>
    <text x="234" y="252" >Code</text>
    <text x="122" y="268" >+</text>
    <text x="138" y="268" >Dependencies</text>
    <text x="82" y="220" >Runtime</text>
    <path d="M 152,208 A 16,16 0,0,0 152,224" class="nofill"></path>
    <text x="154" y="220" >Python,</text>
    <text x="218" y="220" >Node,</text>
    <text x="266" y="220" >Java...</text>
    <path d="M 320,208 A 16,16 0,0,1 320,224" class="nofill"></path>
    <rect x="60" y="312" width="72" height="64" class="solid nofill" rx="0"></rect>
    <line x1="80" y1="320" x2="72" y2="336" class="solid"></line>
    <text x="82" y="332" >tmp</text>
    <text x="74" y="348" >10</text>
    <text x="98" y="348" >GB</text>
    <text x="74" y="364" >ephm.</text>
    <rect x="148" y="312" width="56" height="64" class="solid nofill" rx="0"></rect>
    <text x="162" y="332" >RAM</text>
    <rect x="220" y="312" width="104" height="64" class="solid nofill" rx="0"></rect>
    <text x="234" y="332" >CPU</text>
    <text x="266" y="332" >alloc.</text>
    <path d="M 240,336 A 16,16 0,0,0 240,352" class="nofill"></path>
    <text x="242" y="348" >prop.</text>
    <text x="290" y="348" >to</text>
    <text x="242" y="364" >memory</text>
    <path d="M 288,352 A 16,16 0,0,1 288,368" class="nofill"></path>
    <text x="2" y="12" >Invocati</text>
    <circle cx="68" cy="8" r="3" class="nofill"></circle>
    <text x="74" y="12" >n</text>
    <text x="106" y="76" >Lambda</text>
    <text x="162" y="76" >Service</text>
    <line x1="388" y1="64" x2="388" y2="80" class="solid"></line>
    <line x1="380" y1="80" x2="380" y2="160" class="solid"></line>
    <line x1="388" y1="160" x2="388" y2="304" class="solid"></line>
    <text x="106" y="188" >Execution</text>
    <text x="186" y="188" >Environment</text>
    <line x1="356" y1="304" x2="356" y2="384" class="solid"></line>
    <line x1="380" y1="304" x2="380" y2="384" class="solid"></line>
    <line x1="388" y1="384" x2="388" y2="400" class="solid"></line>
    <text x="90" y="12" >Request</text>
    <text x="34" y="108" >Is</text>
    <text x="58" y="108" >there</text>
    <text x="106" y="108" >a</text>
    <text x="122" y="108" >warm</text>
    <text x="162" y="108" >execution</text>
    <text x="242" y="108" >environment?</text>
    <text x="66" y="124" >YES</text>
    <text x="162" y="124" >request</text>
    <text x="226" y="124" >to</text>
    <text x="250" y="124" >warm</text>
    <text x="290" y="124" >env</text>
    <path d="M 328,112 A 16,16 0,0,0 328,128" class="nofill"></path>
    <text x="330" y="124" >FAST</text>
    <path d="M 360,112 A 16,16 0,0,1 360,128" class="nofill"></path>
    <text x="66" y="140" >NO</text>
    <text x="170" y="140" >new</text>
    <text x="202" y="140" >environment</text>
    <path d="M 304,128 A 16,16 0,0,0 304,144" class="nofill"></path>
    <text x="306" y="140" >COLD</text>
    <path d="M 336,128 A 16,16 0,0,1 336,144" class="nofill"></path>
    <g>
        <line x1="68" y1="12" x2="68" y2="36" class="solid"></line>
        <polygon points="64,36 72,36 68,48" class="filled"></polygon>
    </g>
    <g>
        <line x1="4" y1="56" x2="380" y2="56" class="solid"></line>
        <line x1="4" y1="56" x2="4" y2="408" class="solid"></line>
        <line x1="380" y1="56" x2="380" y2="64" class="solid"></line>
        <line x1="4" y1="408" x2="380" y2="408" class="solid"></line>
        <line x1="380" y1="400" x2="380" y2="408" class="solid"></line>
    </g>
    <g>
        <line x1="36" y1="168" x2="364" y2="168" class="solid"></line>
        <line x1="36" y1="168" x2="36" y2="392" class="solid"></line>
        <line x1="364" y1="168" x2="364" y2="304" class="solid"></line>
        <line x1="36" y1="392" x2="364" y2="392" class="solid"></line>
        <line x1="364" y1="384" x2="364" y2="392" class="solid"></line>
    </g>
    <g>
        <line x1="36" y1="112" x2="36" y2="136" class="solid"></line>
        <line x1="36" y1="120" x2="56" y2="120" class="solid"></line>
        <line x1="36" y1="136" x2="56" y2="136" class="solid"></line>
    </g>
    <g>
        <text x="98" y="124">→</text>
        <text x="114" y="124">Route</text>
    </g>
    <g>
        <text x="98" y="140">→</text>
        <text x="114" y="140">Create</text>
    </g>
</svg>