<svg xmlns="http://www.w3.org/2000/svg" width="584" height="128" style="background:#ffffff;border:1px solid #e5e5e5;border-radius:8px;max-width:100%;height:auto"><rect x="0" y="0" width="100%" height="100%" fill="#ffffff"/>
    <style>
        line, path, circle, rect, polygon{stroke:black;stroke-width:2;stroke-opacity:1;fill-opacity:1;stroke-linecap:round;stroke-linejoin:miter;}text{font-family:Iosevka Fixed, monospace;font-size:14px;}rect.backdrop{stroke:none;fill:transparent;}.broken{stroke-dasharray:8;}.filled{fill:black;}.bg_filled{fill:transparent;}.nofill{fill:transparent;}.end_marked_arrow{marker-end:url(#arrow);}.start_marked_arrow{marker-start:url(#arrow);}.end_marked_diamond{marker-end:url(#diamond);}.start_marked_diamond{marker-start:url(#diamond);}.end_marked_circle{marker-end:url(#circle);}.start_marked_circle{marker-start:url(#circle);}.end_marked_open_circle{marker-end:url(#open_circle);}.start_marked_open_circle{marker-start:url(#open_circle);}.end_marked_big_open_circle{marker-end:url(#big_open_circle);}.start_marked_big_open_circle{marker-start:url(#big_open_circle);}
        <!--separator-->
        
    </style>
    <defs>
        <marker id="arrow" viewBox="-2 -2 8 8" refX="4" refY="2" markerWidth="7" markerHeight="7" orient="auto-start-reverse">
            <polygon points="0,0 0,4 4,2 0,0"></polygon>
        </marker>
        <marker id="diamond" viewBox="-2 -2 8 8" refX="4" refY="2" markerWidth="7" markerHeight="7" orient="auto-start-reverse">
            <polygon points="0,2 2,0 4,2 2,4 0,2"></polygon>
        </marker>
        <marker id="circle" viewBox="0 0 8 8" refX="4" refY="4" markerWidth="7" markerHeight="7" orient="auto-start-reverse">
            <circle cx="4" cy="4" r="2" class="filled"></circle>
        </marker>
        <marker id="open_circle" viewBox="0 0 8 8" refX="4" refY="4" markerWidth="7" markerHeight="7" orient="auto-start-reverse">
            <circle cx="4" cy="4" r="2" class="bg_filled"></circle>
        </marker>
        <marker id="big_open_circle" viewBox="0 0 8 8" refX="4" refY="4" markerWidth="7" markerHeight="7" orient="auto-start-reverse">
            <circle cx="4" cy="4" r="3" class="bg_filled"></circle>
        </marker>
    </defs>
    <rect class="backdrop" x="0" y="0" width="584" height="128"></rect>
    <text x="2" y="12" >Without</text>
    <text x="66" y="12" >RDS</text>
    <text x="2" y="28" >1000</text>
    <text x="42" y="28" >Lambda</text>
    <text x="26" y="108" >RDS</text>
    <text x="98" y="12" >Proxy:</text>
    <text x="98" y="28" >instances</text>
    <text x="306" y="12" >With</text>
    <text x="306" y="28" >1000</text>
    <text x="346" y="12" >RDS</text>
    <text x="378" y="12" >Proxy:</text>
    <text x="346" y="28" >Lambda</text>
    <text x="402" y="28" >instances</text>
    <text x="330" y="108" >RDS</text>
    <text x="74" y="60" >1000</text>
    <text x="114" y="60" >DB</text>
    <text x="138" y="60" >connections</text>
    <path d="M 80,64 A 16,16 0,0,0 80,80" class="nofill"></path>
    <text x="82" y="76" >database</text>
    <text x="154" y="76" >overwhelmed</text>
    <path d="M 240,64 A 16,16 0,0,1 240,80" class="nofill"></path>
    <text x="378" y="60" >1000</text>
    <text x="418" y="60" >connections</text>
    <path d="M 384,64 A 16,16 0,0,0 384,80" class="nofill"></path>
    <text x="386" y="76" >Proxy</text>
    <text x="434" y="76" >pools</text>
    <line x1="480" y1="72" x2="488" y2="72" class="broken"></line>
    <text x="490" y="76" >50</text>
    <text x="514" y="60" >to</text>
    <text x="514" y="76" >to</text>
    <text x="538" y="60" >Proxy</text>
    <text x="538" y="76" >DB</text>
    <path d="M 552,64 A 16,16 0,0,1 552,80" class="nofill"></path>
    <path d="M 64,96 A 16,16 0,0,0 64,112" class="nofill"></path>
    <text x="66" y="108" >max</text>
    <line x1="88" y1="112" x2="96" y2="112" class="solid"></line>
    <text x="98" y="108" >connections</text>
    <text x="194" y="108" >exceeded</text>
    <path d="M 256,96 A 16,16 0,0,1 256,112" class="nofill"></path>
    <text x="362" y="108" >Proxy</text>
    <text x="442" y="108" >RDS</text>
    <path d="M 480,96 A 16,16 0,0,0 480,112" class="nofill"></path>
    <text x="482" y="108" >healthy</text>
    <path d="M 536,96 A 16,16 0,0,1 536,112" class="nofill"></path>
    <g>
        <line x1="44" y1="32" x2="44" y2="84" class="solid"></line>
        <line x1="44" y1="56" x2="64" y2="56" class="solid"></line>
        <polygon points="40,84 48,84 44,96" class="filled"></polygon>
    </g>
    <g>
        <line x1="348" y1="32" x2="348" y2="84" class="solid"></line>
        <line x1="348" y1="56" x2="368" y2="56" class="solid"></line>
        <polygon points="344,84 352,84 348,96" class="filled"></polygon>
    </g>
    <g>
        <line x1="408" y1="104" x2="424" y2="104" class="solid"></line>
        <polygon points="424,100 432,104 424,108" class="filled"></polygon>
    </g>
</svg>