<svg xmlns="http://www.w3.org/2000/svg" width="448" height="64" style="background:#ffffff;border:1px solid #e5e5e5;border-radius:8px;max-width:100%;height:auto"><rect x="0" y="0" width="100%" height="100%" fill="#ffffff"/>
    <style>
        line, path, circle, rect, polygon{stroke:black;stroke-width:2;stroke-opacity:1;fill-opacity:1;stroke-linecap:round;stroke-linejoin:miter;}text{font-family:Iosevka Fixed, monospace;font-size:14px;}rect.backdrop{stroke:none;fill:transparent;}.broken{stroke-dasharray:8;}.filled{fill:black;}.bg_filled{fill:transparent;}.nofill{fill:transparent;}.end_marked_arrow{marker-end:url(#arrow);}.start_marked_arrow{marker-start:url(#arrow);}.end_marked_diamond{marker-end:url(#diamond);}.start_marked_diamond{marker-start:url(#diamond);}.end_marked_circle{marker-end:url(#circle);}.start_marked_circle{marker-start:url(#circle);}.end_marked_open_circle{marker-end:url(#open_circle);}.start_marked_open_circle{marker-start:url(#open_circle);}.end_marked_big_open_circle{marker-end:url(#big_open_circle);}.start_marked_big_open_circle{marker-start:url(#big_open_circle);}
        <!--separator-->
        
    </style>
    <defs>
        <marker id="arrow" viewBox="-2 -2 8 8" refX="4" refY="2" markerWidth="7" markerHeight="7" orient="auto-start-reverse">
            <polygon points="0,0 0,4 4,2 0,0"></polygon>
        </marker>
        <marker id="diamond" viewBox="-2 -2 8 8" refX="4" refY="2" markerWidth="7" markerHeight="7" orient="auto-start-reverse">
            <polygon points="0,2 2,0 4,2 2,4 0,2"></polygon>
        </marker>
        <marker id="circle" viewBox="0 0 8 8" refX="4" refY="4" markerWidth="7" markerHeight="7" orient="auto-start-reverse">
            <circle cx="4" cy="4" r="2" class="filled"></circle>
        </marker>
        <marker id="open_circle" viewBox="0 0 8 8" refX="4" refY="4" markerWidth="7" markerHeight="7" orient="auto-start-reverse">
            <circle cx="4" cy="4" r="2" class="bg_filled"></circle>
        </marker>
        <marker id="big_open_circle" viewBox="0 0 8 8" refX="4" refY="4" markerWidth="7" markerHeight="7" orient="auto-start-reverse">
            <circle cx="4" cy="4" r="3" class="bg_filled"></circle>
        </marker>
    </defs>
    <rect class="backdrop" x="0" y="0" width="448" height="64"></rect>
    <text x="2" y="12" >Client</text>
    <text x="90" y="12" >API</text>
    <text x="122" y="12" >Gateway</text>
    <text x="218" y="12" >Lambda</text>
    <text x="306" y="12" >DynamoDB</text>
    <text x="170" y="44" >Lambda</text>
    <text x="226" y="44" >Authorizer</text>
    <path d="M 320,32 A 16,16 0,0,0 320,48" class="nofill"></path>
    <text x="322" y="44" >JWT</text>
    <text x="354" y="44" >validation</text>
    <path d="M 432,32 A 16,16 0,0,1 432,48" class="nofill"></path>
    <g>
        <line x1="56" y1="8" x2="72" y2="8" class="solid"></line>
        <polygon points="72,4 80,8 72,12" class="filled"></polygon>
    </g>
    <g>
        <line x1="132" y1="16" x2="132" y2="40" class="solid"></line>
        <line x1="132" y1="40" x2="152" y2="40" class="solid"></line>
        <polygon points="152,36 160,40 152,44" class="filled"></polygon>
    </g>
    <g>
        <line x1="184" y1="8" x2="200" y2="8" class="solid"></line>
        <polygon points="200,4 208,8 200,12" class="filled"></polygon>
    </g>
    <g>
        <line x1="272" y1="8" x2="288" y2="8" class="solid"></line>
        <polygon points="288,4 296,8 288,12" class="filled"></polygon>
    </g>
</svg>