<svg xmlns="http://www.w3.org/2000/svg" width="376" height="64" style="background:#ffffff;border:1px solid #e5e5e5;border-radius:8px;max-width:100%;height:auto"><rect x="0" y="0" width="100%" height="100%" fill="#ffffff"/>
    <style>
        line, path, circle, rect, polygon{stroke:black;stroke-width:2;stroke-opacity:1;fill-opacity:1;stroke-linecap:round;stroke-linejoin:miter;}text{font-family:Iosevka Fixed, monospace;font-size:14px;}rect.backdrop{stroke:none;fill:transparent;}.broken{stroke-dasharray:8;}.filled{fill:black;}.bg_filled{fill:transparent;}.nofill{fill:transparent;}.end_marked_arrow{marker-end:url(#arrow);}.start_marked_arrow{marker-start:url(#arrow);}.end_marked_diamond{marker-end:url(#diamond);}.start_marked_diamond{marker-start:url(#diamond);}.end_marked_circle{marker-end:url(#circle);}.start_marked_circle{marker-start:url(#circle);}.end_marked_open_circle{marker-end:url(#open_circle);}.start_marked_open_circle{marker-start:url(#open_circle);}.end_marked_big_open_circle{marker-end:url(#big_open_circle);}.start_marked_big_open_circle{marker-start:url(#big_open_circle);}
        <!--separator-->
        
    </style>
    <defs>
        <marker id="arrow" viewBox="-2 -2 8 8" refX="4" refY="2" markerWidth="7" markerHeight="7" orient="auto-start-reverse">
            <polygon points="0,0 0,4 4,2 0,0"></polygon>
        </marker>
        <marker id="diamond" viewBox="-2 -2 8 8" refX="4" refY="2" markerWidth="7" markerHeight="7" orient="auto-start-reverse">
            <polygon points="0,2 2,0 4,2 2,4 0,2"></polygon>
        </marker>
        <marker id="circle" viewBox="0 0 8 8" refX="4" refY="4" markerWidth="7" markerHeight="7" orient="auto-start-reverse">
            <circle cx="4" cy="4" r="2" class="filled"></circle>
        </marker>
        <marker id="open_circle" viewBox="0 0 8 8" refX="4" refY="4" markerWidth="7" markerHeight="7" orient="auto-start-reverse">
            <circle cx="4" cy="4" r="2" class="bg_filled"></circle>
        </marker>
        <marker id="big_open_circle" viewBox="0 0 8 8" refX="4" refY="4" markerWidth="7" markerHeight="7" orient="auto-start-reverse">
            <circle cx="4" cy="4" r="3" class="bg_filled"></circle>
        </marker>
    </defs>
    <rect class="backdrop" x="0" y="0" width="376" height="64"></rect>
    <text x="2" y="12" >S3</text>
    <text x="26" y="12" >Event</text>
    <text x="138" y="12" >Lambda</text>
    <text x="194" y="12" >Event</text>
    <text x="242" y="12" >Queue</text>
    <text x="322" y="12" >Lambda</text>
    <text x="2" y="28" >SNS</text>
    <text x="130" y="28" >Lambda</text>
    <text x="186" y="28" >Event</text>
    <text x="234" y="28" >Queue</text>
    <text x="314" y="28" >Lambda</text>
    <text x="2" y="44" >EventBridge</text>
    <text x="130" y="44" >Lambda</text>
    <text x="186" y="44" >Event</text>
    <text x="234" y="44" >Queue</text>
    <text x="314" y="44" >Lambda</text>
    <g>
        <line x1="72" y1="8" x2="120" y2="8" class="solid"></line>
        <polygon points="120,4 128,8 120,12" class="filled"></polygon>
    </g>
    <g>
        <line x1="288" y1="8" x2="304" y2="8" class="solid"></line>
        <polygon points="304,4 312,8 304,12" class="filled"></polygon>
    </g>
    <g>
        <line x1="32" y1="24" x2="112" y2="24" class="solid"></line>
        <polygon points="112,20 120,24 112,28" class="filled"></polygon>
    </g>
    <g>
        <line x1="280" y1="24" x2="296" y2="24" class="solid"></line>
        <polygon points="296,20 304,24 296,28" class="filled"></polygon>
    </g>
    <g>
        <line x1="96" y1="40" x2="112" y2="40" class="solid"></line>
        <polygon points="112,36 120,40 112,44" class="filled"></polygon>
    </g>
    <g>
        <line x1="280" y1="40" x2="296" y2="40" class="solid"></line>
        <polygon points="296,36 304,40 296,44" class="filled"></polygon>
    </g>
</svg>