<svg xmlns="http://www.w3.org/2000/svg" width="560" height="144" style="background:#ffffff;border:1px solid #e5e5e5;border-radius:8px;max-width:100%;height:auto"><rect x="0" y="0" width="100%" height="100%" fill="#ffffff"/>
    <style>
        line, path, circle, rect, polygon{stroke:black;stroke-width:2;stroke-opacity:1;fill-opacity:1;stroke-linecap:round;stroke-linejoin:miter;}text{font-family:Iosevka Fixed, monospace;font-size:14px;}rect.backdrop{stroke:none;fill:transparent;}.broken{stroke-dasharray:8;}.filled{fill:black;}.bg_filled{fill:transparent;}.nofill{fill:transparent;}.end_marked_arrow{marker-end:url(#arrow);}.start_marked_arrow{marker-start:url(#arrow);}.end_marked_diamond{marker-end:url(#diamond);}.start_marked_diamond{marker-start:url(#diamond);}.end_marked_circle{marker-end:url(#circle);}.start_marked_circle{marker-start:url(#circle);}.end_marked_open_circle{marker-end:url(#open_circle);}.start_marked_open_circle{marker-start:url(#open_circle);}.end_marked_big_open_circle{marker-end:url(#big_open_circle);}.start_marked_big_open_circle{marker-start:url(#big_open_circle);}
        <!--separator-->
        
    </style>
    <defs>
        <marker id="arrow" viewBox="-2 -2 8 8" refX="4" refY="2" markerWidth="7" markerHeight="7" orient="auto-start-reverse">
            <polygon points="0,0 0,4 4,2 0,0"></polygon>
        </marker>
        <marker id="diamond" viewBox="-2 -2 8 8" refX="4" refY="2" markerWidth="7" markerHeight="7" orient="auto-start-reverse">
            <polygon points="0,2 2,0 4,2 2,4 0,2"></polygon>
        </marker>
        <marker id="circle" viewBox="0 0 8 8" refX="4" refY="4" markerWidth="7" markerHeight="7" orient="auto-start-reverse">
            <circle cx="4" cy="4" r="2" class="filled"></circle>
        </marker>
        <marker id="open_circle" viewBox="0 0 8 8" refX="4" refY="4" markerWidth="7" markerHeight="7" orient="auto-start-reverse">
            <circle cx="4" cy="4" r="2" class="bg_filled"></circle>
        </marker>
        <marker id="big_open_circle" viewBox="0 0 8 8" refX="4" refY="4" markerWidth="7" markerHeight="7" orient="auto-start-reverse">
            <circle cx="4" cy="4" r="3" class="bg_filled"></circle>
        </marker>
    </defs>
    <rect class="backdrop" x="0" y="0" width="560" height="144"></rect>
    <text x="2" y="12" >Requests</text>
    <line x1="72" y1="0" x2="64" y2="16" class="solid"></line>
    <text x="74" y="12" >month</text>
    <line x1="0" y1="24" x2="120" y2="24" class="solid"></line>
    <text x="2" y="44" >100K</text>
    <text x="2" y="60" >1M</text>
    <text x="2" y="76" >10M</text>
    <text x="2" y="92" >50M</text>
    <text x="2" y="108" >100M</text>
    <text x="2" y="124" >500M</text>
    <text x="146" y="12" >Lambda</text>
    <path d="M 208,0 A 16,16 0,0,0 208,16" class="nofill"></path>
    <text x="210" y="12" >256MB,</text>
    <text x="266" y="12" >200ms</text>
    <path d="M 304,0 A 16,16 0,0,1 304,16" class="nofill"></path>
    <line x1="144" y1="24" x2="312" y2="24" class="solid"></line>
    <text x="146" y="44" >$0.11</text>
    <text x="146" y="60" >$1.05</text>
    <text x="146" y="76" >$10.50</text>
    <text x="146" y="92" >$52.50</text>
    <text x="146" y="108" >$105.00</text>
    <text x="146" y="124" >$525.00</text>
    <text x="346" y="12" >t3.medium</text>
    <path d="M 432,0 A 16,16 0,0,0 432,16" class="nofill"></path>
    <text x="434" y="12" >always</text>
    <line x1="480" y1="8" x2="488" y2="8" class="solid"></line>
    <circle cx="492" cy="8" r="3" class="nofill"></circle>
    <text x="498" y="12" >n</text>
    <path d="M 504,0 A 16,16 0,0,1 504,16" class="nofill"></path>
    <line x1="344" y1="24" x2="512" y2="24" class="solid"></line>
    <text x="346" y="44" >$30.37</text>
    <text x="346" y="60" >$30.37</text>
    <text x="346" y="76" >$30.37</text>
    <text x="346" y="92" >$30.37</text>
    <text x="346" y="108" >$30.37</text>
    <text x="346" y="124" >$30.37</text>
    <text x="426" y="92" >←</text>
    <text x="442" y="92" >breakeven</text>
    <text x="522" y="92" >zone</text>
</svg>