<svg xmlns="http://www.w3.org/2000/svg" width="576" height="112" style="background:#ffffff;border:1px solid #e5e5e5;border-radius:8px;max-width:100%;height:auto"><rect x="0" y="0" width="100%" height="100%" fill="#ffffff"/>
    <style>
        line, path, circle, rect, polygon{stroke:black;stroke-width:2;stroke-opacity:1;fill-opacity:1;stroke-linecap:round;stroke-linejoin:miter;}text{font-family:Iosevka Fixed, monospace;font-size:14px;}rect.backdrop{stroke:none;fill:transparent;}.broken{stroke-dasharray:8;}.filled{fill:black;}.bg_filled{fill:transparent;}.nofill{fill:transparent;}.end_marked_arrow{marker-end:url(#arrow);}.start_marked_arrow{marker-start:url(#arrow);}.end_marked_diamond{marker-end:url(#diamond);}.start_marked_diamond{marker-start:url(#diamond);}.end_marked_circle{marker-end:url(#circle);}.start_marked_circle{marker-start:url(#circle);}.end_marked_open_circle{marker-end:url(#open_circle);}.start_marked_open_circle{marker-start:url(#open_circle);}.end_marked_big_open_circle{marker-end:url(#big_open_circle);}.start_marked_big_open_circle{marker-start:url(#big_open_circle);}
        <!--separator-->
        
    </style>
    <defs>
        <marker id="arrow" viewBox="-2 -2 8 8" refX="4" refY="2" markerWidth="7" markerHeight="7" orient="auto-start-reverse">
            <polygon points="0,0 0,4 4,2 0,0"></polygon>
        </marker>
        <marker id="diamond" viewBox="-2 -2 8 8" refX="4" refY="2" markerWidth="7" markerHeight="7" orient="auto-start-reverse">
            <polygon points="0,2 2,0 4,2 2,4 0,2"></polygon>
        </marker>
        <marker id="circle" viewBox="0 0 8 8" refX="4" refY="4" markerWidth="7" markerHeight="7" orient="auto-start-reverse">
            <circle cx="4" cy="4" r="2" class="filled"></circle>
        </marker>
        <marker id="open_circle" viewBox="0 0 8 8" refX="4" refY="4" markerWidth="7" markerHeight="7" orient="auto-start-reverse">
            <circle cx="4" cy="4" r="2" class="bg_filled"></circle>
        </marker>
        <marker id="big_open_circle" viewBox="0 0 8 8" refX="4" refY="4" markerWidth="7" markerHeight="7" orient="auto-start-reverse">
            <circle cx="4" cy="4" r="3" class="bg_filled"></circle>
        </marker>
    </defs>
    <rect class="backdrop" x="0" y="0" width="576" height="112"></rect>
    <text x="2" y="12" >Input</text>
    <text x="82" y="12" >Lambda</text>
    <text x="170" y="12" >SNS</text>
    <text x="202" y="12" >Topic</text>
    <text x="282" y="12" >SQS</text>
    <text x="314" y="12" >Queue</text>
    <text x="362" y="12" >1</text>
    <text x="410" y="12" >Lambda</text>
    <path d="M 472,0 A 16,16 0,0,0 472,16" class="nofill"></path>
    <text x="474" y="12" >process</text>
    <text x="538" y="12" >A</text>
    <path d="M 544,0 A 16,16 0,0,1 544,16" class="nofill"></path>
    <text x="274" y="28" >SQS</text>
    <text x="306" y="28" >Queue</text>
    <text x="354" y="28" >2</text>
    <text x="402" y="28" >Lambda</text>
    <text x="466" y="28" >process</text>
    <text x="530" y="28" >B</text>
    <text x="274" y="44" >SQS</text>
    <text x="306" y="44" >Queue</text>
    <text x="354" y="44" >3</text>
    <text x="402" y="44" >Lambda</text>
    <text x="466" y="44" >process</text>
    <text x="530" y="44" >C</text>
    <text x="410" y="92" >DynamoDB</text>
    <path d="M 488,80 A 16,16 0,0,0 488,96" class="nofill"></path>
    <text x="490" y="92" >aggregate</text>
    <path d="M 560,80 A 16,16 0,0,1 560,96" class="nofill"></path>
    <g>
        <line x1="48" y1="8" x2="64" y2="8" class="solid"></line>
        <polygon points="64,4 72,8 64,12" class="filled"></polygon>
    </g>
    <g>
        <line x1="136" y1="8" x2="152" y2="8" class="solid"></line>
        <polygon points="152,4 160,8 152,12" class="filled"></polygon>
    </g>
    <g>
        <line x1="248" y1="8" x2="264" y2="8" class="solid"></line>
        <polygon points="264,4 272,8 264,12" class="filled"></polygon>
    </g>
    <g>
        <line x1="376" y1="8" x2="392" y2="8" class="solid"></line>
        <polygon points="392,4 400,8 392,12" class="filled"></polygon>
    </g>
    <g>
        <line x1="240" y1="24" x2="256" y2="24" class="solid"></line>
        <polygon points="256,20 264,24 256,28" class="filled"></polygon>
    </g>
    <g>
        <line x1="368" y1="24" x2="384" y2="24" class="solid"></line>
        <polygon points="384,20 392,24 384,28" class="filled"></polygon>
    </g>
    <g>
        <path d="M 464,16 A 16,16 0,0,0 464,32" class="nofill"></path>
        <path d="M 464,32 A 16,16 0,0,0 464,48" class="nofill"></path>
    </g>
    <g>
        <path d="M 536,16 A 16,16 0,0,1 536,32" class="nofill"></path>
        <path d="M 536,32 A 16,16 0,0,1 536,48" class="nofill"></path>
    </g>
    <g>
        <line x1="240" y1="40" x2="256" y2="40" class="solid"></line>
        <polygon points="256,36 264,40 256,44" class="filled"></polygon>
    </g>
    <g>
        <line x1="368" y1="40" x2="384" y2="40" class="solid"></line>
        <polygon points="384,36 392,40 384,44" class="filled"></polygon>
    </g>
    <g>
        <line x1="452" y1="48" x2="452" y2="68" class="solid"></line>
        <polygon points="448,68 456,68 452,80" class="filled"></polygon>
    </g>
</svg>