<svg xmlns="http://www.w3.org/2000/svg" width="416" height="96" style="background:#ffffff;border:1px solid #e5e5e5;border-radius:8px;max-width:100%;height:auto"><rect x="0" y="0" width="100%" height="100%" fill="#ffffff"/>
    <style>
        line, path, circle, rect, polygon{stroke:black;stroke-width:2;stroke-opacity:1;fill-opacity:1;stroke-linecap:round;stroke-linejoin:miter;}text{font-family:Iosevka Fixed, monospace;font-size:14px;}rect.backdrop{stroke:none;fill:transparent;}.broken{stroke-dasharray:8;}.filled{fill:black;}.bg_filled{fill:transparent;}.nofill{fill:transparent;}.end_marked_arrow{marker-end:url(#arrow);}.start_marked_arrow{marker-start:url(#arrow);}.end_marked_diamond{marker-end:url(#diamond);}.start_marked_diamond{marker-start:url(#diamond);}.end_marked_circle{marker-end:url(#circle);}.start_marked_circle{marker-start:url(#circle);}.end_marked_open_circle{marker-end:url(#open_circle);}.start_marked_open_circle{marker-start:url(#open_circle);}.end_marked_big_open_circle{marker-end:url(#big_open_circle);}.start_marked_big_open_circle{marker-start:url(#big_open_circle);}
        <!--separator-->
        
    </style>
    <defs>
        <marker id="arrow" viewBox="-2 -2 8 8" refX="4" refY="2" markerWidth="7" markerHeight="7" orient="auto-start-reverse">
            <polygon points="0,0 0,4 4,2 0,0"></polygon>
        </marker>
        <marker id="diamond" viewBox="-2 -2 8 8" refX="4" refY="2" markerWidth="7" markerHeight="7" orient="auto-start-reverse">
            <polygon points="0,2 2,0 4,2 2,4 0,2"></polygon>
        </marker>
        <marker id="circle" viewBox="0 0 8 8" refX="4" refY="4" markerWidth="7" markerHeight="7" orient="auto-start-reverse">
            <circle cx="4" cy="4" r="2" class="filled"></circle>
        </marker>
        <marker id="open_circle" viewBox="0 0 8 8" refX="4" refY="4" markerWidth="7" markerHeight="7" orient="auto-start-reverse">
            <circle cx="4" cy="4" r="2" class="bg_filled"></circle>
        </marker>
        <marker id="big_open_circle" viewBox="0 0 8 8" refX="4" refY="4" markerWidth="7" markerHeight="7" orient="auto-start-reverse">
            <circle cx="4" cy="4" r="3" class="bg_filled"></circle>
        </marker>
    </defs>
    <rect class="backdrop" x="0" y="0" width="416" height="96"></rect>
    <text x="2" y="12" >EventBridge</text>
    <text x="98" y="12" >Rule</text>
    <path d="M 8,16 A 16,16 0,0,0 8,32" class="nofill"></path>
    <text x="10" y="28" >cron:</text>
    <text x="58" y="28" >0</text>
    <line x1="72" y1="16" x2="64" y2="32" class="solid"></line>
    <text x="74" y="28" >5</text>
    <text x="90" y="28" >*</text>
    <text x="106" y="28" >*</text>
    <text x="122" y="28" >*</text>
    <text x="138" y="28" >*</text>
    <path d="M 144,16 A 16,16 0,0,1 144,32" class="nofill"></path>
    <text x="170" y="12" >Lambda</text>
    <line x1="188" y1="16" x2="188" y2="32" class="solid"></line>
    <path d="M 232,0 A 16,16 0,0,0 232,16" class="nofill"></path>
    <text x="234" y="12" >every</text>
    <text x="282" y="12" >5</text>
    <text x="298" y="12" >min</text>
    <path d="M 320,0 A 16,16 0,0,1 320,16" class="nofill"></path>
    <text x="226" y="44" >Check</text>
    <text x="274" y="44" >for</text>
    <text x="306" y="44" >stale</text>
    <text x="354" y="44" >records</text>
    <text x="226" y="60" >Generate</text>
    <text x="298" y="60" >reports</text>
    <text x="226" y="76" >Sync</text>
    <text x="266" y="76" >external</text>
    <text x="338" y="76" >API</text>
    <g>
        <line x1="136" y1="8" x2="152" y2="8" class="solid"></line>
        <polygon points="152,4 160,8 152,12" class="filled"></polygon>
    </g>
    <g>
        <line x1="196" y1="32" x2="196" y2="72" class="solid"></line>
        <line x1="196" y1="40" x2="216" y2="40" class="solid"></line>
        <line x1="196" y1="56" x2="216" y2="56" class="solid"></line>
        <line x1="196" y1="72" x2="216" y2="72" class="solid"></line>
    </g>
</svg>