<svg xmlns="http://www.w3.org/2000/svg" width="480" height="176" style="background:#ffffff;border:1px solid #e5e5e5;border-radius:8px;max-width:100%;height:auto"><rect x="0" y="0" width="100%" height="100%" fill="#ffffff"/>
    <style>
        line, path, circle, rect, polygon{stroke:black;stroke-width:2;stroke-opacity:1;fill-opacity:1;stroke-linecap:round;stroke-linejoin:miter;}text{font-family:Iosevka Fixed, monospace;font-size:14px;}rect.backdrop{stroke:none;fill:transparent;}.broken{stroke-dasharray:8;}.filled{fill:black;}.bg_filled{fill:transparent;}.nofill{fill:transparent;}.end_marked_arrow{marker-end:url(#arrow);}.start_marked_arrow{marker-start:url(#arrow);}.end_marked_diamond{marker-end:url(#diamond);}.start_marked_diamond{marker-start:url(#diamond);}.end_marked_circle{marker-end:url(#circle);}.start_marked_circle{marker-start:url(#circle);}.end_marked_open_circle{marker-end:url(#open_circle);}.start_marked_open_circle{marker-start:url(#open_circle);}.end_marked_big_open_circle{marker-end:url(#big_open_circle);}.start_marked_big_open_circle{marker-start:url(#big_open_circle);}
        <!--separator-->
        
    </style>
    <defs>
        <marker id="arrow" viewBox="-2 -2 8 8" refX="4" refY="2" markerWidth="7" markerHeight="7" orient="auto-start-reverse">
            <polygon points="0,0 0,4 4,2 0,0"></polygon>
        </marker>
        <marker id="diamond" viewBox="-2 -2 8 8" refX="4" refY="2" markerWidth="7" markerHeight="7" orient="auto-start-reverse">
            <polygon points="0,2 2,0 4,2 2,4 0,2"></polygon>
        </marker>
        <marker id="circle" viewBox="0 0 8 8" refX="4" refY="4" markerWidth="7" markerHeight="7" orient="auto-start-reverse">
            <circle cx="4" cy="4" r="2" class="filled"></circle>
        </marker>
        <marker id="open_circle" viewBox="0 0 8 8" refX="4" refY="4" markerWidth="7" markerHeight="7" orient="auto-start-reverse">
            <circle cx="4" cy="4" r="2" class="bg_filled"></circle>
        </marker>
        <marker id="big_open_circle" viewBox="0 0 8 8" refX="4" refY="4" markerWidth="7" markerHeight="7" orient="auto-start-reverse">
            <circle cx="4" cy="4" r="3" class="bg_filled"></circle>
        </marker>
    </defs>
    <rect class="backdrop" x="0" y="0" width="480" height="176"></rect>
    <rect x="4" y="24" width="120" height="96" class="solid nofill" rx="0"></rect>
    <text x="18" y="44" >Task</text>
    <text x="58" y="44" >A</text>
    <text x="18" y="60" >IP:</text>
    <text x="50" y="60" >10.0.1.5</text>
    <text x="18" y="76" >ENI:</text>
    <text x="58" y="76" >eni</text>
    <line x1="80" y1="72" x2="88" y2="72" class="solid"></line>
    <text x="90" y="76" >aaa</text>
    <text x="18" y="108" >SG:</text>
    <text x="50" y="108" >sg</text>
    <line x1="64" y1="104" x2="72" y2="104" class="solid"></line>
    <text x="74" y="108" >app</text>
    <rect x="148" y="24" width="120" height="96" class="solid nofill" rx="0"></rect>
    <text x="162" y="44" >Task</text>
    <text x="202" y="44" >B</text>
    <text x="162" y="60" >IP:</text>
    <text x="194" y="60" >10.0.1.6</text>
    <text x="162" y="76" >ENI:</text>
    <text x="202" y="76" >eni</text>
    <line x1="224" y1="72" x2="232" y2="72" class="solid"></line>
    <text x="234" y="76" >bbb</text>
    <text x="162" y="108" >SG:</text>
    <text x="194" y="108" >sg</text>
    <line x1="208" y1="104" x2="216" y2="104" class="solid"></line>
    <text x="218" y="108" >app</text>
    <rect x="292" y="24" width="120" height="96" class="solid nofill" rx="0"></rect>
    <text x="306" y="44" >Task</text>
    <text x="346" y="44" >C</text>
    <text x="306" y="60" >IP:</text>
    <text x="338" y="60" >10.0.1.7</text>
    <text x="306" y="76" >ENI:</text>
    <text x="346" y="76" >eni</text>
    <line x1="368" y1="72" x2="376" y2="72" class="solid"></line>
    <text x="378" y="76" >ccc</text>
    <text x="306" y="108" >SG:</text>
    <text x="338" y="108" >sg</text>
    <line x1="352" y1="104" x2="360" y2="104" class="solid"></line>
    <text x="362" y="108" >app</text>
    <text x="2" y="12" >VPC</text>
    <text x="34" y="12" >Subnet:</text>
    <text x="98" y="12" >10.0.1.0</text>
    <line x1="168" y1="0" x2="160" y2="16" class="solid"></line>
    <text x="170" y="12" >24</text>
    <text x="2" y="156" >Each</text>
    <text x="42" y="156" >task</text>
    <text x="82" y="156" >has</text>
    <text x="114" y="156" >its</text>
    <text x="146" y="156" >own</text>
    <text x="178" y="156" >security</text>
    <text x="250" y="156" >group,</text>
    <text x="306" y="156" >like</text>
    <text x="346" y="156" >an</text>
    <text x="370" y="156" >EC2</text>
    <text x="402" y="156" >instance.</text>
</svg>