<svg xmlns="http://www.w3.org/2000/svg" width="400" height="448" style="background:#ffffff;border:1px solid #e5e5e5;border-radius:8px;max-width:100%;height:auto"><rect x="0" y="0" width="100%" height="100%" fill="#ffffff"/>
    <style>
        line, path, circle, rect, polygon{stroke:black;stroke-width:2;stroke-opacity:1;fill-opacity:1;stroke-linecap:round;stroke-linejoin:miter;}text{font-family:Iosevka Fixed, monospace;font-size:14px;}rect.backdrop{stroke:none;fill:transparent;}.broken{stroke-dasharray:8;}.filled{fill:black;}.bg_filled{fill:transparent;}.nofill{fill:transparent;}.end_marked_arrow{marker-end:url(#arrow);}.start_marked_arrow{marker-start:url(#arrow);}.end_marked_diamond{marker-end:url(#diamond);}.start_marked_diamond{marker-start:url(#diamond);}.end_marked_circle{marker-end:url(#circle);}.start_marked_circle{marker-start:url(#circle);}.end_marked_open_circle{marker-end:url(#open_circle);}.start_marked_open_circle{marker-start:url(#open_circle);}.end_marked_big_open_circle{marker-end:url(#big_open_circle);}.start_marked_big_open_circle{marker-start:url(#big_open_circle);}
        <!--separator-->
        
    </style>
    <defs>
        <marker id="arrow" viewBox="-2 -2 8 8" refX="4" refY="2" markerWidth="7" markerHeight="7" orient="auto-start-reverse">
            <polygon points="0,0 0,4 4,2 0,0"></polygon>
        </marker>
        <marker id="diamond" viewBox="-2 -2 8 8" refX="4" refY="2" markerWidth="7" markerHeight="7" orient="auto-start-reverse">
            <polygon points="0,2 2,0 4,2 2,4 0,2"></polygon>
        </marker>
        <marker id="circle" viewBox="0 0 8 8" refX="4" refY="4" markerWidth="7" markerHeight="7" orient="auto-start-reverse">
            <circle cx="4" cy="4" r="2" class="filled"></circle>
        </marker>
        <marker id="open_circle" viewBox="0 0 8 8" refX="4" refY="4" markerWidth="7" markerHeight="7" orient="auto-start-reverse">
            <circle cx="4" cy="4" r="2" class="bg_filled"></circle>
        </marker>
        <marker id="big_open_circle" viewBox="0 0 8 8" refX="4" refY="4" markerWidth="7" markerHeight="7" orient="auto-start-reverse">
            <circle cx="4" cy="4" r="3" class="bg_filled"></circle>
        </marker>
    </defs>
    <rect class="backdrop" x="0" y="0" width="400" height="448"></rect>
    <rect x="28" y="376" width="328" height="32" class="solid nofill" rx="0"></rect>
    <text x="122" y="396" >Shared</text>
    <text x="178" y="396" >Linux</text>
    <text x="226" y="396" >Kernel</text>
    <rect x="52" y="88" width="104" height="32" class="solid nofill" rx="0"></rect>
    <text x="66" y="108" >App</text>
    <text x="98" y="108" >Process</text>
    <rect x="228" y="88" width="104" height="32" class="solid nofill" rx="0"></rect>
    <text x="242" y="108" >App</text>
    <text x="274" y="108" >Process</text>
    <text x="146" y="28" >HOST</text>
    <text x="186" y="28" >OS</text>
    <path d="M 216,16 A 16,16 0,0,0 216,32" class="nofill"></path>
    <text x="218" y="28" >Linux</text>
    <path d="M 256,16 A 16,16 0,0,1 256,32" class="nofill"></path>
    <line x1="388" y1="16" x2="388" y2="32" class="solid"></line>
    <line x1="380" y1="32" x2="380" y2="64" class="solid"></line>
    <line x1="388" y1="64" x2="388" y2="336" class="solid"></line>
    <line x1="380" y1="336" x2="380" y2="368" class="solid"></line>
    <line x1="388" y1="368" x2="388" y2="416" class="solid"></line>
    <text x="50" y="76" >Container</text>
    <text x="130" y="76" >A</text>
    <line x1="180" y1="64" x2="180" y2="336" class="solid"></line>
    <text x="50" y="300" >Filesystem:</text>
    <line x1="48" y1="312" x2="56" y2="312" class="solid"></line>
    <text x="66" y="316" >Union</text>
    <text x="114" y="316" >FS</text>
    <path d="M 56,320 A 16,16 0,0,0 56,336" class="nofill"></path>
    <text x="58" y="332" >overlay2</text>
    <path d="M 120,320 A 16,16 0,0,1 120,336" class="nofill"></path>
    <line x1="204" y1="64" x2="204" y2="336" class="solid"></line>
    <text x="226" y="76" >Container</text>
    <text x="306" y="76" >B</text>
    <text x="226" y="300" >Filesystem:</text>
    <line x1="224" y1="312" x2="232" y2="312" class="solid"></line>
    <text x="242" y="316" >Union</text>
    <text x="290" y="316" >FS</text>
    <path d="M 232,320 A 16,16 0,0,0 232,336" class="nofill"></path>
    <text x="234" y="332" >overlay2</text>
    <path d="M 296,320 A 16,16 0,0,1 296,336" class="nofill"></path>
    <line x1="356" y1="64" x2="356" y2="336" class="solid"></line>
    <text x="50" y="156" >Namespace:</text>
    <line x1="48" y1="168" x2="56" y2="168" class="solid"></line>
    <text x="66" y="172" >Own</text>
    <text x="98" y="172" >PID</text>
    <text x="130" y="172" >tree</text>
    <line x1="48" y1="184" x2="56" y2="184" class="solid"></line>
    <text x="66" y="188" >Own</text>
    <text x="98" y="188" >network</text>
    <line x1="48" y1="200" x2="56" y2="200" class="solid"></line>
    <text x="66" y="204" >Own</text>
    <text x="98" y="204" >mounts</text>
    <text x="226" y="156" >Namespace:</text>
    <line x1="224" y1="168" x2="232" y2="168" class="solid"></line>
    <text x="242" y="172" >Own</text>
    <text x="274" y="172" >PID</text>
    <text x="306" y="172" >tree</text>
    <line x1="224" y1="184" x2="232" y2="184" class="solid"></line>
    <text x="242" y="188" >Own</text>
    <text x="274" y="188" >network</text>
    <line x1="224" y1="200" x2="232" y2="200" class="solid"></line>
    <text x="242" y="204" >Own</text>
    <text x="274" y="204" >mounts</text>
    <text x="50" y="236" >Cgroup:</text>
    <line x1="48" y1="248" x2="56" y2="248" class="solid"></line>
    <text x="66" y="252" >512MB</text>
    <text x="114" y="252" >RAM</text>
    <line x1="48" y1="264" x2="56" y2="264" class="solid"></line>
    <text x="66" y="268" >0.5</text>
    <text x="98" y="268" >CPU</text>
    <text x="226" y="236" >Cgroup:</text>
    <line x1="224" y1="248" x2="232" y2="248" class="solid"></line>
    <text x="242" y="252" >1GB</text>
    <text x="274" y="252" >RAM</text>
    <line x1="224" y1="264" x2="232" y2="264" class="solid"></line>
    <text x="242" y="268" >1.0</text>
    <text x="274" y="268" >CPU</text>
    <text x="146" y="252" >max</text>
    <text x="306" y="252" >max</text>
    <g>
        <line x1="4" y1="8" x2="380" y2="8" class="solid"></line>
        <line x1="4" y1="8" x2="4" y2="424" class="solid"></line>
        <line x1="380" y1="8" x2="380" y2="16" class="solid"></line>
        <line x1="4" y1="424" x2="380" y2="424" class="solid"></line>
        <line x1="380" y1="416" x2="380" y2="424" class="solid"></line>
    </g>
    <g>
        <line x1="28" y1="56" x2="172" y2="56" class="solid"></line>
        <line x1="28" y1="56" x2="28" y2="344" class="solid"></line>
        <line x1="172" y1="56" x2="172" y2="64" class="solid"></line>
        <line x1="28" y1="344" x2="172" y2="344" class="solid"></line>
        <line x1="172" y1="336" x2="172" y2="344" class="solid"></line>
    </g>
    <g>
        <line x1="196" y1="56" x2="340" y2="56" class="solid"></line>
        <line x1="196" y1="56" x2="196" y2="64" class="solid"></line>
        <line x1="340" y1="56" x2="340" y2="64" class="solid"></line>
    </g>
    <g>
        <line x1="196" y1="336" x2="196" y2="344" class="solid"></line>
        <line x1="196" y1="344" x2="340" y2="344" class="solid"></line>
        <line x1="340" y1="336" x2="340" y2="344" class="solid"></line>
    </g>
</svg>