<svg xmlns="http://www.w3.org/2000/svg" width="376" height="416" style="background:#ffffff;border:1px solid #e5e5e5;border-radius:8px;max-width:100%;height:auto"><rect x="0" y="0" width="100%" height="100%" fill="#ffffff"/>
    <style>
        line, path, circle, rect, polygon{stroke:black;stroke-width:2;stroke-opacity:1;fill-opacity:1;stroke-linecap:round;stroke-linejoin:miter;}text{font-family:Iosevka Fixed, monospace;font-size:14px;}rect.backdrop{stroke:none;fill:transparent;}.broken{stroke-dasharray:8;}.filled{fill:black;}.bg_filled{fill:transparent;}.nofill{fill:transparent;}.end_marked_arrow{marker-end:url(#arrow);}.start_marked_arrow{marker-start:url(#arrow);}.end_marked_diamond{marker-end:url(#diamond);}.start_marked_diamond{marker-start:url(#diamond);}.end_marked_circle{marker-end:url(#circle);}.start_marked_circle{marker-start:url(#circle);}.end_marked_open_circle{marker-end:url(#open_circle);}.start_marked_open_circle{marker-start:url(#open_circle);}.end_marked_big_open_circle{marker-end:url(#big_open_circle);}.start_marked_big_open_circle{marker-start:url(#big_open_circle);}
        <!--separator-->
        
    </style>
    <defs>
        <marker id="arrow" viewBox="-2 -2 8 8" refX="4" refY="2" markerWidth="7" markerHeight="7" orient="auto-start-reverse">
            <polygon points="0,0 0,4 4,2 0,0"></polygon>
        </marker>
        <marker id="diamond" viewBox="-2 -2 8 8" refX="4" refY="2" markerWidth="7" markerHeight="7" orient="auto-start-reverse">
            <polygon points="0,2 2,0 4,2 2,4 0,2"></polygon>
        </marker>
        <marker id="circle" viewBox="0 0 8 8" refX="4" refY="4" markerWidth="7" markerHeight="7" orient="auto-start-reverse">
            <circle cx="4" cy="4" r="2" class="filled"></circle>
        </marker>
        <marker id="open_circle" viewBox="0 0 8 8" refX="4" refY="4" markerWidth="7" markerHeight="7" orient="auto-start-reverse">
            <circle cx="4" cy="4" r="2" class="bg_filled"></circle>
        </marker>
        <marker id="big_open_circle" viewBox="0 0 8 8" refX="4" refY="4" markerWidth="7" markerHeight="7" orient="auto-start-reverse">
            <circle cx="4" cy="4" r="3" class="bg_filled"></circle>
        </marker>
    </defs>
    <rect class="backdrop" x="0" y="0" width="376" height="416"></rect>
    <rect x="20" y="56" width="120" height="64" class="solid nofill" rx="0"></rect>
    <text x="34" y="76" >Customer</text>
    <text x="34" y="92" >Master</text>
    <text x="90" y="92" >Key</text>
    <path d="M 40,96 A 16,16 0,0,0 40,112" class="nofill"></path>
    <text x="42" y="108" >CMK</text>
    <path d="M 64,96 A 16,16 0,0,1 64,112" class="nofill"></path>
    <rect x="92" y="344" width="152" height="48" class="solid nofill" rx="0"></rect>
    <text x="106" y="364" >Encrypted</text>
    <text x="186" y="364" >Data</text>
    <path d="M 112,368 A 16,16 0,0,0 112,384" class="nofill"></path>
    <text x="114" y="380" >S3,</text>
    <text x="146" y="380" >EBS,</text>
    <text x="186" y="380" >RDS</text>
    <path d="M 208,368 A 16,16 0,0,1 208,384" class="nofill"></path>
    <text x="2" y="12" >Envelope</text>
    <text x="74" y="12" >Encryption:</text>
    <text x="18" y="44" >KMS</text>
    <text x="106" y="204" >Encrypted</text>
    <text x="186" y="204" >Data</text>
    <text x="106" y="220" >Key</text>
    <path d="M 144,208 A 16,16 0,0,0 144,224" class="nofill"></path>
    <text x="146" y="220" >stored</text>
    <text x="202" y="220" >with</text>
    <text x="106" y="236" >the</text>
    <text x="138" y="236" >data</text>
    <path d="M 168,224 A 16,16 0,0,1 168,240" class="nofill"></path>
    <text x="178" y="268" >Data</text>
    <text x="218" y="268" >Key</text>
    <path d="M 256,256 A 16,16 0,0,0 256,272" class="nofill"></path>
    <text x="258" y="268" >plaintext</text>
    <path d="M 328,256 A 16,16 0,0,1 328,272" class="nofill"></path>
    <text x="178" y="284" >used</text>
    <text x="218" y="284" >to</text>
    <text x="242" y="284" >encrypt</text>
    <text x="306" y="284" >data,</text>
    <text x="178" y="300" >then</text>
    <text x="218" y="300" >discarded</text>
    <text x="298" y="300" >from</text>
    <text x="178" y="316" >memory</text>
    <text x="178" y="76" >Encrypts</text>
    <text x="250" y="76" >Data</text>
    <path d="M 184,80 A 16,16 0,0,0 184,96" class="nofill"></path>
    <text x="186" y="92" >never</text>
    <text x="234" y="92" >leaves</text>
    <text x="290" y="76" >Key</text>
    <text x="290" y="92" >KMS</text>
    <path d="M 312,80 A 16,16 0,0,1 312,96" class="nofill"></path>
    <g>
        <line x1="4" y1="24" x2="364" y2="24" class="solid"></line>
        <line x1="4" y1="24" x2="4" y2="136" class="solid"></line>
        <line x1="364" y1="24" x2="364" y2="136" class="solid"></line>
        <line x1="4" y1="136" x2="364" y2="136" class="solid"></line>
        <line x1="172" y1="136" x2="172" y2="164" class="solid"></line>
        <polygon points="168,164 176,164 172,176" class="filled"></polygon>
    </g>
    <g>
        <line x1="144" y1="72" x2="160" y2="72" class="solid"></line>
        <polygon points="160,68 168,72 160,76" class="filled"></polygon>
    </g>
    <g>
        <line x1="92" y1="184" x2="244" y2="184" class="solid"></line>
        <line x1="92" y1="184" x2="92" y2="248" class="solid"></line>
        <line x1="244" y1="184" x2="244" y2="248" class="solid"></line>
        <line x1="92" y1="248" x2="244" y2="248" class="solid"></line>
        <line x1="164" y1="248" x2="164" y2="324" class="solid"></line>
        <polygon points="160,324 168,324 164,336" class="filled"></polygon>
    </g>
</svg>