<svg xmlns="http://www.w3.org/2000/svg" width="528" height="368" style="background:#ffffff;border:1px solid #e5e5e5;border-radius:8px;max-width:100%;height:auto"><rect x="0" y="0" width="100%" height="100%" fill="#ffffff"/>
    <style>
        line, path, circle, rect, polygon{stroke:black;stroke-width:2;stroke-opacity:1;fill-opacity:1;stroke-linecap:round;stroke-linejoin:miter;}text{font-family:Iosevka Fixed, monospace;font-size:14px;}rect.backdrop{stroke:none;fill:transparent;}.broken{stroke-dasharray:8;}.filled{fill:black;}.bg_filled{fill:transparent;}.nofill{fill:transparent;}.end_marked_arrow{marker-end:url(#arrow);}.start_marked_arrow{marker-start:url(#arrow);}.end_marked_diamond{marker-end:url(#diamond);}.start_marked_diamond{marker-start:url(#diamond);}.end_marked_circle{marker-end:url(#circle);}.start_marked_circle{marker-start:url(#circle);}.end_marked_open_circle{marker-end:url(#open_circle);}.start_marked_open_circle{marker-start:url(#open_circle);}.end_marked_big_open_circle{marker-end:url(#big_open_circle);}.start_marked_big_open_circle{marker-start:url(#big_open_circle);}
        <!--separator-->
        
    </style>
    <defs>
        <marker id="arrow" viewBox="-2 -2 8 8" refX="4" refY="2" markerWidth="7" markerHeight="7" orient="auto-start-reverse">
            <polygon points="0,0 0,4 4,2 0,0"></polygon>
        </marker>
        <marker id="diamond" viewBox="-2 -2 8 8" refX="4" refY="2" markerWidth="7" markerHeight="7" orient="auto-start-reverse">
            <polygon points="0,2 2,0 4,2 2,4 0,2"></polygon>
        </marker>
        <marker id="circle" viewBox="0 0 8 8" refX="4" refY="4" markerWidth="7" markerHeight="7" orient="auto-start-reverse">
            <circle cx="4" cy="4" r="2" class="filled"></circle>
        </marker>
        <marker id="open_circle" viewBox="0 0 8 8" refX="4" refY="4" markerWidth="7" markerHeight="7" orient="auto-start-reverse">
            <circle cx="4" cy="4" r="2" class="bg_filled"></circle>
        </marker>
        <marker id="big_open_circle" viewBox="0 0 8 8" refX="4" refY="4" markerWidth="7" markerHeight="7" orient="auto-start-reverse">
            <circle cx="4" cy="4" r="3" class="bg_filled"></circle>
        </marker>
    </defs>
    <rect class="backdrop" x="0" y="0" width="528" height="368"></rect>
    <text x="170" y="28" >YOUR</text>
    <text x="210" y="28" >RESPONSIBILITY</text>
    <text x="50" y="60" >Customer</text>
    <text x="122" y="60" >Data</text>
    <text x="50" y="92" >Platform,</text>
    <text x="130" y="92" >Applications,</text>
    <text x="242" y="92" >IAM</text>
    <text x="50" y="124" >Operating</text>
    <text x="130" y="124" >System,</text>
    <text x="194" y="124" >Network,</text>
    <text x="266" y="124" >Firewall</text>
    <text x="338" y="124" >Configuration</text>
    <text x="50" y="156" >Client</text>
    <line x1="96" y1="152" x2="104" y2="152" class="solid"></line>
    <text x="106" y="156" >Side</text>
    <text x="146" y="156" >Encryption</text>
    <text x="258" y="156" >Server</text>
    <line x1="304" y1="152" x2="312" y2="152" class="solid"></line>
    <text x="314" y="156" >Side</text>
    <text x="354" y="156" >Encryption</text>
    <text x="50" y="172" >Network</text>
    <text x="114" y="172" >Traffic</text>
    <text x="178" y="172" >Protection</text>
    <text x="274" y="172" >Data</text>
    <text x="314" y="172" >Integrity</text>
    <text x="394" y="172" >Auth</text>
    <text x="170" y="220" >AWS</text>
    <text x="202" y="220" >RESPONSIBILITY</text>
    <text x="50" y="252" >Compute</text>
    <text x="138" y="252" >Storage</text>
    <text x="226" y="252" >Database</text>
    <text x="322" y="252" >Networking</text>
    <line x1="492" y1="240" x2="492" y2="256" class="solid"></line>
    <line x1="516" y1="240" x2="516" y2="256" class="solid"></line>
    <line x1="508" y1="256" x2="508" y2="304" class="solid"></line>
    <text x="50" y="284" >Hardware</text>
    <line x1="128" y1="272" x2="120" y2="288" class="solid"></line>
    <text x="138" y="284" >AWS</text>
    <text x="170" y="284" >Global</text>
    <text x="226" y="284" >Infrastructure</text>
    <text x="50" y="316" >Regions</text>
    <text x="138" y="316" >Availability</text>
    <text x="242" y="316" >Zones</text>
    <text x="314" y="316" >Edge</text>
    <text x="354" y="316" >Locations</text>
    <line x1="492" y1="304" x2="492" y2="320" class="solid"></line>
    <line x1="516" y1="304" x2="516" y2="320" class="solid"></line>
    <g>
        <line x1="4" y1="8" x2="508" y2="8" class="solid"></line>
        <line x1="4" y1="8" x2="4" y2="344" class="solid"></line>
        <line x1="508" y1="8" x2="508" y2="240" class="solid"></line>
        <line x1="4" y1="200" x2="508" y2="200" class="solid"></line>
        <line x1="508" y1="320" x2="508" y2="344" class="solid"></line>
        <line x1="4" y1="344" x2="508" y2="344" class="solid"></line>
    </g>
    <g>
        <line x1="28" y1="40" x2="484" y2="40" class="solid"></line>
        <line x1="28" y1="40" x2="28" y2="184" class="solid"></line>
        <line x1="484" y1="40" x2="484" y2="184" class="solid"></line>
        <line x1="28" y1="72" x2="484" y2="72" class="solid"></line>
        <line x1="28" y1="104" x2="484" y2="104" class="solid"></line>
        <line x1="28" y1="136" x2="484" y2="136" class="solid"></line>
        <line x1="28" y1="184" x2="484" y2="184" class="solid"></line>
    </g>
    <g>
        <line x1="28" y1="232" x2="484" y2="232" class="solid"></line>
        <line x1="28" y1="232" x2="28" y2="328" class="solid"></line>
        <line x1="484" y1="232" x2="484" y2="240" class="solid"></line>
        <line x1="28" y1="264" x2="484" y2="264" class="solid"></line>
        <line x1="484" y1="256" x2="484" y2="304" class="solid"></line>
        <line x1="28" y1="296" x2="484" y2="296" class="solid"></line>
        <line x1="28" y1="328" x2="484" y2="328" class="solid"></line>
        <line x1="484" y1="320" x2="484" y2="328" class="solid"></line>
    </g>
</svg>