<svg xmlns="http://www.w3.org/2000/svg" width="576" height="448" style="background:#ffffff;border:1px solid #e5e5e5;border-radius:8px;max-width:100%;height:auto"><rect x="0" y="0" width="100%" height="100%" fill="#ffffff"/>
    <style>
        line, path, circle, rect, polygon{stroke:black;stroke-width:2;stroke-opacity:1;fill-opacity:1;stroke-linecap:round;stroke-linejoin:miter;}text{font-family:Iosevka Fixed, monospace;font-size:14px;}rect.backdrop{stroke:none;fill:transparent;}.broken{stroke-dasharray:8;}.filled{fill:black;}.bg_filled{fill:transparent;}.nofill{fill:transparent;}.end_marked_arrow{marker-end:url(#arrow);}.start_marked_arrow{marker-start:url(#arrow);}.end_marked_diamond{marker-end:url(#diamond);}.start_marked_diamond{marker-start:url(#diamond);}.end_marked_circle{marker-end:url(#circle);}.start_marked_circle{marker-start:url(#circle);}.end_marked_open_circle{marker-end:url(#open_circle);}.start_marked_open_circle{marker-start:url(#open_circle);}.end_marked_big_open_circle{marker-end:url(#big_open_circle);}.start_marked_big_open_circle{marker-start:url(#big_open_circle);}
        <!--separator-->
        
    </style>
    <defs>
        <marker id="arrow" viewBox="-2 -2 8 8" refX="4" refY="2" markerWidth="7" markerHeight="7" orient="auto-start-reverse">
            <polygon points="0,0 0,4 4,2 0,0"></polygon>
        </marker>
        <marker id="diamond" viewBox="-2 -2 8 8" refX="4" refY="2" markerWidth="7" markerHeight="7" orient="auto-start-reverse">
            <polygon points="0,2 2,0 4,2 2,4 0,2"></polygon>
        </marker>
        <marker id="circle" viewBox="0 0 8 8" refX="4" refY="4" markerWidth="7" markerHeight="7" orient="auto-start-reverse">
            <circle cx="4" cy="4" r="2" class="filled"></circle>
        </marker>
        <marker id="open_circle" viewBox="0 0 8 8" refX="4" refY="4" markerWidth="7" markerHeight="7" orient="auto-start-reverse">
            <circle cx="4" cy="4" r="2" class="bg_filled"></circle>
        </marker>
        <marker id="big_open_circle" viewBox="0 0 8 8" refX="4" refY="4" markerWidth="7" markerHeight="7" orient="auto-start-reverse">
            <circle cx="4" cy="4" r="3" class="bg_filled"></circle>
        </marker>
    </defs>
    <rect class="backdrop" x="0" y="0" width="576" height="448"></rect>
    <rect x="20" y="280" width="120" height="48" class="solid nofill" rx="0"></rect>
    <text x="34" y="300" >CW</text>
    <text x="58" y="300" >Synthetics</text>
    <path d="M 40,304 A 16,16 0,0,0 40,320" class="nofill"></path>
    <text x="42" y="316" >canaries</text>
    <path d="M 104,304 A 16,16 0,0,1 104,320" class="nofill"></path>
    <rect x="20" y="344" width="120" height="48" class="solid nofill" rx="0"></rect>
    <text x="34" y="364" >CW</text>
    <text x="58" y="364" >RUM</text>
    <path d="M 40,368 A 16,16 0,0,0 40,384" class="nofill"></path>
    <text x="42" y="380" >browser</text>
    <path d="M 96,368 A 16,16 0,0,1 96,384" class="nofill"></path>
    <text x="194" y="12" >OBSERVABILITY</text>
    <text x="306" y="12" >PIPELINE</text>
    <path d="M 384,0 A 16,16 0,0,0 384,16" class="nofill"></path>
    <text x="386" y="12" >AWS</text>
    <line x1="408" y1="8" x2="416" y2="8" class="solid"></line>
    <text x="418" y="12" >NATIVE</text>
    <path d="M 464,0 A 16,16 0,0,1 464,16" class="nofill"></path>
    <text x="34" y="60" >App</text>
    <text x="162" y="60" >ADOT</text>
    <text x="370" y="60" >BACKENDS</text>
    <text x="34" y="76" >Ser</text>
    <text x="66" y="76" >ice</text>
    <text x="162" y="76" >Collector</text>
    <path d="M 168,80 A 16,16 0,0,0 168,96" class="nofill"></path>
    <text x="170" y="92" >sidecar</text>
    <line x1="240" y1="80" x2="232" y2="96" class="solid"></line>
    <text x="170" y="108" >DaemonSet</text>
    <path d="M 240,96 A 16,16 0,0,1 240,112" class="nofill"></path>
    <line x1="564" y1="112" x2="564" y2="160" class="solid"></line>
    <text x="34" y="172" >Emits:</text>
    <line x1="556" y1="160" x2="556" y2="192" class="solid"></line>
    <text x="42" y="188" >traces</text>
    <text x="42" y="204" >metrics</text>
    <line x1="564" y1="192" x2="564" y2="256" class="solid"></line>
    <text x="42" y="220" >logs</text>
    <text x="162" y="220" >Exp</text>
    <circle cx="188" cy="216" r="3" class="nofill"></circle>
    <text x="194" y="220" >rts</text>
    <text x="226" y="220" >to:</text>
    <text x="170" y="236" >CW</text>
    <line x1="196" y1="232" x2="208" y2="232" class="solid"></line>
    <text x="210" y="236" >Ray</text>
    <line x1="556" y1="256" x2="556" y2="288" class="solid"></line>
    <line x1="332" y1="280" x2="344" y2="280" class="solid"></line>
    <text x="346" y="284" >Ray</text>
    <text x="378" y="284" >Traces</text>
    <text x="378" y="300" >Service</text>
    <text x="442" y="300" >Map</text>
    <line x1="564" y1="288" x2="564" y2="320" class="solid"></line>
    <text x="378" y="316" >Trace</text>
    <text x="426" y="316" >Analytics</text>
    <text x="322" y="364" >EventBridge</text>
    <text x="330" y="380" >&gt;</text>
    <text x="346" y="380" >Step</text>
    <text x="386" y="380" >Functions</text>
    <path d="M 472,368 A 16,16 0,0,0 472,384" class="nofill"></path>
    <text x="474" y="380" >remediate</text>
    <path d="M 544,368 A 16,16 0,0,1 544,384" class="nofill"></path>
    <text x="330" y="396" >&gt;</text>
    <text x="346" y="396" >Lambda</text>
    <path d="M 408,384 A 16,16 0,0,0 408,400" class="nofill"></path>
    <text x="410" y="396" >custom</text>
    <text x="466" y="396" >action</text>
    <path d="M 512,384 A 16,16 0,0,1 512,400" class="nofill"></path>
    <text x="330" y="412" >&gt;</text>
    <text x="346" y="412" >SNS</text>
    <path d="M 384,400 A 16,16 0,0,0 384,416" class="nofill"></path>
    <text x="386" y="412" >notify</text>
    <path d="M 432,400 A 16,16 0,0,1 432,416" class="nofill"></path>
    <line x1="548" y1="400" x2="548" y2="416" class="solid"></line>
    <text x="330" y="92" >Cl</text>
    <circle cx="348" cy="88" r="3" class="nofill"></circle>
    <text x="354" y="92" >udWatch</text>
    <text x="418" y="92" >Metrics</text>
    <text x="378" y="108" >Dashboards</text>
    <text x="378" y="124" >Alarms</text>
    <text x="466" y="124" >SNS</text>
    <text x="418" y="140" >PagerDuty</text>
    <text x="418" y="156" >Slack</text>
    <text x="378" y="172" >Anomaly</text>
    <text x="442" y="172" >Detection</text>
    <text x="34" y="108" >ECS</text>
    <line x1="64" y1="96" x2="56" y2="112" class="solid"></line>
    <text x="66" y="108" >EKS</text>
    <line x1="96" y1="96" x2="80" y2="128" class="solid"></line>
    <text x="34" y="124" >Lambda</text>
    <text x="34" y="140" >EC2</text>
    <text x="162" y="140" >Receives:</text>
    <text x="170" y="156" >OTLP</text>
    <text x="210" y="156" >gRPC</text>
    <text x="170" y="172" >OTLP</text>
    <text x="210" y="172" >HTTP</text>
    <text x="170" y="188" >Prometheus</text>
    <text x="330" y="204" >Cl</text>
    <circle cx="348" cy="200" r="3" class="nofill"></circle>
    <text x="354" y="204" >udWatch</text>
    <text x="418" y="204" >Logs</text>
    <text x="378" y="220" >Logs</text>
    <text x="418" y="220" >Insights</text>
    <text x="378" y="236" >Metric</text>
    <text x="434" y="236" >Filters</text>
    <text x="378" y="252" >Sub.</text>
    <text x="418" y="252" >Filters</text>
    <text x="482" y="252" >&gt;</text>
    <text x="498" y="252" >S3</text>
    <line x1="144" y1="296" x2="160" y2="296" class="solid"></line>
    <text x="162" y="300" >metrics</text>
    <text x="178" y="364" >Real</text>
    <text x="178" y="380" >perf</text>
    <text x="218" y="364" >user</text>
    <text x="218" y="380" >data</text>
    <g>
        <line x1="20" y1="40" x2="108" y2="40" class="solid"></line>
        <line x1="20" y1="40" x2="20" y2="232" class="solid"></line>
        <line x1="108" y1="40" x2="108" y2="232" class="solid"></line>
        <line x1="108" y1="88" x2="136" y2="88" class="solid"></line>
        <polygon points="136,84 144,88 136,92" class="filled"></polygon>
        <line x1="20" y1="232" x2="108" y2="232" class="solid"></line>
    </g>
    <g>
        <line x1="148" y1="40" x2="268" y2="40" class="solid"></line>
        <line x1="148" y1="40" x2="148" y2="248" class="solid"></line>
        <line x1="268" y1="40" x2="268" y2="248" class="solid"></line>
        <line x1="268" y1="88" x2="296" y2="88" class="solid"></line>
        <polygon points="296,84 304,88 296,92" class="filled"></polygon>
        <line x1="148" y1="248" x2="268" y2="248" class="solid"></line>
    </g>
    <g>
        <line x1="308" y1="40" x2="556" y2="40" class="solid"></line>
        <line x1="308" y1="40" x2="308" y2="328" class="solid"></line>
        <line x1="556" y1="40" x2="556" y2="112" class="solid"></line>
        <line x1="308" y1="328" x2="556" y2="328" class="solid"></line>
        <line x1="556" y1="320" x2="556" y2="328" class="solid"></line>
    </g>
    <g>
        <line x1="72" y1="48" x2="62" y2="68" class="solid"></line>
        <polygon points="65,68 58,76 58,65" class="filled"></polygon>
    </g>
    <g>
        <line x1="190" y1="220" x2="192" y2="224" class="solid"></line>
        <line x1="192" y1="224" x2="184" y2="240" class="solid"></line>
    </g>
    <g>
        <line x1="348" y1="288" x2="348" y2="312" class="solid"></line>
        <line x1="348" y1="296" x2="368" y2="296" class="solid"></line>
        <line x1="348" y1="312" x2="368" y2="312" class="solid"></line>
    </g>
    <g>
        <line x1="308" y1="344" x2="556" y2="344" class="solid"></line>
        <line x1="308" y1="344" x2="308" y2="424" class="solid"></line>
        <line x1="556" y1="344" x2="556" y2="400" class="solid"></line>
        <line x1="308" y1="424" x2="556" y2="424" class="solid"></line>
        <line x1="556" y1="416" x2="556" y2="424" class="solid"></line>
    </g>
    <g>
        <line x1="348" y1="92" x2="348" y2="168" class="solid"></line>
        <line x1="348" y1="104" x2="368" y2="104" class="solid"></line>
        <line x1="348" y1="120" x2="368" y2="120" class="solid"></line>
        <line x1="348" y1="168" x2="368" y2="168" class="solid"></line>
    </g>
    <g>
        <line x1="432" y1="120" x2="448" y2="120" class="solid"></line>
        <polygon points="448,116 456,120 448,124" class="filled"></polygon>
    </g>
    <g>
        <line x1="388" y1="128" x2="388" y2="152" class="solid"></line>
        <line x1="388" y1="136" x2="408" y2="136" class="solid"></line>
        <line x1="388" y1="152" x2="408" y2="152" class="solid"></line>
    </g>
    <g>
        <line x1="348" y1="204" x2="348" y2="248" class="solid"></line>
        <line x1="348" y1="216" x2="368" y2="216" class="solid"></line>
        <line x1="348" y1="232" x2="368" y2="232" class="solid"></line>
        <line x1="348" y1="248" x2="368" y2="248" class="solid"></line>
    </g>
    <g>
        <line x1="216" y1="296" x2="232" y2="296" class="solid"></line>
        <polygon points="232,292 240,296 232,300" class="filled"></polygon>
    </g>
    <g>
        <line x1="144" y1="360" x2="160" y2="360" class="solid"></line>
        <polygon points="160,356 168,360 160,364" class="filled"></polygon>
    </g>
</svg>