<svg xmlns="http://www.w3.org/2000/svg" width="408" height="496" style="background:#ffffff;border:1px solid #e5e5e5;border-radius:8px;max-width:100%;height:auto"><rect x="0" y="0" width="100%" height="100%" fill="#ffffff"/>
    <style>
        line, path, circle, rect, polygon{stroke:black;stroke-width:2;stroke-opacity:1;fill-opacity:1;stroke-linecap:round;stroke-linejoin:miter;}text{font-family:Iosevka Fixed, monospace;font-size:14px;}rect.backdrop{stroke:none;fill:transparent;}.broken{stroke-dasharray:8;}.filled{fill:black;}.bg_filled{fill:transparent;}.nofill{fill:transparent;}.end_marked_arrow{marker-end:url(#arrow);}.start_marked_arrow{marker-start:url(#arrow);}.end_marked_diamond{marker-end:url(#diamond);}.start_marked_diamond{marker-start:url(#diamond);}.end_marked_circle{marker-end:url(#circle);}.start_marked_circle{marker-start:url(#circle);}.end_marked_open_circle{marker-end:url(#open_circle);}.start_marked_open_circle{marker-start:url(#open_circle);}.end_marked_big_open_circle{marker-end:url(#big_open_circle);}.start_marked_big_open_circle{marker-start:url(#big_open_circle);}
        <!--separator-->
        
    </style>
    <defs>
        <marker id="arrow" viewBox="-2 -2 8 8" refX="4" refY="2" markerWidth="7" markerHeight="7" orient="auto-start-reverse">
            <polygon points="0,0 0,4 4,2 0,0"></polygon>
        </marker>
        <marker id="diamond" viewBox="-2 -2 8 8" refX="4" refY="2" markerWidth="7" markerHeight="7" orient="auto-start-reverse">
            <polygon points="0,2 2,0 4,2 2,4 0,2"></polygon>
        </marker>
        <marker id="circle" viewBox="0 0 8 8" refX="4" refY="4" markerWidth="7" markerHeight="7" orient="auto-start-reverse">
            <circle cx="4" cy="4" r="2" class="filled"></circle>
        </marker>
        <marker id="open_circle" viewBox="0 0 8 8" refX="4" refY="4" markerWidth="7" markerHeight="7" orient="auto-start-reverse">
            <circle cx="4" cy="4" r="2" class="bg_filled"></circle>
        </marker>
        <marker id="big_open_circle" viewBox="0 0 8 8" refX="4" refY="4" markerWidth="7" markerHeight="7" orient="auto-start-reverse">
            <circle cx="4" cy="4" r="3" class="bg_filled"></circle>
        </marker>
    </defs>
    <rect class="backdrop" x="0" y="0" width="408" height="496"></rect>
    <text x="130" y="28" >Ring</text>
    <text x="170" y="28" >3</text>
    <path d="M 192,16 A 16,16 0,0,0 192,32" class="nofill"></path>
    <text x="194" y="28" >User</text>
    <text x="234" y="28" >Space</text>
    <path d="M 272,16 A 16,16 0,0,1 272,32" class="nofill"></path>
    <line x1="388" y1="16" x2="388" y2="176" class="solid"></line>
    <text x="146" y="60" >calls</text>
    <text x="194" y="60" >write</text>
    <path d="M 240,48 A 16,16 0,0,0 240,64" class="nofill"></path>
    <text x="242" y="60" >fd,</text>
    <text x="66" y="108" >library</text>
    <text x="138" y="108" >glibc</text>
    <path d="M 176,96 A 16,16 0,0,1 176,112" class="nofill"></path>
    <text x="194" y="108" >prepares</text>
    <text x="266" y="108" >registers:</text>
    <text x="66" y="124" >RAX</text>
    <line x1="96" y1="118" x2="104" y2="118" class="solid"></line>
    <line x1="96" y1="122" x2="104" y2="122" class="solid"></line>
    <text x="114" y="124" >1</text>
    <text x="138" y="124" >write</text>
    <text x="186" y="124" >syscall</text>
    <text x="250" y="124" >number</text>
    <path d="M 296,112 A 16,16 0,0,1 296,128" class="nofill"></path>
    <text x="66" y="140" >RDI</text>
    <line x1="96" y1="134" x2="104" y2="134" class="solid"></line>
    <line x1="96" y1="138" x2="104" y2="138" class="solid"></line>
    <text x="114" y="140" >fd,</text>
    <text x="146" y="140" >RSI</text>
    <line x1="176" y1="134" x2="184" y2="134" class="solid"></line>
    <line x1="176" y1="138" x2="184" y2="138" class="solid"></line>
    <text x="194" y="140" >buf,</text>
    <text x="234" y="140" >RDX</text>
    <line x1="264" y1="134" x2="272" y2="134" class="solid"></line>
    <line x1="264" y1="138" x2="272" y2="138" class="solid"></line>
    <text x="282" y="140" >len</text>
    <text x="114" y="188" >SYSCALL</text>
    <text x="178" y="188" >instruction</text>
    <line x1="396" y1="176" x2="396" y2="192" class="solid"></line>
    <line x1="24" y1="200" x2="368" y2="200" class="solid"></line>
    <line x1="24" y1="204" x2="368" y2="204" class="solid"></line>
    <line x1="388" y1="192" x2="388" y2="464" class="solid"></line>
    <text x="130" y="220" >Ring</text>
    <text x="170" y="220" >0</text>
    <text x="186" y="220" >(Kernel</text>
    <text x="250" y="220" >Space</text>
    <path d="M 288,208 A 16,16 0,0,1 288,224" class="nofill"></path>
    <text x="114" y="268" >syscall</text>
    <text x="178" y="268" >handler</text>
    <path d="M 248,256 A 16,16 0,0,0 248,272" class="nofill"></path>
    <text x="250" y="268" >entry</text>
    <line x1="288" y1="272" x2="296" y2="272" class="solid"></line>
    <text x="298" y="268" >64.S</text>
    <path d="M 328,256 A 16,16 0,0,1 328,272" class="nofill"></path>
    <text x="114" y="284" >dispatches</text>
    <text x="202" y="284" >to</text>
    <text x="226" y="284" >sys</text>
    <line x1="248" y1="288" x2="256" y2="288" class="solid"></line>
    <text x="258" y="284" >write</text>
    <text x="154" y="332" >filesystem</text>
    <text x="106" y="380" >Return</text>
    <text x="162" y="380" >value</text>
    <text x="210" y="380" >placed</text>
    <text x="266" y="380" >in</text>
    <text x="290" y="380" >RAX</text>
    <line x1="24" y1="392" x2="368" y2="392" class="solid"></line>
    <line x1="24" y1="396" x2="368" y2="396" class="solid"></line>
    <text x="130" y="412" >Ring</text>
    <text x="170" y="412" >3</text>
    <text x="186" y="412" >(User</text>
    <text x="234" y="412" >Space</text>
    <path d="M 272,400 A 16,16 0,0,1 272,416" class="nofill"></path>
    <text x="58" y="460" >Application</text>
    <text x="154" y="460" >receives</text>
    <text x="226" y="460" >return</text>
    <text x="282" y="460" >code</text>
    <text x="50" y="60" >Application</text>
    <text x="274" y="60" >buf,</text>
    <text x="314" y="60" >len</text>
    <path d="M 336,48 A 16,16 0,0,1 336,64" class="nofill"></path>
    <text x="50" y="108" >C</text>
    <text x="58" y="268" >Kernel</text>
    <text x="58" y="332" >VFS</text>
    <text x="90" y="332" >layer</text>
    <text x="138" y="332" >→</text>
    <text x="242" y="332" >driver</text>
    <text x="298" y="332" >→</text>
    <text x="314" y="332" >disk</text>
    <g>
        <line x1="12" y1="8" x2="380" y2="8" class="solid"></line>
        <line x1="12" y1="8" x2="12" y2="472" class="solid"></line>
        <line x1="380" y1="8" x2="380" y2="16" class="solid"></line>
        <line x1="12" y1="472" x2="380" y2="472" class="solid"></line>
        <line x1="380" y1="464" x2="380" y2="472" class="solid"></line>
    </g>
    <g>
        <line x1="188" y1="64" x2="188" y2="84" class="solid"></line>
        <polygon points="184,84 192,84 188,96" class="filled"></polygon>
    </g>
    <g>
        <path d="M 136,96 A 16,16 0,0,0 136,112" class="nofill"></path>
        <path d="M 136,112 A 16,16 0,0,0 136,128" class="nofill"></path>
    </g>
    <g>
        <line x1="188" y1="144" x2="188" y2="164" class="solid"></line>
        <polygon points="184,164 192,164 188,176" class="filled"></polygon>
    </g>
    <g>
        <line x1="188" y1="224" x2="188" y2="244" class="solid"></line>
        <polygon points="184,244 192,244 188,256" class="filled"></polygon>
    </g>
    <g>
        <path d="M 304,272 A 16,16 0,0,0 304,288" class="nofill"></path>
        <path d="M 304,272 A 16,16 0,0,1 304,288" class="nofill"></path>
    </g>
    <g>
        <line x1="188" y1="288" x2="188" y2="308" class="solid"></line>
        <polygon points="184,308 192,308 188,320" class="filled"></polygon>
    </g>
    <g>
        <line x1="188" y1="336" x2="188" y2="356" class="solid"></line>
        <polygon points="184,356 192,356 188,368" class="filled"></polygon>
    </g>
    <g>
        <line x1="188" y1="416" x2="188" y2="436" class="solid"></line>
        <polygon points="184,436 192,436 188,448" class="filled"></polygon>
    </g>
</svg>