<svg xmlns="http://www.w3.org/2000/svg" width="520" height="320" style="background:#ffffff;border:1px solid #e5e5e5;border-radius:8px;max-width:100%;height:auto"><rect x="0" y="0" width="100%" height="100%" fill="#ffffff"/>
    <style>
        line, path, circle, rect, polygon{stroke:black;stroke-width:2;stroke-opacity:1;fill-opacity:1;stroke-linecap:round;stroke-linejoin:miter;}text{font-family:Iosevka Fixed, monospace;font-size:14px;}rect.backdrop{stroke:none;fill:transparent;}.broken{stroke-dasharray:8;}.filled{fill:black;}.bg_filled{fill:transparent;}.nofill{fill:transparent;}.end_marked_arrow{marker-end:url(#arrow);}.start_marked_arrow{marker-start:url(#arrow);}.end_marked_diamond{marker-end:url(#diamond);}.start_marked_diamond{marker-start:url(#diamond);}.end_marked_circle{marker-end:url(#circle);}.start_marked_circle{marker-start:url(#circle);}.end_marked_open_circle{marker-end:url(#open_circle);}.start_marked_open_circle{marker-start:url(#open_circle);}.end_marked_big_open_circle{marker-end:url(#big_open_circle);}.start_marked_big_open_circle{marker-start:url(#big_open_circle);}
        <!--separator-->
        
    </style>
    <defs>
        <marker id="arrow" viewBox="-2 -2 8 8" refX="4" refY="2" markerWidth="7" markerHeight="7" orient="auto-start-reverse">
            <polygon points="0,0 0,4 4,2 0,0"></polygon>
        </marker>
        <marker id="diamond" viewBox="-2 -2 8 8" refX="4" refY="2" markerWidth="7" markerHeight="7" orient="auto-start-reverse">
            <polygon points="0,2 2,0 4,2 2,4 0,2"></polygon>
        </marker>
        <marker id="circle" viewBox="0 0 8 8" refX="4" refY="4" markerWidth="7" markerHeight="7" orient="auto-start-reverse">
            <circle cx="4" cy="4" r="2" class="filled"></circle>
        </marker>
        <marker id="open_circle" viewBox="0 0 8 8" refX="4" refY="4" markerWidth="7" markerHeight="7" orient="auto-start-reverse">
            <circle cx="4" cy="4" r="2" class="bg_filled"></circle>
        </marker>
        <marker id="big_open_circle" viewBox="0 0 8 8" refX="4" refY="4" markerWidth="7" markerHeight="7" orient="auto-start-reverse">
            <circle cx="4" cy="4" r="3" class="bg_filled"></circle>
        </marker>
    </defs>
    <rect class="backdrop" x="0" y="0" width="520" height="320"></rect>
    <text x="10" y="12" >HOST</text>
    <text x="50" y="12" >KERNEL</text>
    <path d="M 112,0 A 16,16 0,0,0 112,16" class="nofill"></path>
    <text x="114" y="12" >single</text>
    <text x="170" y="12" >instance,</text>
    <text x="250" y="12" >shared</text>
    <text x="306" y="12" >by</text>
    <text x="330" y="12" >all</text>
    <text x="362" y="12" >containers</text>
    <path d="M 440,0 A 16,16 0,0,1 440,16" class="nofill"></path>
    <text x="74" y="60" >PID</text>
    <text x="106" y="60" >NS</text>
    <text x="130" y="60" >1</text>
    <text x="58" y="76" >PID</text>
    <text x="90" y="76" >1</text>
    <line x1="100" y1="64" x2="100" y2="96" class="broken"></line>
    <text x="114" y="76" >nginx</text>
    <text x="58" y="92" >PID</text>
    <text x="90" y="92" >2</text>
    <text x="114" y="92" >worker</text>
    <line x1="92" y1="112" x2="92" y2="128" class="solid"></line>
    <text x="74" y="140" >NET</text>
    <text x="106" y="140" >NS</text>
    <text x="130" y="140" >1</text>
    <text x="50" y="156" >eth0:</text>
    <text x="98" y="156" >10.0.1.5</text>
    <text x="50" y="172" >lo:</text>
    <text x="82" y="172" >127.0.0.1</text>
    <line x1="92" y1="192" x2="92" y2="208" class="solid"></line>
    <text x="74" y="220" >MNT</text>
    <text x="106" y="220" >NS</text>
    <text x="130" y="220" >1</text>
    <line x1="56" y1="224" x2="48" y2="240" class="solid"></line>
    <text x="58" y="236" >:</text>
    <text x="74" y="236" >o</text>
    <text x="90" y="236" >erlay</text>
    <line x1="56" y1="240" x2="48" y2="256" class="solid"></line>
    <text x="58" y="252" >etc:</text>
    <text x="98" y="252" >custom</text>
    <text x="242" y="60" >PID</text>
    <text x="274" y="60" >NS</text>
    <text x="298" y="60" >2</text>
    <text x="234" y="76" >PID</text>
    <text x="266" y="76" >1</text>
    <line x1="276" y1="64" x2="276" y2="96" class="broken"></line>
    <text x="290" y="76" >python</text>
    <line x1="348" y1="64" x2="348" y2="80" class="solid"></line>
    <text x="234" y="92" >PID</text>
    <text x="266" y="92" >2</text>
    <text x="290" y="92" >gunicorn</text>
    <line x1="356" y1="80" x2="356" y2="96" class="solid"></line>
    <line x1="276" y1="112" x2="276" y2="128" class="solid"></line>
    <text x="242" y="140" >NET</text>
    <text x="274" y="140" >NS</text>
    <text x="298" y="140" >2</text>
    <text x="218" y="156" >eth0:</text>
    <text x="266" y="156" >10.0.1.6</text>
    <text x="218" y="172" >lo:</text>
    <text x="250" y="172" >127.0.0.1</text>
    <line x1="276" y1="192" x2="276" y2="208" class="solid"></line>
    <text x="242" y="220" >MNT</text>
    <text x="274" y="220" >NS</text>
    <text x="298" y="220" >2</text>
    <line x1="232" y1="224" x2="224" y2="240" class="solid"></line>
    <text x="234" y="236" >:</text>
    <text x="250" y="236" >o</text>
    <text x="266" y="236" >erlay</text>
    <line x1="232" y1="240" x2="224" y2="256" class="solid"></line>
    <text x="234" y="252" >app:</text>
    <text x="274" y="252" >custom</text>
    <line x1="492" y1="48" x2="492" y2="64" class="solid"></line>
    <line x1="508" y1="64" x2="508" y2="128" class="solid"></line>
    <line x1="492" y1="128" x2="492" y2="144" class="solid"></line>
    <line x1="500" y1="144" x2="500" y2="176" class="solid"></line>
    <line x1="508" y1="176" x2="508" y2="208" class="solid"></line>
    <line x1="492" y1="208" x2="492" y2="224" class="solid"></line>
    <g>
        <line x1="12" y1="24" x2="508" y2="24" class="solid"></line>
        <line x1="12" y1="24" x2="12" y2="296" class="solid"></line>
        <line x1="508" y1="24" x2="508" y2="48" class="solid"></line>
        <line x1="508" y1="224" x2="508" y2="296" class="solid"></line>
        <line x1="12" y1="296" x2="508" y2="296" class="solid"></line>
    </g>
    <g>
        <line x1="36" y1="56" x2="64" y2="56" class="solid"></line>
        <line x1="36" y1="56" x2="36" y2="104" class="solid"></line>
        <line x1="172" y1="64" x2="172" y2="104" class="solid"></line>
        <line x1="36" y1="104" x2="172" y2="104" class="solid"></line>
    </g>
    <g>
        <line x1="144" y1="56" x2="164" y2="56" class="solid"></line>
        <line x1="164" y1="56" x2="164" y2="64" class="solid"></line>
    </g>
    <g>
        <line x1="36" y1="136" x2="64" y2="136" class="solid"></line>
        <line x1="36" y1="136" x2="36" y2="184" class="solid"></line>
        <line x1="36" y1="184" x2="172" y2="184" class="solid"></line>
        <line x1="172" y1="176" x2="172" y2="184" class="solid"></line>
    </g>
    <g>
        <line x1="144" y1="136" x2="164" y2="136" class="solid"></line>
        <line x1="164" y1="136" x2="164" y2="176" class="solid"></line>
    </g>
    <g>
        <line x1="36" y1="216" x2="64" y2="216" class="solid"></line>
        <line x1="36" y1="216" x2="36" y2="264" class="solid"></line>
        <line x1="172" y1="224" x2="172" y2="264" class="solid"></line>
        <line x1="36" y1="264" x2="172" y2="264" class="solid"></line>
    </g>
    <g>
        <line x1="144" y1="216" x2="164" y2="216" class="solid"></line>
        <line x1="164" y1="216" x2="164" y2="224" class="solid"></line>
    </g>
    <g>
        <line x1="80" y1="224" x2="84" y2="240" class="solid"></line>
        <line x1="88" y1="224" x2="84" y2="240" class="solid"></line>
    </g>
    <g>
        <line x1="204" y1="56" x2="232" y2="56" class="solid"></line>
        <line x1="204" y1="56" x2="204" y2="64" class="solid"></line>
    </g>
    <g>
        <line x1="312" y1="56" x2="332" y2="56" class="solid"></line>
        <line x1="332" y1="56" x2="332" y2="64" class="solid"></line>
    </g>
    <g>
        <line x1="212" y1="64" x2="212" y2="104" class="solid"></line>
        <line x1="212" y1="104" x2="348" y2="104" class="solid"></line>
        <line x1="348" y1="96" x2="348" y2="104" class="solid"></line>
    </g>
    <g>
        <line x1="204" y1="136" x2="232" y2="136" class="solid"></line>
        <line x1="204" y1="136" x2="204" y2="176" class="solid"></line>
    </g>
    <g>
        <line x1="312" y1="136" x2="332" y2="136" class="solid"></line>
        <line x1="332" y1="136" x2="332" y2="176" class="solid"></line>
    </g>
    <g>
        <line x1="212" y1="176" x2="212" y2="184" class="solid"></line>
        <line x1="212" y1="184" x2="348" y2="184" class="solid"></line>
        <line x1="348" y1="176" x2="348" y2="184" class="solid"></line>
    </g>
    <g>
        <line x1="204" y1="216" x2="232" y2="216" class="solid"></line>
        <line x1="204" y1="216" x2="204" y2="224" class="solid"></line>
    </g>
    <g>
        <line x1="212" y1="224" x2="212" y2="264" class="solid"></line>
        <line x1="348" y1="224" x2="348" y2="264" class="solid"></line>
        <line x1="212" y1="264" x2="348" y2="264" class="solid"></line>
    </g>
    <g>
        <line x1="256" y1="224" x2="260" y2="240" class="solid"></line>
        <line x1="264" y1="224" x2="260" y2="240" class="solid"></line>
    </g>
    <g>
        <line x1="312" y1="216" x2="332" y2="216" class="solid"></line>
        <line x1="332" y1="216" x2="332" y2="224" class="solid"></line>
    </g>
</svg>