<svg xmlns="http://www.w3.org/2000/svg" width="408" height="288" style="background:#ffffff;border:1px solid #e5e5e5;border-radius:8px;max-width:100%;height:auto"><rect x="0" y="0" width="100%" height="100%" fill="#ffffff"/>
    <style>
        line, path, circle, rect, polygon{stroke:black;stroke-width:2;stroke-opacity:1;fill-opacity:1;stroke-linecap:round;stroke-linejoin:miter;}text{font-family:Iosevka Fixed, monospace;font-size:14px;}rect.backdrop{stroke:none;fill:transparent;}.broken{stroke-dasharray:8;}.filled{fill:black;}.bg_filled{fill:transparent;}.nofill{fill:transparent;}.end_marked_arrow{marker-end:url(#arrow);}.start_marked_arrow{marker-start:url(#arrow);}.end_marked_diamond{marker-end:url(#diamond);}.start_marked_diamond{marker-start:url(#diamond);}.end_marked_circle{marker-end:url(#circle);}.start_marked_circle{marker-start:url(#circle);}.end_marked_open_circle{marker-end:url(#open_circle);}.start_marked_open_circle{marker-start:url(#open_circle);}.end_marked_big_open_circle{marker-end:url(#big_open_circle);}.start_marked_big_open_circle{marker-start:url(#big_open_circle);}
        <!--separator-->
        
    </style>
    <defs>
        <marker id="arrow" viewBox="-2 -2 8 8" refX="4" refY="2" markerWidth="7" markerHeight="7" orient="auto-start-reverse">
            <polygon points="0,0 0,4 4,2 0,0"></polygon>
        </marker>
        <marker id="diamond" viewBox="-2 -2 8 8" refX="4" refY="2" markerWidth="7" markerHeight="7" orient="auto-start-reverse">
            <polygon points="0,2 2,0 4,2 2,4 0,2"></polygon>
        </marker>
        <marker id="circle" viewBox="0 0 8 8" refX="4" refY="4" markerWidth="7" markerHeight="7" orient="auto-start-reverse">
            <circle cx="4" cy="4" r="2" class="filled"></circle>
        </marker>
        <marker id="open_circle" viewBox="0 0 8 8" refX="4" refY="4" markerWidth="7" markerHeight="7" orient="auto-start-reverse">
            <circle cx="4" cy="4" r="2" class="bg_filled"></circle>
        </marker>
        <marker id="big_open_circle" viewBox="0 0 8 8" refX="4" refY="4" markerWidth="7" markerHeight="7" orient="auto-start-reverse">
            <circle cx="4" cy="4" r="3" class="bg_filled"></circle>
        </marker>
    </defs>
    <rect class="backdrop" x="0" y="0" width="408" height="288"></rect>
    <text x="10" y="12" >cgroups</text>
    <text x="74" y="12" >v2</text>
    <text x="98" y="12" >hierarchy</text>
    <path d="M 184,0 A 16,16 0,0,0 184,16" class="nofill"></path>
    <text x="186" y="12" >single</text>
    <text x="242" y="12" >unified</text>
    <text x="306" y="12" >tree</text>
    <path d="M 336,0 A 16,16 0,0,1 336,16" class="nofill"></path>
    <path d="M 56,32 A 16,16 0,0,0 56,48" class="nofill"></path>
    <text x="58" y="44" >root</text>
    <text x="98" y="44" >cgroup</text>
    <path d="M 144,32 A 16,16 0,0,1 144,48" class="nofill"></path>
    <text x="66" y="60" >system.slice</text>
    <line x1="168" y1="48" x2="160" y2="64" class="solid"></line>
    <text x="98" y="76" >containerd.service</text>
    <line x1="248" y1="64" x2="240" y2="80" class="solid"></line>
    <text x="98" y="92" >kubelet.ser</text>
    <polygon points="184,84 192,88 188,80" class="filled"></polygon>
    <text x="194" y="92" >ice</text>
    <line x1="224" y1="80" x2="216" y2="96" class="solid"></line>
    <text x="98" y="108" >sshd.ser</text>
    <polygon points="160,100 168,104 164,96" class="filled"></polygon>
    <text x="170" y="108" >ice</text>
    <line x1="200" y1="96" x2="192" y2="112" class="solid"></line>
    <text x="66" y="124" >user.slice</text>
    <line x1="152" y1="112" x2="144" y2="128" class="solid"></line>
    <text x="98" y="140" >user</text>
    <line x1="128" y1="136" x2="136" y2="136" class="solid"></line>
    <text x="138" y="140" >1000.slice</text>
    <line x1="224" y1="128" x2="216" y2="144" class="solid"></line>
    <text x="66" y="156" >kubepods.slice</text>
    <line x1="184" y1="144" x2="176" y2="160" class="solid"></line>
    <text x="98" y="172" >kubepods</text>
    <line x1="160" y1="168" x2="168" y2="168" class="solid"></line>
    <text x="170" y="172" >burstable.slice</text>
    <line x1="296" y1="160" x2="288" y2="176" class="solid"></line>
    <text x="130" y="188" >kubepods</text>
    <line x1="192" y1="184" x2="200" y2="184" class="solid"></line>
    <text x="202" y="188" >burstable</text>
    <line x1="272" y1="184" x2="280" y2="184" class="solid"></line>
    <text x="282" y="188" >pod&lt;uid&gt;.slice</text>
    <line x1="396" y1="176" x2="396" y2="192" class="solid"></line>
    <text x="162" y="204" >&lt;container</text>
    <line x1="240" y1="200" x2="248" y2="200" class="solid"></line>
    <text x="250" y="204" >id</text>
    <line x1="264" y1="200" x2="272" y2="200" class="solid"></line>
    <text x="274" y="204" >1&gt;</text>
    <line x1="296" y1="192" x2="288" y2="208" class="solid"></line>
    <text x="162" y="220" >&lt;container</text>
    <line x1="240" y1="216" x2="248" y2="216" class="solid"></line>
    <text x="250" y="220" >id</text>
    <line x1="264" y1="216" x2="272" y2="216" class="solid"></line>
    <text x="274" y="220" >2&gt;</text>
    <line x1="296" y1="208" x2="288" y2="224" class="solid"></line>
    <text x="98" y="236" >kubepods</text>
    <line x1="160" y1="232" x2="168" y2="232" class="solid"></line>
    <text x="170" y="236" >besteffort.slice</text>
    <line x1="304" y1="224" x2="296" y2="240" class="solid"></line>
    <text x="130" y="252" >...</text>
    <g>
        <line x1="12" y1="24" x2="388" y2="24" class="solid"></line>
        <line x1="12" y1="24" x2="12" y2="264" class="solid"></line>
        <line x1="388" y1="24" x2="388" y2="176" class="solid"></line>
        <line x1="388" y1="192" x2="388" y2="264" class="solid"></line>
        <line x1="12" y1="264" x2="388" y2="264" class="solid"></line>
    </g>
    <g>
        <line x1="40" y1="32" x2="36" y2="40" class="solid"></line>
        <line x1="36" y1="40" x2="36" y2="152" class="solid"></line>
        <line x1="36" y1="56" x2="56" y2="56" class="solid"></line>
        <line x1="36" y1="120" x2="56" y2="120" class="solid"></line>
        <line x1="36" y1="152" x2="56" y2="152" class="solid"></line>
    </g>
    <g>
        <line x1="68" y1="64" x2="68" y2="104" class="solid"></line>
        <line x1="68" y1="72" x2="88" y2="72" class="solid"></line>
        <line x1="68" y1="88" x2="88" y2="88" class="solid"></line>
        <line x1="68" y1="104" x2="88" y2="104" class="solid"></line>
    </g>
    <g>
        <line x1="68" y1="128" x2="68" y2="136" class="solid"></line>
        <line x1="68" y1="136" x2="88" y2="136" class="solid"></line>
    </g>
    <g>
        <line x1="68" y1="160" x2="68" y2="232" class="solid"></line>
        <line x1="68" y1="168" x2="88" y2="168" class="solid"></line>
        <line x1="68" y1="232" x2="88" y2="232" class="solid"></line>
    </g>
    <g>
        <line x1="100" y1="176" x2="100" y2="184" class="solid"></line>
        <line x1="100" y1="184" x2="120" y2="184" class="solid"></line>
    </g>
    <g>
        <line x1="132" y1="192" x2="132" y2="216" class="solid"></line>
        <line x1="132" y1="200" x2="152" y2="200" class="solid"></line>
        <line x1="132" y1="216" x2="152" y2="216" class="solid"></line>
    </g>
    <g>
        <line x1="100" y1="240" x2="100" y2="248" class="solid"></line>
        <line x1="100" y1="248" x2="120" y2="248" class="solid"></line>
    </g>
</svg>