<svg xmlns="http://www.w3.org/2000/svg" width="760" height="336" style="background:#ffffff;border:1px solid #e5e5e5;border-radius:8px;max-width:100%;height:auto"><rect x="0" y="0" width="100%" height="100%" fill="#ffffff"/>
    <style>
        line, path, circle, rect, polygon{stroke:black;stroke-width:2;stroke-opacity:1;fill-opacity:1;stroke-linecap:round;stroke-linejoin:miter;}text{font-family:Iosevka Fixed, monospace;font-size:14px;}rect.backdrop{stroke:none;fill:transparent;}.broken{stroke-dasharray:8;}.filled{fill:black;}.bg_filled{fill:transparent;}.nofill{fill:transparent;}.end_marked_arrow{marker-end:url(#arrow);}.start_marked_arrow{marker-start:url(#arrow);}.end_marked_diamond{marker-end:url(#diamond);}.start_marked_diamond{marker-start:url(#diamond);}.end_marked_circle{marker-end:url(#circle);}.start_marked_circle{marker-start:url(#circle);}.end_marked_open_circle{marker-end:url(#open_circle);}.start_marked_open_circle{marker-start:url(#open_circle);}.end_marked_big_open_circle{marker-end:url(#big_open_circle);}.start_marked_big_open_circle{marker-start:url(#big_open_circle);}
        <!--separator-->
        
    </style>
    <defs>
        <marker id="arrow" viewBox="-2 -2 8 8" refX="4" refY="2" markerWidth="7" markerHeight="7" orient="auto-start-reverse">
            <polygon points="0,0 0,4 4,2 0,0"></polygon>
        </marker>
        <marker id="diamond" viewBox="-2 -2 8 8" refX="4" refY="2" markerWidth="7" markerHeight="7" orient="auto-start-reverse">
            <polygon points="0,2 2,0 4,2 2,4 0,2"></polygon>
        </marker>
        <marker id="circle" viewBox="0 0 8 8" refX="4" refY="4" markerWidth="7" markerHeight="7" orient="auto-start-reverse">
            <circle cx="4" cy="4" r="2" class="filled"></circle>
        </marker>
        <marker id="open_circle" viewBox="0 0 8 8" refX="4" refY="4" markerWidth="7" markerHeight="7" orient="auto-start-reverse">
            <circle cx="4" cy="4" r="2" class="bg_filled"></circle>
        </marker>
        <marker id="big_open_circle" viewBox="0 0 8 8" refX="4" refY="4" markerWidth="7" markerHeight="7" orient="auto-start-reverse">
            <circle cx="4" cy="4" r="3" class="bg_filled"></circle>
        </marker>
    </defs>
    <rect class="backdrop" x="0" y="0" width="760" height="336"></rect>
    <rect x="12" y="40" width="80" height="64" class="solid nofill" rx="0"></rect>
    <text x="26" y="60" >Incoming</text>
    <text x="26" y="76" >Packet</text>
    <rect x="132" y="40" width="120" height="64" class="solid nofill" rx="0"></rect>
    <text x="154" y="60" >PREROUTING</text>
    <path d="M 160,64 A 16,16 0,0,0 160,80" class="nofill"></path>
    <text x="162" y="76" >DNAT,</text>
    <text x="210" y="76" >raw,</text>
    <text x="162" y="92" >mangle</text>
    <path d="M 208,80 A 16,16 0,0,1 208,96" class="nofill"></path>
    <text x="10" y="12" >Packet</text>
    <text x="66" y="12" >flow</text>
    <text x="106" y="12" >through</text>
    <text x="170" y="12" >netfilter</text>
    <text x="250" y="12" >hooks:</text>
    <text x="306" y="60" >Routing</text>
    <text x="458" y="60" >FORWARD</text>
    <text x="594" y="60" >POSTROUTING</text>
    <line x1="684" y1="48" x2="684" y2="64" class="solid"></line>
    <text x="306" y="76" >Decision</text>
    <path d="M 456,64 A 16,16 0,0,0 456,80" class="nofill"></path>
    <text x="458" y="76" >filter</text>
    <path d="M 504,64 A 16,16 0,0,1 504,80" class="nofill"></path>
    <path d="M 616,64 A 16,16 0,0,0 616,80" class="nofill"></path>
    <text x="618" y="76" >SNAT,</text>
    <line x1="676" y1="64" x2="676" y2="96" class="solid"></line>
    <text x="610" y="92" >masq</text>
    <path d="M 640,80 A 16,16 0,0,1 640,96" class="nofill"></path>
    <text x="322" y="140" >local</text>
    <path d="M 360,128 A 16,16 0,0,1 360,144" class="nofill"></path>
    <text x="322" y="188" >INPUT</text>
    <text x="458" y="188" >Local</text>
    <path d="M 320,192 A 16,16 0,0,0 320,208" class="nofill"></path>
    <text x="322" y="204" >filter</text>
    <path d="M 368,192 A 16,16 0,0,1 368,208" class="nofill"></path>
    <text x="458" y="204" >Process</text>
    <text x="466" y="268" >OUTPUT</text>
    <line x1="548" y1="256" x2="548" y2="304" class="solid"></line>
    <path d="M 472,272 A 16,16 0,0,0 472,288" class="nofill"></path>
    <text x="474" y="284" >filter,</text>
    <text x="474" y="300" >DNAT</text>
    <path d="M 504,288 A 16,16 0,0,1 504,304" class="nofill"></path>
    <text x="722" y="76" >Out</text>
    <path d="M 296,128 A 16,16 0,0,0 296,144" class="nofill"></path>
    <text x="298" y="140" >if</text>
    <text x="594" y="284" >POSTROUTING</text>
    <text x="730" y="284" >Out</text>
    <g>
        <line x1="292" y1="40" x2="380" y2="40" class="solid"></line>
        <line x1="292" y1="40" x2="292" y2="104" class="solid"></line>
        <line x1="380" y1="40" x2="380" y2="48" class="solid"></line>
        <line x1="388" y1="48" x2="388" y2="104" class="solid"></line>
        <line x1="292" y1="104" x2="388" y2="104" class="solid"></line>
        <line x1="340" y1="104" x2="340" y2="128" class="solid"></line>
    </g>
    <g>
        <line x1="420" y1="40" x2="540" y2="40" class="solid"></line>
        <line x1="420" y1="40" x2="420" y2="48" class="solid"></line>
        <line x1="540" y1="40" x2="540" y2="48" class="solid"></line>
    </g>
    <g>
        <line x1="580" y1="40" x2="660" y2="40" class="solid"></line>
        <line x1="580" y1="40" x2="580" y2="48" class="solid"></line>
        <line x1="660" y1="40" x2="660" y2="48" class="solid"></line>
    </g>
    <g>
        <line x1="428" y1="48" x2="428" y2="104" class="solid"></line>
        <line x1="548" y1="48" x2="548" y2="104" class="solid"></line>
        <line x1="428" y1="104" x2="548" y2="104" class="solid"></line>
    </g>
    <g>
        <line x1="588" y1="48" x2="588" y2="104" class="solid"></line>
        <line x1="588" y1="104" x2="668" y2="104" class="solid"></line>
        <line x1="668" y1="96" x2="668" y2="104" class="solid"></line>
    </g>
    <g>
        <line x1="96" y1="72" x2="120" y2="72" class="solid"></line>
        <polygon points="120,68 128,72 120,76" class="filled"></polygon>
    </g>
    <g>
        <line x1="256" y1="72" x2="280" y2="72" class="solid"></line>
        <polygon points="280,68 288,72 280,76" class="filled"></polygon>
    </g>
    <g>
        <line x1="392" y1="72" x2="416" y2="72" class="solid"></line>
        <polygon points="416,68 424,72 416,76" class="filled"></polygon>
    </g>
    <g>
        <line x1="552" y1="72" x2="576" y2="72" class="solid"></line>
        <polygon points="576,68 584,72 576,76" class="filled"></polygon>
    </g>
    <g>
        <line x1="680" y1="72" x2="704" y2="72" class="solid"></line>
        <polygon points="704,68 712,72 704,76" class="filled"></polygon>
    </g>
    <g>
        <line x1="340" y1="144" x2="340" y2="164" class="solid"></line>
        <polygon points="336,164 344,164 340,176" class="filled"></polygon>
    </g>
    <g>
        <line x1="292" y1="168" x2="336" y2="168" class="solid"></line>
        <line x1="292" y1="168" x2="292" y2="216" class="solid"></line>
        <line x1="396" y1="176" x2="396" y2="216" class="solid"></line>
        <line x1="292" y1="216" x2="396" y2="216" class="solid"></line>
    </g>
    <g>
        <line x1="344" y1="168" x2="388" y2="168" class="solid"></line>
        <line x1="388" y1="168" x2="388" y2="176" class="solid"></line>
    </g>
    <g>
        <line x1="428" y1="168" x2="548" y2="168" class="solid"></line>
        <line x1="428" y1="168" x2="428" y2="176" class="solid"></line>
        <line x1="548" y1="168" x2="548" y2="176" class="solid"></line>
    </g>
    <g>
        <line x1="436" y1="176" x2="436" y2="216" class="solid"></line>
        <line x1="556" y1="176" x2="556" y2="216" class="solid"></line>
        <line x1="436" y1="216" x2="556" y2="216" class="solid"></line>
        <line x1="492" y1="216" x2="492" y2="244" class="solid"></line>
        <polygon points="488,244 496,244 492,256" class="filled"></polygon>
    </g>
    <g>
        <line x1="400" y1="200" x2="424" y2="200" class="solid"></line>
        <polygon points="424,196 432,200 424,204" class="filled"></polygon>
    </g>
    <g>
        <line x1="444" y1="248" x2="488" y2="248" class="solid"></line>
        <line x1="444" y1="248" x2="444" y2="312" class="solid"></line>
        <line x1="444" y1="312" x2="540" y2="312" class="solid"></line>
        <line x1="540" y1="304" x2="540" y2="312" class="solid"></line>
    </g>
    <g>
        <line x1="496" y1="248" x2="540" y2="248" class="solid"></line>
        <line x1="540" y1="248" x2="540" y2="256" class="solid"></line>
    </g>
    <g>
        <line x1="552" y1="280" x2="576" y2="280" class="solid"></line>
        <polygon points="576,276 584,280 576,284" class="filled"></polygon>
    </g>
    <g>
        <line x1="688" y1="280" x2="712" y2="280" class="solid"></line>
        <polygon points="712,276 720,280 712,284" class="filled"></polygon>
    </g>
</svg>