<svg xmlns="http://www.w3.org/2000/svg" width="456" height="208" style="background:#ffffff;border:1px solid #e5e5e5;border-radius:8px;max-width:100%;height:auto"><rect x="0" y="0" width="100%" height="100%" fill="#ffffff"/>
    <style>
        line, path, circle, rect, polygon{stroke:black;stroke-width:2;stroke-opacity:1;fill-opacity:1;stroke-linecap:round;stroke-linejoin:miter;}text{font-family:Iosevka Fixed, monospace;font-size:14px;}rect.backdrop{stroke:none;fill:transparent;}.broken{stroke-dasharray:8;}.filled{fill:black;}.bg_filled{fill:transparent;}.nofill{fill:transparent;}.end_marked_arrow{marker-end:url(#arrow);}.start_marked_arrow{marker-start:url(#arrow);}.end_marked_diamond{marker-end:url(#diamond);}.start_marked_diamond{marker-start:url(#diamond);}.end_marked_circle{marker-end:url(#circle);}.start_marked_circle{marker-start:url(#circle);}.end_marked_open_circle{marker-end:url(#open_circle);}.start_marked_open_circle{marker-start:url(#open_circle);}.end_marked_big_open_circle{marker-end:url(#big_open_circle);}.start_marked_big_open_circle{marker-start:url(#big_open_circle);}
        <!--separator-->
        
    </style>
    <defs>
        <marker id="arrow" viewBox="-2 -2 8 8" refX="4" refY="2" markerWidth="7" markerHeight="7" orient="auto-start-reverse">
            <polygon points="0,0 0,4 4,2 0,0"></polygon>
        </marker>
        <marker id="diamond" viewBox="-2 -2 8 8" refX="4" refY="2" markerWidth="7" markerHeight="7" orient="auto-start-reverse">
            <polygon points="0,2 2,0 4,2 2,4 0,2"></polygon>
        </marker>
        <marker id="circle" viewBox="0 0 8 8" refX="4" refY="4" markerWidth="7" markerHeight="7" orient="auto-start-reverse">
            <circle cx="4" cy="4" r="2" class="filled"></circle>
        </marker>
        <marker id="open_circle" viewBox="0 0 8 8" refX="4" refY="4" markerWidth="7" markerHeight="7" orient="auto-start-reverse">
            <circle cx="4" cy="4" r="2" class="bg_filled"></circle>
        </marker>
        <marker id="big_open_circle" viewBox="0 0 8 8" refX="4" refY="4" markerWidth="7" markerHeight="7" orient="auto-start-reverse">
            <circle cx="4" cy="4" r="3" class="bg_filled"></circle>
        </marker>
    </defs>
    <rect class="backdrop" x="0" y="0" width="456" height="208"></rect>
    <text x="10" y="12" >Virtual</text>
    <text x="74" y="12" >Address</text>
    <path d="M 144,0 A 16,16 0,0,0 144,16" class="nofill"></path>
    <text x="146" y="12" >48</text>
    <text x="170" y="12" >bits</text>
    <text x="210" y="12" >used</text>
    <text x="250" y="12" >on</text>
    <text x="274" y="12" >x86</text>
    <line x1="296" y1="8" x2="304" y2="8" class="solid"></line>
    <text x="306" y="12" >64</text>
    <path d="M 320,0 A 16,16 0,0,1 320,16" class="nofill"></path>
    <text x="330" y="12" >:</text>
    <text x="26" y="44" >PGD</text>
    <text x="82" y="44" >P4D</text>
    <text x="138" y="44" >PUD</text>
    <text x="194" y="44" >PMD</text>
    <text x="250" y="44" >PTE</text>
    <text x="322" y="44" >Offset</text>
    <path d="M 24,48 A 16,16 0,0,0 24,64" class="nofill"></path>
    <text x="26" y="60" >9</text>
    <text x="42" y="60" >bit</text>
    <path d="M 80,48 A 16,16 0,0,0 80,64" class="nofill"></path>
    <text x="82" y="60" >9</text>
    <text x="98" y="60" >bit</text>
    <path d="M 136,48 A 16,16 0,0,0 136,64" class="nofill"></path>
    <text x="138" y="60" >9</text>
    <text x="154" y="60" >bit</text>
    <path d="M 192,48 A 16,16 0,0,0 192,64" class="nofill"></path>
    <text x="194" y="60" >9</text>
    <text x="210" y="60" >bit</text>
    <path d="M 248,48 A 16,16 0,0,0 248,64" class="nofill"></path>
    <text x="250" y="60" >9</text>
    <text x="266" y="60" >bit</text>
    <path d="M 320,48 A 16,16 0,0,0 320,64" class="nofill"></path>
    <text x="322" y="60" >12</text>
    <text x="346" y="60" >bits</text>
    <path d="M 376,48 A 16,16 0,0,1 376,64" class="nofill"></path>
    <text x="18" y="76" >index</text>
    <path d="M 56,64 A 16,16 0,0,1 56,80" class="nofill"></path>
    <text x="74" y="76" >index</text>
    <path d="M 112,64 A 16,16 0,0,1 112,80" class="nofill"></path>
    <text x="130" y="76" >index</text>
    <path d="M 168,64 A 16,16 0,0,1 168,80" class="nofill"></path>
    <text x="186" y="76" >index</text>
    <path d="M 224,64 A 16,16 0,0,1 224,80" class="nofill"></path>
    <text x="242" y="76" >index</text>
    <path d="M 280,64 A 16,16 0,0,1 280,80" class="nofill"></path>
    <text x="26" y="140" >PGD</text>
    <text x="82" y="140" >P4D</text>
    <text x="138" y="140" >PUD</text>
    <text x="194" y="140" >PMD</text>
    <text x="250" y="140" >PTE</text>
    <text x="18" y="156" >Table</text>
    <text x="82" y="156" >Table</text>
    <path d="M 24,160 A 16,16 0,0,0 24,176" class="nofill"></path>
    <text x="26" y="172" >512</text>
    <path d="M 88,160 A 16,16 0,0,0 88,176" class="nofill"></path>
    <text x="90" y="172" >512</text>
    <path d="M 152,160 A 16,16 0,0,0 152,176" class="nofill"></path>
    <text x="154" y="172" >512</text>
    <text x="218" y="172" >512</text>
    <path d="M 280,160 A 16,16 0,0,0 280,176" class="nofill"></path>
    <text x="282" y="172" >512</text>
    <text x="18" y="188" >entries</text>
    <path d="M 72,176 A 16,16 0,0,1 72,192" class="nofill"></path>
    <text x="90" y="188" >entries</text>
    <path d="M 144,176 A 16,16 0,0,1 144,192" class="nofill"></path>
    <text x="162" y="188" >entries</text>
    <text x="234" y="188" >entries</text>
    <path d="M 288,176 A 16,16 0,0,1 288,192" class="nofill"></path>
    <text x="306" y="188" >entries</text>
    <path d="M 360,176 A 16,16 0,0,1 360,192" class="nofill"></path>
    <text x="370" y="140" >Page</text>
    <text x="410" y="140" >Frame</text>
    <text x="66" y="156" >→</text>
    <g>
        <line x1="12" y1="24" x2="412" y2="24" class="solid"></line>
        <line x1="12" y1="24" x2="12" y2="88" class="solid"></line>
        <line x1="68" y1="24" x2="68" y2="88" class="solid"></line>
        <line x1="124" y1="24" x2="124" y2="88" class="solid"></line>
        <line x1="180" y1="24" x2="180" y2="88" class="solid"></line>
        <line x1="236" y1="24" x2="236" y2="88" class="solid"></line>
        <line x1="292" y1="24" x2="292" y2="88" class="solid"></line>
        <line x1="412" y1="24" x2="412" y2="88" class="solid"></line>
        <line x1="12" y1="88" x2="412" y2="88" class="solid"></line>
        <line x1="36" y1="88" x2="36" y2="116" class="solid"></line>
        <line x1="92" y1="88" x2="92" y2="116" class="solid"></line>
        <line x1="148" y1="88" x2="148" y2="116" class="solid"></line>
        <line x1="204" y1="88" x2="204" y2="116" class="solid"></line>
        <line x1="260" y1="88" x2="260" y2="116" class="solid"></line>
        <polygon points="32,116 40,116 36,128" class="filled"></polygon>
        <polygon points="88,116 96,116 92,128" class="filled"></polygon>
        <polygon points="144,116 152,116 148,128" class="filled"></polygon>
        <polygon points="200,116 208,116 204,128" class="filled"></polygon>
        <polygon points="256,116 264,116 260,128" class="filled"></polygon>
    </g>
    <g>
        <text x="282" y="140">→</text>
        <text x="298" y="140">Physical</text>
    </g>
    <g>
        <text x="130" y="156">→</text>
        <text x="146" y="156">Table</text>
    </g>
    <g>
        <text x="194" y="156">→</text>
        <text x="210" y="156">Table</text>
    </g>
    <g>
        <text x="258" y="156">→</text>
        <text x="274" y="156">Table</text>
    </g>
    <g>
        <path d="M 216,160 A 16,16 0,0,0 216,176" class="nofill"></path>
        <path d="M 216,176 A 16,16 0,0,1 216,192" class="nofill"></path>
    </g>
</svg>