<svg xmlns="http://www.w3.org/2000/svg" width="552" height="272" style="background:#ffffff;border:1px solid #e5e5e5;border-radius:8px;max-width:100%;height:auto"><rect x="0" y="0" width="100%" height="100%" fill="#ffffff"/>
    <style>
        line, path, circle, rect, polygon{stroke:black;stroke-width:2;stroke-opacity:1;fill-opacity:1;stroke-linecap:round;stroke-linejoin:miter;}text{font-family:Iosevka Fixed, monospace;font-size:14px;}rect.backdrop{stroke:none;fill:transparent;}.broken{stroke-dasharray:8;}.filled{fill:black;}.bg_filled{fill:transparent;}.nofill{fill:transparent;}.end_marked_arrow{marker-end:url(#arrow);}.start_marked_arrow{marker-start:url(#arrow);}.end_marked_diamond{marker-end:url(#diamond);}.start_marked_diamond{marker-start:url(#diamond);}.end_marked_circle{marker-end:url(#circle);}.start_marked_circle{marker-start:url(#circle);}.end_marked_open_circle{marker-end:url(#open_circle);}.start_marked_open_circle{marker-start:url(#open_circle);}.end_marked_big_open_circle{marker-end:url(#big_open_circle);}.start_marked_big_open_circle{marker-start:url(#big_open_circle);}
        <!--separator-->
        
    </style>
    <defs>
        <marker id="arrow" viewBox="-2 -2 8 8" refX="4" refY="2" markerWidth="7" markerHeight="7" orient="auto-start-reverse">
            <polygon points="0,0 0,4 4,2 0,0"></polygon>
        </marker>
        <marker id="diamond" viewBox="-2 -2 8 8" refX="4" refY="2" markerWidth="7" markerHeight="7" orient="auto-start-reverse">
            <polygon points="0,2 2,0 4,2 2,4 0,2"></polygon>
        </marker>
        <marker id="circle" viewBox="0 0 8 8" refX="4" refY="4" markerWidth="7" markerHeight="7" orient="auto-start-reverse">
            <circle cx="4" cy="4" r="2" class="filled"></circle>
        </marker>
        <marker id="open_circle" viewBox="0 0 8 8" refX="4" refY="4" markerWidth="7" markerHeight="7" orient="auto-start-reverse">
            <circle cx="4" cy="4" r="2" class="bg_filled"></circle>
        </marker>
        <marker id="big_open_circle" viewBox="0 0 8 8" refX="4" refY="4" markerWidth="7" markerHeight="7" orient="auto-start-reverse">
            <circle cx="4" cy="4" r="3" class="bg_filled"></circle>
        </marker>
    </defs>
    <rect class="backdrop" x="0" y="0" width="552" height="272"></rect>
    <text x="18" y="12" >Path</text>
    <text x="58" y="12" >lookup:</text>
    <line x1="128" y1="0" x2="120" y2="16" class="solid"></line>
    <text x="130" y="12" >var</text>
    <line x1="160" y1="0" x2="152" y2="16" class="solid"></line>
    <text x="162" y="12" >log</text>
    <line x1="192" y1="0" x2="184" y2="16" class="solid"></line>
    <text x="194" y="12" >nginx</text>
    <line x1="240" y1="0" x2="232" y2="16" class="solid"></line>
    <text x="242" y="12" >access.log</text>
    <text x="18" y="44" >dentry</text>
    <text x="74" y="44" >cache</text>
    <path d="M 128,32 A 16,16 0,0,0 128,48" class="nofill"></path>
    <text x="130" y="44" >hash</text>
    <text x="170" y="44" >table</text>
    <path d="M 208,32 A 16,16 0,0,1 208,48" class="nofill"></path>
    <text x="218" y="44" >:</text>
    <text x="34" y="76" >Key</text>
    <path d="M 72,64 A 16,16 0,0,0 72,80" class="nofill"></path>
    <text x="74" y="76" >hash</text>
    <path d="M 104,64 A 16,16 0,0,1 104,80" class="nofill"></path>
    <text x="138" y="76" >Dentry</text>
    <text x="226" y="76" >Inode</text>
    <text x="274" y="76" >ptr</text>
    <text x="34" y="108" >hash</text>
    <path d="M 96,96 A 16,16 0,0,1 96,112" class="nofill"></path>
    <line x1="144" y1="96" x2="136" y2="112" class="solid"></line>
    <text x="226" y="108" >inode</text>
    <text x="274" y="108" >2</text>
    <text x="34" y="124" >hash</text>
    <text x="138" y="124" >var</text>
    <text x="226" y="124" >inode</text>
    <text x="274" y="124" >1001</text>
    <text x="34" y="140" >hash</text>
    <text x="138" y="140" >log</text>
    <text x="226" y="140" >inode</text>
    <text x="274" y="140" >1050</text>
    <text x="34" y="156" >hash</text>
    <text x="82" y="156" >.</text>
    <text x="138" y="156" >nginx</text>
    <text x="226" y="156" >inode</text>
    <text x="274" y="156" >2003</text>
    <text x="34" y="172" >hash</text>
    <text x="74" y="172" >...</text>
    <text x="138" y="172" >access..</text>
    <text x="226" y="172" >inode</text>
    <text x="274" y="172" >2047</text>
    <text x="18" y="220" >LRU</text>
    <text x="50" y="220" >list</text>
    <path d="M 96,208 A 16,16 0,0,0 96,224" class="nofill"></path>
    <text x="98" y="220" >least</text>
    <text x="146" y="220" >recently</text>
    <text x="218" y="220" >used</text>
    <text x="258" y="220" >evicted</text>
    <text x="322" y="220" >first</text>
    <path d="M 360,208 A 16,16 0,0,1 360,224" class="nofill"></path>
    <text x="370" y="220" >:</text>
    <text x="18" y="236" >HEAD</text>
    <text x="322" y="236" >←</text>
    <line x1="344" y1="224" x2="336" y2="240" class="solid"></line>
    <path d="M 24,240 A 16,16 0,0,0 24,256" class="nofill"></path>
    <text x="26" y="252" >most</text>
    <text x="66" y="252" >recent</text>
    <path d="M 112,240 A 16,16 0,0,1 112,256" class="nofill"></path>
    <path d="M 320,240 A 16,16 0,0,0 320,256" class="nofill"></path>
    <text x="322" y="252" >least</text>
    <text x="370" y="252" >recent,</text>
    <text x="434" y="252" >evicted</text>
    <text x="498" y="252" >first</text>
    <path d="M 536,240 A 16,16 0,0,1 536,256" class="nofill"></path>
    <text x="74" y="108" >/</text>
    <text x="74" y="124" >var</text>
    <text x="74" y="140" >log</text>
    <g>
        <line x1="20" y1="56" x2="324" y2="56" class="solid"></line>
        <line x1="20" y1="56" x2="20" y2="184" class="solid"></line>
        <line x1="124" y1="56" x2="124" y2="184" class="solid"></line>
        <line x1="212" y1="56" x2="212" y2="184" class="solid"></line>
        <line x1="324" y1="56" x2="324" y2="184" class="solid"></line>
        <line x1="20" y1="88" x2="324" y2="88" class="solid"></line>
        <line x1="20" y1="184" x2="324" y2="184" class="solid"></line>
    </g>
    <g>
        <path d="M 72,96 A 16,16 0,0,0 72,112" class="nofill"></path>
        <path d="M 72,112 A 16,16 0,0,0 72,128" class="nofill"></path>
        <path d="M 72,128 A 16,16 0,0,0 72,144" class="nofill"></path>
        <path d="M 72,144 A 16,16 0,0,0 72,160" class="nofill"></path>
        <path d="M 80,152 A 8,8 0,0,0 74,156" class="nofill"></path>
        <line x1="74" y1="156" x2="72" y2="160" class="solid"></line>
        <path d="M 72,160 A 16,16 0,0,0 72,176" class="nofill"></path>
    </g>
    <g>
        <path d="M 112,112 A 16,16 0,0,1 112,128" class="nofill"></path>
        <path d="M 112,128 A 16,16 0,0,1 112,144" class="nofill"></path>
    </g>
    <g>
        <path d="M 88,152 A 8,8 0,0,1 94,156" class="nofill"></path>
        <line x1="94" y1="156" x2="96" y2="160" class="solid"></line>
        <path d="M 96,144 A 16,16 0,0,1 96,160" class="nofill"></path>
        <path d="M 96,160 A 16,16 0,0,1 96,176" class="nofill"></path>
    </g>
    <g>
        <text x="58" y="236">←</text>
        <text x="74" y="236">access.log</text>
    </g>
    <g>
        <text x="162" y="236">←</text>
        <text x="178" y="236">nginx</text>
    </g>
    <g>
        <text x="226" y="236">←</text>
        <text x="242" y="236">log</text>
    </g>
    <g>
        <text x="274" y="236">←</text>
        <text x="290" y="236">var</text>
    </g>
    <g>
        <text x="354" y="236">→</text>
        <text x="370" y="236">TAIL</text>
    </g>
</svg>