<svg xmlns="http://www.w3.org/2000/svg" width="496" height="208" style="background:#ffffff;border:1px solid #e5e5e5;border-radius:8px;max-width:100%;height:auto"><rect x="0" y="0" width="100%" height="100%" fill="#ffffff"/>
    <style>
        line, path, circle, rect, polygon{stroke:black;stroke-width:2;stroke-opacity:1;fill-opacity:1;stroke-linecap:round;stroke-linejoin:miter;}text{font-family:Iosevka Fixed, monospace;font-size:14px;}rect.backdrop{stroke:none;fill:transparent;}.broken{stroke-dasharray:8;}.filled{fill:black;}.bg_filled{fill:transparent;}.nofill{fill:transparent;}.end_marked_arrow{marker-end:url(#arrow);}.start_marked_arrow{marker-start:url(#arrow);}.end_marked_diamond{marker-end:url(#diamond);}.start_marked_diamond{marker-start:url(#diamond);}.end_marked_circle{marker-end:url(#circle);}.start_marked_circle{marker-start:url(#circle);}.end_marked_open_circle{marker-end:url(#open_circle);}.start_marked_open_circle{marker-start:url(#open_circle);}.end_marked_big_open_circle{marker-end:url(#big_open_circle);}.start_marked_big_open_circle{marker-start:url(#big_open_circle);}
        <!--separator-->
        
    </style>
    <defs>
        <marker id="arrow" viewBox="-2 -2 8 8" refX="4" refY="2" markerWidth="7" markerHeight="7" orient="auto-start-reverse">
            <polygon points="0,0 0,4 4,2 0,0"></polygon>
        </marker>
        <marker id="diamond" viewBox="-2 -2 8 8" refX="4" refY="2" markerWidth="7" markerHeight="7" orient="auto-start-reverse">
            <polygon points="0,2 2,0 4,2 2,4 0,2"></polygon>
        </marker>
        <marker id="circle" viewBox="0 0 8 8" refX="4" refY="4" markerWidth="7" markerHeight="7" orient="auto-start-reverse">
            <circle cx="4" cy="4" r="2" class="filled"></circle>
        </marker>
        <marker id="open_circle" viewBox="0 0 8 8" refX="4" refY="4" markerWidth="7" markerHeight="7" orient="auto-start-reverse">
            <circle cx="4" cy="4" r="2" class="bg_filled"></circle>
        </marker>
        <marker id="big_open_circle" viewBox="0 0 8 8" refX="4" refY="4" markerWidth="7" markerHeight="7" orient="auto-start-reverse">
            <circle cx="4" cy="4" r="3" class="bg_filled"></circle>
        </marker>
    </defs>
    <rect class="backdrop" x="0" y="0" width="496" height="208"></rect>
    <text x="18" y="12" >IPC</text>
    <text x="50" y="12" >Mechanisms</text>
    <text x="138" y="12" >Comparison:</text>
    <text x="34" y="44" >Mechanism</text>
    <text x="178" y="44" >Speed</text>
    <text x="274" y="44" >Structured</text>
    <text x="378" y="44" >Scope</text>
    <text x="34" y="76" >Signals</text>
    <text x="178" y="76" >Fast</text>
    <text x="274" y="76" >No</text>
    <text x="298" y="76" >data</text>
    <text x="378" y="76" >Same</text>
    <text x="418" y="76" >host</text>
    <text x="34" y="92" >Pipes</text>
    <text x="178" y="92" >Medium</text>
    <text x="274" y="92" >Byte</text>
    <text x="314" y="92" >stream</text>
    <text x="378" y="92" >Parent</text>
    <line x1="424" y1="88" x2="432" y2="88" class="solid"></line>
    <text x="434" y="92" >child</text>
    <text x="34" y="108" >Named</text>
    <text x="82" y="108" >pipes</text>
    <text x="178" y="108" >Medium</text>
    <text x="274" y="108" >Byte</text>
    <text x="314" y="108" >stream</text>
    <text x="378" y="108" >Same</text>
    <text x="418" y="108" >host</text>
    <text x="34" y="124" >Unix</text>
    <text x="74" y="124" >sockets</text>
    <text x="178" y="124" >Fast</text>
    <text x="274" y="124" >Stream</text>
    <line x1="328" y1="112" x2="320" y2="128" class="solid"></line>
    <text x="330" y="124" >Dgram</text>
    <line x1="372" y1="112" x2="372" y2="128" class="solid"></line>
    <text x="386" y="124" >Same</text>
    <text x="426" y="124" >host</text>
    <text x="34" y="140" >TCP</text>
    <text x="66" y="140" >sockets</text>
    <text x="178" y="140" >Slower</text>
    <text x="274" y="140" >Byte</text>
    <text x="314" y="140" >stream</text>
    <text x="378" y="140" >Any</text>
    <text x="410" y="140" >network</text>
    <text x="34" y="156" >Shared</text>
    <text x="90" y="156" >memory</text>
    <text x="178" y="156" >Fastest</text>
    <text x="274" y="156" >Raw</text>
    <text x="306" y="156" >bytes</text>
    <text x="378" y="156" >Same</text>
    <text x="418" y="156" >host</text>
    <text x="34" y="172" >Message</text>
    <text x="98" y="172" >queues</text>
    <text x="178" y="172" >Medium</text>
    <text x="274" y="172" >Messages</text>
    <text x="378" y="172" >Same</text>
    <text x="418" y="172" >host</text>
    <g>
        <line x1="20" y1="24" x2="484" y2="24" class="solid"></line>
        <line x1="20" y1="24" x2="20" y2="184" class="solid"></line>
        <line x1="164" y1="24" x2="164" y2="184" class="solid"></line>
        <line x1="260" y1="24" x2="260" y2="184" class="solid"></line>
        <line x1="364" y1="24" x2="364" y2="112" class="solid"></line>
        <line x1="484" y1="24" x2="484" y2="184" class="solid"></line>
        <line x1="20" y1="56" x2="484" y2="56" class="solid"></line>
        <line x1="364" y1="128" x2="364" y2="184" class="solid"></line>
        <line x1="20" y1="184" x2="484" y2="184" class="solid"></line>
    </g>
</svg>