<svg xmlns="http://www.w3.org/2000/svg" width="440" height="224" style="background:#ffffff;border:1px solid #e5e5e5;border-radius:8px;max-width:100%;height:auto"><rect x="0" y="0" width="100%" height="100%" fill="#ffffff"/>
    <style>
        line, path, circle, rect, polygon{stroke:black;stroke-width:2;stroke-opacity:1;fill-opacity:1;stroke-linecap:round;stroke-linejoin:miter;}text{font-family:Iosevka Fixed, monospace;font-size:14px;}rect.backdrop{stroke:none;fill:transparent;}.broken{stroke-dasharray:8;}.filled{fill:black;}.bg_filled{fill:transparent;}.nofill{fill:transparent;}.end_marked_arrow{marker-end:url(#arrow);}.start_marked_arrow{marker-start:url(#arrow);}.end_marked_diamond{marker-end:url(#diamond);}.start_marked_diamond{marker-start:url(#diamond);}.end_marked_circle{marker-end:url(#circle);}.start_marked_circle{marker-start:url(#circle);}.end_marked_open_circle{marker-end:url(#open_circle);}.start_marked_open_circle{marker-start:url(#open_circle);}.end_marked_big_open_circle{marker-end:url(#big_open_circle);}.start_marked_big_open_circle{marker-start:url(#big_open_circle);}
        <!--separator-->
        
    </style>
    <defs>
        <marker id="arrow" viewBox="-2 -2 8 8" refX="4" refY="2" markerWidth="7" markerHeight="7" orient="auto-start-reverse">
            <polygon points="0,0 0,4 4,2 0,0"></polygon>
        </marker>
        <marker id="diamond" viewBox="-2 -2 8 8" refX="4" refY="2" markerWidth="7" markerHeight="7" orient="auto-start-reverse">
            <polygon points="0,2 2,0 4,2 2,4 0,2"></polygon>
        </marker>
        <marker id="circle" viewBox="0 0 8 8" refX="4" refY="4" markerWidth="7" markerHeight="7" orient="auto-start-reverse">
            <circle cx="4" cy="4" r="2" class="filled"></circle>
        </marker>
        <marker id="open_circle" viewBox="0 0 8 8" refX="4" refY="4" markerWidth="7" markerHeight="7" orient="auto-start-reverse">
            <circle cx="4" cy="4" r="2" class="bg_filled"></circle>
        </marker>
        <marker id="big_open_circle" viewBox="0 0 8 8" refX="4" refY="4" markerWidth="7" markerHeight="7" orient="auto-start-reverse">
            <circle cx="4" cy="4" r="3" class="bg_filled"></circle>
        </marker>
    </defs>
    <rect class="backdrop" x="0" y="0" width="440" height="224"></rect>
    <text x="18" y="12" >Packet</text>
    <text x="74" y="12" >routing</text>
    <text x="138" y="12" >decision:</text>
    <text x="18" y="44" >Packet</text>
    <text x="74" y="44" >arrives</text>
    <text x="178" y="44" >Destination</text>
    <text x="274" y="44" >IP?</text>
    <text x="74" y="140" >10.0.0.0</text>
    <line x1="144" y1="128" x2="136" y2="144" class="solid"></line>
    <text x="146" y="140" >24</text>
    <text x="186" y="140" >172.17</text>
    <text x="242" y="140" >0.0</text>
    <line x1="272" y1="128" x2="264" y2="144" class="solid"></line>
    <text x="274" y="140" >16</text>
    <text x="314" y="140" >everything</text>
    <text x="90" y="188" >eth0</text>
    <text x="202" y="188" >docker0</text>
    <text x="314" y="188" >default</text>
    <text x="378" y="188" >gw</text>
    <path d="M 312,192 A 16,16 0,0,0 312,208" class="nofill"></path>
    <text x="314" y="204" >10.0.0.1</text>
    <path d="M 376,192 A 16,16 0,0,1 376,208" class="nofill"></path>
    <text x="402" y="140" >else</text>
    <g>
        <line x1="164" y1="24" x2="316" y2="24" class="solid"></line>
        <line x1="164" y1="24" x2="164" y2="72" class="solid"></line>
        <line x1="316" y1="24" x2="316" y2="72" class="solid"></line>
        <line x1="164" y1="72" x2="316" y2="72" class="solid"></line>
        <line x1="236" y1="72" x2="236" y2="128" class="solid"></line>
    </g>
    <g>
        <line x1="16" y1="56" x2="152" y2="56" class="solid"></line>
        <polygon points="152,52 160,56 152,60" class="filled"></polygon>
    </g>
    <g>
        <line x1="116" y1="104" x2="356" y2="104" class="solid"></line>
        <line x1="116" y1="104" x2="116" y2="128" class="solid"></line>
        <line x1="356" y1="104" x2="356" y2="128" class="solid"></line>
    </g>
    <g>
        <line x1="236" y1="140" x2="236" y2="164" class="solid"></line>
        <polygon points="232,164 240,164 236,176" class="filled"></polygon>
    </g>
    <g>
        <line x1="116" y1="144" x2="116" y2="164" class="solid"></line>
        <polygon points="112,164 120,164 116,176" class="filled"></polygon>
    </g>
    <g>
        <line x1="356" y1="144" x2="356" y2="164" class="solid"></line>
        <polygon points="352,164 360,164 356,176" class="filled"></polygon>
    </g>
</svg>