<svg xmlns="http://www.w3.org/2000/svg" width="584" height="80" style="background:#ffffff;border:1px solid #e5e5e5;border-radius:8px;max-width:100%;height:auto"><rect x="0" y="0" width="100%" height="100%" fill="#ffffff"/>
    <style>
        line, path, circle, rect, polygon{stroke:black;stroke-width:2;stroke-opacity:1;fill-opacity:1;stroke-linecap:round;stroke-linejoin:miter;}text{font-family:Iosevka Fixed, monospace;font-size:14px;}rect.backdrop{stroke:none;fill:transparent;}.broken{stroke-dasharray:8;}.filled{fill:black;}.bg_filled{fill:transparent;}.nofill{fill:transparent;}.end_marked_arrow{marker-end:url(#arrow);}.start_marked_arrow{marker-start:url(#arrow);}.end_marked_diamond{marker-end:url(#diamond);}.start_marked_diamond{marker-start:url(#diamond);}.end_marked_circle{marker-end:url(#circle);}.start_marked_circle{marker-start:url(#circle);}.end_marked_open_circle{marker-end:url(#open_circle);}.start_marked_open_circle{marker-start:url(#open_circle);}.end_marked_big_open_circle{marker-end:url(#big_open_circle);}.start_marked_big_open_circle{marker-start:url(#big_open_circle);}
        <!--separator-->
        
    </style>
    <defs>
        <marker id="arrow" viewBox="-2 -2 8 8" refX="4" refY="2" markerWidth="7" markerHeight="7" orient="auto-start-reverse">
            <polygon points="0,0 0,4 4,2 0,0"></polygon>
        </marker>
        <marker id="diamond" viewBox="-2 -2 8 8" refX="4" refY="2" markerWidth="7" markerHeight="7" orient="auto-start-reverse">
            <polygon points="0,2 2,0 4,2 2,4 0,2"></polygon>
        </marker>
        <marker id="circle" viewBox="0 0 8 8" refX="4" refY="4" markerWidth="7" markerHeight="7" orient="auto-start-reverse">
            <circle cx="4" cy="4" r="2" class="filled"></circle>
        </marker>
        <marker id="open_circle" viewBox="0 0 8 8" refX="4" refY="4" markerWidth="7" markerHeight="7" orient="auto-start-reverse">
            <circle cx="4" cy="4" r="2" class="bg_filled"></circle>
        </marker>
        <marker id="big_open_circle" viewBox="0 0 8 8" refX="4" refY="4" markerWidth="7" markerHeight="7" orient="auto-start-reverse">
            <circle cx="4" cy="4" r="3" class="bg_filled"></circle>
        </marker>
    </defs>
    <rect class="backdrop" x="0" y="0" width="584" height="80"></rect>
    <text x="18" y="12" >ps</text>
    <text x="42" y="12" >aux</text>
    <text x="226" y="12" >pipe</text>
    <path d="M 272,0 A 16,16 0,0,0 272,16" class="nofill"></path>
    <text x="274" y="12" >kernel</text>
    <text x="330" y="12" >buffer</text>
    <path d="M 376,0 A 16,16 0,0,1 376,16" class="nofill"></path>
    <text x="498" y="12" >grep</text>
    <text x="538" y="12" >nginx</text>
    <text x="98" y="28" >stdout</text>
    <path d="M 160,16 A 16,16 0,0,0 160,32" class="nofill"></path>
    <text x="162" y="28" >FD</text>
    <text x="186" y="28" >1</text>
    <path d="M 192,16 A 16,16 0,0,1 192,32" class="nofill"></path>
    <text x="394" y="28" >stdin</text>
    <path d="M 448,16 A 16,16 0,0,0 448,32" class="nofill"></path>
    <text x="450" y="28" >FD</text>
    <text x="474" y="28" >0</text>
    <path d="M 480,16 A 16,16 0,0,1 480,32" class="nofill"></path>
    <text x="34" y="44" >write</text>
    <text x="250" y="44" >4</text>
    <text x="266" y="44" >KB</text>
    <text x="290" y="44" >buffer</text>
    <text x="530" y="44" >read</text>
    <g>
        <line x1="20" y1="24" x2="76" y2="24" class="solid"></line>
        <line x1="20" y1="24" x2="20" y2="56" class="solid"></line>
        <line x1="76" y1="24" x2="76" y2="32" class="solid"></line>
        <line x1="20" y1="56" x2="76" y2="56" class="solid"></line>
        <line x1="76" y1="48" x2="76" y2="56" class="solid"></line>
    </g>
    <g>
        <line x1="220" y1="24" x2="372" y2="24" class="solid"></line>
        <line x1="220" y1="24" x2="220" y2="32" class="solid"></line>
        <line x1="372" y1="24" x2="372" y2="32" class="solid"></line>
    </g>
    <g>
        <line x1="508" y1="24" x2="564" y2="24" class="solid"></line>
        <line x1="508" y1="24" x2="508" y2="32" class="solid"></line>
        <line x1="564" y1="24" x2="564" y2="32" class="solid"></line>
    </g>
    <g>
        <line x1="84" y1="32" x2="84" y2="48" class="solid"></line>
        <line x1="84" y1="40" x2="216" y2="40" class="solid"></line>
        <polygon points="216,36 224,40 216,44" class="filled"></polygon>
    </g>
    <g>
        <line x1="228" y1="32" x2="228" y2="56" class="solid"></line>
        <line x1="380" y1="32" x2="380" y2="56" class="solid"></line>
        <line x1="380" y1="40" x2="504" y2="40" class="solid"></line>
        <polygon points="504,36 512,40 504,44" class="filled"></polygon>
        <line x1="228" y1="56" x2="380" y2="56" class="solid"></line>
    </g>
    <g>
        <line x1="516" y1="32" x2="516" y2="56" class="solid"></line>
        <line x1="572" y1="32" x2="572" y2="56" class="solid"></line>
        <line x1="516" y1="56" x2="572" y2="56" class="solid"></line>
    </g>
</svg>