<svg xmlns="http://www.w3.org/2000/svg" width="552" height="336" style="background:#ffffff;border:1px solid #e5e5e5;border-radius:8px;max-width:100%;height:auto"><rect x="0" y="0" width="100%" height="100%" fill="#ffffff"/>
    <style>
        line, path, circle, rect, polygon{stroke:black;stroke-width:2;stroke-opacity:1;fill-opacity:1;stroke-linecap:round;stroke-linejoin:miter;}text{font-family:Iosevka Fixed, monospace;font-size:14px;}rect.backdrop{stroke:none;fill:transparent;}.broken{stroke-dasharray:8;}.filled{fill:black;}.bg_filled{fill:transparent;}.nofill{fill:transparent;}.end_marked_arrow{marker-end:url(#arrow);}.start_marked_arrow{marker-start:url(#arrow);}.end_marked_diamond{marker-end:url(#diamond);}.start_marked_diamond{marker-start:url(#diamond);}.end_marked_circle{marker-end:url(#circle);}.start_marked_circle{marker-start:url(#circle);}.end_marked_open_circle{marker-end:url(#open_circle);}.start_marked_open_circle{marker-start:url(#open_circle);}.end_marked_big_open_circle{marker-end:url(#big_open_circle);}.start_marked_big_open_circle{marker-start:url(#big_open_circle);}
        <!--separator-->
        
    </style>
    <defs>
        <marker id="arrow" viewBox="-2 -2 8 8" refX="4" refY="2" markerWidth="7" markerHeight="7" orient="auto-start-reverse">
            <polygon points="0,0 0,4 4,2 0,0"></polygon>
        </marker>
        <marker id="diamond" viewBox="-2 -2 8 8" refX="4" refY="2" markerWidth="7" markerHeight="7" orient="auto-start-reverse">
            <polygon points="0,2 2,0 4,2 2,4 0,2"></polygon>
        </marker>
        <marker id="circle" viewBox="0 0 8 8" refX="4" refY="4" markerWidth="7" markerHeight="7" orient="auto-start-reverse">
            <circle cx="4" cy="4" r="2" class="filled"></circle>
        </marker>
        <marker id="open_circle" viewBox="0 0 8 8" refX="4" refY="4" markerWidth="7" markerHeight="7" orient="auto-start-reverse">
            <circle cx="4" cy="4" r="2" class="bg_filled"></circle>
        </marker>
        <marker id="big_open_circle" viewBox="0 0 8 8" refX="4" refY="4" markerWidth="7" markerHeight="7" orient="auto-start-reverse">
            <circle cx="4" cy="4" r="3" class="bg_filled"></circle>
        </marker>
    </defs>
    <rect class="backdrop" x="0" y="0" width="552" height="336"></rect>
    <text x="18" y="12" >Process</text>
    <text x="82" y="12" >States:</text>
    <text x="130" y="28" >fork</text>
    <text x="314" y="28" >scheduled</text>
    <text x="34" y="44" >Created</text>
    <text x="226" y="44" >Ready</text>
    <line x1="396" y1="32" x2="396" y2="48" class="solid"></line>
    <text x="410" y="44" >Running</text>
    <line x1="476" y1="32" x2="476" y2="48" class="solid"></line>
    <line x1="444" y1="96" x2="444" y2="112" class="solid"></line>
    <text x="402" y="124" >exit</text>
    <path d="M 440,112 A 16,16 0,0,0 440,128" class="nofill"></path>
    <text x="442" y="124" >)</text>
    <text x="426" y="156" >Zombie</text>
    <path d="M 416,160 A 16,16 0,0,0 416,176" class="nofill"></path>
    <text x="418" y="172" >waiting</text>
    <text x="482" y="172" >for</text>
    <text x="418" y="188" >parent</text>
    <text x="474" y="188" >to</text>
    <text x="418" y="204" >call</text>
    <text x="458" y="204" >wait</text>
    <path d="M 488,192 A 16,16 0,0,1 488,208" class="nofill"></path>
    <text x="410" y="252" >wait</text>
    <path d="M 448,240 A 16,16 0,0,0 448,256" class="nofill"></path>
    <text x="474" y="252" >by</text>
    <text x="498" y="252" >parent</text>
    <text x="418" y="284" >Terminated</text>
    <path d="M 424,288 A 16,16 0,0,0 424,304" class="nofill"></path>
    <text x="426" y="300" >removed</text>
    <path d="M 480,288 A 16,16 0,0,1 480,304" class="nofill"></path>
    <text x="306" y="92" >preempted</text>
    <g>
        <line x1="20" y1="24" x2="100" y2="24" class="solid"></line>
        <line x1="20" y1="24" x2="20" y2="56" class="solid"></line>
        <line x1="100" y1="24" x2="100" y2="56" class="solid"></line>
        <line x1="100" y1="40" x2="192" y2="40" class="solid"></line>
        <polygon points="192,36 200,40 192,44" class="filled"></polygon>
        <line x1="20" y1="56" x2="100" y2="56" class="solid"></line>
    </g>
    <g>
        <path d="M 168,16 A 16,16 0,0,0 168,32" class="nofill"></path>
        <path d="M 168,16 A 16,16 0,0,1 168,32" class="nofill"></path>
    </g>
    <g>
        <line x1="204" y1="24" x2="284" y2="24" class="solid"></line>
        <line x1="204" y1="24" x2="204" y2="56" class="solid"></line>
        <line x1="284" y1="24" x2="284" y2="56" class="solid"></line>
        <line x1="284" y1="40" x2="384" y2="40" class="solid"></line>
        <polygon points="384,36 392,40 384,44" class="filled"></polygon>
        <line x1="204" y1="56" x2="284" y2="56" class="solid"></line>
        <line x1="244" y1="56" x2="244" y2="320" class="solid"></line>
    </g>
    <g>
        <line x1="412" y1="24" x2="492" y2="24" class="solid"></line>
        <line x1="412" y1="24" x2="412" y2="32" class="solid"></line>
        <line x1="492" y1="24" x2="492" y2="32" class="solid"></line>
    </g>
    <g>
        <line x1="404" y1="48" x2="404" y2="56" class="solid"></line>
        <line x1="404" y1="56" x2="484" y2="56" class="solid"></line>
        <line x1="444" y1="56" x2="444" y2="88" class="solid"></line>
        <line x1="484" y1="48" x2="484" y2="56" class="solid"></line>
        <line x1="384" y1="88" x2="444" y2="88" class="solid"></line>
    </g>
    <g>
        <polygon points="256,84 248,88 256,92" class="filled"></polygon>
        <line x1="256" y1="88" x2="296" y2="88" class="solid"></line>
    </g>
    <g>
        <line x1="452" y1="112" x2="452" y2="132" class="solid"></line>
        <polygon points="448,132 456,132 452,144" class="filled"></polygon>
    </g>
    <g>
        <line x1="396" y1="136" x2="448" y2="136" class="solid"></line>
        <line x1="396" y1="136" x2="396" y2="216" class="solid"></line>
        <line x1="456" y1="136" x2="508" y2="136" class="solid"></line>
        <line x1="508" y1="136" x2="508" y2="216" class="solid"></line>
        <line x1="396" y1="216" x2="508" y2="216" class="solid"></line>
        <line x1="452" y1="216" x2="452" y2="240" class="solid"></line>
        <path d="M 452,240 A 12,12 0,0,1 452,256" class="nofill"></path>
        <line x1="452" y1="256" x2="452" y2="260" class="solid"></line>
        <line x1="460" y1="240" x2="460" y2="256" class="solid"></line>
        <polygon points="448,260 456,260 452,272" class="filled"></polygon>
    </g>
    <g>
        <line x1="396" y1="264" x2="448" y2="264" class="solid"></line>
        <line x1="396" y1="264" x2="396" y2="312" class="solid"></line>
        <line x1="456" y1="264" x2="508" y2="264" class="solid"></line>
        <line x1="508" y1="264" x2="508" y2="312" class="solid"></line>
        <line x1="396" y1="312" x2="508" y2="312" class="solid"></line>
    </g>
</svg>