<svg xmlns="http://www.w3.org/2000/svg" width="544" height="176" style="background:#ffffff;border:1px solid #e5e5e5;border-radius:8px;max-width:100%;height:auto"><rect x="0" y="0" width="100%" height="100%" fill="#ffffff"/>
    <style>
        line, path, circle, rect, polygon{stroke:black;stroke-width:2;stroke-opacity:1;fill-opacity:1;stroke-linecap:round;stroke-linejoin:miter;}text{font-family:Iosevka Fixed, monospace;font-size:14px;}rect.backdrop{stroke:none;fill:transparent;}.broken{stroke-dasharray:8;}.filled{fill:black;}.bg_filled{fill:transparent;}.nofill{fill:transparent;}.end_marked_arrow{marker-end:url(#arrow);}.start_marked_arrow{marker-start:url(#arrow);}.end_marked_diamond{marker-end:url(#diamond);}.start_marked_diamond{marker-start:url(#diamond);}.end_marked_circle{marker-end:url(#circle);}.start_marked_circle{marker-start:url(#circle);}.end_marked_open_circle{marker-end:url(#open_circle);}.start_marked_open_circle{marker-start:url(#open_circle);}.end_marked_big_open_circle{marker-end:url(#big_open_circle);}.start_marked_big_open_circle{marker-start:url(#big_open_circle);}
        <!--separator-->
        
    </style>
    <defs>
        <marker id="arrow" viewBox="-2 -2 8 8" refX="4" refY="2" markerWidth="7" markerHeight="7" orient="auto-start-reverse">
            <polygon points="0,0 0,4 4,2 0,0"></polygon>
        </marker>
        <marker id="diamond" viewBox="-2 -2 8 8" refX="4" refY="2" markerWidth="7" markerHeight="7" orient="auto-start-reverse">
            <polygon points="0,2 2,0 4,2 2,4 0,2"></polygon>
        </marker>
        <marker id="circle" viewBox="0 0 8 8" refX="4" refY="4" markerWidth="7" markerHeight="7" orient="auto-start-reverse">
            <circle cx="4" cy="4" r="2" class="filled"></circle>
        </marker>
        <marker id="open_circle" viewBox="0 0 8 8" refX="4" refY="4" markerWidth="7" markerHeight="7" orient="auto-start-reverse">
            <circle cx="4" cy="4" r="2" class="bg_filled"></circle>
        </marker>
        <marker id="big_open_circle" viewBox="0 0 8 8" refX="4" refY="4" markerWidth="7" markerHeight="7" orient="auto-start-reverse">
            <circle cx="4" cy="4" r="3" class="bg_filled"></circle>
        </marker>
    </defs>
    <rect class="backdrop" x="0" y="0" width="544" height="176"></rect>
    <rect x="20" y="24" width="176" height="128" class="solid nofill" rx="0"></rect>
    <rect x="44" y="88" width="128" height="48" class="solid nofill" rx="0"></rect>
    <text x="58" y="108" >Stack</text>
    <path d="M 112,96 A 16,16 0,0,0 112,112" class="nofill"></path>
    <text x="114" y="108" >main</text>
    <path d="M 144,96 A 16,16 0,0,1 144,112" class="nofill"></path>
    <text x="58" y="124" >Registers</text>
    <text x="42" y="44" >Code</text>
    <text x="82" y="44" >segment</text>
    <text x="42" y="60" >Heap</text>
    <path d="M 88,48 A 16,16 0,0,0 88,64" class="nofill"></path>
    <text x="90" y="60" >data</text>
    <path d="M 120,48 A 16,16 0,0,1 120,64" class="nofill"></path>
    <text x="42" y="76" >File</text>
    <text x="82" y="76" >descriptors</text>
    <rect x="316" y="88" width="72" height="48" class="solid nofill" rx="0"></rect>
    <text x="322" y="108" >Stack</text>
    <text x="370" y="108" >T1</text>
    <text x="322" y="124" >Regs</text>
    <text x="362" y="124" >T1</text>
    <rect x="404" y="88" width="72" height="48" class="solid nofill" rx="0"></rect>
    <text x="410" y="108" >Stack</text>
    <text x="458" y="108" >T2</text>
    <text x="410" y="124" >Regs</text>
    <text x="450" y="124" >T2</text>
    <text x="18" y="12" >PROCESS</text>
    <path d="M 88,0 A 16,16 0,0,0 88,16" class="nofill"></path>
    <text x="90" y="12" >single</text>
    <line x1="136" y1="8" x2="144" y2="8" class="solid"></line>
    <text x="146" y="12" >threaded</text>
    <path d="M 208,0 A 16,16 0,0,1 208,16" class="nofill"></path>
    <text x="298" y="12" >PROCESS</text>
    <path d="M 368,0 A 16,16 0,0,0 368,16" class="nofill"></path>
    <text x="370" y="12" >multi</text>
    <line x1="408" y1="8" x2="416" y2="8" class="solid"></line>
    <text x="418" y="12" >threaded</text>
    <path d="M 480,0 A 16,16 0,0,1 480,16" class="nofill"></path>
    <text x="314" y="44" >Code</text>
    <text x="354" y="44" >segment</text>
    <path d="M 424,32 A 16,16 0,0,0 424,48" class="nofill"></path>
    <text x="426" y="44" >shared</text>
    <path d="M 472,32 A 16,16 0,0,1 472,48" class="nofill"></path>
    <text x="314" y="60" >Heap</text>
    <path d="M 360,48 A 16,16 0,0,0 360,64" class="nofill"></path>
    <text x="362" y="60" >shared</text>
    <path d="M 408,48 A 16,16 0,0,1 408,64" class="nofill"></path>
    <text x="314" y="76" >File</text>
    <text x="354" y="76" >descriptors</text>
    <path d="M 456,64 A 16,16 0,0,0 456,80" class="nofill"></path>
    <text x="458" y="76" >shared</text>
    <path d="M 504,64 A 16,16 0,0,1 504,80" class="nofill"></path>
    <line x1="524" y1="80" x2="524" y2="144" class="solid"></line>
    <text x="490" y="108" >...</text>
    <g>
        <line x1="292" y1="24" x2="532" y2="24" class="solid"></line>
        <line x1="292" y1="24" x2="292" y2="152" class="solid"></line>
        <line x1="532" y1="24" x2="532" y2="80" class="solid"></line>
        <line x1="292" y1="152" x2="532" y2="152" class="solid"></line>
        <line x1="532" y1="144" x2="532" y2="152" class="solid"></line>
    </g>
</svg>