<svg xmlns="http://www.w3.org/2000/svg" width="560" height="144" style="background:#ffffff;border:1px solid #e5e5e5;border-radius:8px;max-width:100%;height:auto"><rect x="0" y="0" width="100%" height="100%" fill="#ffffff"/>
    <style>
        line, path, circle, rect, polygon{stroke:black;stroke-width:2;stroke-opacity:1;fill-opacity:1;stroke-linecap:round;stroke-linejoin:miter;}text{font-family:Iosevka Fixed, monospace;font-size:14px;}rect.backdrop{stroke:none;fill:transparent;}.broken{stroke-dasharray:8;}.filled{fill:black;}.bg_filled{fill:transparent;}.nofill{fill:transparent;}.end_marked_arrow{marker-end:url(#arrow);}.start_marked_arrow{marker-start:url(#arrow);}.end_marked_diamond{marker-end:url(#diamond);}.start_marked_diamond{marker-start:url(#diamond);}.end_marked_circle{marker-end:url(#circle);}.start_marked_circle{marker-start:url(#circle);}.end_marked_open_circle{marker-end:url(#open_circle);}.start_marked_open_circle{marker-start:url(#open_circle);}.end_marked_big_open_circle{marker-end:url(#big_open_circle);}.start_marked_big_open_circle{marker-start:url(#big_open_circle);}
        <!--separator-->
        
    </style>
    <defs>
        <marker id="arrow" viewBox="-2 -2 8 8" refX="4" refY="2" markerWidth="7" markerHeight="7" orient="auto-start-reverse">
            <polygon points="0,0 0,4 4,2 0,0"></polygon>
        </marker>
        <marker id="diamond" viewBox="-2 -2 8 8" refX="4" refY="2" markerWidth="7" markerHeight="7" orient="auto-start-reverse">
            <polygon points="0,2 2,0 4,2 2,4 0,2"></polygon>
        </marker>
        <marker id="circle" viewBox="0 0 8 8" refX="4" refY="4" markerWidth="7" markerHeight="7" orient="auto-start-reverse">
            <circle cx="4" cy="4" r="2" class="filled"></circle>
        </marker>
        <marker id="open_circle" viewBox="0 0 8 8" refX="4" refY="4" markerWidth="7" markerHeight="7" orient="auto-start-reverse">
            <circle cx="4" cy="4" r="2" class="bg_filled"></circle>
        </marker>
        <marker id="big_open_circle" viewBox="0 0 8 8" refX="4" refY="4" markerWidth="7" markerHeight="7" orient="auto-start-reverse">
            <circle cx="4" cy="4" r="3" class="bg_filled"></circle>
        </marker>
    </defs>
    <rect class="backdrop" x="0" y="0" width="560" height="144"></rect>
    <line x1="16" y1="8" x2="24" y2="8" class="solid"></line>
    <text x="26" y="12" >rwxr</text>
    <line x1="56" y1="8" x2="64" y2="8" class="solid"></line>
    <text x="66" y="12" >xr</text>
    <line x1="80" y1="8" x2="96" y2="8" class="solid"></line>
    <text x="114" y="12" >1</text>
    <text x="138" y="12" >shadab</text>
    <line x1="140" y1="16" x2="140" y2="36" class="solid"></line>
    <circle cx="140" cy="40" r="3" class="nofill"></circle>
    <text x="146" y="44" >wner</text>
    <text x="202" y="12" >developers</text>
    <line x1="204" y1="16" x2="204" y2="32" class="solid"></line>
    <text x="202" y="44" >group</text>
    <text x="298" y="12" >4096</text>
    <text x="346" y="12" >May</text>
    <text x="378" y="12" >21</text>
    <text x="402" y="12" >10:00</text>
    <text x="458" y="12" >script.sh</text>
    <text x="114" y="76" >Others:</text>
    <text x="178" y="76" >r</text>
    <line x1="184" y1="72" x2="200" y2="72" class="solid"></line>
    <text x="218" y="76" >read</text>
    <text x="258" y="76" >only</text>
    <path d="M 288,64 A 16,16 0,0,1 288,80" class="nofill"></path>
    <text x="114" y="92" >Group</text>
    <line x1="156" y1="80" x2="156" y2="112" class="broken"></line>
    <text x="178" y="92" >r</text>
    <line x1="184" y1="88" x2="192" y2="88" class="solid"></line>
    <text x="194" y="92" >x</text>
    <text x="218" y="92" >read</text>
    <text x="258" y="92" >and</text>
    <text x="290" y="92" >execute</text>
    <path d="M 344,80 A 16,16 0,0,1 344,96" class="nofill"></path>
    <text x="114" y="108" >Owner</text>
    <text x="178" y="108" >rwx</text>
    <text x="218" y="108" >read,</text>
    <text x="266" y="108" >write,</text>
    <text x="322" y="108" >execute</text>
    <path d="M 376,96 A 16,16 0,0,1 376,112" class="nofill"></path>
    <text x="114" y="124" >File</text>
    <text x="154" y="124" >type:</text>
    <line x1="200" y1="120" x2="208" y2="120" class="solid"></line>
    <path d="M 224,112 A 16,16 0,0,0 224,128" class="nofill"></path>
    <text x="226" y="124" >regular</text>
    <text x="290" y="124" >file</text>
    <path d="M 320,112 A 16,16 0,0,1 320,128" class="nofill"></path>
    <text x="330" y="124" >,</text>
    <text x="346" y="124" >d</text>
    <path d="M 368,112 A 16,16 0,0,0 368,128" class="nofill"></path>
    <text x="370" y="124" >directory</text>
    <path d="M 440,112 A 16,16 0,0,1 440,128" class="nofill"></path>
    <text x="450" y="124" >,</text>
    <text x="466" y="124" >l</text>
    <path d="M 488,112 A 16,16 0,0,0 488,128" class="nofill"></path>
    <text x="490" y="124" >symlink</text>
    <path d="M 544,112 A 16,16 0,0,1 544,128" class="nofill"></path>
    <g>
        <line x1="20" y1="16" x2="20" y2="120" class="solid"></line>
        <line x1="20" y1="120" x2="104" y2="120" class="solid"></line>
    </g>
    <g>
        <line x1="28" y1="16" x2="28" y2="32" class="solid"></line>
        <line x1="28" y1="24" x2="44" y2="24" class="solid"></line>
        <line x1="44" y1="16" x2="44" y2="32" class="solid"></line>
    </g>
    <g>
        <line x1="52" y1="16" x2="52" y2="32" class="solid"></line>
        <line x1="52" y1="24" x2="68" y2="24" class="solid"></line>
        <line x1="68" y1="16" x2="68" y2="32" class="solid"></line>
    </g>
    <g>
        <line x1="76" y1="16" x2="76" y2="32" class="solid"></line>
        <line x1="76" y1="24" x2="92" y2="24" class="solid"></line>
        <line x1="92" y1="16" x2="92" y2="32" class="solid"></line>
    </g>
    <g>
        <line x1="36" y1="32" x2="36" y2="104" class="solid"></line>
        <line x1="36" y1="104" x2="104" y2="104" class="solid"></line>
    </g>
    <g>
        <line x1="60" y1="32" x2="60" y2="88" class="solid"></line>
        <line x1="60" y1="88" x2="104" y2="88" class="solid"></line>
    </g>
    <g>
        <line x1="84" y1="32" x2="84" y2="72" class="solid"></line>
        <line x1="84" y1="72" x2="104" y2="72" class="solid"></line>
    </g>
    <g>
        <path d="M 216,64 A 16,16 0,0,0 216,80" class="nofill"></path>
        <path d="M 216,80 A 16,16 0,0,0 216,96" class="nofill"></path>
        <path d="M 216,96 A 16,16 0,0,0 216,112" class="nofill"></path>
    </g>
</svg>