<svg xmlns="http://www.w3.org/2000/svg" width="416" height="224" style="background:#ffffff;border:1px solid #e5e5e5;border-radius:8px;max-width:100%;height:auto"><rect x="0" y="0" width="100%" height="100%" fill="#ffffff"/>
    <style>
        line, path, circle, rect, polygon{stroke:black;stroke-width:2;stroke-opacity:1;fill-opacity:1;stroke-linecap:round;stroke-linejoin:miter;}text{font-family:Iosevka Fixed, monospace;font-size:14px;}rect.backdrop{stroke:none;fill:transparent;}.broken{stroke-dasharray:8;}.filled{fill:black;}.bg_filled{fill:transparent;}.nofill{fill:transparent;}.end_marked_arrow{marker-end:url(#arrow);}.start_marked_arrow{marker-start:url(#arrow);}.end_marked_diamond{marker-end:url(#diamond);}.start_marked_diamond{marker-start:url(#diamond);}.end_marked_circle{marker-end:url(#circle);}.start_marked_circle{marker-start:url(#circle);}.end_marked_open_circle{marker-end:url(#open_circle);}.start_marked_open_circle{marker-start:url(#open_circle);}.end_marked_big_open_circle{marker-end:url(#big_open_circle);}.start_marked_big_open_circle{marker-start:url(#big_open_circle);}
        <!--separator-->
        
    </style>
    <defs>
        <marker id="arrow" viewBox="-2 -2 8 8" refX="4" refY="2" markerWidth="7" markerHeight="7" orient="auto-start-reverse">
            <polygon points="0,0 0,4 4,2 0,0"></polygon>
        </marker>
        <marker id="diamond" viewBox="-2 -2 8 8" refX="4" refY="2" markerWidth="7" markerHeight="7" orient="auto-start-reverse">
            <polygon points="0,2 2,0 4,2 2,4 0,2"></polygon>
        </marker>
        <marker id="circle" viewBox="0 0 8 8" refX="4" refY="4" markerWidth="7" markerHeight="7" orient="auto-start-reverse">
            <circle cx="4" cy="4" r="2" class="filled"></circle>
        </marker>
        <marker id="open_circle" viewBox="0 0 8 8" refX="4" refY="4" markerWidth="7" markerHeight="7" orient="auto-start-reverse">
            <circle cx="4" cy="4" r="2" class="bg_filled"></circle>
        </marker>
        <marker id="big_open_circle" viewBox="0 0 8 8" refX="4" refY="4" markerWidth="7" markerHeight="7" orient="auto-start-reverse">
            <circle cx="4" cy="4" r="3" class="bg_filled"></circle>
        </marker>
    </defs>
    <rect class="backdrop" x="0" y="0" width="416" height="224"></rect>
    <text x="10" y="12" >APARTMENT</text>
    <text x="90" y="12" >BUILDING</text>
    <path d="M 168,0 A 16,16 0,0,0 168,16" class="nofill"></path>
    <text x="170" y="12" >Operating</text>
    <text x="250" y="12" >System</text>
    <path d="M 296,0 A 16,16 0,0,1 296,16" class="nofill"></path>
    <text x="34" y="44" >Apt</text>
    <text x="66" y="44" >101</text>
    <path d="M 104,32 A 16,16 0,0,0 104,48" class="nofill"></path>
    <text x="106" y="44" >Process</text>
    <text x="170" y="44" >A</text>
    <path d="M 176,32 A 16,16 0,0,1 176,48" class="nofill"></path>
    <text x="218" y="44" >Apt</text>
    <text x="250" y="44" >102</text>
    <path d="M 288,32 A 16,16 0,0,0 288,48" class="nofill"></path>
    <text x="290" y="44" >Process</text>
    <text x="354" y="44" >B</text>
    <path d="M 360,32 A 16,16 0,0,1 360,48" class="nofill"></path>
    <text x="42" y="76" >Roommate</text>
    <text x="114" y="76" >1</text>
    <text x="138" y="76" >T1</text>
    <text x="226" y="76" >Roommate</text>
    <text x="298" y="76" >1</text>
    <text x="322" y="76" >T1</text>
    <text x="42" y="92" >Roommate</text>
    <text x="114" y="92" >2</text>
    <text x="138" y="92" >T2</text>
    <text x="226" y="92" >Roommate</text>
    <text x="298" y="92" >2</text>
    <text x="322" y="92" >T2</text>
    <line x1="188" y1="96" x2="188" y2="144" class="solid"></line>
    <line x1="220" y1="96" x2="220" y2="144" class="solid"></line>
    <text x="234" y="108" >Roommate</text>
    <text x="306" y="108" >3</text>
    <path d="M 328,96 A 16,16 0,0,0 328,112" class="nofill"></path>
    <text x="330" y="108" >T3</text>
    <path d="M 344,96 A 16,16 0,0,1 344,112" class="nofill"></path>
    <line x1="372" y1="96" x2="372" y2="112" class="solid"></line>
    <line x1="396" y1="96" x2="396" y2="112" class="solid"></line>
    <text x="42" y="124" >[shared</text>
    <text x="106" y="124" >kitchen]</text>
    <text x="234" y="124" >[shared</text>
    <text x="298" y="124" >kitchen]</text>
    <line x1="380" y1="112" x2="380" y2="144" class="solid"></line>
    <line x1="404" y1="112" x2="404" y2="144" class="solid"></line>
    <text x="42" y="140" >[shared</text>
    <text x="106" y="140" >bathroom]</text>
    <text x="234" y="140" >[shared</text>
    <text x="298" y="140" >bathroom]</text>
    <line x1="388" y1="144" x2="388" y2="160" class="solid"></line>
    <text x="90" y="172" >WALLS</text>
    <text x="138" y="172" >BETWEEN</text>
    <text x="202" y="172" >APARTMENTS</text>
    <line x1="396" y1="160" x2="396" y2="192" class="solid"></line>
    <path d="M 64,176 A 16,16 0,0,0 64,192" class="nofill"></path>
    <text x="66" y="188" >separate</text>
    <text x="138" y="188" >address</text>
    <text x="202" y="188" >spaces,</text>
    <text x="266" y="188" >FDs,</text>
    <text x="306" y="188" >PIDs</text>
    <path d="M 336,176 A 16,16 0,0,1 336,192" class="nofill"></path>
    <g>
        <line x1="12" y1="24" x2="388" y2="24" class="solid"></line>
        <line x1="12" y1="24" x2="12" y2="200" class="solid"></line>
        <line x1="388" y1="24" x2="388" y2="96" class="solid"></line>
        <line x1="12" y1="200" x2="388" y2="200" class="solid"></line>
        <line x1="388" y1="192" x2="388" y2="200" class="solid"></line>
    </g>
    <g>
        <line x1="28" y1="56" x2="180" y2="56" class="solid"></line>
        <line x1="28" y1="56" x2="28" y2="152" class="solid"></line>
        <line x1="180" y1="56" x2="180" y2="96" class="solid"></line>
        <line x1="28" y1="152" x2="180" y2="152" class="solid"></line>
        <line x1="180" y1="144" x2="180" y2="152" class="solid"></line>
    </g>
    <g>
        <line x1="212" y1="56" x2="364" y2="56" class="solid"></line>
        <line x1="212" y1="56" x2="212" y2="96" class="solid"></line>
        <line x1="364" y1="56" x2="364" y2="96" class="solid"></line>
    </g>
    <g>
        <path d="M 136,64 A 16,16 0,0,0 136,80" class="nofill"></path>
        <path d="M 136,80 A 16,16 0,0,0 136,96" class="nofill"></path>
    </g>
    <g>
        <path d="M 152,64 A 16,16 0,0,1 152,80" class="nofill"></path>
        <path d="M 152,80 A 16,16 0,0,1 152,96" class="nofill"></path>
    </g>
    <g>
        <path d="M 320,64 A 16,16 0,0,0 320,80" class="nofill"></path>
        <path d="M 320,80 A 16,16 0,0,0 320,96" class="nofill"></path>
    </g>
    <g>
        <path d="M 336,64 A 16,16 0,0,1 336,80" class="nofill"></path>
        <path d="M 336,80 A 16,16 0,0,1 336,96" class="nofill"></path>
    </g>
    <g>
        <line x1="212" y1="144" x2="212" y2="152" class="solid"></line>
        <line x1="212" y1="152" x2="364" y2="152" class="solid"></line>
        <line x1="364" y1="144" x2="364" y2="152" class="solid"></line>
    </g>
</svg>