<svg xmlns="http://www.w3.org/2000/svg" width="496" height="176" style="background:#ffffff;border:1px solid #e5e5e5;border-radius:8px;max-width:100%;height:auto"><rect x="0" y="0" width="100%" height="100%" fill="#ffffff"/>
    <style>
        line, path, circle, rect, polygon{stroke:black;stroke-width:2;stroke-opacity:1;fill-opacity:1;stroke-linecap:round;stroke-linejoin:miter;}text{font-family:Iosevka Fixed, monospace;font-size:14px;}rect.backdrop{stroke:none;fill:transparent;}.broken{stroke-dasharray:8;}.filled{fill:black;}.bg_filled{fill:transparent;}.nofill{fill:transparent;}.end_marked_arrow{marker-end:url(#arrow);}.start_marked_arrow{marker-start:url(#arrow);}.end_marked_diamond{marker-end:url(#diamond);}.start_marked_diamond{marker-start:url(#diamond);}.end_marked_circle{marker-end:url(#circle);}.start_marked_circle{marker-start:url(#circle);}.end_marked_open_circle{marker-end:url(#open_circle);}.start_marked_open_circle{marker-start:url(#open_circle);}.end_marked_big_open_circle{marker-end:url(#big_open_circle);}.start_marked_big_open_circle{marker-start:url(#big_open_circle);}
        <!--separator-->
        
    </style>
    <defs>
        <marker id="arrow" viewBox="-2 -2 8 8" refX="4" refY="2" markerWidth="7" markerHeight="7" orient="auto-start-reverse">
            <polygon points="0,0 0,4 4,2 0,0"></polygon>
        </marker>
        <marker id="diamond" viewBox="-2 -2 8 8" refX="4" refY="2" markerWidth="7" markerHeight="7" orient="auto-start-reverse">
            <polygon points="0,2 2,0 4,2 2,4 0,2"></polygon>
        </marker>
        <marker id="circle" viewBox="0 0 8 8" refX="4" refY="4" markerWidth="7" markerHeight="7" orient="auto-start-reverse">
            <circle cx="4" cy="4" r="2" class="filled"></circle>
        </marker>
        <marker id="open_circle" viewBox="0 0 8 8" refX="4" refY="4" markerWidth="7" markerHeight="7" orient="auto-start-reverse">
            <circle cx="4" cy="4" r="2" class="bg_filled"></circle>
        </marker>
        <marker id="big_open_circle" viewBox="0 0 8 8" refX="4" refY="4" markerWidth="7" markerHeight="7" orient="auto-start-reverse">
            <circle cx="4" cy="4" r="3" class="bg_filled"></circle>
        </marker>
    </defs>
    <rect class="backdrop" x="0" y="0" width="496" height="176"></rect>
    <text x="18" y="12" >Virtual</text>
    <text x="82" y="12" >Address</text>
    <path d="M 152,0 A 16,16 0,0,0 152,16" class="nofill"></path>
    <text x="154" y="12" >48</text>
    <text x="178" y="12" >bits</text>
    <text x="218" y="12" >used</text>
    <text x="258" y="12" >on</text>
    <text x="282" y="12" >x86</text>
    <line x1="304" y1="8" x2="312" y2="8" class="solid"></line>
    <text x="314" y="12" >64</text>
    <path d="M 328,0 A 16,16 0,0,1 328,16" class="nofill"></path>
    <text x="338" y="12" >:</text>
    <text x="34" y="44" >PGD</text>
    <text x="66" y="44" >idx</text>
    <text x="114" y="44" >PUD</text>
    <text x="146" y="44" >idx</text>
    <text x="194" y="44" >PMD</text>
    <text x="226" y="44" >idx</text>
    <text x="274" y="44" >PTE</text>
    <text x="306" y="44" >idx</text>
    <text x="354" y="44" >Page</text>
    <text x="394" y="44" >offset</text>
    <path d="M 40,48 A 16,16 0,0,0 40,64" class="nofill"></path>
    <text x="42" y="60" >9</text>
    <text x="58" y="60" >bits</text>
    <path d="M 88,48 A 16,16 0,0,1 88,64" class="nofill"></path>
    <path d="M 120,48 A 16,16 0,0,0 120,64" class="nofill"></path>
    <text x="122" y="60" >9</text>
    <text x="138" y="60" >bits</text>
    <path d="M 168,48 A 16,16 0,0,1 168,64" class="nofill"></path>
    <path d="M 200,48 A 16,16 0,0,0 200,64" class="nofill"></path>
    <text x="202" y="60" >9</text>
    <text x="218" y="60" >bits</text>
    <path d="M 248,48 A 16,16 0,0,1 248,64" class="nofill"></path>
    <path d="M 280,48 A 16,16 0,0,0 280,64" class="nofill"></path>
    <text x="282" y="60" >9</text>
    <text x="298" y="60" >bits</text>
    <path d="M 328,48 A 16,16 0,0,1 328,64" class="nofill"></path>
    <path d="M 360,48 A 16,16 0,0,0 360,64" class="nofill"></path>
    <text x="362" y="60" >12</text>
    <text x="386" y="60" >bits</text>
    <path d="M 416,48 A 16,16 0,0,1 416,64" class="nofill"></path>
    <text x="42" y="124" >Level</text>
    <text x="122" y="124" >Level</text>
    <text x="202" y="124" >Level</text>
    <text x="282" y="124" >Level</text>
    <path d="M 48,128 A 16,16 0,0,0 48,144" class="nofill"></path>
    <text x="50" y="140" >512</text>
    <path d="M 128,128 A 16,16 0,0,0 128,144" class="nofill"></path>
    <text x="130" y="140" >512</text>
    <path d="M 208,128 A 16,16 0,0,0 208,144" class="nofill"></path>
    <text x="210" y="140" >512</text>
    <path d="M 288,128 A 16,16 0,0,0 288,144" class="nofill"></path>
    <text x="290" y="140" >512</text>
    <text x="42" y="156" >entries</text>
    <path d="M 96,144 A 16,16 0,0,1 96,160" class="nofill"></path>
    <text x="122" y="156" >entries</text>
    <path d="M 176,144 A 16,16 0,0,1 176,160" class="nofill"></path>
    <text x="202" y="156" >entries</text>
    <path d="M 256,144 A 16,16 0,0,1 256,160" class="nofill"></path>
    <text x="282" y="156" >entries</text>
    <path d="M 336,144 A 16,16 0,0,1 336,160" class="nofill"></path>
    <text x="90" y="124" >4</text>
    <text x="170" y="124" >3</text>
    <text x="250" y="124" >2</text>
    <text x="330" y="124" >1</text>
    <text x="362" y="124" >→</text>
    <text x="378" y="124" >Physical</text>
    <text x="450" y="124" >Frame</text>
    <g>
        <line x1="20" y1="24" x2="460" y2="24" class="solid"></line>
        <line x1="20" y1="24" x2="20" y2="72" class="solid"></line>
        <line x1="100" y1="24" x2="100" y2="72" class="solid"></line>
        <line x1="180" y1="24" x2="180" y2="72" class="solid"></line>
        <line x1="260" y1="24" x2="260" y2="72" class="solid"></line>
        <line x1="340" y1="24" x2="340" y2="72" class="solid"></line>
        <line x1="460" y1="24" x2="460" y2="72" class="solid"></line>
        <line x1="20" y1="72" x2="460" y2="72" class="solid"></line>
        <line x1="60" y1="72" x2="60" y2="100" class="solid"></line>
        <line x1="140" y1="72" x2="140" y2="100" class="solid"></line>
        <line x1="220" y1="72" x2="220" y2="100" class="solid"></line>
        <line x1="300" y1="72" x2="300" y2="100" class="solid"></line>
        <polygon points="56,100 64,100 60,112" class="filled"></polygon>
        <polygon points="136,100 144,100 140,112" class="filled"></polygon>
        <polygon points="216,100 224,100 220,112" class="filled"></polygon>
        <polygon points="296,100 304,100 300,112" class="filled"></polygon>
    </g>
</svg>