<svg xmlns="http://www.w3.org/2000/svg" width="304" height="208" style="background:#ffffff;border:1px solid #e5e5e5;border-radius:8px;max-width:100%;height:auto"><rect x="0" y="0" width="100%" height="100%" fill="#ffffff"/>
    <style>
        line, path, circle, rect, polygon{stroke:black;stroke-width:2;stroke-opacity:1;fill-opacity:1;stroke-linecap:round;stroke-linejoin:miter;}text{font-family:Iosevka Fixed, monospace;font-size:14px;}rect.backdrop{stroke:none;fill:transparent;}.broken{stroke-dasharray:8;}.filled{fill:black;}.bg_filled{fill:transparent;}.nofill{fill:transparent;}.end_marked_arrow{marker-end:url(#arrow);}.start_marked_arrow{marker-start:url(#arrow);}.end_marked_diamond{marker-end:url(#diamond);}.start_marked_diamond{marker-start:url(#diamond);}.end_marked_circle{marker-end:url(#circle);}.start_marked_circle{marker-start:url(#circle);}.end_marked_open_circle{marker-end:url(#open_circle);}.start_marked_open_circle{marker-start:url(#open_circle);}.end_marked_big_open_circle{marker-end:url(#big_open_circle);}.start_marked_big_open_circle{marker-start:url(#big_open_circle);}
        <!--separator-->
        
    </style>
    <defs>
        <marker id="arrow" viewBox="-2 -2 8 8" refX="4" refY="2" markerWidth="7" markerHeight="7" orient="auto-start-reverse">
            <polygon points="0,0 0,4 4,2 0,0"></polygon>
        </marker>
        <marker id="diamond" viewBox="-2 -2 8 8" refX="4" refY="2" markerWidth="7" markerHeight="7" orient="auto-start-reverse">
            <polygon points="0,2 2,0 4,2 2,4 0,2"></polygon>
        </marker>
        <marker id="circle" viewBox="0 0 8 8" refX="4" refY="4" markerWidth="7" markerHeight="7" orient="auto-start-reverse">
            <circle cx="4" cy="4" r="2" class="filled"></circle>
        </marker>
        <marker id="open_circle" viewBox="0 0 8 8" refX="4" refY="4" markerWidth="7" markerHeight="7" orient="auto-start-reverse">
            <circle cx="4" cy="4" r="2" class="bg_filled"></circle>
        </marker>
        <marker id="big_open_circle" viewBox="0 0 8 8" refX="4" refY="4" markerWidth="7" markerHeight="7" orient="auto-start-reverse">
            <circle cx="4" cy="4" r="3" class="bg_filled"></circle>
        </marker>
    </defs>
    <rect class="backdrop" x="0" y="0" width="304" height="208"></rect>
    <text x="18" y="12" >Process</text>
    <text x="82" y="12" >File</text>
    <text x="122" y="12" >Descriptor</text>
    <text x="210" y="12" >Table</text>
    <text x="34" y="44" >FD</text>
    <text x="82" y="44" >What</text>
    <text x="122" y="44" >it</text>
    <text x="146" y="44" >points</text>
    <text x="202" y="44" >to</text>
    <text x="42" y="76" >0</text>
    <text x="82" y="76" >stdin</text>
    <text x="146" y="76" >terminal</text>
    <text x="218" y="76" >input</text>
    <path d="M 256,64 A 16,16 0,0,1 256,80" class="nofill"></path>
    <text x="42" y="92" >1</text>
    <text x="82" y="92" >stdout</text>
    <text x="146" y="92" >terminal</text>
    <text x="218" y="92" >output</text>
    <text x="42" y="108" >2</text>
    <text x="82" y="108" >stderr</text>
    <text x="146" y="108" >terminal</text>
    <text x="218" y="108" >errors</text>
    <text x="42" y="124" >3</text>
    <line x1="88" y1="112" x2="80" y2="128" class="solid"></line>
    <text x="90" y="124" >var</text>
    <line x1="120" y1="112" x2="112" y2="128" class="solid"></line>
    <text x="122" y="124" >log</text>
    <line x1="152" y1="112" x2="144" y2="128" class="solid"></line>
    <text x="154" y="124" >app.log</text>
    <path d="M 224,112 A 16,16 0,0,0 224,128" class="nofill"></path>
    <text x="226" y="124" >file)</text>
    <text x="42" y="140" >4</text>
    <text x="82" y="140" >TCP</text>
    <text x="114" y="140" >socket</text>
    <text x="170" y="140" >to</text>
    <text x="194" y="140" >10.0.0.5:80</text>
    <text x="42" y="156" >5</text>
    <text x="82" y="156" >Unix</text>
    <text x="122" y="156" >socket</text>
    <text x="178" y="156" >to</text>
    <line x1="208" y1="144" x2="200" y2="160" class="solid"></line>
    <text x="210" y="156" >tmp</text>
    <line x1="240" y1="144" x2="232" y2="160" class="solid"></line>
    <text x="242" y="156" >db</text>
    <text x="42" y="172" >6</text>
    <text x="82" y="172" >pipe</text>
    <path d="M 128,160 A 16,16 0,0,0 128,176" class="nofill"></path>
    <text x="130" y="172" >read</text>
    <text x="170" y="172" >end</text>
    <path d="M 192,160 A 16,16 0,0,1 192,176" class="nofill"></path>
    <g>
        <line x1="20" y1="24" x2="292" y2="24" class="solid"></line>
        <line x1="20" y1="24" x2="20" y2="184" class="solid"></line>
        <line x1="68" y1="24" x2="68" y2="184" class="solid"></line>
        <line x1="292" y1="24" x2="292" y2="184" class="solid"></line>
        <line x1="20" y1="56" x2="292" y2="56" class="solid"></line>
        <line x1="20" y1="184" x2="292" y2="184" class="solid"></line>
    </g>
    <g>
        <path d="M 144,64 A 16,16 0,0,0 144,80" class="nofill"></path>
        <path d="M 144,80 A 16,16 0,0,0 144,96" class="nofill"></path>
        <path d="M 144,96 A 16,16 0,0,0 144,112" class="nofill"></path>
    </g>
    <g>
        <path d="M 264,80 A 16,16 0,0,1 264,96" class="nofill"></path>
        <path d="M 264,96 A 16,16 0,0,1 264,112" class="nofill"></path>
    </g>
</svg>