<svg xmlns="http://www.w3.org/2000/svg" width="408" height="528" style="background:#ffffff;border:1px solid #e5e5e5;border-radius:8px;max-width:100%;height:auto"><rect x="0" y="0" width="100%" height="100%" fill="#ffffff"/>
    <style>
        line, path, circle, rect, polygon{stroke:black;stroke-width:2;stroke-opacity:1;fill-opacity:1;stroke-linecap:round;stroke-linejoin:miter;}text{font-family:Iosevka Fixed, monospace;font-size:14px;}rect.backdrop{stroke:none;fill:transparent;}.broken{stroke-dasharray:8;}.filled{fill:black;}.bg_filled{fill:transparent;}.nofill{fill:transparent;}.end_marked_arrow{marker-end:url(#arrow);}.start_marked_arrow{marker-start:url(#arrow);}.end_marked_diamond{marker-end:url(#diamond);}.start_marked_diamond{marker-start:url(#diamond);}.end_marked_circle{marker-end:url(#circle);}.start_marked_circle{marker-start:url(#circle);}.end_marked_open_circle{marker-end:url(#open_circle);}.start_marked_open_circle{marker-start:url(#open_circle);}.end_marked_big_open_circle{marker-end:url(#big_open_circle);}.start_marked_big_open_circle{marker-start:url(#big_open_circle);}
        <!--separator-->
        
    </style>
    <defs>
        <marker id="arrow" viewBox="-2 -2 8 8" refX="4" refY="2" markerWidth="7" markerHeight="7" orient="auto-start-reverse">
            <polygon points="0,0 0,4 4,2 0,0"></polygon>
        </marker>
        <marker id="diamond" viewBox="-2 -2 8 8" refX="4" refY="2" markerWidth="7" markerHeight="7" orient="auto-start-reverse">
            <polygon points="0,2 2,0 4,2 2,4 0,2"></polygon>
        </marker>
        <marker id="circle" viewBox="0 0 8 8" refX="4" refY="4" markerWidth="7" markerHeight="7" orient="auto-start-reverse">
            <circle cx="4" cy="4" r="2" class="filled"></circle>
        </marker>
        <marker id="open_circle" viewBox="0 0 8 8" refX="4" refY="4" markerWidth="7" markerHeight="7" orient="auto-start-reverse">
            <circle cx="4" cy="4" r="2" class="bg_filled"></circle>
        </marker>
        <marker id="big_open_circle" viewBox="0 0 8 8" refX="4" refY="4" markerWidth="7" markerHeight="7" orient="auto-start-reverse">
            <circle cx="4" cy="4" r="3" class="bg_filled"></circle>
        </marker>
    </defs>
    <rect class="backdrop" x="0" y="0" width="408" height="528"></rect>
    <rect x="52" y="104" width="88" height="64" class="solid nofill" rx="0"></rect>
    <text x="66" y="124" >Virtual</text>
    <text x="66" y="140" >Disk</text>
    <path d="M 64,144 A 16,16 0,0,0 64,160" class="nofill"></path>
    <text x="66" y="156" >qcow2</text>
    <path d="M 104,144 A 16,16 0,0,1 104,160" class="nofill"></path>
    <rect x="164" y="104" width="88" height="64" class="solid nofill" rx="0"></rect>
    <text x="178" y="124" >Virtual</text>
    <text x="178" y="140" >NIC</text>
    <path d="M 176,144 A 16,16 0,0,0 176,160" class="nofill"></path>
    <text x="178" y="156" >virtio</text>
    <path d="M 224,144 A 16,16 0,0,1 224,160" class="nofill"></path>
    <rect x="276" y="104" width="56" height="64" class="solid nofill" rx="0"></rect>
    <text x="290" y="124" >Virt</text>
    <text x="290" y="140" >GPU</text>
    <path d="M 288,144 A 16,16 0,0,0 288,160" class="nofill"></path>
    <text x="290" y="156" >VGA</text>
    <path d="M 312,144 A 16,16 0,0,1 312,160" class="nofill"></path>
    <text x="154" y="28" >User</text>
    <text x="194" y="28" >Space</text>
    <line x1="388" y1="16" x2="388" y2="64" class="solid"></line>
    <text x="146" y="76" >QEMU</text>
    <text x="186" y="76" >Process</text>
    <line x1="364" y1="64" x2="364" y2="96" class="solid"></line>
    <line x1="396" y1="64" x2="396" y2="96" class="solid"></line>
    <line x1="356" y1="96" x2="356" y2="176" class="solid"></line>
    <line x1="388" y1="96" x2="388" y2="176" class="solid"></line>
    <line x1="364" y1="176" x2="364" y2="208" class="solid"></line>
    <line x1="396" y1="176" x2="396" y2="208" class="solid"></line>
    <text x="50" y="204" >ioctl</text>
    <text x="106" y="204" >dev</text>
    <line x1="136" y1="192" x2="128" y2="208" class="solid"></line>
    <text x="138" y="204" >kvm</text>
    <path d="M 160,192 A 16,16 0,0,1 160,208" class="nofill"></path>
    <text x="178" y="204" >for</text>
    <text x="210" y="204" >CPU</text>
    <text x="242" y="204" >execution</text>
    <line x1="388" y1="208" x2="388" y2="224" class="solid"></line>
    <text x="138" y="268" >Kernel</text>
    <text x="194" y="268" >Space</text>
    <line x1="388" y1="288" x2="388" y2="304" class="solid"></line>
    <text x="146" y="316" >KVM</text>
    <text x="178" y="316" >Module</text>
    <line x1="364" y1="304" x2="364" y2="320" class="solid"></line>
    <line x1="396" y1="304" x2="396" y2="320" class="solid"></line>
    <line x1="48" y1="328" x2="56" y2="328" class="solid"></line>
    <text x="66" y="332" >CPU</text>
    <text x="98" y="332" >scheduling</text>
    <path d="M 192,320 A 16,16 0,0,0 192,336" class="nofill"></path>
    <text x="194" y="332" >VMX</text>
    <text x="226" y="332" >operations</text>
    <path d="M 304,320 A 16,16 0,0,1 304,336" class="nofill"></path>
    <line x1="356" y1="320" x2="356" y2="336" class="solid"></line>
    <line x1="388" y1="320" x2="388" y2="336" class="solid"></line>
    <line x1="48" y1="344" x2="56" y2="344" class="solid"></line>
    <text x="66" y="348" >Memory</text>
    <text x="122" y="348" >mgmt</text>
    <path d="M 168,336 A 16,16 0,0,0 168,352" class="nofill"></path>
    <text x="170" y="348" >EPT</text>
    <line x1="200" y1="336" x2="192" y2="352" class="solid"></line>
    <text x="202" y="348" >NPT</text>
    <path d="M 224,336 A 16,16 0,0,1 224,352" class="nofill"></path>
    <line x1="348" y1="336" x2="348" y2="352" class="solid"></line>
    <line x1="380" y1="336" x2="380" y2="352" class="solid"></line>
    <line x1="48" y1="360" x2="56" y2="360" class="solid"></line>
    <text x="66" y="364" >Interrupt</text>
    <text x="146" y="364" >handling</text>
    <line x1="388" y1="352" x2="388" y2="384" class="solid"></line>
    <line x1="388" y1="432" x2="388" y2="448" class="solid"></line>
    <text x="106" y="460" >Physical</text>
    <text x="178" y="460" >Hardware</text>
    <line x1="364" y1="448" x2="364" y2="464" class="solid"></line>
    <line x1="396" y1="448" x2="396" y2="464" class="solid"></line>
    <text x="58" y="476" >CPU</text>
    <path d="M 96,464 A 16,16 0,0,0 96,480" class="nofill"></path>
    <text x="98" y="476" >VT</text>
    <line x1="112" y1="472" x2="120" y2="472" class="solid"></line>
    <text x="122" y="476" >x</text>
    <line x1="136" y1="464" x2="128" y2="480" class="solid"></line>
    <text x="138" y="476" >AMD</text>
    <line x1="160" y1="472" x2="168" y2="472" class="solid"></line>
    <text x="170" y="476" >V</text>
    <path d="M 176,464 A 16,16 0,0,1 176,480" class="nofill"></path>
    <text x="202" y="476" >RAM</text>
    <text x="242" y="476" >Disk</text>
    <text x="290" y="476" >NIC</text>
    <line x1="348" y1="464" x2="348" y2="480" class="solid"></line>
    <line x1="380" y1="464" x2="380" y2="480" class="solid"></line>
    <line x1="388" y1="480" x2="388" y2="496" class="solid"></line>
    <g>
        <line x1="4" y1="8" x2="380" y2="8" class="solid"></line>
        <line x1="4" y1="8" x2="4" y2="504" class="solid"></line>
        <line x1="380" y1="8" x2="380" y2="16" class="solid"></line>
        <line x1="4" y1="504" x2="380" y2="504" class="solid"></line>
        <line x1="380" y1="496" x2="380" y2="504" class="solid"></line>
        <line x1="396" y1="224" x2="396" y2="288" class="solid"></line>
        <line x1="4" y1="248" x2="396" y2="248" class="solid"></line>
        <line x1="396" y1="384" x2="396" y2="432" class="solid"></line>
        <line x1="4" y1="408" x2="396" y2="408" class="solid"></line>
    </g>
    <g>
        <line x1="28" y1="56" x2="356" y2="56" class="solid"></line>
        <line x1="28" y1="56" x2="28" y2="216" class="solid"></line>
        <line x1="356" y1="56" x2="356" y2="64" class="solid"></line>
        <line x1="28" y1="216" x2="356" y2="216" class="solid"></line>
        <line x1="188" y1="216" x2="188" y2="256" class="solid"></line>
        <line x1="356" y1="208" x2="356" y2="216" class="solid"></line>
    </g>
    <g>
        <path d="M 96,192 A 16,16 0,0,0 96,208" class="nofill"></path>
        <line x1="104" y1="192" x2="96" y2="208" class="solid"></line>
    </g>
    <g>
        <line x1="188" y1="272" x2="188" y2="296" class="solid"></line>
        <line x1="28" y1="296" x2="356" y2="296" class="solid"></line>
        <line x1="28" y1="296" x2="28" y2="376" class="solid"></line>
        <line x1="356" y1="296" x2="356" y2="304" class="solid"></line>
        <line x1="356" y1="352" x2="356" y2="376" class="solid"></line>
        <line x1="28" y1="376" x2="356" y2="376" class="solid"></line>
        <line x1="188" y1="376" x2="188" y2="440" class="solid"></line>
        <line x1="28" y1="440" x2="356" y2="440" class="solid"></line>
        <line x1="28" y1="440" x2="28" y2="488" class="solid"></line>
        <line x1="356" y1="440" x2="356" y2="448" class="solid"></line>
        <line x1="28" y1="488" x2="356" y2="488" class="solid"></line>
        <line x1="356" y1="480" x2="356" y2="488" class="solid"></line>
    </g>
</svg>