<svg xmlns="http://www.w3.org/2000/svg" width="408" height="352" style="background:#ffffff;border:1px solid #e5e5e5;border-radius:8px;max-width:100%;height:auto"><rect x="0" y="0" width="100%" height="100%" fill="#ffffff"/>
    <style>
        line, path, circle, rect, polygon{stroke:black;stroke-width:2;stroke-opacity:1;fill-opacity:1;stroke-linecap:round;stroke-linejoin:miter;}text{font-family:Iosevka Fixed, monospace;font-size:14px;}rect.backdrop{stroke:none;fill:transparent;}.broken{stroke-dasharray:8;}.filled{fill:black;}.bg_filled{fill:transparent;}.nofill{fill:transparent;}.end_marked_arrow{marker-end:url(#arrow);}.start_marked_arrow{marker-start:url(#arrow);}.end_marked_diamond{marker-end:url(#diamond);}.start_marked_diamond{marker-start:url(#diamond);}.end_marked_circle{marker-end:url(#circle);}.start_marked_circle{marker-start:url(#circle);}.end_marked_open_circle{marker-end:url(#open_circle);}.start_marked_open_circle{marker-start:url(#open_circle);}.end_marked_big_open_circle{marker-end:url(#big_open_circle);}.start_marked_big_open_circle{marker-start:url(#big_open_circle);}
        <!--separator-->
        
    </style>
    <defs>
        <marker id="arrow" viewBox="-2 -2 8 8" refX="4" refY="2" markerWidth="7" markerHeight="7" orient="auto-start-reverse">
            <polygon points="0,0 0,4 4,2 0,0"></polygon>
        </marker>
        <marker id="diamond" viewBox="-2 -2 8 8" refX="4" refY="2" markerWidth="7" markerHeight="7" orient="auto-start-reverse">
            <polygon points="0,2 2,0 4,2 2,4 0,2"></polygon>
        </marker>
        <marker id="circle" viewBox="0 0 8 8" refX="4" refY="4" markerWidth="7" markerHeight="7" orient="auto-start-reverse">
            <circle cx="4" cy="4" r="2" class="filled"></circle>
        </marker>
        <marker id="open_circle" viewBox="0 0 8 8" refX="4" refY="4" markerWidth="7" markerHeight="7" orient="auto-start-reverse">
            <circle cx="4" cy="4" r="2" class="bg_filled"></circle>
        </marker>
        <marker id="big_open_circle" viewBox="0 0 8 8" refX="4" refY="4" markerWidth="7" markerHeight="7" orient="auto-start-reverse">
            <circle cx="4" cy="4" r="3" class="bg_filled"></circle>
        </marker>
    </defs>
    <rect class="backdrop" x="0" y="0" width="408" height="352"></rect>
    <rect x="52" y="88" width="248" height="80" class="solid nofill" rx="0"></rect>
    <text x="74" y="108" >KVM</text>
    <line x1="112" y1="96" x2="104" y2="112" class="solid"></line>
    <text x="122" y="108" >Hypervisor</text>
    <line x1="72" y1="120" x2="80" y2="120" class="solid"></line>
    <text x="90" y="124" >Handles</text>
    <text x="154" y="124" >VM</text>
    <text x="178" y="124" >exits</text>
    <line x1="72" y1="136" x2="80" y2="136" class="solid"></line>
    <text x="90" y="140" >Manages</text>
    <text x="154" y="140" >VM</text>
    <text x="178" y="140" >state</text>
    <path d="M 232,128 A 16,16 0,0,0 232,144" class="nofill"></path>
    <text x="234" y="140" >VMCS</text>
    <path d="M 264,128 A 16,16 0,0,1 264,144" class="nofill"></path>
    <line x1="72" y1="152" x2="80" y2="152" class="solid"></line>
    <text x="90" y="156" >Allocates</text>
    <text x="170" y="156" >resources</text>
    <text x="122" y="28" >CPU</text>
    <text x="154" y="28" >Execution</text>
    <text x="234" y="28" >Modes</text>
    <line x1="380" y1="16" x2="380" y2="256" class="solid"></line>
    <text x="50" y="76" >VMX</text>
    <text x="82" y="76" >Root</text>
    <text x="122" y="76" >Mode</text>
    <path d="M 168,64 A 16,16 0,0,0 168,80" class="nofill"></path>
    <text x="170" y="76" >Ring</text>
    <text x="210" y="76" >0</text>
    <path d="M 216,64 A 16,16 0,0,1 216,80" class="nofill"></path>
    <text x="74" y="204" >VM</text>
    <text x="98" y="204" >exit</text>
    <text x="194" y="204" >entry</text>
    <text x="50" y="236" >VMX</text>
    <text x="82" y="236" >Non</text>
    <line x1="104" y1="232" x2="112" y2="232" class="solid"></line>
    <text x="114" y="236" >Root</text>
    <text x="154" y="236" >Mode</text>
    <text x="66" y="268" >Guest</text>
    <text x="114" y="268" >Ring</text>
    <text x="154" y="268" >0</text>
    <line x1="164" y1="256" x2="164" y2="288" class="solid"></line>
    <line x1="188" y1="256" x2="188" y2="288" class="solid"></line>
    <text x="202" y="268" >Guest</text>
    <text x="250" y="268" >Ring</text>
    <text x="290" y="268" >3</text>
    <line x1="300" y1="256" x2="300" y2="288" class="solid"></line>
    <path d="M 72,272 A 16,16 0,0,0 72,288" class="nofill"></path>
    <text x="74" y="284" >kernel</text>
    <path d="M 120,272 A 16,16 0,0,1 120,288" class="nofill"></path>
    <path d="M 208,272 A 16,16 0,0,0 208,288" class="nofill"></path>
    <text x="210" y="284" >userspace)</text>
    <line x1="380" y1="288" x2="380" y2="320" class="solid"></line>
    <line x1="348" y1="256" x2="348" y2="288" class="solid"></line>
    <line x1="396" y1="256" x2="396" y2="288" class="solid"></line>
    <g>
        <line x1="4" y1="8" x2="372" y2="8" class="solid"></line>
        <line x1="4" y1="8" x2="4" y2="328" class="solid"></line>
        <line x1="372" y1="8" x2="372" y2="16" class="solid"></line>
        <line x1="4" y1="328" x2="372" y2="328" class="solid"></line>
        <line x1="372" y1="320" x2="372" y2="328" class="solid"></line>
    </g>
    <g>
        <line x1="28" y1="56" x2="332" y2="56" class="solid"></line>
        <line x1="28" y1="56" x2="28" y2="184" class="solid"></line>
        <line x1="332" y1="56" x2="332" y2="184" class="solid"></line>
        <line x1="28" y1="184" x2="332" y2="184" class="solid"></line>
        <line x1="148" y1="184" x2="148" y2="216" class="solid"></line>
        <line x1="28" y1="216" x2="332" y2="216" class="solid"></line>
        <line x1="28" y1="216" x2="28" y2="312" class="solid"></line>
        <line x1="332" y1="216" x2="332" y2="256" class="solid"></line>
        <line x1="332" y1="288" x2="332" y2="312" class="solid"></line>
        <line x1="28" y1="312" x2="332" y2="312" class="solid"></line>
    </g>
    <g>
        <text x="138" y="204">↑</text>
        <text x="154" y="204">↓</text>
        <text x="170" y="204">VM</text>
    </g>
    <g>
        <line x1="52" y1="248" x2="156" y2="248" class="solid"></line>
        <line x1="52" y1="248" x2="52" y2="296" class="solid"></line>
        <line x1="156" y1="248" x2="156" y2="256" class="solid"></line>
        <line x1="52" y1="296" x2="156" y2="296" class="solid"></line>
        <line x1="156" y1="288" x2="156" y2="296" class="solid"></line>
    </g>
    <g>
        <line x1="180" y1="248" x2="284" y2="248" class="solid"></line>
        <line x1="180" y1="248" x2="180" y2="256" class="solid"></line>
        <line x1="284" y1="248" x2="284" y2="256" class="solid"></line>
    </g>
    <g>
        <line x1="180" y1="288" x2="180" y2="296" class="solid"></line>
        <line x1="180" y1="296" x2="284" y2="296" class="solid"></line>
        <line x1="284" y1="288" x2="284" y2="296" class="solid"></line>
    </g>
</svg>