<svg xmlns="http://www.w3.org/2000/svg" width="576" height="352" style="background:#ffffff;border:1px solid #e5e5e5;border-radius:8px;max-width:100%;height:auto"><rect x="0" y="0" width="100%" height="100%" fill="#ffffff"/>
    <style>
        line, path, circle, rect, polygon{stroke:black;stroke-width:2;stroke-opacity:1;fill-opacity:1;stroke-linecap:round;stroke-linejoin:miter;}text{font-family:Iosevka Fixed, monospace;font-size:14px;}rect.backdrop{stroke:none;fill:transparent;}.broken{stroke-dasharray:8;}.filled{fill:black;}.bg_filled{fill:transparent;}.nofill{fill:transparent;}.end_marked_arrow{marker-end:url(#arrow);}.start_marked_arrow{marker-start:url(#arrow);}.end_marked_diamond{marker-end:url(#diamond);}.start_marked_diamond{marker-start:url(#diamond);}.end_marked_circle{marker-end:url(#circle);}.start_marked_circle{marker-start:url(#circle);}.end_marked_open_circle{marker-end:url(#open_circle);}.start_marked_open_circle{marker-start:url(#open_circle);}.end_marked_big_open_circle{marker-end:url(#big_open_circle);}.start_marked_big_open_circle{marker-start:url(#big_open_circle);}
        <!--separator-->
        
    </style>
    <defs>
        <marker id="arrow" viewBox="-2 -2 8 8" refX="4" refY="2" markerWidth="7" markerHeight="7" orient="auto-start-reverse">
            <polygon points="0,0 0,4 4,2 0,0"></polygon>
        </marker>
        <marker id="diamond" viewBox="-2 -2 8 8" refX="4" refY="2" markerWidth="7" markerHeight="7" orient="auto-start-reverse">
            <polygon points="0,2 2,0 4,2 2,4 0,2"></polygon>
        </marker>
        <marker id="circle" viewBox="0 0 8 8" refX="4" refY="4" markerWidth="7" markerHeight="7" orient="auto-start-reverse">
            <circle cx="4" cy="4" r="2" class="filled"></circle>
        </marker>
        <marker id="open_circle" viewBox="0 0 8 8" refX="4" refY="4" markerWidth="7" markerHeight="7" orient="auto-start-reverse">
            <circle cx="4" cy="4" r="2" class="bg_filled"></circle>
        </marker>
        <marker id="big_open_circle" viewBox="0 0 8 8" refX="4" refY="4" markerWidth="7" markerHeight="7" orient="auto-start-reverse">
            <circle cx="4" cy="4" r="3" class="bg_filled"></circle>
        </marker>
    </defs>
    <rect class="backdrop" x="0" y="0" width="576" height="352"></rect>
    <text x="2" y="12" >Hardware</text>
    <text x="74" y="12" >Abstraction</text>
    <path d="M 176,0 A 16,16 0,0,0 176,16" class="nofill"></path>
    <text x="178" y="12" >VMs</text>
    <path d="M 200,0 A 16,16 0,0,1 200,16" class="nofill"></path>
    <text x="210" y="12" >:</text>
    <text x="330" y="12" >OS</text>
    <text x="354" y="12" >Abstraction</text>
    <path d="M 456,0 A 16,16 0,0,0 456,16" class="nofill"></path>
    <text x="458" y="12" >Containers</text>
    <path d="M 536,0 A 16,16 0,0,1 536,16" class="nofill"></path>
    <text x="546" y="12" >:</text>
    <text x="26" y="60" >App</text>
    <text x="58" y="60" >A</text>
    <text x="98" y="60" >App</text>
    <text x="130" y="60" >B</text>
    <text x="170" y="60" >App</text>
    <text x="202" y="60" >C</text>
    <line x1="236" y1="64" x2="236" y2="192" class="solid"></line>
    <text x="34" y="92" >Libs</text>
    <text x="98" y="92" >Libs</text>
    <text x="162" y="92" >Libs</text>
    <text x="34" y="124" >Guest</text>
    <text x="98" y="124" >Guest</text>
    <text x="162" y="124" >Guest</text>
    <text x="42" y="140" >OS</text>
    <text x="106" y="140" >OS</text>
    <text x="170" y="140" >OS</text>
    <text x="74" y="204" >Hypervisor</text>
    <line x1="196" y1="192" x2="196" y2="208" class="solid"></line>
    <line x1="244" y1="192" x2="244" y2="208" class="solid"></line>
    <line x1="236" y1="208" x2="236" y2="240" class="solid"></line>
    <text x="58" y="252" >Physical</text>
    <text x="130" y="252" >Hardware</text>
    <line x1="196" y1="240" x2="196" y2="256" class="solid"></line>
    <line x1="244" y1="240" x2="244" y2="256" class="solid"></line>
    <line x1="236" y1="256" x2="236" y2="272" class="solid"></line>
    <text x="306" y="60" >App</text>
    <text x="338" y="60" >A</text>
    <text x="378" y="60" >App</text>
    <text x="410" y="60" >B</text>
    <text x="450" y="60" >App</text>
    <text x="482" y="60" >C</text>
    <line x1="276" y1="64" x2="276" y2="192" class="solid"></line>
    <text x="306" y="92" >Libs</text>
    <text x="370" y="92" >Libs</text>
    <text x="434" y="92" >Libs</text>
    <text x="322" y="156" >Container</text>
    <text x="402" y="156" >Runtime</text>
    <line x1="484" y1="144" x2="484" y2="160" class="solid"></line>
    <line x1="284" y1="192" x2="284" y2="208" class="solid"></line>
    <line x1="332" y1="192" x2="332" y2="208" class="solid"></line>
    <text x="354" y="204" >Host</text>
    <text x="394" y="204" >Kernel</text>
    <line x1="276" y1="208" x2="276" y2="240" class="solid"></line>
    <line x1="284" y1="240" x2="284" y2="256" class="solid"></line>
    <line x1="332" y1="240" x2="332" y2="256" class="solid"></line>
    <text x="338" y="252" >Physical</text>
    <text x="410" y="252" >Hardware</text>
    <line x1="476" y1="240" x2="476" y2="256" class="solid"></line>
    <line x1="276" y1="256" x2="276" y2="272" class="solid"></line>
    <line x1="508" y1="256" x2="508" y2="272" class="solid"></line>
    <line x1="508" y1="64" x2="508" y2="112" class="solid"></line>
    <line x1="516" y1="112" x2="516" y2="144" class="solid"></line>
    <line x1="524" y1="144" x2="524" y2="160" class="solid"></line>
    <line x1="516" y1="160" x2="516" y2="176" class="solid"></line>
    <line x1="508" y1="176" x2="508" y2="192" class="solid"></line>
    <line x1="468" y1="192" x2="468" y2="208" class="solid"></line>
    <line x1="524" y1="192" x2="524" y2="208" class="solid"></line>
    <line x1="508" y1="208" x2="508" y2="240" class="solid"></line>
    <line x1="532" y1="240" x2="532" y2="256" class="solid"></line>
    <text x="2" y="316" >Each</text>
    <text x="42" y="316" >VM:</text>
    <text x="74" y="316" >full</text>
    <text x="114" y="316" >OS</text>
    <text x="2" y="332" >Strong</text>
    <text x="58" y="332" >isolation</text>
    <text x="138" y="316" >kernel</text>
    <text x="138" y="332" >boundary</text>
    <text x="322" y="316" >All</text>
    <text x="354" y="316" >containers:</text>
    <text x="450" y="316" >shared</text>
    <text x="506" y="316" >kernel</text>
    <text x="322" y="332" >Lighter,</text>
    <text x="394" y="332" >faster,</text>
    <text x="458" y="332" >less</text>
    <text x="498" y="332" >isolation</text>
    <g>
        <line x1="4" y1="40" x2="244" y2="40" class="solid"></line>
        <line x1="4" y1="40" x2="4" y2="280" class="solid"></line>
        <line x1="244" y1="40" x2="244" y2="64" class="solid"></line>
        <line x1="4" y1="280" x2="244" y2="280" class="solid"></line>
        <line x1="244" y1="272" x2="244" y2="280" class="solid"></line>
    </g>
    <g>
        <line x1="28" y1="72" x2="76" y2="72" class="solid"></line>
        <line x1="28" y1="72" x2="28" y2="152" class="solid"></line>
        <line x1="76" y1="72" x2="76" y2="152" class="solid"></line>
        <line x1="28" y1="104" x2="76" y2="104" class="solid"></line>
        <line x1="28" y1="152" x2="76" y2="152" class="solid"></line>
        <line x1="52" y1="152" x2="52" y2="168" class="solid"></line>
        <line x1="156" y1="72" x2="204" y2="72" class="solid"></line>
        <line x1="156" y1="72" x2="156" y2="152" class="solid"></line>
        <line x1="204" y1="72" x2="204" y2="152" class="solid"></line>
        <line x1="156" y1="104" x2="204" y2="104" class="solid"></line>
        <line x1="156" y1="152" x2="204" y2="152" class="solid"></line>
        <line x1="180" y1="152" x2="180" y2="168" class="solid"></line>
        <line x1="52" y1="168" x2="180" y2="168" class="solid"></line>
        <line x1="84" y1="168" x2="84" y2="184" class="solid"></line>
        <line x1="148" y1="168" x2="148" y2="184" class="solid"></line>
        <line x1="44" y1="184" x2="188" y2="184" class="solid"></line>
        <line x1="44" y1="184" x2="44" y2="216" class="solid"></line>
        <line x1="188" y1="184" x2="188" y2="192" class="solid"></line>
        <line x1="44" y1="216" x2="188" y2="216" class="solid"></line>
        <line x1="116" y1="216" x2="116" y2="232" class="solid"></line>
        <line x1="188" y1="208" x2="188" y2="216" class="solid"></line>
        <line x1="44" y1="232" x2="188" y2="232" class="solid"></line>
        <line x1="44" y1="232" x2="44" y2="264" class="solid"></line>
        <line x1="188" y1="232" x2="188" y2="240" class="solid"></line>
        <line x1="44" y1="264" x2="188" y2="264" class="solid"></line>
        <line x1="188" y1="256" x2="188" y2="264" class="solid"></line>
        <line x1="92" y1="72" x2="140" y2="72" class="solid"></line>
        <line x1="92" y1="72" x2="92" y2="152" class="solid"></line>
        <line x1="140" y1="72" x2="140" y2="152" class="solid"></line>
        <line x1="92" y1="104" x2="140" y2="104" class="solid"></line>
        <line x1="92" y1="152" x2="140" y2="152" class="solid"></line>
        <line x1="116" y1="152" x2="116" y2="168" class="solid"></line>
    </g>
    <g>
        <line x1="284" y1="40" x2="524" y2="40" class="solid"></line>
        <line x1="284" y1="40" x2="284" y2="64" class="solid"></line>
        <line x1="524" y1="40" x2="524" y2="64" class="solid"></line>
    </g>
    <g>
        <line x1="300" y1="72" x2="348" y2="72" class="solid"></line>
        <line x1="300" y1="72" x2="300" y2="104" class="solid"></line>
        <line x1="348" y1="72" x2="348" y2="104" class="solid"></line>
        <line x1="300" y1="104" x2="348" y2="104" class="solid"></line>
        <line x1="324" y1="104" x2="324" y2="136" class="solid"></line>
        <line x1="428" y1="72" x2="476" y2="72" class="solid"></line>
        <line x1="428" y1="72" x2="428" y2="104" class="solid"></line>
        <line x1="476" y1="72" x2="476" y2="104" class="solid"></line>
        <line x1="428" y1="104" x2="476" y2="104" class="solid"></line>
        <line x1="452" y1="104" x2="452" y2="136" class="solid"></line>
        <line x1="300" y1="136" x2="476" y2="136" class="solid"></line>
        <line x1="300" y1="136" x2="300" y2="168" class="solid"></line>
        <line x1="476" y1="136" x2="476" y2="144" class="solid"></line>
        <line x1="300" y1="168" x2="476" y2="168" class="solid"></line>
        <line x1="388" y1="168" x2="388" y2="184" class="solid"></line>
        <line x1="476" y1="160" x2="476" y2="168" class="solid"></line>
        <line x1="324" y1="184" x2="452" y2="184" class="solid"></line>
        <line x1="324" y1="184" x2="324" y2="192" class="solid"></line>
        <line x1="452" y1="184" x2="452" y2="192" class="solid"></line>
        <line x1="364" y1="72" x2="412" y2="72" class="solid"></line>
        <line x1="364" y1="72" x2="364" y2="104" class="solid"></line>
        <line x1="412" y1="72" x2="412" y2="104" class="solid"></line>
        <line x1="364" y1="104" x2="412" y2="104" class="solid"></line>
        <line x1="388" y1="104" x2="388" y2="136" class="solid"></line>
    </g>
    <g>
        <line x1="324" y1="208" x2="324" y2="216" class="solid"></line>
        <line x1="324" y1="216" x2="452" y2="216" class="solid"></line>
        <line x1="388" y1="216" x2="388" y2="232" class="solid"></line>
        <line x1="452" y1="208" x2="452" y2="216" class="solid"></line>
        <line x1="324" y1="232" x2="452" y2="232" class="solid"></line>
        <line x1="324" y1="232" x2="324" y2="240" class="solid"></line>
        <line x1="452" y1="232" x2="452" y2="240" class="solid"></line>
    </g>
    <g>
        <line x1="324" y1="256" x2="324" y2="264" class="solid"></line>
        <line x1="324" y1="264" x2="452" y2="264" class="solid"></line>
        <line x1="452" y1="256" x2="452" y2="264" class="solid"></line>
    </g>
    <g>
        <line x1="284" y1="272" x2="284" y2="280" class="solid"></line>
        <line x1="284" y1="280" x2="524" y2="280" class="solid"></line>
        <line x1="524" y1="272" x2="524" y2="280" class="solid"></line>
    </g>
</svg>