<svg xmlns="http://www.w3.org/2000/svg" width="496" height="480" style="background:#ffffff;border:1px solid #e5e5e5;border-radius:8px;max-width:100%;height:auto"><rect x="0" y="0" width="100%" height="100%" fill="#ffffff"/>
    <style>
        line, path, circle, rect, polygon{stroke:black;stroke-width:2;stroke-opacity:1;fill-opacity:1;stroke-linecap:round;stroke-linejoin:miter;}text{font-family:Iosevka Fixed, monospace;font-size:14px;}rect.backdrop{stroke:none;fill:transparent;}.broken{stroke-dasharray:8;}.filled{fill:black;}.bg_filled{fill:transparent;}.nofill{fill:transparent;}.end_marked_arrow{marker-end:url(#arrow);}.start_marked_arrow{marker-start:url(#arrow);}.end_marked_diamond{marker-end:url(#diamond);}.start_marked_diamond{marker-start:url(#diamond);}.end_marked_circle{marker-end:url(#circle);}.start_marked_circle{marker-start:url(#circle);}.end_marked_open_circle{marker-end:url(#open_circle);}.start_marked_open_circle{marker-start:url(#open_circle);}.end_marked_big_open_circle{marker-end:url(#big_open_circle);}.start_marked_big_open_circle{marker-start:url(#big_open_circle);}
        <!--separator-->
        
    </style>
    <defs>
        <marker id="arrow" viewBox="-2 -2 8 8" refX="4" refY="2" markerWidth="7" markerHeight="7" orient="auto-start-reverse">
            <polygon points="0,0 0,4 4,2 0,0"></polygon>
        </marker>
        <marker id="diamond" viewBox="-2 -2 8 8" refX="4" refY="2" markerWidth="7" markerHeight="7" orient="auto-start-reverse">
            <polygon points="0,2 2,0 4,2 2,4 0,2"></polygon>
        </marker>
        <marker id="circle" viewBox="0 0 8 8" refX="4" refY="4" markerWidth="7" markerHeight="7" orient="auto-start-reverse">
            <circle cx="4" cy="4" r="2" class="filled"></circle>
        </marker>
        <marker id="open_circle" viewBox="0 0 8 8" refX="4" refY="4" markerWidth="7" markerHeight="7" orient="auto-start-reverse">
            <circle cx="4" cy="4" r="2" class="bg_filled"></circle>
        </marker>
        <marker id="big_open_circle" viewBox="0 0 8 8" refX="4" refY="4" markerWidth="7" markerHeight="7" orient="auto-start-reverse">
            <circle cx="4" cy="4" r="3" class="bg_filled"></circle>
        </marker>
    </defs>
    <rect class="backdrop" x="0" y="0" width="496" height="480"></rect>
    <text x="10" y="12" >BRIDGE</text>
    <text x="66" y="12" >NETWORK</text>
    <line x1="8" y1="24" x2="120" y2="24" class="solid"></line>
    <line x1="8" y1="28" x2="120" y2="28" class="solid"></line>
    <text x="10" y="60" >Host</text>
    <text x="50" y="60" >Machine</text>
    <text x="50" y="124" >Container</text>
    <text x="194" y="124" >Container</text>
    <text x="338" y="124" >Container</text>
    <text x="58" y="172" >eth0</text>
    <text x="202" y="172" >eth0</text>
    <text x="346" y="172" >eth0</text>
    <text x="50" y="188" >172.17.0.2</text>
    <text x="194" y="188" >172.17.0.3</text>
    <text x="338" y="188" >172.17.0.4</text>
    <text x="106" y="220" >veth</text>
    <text x="146" y="220" >pair</text>
    <text x="258" y="220" >veth</text>
    <text x="298" y="220" >pair</text>
    <text x="410" y="220" >veth</text>
    <line x1="484" y1="208" x2="484" y2="224" class="solid"></line>
    <line x1="88" y1="232" x2="232" y2="232" class="solid"></line>
    <line x1="240" y1="232" x2="384" y2="232" class="solid"></line>
    <line x1="476" y1="224" x2="476" y2="240" class="solid"></line>
    <text x="146" y="252" >docker0</text>
    <text x="210" y="252" >bridge</text>
    <text x="146" y="268" >172.17.0.1</text>
    <text x="202" y="332" >iptables</text>
    <text x="202" y="348" >DNAT</text>
    <text x="242" y="348" >+</text>
    <text x="258" y="348" >SNAT</text>
    <text x="210" y="412" >eth0</text>
    <text x="194" y="428" >192.168.1.5</text>
    <line x1="468" y1="96" x2="468" y2="208" class="solid"></line>
    <text x="314" y="332" >NAT</text>
    <line x1="352" y1="320" x2="344" y2="336" class="solid"></line>
    <text x="362" y="332" >port</text>
    <text x="402" y="332" >mapping</text>
    <text x="314" y="412" >Host</text>
    <text x="354" y="412" >NIC</text>
    <text x="66" y="140" >api</text>
    <text x="210" y="140" >web</text>
    <text x="354" y="140" >db</text>
    <g>
        <line x1="12" y1="72" x2="484" y2="72" class="solid"></line>
        <line x1="12" y1="72" x2="12" y2="456" class="solid"></line>
        <line x1="484" y1="72" x2="484" y2="96" class="solid"></line>
        <line x1="484" y1="240" x2="484" y2="456" class="solid"></line>
        <line x1="12" y1="456" x2="484" y2="456" class="solid"></line>
    </g>
    <g>
        <line x1="44" y1="104" x2="132" y2="104" class="solid"></line>
        <line x1="44" y1="104" x2="44" y2="200" class="solid"></line>
        <line x1="132" y1="104" x2="132" y2="200" class="solid"></line>
        <line x1="44" y1="200" x2="132" y2="200" class="solid"></line>
        <line x1="84" y1="200" x2="84" y2="228" class="solid"></line>
        <polygon points="80,228 88,228 84,240" class="filled"></polygon>
    </g>
    <g>
        <line x1="188" y1="104" x2="276" y2="104" class="solid"></line>
        <line x1="188" y1="104" x2="188" y2="200" class="solid"></line>
        <line x1="276" y1="104" x2="276" y2="200" class="solid"></line>
        <line x1="188" y1="200" x2="276" y2="200" class="solid"></line>
        <line x1="228" y1="200" x2="228" y2="208" class="solid"></line>
    </g>
    <g>
        <line x1="332" y1="104" x2="420" y2="104" class="solid"></line>
        <line x1="332" y1="104" x2="332" y2="200" class="solid"></line>
        <line x1="420" y1="104" x2="420" y2="200" class="solid"></line>
        <line x1="332" y1="200" x2="420" y2="200" class="solid"></line>
        <line x1="372" y1="200" x2="372" y2="208" class="solid"></line>
    </g>
    <g>
        <line x1="236" y1="208" x2="236" y2="228" class="solid"></line>
        <polygon points="232,228 240,228 236,240" class="filled"></polygon>
    </g>
    <g>
        <line x1="388" y1="208" x2="388" y2="228" class="solid"></line>
        <polygon points="384,228 392,228 388,240" class="filled"></polygon>
    </g>
    <g>
        <line x1="44" y1="232" x2="80" y2="232" class="solid"></line>
        <line x1="44" y1="232" x2="44" y2="280" class="solid"></line>
        <line x1="444" y1="240" x2="444" y2="280" class="solid"></line>
        <line x1="44" y1="280" x2="444" y2="280" class="solid"></line>
        <line x1="236" y1="280" x2="236" y2="308" class="solid"></line>
        <polygon points="232,308 240,308 236,320" class="filled"></polygon>
    </g>
    <g>
        <line x1="392" y1="232" x2="436" y2="232" class="solid"></line>
        <line x1="436" y1="232" x2="436" y2="240" class="solid"></line>
    </g>
    <g>
        <line x1="180" y1="312" x2="232" y2="312" class="solid"></line>
        <line x1="180" y1="312" x2="180" y2="360" class="solid"></line>
        <line x1="240" y1="312" x2="292" y2="312" class="solid"></line>
        <line x1="292" y1="312" x2="292" y2="360" class="solid"></line>
        <line x1="180" y1="360" x2="292" y2="360" class="solid"></line>
        <line x1="236" y1="360" x2="236" y2="388" class="solid"></line>
        <polygon points="232,388 240,388 236,400" class="filled"></polygon>
    </g>
    <g>
        <line x1="180" y1="392" x2="232" y2="392" class="solid"></line>
        <line x1="180" y1="392" x2="180" y2="440" class="solid"></line>
        <line x1="240" y1="392" x2="292" y2="392" class="solid"></line>
        <line x1="292" y1="392" x2="292" y2="440" class="solid"></line>
        <line x1="180" y1="440" x2="292" y2="440" class="solid"></line>
    </g>
</svg>