<svg xmlns="http://www.w3.org/2000/svg" width="632" height="352" style="background:#ffffff;border:1px solid #e5e5e5;border-radius:8px;max-width:100%;height:auto"><rect x="0" y="0" width="100%" height="100%" fill="#ffffff"/>
    <style>
        line, path, circle, rect, polygon{stroke:black;stroke-width:2;stroke-opacity:1;fill-opacity:1;stroke-linecap:round;stroke-linejoin:miter;}text{font-family:Iosevka Fixed, monospace;font-size:14px;}rect.backdrop{stroke:none;fill:transparent;}.broken{stroke-dasharray:8;}.filled{fill:black;}.bg_filled{fill:transparent;}.nofill{fill:transparent;}.end_marked_arrow{marker-end:url(#arrow);}.start_marked_arrow{marker-start:url(#arrow);}.end_marked_diamond{marker-end:url(#diamond);}.start_marked_diamond{marker-start:url(#diamond);}.end_marked_circle{marker-end:url(#circle);}.start_marked_circle{marker-start:url(#circle);}.end_marked_open_circle{marker-end:url(#open_circle);}.start_marked_open_circle{marker-start:url(#open_circle);}.end_marked_big_open_circle{marker-end:url(#big_open_circle);}.start_marked_big_open_circle{marker-start:url(#big_open_circle);}
        <!--separator-->
        
    </style>
    <defs>
        <marker id="arrow" viewBox="-2 -2 8 8" refX="4" refY="2" markerWidth="7" markerHeight="7" orient="auto-start-reverse">
            <polygon points="0,0 0,4 4,2 0,0"></polygon>
        </marker>
        <marker id="diamond" viewBox="-2 -2 8 8" refX="4" refY="2" markerWidth="7" markerHeight="7" orient="auto-start-reverse">
            <polygon points="0,2 2,0 4,2 2,4 0,2"></polygon>
        </marker>
        <marker id="circle" viewBox="0 0 8 8" refX="4" refY="4" markerWidth="7" markerHeight="7" orient="auto-start-reverse">
            <circle cx="4" cy="4" r="2" class="filled"></circle>
        </marker>
        <marker id="open_circle" viewBox="0 0 8 8" refX="4" refY="4" markerWidth="7" markerHeight="7" orient="auto-start-reverse">
            <circle cx="4" cy="4" r="2" class="bg_filled"></circle>
        </marker>
        <marker id="big_open_circle" viewBox="0 0 8 8" refX="4" refY="4" markerWidth="7" markerHeight="7" orient="auto-start-reverse">
            <circle cx="4" cy="4" r="3" class="bg_filled"></circle>
        </marker>
    </defs>
    <rect class="backdrop" x="0" y="0" width="632" height="352"></rect>
    <rect x="0" y="4" width="8" height="8" class="solid filled" rx="0"></rect>
    <line x1="4" y1="12" x2="4" y2="20" class="solid"></line>
    <line x1="16" y1="8" x2="32" y2="8" class="solid"></line>
    <text x="42" y="12" >MEMORY</text>
    <text x="98" y="12" >LIMITS</text>
    <line x1="152" y1="8" x2="480" y2="8" class="solid"></line>
    <rect x="0" y="20" width="8" height="8" class="solid filled" rx="0"></rect>
    <line x1="4" y1="28" x2="4" y2="36" class="solid"></line>
    <text x="18" y="28" >Set</text>
    <text x="50" y="28" >a</text>
    <text x="66" y="28" >hard</text>
    <text x="106" y="28" >memory</text>
    <text x="162" y="28" >limit</text>
    <text x="210" y="28" >of</text>
    <text x="234" y="28" >512</text>
    <text x="266" y="28" >MB.</text>
    <rect x="0" y="36" width="8" height="8" class="solid filled" rx="0"></rect>
    <text x="18" y="44" >If</text>
    <text x="42" y="44" >the</text>
    <text x="74" y="44" >container</text>
    <text x="154" y="44" >exceeds</text>
    <text x="218" y="44" >this,</text>
    <text x="266" y="44" >the</text>
    <text x="298" y="44" >OOM</text>
    <text x="330" y="44" >killer</text>
    <text x="386" y="44" >terminates</text>
    <text x="2" y="60" >docker</text>
    <text x="58" y="60" >run</text>
    <line x1="88" y1="56" x2="96" y2="56" class="solid"></line>
    <text x="98" y="60" >d</text>
    <line x1="112" y1="56" x2="128" y2="56" class="solid"></line>
    <text x="130" y="60" >name</text>
    <text x="170" y="60" >api</text>
    <line x1="200" y1="56" x2="216" y2="56" class="solid"></line>
    <text x="218" y="60" >memory</text>
    <line x1="264" y1="54" x2="272" y2="54" class="solid"></line>
    <line x1="264" y1="58" x2="272" y2="58" class="solid"></line>
    <text x="274" y="60" >512m</text>
    <text x="314" y="60" >myapp:1.0</text>
    <text x="474" y="44" >it</text>
    <path d="M 504,32 A 16,16 0,0,0 504,48" class="nofill"></path>
    <text x="506" y="44" >exit</text>
    <text x="546" y="44" >code</text>
    <text x="586" y="44" >137</text>
    <path d="M 608,32 A 16,16 0,0,1 608,48" class="nofill"></path>
    <text x="618" y="44" >.</text>
    <text x="2" y="92" >#</text>
    <text x="18" y="92" >Set</text>
    <text x="50" y="92" >memory</text>
    <text x="106" y="92" >+</text>
    <text x="122" y="92" >swap</text>
    <text x="162" y="92" >limit</text>
    <path d="M 216,80 A 16,16 0,0,0 216,96" class="nofill"></path>
    <text x="218" y="92" >total,</text>
    <text x="274" y="92" >not</text>
    <text x="306" y="92" >additional</text>
    <path d="M 384,80 A 16,16 0,0,1 384,96" class="nofill"></path>
    <text x="394" y="92" >:</text>
    <text x="2" y="108" >docker</text>
    <text x="58" y="108" >run</text>
    <line x1="88" y1="104" x2="96" y2="104" class="solid"></line>
    <text x="98" y="108" >d</text>
    <line x1="112" y1="104" x2="128" y2="104" class="solid"></line>
    <text x="130" y="108" >name</text>
    <text x="170" y="108" >api</text>
    <line x1="200" y1="104" x2="216" y2="104" class="solid"></line>
    <text x="218" y="108" >memory</text>
    <line x1="264" y1="102" x2="272" y2="102" class="solid"></line>
    <line x1="264" y1="106" x2="272" y2="106" class="solid"></line>
    <text x="274" y="108" >512m</text>
    <line x1="312" y1="104" x2="328" y2="104" class="solid"></line>
    <text x="330" y="108" >memory</text>
    <line x1="376" y1="104" x2="384" y2="104" class="solid"></line>
    <text x="386" y="108" >swap</text>
    <line x1="416" y1="102" x2="424" y2="102" class="solid"></line>
    <line x1="416" y1="106" x2="424" y2="106" class="solid"></line>
    <text x="426" y="108" >1g</text>
    <text x="450" y="108" >myapp:1.0</text>
    <rect x="0" y="132" width="8" height="8" class="solid filled" rx="0"></rect>
    <line x1="4" y1="140" x2="4" y2="148" class="solid"></line>
    <line x1="16" y1="136" x2="32" y2="136" class="solid"></line>
    <text x="42" y="140" >CPU</text>
    <text x="74" y="140" >LIMITS</text>
    <line x1="128" y1="136" x2="480" y2="136" class="solid"></line>
    <rect x="0" y="148" width="8" height="8" class="solid filled" rx="0"></rect>
    <text x="18" y="156" >Limit</text>
    <text x="66" y="156" >to</text>
    <text x="90" y="156" >1.5</text>
    <text x="122" y="156" >CPU</text>
    <text x="154" y="156" >cores:</text>
    <text x="2" y="172" >docker</text>
    <text x="58" y="172" >run</text>
    <line x1="88" y1="168" x2="96" y2="168" class="solid"></line>
    <text x="98" y="172" >d</text>
    <line x1="112" y1="168" x2="128" y2="168" class="solid"></line>
    <text x="130" y="172" >name</text>
    <text x="170" y="172" >api</text>
    <line x1="200" y1="168" x2="216" y2="168" class="solid"></line>
    <text x="218" y="172" >cpus</text>
    <line x1="248" y1="166" x2="256" y2="166" class="solid"></line>
    <line x1="248" y1="170" x2="256" y2="170" class="solid"></line>
    <text x="258" y="172" >1.5</text>
    <text x="290" y="172" >myapp:1.0</text>
    <text x="2" y="204" >#</text>
    <text x="18" y="204" >Pin</text>
    <text x="50" y="204" >to</text>
    <text x="74" y="204" >specific</text>
    <text x="146" y="204" >CPU</text>
    <text x="178" y="204" >cores</text>
    <path d="M 232,192 A 16,16 0,0,0 232,208" class="nofill"></path>
    <text x="234" y="204" >0</text>
    <text x="250" y="204" >and</text>
    <text x="282" y="204" >1</text>
    <path d="M 288,192 A 16,16 0,0,1 288,208" class="nofill"></path>
    <text x="298" y="204" >:</text>
    <text x="2" y="220" >docker</text>
    <text x="58" y="220" >run</text>
    <line x1="88" y1="216" x2="96" y2="216" class="solid"></line>
    <text x="98" y="220" >d</text>
    <line x1="112" y1="216" x2="128" y2="216" class="solid"></line>
    <text x="130" y="220" >name</text>
    <text x="170" y="220" >api</text>
    <line x1="200" y1="216" x2="216" y2="216" class="solid"></line>
    <text x="218" y="220" >cpuset</text>
    <line x1="264" y1="216" x2="272" y2="216" class="solid"></line>
    <text x="274" y="220" >cpus</text>
    <line x1="304" y1="214" x2="312" y2="214" class="solid"></line>
    <line x1="304" y1="218" x2="312" y2="218" class="solid"></line>
    <text x="362" y="220" >myapp:1.0</text>
    <rect x="0" y="244" width="8" height="8" class="solid filled" rx="0"></rect>
    <line x1="4" y1="252" x2="4" y2="260" class="solid"></line>
    <line x1="16" y1="248" x2="32" y2="248" class="solid"></line>
    <text x="42" y="252" >PID</text>
    <text x="74" y="252" >LIMITS</text>
    <line x1="128" y1="248" x2="480" y2="248" class="solid"></line>
    <rect x="0" y="260" width="8" height="8" class="solid filled" rx="0"></rect>
    <text x="18" y="268" >Limit</text>
    <text x="66" y="268" >the</text>
    <text x="98" y="268" >number</text>
    <text x="154" y="268" >of</text>
    <text x="178" y="268" >processes</text>
    <path d="M 264,256 A 16,16 0,0,0 264,272" class="nofill"></path>
    <text x="266" y="268" >prevents</text>
    <text x="338" y="268" >fork</text>
    <text x="378" y="268" >bombs</text>
    <path d="M 416,256 A 16,16 0,0,1 416,272" class="nofill"></path>
    <text x="426" y="268" >:</text>
    <text x="2" y="284" >docker</text>
    <text x="58" y="284" >run</text>
    <line x1="88" y1="280" x2="96" y2="280" class="solid"></line>
    <text x="98" y="284" >d</text>
    <line x1="112" y1="280" x2="128" y2="280" class="solid"></line>
    <text x="130" y="284" >name</text>
    <text x="170" y="284" >api</text>
    <line x1="200" y1="280" x2="216" y2="280" class="solid"></line>
    <text x="218" y="284" >pids</text>
    <line x1="248" y1="280" x2="256" y2="280" class="solid"></line>
    <text x="258" y="284" >limit</text>
    <line x1="296" y1="278" x2="304" y2="278" class="solid"></line>
    <line x1="296" y1="282" x2="304" y2="282" class="solid"></line>
    <text x="306" y="284" >100</text>
    <text x="338" y="284" >myapp:1.0</text>
    <rect x="0" y="308" width="8" height="8" class="solid filled" rx="0"></rect>
    <line x1="4" y1="316" x2="4" y2="324" class="solid"></line>
    <rect x="0" y="324" width="8" height="8" class="solid filled" rx="0"></rect>
    <line x1="16" y1="312" x2="32" y2="312" class="solid"></line>
    <text x="42" y="316" >IN</text>
    <text x="66" y="316" >DOCKER</text>
    <text x="122" y="316" >COMPOSE</text>
    <line x1="184" y1="312" x2="472" y2="312" class="solid"></line>
    <text x="18" y="332" >See</text>
    <text x="50" y="332" >the</text>
    <text x="82" y="332" >&#39;deploy.resources&#39;</text>
    <text x="234" y="332" >section</text>
    <text x="298" y="332" >in</text>
    <text x="322" y="332" >the</text>
    <text x="354" y="332" >Compose</text>
    <text x="418" y="332" >example</text>
    <text x="482" y="332" >above.</text>
    <text x="314" y="220" >0,1</text>
</svg>