<svg xmlns="http://www.w3.org/2000/svg" width="664" height="576" style="background:#ffffff;border:1px solid #e5e5e5;border-radius:8px;max-width:100%;height:auto"><rect x="0" y="0" width="100%" height="100%" fill="#ffffff"/>
    <style>
        line, path, circle, rect, polygon{stroke:black;stroke-width:2;stroke-opacity:1;fill-opacity:1;stroke-linecap:round;stroke-linejoin:miter;}text{font-family:Iosevka Fixed, monospace;font-size:14px;}rect.backdrop{stroke:none;fill:transparent;}.broken{stroke-dasharray:8;}.filled{fill:black;}.bg_filled{fill:transparent;}.nofill{fill:transparent;}.end_marked_arrow{marker-end:url(#arrow);}.start_marked_arrow{marker-start:url(#arrow);}.end_marked_diamond{marker-end:url(#diamond);}.start_marked_diamond{marker-start:url(#diamond);}.end_marked_circle{marker-end:url(#circle);}.start_marked_circle{marker-start:url(#circle);}.end_marked_open_circle{marker-end:url(#open_circle);}.start_marked_open_circle{marker-start:url(#open_circle);}.end_marked_big_open_circle{marker-end:url(#big_open_circle);}.start_marked_big_open_circle{marker-start:url(#big_open_circle);}
        <!--separator-->
        
    </style>
    <defs>
        <marker id="arrow" viewBox="-2 -2 8 8" refX="4" refY="2" markerWidth="7" markerHeight="7" orient="auto-start-reverse">
            <polygon points="0,0 0,4 4,2 0,0"></polygon>
        </marker>
        <marker id="diamond" viewBox="-2 -2 8 8" refX="4" refY="2" markerWidth="7" markerHeight="7" orient="auto-start-reverse">
            <polygon points="0,2 2,0 4,2 2,4 0,2"></polygon>
        </marker>
        <marker id="circle" viewBox="0 0 8 8" refX="4" refY="4" markerWidth="7" markerHeight="7" orient="auto-start-reverse">
            <circle cx="4" cy="4" r="2" class="filled"></circle>
        </marker>
        <marker id="open_circle" viewBox="0 0 8 8" refX="4" refY="4" markerWidth="7" markerHeight="7" orient="auto-start-reverse">
            <circle cx="4" cy="4" r="2" class="bg_filled"></circle>
        </marker>
        <marker id="big_open_circle" viewBox="0 0 8 8" refX="4" refY="4" markerWidth="7" markerHeight="7" orient="auto-start-reverse">
            <circle cx="4" cy="4" r="3" class="bg_filled"></circle>
        </marker>
    </defs>
    <rect class="backdrop" x="0" y="0" width="664" height="576"></rect>
    <text x="10" y="12" >OVERLAY</text>
    <text x="74" y="12" >FILESYSTEM</text>
    <text x="162" y="12" >LAYER</text>
    <text x="210" y="12" >STRUCTURE</text>
    <line x1="8" y1="24" x2="288" y2="24" class="solid"></line>
    <line x1="8" y1="28" x2="288" y2="28" class="solid"></line>
    <text x="130" y="76" >merged</text>
    <path d="M 192,64 A 16,16 0,0,0 192,80" class="nofill"></path>
    <text x="194" y="76" >unified</text>
    <text x="258" y="76" >view</text>
    <path d="M 288,64 A 16,16 0,0,1 288,80" class="nofill"></path>
    <line x1="420" y1="64" x2="420" y2="96" class="solid"></line>
    <line x1="40" y1="80" x2="32" y2="96" class="solid"></line>
    <text x="42" y="92" >bin</text>
    <line x1="88" y1="80" x2="80" y2="96" class="solid"></line>
    <text x="90" y="92" >etc</text>
    <line x1="136" y1="80" x2="128" y2="96" class="solid"></line>
    <text x="138" y="92" >usr</text>
    <line x1="184" y1="80" x2="176" y2="96" class="solid"></line>
    <text x="186" y="92" >app</text>
    <line x1="232" y1="80" x2="224" y2="96" class="solid"></line>
    <text x="234" y="92" >var</text>
    <line x1="280" y1="80" x2="272" y2="96" class="solid"></line>
    <text x="282" y="92" >tmp</text>
    <text x="42" y="188" >upperdir</text>
    <text x="178" y="188" >lowerdir</text>
    <text x="322" y="188" >workdir</text>
    <path d="M 40,192 A 16,16 0,0,0 40,208" class="nofill"></path>
    <text x="42" y="204" >writable</text>
    <path d="M 104,192 A 16,16 0,0,1 104,208" class="nofill"></path>
    <path d="M 176,192 A 16,16 0,0,0 176,208" class="nofill"></path>
    <text x="178" y="204" >read</text>
    <line x1="208" y1="200" x2="216" y2="200" class="solid"></line>
    <circle cx="220" cy="200" r="3" class="nofill"></circle>
    <text x="226" y="204" >nly</text>
    <path d="M 248,192 A 16,16 0,0,1 248,208" class="nofill"></path>
    <path d="M 320,192 A 16,16 0,0,0 320,208" class="nofill"></path>
    <text x="322" y="204" >internal</text>
    <path d="M 384,192 A 16,16 0,0,1 384,208" class="nofill"></path>
    <text x="26" y="236" >Container&#39;s</text>
    <text x="170" y="236" >Image</text>
    <text x="26" y="252" >changes</text>
    <text x="90" y="252" >go</text>
    <text x="170" y="252" >layers</text>
    <text x="26" y="268" >here</text>
    <text x="170" y="268" >stacked</text>
    <text x="90" y="364" >Layer</text>
    <text x="138" y="364" >3</text>
    <line x1="172" y1="352" x2="172" y2="400" class="solid"></line>
    <line x1="188" y1="352" x2="188" y2="400" class="solid"></line>
    <text x="202" y="364" >L</text>
    <text x="218" y="364" >2</text>
    <line x1="244" y1="352" x2="244" y2="400" class="solid"></line>
    <line x1="260" y1="352" x2="260" y2="400" class="solid"></line>
    <text x="274" y="364" >Layer</text>
    <text x="322" y="364" >1</text>
    <line x1="340" y1="352" x2="340" y2="400" class="solid"></line>
    <text x="82" y="380" >COPY</text>
    <text x="122" y="380" >.</text>
    <text x="138" y="380" >.</text>
    <text x="202" y="380" >RUN</text>
    <text x="282" y="380" >FROM</text>
    <path d="M 88,384 A 16,16 0,0,0 88,400" class="nofill"></path>
    <text x="90" y="396" >app</text>
    <text x="122" y="396" >code</text>
    <path d="M 152,384 A 16,16 0,0,1 152,400" class="nofill"></path>
    <text x="202" y="396" >npm</text>
    <text x="274" y="396" >alpine</text>
    <text x="474" y="76" >What</text>
    <text x="514" y="76" >the</text>
    <text x="546" y="76" >container</text>
    <text x="626" y="76" >sees</text>
    <text x="474" y="92" >as</text>
    <text x="498" y="92" >its</text>
    <text x="530" y="92" >root</text>
    <text x="570" y="92" >filesystem</text>
    <text x="306" y="236" >Atomic</text>
    <text x="362" y="236" >ops</text>
    <text x="306" y="252" >staging</text>
    <text x="370" y="252" >area</text>
    <text x="10" y="444" >Read</text>
    <text x="50" y="444" >path:</text>
    <text x="106" y="444" >merged</text>
    <text x="162" y="444" >checks</text>
    <text x="218" y="444" >upperdir</text>
    <text x="290" y="444" >first,</text>
    <text x="346" y="444" >then</text>
    <text x="386" y="444" >lowerdir</text>
    <text x="106" y="460" >First</text>
    <text x="154" y="460" >match</text>
    <text x="202" y="460" >wins</text>
    <path d="M 248,448 A 16,16 0,0,0 248,464" class="nofill"></path>
    <text x="250" y="460" >upper</text>
    <text x="298" y="460" >layers</text>
    <text x="354" y="460" >shadow</text>
    <text x="410" y="460" >lower</text>
    <text x="458" y="444" >top</text>
    <line x1="480" y1="440" x2="488" y2="440" class="solid"></line>
    <text x="490" y="444" >t</text>
    <circle cx="500" cy="440" r="3" class="nofill"></circle>
    <line x1="504" y1="440" x2="512" y2="440" class="solid"></line>
    <text x="514" y="444" >bottom.</text>
    <text x="458" y="460" >ones</text>
    <path d="M 488,448 A 16,16 0,0,1 488,464" class="nofill"></path>
    <text x="498" y="460" >.</text>
    <text x="10" y="492" >Write</text>
    <text x="58" y="492" >path:</text>
    <text x="106" y="492" >File</text>
    <text x="106" y="508" >then</text>
    <text x="146" y="492" >is</text>
    <text x="170" y="492" >copied</text>
    <text x="226" y="492" >from</text>
    <text x="266" y="492" >lowerdir</text>
    <text x="146" y="508" >modified</text>
    <text x="218" y="508" >in</text>
    <text x="242" y="508" >upperdir.</text>
    <text x="322" y="508" >Lower</text>
    <text x="370" y="508" >layers</text>
    <path d="M 432,480 A 16,16 0,0,0 432,496" class="nofill"></path>
    <text x="434" y="492" >copy</text>
    <line x1="464" y1="488" x2="472" y2="488" class="solid"></line>
    <circle cx="476" cy="488" r="3" class="nofill"></circle>
    <text x="482" y="492" >n</text>
    <line x1="488" y1="488" x2="496" y2="488" class="solid"></line>
    <text x="498" y="492" >write</text>
    <path d="M 536,480 A 16,16 0,0,1 536,496" class="nofill"></path>
    <text x="546" y="492" >,</text>
    <text x="426" y="508" >never</text>
    <text x="474" y="508" >change.</text>
    <text x="10" y="540" >Delete:</text>
    <text x="106" y="540" >A</text>
    <text x="106" y="556" >lower</text>
    <text x="210" y="540" >file</text>
    <text x="250" y="540" >is</text>
    <text x="274" y="540" >created</text>
    <text x="338" y="540" >in</text>
    <text x="362" y="540" >upperdir</text>
    <text x="154" y="556" >layer&#39;s</text>
    <text x="218" y="556" >file</text>
    <text x="258" y="556" >from</text>
    <text x="298" y="556" >the</text>
    <text x="330" y="556" >merged</text>
    <text x="386" y="556" >view.</text>
    <text x="434" y="540" >to</text>
    <text x="458" y="540" >hide</text>
    <text x="498" y="540" >the</text>
    <text x="122" y="540" >whiteout</text>
    <g>
        <line x1="12" y1="56" x2="412" y2="56" class="solid"></line>
        <line x1="12" y1="56" x2="12" y2="104" class="solid"></line>
        <line x1="412" y1="56" x2="412" y2="64" class="solid"></line>
        <line x1="12" y1="104" x2="412" y2="104" class="solid"></line>
        <line x1="220" y1="104" x2="220" y2="160" class="solid"></line>
        <line x1="412" y1="96" x2="412" y2="104" class="solid"></line>
        <line x1="212" y1="160" x2="212" y2="164" class="solid"></line>
        <polygon points="208,164 216,164 212,176" class="filled"></polygon>
    </g>
    <g>
        <line x1="76" y1="136" x2="364" y2="136" class="solid"></line>
        <line x1="76" y1="136" x2="76" y2="164" class="solid"></line>
        <line x1="364" y1="136" x2="364" y2="160" class="solid"></line>
        <polygon points="72,164 80,164 76,176" class="filled"></polygon>
        <line x1="356" y1="160" x2="356" y2="164" class="solid"></line>
        <polygon points="352,164 360,164 356,176" class="filled"></polygon>
    </g>
    <g>
        <line x1="12" y1="168" x2="72" y2="168" class="solid"></line>
        <line x1="12" y1="168" x2="12" y2="280" class="solid"></line>
        <line x1="80" y1="168" x2="140" y2="168" class="solid"></line>
        <line x1="140" y1="168" x2="140" y2="280" class="solid"></line>
        <line x1="12" y1="280" x2="140" y2="280" class="solid"></line>
    </g>
    <g>
        <line x1="156" y1="168" x2="208" y2="168" class="solid"></line>
        <line x1="156" y1="168" x2="156" y2="280" class="solid"></line>
        <line x1="216" y1="168" x2="268" y2="168" class="solid"></line>
        <line x1="268" y1="168" x2="268" y2="280" class="solid"></line>
        <line x1="156" y1="280" x2="268" y2="280" class="solid"></line>
        <line x1="212" y1="280" x2="212" y2="336" class="solid"></line>
        <line x1="204" y1="336" x2="204" y2="340" class="solid"></line>
        <polygon points="200,340 208,340 204,352" class="filled"></polygon>
    </g>
    <g>
        <line x1="292" y1="168" x2="352" y2="168" class="solid"></line>
        <line x1="292" y1="168" x2="292" y2="280" class="solid"></line>
        <line x1="360" y1="168" x2="420" y2="168" class="solid"></line>
        <line x1="420" y1="168" x2="420" y2="280" class="solid"></line>
        <line x1="292" y1="280" x2="420" y2="280" class="solid"></line>
    </g>
    <g>
        <line x1="116" y1="312" x2="308" y2="312" class="solid"></line>
        <line x1="116" y1="312" x2="116" y2="340" class="solid"></line>
        <line x1="308" y1="312" x2="308" y2="336" class="solid"></line>
        <polygon points="112,340 120,340 116,352" class="filled"></polygon>
    </g>
    <g>
        <line x1="68" y1="344" x2="112" y2="344" class="solid"></line>
        <line x1="68" y1="344" x2="68" y2="408" class="solid"></line>
        <line x1="68" y1="408" x2="164" y2="408" class="solid"></line>
        <line x1="164" y1="400" x2="164" y2="408" class="solid"></line>
    </g>
    <g>
        <line x1="120" y1="344" x2="164" y2="344" class="solid"></line>
        <line x1="164" y1="344" x2="164" y2="352" class="solid"></line>
    </g>
    <g>
        <line x1="180" y1="344" x2="200" y2="344" class="solid"></line>
        <line x1="180" y1="344" x2="180" y2="352" class="solid"></line>
    </g>
    <g>
        <line x1="208" y1="344" x2="236" y2="344" class="solid"></line>
        <line x1="236" y1="344" x2="236" y2="352" class="solid"></line>
    </g>
    <g>
        <line x1="252" y1="344" x2="288" y2="344" class="solid"></line>
        <line x1="252" y1="344" x2="252" y2="352" class="solid"></line>
    </g>
    <g>
        <line x1="292" y1="336" x2="292" y2="340" class="solid"></line>
        <polygon points="288,340 296,340 292,352" class="filled"></polygon>
    </g>
    <g>
        <line x1="296" y1="344" x2="332" y2="344" class="solid"></line>
        <line x1="332" y1="344" x2="332" y2="352" class="solid"></line>
    </g>
    <g>
        <line x1="180" y1="400" x2="180" y2="408" class="solid"></line>
        <line x1="180" y1="408" x2="236" y2="408" class="solid"></line>
        <line x1="236" y1="400" x2="236" y2="408" class="solid"></line>
    </g>
    <g>
        <line x1="252" y1="400" x2="252" y2="408" class="solid"></line>
        <line x1="252" y1="408" x2="332" y2="408" class="solid"></line>
        <line x1="332" y1="400" x2="332" y2="408" class="solid"></line>
    </g>
    <g>
        <polygon points="448,68 440,72 448,76" class="filled"></polygon>
        <line x1="448" y1="72" x2="464" y2="72" class="solid"></line>
    </g>
    <g>
        <text x="338" y="492">→</text>
        <text x="354" y="492">upperdir</text>
    </g>
</svg>