<svg xmlns="http://www.w3.org/2000/svg" width="632" height="832" style="background:#ffffff;border:1px solid #e5e5e5;border-radius:8px;max-width:100%;height:auto"><rect x="0" y="0" width="100%" height="100%" fill="#ffffff"/>
    <style>
        line, path, circle, rect, polygon{stroke:black;stroke-width:2;stroke-opacity:1;fill-opacity:1;stroke-linecap:round;stroke-linejoin:miter;}text{font-family:Iosevka Fixed, monospace;font-size:14px;}rect.backdrop{stroke:none;fill:transparent;}.broken{stroke-dasharray:8;}.filled{fill:black;}.bg_filled{fill:transparent;}.nofill{fill:transparent;}.end_marked_arrow{marker-end:url(#arrow);}.start_marked_arrow{marker-start:url(#arrow);}.end_marked_diamond{marker-end:url(#diamond);}.start_marked_diamond{marker-start:url(#diamond);}.end_marked_circle{marker-end:url(#circle);}.start_marked_circle{marker-start:url(#circle);}.end_marked_open_circle{marker-end:url(#open_circle);}.start_marked_open_circle{marker-start:url(#open_circle);}.end_marked_big_open_circle{marker-end:url(#big_open_circle);}.start_marked_big_open_circle{marker-start:url(#big_open_circle);}
        <!--separator-->
        
    </style>
    <defs>
        <marker id="arrow" viewBox="-2 -2 8 8" refX="4" refY="2" markerWidth="7" markerHeight="7" orient="auto-start-reverse">
            <polygon points="0,0 0,4 4,2 0,0"></polygon>
        </marker>
        <marker id="diamond" viewBox="-2 -2 8 8" refX="4" refY="2" markerWidth="7" markerHeight="7" orient="auto-start-reverse">
            <polygon points="0,2 2,0 4,2 2,4 0,2"></polygon>
        </marker>
        <marker id="circle" viewBox="0 0 8 8" refX="4" refY="4" markerWidth="7" markerHeight="7" orient="auto-start-reverse">
            <circle cx="4" cy="4" r="2" class="filled"></circle>
        </marker>
        <marker id="open_circle" viewBox="0 0 8 8" refX="4" refY="4" markerWidth="7" markerHeight="7" orient="auto-start-reverse">
            <circle cx="4" cy="4" r="2" class="bg_filled"></circle>
        </marker>
        <marker id="big_open_circle" viewBox="0 0 8 8" refX="4" refY="4" markerWidth="7" markerHeight="7" orient="auto-start-reverse">
            <circle cx="4" cy="4" r="3" class="bg_filled"></circle>
        </marker>
    </defs>
    <rect class="backdrop" x="0" y="0" width="632" height="832"></rect>
    <rect x="0" y="4" width="8" height="8" class="solid filled" rx="0"></rect>
    <line x1="4" y1="12" x2="4" y2="20" class="solid"></line>
    <line x1="16" y1="8" x2="32" y2="8" class="solid"></line>
    <text x="42" y="12" >Stage</text>
    <text x="90" y="12" >1:</text>
    <text x="114" y="12" >Builder</text>
    <line x1="176" y1="8" x2="472" y2="8" class="solid"></line>
    <rect x="0" y="20" width="8" height="8" class="solid filled" rx="0"></rect>
    <line x1="4" y1="28" x2="4" y2="36" class="solid"></line>
    <text x="18" y="28" >Use</text>
    <text x="50" y="28" >the</text>
    <text x="82" y="28" >full</text>
    <text x="122" y="28" >Node.js</text>
    <text x="186" y="28" >Alpine</text>
    <text x="242" y="28" >image</text>
    <text x="290" y="28" >to</text>
    <text x="314" y="28" >install</text>
    <text x="378" y="28" >dependencies.</text>
    <rect x="0" y="36" width="8" height="8" class="solid filled" rx="0"></rect>
    <text x="18" y="44" >We</text>
    <text x="42" y="44" >name</text>
    <text x="82" y="44" >this</text>
    <text x="122" y="44" >stage</text>
    <text x="250" y="44" >so</text>
    <text x="274" y="44" >we</text>
    <text x="298" y="44" >can</text>
    <text x="330" y="44" >reference</text>
    <text x="410" y="44" >it</text>
    <text x="434" y="44" >later.</text>
    <text x="2" y="60" >FROM</text>
    <text x="42" y="60" >node:20</text>
    <line x1="96" y1="56" x2="104" y2="56" class="solid"></line>
    <text x="106" y="60" >alpine</text>
    <text x="162" y="60" >AS</text>
    <text x="186" y="60" >builder</text>
    <rect x="0" y="84" width="8" height="8" class="solid filled" rx="0"></rect>
    <line x1="4" y1="92" x2="4" y2="100" class="solid"></line>
    <text x="18" y="92" >Set</text>
    <text x="50" y="92" >the</text>
    <text x="82" y="92" >working</text>
    <text x="146" y="92" >directory</text>
    <rect x="0" y="100" width="8" height="8" class="solid filled" rx="0"></rect>
    <text x="18" y="108" >All</text>
    <text x="50" y="108" >subsequent</text>
    <text x="138" y="108" >COPY,</text>
    <text x="186" y="108" >RUN,</text>
    <text x="2" y="124" >WORKDIR</text>
    <line x1="72" y1="112" x2="64" y2="128" class="solid"></line>
    <text x="74" y="124" >app</text>
    <text x="226" y="92" >inside</text>
    <text x="282" y="92" >the</text>
    <text x="314" y="92" >container.</text>
    <text x="226" y="108" >CMD</text>
    <text x="258" y="108" >instructions</text>
    <text x="362" y="108" >use</text>
    <text x="394" y="108" >this</text>
    <text x="434" y="108" >path.</text>
    <rect x="0" y="148" width="8" height="8" class="solid filled" rx="0"></rect>
    <line x1="4" y1="156" x2="4" y2="164" class="solid"></line>
    <text x="18" y="156" >Copy</text>
    <text x="58" y="156" >only</text>
    <text x="98" y="156" >package.json</text>
    <text x="202" y="156" >and</text>
    <text x="234" y="156" >package</text>
    <line x1="288" y1="152" x2="296" y2="152" class="solid"></line>
    <text x="298" y="156" >lock.json</text>
    <text x="378" y="156" >first.</text>
    <rect x="0" y="164" width="8" height="8" class="solid filled" rx="0"></rect>
    <line x1="4" y1="172" x2="4" y2="180" class="solid"></line>
    <text x="18" y="172" >This</text>
    <text x="58" y="172" >exploits</text>
    <text x="130" y="172" >Docker&#39;s</text>
    <text x="202" y="172" >layer</text>
    <text x="250" y="172" >cache:</text>
    <text x="306" y="172" >if</text>
    <text x="330" y="172" >these</text>
    <text x="378" y="172" >files</text>
    <text x="426" y="172" >haven&#39;t</text>
    <rect x="0" y="180" width="8" height="8" class="solid filled" rx="0"></rect>
    <text x="18" y="188" >the</text>
    <text x="50" y="188" >&#39;npm</text>
    <text x="90" y="188" >ci&#39;</text>
    <text x="122" y="188" >layer</text>
    <text x="170" y="188" >is</text>
    <text x="194" y="188" >reused</text>
    <text x="250" y="188" >from</text>
    <text x="290" y="188" >cache</text>
    <path d="M 344,176 A 16,16 0,0,0 344,192" class="nofill"></path>
    <text x="346" y="188" >fast</text>
    <text x="386" y="188" >rebuilds</text>
    <path d="M 448,176 A 16,16 0,0,1 448,192" class="nofill"></path>
    <text x="458" y="188" >.</text>
    <text x="2" y="204" >COPY</text>
    <text x="42" y="204" >package*.json</text>
    <text x="154" y="204" >.</text>
    <line x1="168" y1="192" x2="160" y2="208" class="solid"></line>
    <text x="490" y="172" >changed,</text>
    <rect x="0" y="228" width="8" height="8" class="solid filled" rx="0"></rect>
    <line x1="4" y1="236" x2="4" y2="244" class="solid"></line>
    <text x="18" y="236" >Install</text>
    <text x="82" y="236" >production</text>
    <text x="170" y="236" >dependencies</text>
    <text x="274" y="236" >only.</text>
    <rect x="0" y="244" width="8" height="8" class="solid filled" rx="0"></rect>
    <line x1="4" y1="252" x2="4" y2="260" class="solid"></line>
    <text x="18" y="252" >&#39;npm</text>
    <text x="58" y="252" >ci&#39;</text>
    <text x="90" y="252" >is</text>
    <text x="114" y="252" >preferred</text>
    <text x="194" y="252" >over</text>
    <text x="234" y="252" >&#39;npm</text>
    <text x="274" y="252" >install&#39;</text>
    <text x="346" y="252" >for</text>
    <text x="378" y="252" >reproducible</text>
    <rect x="0" y="260" width="8" height="8" class="solid filled" rx="0"></rect>
    <text x="18" y="268" >it</text>
    <text x="42" y="268" >installs</text>
    <text x="114" y="268" >exactly</text>
    <text x="178" y="268" >what&#39;s</text>
    <text x="234" y="268" >in</text>
    <text x="258" y="268" >package</text>
    <line x1="312" y1="264" x2="320" y2="264" class="solid"></line>
    <text x="322" y="268" >lock.json.</text>
    <text x="2" y="284" >RUN</text>
    <text x="34" y="284" >npm</text>
    <text x="66" y="284" >ci</text>
    <line x1="88" y1="280" x2="104" y2="280" class="solid"></line>
    <circle cx="108" cy="280" r="3" class="nofill"></circle>
    <text x="114" y="284" >nly</text>
    <line x1="136" y1="278" x2="144" y2="278" class="solid"></line>
    <line x1="136" y1="282" x2="144" y2="282" class="solid"></line>
    <text x="146" y="284" >production</text>
    <text x="482" y="252" >builds</text>
    <line x1="536" y1="248" x2="544" y2="248" class="solid"></line>
    <rect x="0" y="324" width="8" height="8" class="solid filled" rx="0"></rect>
    <line x1="4" y1="332" x2="4" y2="340" class="solid"></line>
    <line x1="16" y1="328" x2="32" y2="328" class="solid"></line>
    <text x="42" y="332" >Stage</text>
    <text x="90" y="332" >2:</text>
    <text x="114" y="332" >Production</text>
    <line x1="200" y1="328" x2="464" y2="328" class="solid"></line>
    <rect x="0" y="340" width="8" height="8" class="solid filled" rx="0"></rect>
    <line x1="4" y1="348" x2="4" y2="356" class="solid"></line>
    <text x="18" y="348" >Start</text>
    <text x="66" y="348" >a</text>
    <text x="82" y="348" >fresh</text>
    <text x="130" y="348" >stage</text>
    <text x="178" y="348" >from</text>
    <text x="218" y="348" >the</text>
    <text x="250" y="348" >same</text>
    <text x="290" y="348" >base</text>
    <text x="330" y="348" >image.</text>
    <rect x="0" y="356" width="8" height="8" class="solid filled" rx="0"></rect>
    <text x="18" y="364" >This</text>
    <text x="58" y="364" >stage</text>
    <text x="106" y="364" >will</text>
    <text x="146" y="364" >NOT</text>
    <text x="178" y="364" >contain</text>
    <text x="242" y="364" >npm,</text>
    <text x="282" y="364" >build</text>
    <text x="330" y="364" >tools,</text>
    <text x="2" y="380" >FROM</text>
    <text x="42" y="380" >node:20</text>
    <line x1="96" y1="376" x2="104" y2="376" class="solid"></line>
    <text x="106" y="380" >alpine</text>
    <text x="386" y="364" >or</text>
    <text x="410" y="364" >dev</text>
    <text x="442" y="364" >dependencies.</text>
    <rect x="0" y="404" width="8" height="8" class="solid filled" rx="0"></rect>
    <line x1="4" y1="412" x2="4" y2="420" class="solid"></line>
    <text x="18" y="412" >Create</text>
    <text x="74" y="412" >a</text>
    <text x="90" y="412" >non</text>
    <line x1="112" y1="408" x2="120" y2="408" class="solid"></line>
    <text x="122" y="412" >root</text>
    <text x="162" y="412" >user</text>
    <rect x="0" y="420" width="8" height="8" class="solid filled" rx="0"></rect>
    <line x1="4" y1="428" x2="4" y2="436" class="solid"></line>
    <text x="18" y="428" >Running</text>
    <text x="82" y="428" >as</text>
    <text x="106" y="428" >root</text>
    <text x="146" y="428" >inside</text>
    <rect x="0" y="436" width="8" height="8" class="solid filled" rx="0"></rect>
    <text x="18" y="444" >if</text>
    <text x="42" y="444" >an</text>
    <text x="66" y="444" >attacker</text>
    <text x="138" y="444" >escapes</text>
    <text x="2" y="460" >RUN</text>
    <text x="34" y="460" >addgroup</text>
    <line x1="104" y1="456" x2="112" y2="456" class="solid"></line>
    <text x="114" y="460" >S</text>
    <text x="130" y="460" >appgroup</text>
    <text x="202" y="412" >for</text>
    <text x="234" y="412" >security.</text>
    <text x="202" y="428" >a</text>
    <text x="218" y="428" >container</text>
    <text x="298" y="428" >is</text>
    <text x="322" y="428" >a</text>
    <text x="338" y="428" >security</text>
    <text x="410" y="428" >risk</text>
    <line x1="448" y1="424" x2="456" y2="424" class="solid"></line>
    <text x="202" y="444" >the</text>
    <text x="234" y="444" >container,</text>
    <text x="322" y="444" >they&#39;re</text>
    <text x="386" y="444" >root</text>
    <text x="426" y="444" >on</text>
    <text x="450" y="444" >the</text>
    <text x="202" y="460" >&amp;&amp;</text>
    <text x="226" y="460" >adduser</text>
    <line x1="288" y1="456" x2="296" y2="456" class="solid"></line>
    <text x="298" y="460" >S</text>
    <text x="314" y="460" >appuser</text>
    <line x1="376" y1="456" x2="384" y2="456" class="solid"></line>
    <text x="386" y="460" >G</text>
    <text x="402" y="460" >appgroup</text>
    <text x="482" y="444" >host.</text>
    <text x="2" y="492" >WORKDIR</text>
    <line x1="72" y1="480" x2="64" y2="496" class="solid"></line>
    <text x="74" y="492" >app</text>
    <rect x="0" y="516" width="8" height="8" class="solid filled" rx="0"></rect>
    <line x1="4" y1="524" x2="4" y2="532" class="solid"></line>
    <text x="18" y="524" >Copy</text>
    <text x="58" y="524" >only</text>
    <text x="98" y="524" >the</text>
    <text x="130" y="524" >production</text>
    <text x="218" y="524" >node</text>
    <line x1="248" y1="528" x2="256" y2="528" class="solid"></line>
    <text x="258" y="524" >modules</text>
    <text x="322" y="524" >from</text>
    <text x="362" y="524" >the</text>
    <text x="394" y="524" >builder</text>
    <text x="458" y="524" >stage.</text>
    <rect x="0" y="532" width="8" height="8" class="solid filled" rx="0"></rect>
    <line x1="4" y1="540" x2="4" y2="548" class="solid"></line>
    <text x="18" y="540" >This</text>
    <text x="58" y="540" >is</text>
    <text x="82" y="540" >the</text>
    <text x="114" y="540" >key</text>
    <text x="146" y="540" >to</text>
    <text x="170" y="540" >multi</text>
    <line x1="208" y1="536" x2="216" y2="536" class="solid"></line>
    <text x="218" y="540" >stage</text>
    <text x="266" y="540" >builds:</text>
    <text x="330" y="540" >we</text>
    <text x="354" y="540" >get</text>
    <text x="386" y="540" >the</text>
    <text x="418" y="540" >installed</text>
    <rect x="0" y="548" width="8" height="8" class="solid filled" rx="0"></rect>
    <text x="18" y="556" >dependencies</text>
    <text x="122" y="556" >without</text>
    <text x="186" y="556" >the</text>
    <text x="218" y="556" >build</text>
    <text x="266" y="556" >toolchain</text>
    <text x="346" y="556" >that</text>
    <text x="386" y="556" >created</text>
    <text x="450" y="556" >them.</text>
    <text x="2" y="572" >COPY</text>
    <line x1="40" y1="568" x2="56" y2="568" class="solid"></line>
    <text x="58" y="572" >from</text>
    <line x1="88" y1="566" x2="96" y2="566" class="solid"></line>
    <line x1="88" y1="570" x2="96" y2="570" class="solid"></line>
    <text x="98" y="572" >builder</text>
    <line x1="168" y1="560" x2="160" y2="576" class="solid"></line>
    <text x="170" y="572" >app</text>
    <line x1="200" y1="560" x2="192" y2="576" class="solid"></line>
    <text x="202" y="572" >node</text>
    <line x1="232" y1="576" x2="240" y2="576" class="solid"></line>
    <text x="242" y="572" >modules</text>
    <text x="306" y="572" >.</text>
    <line x1="320" y1="560" x2="312" y2="576" class="solid"></line>
    <text x="322" y="572" >node</text>
    <line x1="352" y1="576" x2="360" y2="576" class="solid"></line>
    <text x="362" y="572" >modules</text>
    <text x="2" y="604" >#</text>
    <text x="18" y="604" >Copy</text>
    <text x="2" y="620" >COPY</text>
    <text x="42" y="620" >.</text>
    <text x="58" y="604" >the</text>
    <text x="58" y="620" >.</text>
    <text x="90" y="604" >application</text>
    <text x="186" y="604" >source</text>
    <text x="242" y="604" >code.</text>
    <rect x="0" y="644" width="8" height="8" class="solid filled" rx="0"></rect>
    <text x="18" y="652" >Document</text>
    <text x="90" y="652" >that</text>
    <text x="130" y="652" >this</text>
    <text x="170" y="652" >container</text>
    <text x="250" y="652" >listens</text>
    <text x="314" y="652" >on</text>
    <rect x="0" y="660" width="8" height="8" class="solid filled" rx="0"></rect>
    <text x="18" y="668" >This</text>
    <text x="58" y="668" >is</text>
    <text x="82" y="668" >metadata</text>
    <text x="154" y="668" >for</text>
    <text x="186" y="668" >humans</text>
    <text x="242" y="668" >and</text>
    <text x="274" y="668" >tooling</text>
    <text x="2" y="684" >EXPOSE</text>
    <text x="58" y="684" >3000</text>
    <text x="338" y="652" >port</text>
    <line x1="336" y1="664" x2="344" y2="664" class="solid"></line>
    <text x="354" y="668" >it</text>
    <text x="378" y="652" >3000.</text>
    <text x="378" y="668" >doesn&#39;t</text>
    <text x="442" y="668" >publish</text>
    <text x="506" y="668" >the</text>
    <text x="538" y="668" >port.</text>
    <text x="2" y="716" >#</text>
    <text x="18" y="716" >Switch</text>
    <text x="74" y="716" >to</text>
    <text x="98" y="716" >the</text>
    <text x="2" y="732" >USER</text>
    <text x="42" y="732" >appuser</text>
    <text x="130" y="716" >non</text>
    <line x1="152" y1="712" x2="160" y2="712" class="solid"></line>
    <text x="162" y="716" >root</text>
    <text x="202" y="716" >user</text>
    <text x="242" y="716" >before</text>
    <text x="298" y="716" >running</text>
    <text x="362" y="716" >the</text>
    <text x="394" y="716" >application.</text>
    <rect x="0" y="756" width="8" height="8" class="solid filled" rx="0"></rect>
    <line x1="4" y1="764" x2="4" y2="772" class="solid"></line>
    <text x="18" y="764" >Define</text>
    <text x="74" y="764" >the</text>
    <text x="106" y="764" >command</text>
    <text x="170" y="764" >to</text>
    <text x="194" y="764" >run</text>
    <text x="226" y="764" >when</text>
    <text x="266" y="764" >the</text>
    <text x="298" y="764" >container</text>
    <text x="378" y="764" >starts.</text>
    <rect x="0" y="772" width="8" height="8" class="solid filled" rx="0"></rect>
    <line x1="4" y1="780" x2="4" y2="788" class="solid"></line>
    <text x="18" y="780" >Use</text>
    <text x="50" y="780" >exec</text>
    <text x="90" y="780" >form</text>
    <path d="M 136,768 A 16,16 0,0,0 136,784" class="nofill"></path>
    <text x="138" y="780" >JSON</text>
    <text x="178" y="780" >array</text>
    <path d="M 216,768 A 16,16 0,0,1 216,784" class="nofill"></path>
    <text x="234" y="780" >so</text>
    <text x="258" y="780" >the</text>
    <text x="290" y="780" >process</text>
    <text x="354" y="780" >receives</text>
    <text x="426" y="780" >signals</text>
    <text x="490" y="780" >correctly.</text>
    <rect x="0" y="788" width="8" height="8" class="solid filled" rx="0"></rect>
    <text x="18" y="796" >Shell</text>
    <text x="66" y="796" >form</text>
    <path d="M 112,784 A 16,16 0,0,0 112,800" class="nofill"></path>
    <text x="114" y="796" >CMD</text>
    <text x="146" y="796" >node</text>
    <text x="186" y="796" >server.js</text>
    <path d="M 256,784 A 16,16 0,0,1 256,800" class="nofill"></path>
    <text x="274" y="796" >wraps</text>
    <text x="322" y="796" >in</text>
    <line x1="352" y1="784" x2="344" y2="800" class="solid"></line>
    <text x="354" y="796" >bin</text>
    <line x1="384" y1="784" x2="376" y2="800" class="solid"></line>
    <text x="386" y="796" >sh,</text>
    <text x="418" y="796" >which</text>
    <text x="466" y="796" >may</text>
    <text x="498" y="796" >swallow</text>
    <text x="562" y="796" >SIGTERM.</text>
    <text x="2" y="812" >CMD</text>
    <text x="34" y="812" >[</text>
    <text x="90" y="812" >,</text>
    <text x="194" y="812" >]</text>
    <text x="170" y="44" >builder</text>
    <text x="42" y="812" >node</text>
    <text x="106" y="812" >server.js</text>
    <g>
        <line x1="4" y1="652" x2="4" y2="660" class="solid"></line>
        <polygon points="6.8,668 6.8,660 1.2,660 1.2,668" class="filled"></polygon>
        <line x1="6" y1="668" x2="8" y2="672" class="solid"></line>
    </g>
</svg>