<svg xmlns="http://www.w3.org/2000/svg" width="720" height="976" style="background:#ffffff;border:1px solid #e5e5e5;border-radius:8px;max-width:100%;height:auto"><rect x="0" y="0" width="100%" height="100%" fill="#ffffff"/>
    <style>
        line, path, circle, rect, polygon{stroke:black;stroke-width:2;stroke-opacity:1;fill-opacity:1;stroke-linecap:round;stroke-linejoin:miter;}text{font-family:Iosevka Fixed, monospace;font-size:14px;}rect.backdrop{stroke:none;fill:transparent;}.broken{stroke-dasharray:8;}.filled{fill:black;}.bg_filled{fill:transparent;}.nofill{fill:transparent;}.end_marked_arrow{marker-end:url(#arrow);}.start_marked_arrow{marker-start:url(#arrow);}.end_marked_diamond{marker-end:url(#diamond);}.start_marked_diamond{marker-start:url(#diamond);}.end_marked_circle{marker-end:url(#circle);}.start_marked_circle{marker-start:url(#circle);}.end_marked_open_circle{marker-end:url(#open_circle);}.start_marked_open_circle{marker-start:url(#open_circle);}.end_marked_big_open_circle{marker-end:url(#big_open_circle);}.start_marked_big_open_circle{marker-start:url(#big_open_circle);}
        <!--separator-->
        
    </style>
    <defs>
        <marker id="arrow" viewBox="-2 -2 8 8" refX="4" refY="2" markerWidth="7" markerHeight="7" orient="auto-start-reverse">
            <polygon points="0,0 0,4 4,2 0,0"></polygon>
        </marker>
        <marker id="diamond" viewBox="-2 -2 8 8" refX="4" refY="2" markerWidth="7" markerHeight="7" orient="auto-start-reverse">
            <polygon points="0,2 2,0 4,2 2,4 0,2"></polygon>
        </marker>
        <marker id="circle" viewBox="0 0 8 8" refX="4" refY="4" markerWidth="7" markerHeight="7" orient="auto-start-reverse">
            <circle cx="4" cy="4" r="2" class="filled"></circle>
        </marker>
        <marker id="open_circle" viewBox="0 0 8 8" refX="4" refY="4" markerWidth="7" markerHeight="7" orient="auto-start-reverse">
            <circle cx="4" cy="4" r="2" class="bg_filled"></circle>
        </marker>
        <marker id="big_open_circle" viewBox="0 0 8 8" refX="4" refY="4" markerWidth="7" markerHeight="7" orient="auto-start-reverse">
            <circle cx="4" cy="4" r="3" class="bg_filled"></circle>
        </marker>
    </defs>
    <rect class="backdrop" x="0" y="0" width="720" height="976"></rect>
    <rect x="0" y="4" width="8" height="8" class="solid filled" rx="0"></rect>
    <line x1="4" y1="12" x2="4" y2="20" class="solid"></line>
    <line x1="16" y1="8" x2="32" y2="8" class="solid"></line>
    <text x="42" y="12" >DEBUG</text>
    <text x="90" y="12" >SIDECAR</text>
    <line x1="152" y1="8" x2="480" y2="8" class="solid"></line>
    <rect x="0" y="20" width="8" height="8" class="solid filled" rx="0"></rect>
    <line x1="4" y1="28" x2="4" y2="36" class="solid"></line>
    <text x="18" y="28" >Run</text>
    <text x="50" y="28" >a</text>
    <text x="66" y="28" >debugging</text>
    <text x="146" y="28" >container</text>
    <text x="226" y="28" >that</text>
    <text x="266" y="28" >shares</text>
    <text x="322" y="28" >the</text>
    <text x="354" y="28" >PID</text>
    <text x="386" y="28" >and</text>
    <text x="418" y="28" >network</text>
    <text x="482" y="28" >namespace</text>
    <rect x="0" y="36" width="8" height="8" class="solid filled" rx="0"></rect>
    <line x1="4" y1="44" x2="4" y2="52" class="solid"></line>
    <text x="18" y="44" >of</text>
    <text x="42" y="44" >a</text>
    <text x="58" y="44" >running</text>
    <text x="122" y="44" >container.</text>
    <text x="210" y="44" >&#39;netshoot&#39;</text>
    <text x="298" y="44" >includes</text>
    <text x="370" y="44" >curl,</text>
    <text x="418" y="44" >dig,</text>
    <text x="458" y="44" >nmap,</text>
    <text x="506" y="44" >tcpdump,</text>
    <rect x="0" y="52" width="8" height="8" class="solid filled" rx="0"></rect>
    <line x1="4" y1="60" x2="4" y2="68" class="solid"></line>
    <line x1="16" y1="56" x2="32" y2="56" class="solid"></line>
    <text x="34" y="60" >rm:</text>
    <text x="66" y="60" >automatically</text>
    <text x="178" y="60" >remove</text>
    <text x="234" y="60" >the</text>
    <text x="266" y="60" >debug</text>
    <text x="314" y="60" >container</text>
    <text x="394" y="60" >when</text>
    <text x="434" y="60" >it</text>
    <text x="458" y="60" >exits.</text>
    <rect x="0" y="68" width="8" height="8" class="solid filled" rx="0"></rect>
    <line x1="4" y1="76" x2="4" y2="84" class="solid"></line>
    <line x1="16" y1="72" x2="32" y2="72" class="solid"></line>
    <text x="34" y="76" >pid</text>
    <line x1="56" y1="70" x2="64" y2="70" class="solid"></line>
    <line x1="56" y1="74" x2="64" y2="74" class="solid"></line>
    <text x="66" y="76" >container</text>
    <line x1="140" y1="64" x2="140" y2="96" class="broken"></line>
    <text x="146" y="76" >web</text>
    <line x1="172" y1="64" x2="172" y2="96" class="broken"></line>
    <text x="186" y="76" >share</text>
    <text x="234" y="76" >PID</text>
    <text x="266" y="76" >namespace</text>
    <path d="M 352,64 A 16,16 0,0,0 352,80" class="nofill"></path>
    <text x="354" y="76" >see</text>
    <text x="386" y="76" >the</text>
    <text x="418" y="76" >target&#39;s</text>
    <text x="490" y="76" >processes</text>
    <path d="M 560,64 A 16,16 0,0,1 560,80" class="nofill"></path>
    <text x="570" y="76" >.</text>
    <rect x="0" y="84" width="8" height="8" class="solid filled" rx="0"></rect>
    <line x1="16" y1="88" x2="32" y2="88" class="solid"></line>
    <text x="34" y="92" >net</text>
    <line x1="56" y1="86" x2="64" y2="86" class="solid"></line>
    <line x1="56" y1="90" x2="64" y2="90" class="solid"></line>
    <text x="66" y="92" >container</text>
    <text x="146" y="92" >web</text>
    <text x="186" y="92" >share</text>
    <text x="234" y="92" >network</text>
    <text x="298" y="92" >namespace</text>
    <path d="M 384,80 A 16,16 0,0,0 384,96" class="nofill"></path>
    <text x="386" y="92" >same</text>
    <text x="426" y="92" >IP,</text>
    <text x="458" y="92" >same</text>
    <text x="498" y="92" >ports</text>
    <path d="M 536,80 A 16,16 0,0,1 536,96" class="nofill"></path>
    <text x="546" y="92" >.</text>
    <text x="2" y="108" >docker</text>
    <text x="58" y="108" >run</text>
    <line x1="88" y1="104" x2="104" y2="104" class="solid"></line>
    <text x="106" y="108" >rm</text>
    <line x1="128" y1="104" x2="136" y2="104" class="solid"></line>
    <text x="138" y="108" >it</text>
    <line x1="160" y1="96" x2="168" y2="112" class="solid"></line>
    <line x1="16" y1="120" x2="32" y2="120" class="solid"></line>
    <text x="34" y="124" >pid</text>
    <line x1="56" y1="118" x2="64" y2="118" class="solid"></line>
    <line x1="56" y1="122" x2="64" y2="122" class="solid"></line>
    <text x="66" y="124" >container</text>
    <line x1="140" y1="112" x2="140" y2="148" class="broken"></line>
    <text x="146" y="124" >web</text>
    <line x1="16" y1="136" x2="32" y2="136" class="solid"></line>
    <text x="34" y="140" >net</text>
    <line x1="56" y1="134" x2="64" y2="134" class="solid"></line>
    <line x1="56" y1="138" x2="64" y2="138" class="solid"></line>
    <text x="66" y="140" >container</text>
    <text x="146" y="140" >web</text>
    <text x="18" y="156" >nicolaka</text>
    <line x1="88" y1="144" x2="80" y2="160" class="solid"></line>
    <text x="90" y="156" >netsho</text>
    <circle cx="140" cy="152" r="3" class="nofill"></circle>
    <text x="146" y="156" >t</text>
    <text x="578" y="44" >etc.</text>
    <line x1="176" y1="112" x2="184" y2="128" class="solid"></line>
    <line x1="176" y1="128" x2="184" y2="144" class="solid"></line>
    <rect x="0" y="180" width="8" height="8" class="solid filled" rx="0"></rect>
    <line x1="4" y1="188" x2="4" y2="196" class="solid"></line>
    <rect x="0" y="196" width="8" height="8" class="solid filled" rx="0"></rect>
    <line x1="4" y1="204" x2="4" y2="212" class="solid"></line>
    <rect x="0" y="212" width="8" height="8" class="solid filled" rx="0"></rect>
    <line x1="4" y1="220" x2="4" y2="228" class="solid"></line>
    <rect x="0" y="228" width="8" height="8" class="solid filled" rx="0"></rect>
    <line x1="4" y1="236" x2="4" y2="244" class="solid"></line>
    <rect x="0" y="244" width="8" height="8" class="solid filled" rx="0"></rect>
    <line x1="4" y1="252" x2="4" y2="260" class="solid"></line>
    <rect x="0" y="260" width="8" height="8" class="solid filled" rx="0"></rect>
    <text x="18" y="188" >Inside</text>
    <text x="74" y="188" >netshoot,</text>
    <text x="34" y="204" >ps</text>
    <text x="58" y="204" >aux</text>
    <text x="34" y="220" >curl</text>
    <text x="74" y="220" >localhost:80</text>
    <text x="34" y="236" >tcpdump</text>
    <line x1="96" y1="232" x2="104" y2="232" class="solid"></line>
    <text x="106" y="236" >i</text>
    <text x="122" y="236" >eth0</text>
    <text x="34" y="252" >dig</text>
    <text x="66" y="252" >api</text>
    <text x="34" y="268" >ss</text>
    <line x1="56" y1="264" x2="64" y2="264" class="solid"></line>
    <text x="66" y="268" >tlnp</text>
    <text x="154" y="188" >you</text>
    <text x="186" y="188" >can:</text>
    <text x="226" y="204" >→</text>
    <text x="226" y="220" >→</text>
    <text x="226" y="236" >→</text>
    <text x="226" y="252" >→</text>
    <text x="226" y="268" >→</text>
    <text x="242" y="204" >see</text>
    <text x="274" y="204" >processes</text>
    <text x="354" y="204" >in</text>
    <text x="378" y="204" >the</text>
    <text x="410" y="204" >target</text>
    <text x="466" y="204" >container</text>
    <text x="242" y="220" >test</text>
    <text x="282" y="220" >the</text>
    <text x="314" y="220" >target&#39;s</text>
    <text x="386" y="220" >exposed</text>
    <text x="450" y="220" >service</text>
    <text x="242" y="236" >capture</text>
    <text x="306" y="236" >network</text>
    <text x="370" y="236" >traffic</text>
    <text x="242" y="252" >test</text>
    <text x="282" y="252" >DNS</text>
    <text x="314" y="252" >resolution</text>
    <text x="242" y="268" >see</text>
    <text x="274" y="268" >listening</text>
    <text x="354" y="268" >ports</text>
    <rect x="0" y="292" width="8" height="8" class="solid filled" rx="0"></rect>
    <line x1="4" y1="300" x2="4" y2="308" class="solid"></line>
    <line x1="16" y1="296" x2="32" y2="296" class="solid"></line>
    <text x="42" y="300" >COPY</text>
    <text x="82" y="300" >FILES</text>
    <line x1="128" y1="296" x2="480" y2="296" class="solid"></line>
    <rect x="0" y="308" width="8" height="8" class="solid filled" rx="0"></rect>
    <text x="18" y="316" >Copy</text>
    <text x="58" y="316" >a</text>
    <text x="74" y="316" >file</text>
    <text x="114" y="316" >from</text>
    <text x="154" y="316" >a</text>
    <text x="170" y="316" >container</text>
    <text x="250" y="316" >to</text>
    <text x="274" y="316" >the</text>
    <text x="306" y="316" >host</text>
    <path d="M 352,304 A 16,16 0,0,0 352,320" class="nofill"></path>
    <text x="354" y="316" >useful</text>
    <text x="410" y="316" >for</text>
    <text x="442" y="316" >inspecting</text>
    <text x="2" y="332" >docker</text>
    <text x="58" y="332" >cp</text>
    <text x="82" y="332" >web:</text>
    <line x1="120" y1="320" x2="112" y2="336" class="solid"></line>
    <text x="122" y="332" >etc</text>
    <line x1="152" y1="320" x2="144" y2="336" class="solid"></line>
    <text x="154" y="332" >nginx</text>
    <line x1="200" y1="320" x2="192" y2="336" class="solid"></line>
    <text x="202" y="332" >nginx.conf</text>
    <text x="290" y="332" >.</text>
    <line x1="304" y1="320" x2="296" y2="336" class="solid"></line>
    <text x="306" y="332" >nginx.conf</text>
    <text x="530" y="316" >config</text>
    <text x="586" y="316" >files</text>
    <path d="M 624,304 A 16,16 0,0,1 624,320" class="nofill"></path>
    <text x="634" y="316" >:</text>
    <text x="2" y="364" >#</text>
    <text x="18" y="364" >Copy</text>
    <text x="2" y="380" >docker</text>
    <text x="58" y="364" >a</text>
    <text x="74" y="364" >file</text>
    <text x="114" y="364" >from</text>
    <text x="154" y="364" >the</text>
    <text x="186" y="364" >host</text>
    <text x="226" y="364" >into</text>
    <text x="266" y="364" >a</text>
    <text x="282" y="364" >running</text>
    <text x="346" y="364" >container:</text>
    <text x="58" y="380" >cp</text>
    <text x="82" y="380" >.</text>
    <line x1="96" y1="368" x2="88" y2="384" class="solid"></line>
    <text x="98" y="380" >custom.conf</text>
    <text x="194" y="380" >web:</text>
    <line x1="232" y1="368" x2="224" y2="384" class="solid"></line>
    <text x="234" y="380" >etc</text>
    <line x1="264" y1="368" x2="256" y2="384" class="solid"></line>
    <text x="266" y="380" >nginx</text>
    <line x1="312" y1="368" x2="304" y2="384" class="solid"></line>
    <text x="314" y="380" >conf.d</text>
    <line x1="368" y1="368" x2="360" y2="384" class="solid"></line>
    <text x="370" y="380" >custom.conf</text>
    <rect x="0" y="404" width="8" height="8" class="solid filled" rx="0"></rect>
    <line x1="4" y1="412" x2="4" y2="420" class="solid"></line>
    <line x1="16" y1="408" x2="32" y2="408" class="solid"></line>
    <text x="42" y="412" >FILESYSTEM</text>
    <text x="130" y="412" >CHANGES</text>
    <line x1="192" y1="408" x2="472" y2="408" class="solid"></line>
    <rect x="0" y="420" width="8" height="8" class="solid filled" rx="0"></rect>
    <line x1="4" y1="428" x2="4" y2="436" class="solid"></line>
    <text x="18" y="428" >Show</text>
    <text x="58" y="428" >what</text>
    <text x="98" y="428" >files</text>
    <text x="146" y="428" >have</text>
    <text x="186" y="428" >been</text>
    <text x="226" y="428" >added,</text>
    <text x="282" y="428" >changed,</text>
    <text x="354" y="428" >or</text>
    <text x="378" y="428" >deleted</text>
    <text x="442" y="428" >in</text>
    <text x="466" y="428" >the</text>
    <rect x="0" y="436" width="8" height="8" class="solid filled" rx="0"></rect>
    <text x="18" y="444" >A</text>
    <line x1="32" y1="438" x2="40" y2="438" class="solid"></line>
    <line x1="32" y1="442" x2="40" y2="442" class="solid"></line>
    <text x="50" y="444" >added,</text>
    <text x="106" y="444" >C</text>
    <line x1="120" y1="438" x2="128" y2="438" class="solid"></line>
    <line x1="120" y1="442" x2="128" y2="442" class="solid"></line>
    <text x="138" y="444" >changed,</text>
    <text x="210" y="444" >D</text>
    <line x1="224" y1="438" x2="232" y2="438" class="solid"></line>
    <line x1="224" y1="442" x2="232" y2="442" class="solid"></line>
    <text x="242" y="444" >deleted.</text>
    <text x="2" y="460" >docker</text>
    <text x="58" y="460" >diff</text>
    <text x="98" y="460" >web</text>
    <rect x="0" y="468" width="8" height="8" class="solid filled" rx="0"></rect>
    <line x1="4" y1="476" x2="4" y2="484" class="solid"></line>
    <text x="18" y="476" >Output:</text>
    <rect x="0" y="484" width="8" height="8" class="solid filled" rx="0"></rect>
    <line x1="4" y1="492" x2="4" y2="500" class="solid"></line>
    <text x="18" y="492" >C</text>
    <line x1="40" y1="480" x2="32" y2="496" class="solid"></line>
    <text x="42" y="492" >var</text>
    <rect x="0" y="500" width="8" height="8" class="solid filled" rx="0"></rect>
    <line x1="4" y1="508" x2="4" y2="516" class="solid"></line>
    <text x="18" y="508" >C</text>
    <line x1="40" y1="496" x2="32" y2="512" class="solid"></line>
    <text x="42" y="508" >var</text>
    <line x1="72" y1="496" x2="64" y2="512" class="solid"></line>
    <text x="74" y="508" >cache</text>
    <rect x="0" y="516" width="8" height="8" class="solid filled" rx="0"></rect>
    <line x1="4" y1="524" x2="4" y2="532" class="solid"></line>
    <text x="18" y="524" >C</text>
    <line x1="40" y1="512" x2="32" y2="528" class="solid"></line>
    <text x="42" y="524" >var</text>
    <line x1="72" y1="512" x2="64" y2="528" class="solid"></line>
    <text x="74" y="524" >cache</text>
    <line x1="120" y1="512" x2="112" y2="528" class="solid"></line>
    <text x="122" y="524" >nginx</text>
    <rect x="0" y="532" width="8" height="8" class="solid filled" rx="0"></rect>
    <line x1="4" y1="540" x2="4" y2="548" class="solid"></line>
    <text x="18" y="540" >A</text>
    <line x1="40" y1="528" x2="32" y2="544" class="solid"></line>
    <text x="42" y="540" >var</text>
    <line x1="72" y1="528" x2="64" y2="544" class="solid"></line>
    <text x="74" y="540" >cache</text>
    <line x1="120" y1="528" x2="112" y2="544" class="solid"></line>
    <text x="122" y="540" >nginx</text>
    <line x1="168" y1="528" x2="160" y2="544" class="solid"></line>
    <text x="170" y="540" >client</text>
    <line x1="216" y1="544" x2="224" y2="544" class="solid"></line>
    <text x="226" y="540" >temp</text>
    <rect x="0" y="548" width="8" height="8" class="solid filled" rx="0"></rect>
    <line x1="4" y1="556" x2="4" y2="564" class="solid"></line>
    <text x="18" y="556" >C</text>
    <line x1="40" y1="544" x2="32" y2="560" class="solid"></line>
    <text x="42" y="556" >run</text>
    <rect x="0" y="564" width="8" height="8" class="solid filled" rx="0"></rect>
    <text x="18" y="572" >A</text>
    <line x1="40" y1="560" x2="32" y2="576" class="solid"></line>
    <text x="42" y="572" >run</text>
    <line x1="72" y1="560" x2="64" y2="576" class="solid"></line>
    <text x="74" y="572" >nginx.pid</text>
    <text x="498" y="428" >container&#39;s</text>
    <text x="594" y="428" >writable</text>
    <text x="666" y="428" >layer.</text>
    <rect x="0" y="596" width="8" height="8" class="solid filled" rx="0"></rect>
    <line x1="4" y1="604" x2="4" y2="612" class="solid"></line>
    <line x1="16" y1="600" x2="32" y2="600" class="solid"></line>
    <text x="42" y="604" >RESOURCE</text>
    <text x="114" y="604" >INVESTIGATION</text>
    <line x1="224" y1="600" x2="480" y2="600" class="solid"></line>
    <rect x="0" y="612" width="8" height="8" class="solid filled" rx="0"></rect>
    <text x="18" y="620" >See</text>
    <text x="50" y="620" >why</text>
    <text x="82" y="620" >a</text>
    <text x="98" y="620" >container</text>
    <text x="178" y="620" >exited:</text>
    <text x="2" y="636" >docker</text>
    <text x="58" y="636" >inspect</text>
    <text x="122" y="636" >web</text>
    <line x1="152" y1="632" x2="168" y2="632" class="solid"></line>
    <text x="170" y="636" >format</text>
    <line x1="228" y1="624" x2="228" y2="628" class="solid"></line>
    <text x="234" y="636" >{{.State.ExitCode}}</text>
    <text x="394" y="636" >{{.State.Error}}&#39;</text>
    <text x="2" y="668" >#</text>
    <text x="18" y="668" >Check</text>
    <text x="66" y="668" >the</text>
    <text x="2" y="684" >docker</text>
    <text x="58" y="684" >logs</text>
    <text x="98" y="668" >last</text>
    <text x="138" y="668" >50</text>
    <text x="162" y="668" >log</text>
    <text x="194" y="668" >lines</text>
    <line x1="96" y1="680" x2="112" y2="680" class="solid"></line>
    <text x="114" y="684" >tail</text>
    <text x="154" y="684" >50</text>
    <text x="178" y="684" >web</text>
    <text x="242" y="668" >of</text>
    <text x="266" y="668" >a</text>
    <text x="282" y="668" >crashed</text>
    <text x="346" y="668" >container:</text>
    <text x="2" y="716" >#</text>
    <text x="18" y="716" >View</text>
    <text x="2" y="732" >docker</text>
    <text x="58" y="716" >real</text>
    <line x1="88" y1="712" x2="96" y2="712" class="solid"></line>
    <text x="98" y="716" >time</text>
    <text x="138" y="716" >events</text>
    <path d="M 200,704 A 16,16 0,0,0 200,720" class="nofill"></path>
    <text x="202" y="716" >container</text>
    <text x="282" y="716" >start,</text>
    <text x="58" y="732" >events</text>
    <line x1="112" y1="728" x2="128" y2="728" class="solid"></line>
    <text x="130" y="732" >filter</text>
    <text x="186" y="732" >container</text>
    <line x1="256" y1="726" x2="264" y2="726" class="solid"></line>
    <line x1="256" y1="730" x2="264" y2="730" class="solid"></line>
    <text x="266" y="732" >web</text>
    <text x="338" y="716" >stop,</text>
    <text x="386" y="716" >die,</text>
    <text x="426" y="716" >etc.</text>
    <path d="M 456,704 A 16,16 0,0,1 456,720" class="nofill"></path>
    <text x="466" y="716" >:</text>
    <rect x="0" y="756" width="8" height="8" class="solid filled" rx="0"></rect>
    <line x1="4" y1="764" x2="4" y2="772" class="solid"></line>
    <line x1="16" y1="760" x2="32" y2="760" class="solid"></line>
    <text x="42" y="764" >SYSTEM</text>
    <text x="98" y="764" >CLEANUP</text>
    <line x1="160" y1="760" x2="480" y2="760" class="solid"></line>
    <rect x="0" y="772" width="8" height="8" class="solid filled" rx="0"></rect>
    <line x1="4" y1="780" x2="4" y2="788" class="solid"></line>
    <text x="18" y="780" >The</text>
    <text x="50" y="780" >nuclear</text>
    <text x="114" y="780" >option:</text>
    <text x="178" y="780" >remove</text>
    <text x="234" y="780" >ALL</text>
    <text x="266" y="780" >stopped</text>
    <text x="330" y="780" >containers,</text>
    <text x="426" y="780" >unused</text>
    <text x="482" y="780" >networks,</text>
    <rect x="0" y="788" width="8" height="8" class="solid filled" rx="0"></rect>
    <text x="18" y="796" >dangling</text>
    <text x="90" y="796" >images,</text>
    <text x="154" y="796" >and</text>
    <text x="186" y="796" >build</text>
    <text x="234" y="796" >cache.</text>
    <text x="290" y="796" >Reclaim</text>
    <text x="354" y="796" >disk</text>
    <text x="394" y="796" >space.</text>
    <text x="2" y="812" >docker</text>
    <text x="58" y="812" >system</text>
    <text x="114" y="812" >prune</text>
    <line x1="160" y1="808" x2="168" y2="808" class="solid"></line>
    <text x="170" y="812" >a</text>
    <line x1="184" y1="808" x2="200" y2="808" class="solid"></line>
    <text x="202" y="812" >volumes</text>
    <text x="2" y="844" >#</text>
    <text x="18" y="844" >See</text>
    <text x="50" y="844" >disk</text>
    <text x="90" y="844" >usage</text>
    <text x="2" y="860" >docker</text>
    <text x="58" y="860" >system</text>
    <text x="114" y="860" >df</text>
    <rect x="0" y="868" width="8" height="8" class="solid filled" rx="0"></rect>
    <line x1="4" y1="876" x2="4" y2="884" class="solid"></line>
    <text x="18" y="876" >Output:</text>
    <rect x="0" y="884" width="8" height="8" class="solid filled" rx="0"></rect>
    <line x1="4" y1="892" x2="4" y2="900" class="solid"></line>
    <text x="18" y="892" >TYPE</text>
    <rect x="0" y="900" width="8" height="8" class="solid filled" rx="0"></rect>
    <line x1="4" y1="908" x2="4" y2="916" class="solid"></line>
    <text x="18" y="908" >Images</text>
    <rect x="0" y="916" width="8" height="8" class="solid filled" rx="0"></rect>
    <line x1="4" y1="924" x2="4" y2="932" class="solid"></line>
    <text x="18" y="924" >Containers</text>
    <rect x="0" y="932" width="8" height="8" class="solid filled" rx="0"></rect>
    <line x1="4" y1="940" x2="4" y2="948" class="solid"></line>
    <text x="18" y="940" >Local</text>
    <text x="66" y="940" >Volumes</text>
    <rect x="0" y="948" width="8" height="8" class="solid filled" rx="0"></rect>
    <text x="18" y="956" >Build</text>
    <text x="66" y="956" >Cache</text>
    <text x="138" y="844" >breakdown:</text>
    <text x="146" y="892" >TOTAL</text>
    <text x="146" y="908" >15</text>
    <text x="146" y="924" >5</text>
    <text x="146" y="940" >8</text>
    <text x="146" y="956" >23</text>
    <text x="210" y="892" >ACTIVE</text>
    <text x="210" y="908" >3</text>
    <text x="210" y="924" >2</text>
    <text x="210" y="940" >2</text>
    <text x="210" y="956" >0</text>
    <text x="274" y="892" >SIZE</text>
    <text x="274" y="908" >4.2GB</text>
    <text x="274" y="924" >102.3MB</text>
    <text x="274" y="940" >1.5GB</text>
    <text x="274" y="956" >890MB</text>
    <text x="354" y="892" >RECLAIMABLE</text>
    <text x="354" y="908" >3.1GB</text>
    <path d="M 408,896 A 16,16 0,0,0 408,912" class="nofill"></path>
    <text x="410" y="908" >73%</text>
    <path d="M 432,896 A 16,16 0,0,1 432,912" class="nofill"></path>
    <text x="354" y="924" >98.1MB</text>
    <path d="M 416,912 A 16,16 0,0,0 416,928" class="nofill"></path>
    <text x="418" y="924" >95%</text>
    <path d="M 440,912 A 16,16 0,0,1 440,928" class="nofill"></path>
    <text x="354" y="940" >1.2GB</text>
    <text x="410" y="940" >80%</text>
    <path d="M 432,928 A 16,16 0,0,1 432,944" class="nofill"></path>
    <text x="354" y="956" >890MB</text>
    <text x="410" y="956" >100%</text>
    <path d="M 440,944 A 16,16 0,0,1 440,960" class="nofill"></path>
    <g>
        <path d="M 408,928 A 16,16 0,0,0 408,944" class="nofill"></path>
        <path d="M 408,944 A 16,16 0,0,0 408,960" class="nofill"></path>
    </g>
</svg>