<svg xmlns="http://www.w3.org/2000/svg" width="800" height="560" style="background:#ffffff;border:1px solid #e5e5e5;border-radius:8px;max-width:100%;height:auto"><rect x="0" y="0" width="100%" height="100%" fill="#ffffff"/>
    <style>
        line, path, circle, rect, polygon{stroke:black;stroke-width:2;stroke-opacity:1;fill-opacity:1;stroke-linecap:round;stroke-linejoin:miter;}text{font-family:Iosevka Fixed, monospace;font-size:14px;}rect.backdrop{stroke:none;fill:transparent;}.broken{stroke-dasharray:8;}.filled{fill:black;}.bg_filled{fill:transparent;}.nofill{fill:transparent;}.end_marked_arrow{marker-end:url(#arrow);}.start_marked_arrow{marker-start:url(#arrow);}.end_marked_diamond{marker-end:url(#diamond);}.start_marked_diamond{marker-start:url(#diamond);}.end_marked_circle{marker-end:url(#circle);}.start_marked_circle{marker-start:url(#circle);}.end_marked_open_circle{marker-end:url(#open_circle);}.start_marked_open_circle{marker-start:url(#open_circle);}.end_marked_big_open_circle{marker-end:url(#big_open_circle);}.start_marked_big_open_circle{marker-start:url(#big_open_circle);}
        <!--separator-->
        
    </style>
    <defs>
        <marker id="arrow" viewBox="-2 -2 8 8" refX="4" refY="2" markerWidth="7" markerHeight="7" orient="auto-start-reverse">
            <polygon points="0,0 0,4 4,2 0,0"></polygon>
        </marker>
        <marker id="diamond" viewBox="-2 -2 8 8" refX="4" refY="2" markerWidth="7" markerHeight="7" orient="auto-start-reverse">
            <polygon points="0,2 2,0 4,2 2,4 0,2"></polygon>
        </marker>
        <marker id="circle" viewBox="0 0 8 8" refX="4" refY="4" markerWidth="7" markerHeight="7" orient="auto-start-reverse">
            <circle cx="4" cy="4" r="2" class="filled"></circle>
        </marker>
        <marker id="open_circle" viewBox="0 0 8 8" refX="4" refY="4" markerWidth="7" markerHeight="7" orient="auto-start-reverse">
            <circle cx="4" cy="4" r="2" class="bg_filled"></circle>
        </marker>
        <marker id="big_open_circle" viewBox="0 0 8 8" refX="4" refY="4" markerWidth="7" markerHeight="7" orient="auto-start-reverse">
            <circle cx="4" cy="4" r="3" class="bg_filled"></circle>
        </marker>
    </defs>
    <rect class="backdrop" x="0" y="0" width="800" height="560"></rect>
    <rect x="0" y="4" width="8" height="8" class="solid filled" rx="0"></rect>
    <line x1="4" y1="12" x2="4" y2="20" class="solid"></line>
    <line x1="16" y1="8" x2="32" y2="8" class="solid"></line>
    <text x="42" y="12" >PULL</text>
    <line x1="80" y1="8" x2="480" y2="8" class="solid"></line>
    <rect x="0" y="20" width="8" height="8" class="solid filled" rx="0"></rect>
    <line x1="4" y1="28" x2="4" y2="36" class="solid"></line>
    <text x="18" y="28" >Download</text>
    <text x="90" y="28" >the</text>
    <text x="122" y="28" >nginx</text>
    <text x="170" y="28" >image</text>
    <text x="218" y="28" >with</text>
    <text x="258" y="28" >the</text>
    <text x="290" y="28" >&#39;alpine&#39;</text>
    <text x="362" y="28" >tag</text>
    <text x="394" y="28" >from</text>
    <text x="434" y="28" >Docker</text>
    <rect x="0" y="36" width="8" height="8" class="solid filled" rx="0"></rect>
    <text x="18" y="44" >&#39;alpine&#39;</text>
    <text x="90" y="44" >images</text>
    <text x="146" y="44" >use</text>
    <text x="178" y="44" >Alpine</text>
    <text x="234" y="44" >Linux</text>
    <text x="282" y="44" >as</text>
    <text x="306" y="44" >the</text>
    <text x="338" y="44" >base</text>
    <line x1="376" y1="40" x2="384" y2="40" class="solid"></line>
    <text x="394" y="44" >they</text>
    <text x="434" y="44" >are</text>
    <line x1="464" y1="40" x2="472" y2="40" class="broken"></line>
    <text x="474" y="44" >5</text>
    <text x="2" y="60" >docker</text>
    <text x="58" y="60" >pull</text>
    <text x="98" y="60" >nginx:alpine</text>
    <text x="490" y="28" >Hub.</text>
    <text x="490" y="44" >MB</text>
    <text x="522" y="44" >s</text>
    <line x1="536" y1="40" x2="544" y2="40" class="broken"></line>
    <text x="546" y="44" >140</text>
    <text x="578" y="44" >MB</text>
    <text x="602" y="44" >for</text>
    <text x="634" y="44" >Debian</text>
    <line x1="680" y1="40" x2="688" y2="40" class="solid"></line>
    <text x="690" y="44" >based</text>
    <text x="738" y="44" >images.</text>
    <rect x="0" y="84" width="8" height="8" class="solid filled" rx="0"></rect>
    <line x1="4" y1="92" x2="4" y2="100" class="solid"></line>
    <line x1="16" y1="88" x2="32" y2="88" class="solid"></line>
    <text x="42" y="92" >LIST</text>
    <line x1="80" y1="88" x2="480" y2="88" class="solid"></line>
    <rect x="0" y="100" width="8" height="8" class="solid filled" rx="0"></rect>
    <text x="18" y="108" >List</text>
    <text x="58" y="108" >all</text>
    <text x="90" y="108" >images</text>
    <text x="146" y="108" >stored</text>
    <text x="202" y="108" >locally.</text>
    <text x="274" y="108" >Shows</text>
    <text x="322" y="108" >repository,</text>
    <text x="418" y="108" >tag,</text>
    <text x="458" y="108" >image</text>
    <text x="2" y="124" >docker</text>
    <text x="58" y="124" >images</text>
    <rect x="0" y="132" width="8" height="8" class="solid filled" rx="0"></rect>
    <line x1="4" y1="140" x2="4" y2="148" class="solid"></line>
    <text x="18" y="140" >Output:</text>
    <rect x="0" y="148" width="8" height="8" class="solid filled" rx="0"></rect>
    <line x1="4" y1="156" x2="4" y2="164" class="solid"></line>
    <text x="18" y="156" >REPOSITORY</text>
    <rect x="0" y="164" width="8" height="8" class="solid filled" rx="0"></rect>
    <text x="18" y="172" >nginx</text>
    <text x="506" y="108" >ID,</text>
    <text x="538" y="108" >creation</text>
    <text x="610" y="108" >date,</text>
    <text x="658" y="108" >and</text>
    <text x="690" y="108" >size.</text>
    <text x="122" y="156" >TAG</text>
    <text x="122" y="172" >alpine</text>
    <text x="202" y="156" >IMAGE</text>
    <text x="250" y="156" >ID</text>
    <text x="202" y="172" >a8758716bb6a</text>
    <text x="322" y="156" >CREATED</text>
    <text x="322" y="172" >2</text>
    <text x="338" y="172" >weeks</text>
    <text x="434" y="156" >SIZE</text>
    <text x="434" y="172" >43.2MB</text>
    <text x="386" y="172" >ago</text>
    <rect x="0" y="196" width="8" height="8" class="solid filled" rx="0"></rect>
    <line x1="4" y1="204" x2="4" y2="212" class="solid"></line>
    <line x1="16" y1="200" x2="32" y2="200" class="solid"></line>
    <text x="42" y="204" >INSPECT</text>
    <line x1="104" y1="200" x2="480" y2="200" class="solid"></line>
    <rect x="0" y="212" width="8" height="8" class="solid filled" rx="0"></rect>
    <line x1="4" y1="220" x2="4" y2="228" class="solid"></line>
    <text x="18" y="220" >Show</text>
    <text x="58" y="220" >full</text>
    <text x="98" y="220" >JSON</text>
    <text x="138" y="220" >metadata</text>
    <text x="210" y="220" >for</text>
    <text x="242" y="220" >an</text>
    <text x="266" y="220" >image:</text>
    <text x="322" y="220" >architecture,</text>
    <text x="434" y="220" >OS,</text>
    <text x="466" y="220" >layers,</text>
    <rect x="0" y="228" width="8" height="8" class="solid filled" rx="0"></rect>
    <text x="18" y="236" >Useful</text>
    <text x="74" y="236" >for</text>
    <text x="106" y="236" >debugging</text>
    <text x="2" y="252" >docker</text>
    <text x="58" y="252" >image</text>
    <text x="106" y="252" >inspect</text>
    <text x="170" y="252" >nginx:alpine</text>
    <text x="530" y="220" >config,</text>
    <text x="594" y="220" >environment</text>
    <text x="690" y="220" >variables.</text>
    <text x="2" y="284" >#</text>
    <text x="18" y="284" >View</text>
    <text x="2" y="300" >docker</text>
    <text x="58" y="284" >just</text>
    <text x="98" y="284" >the</text>
    <text x="130" y="284" >environment</text>
    <text x="226" y="284" >variables:</text>
    <text x="58" y="300" >image</text>
    <text x="106" y="300" >inspect</text>
    <text x="170" y="300" >nginx:alpine</text>
    <line x1="272" y1="296" x2="288" y2="296" class="solid"></line>
    <text x="290" y="300" >f</text>
    <line x1="300" y1="288" x2="300" y2="292" class="solid"></line>
    <circle cx="300" cy="296" r="3" class="nofill"></circle>
    <text x="306" y="300" >rmat</text>
    <text x="346" y="300" >&#39;{{json</text>
    <text x="410" y="300" >.Config.Env}}&#39;</text>
    <line x1="532" y1="288" x2="532" y2="304" class="solid"></line>
    <text x="546" y="300" >python3</text>
    <line x1="608" y1="296" x2="616" y2="296" class="solid"></line>
    <text x="618" y="300" >m</text>
    <text x="634" y="300" >json.tool</text>
    <rect x="0" y="324" width="8" height="8" class="solid filled" rx="0"></rect>
    <line x1="4" y1="332" x2="4" y2="340" class="solid"></line>
    <line x1="16" y1="328" x2="32" y2="328" class="solid"></line>
    <text x="42" y="332" >HISTORY</text>
    <line x1="104" y1="328" x2="480" y2="328" class="solid"></line>
    <rect x="0" y="340" width="8" height="8" class="solid filled" rx="0"></rect>
    <line x1="4" y1="348" x2="4" y2="356" class="solid"></line>
    <text x="18" y="348" >Show</text>
    <text x="58" y="348" >the</text>
    <text x="90" y="348" >layer</text>
    <line x1="128" y1="344" x2="136" y2="344" class="solid"></line>
    <text x="138" y="348" >by</text>
    <line x1="152" y1="344" x2="160" y2="344" class="solid"></line>
    <text x="162" y="348" >layer</text>
    <text x="210" y="348" >build</text>
    <text x="258" y="348" >history</text>
    <text x="322" y="348" >of</text>
    <text x="346" y="348" >an</text>
    <text x="370" y="348" >image.</text>
    <rect x="0" y="356" width="8" height="8" class="solid filled" rx="0"></rect>
    <text x="18" y="364" >Each</text>
    <text x="58" y="364" >row</text>
    <text x="90" y="364" >corresponds</text>
    <text x="186" y="364" >to</text>
    <text x="210" y="364" >a</text>
    <text x="226" y="364" >Dockerfile</text>
    <text x="314" y="364" >instruction.</text>
    <text x="418" y="364" >The</text>
    <text x="2" y="380" >docker</text>
    <text x="58" y="380" >image</text>
    <text x="106" y="380" >history</text>
    <text x="170" y="380" >nginx:alpine</text>
    <text x="450" y="364" >SIZE</text>
    <text x="490" y="364" >column</text>
    <text x="546" y="364" >shows</text>
    <text x="594" y="364" >the</text>
    <text x="626" y="364" >filesystem</text>
    <text x="714" y="364" >diff.</text>
    <rect x="0" y="404" width="8" height="8" class="solid filled" rx="0"></rect>
    <line x1="4" y1="412" x2="4" y2="420" class="solid"></line>
    <line x1="16" y1="408" x2="32" y2="408" class="solid"></line>
    <text x="42" y="412" >REMOVE</text>
    <line x1="96" y1="408" x2="480" y2="408" class="solid"></line>
    <rect x="0" y="420" width="8" height="8" class="solid filled" rx="0"></rect>
    <text x="18" y="428" >Remove</text>
    <text x="74" y="428" >an</text>
    <text x="98" y="428" >image</text>
    <text x="146" y="428" >from</text>
    <text x="186" y="428" >local</text>
    <text x="234" y="428" >storage.</text>
    <text x="306" y="428" >Fails</text>
    <text x="354" y="428" >if</text>
    <text x="378" y="428" >any</text>
    <text x="410" y="428" >container</text>
    <text x="2" y="444" >docker</text>
    <text x="58" y="444" >rmi</text>
    <text x="90" y="444" >nginx:alpine</text>
    <path d="M 496,416 A 16,16 0,0,0 496,432" class="nofill"></path>
    <text x="498" y="428" >running</text>
    <text x="562" y="428" >or</text>
    <text x="586" y="428" >stopped</text>
    <path d="M 640,416 A 16,16 0,0,1 640,432" class="nofill"></path>
    <text x="658" y="428" >uses</text>
    <text x="698" y="428" >it.</text>
    <text x="2" y="476" >#</text>
    <text x="18" y="476" >Force</text>
    <line x1="56" y1="472" x2="64" y2="472" class="solid"></line>
    <text x="66" y="476" >remove</text>
    <text x="122" y="476" >an</text>
    <text x="146" y="476" >image</text>
    <text x="194" y="476" >even</text>
    <text x="2" y="492" >docker</text>
    <text x="58" y="492" >rmi</text>
    <line x1="88" y1="488" x2="96" y2="488" class="solid"></line>
    <text x="98" y="492" >f</text>
    <text x="114" y="492" >nginx:alpine</text>
    <text x="234" y="476" >if</text>
    <text x="258" y="476" >containers</text>
    <text x="346" y="476" >reference</text>
    <text x="426" y="476" >it</text>
    <path d="M 456,464 A 16,16 0,0,0 456,480" class="nofill"></path>
    <text x="458" y="476" >use</text>
    <text x="490" y="476" >with</text>
    <text x="530" y="476" >caution</text>
    <path d="M 584,464 A 16,16 0,0,1 584,480" class="nofill"></path>
    <text x="594" y="476" >:</text>
    <text x="2" y="524" >#</text>
    <text x="18" y="524" >Remove</text>
    <text x="74" y="524" >all</text>
    <text x="2" y="540" >docker</text>
    <text x="58" y="540" >image</text>
    <text x="106" y="524" >unused</text>
    <text x="162" y="524" >images</text>
    <text x="106" y="540" >prune</text>
    <line x1="152" y1="536" x2="160" y2="536" class="solid"></line>
    <text x="162" y="540" >a</text>
    <path d="M 224,512 A 16,16 0,0,0 224,528" class="nofill"></path>
    <text x="226" y="524" >images</text>
    <text x="282" y="524" >not</text>
    <text x="314" y="524" >referenced</text>
    <text x="402" y="524" >by</text>
    <text x="426" y="524" >any</text>
    <text x="458" y="524" >container</text>
    <path d="M 528,512 A 16,16 0,0,1 528,528" class="nofill"></path>
    <text x="538" y="524" >:</text>
    <text x="186" y="236" >why does this image behave differently on my machine?</text>
    <g>
        <line x1="516" y1="32" x2="516" y2="36" class="solid"></line>
        <polygon points="512,36 520,36 516,48" class="filled"></polygon>
    </g>
</svg>