<svg xmlns="http://www.w3.org/2000/svg" width="728" height="192" style="background:#ffffff;border:1px solid #e5e5e5;border-radius:8px;max-width:100%;height:auto"><rect x="0" y="0" width="100%" height="100%" fill="#ffffff"/>
    <style>
        line, path, circle, rect, polygon{stroke:black;stroke-width:2;stroke-opacity:1;fill-opacity:1;stroke-linecap:round;stroke-linejoin:miter;}text{font-family:Iosevka Fixed, monospace;font-size:14px;}rect.backdrop{stroke:none;fill:transparent;}.broken{stroke-dasharray:8;}.filled{fill:black;}.bg_filled{fill:transparent;}.nofill{fill:transparent;}.end_marked_arrow{marker-end:url(#arrow);}.start_marked_arrow{marker-start:url(#arrow);}.end_marked_diamond{marker-end:url(#diamond);}.start_marked_diamond{marker-start:url(#diamond);}.end_marked_circle{marker-end:url(#circle);}.start_marked_circle{marker-start:url(#circle);}.end_marked_open_circle{marker-end:url(#open_circle);}.start_marked_open_circle{marker-start:url(#open_circle);}.end_marked_big_open_circle{marker-end:url(#big_open_circle);}.start_marked_big_open_circle{marker-start:url(#big_open_circle);}
        <!--separator-->
        
    </style>
    <defs>
        <marker id="arrow" viewBox="-2 -2 8 8" refX="4" refY="2" markerWidth="7" markerHeight="7" orient="auto-start-reverse">
            <polygon points="0,0 0,4 4,2 0,0"></polygon>
        </marker>
        <marker id="diamond" viewBox="-2 -2 8 8" refX="4" refY="2" markerWidth="7" markerHeight="7" orient="auto-start-reverse">
            <polygon points="0,2 2,0 4,2 2,4 0,2"></polygon>
        </marker>
        <marker id="circle" viewBox="0 0 8 8" refX="4" refY="4" markerWidth="7" markerHeight="7" orient="auto-start-reverse">
            <circle cx="4" cy="4" r="2" class="filled"></circle>
        </marker>
        <marker id="open_circle" viewBox="0 0 8 8" refX="4" refY="4" markerWidth="7" markerHeight="7" orient="auto-start-reverse">
            <circle cx="4" cy="4" r="2" class="bg_filled"></circle>
        </marker>
        <marker id="big_open_circle" viewBox="0 0 8 8" refX="4" refY="4" markerWidth="7" markerHeight="7" orient="auto-start-reverse">
            <circle cx="4" cy="4" r="3" class="bg_filled"></circle>
        </marker>
    </defs>
    <rect class="backdrop" x="0" y="0" width="728" height="192"></rect>
    <text x="2" y="12" >#</text>
    <line x1="16" y1="8" x2="32" y2="8" class="solid"></line>
    <text x="42" y="12" >Apply</text>
    <path d="M 96,0 A 16,16 0,0,0 96,16" class="nofill"></path>
    <text x="98" y="12" >declarative</text>
    <line x1="192" y1="8" x2="200" y2="8" class="solid"></line>
    <text x="210" y="12" >preferred</text>
    <path d="M 280,0 A 16,16 0,0,1 280,16" class="nofill"></path>
    <line x1="296" y1="8" x2="536" y2="8" class="solid"></line>
    <text x="2" y="28" >kubectl</text>
    <text x="66" y="28" >apply</text>
    <line x1="112" y1="24" x2="120" y2="24" class="solid"></line>
    <text x="122" y="28" >f</text>
    <text x="138" y="28" >deployment.yaml</text>
    <rect x="328" y="20" width="8" height="8" class="solid filled" rx="0"></rect>
    <line x1="332" y1="28" x2="332" y2="36" class="solid"></line>
    <text x="346" y="28" >Create</text>
    <text x="402" y="28" >or</text>
    <text x="426" y="28" >update</text>
    <text x="482" y="28" >resources</text>
    <text x="562" y="28" >from</text>
    <text x="602" y="28" >a</text>
    <text x="618" y="28" >file</text>
    <text x="2" y="44" >kubectl</text>
    <text x="66" y="44" >apply</text>
    <line x1="112" y1="40" x2="120" y2="40" class="solid"></line>
    <text x="122" y="44" >f</text>
    <text x="138" y="44" >.</text>
    <line x1="152" y1="32" x2="144" y2="48" class="solid"></line>
    <text x="154" y="44" >manifests</text>
    <line x1="232" y1="32" x2="224" y2="48" class="solid"></line>
    <rect x="328" y="36" width="8" height="8" class="solid filled" rx="0"></rect>
    <text x="346" y="44" >Apply</text>
    <text x="394" y="44" >all</text>
    <text x="426" y="44" >YAML</text>
    <text x="466" y="44" >files</text>
    <text x="514" y="44" >in</text>
    <text x="538" y="44" >a</text>
    <text x="554" y="44" >directory</text>
    <text x="2" y="60" >kubectl</text>
    <text x="66" y="60" >apply</text>
    <line x1="112" y1="56" x2="120" y2="56" class="solid"></line>
    <text x="122" y="60" >f</text>
    <text x="138" y="60" >https:</text>
    <line x1="192" y1="48" x2="184" y2="64" class="solid"></line>
    <line x1="200" y1="48" x2="192" y2="64" class="solid"></line>
    <text x="202" y="60" >example.com</text>
    <line x1="296" y1="48" x2="288" y2="64" class="solid"></line>
    <text x="298" y="60" >manifest.yaml</text>
    <text x="418" y="60" >#</text>
    <text x="434" y="60" >Apply</text>
    <text x="482" y="60" >from</text>
    <text x="522" y="60" >a</text>
    <text x="538" y="60" >URL</text>
    <text x="2" y="76" >kubectl</text>
    <text x="66" y="76" >apply</text>
    <line x1="112" y1="72" x2="120" y2="72" class="solid"></line>
    <text x="122" y="76" >k</text>
    <text x="138" y="76" >.</text>
    <line x1="152" y1="64" x2="144" y2="80" class="solid"></line>
    <text x="154" y="76" >overlays</text>
    <line x1="224" y1="64" x2="216" y2="80" class="solid"></line>
    <text x="226" y="76" >production</text>
    <line x1="312" y1="64" x2="304" y2="80" class="solid"></line>
    <text x="330" y="76" >#</text>
    <text x="346" y="76" >Apply</text>
    <text x="394" y="76" >a</text>
    <text x="410" y="76" >Kustomize</text>
    <text x="490" y="76" >overlay</text>
    <text x="2" y="108" >#</text>
    <line x1="16" y1="104" x2="32" y2="104" class="solid"></line>
    <text x="42" y="108" >Delete</text>
    <line x1="96" y1="104" x2="544" y2="104" class="solid"></line>
    <text x="2" y="124" >kubectl</text>
    <text x="66" y="124" >delete</text>
    <line x1="120" y1="120" x2="128" y2="120" class="solid"></line>
    <text x="130" y="124" >f</text>
    <text x="146" y="124" >deployment.yaml</text>
    <rect x="328" y="116" width="8" height="8" class="solid filled" rx="0"></rect>
    <line x1="332" y1="124" x2="332" y2="132" class="solid"></line>
    <text x="346" y="124" >Delete</text>
    <text x="402" y="124" >resources</text>
    <text x="482" y="124" >defined</text>
    <text x="546" y="124" >in</text>
    <text x="570" y="124" >a</text>
    <text x="2" y="140" >kubectl</text>
    <text x="66" y="140" >delete</text>
    <text x="122" y="140" >pod</text>
    <text x="154" y="140" >nginx</text>
    <line x1="192" y1="136" x2="200" y2="136" class="solid"></line>
    <text x="202" y="140" >pod</text>
    <rect x="328" y="132" width="8" height="8" class="solid filled" rx="0"></rect>
    <line x1="332" y1="140" x2="332" y2="148" class="solid"></line>
    <text x="346" y="140" >Delete</text>
    <text x="402" y="140" >a</text>
    <text x="418" y="140" >specific</text>
    <text x="490" y="140" >Pod</text>
    <text x="522" y="140" >by</text>
    <text x="546" y="140" >name</text>
    <text x="2" y="156" >kubectl</text>
    <text x="66" y="156" >delete</text>
    <text x="122" y="156" >pods</text>
    <line x1="160" y1="152" x2="168" y2="152" class="solid"></line>
    <text x="170" y="156" >l</text>
    <text x="186" y="156" >app</text>
    <line x1="208" y1="150" x2="216" y2="150" class="solid"></line>
    <line x1="208" y1="154" x2="216" y2="154" class="solid"></line>
    <text x="218" y="156" >api</text>
    <line x1="240" y1="152" x2="248" y2="152" class="solid"></line>
    <text x="250" y="156" >server</text>
    <rect x="328" y="148" width="8" height="8" class="solid filled" rx="0"></rect>
    <line x1="332" y1="156" x2="332" y2="164" class="solid"></line>
    <text x="346" y="156" >Delete</text>
    <text x="402" y="156" >all</text>
    <text x="434" y="156" >Pods</text>
    <text x="474" y="156" >matching</text>
    <text x="546" y="156" >a</text>
    <text x="562" y="156" >label</text>
    <text x="610" y="156" >selector</text>
    <text x="2" y="172" >kubectl</text>
    <text x="66" y="172" >delete</text>
    <text x="122" y="172" >namespace</text>
    <text x="202" y="172" >staging</text>
    <rect x="328" y="164" width="8" height="8" class="solid filled" rx="0"></rect>
    <text x="346" y="172" >Delete</text>
    <text x="402" y="172" >an</text>
    <text x="426" y="172" >entire</text>
    <text x="482" y="172" >namespace</text>
    <text x="562" y="172" >and</text>
    <text x="594" y="172" >everything</text>
    <text x="586" y="124" >file</text>
    <text x="682" y="172" >in</text>
    <text x="706" y="172" >it</text>
</svg>