<svg xmlns="http://www.w3.org/2000/svg" width="456" height="128" style="background:#ffffff;border:1px solid #e5e5e5;border-radius:8px;max-width:100%;height:auto"><rect x="0" y="0" width="100%" height="100%" fill="#ffffff"/>
    <style>
        line, path, circle, rect, polygon{stroke:black;stroke-width:2;stroke-opacity:1;fill-opacity:1;stroke-linecap:round;stroke-linejoin:miter;}text{font-family:Iosevka Fixed, monospace;font-size:14px;}rect.backdrop{stroke:none;fill:transparent;}.broken{stroke-dasharray:8;}.filled{fill:black;}.bg_filled{fill:transparent;}.nofill{fill:transparent;}.end_marked_arrow{marker-end:url(#arrow);}.start_marked_arrow{marker-start:url(#arrow);}.end_marked_diamond{marker-end:url(#diamond);}.start_marked_diamond{marker-start:url(#diamond);}.end_marked_circle{marker-end:url(#circle);}.start_marked_circle{marker-start:url(#circle);}.end_marked_open_circle{marker-end:url(#open_circle);}.start_marked_open_circle{marker-start:url(#open_circle);}.end_marked_big_open_circle{marker-end:url(#big_open_circle);}.start_marked_big_open_circle{marker-start:url(#big_open_circle);}
        <!--separator-->
        
    </style>
    <defs>
        <marker id="arrow" viewBox="-2 -2 8 8" refX="4" refY="2" markerWidth="7" markerHeight="7" orient="auto-start-reverse">
            <polygon points="0,0 0,4 4,2 0,0"></polygon>
        </marker>
        <marker id="diamond" viewBox="-2 -2 8 8" refX="4" refY="2" markerWidth="7" markerHeight="7" orient="auto-start-reverse">
            <polygon points="0,2 2,0 4,2 2,4 0,2"></polygon>
        </marker>
        <marker id="circle" viewBox="0 0 8 8" refX="4" refY="4" markerWidth="7" markerHeight="7" orient="auto-start-reverse">
            <circle cx="4" cy="4" r="2" class="filled"></circle>
        </marker>
        <marker id="open_circle" viewBox="0 0 8 8" refX="4" refY="4" markerWidth="7" markerHeight="7" orient="auto-start-reverse">
            <circle cx="4" cy="4" r="2" class="bg_filled"></circle>
        </marker>
        <marker id="big_open_circle" viewBox="0 0 8 8" refX="4" refY="4" markerWidth="7" markerHeight="7" orient="auto-start-reverse">
            <circle cx="4" cy="4" r="3" class="bg_filled"></circle>
        </marker>
    </defs>
    <rect class="backdrop" x="0" y="0" width="456" height="128"></rect>
    <text x="2" y="12" >App</text>
    <text x="34" y="12" >→</text>
    <text x="50" y="12" >calls</text>
    <text x="250" y="12" >→</text>
    <text x="266" y="12" >Ser</text>
    <text x="298" y="12" >ice</text>
    <text x="186" y="76" >Pod</text>
    <line x1="208" y1="72" x2="216" y2="72" class="solid"></line>
    <text x="218" y="76" >A</text>
    <text x="266" y="76" >Pod</text>
    <line x1="288" y1="72" x2="296" y2="72" class="solid"></line>
    <text x="298" y="76" >B</text>
    <text x="346" y="76" >Pod</text>
    <line x1="368" y1="72" x2="376" y2="72" class="solid"></line>
    <text x="378" y="76" >C</text>
    <text x="178" y="92" >10.0.1.5</text>
    <path d="M 240,80 A 16,16 0,0,1 240,96" class="nofill"></path>
    <path d="M 264,80 A 16,16 0,0,0 264,96" class="nofill"></path>
    <text x="266" y="92" >10.0.1.6</text>
    <path d="M 328,80 A 16,16 0,0,1 328,96" class="nofill"></path>
    <text x="354" y="92" >10.0.1.7</text>
    <path d="M 416,80 A 16,16 0,0,1 416,96" class="nofill"></path>
    <text x="178" y="108" >may</text>
    <text x="210" y="108" >change</text>
    <text x="266" y="108" >at</text>
    <text x="290" y="108" >any</text>
    <text x="322" y="108" >time</text>
    <path d="M 336,0 A 16,16 0,0,0 336,16" class="nofill"></path>
    <text x="338" y="12" >stable</text>
    <text x="394" y="12" >IP</text>
    <line x1="416" y1="0" x2="408" y2="16" class="solid"></line>
    <text x="418" y="12" >DNS</text>
    <path d="M 440,0 A 16,16 0,0,1 440,16" class="nofill"></path>
    <text x="98" y="12" >api-service:8080</text>
    <g>
        <line x1="288" y1="0" x2="292" y2="16" class="solid"></line>
        <line x1="296" y1="0" x2="292" y2="16" class="solid"></line>
        <line x1="292" y1="16" x2="292" y2="52" class="solid"></line>
        <polygon points="288,52 296,52 292,64" class="filled"></polygon>
    </g>
    <g>
        <line x1="212" y1="40" x2="372" y2="40" class="solid"></line>
        <line x1="212" y1="40" x2="212" y2="52" class="solid"></line>
        <line x1="372" y1="40" x2="372" y2="52" class="solid"></line>
        <polygon points="208,52 216,52 212,64" class="filled"></polygon>
        <polygon points="368,52 376,52 372,64" class="filled"></polygon>
    </g>
    <g>
        <path d="M 176,80 A 16,16 0,0,0 176,96" class="nofill"></path>
        <path d="M 176,96 A 16,16 0,0,0 176,112" class="nofill"></path>
    </g>
    <g>
        <path d="M 352,80 A 16,16 0,0,0 352,96" class="nofill"></path>
        <path d="M 352,96 A 16,16 0,0,1 352,112" class="nofill"></path>
    </g>
</svg>