<svg xmlns="http://www.w3.org/2000/svg" width="792" height="544" style="background:#ffffff;border:1px solid #e5e5e5;border-radius:8px;max-width:100%;height:auto"><rect x="0" y="0" width="100%" height="100%" fill="#ffffff"/>
    <style>
        line, path, circle, rect, polygon{stroke:black;stroke-width:2;stroke-opacity:1;fill-opacity:1;stroke-linecap:round;stroke-linejoin:miter;}text{font-family:Iosevka Fixed, monospace;font-size:14px;}rect.backdrop{stroke:none;fill:transparent;}.broken{stroke-dasharray:8;}.filled{fill:black;}.bg_filled{fill:transparent;}.nofill{fill:transparent;}.end_marked_arrow{marker-end:url(#arrow);}.start_marked_arrow{marker-start:url(#arrow);}.end_marked_diamond{marker-end:url(#diamond);}.start_marked_diamond{marker-start:url(#diamond);}.end_marked_circle{marker-end:url(#circle);}.start_marked_circle{marker-start:url(#circle);}.end_marked_open_circle{marker-end:url(#open_circle);}.start_marked_open_circle{marker-start:url(#open_circle);}.end_marked_big_open_circle{marker-end:url(#big_open_circle);}.start_marked_big_open_circle{marker-start:url(#big_open_circle);}
        <!--separator-->
        
    </style>
    <defs>
        <marker id="arrow" viewBox="-2 -2 8 8" refX="4" refY="2" markerWidth="7" markerHeight="7" orient="auto-start-reverse">
            <polygon points="0,0 0,4 4,2 0,0"></polygon>
        </marker>
        <marker id="diamond" viewBox="-2 -2 8 8" refX="4" refY="2" markerWidth="7" markerHeight="7" orient="auto-start-reverse">
            <polygon points="0,2 2,0 4,2 2,4 0,2"></polygon>
        </marker>
        <marker id="circle" viewBox="0 0 8 8" refX="4" refY="4" markerWidth="7" markerHeight="7" orient="auto-start-reverse">
            <circle cx="4" cy="4" r="2" class="filled"></circle>
        </marker>
        <marker id="open_circle" viewBox="0 0 8 8" refX="4" refY="4" markerWidth="7" markerHeight="7" orient="auto-start-reverse">
            <circle cx="4" cy="4" r="2" class="bg_filled"></circle>
        </marker>
        <marker id="big_open_circle" viewBox="0 0 8 8" refX="4" refY="4" markerWidth="7" markerHeight="7" orient="auto-start-reverse">
            <circle cx="4" cy="4" r="3" class="bg_filled"></circle>
        </marker>
    </defs>
    <rect class="backdrop" x="0" y="0" width="792" height="544"></rect>
    <text x="2" y="12" >#</text>
    <line x1="16" y1="8" x2="32" y2="8" class="solid"></line>
    <text x="2" y="28" >helm</text>
    <text x="2" y="44" >helm</text>
    <text x="2" y="60" >helm</text>
    <text x="2" y="76" >helm</text>
    <text x="2" y="92" >helm</text>
    <text x="42" y="12" >Repository</text>
    <text x="130" y="12" >management</text>
    <line x1="216" y1="8" x2="544" y2="8" class="solid"></line>
    <text x="42" y="28" >repo</text>
    <text x="82" y="28" >add</text>
    <text x="114" y="28" >bitnami</text>
    <text x="178" y="28" >https:</text>
    <line x1="232" y1="16" x2="224" y2="32" class="solid"></line>
    <line x1="240" y1="16" x2="232" y2="32" class="solid"></line>
    <text x="242" y="28" >charts.bitnami.com</text>
    <line x1="392" y1="16" x2="384" y2="32" class="solid"></line>
    <text x="394" y="28" >bitnami</text>
    <text x="466" y="28" >#</text>
    <text x="482" y="28" >Add</text>
    <text x="514" y="28" >the</text>
    <text x="546" y="28" >Bitnami</text>
    <text x="610" y="28" >chart</text>
    <text x="658" y="28" >repository</text>
    <text x="42" y="44" >repo</text>
    <text x="82" y="44" >add</text>
    <text x="114" y="44" >ingress</text>
    <line x1="168" y1="40" x2="176" y2="40" class="solid"></line>
    <text x="178" y="44" >nginx</text>
    <text x="226" y="44" >https:</text>
    <line x1="280" y1="32" x2="272" y2="48" class="solid"></line>
    <line x1="288" y1="32" x2="280" y2="48" class="solid"></line>
    <text x="290" y="44" >kubernetes.github.io</text>
    <line x1="456" y1="32" x2="448" y2="48" class="solid"></line>
    <text x="458" y="44" >ingress</text>
    <line x1="512" y1="40" x2="520" y2="40" class="solid"></line>
    <text x="522" y="44" >nginx</text>
    <text x="578" y="44" >#</text>
    <text x="594" y="44" >Add</text>
    <text x="626" y="44" >nginx</text>
    <text x="674" y="44" >ingress</text>
    <text x="738" y="44" >charts</text>
    <text x="42" y="60" >repo</text>
    <text x="82" y="60" >update</text>
    <rect x="320" y="52" width="8" height="8" class="solid filled" rx="0"></rect>
    <line x1="324" y1="60" x2="324" y2="68" class="solid"></line>
    <text x="338" y="60" >Fetch</text>
    <text x="386" y="60" >latest</text>
    <text x="442" y="60" >chart</text>
    <text x="490" y="60" >versions</text>
    <text x="562" y="60" >from</text>
    <text x="602" y="60" >all</text>
    <text x="634" y="60" >repos</text>
    <text x="42" y="76" >repo</text>
    <text x="82" y="76" >list</text>
    <rect x="320" y="68" width="8" height="8" class="solid filled" rx="0"></rect>
    <line x1="324" y1="76" x2="324" y2="84" class="solid"></line>
    <text x="338" y="76" >List</text>
    <text x="378" y="76" >configured</text>
    <text x="466" y="76" >repositories</text>
    <text x="42" y="92" >search</text>
    <text x="98" y="92" >repo</text>
    <rect x="320" y="84" width="8" height="8" class="solid filled" rx="0"></rect>
    <text x="338" y="92" >Search</text>
    <text x="394" y="92" >for</text>
    <text x="426" y="92" >charts</text>
    <text x="482" y="92" >matching</text>
    <text x="138" y="92" >nginx</text>
    <text x="2" y="124" >#</text>
    <line x1="16" y1="120" x2="32" y2="120" class="solid"></line>
    <text x="42" y="124" >Installing</text>
    <text x="130" y="124" >charts</text>
    <line x1="184" y1="120" x2="544" y2="120" class="solid"></line>
    <text x="2" y="140" >helm</text>
    <text x="42" y="140" >install</text>
    <text x="106" y="140" >my</text>
    <line x1="120" y1="136" x2="128" y2="136" class="solid"></line>
    <text x="130" y="140" >nginx</text>
    <text x="178" y="140" >ingress</text>
    <line x1="232" y1="136" x2="240" y2="136" class="solid"></line>
    <text x="242" y="140" >nginx</text>
    <line x1="288" y1="128" x2="280" y2="144" class="solid"></line>
    <text x="290" y="140" >ingress</text>
    <line x1="344" y1="136" x2="352" y2="136" class="solid"></line>
    <text x="354" y="140" >nginx</text>
    <line x1="400" y1="128" x2="408" y2="144" class="solid"></line>
    <text x="426" y="140" >#</text>
    <text x="442" y="140" >Install</text>
    <text x="506" y="140" >chart</text>
    <text x="554" y="140" >as</text>
    <text x="578" y="140" >release</text>
    <line x1="16" y1="152" x2="32" y2="152" class="solid"></line>
    <text x="34" y="156" >namespace</text>
    <text x="114" y="156" >ingress</text>
    <line x1="176" y1="144" x2="184" y2="160" class="solid"></line>
    <rect x="320" y="148" width="8" height="8" class="solid filled" rx="0"></rect>
    <line x1="324" y1="156" x2="324" y2="164" class="solid"></line>
    <text x="338" y="156" >Install</text>
    <text x="402" y="156" >into</text>
    <text x="442" y="156" >a</text>
    <text x="458" y="156" >specific</text>
    <text x="530" y="156" >namespace</text>
    <line x1="16" y1="168" x2="32" y2="168" class="solid"></line>
    <text x="34" y="172" >create</text>
    <line x1="80" y1="168" x2="88" y2="168" class="solid"></line>
    <text x="90" y="172" >namespace</text>
    <line x1="168" y1="160" x2="176" y2="176" class="solid"></line>
    <rect x="320" y="164" width="8" height="8" class="solid filled" rx="0"></rect>
    <line x1="324" y1="172" x2="324" y2="180" class="solid"></line>
    <text x="338" y="172" >Create</text>
    <text x="394" y="172" >the</text>
    <text x="426" y="172" >namespace</text>
    <text x="506" y="172" >if</text>
    <text x="530" y="172" >it</text>
    <text x="554" y="172" >does</text>
    <text x="594" y="172" >not</text>
    <line x1="16" y1="184" x2="32" y2="184" class="solid"></line>
    <text x="34" y="188" >version</text>
    <text x="98" y="188" >4.10.0</text>
    <rect x="320" y="180" width="8" height="8" class="solid filled" rx="0"></rect>
    <text x="338" y="188" >Pin</text>
    <text x="370" y="188" >to</text>
    <text x="394" y="188" >a</text>
    <text x="410" y="188" >specific</text>
    <text x="482" y="188" >chart</text>
    <text x="530" y="188" >version</text>
    <text x="626" y="172" >exist</text>
    <text x="2" y="220" >helm</text>
    <text x="42" y="220" >install</text>
    <text x="106" y="220" >my</text>
    <line x1="120" y1="216" x2="128" y2="216" class="solid"></line>
    <text x="130" y="220" >redis</text>
    <text x="178" y="220" >bitnami</text>
    <line x1="240" y1="208" x2="232" y2="224" class="solid"></line>
    <text x="242" y="220" >redis</text>
    <line x1="16" y1="232" x2="32" y2="232" class="solid"></line>
    <text x="34" y="236" >set</text>
    <text x="66" y="236" >auth.password</text>
    <line x1="168" y1="230" x2="176" y2="230" class="solid"></line>
    <line x1="168" y1="234" x2="176" y2="234" class="solid"></line>
    <text x="178" y="236" >mypassword</text>
    <line x1="264" y1="224" x2="272" y2="240" class="solid"></line>
    <line x1="16" y1="248" x2="32" y2="248" class="solid"></line>
    <text x="34" y="252" >set</text>
    <text x="66" y="252" >replica.replicaCount</text>
    <line x1="224" y1="246" x2="232" y2="246" class="solid"></line>
    <line x1="224" y1="250" x2="232" y2="250" class="solid"></line>
    <text x="234" y="252" >3</text>
    <line x1="288" y1="208" x2="296" y2="224" class="solid"></line>
    <rect x="320" y="212" width="8" height="8" class="solid filled" rx="0"></rect>
    <line x1="324" y1="220" x2="324" y2="228" class="solid"></line>
    <rect x="320" y="228" width="8" height="8" class="solid filled" rx="0"></rect>
    <line x1="324" y1="236" x2="324" y2="244" class="solid"></line>
    <rect x="320" y="244" width="8" height="8" class="solid filled" rx="0"></rect>
    <text x="338" y="220" >Install</text>
    <text x="402" y="220" >Redis</text>
    <text x="450" y="220" >from</text>
    <text x="490" y="220" >Bitnami</text>
    <text x="338" y="236" >Override</text>
    <text x="410" y="236" >a</text>
    <text x="426" y="236" >single</text>
    <text x="482" y="236" >value</text>
    <text x="338" y="252" >Set</text>
    <text x="370" y="252" >replica</text>
    <text x="434" y="252" >count</text>
    <text x="2" y="284" >#</text>
    <line x1="16" y1="280" x2="32" y2="280" class="solid"></line>
    <text x="2" y="300" >helm</text>
    <text x="2" y="316" >helm</text>
    <text x="2" y="332" >helm</text>
    <text x="42" y="284" >Managing</text>
    <text x="42" y="300" >list</text>
    <line x1="80" y1="296" x2="88" y2="296" class="solid"></line>
    <text x="90" y="300" >A</text>
    <text x="42" y="316" >status</text>
    <text x="98" y="316" >my</text>
    <line x1="112" y1="312" x2="120" y2="312" class="solid"></line>
    <text x="122" y="316" >nginx</text>
    <line x1="168" y1="312" x2="176" y2="312" class="solid"></line>
    <text x="178" y="316" >n</text>
    <text x="194" y="316" >ingress</text>
    <text x="42" y="332" >history</text>
    <text x="106" y="332" >my</text>
    <line x1="120" y1="328" x2="128" y2="328" class="solid"></line>
    <text x="130" y="332" >nginx</text>
    <line x1="176" y1="328" x2="184" y2="328" class="solid"></line>
    <text x="186" y="332" >n</text>
    <text x="202" y="332" >ingress</text>
    <text x="114" y="284" >releases</text>
    <line x1="184" y1="280" x2="544" y2="280" class="solid"></line>
    <rect x="320" y="292" width="8" height="8" class="solid filled" rx="0"></rect>
    <line x1="324" y1="300" x2="324" y2="308" class="solid"></line>
    <text x="338" y="300" >List</text>
    <text x="378" y="300" >all</text>
    <text x="410" y="300" >releases</text>
    <text x="482" y="300" >across</text>
    <text x="538" y="300" >all</text>
    <text x="570" y="300" >namespaces</text>
    <rect x="320" y="308" width="8" height="8" class="solid filled" rx="0"></rect>
    <line x1="324" y1="316" x2="324" y2="324" class="solid"></line>
    <text x="338" y="316" >Check</text>
    <text x="386" y="316" >the</text>
    <text x="418" y="316" >status</text>
    <text x="474" y="316" >of</text>
    <text x="498" y="316" >a</text>
    <text x="514" y="316" >specific</text>
    <text x="586" y="316" >release</text>
    <rect x="320" y="324" width="8" height="8" class="solid filled" rx="0"></rect>
    <text x="338" y="332" >Show</text>
    <text x="378" y="332" >revision</text>
    <text x="450" y="332" >history</text>
    <text x="514" y="332" >for</text>
    <text x="546" y="332" >a</text>
    <text x="562" y="332" >release</text>
    <text x="2" y="364" >#</text>
    <line x1="16" y1="360" x2="32" y2="360" class="solid"></line>
    <text x="42" y="364" >Upgrading</text>
    <line x1="120" y1="360" x2="544" y2="360" class="solid"></line>
    <text x="2" y="380" >helm</text>
    <text x="42" y="380" >upgrade</text>
    <text x="106" y="380" >my</text>
    <line x1="120" y1="376" x2="128" y2="376" class="solid"></line>
    <text x="130" y="380" >nginx</text>
    <text x="178" y="380" >ingress</text>
    <line x1="232" y1="376" x2="240" y2="376" class="solid"></line>
    <text x="242" y="380" >nginx</text>
    <line x1="288" y1="368" x2="280" y2="384" class="solid"></line>
    <text x="290" y="380" >ingress</text>
    <line x1="344" y1="376" x2="352" y2="376" class="solid"></line>
    <text x="354" y="380" >nginx</text>
    <line x1="400" y1="368" x2="408" y2="384" class="solid"></line>
    <line x1="16" y1="392" x2="32" y2="392" class="solid"></line>
    <text x="34" y="396" >namespace</text>
    <text x="114" y="396" >ingress</text>
    <line x1="176" y1="384" x2="184" y2="400" class="solid"></line>
    <line x1="16" y1="408" x2="32" y2="408" class="solid"></line>
    <text x="34" y="412" >version</text>
    <text x="98" y="412" >4.11.0</text>
    <line x1="152" y1="400" x2="160" y2="416" class="solid"></line>
    <line x1="16" y1="424" x2="32" y2="424" class="solid"></line>
    <text x="34" y="428" >reuse</text>
    <line x1="72" y1="424" x2="80" y2="424" class="solid"></line>
    <text x="82" y="428" >values</text>
    <text x="314" y="412" >#</text>
    <text x="330" y="412" >Upgrade</text>
    <text x="394" y="412" >to</text>
    <text x="418" y="412" >a</text>
    <text x="434" y="412" >new</text>
    <text x="466" y="412" >chart</text>
    <text x="514" y="412" >version</text>
    <text x="322" y="428" >#</text>
    <text x="338" y="428" >Keep</text>
    <text x="378" y="428" >existing</text>
    <text x="450" y="428" >custom</text>
    <text x="506" y="428" >values</text>
    <text x="2" y="460" >#</text>
    <line x1="16" y1="456" x2="32" y2="456" class="solid"></line>
    <text x="2" y="476" >helm</text>
    <text x="42" y="460" >Rolling</text>
    <text x="106" y="460" >back</text>
    <line x1="144" y1="456" x2="544" y2="456" class="solid"></line>
    <text x="42" y="476" >rollback</text>
    <text x="114" y="476" >my</text>
    <line x1="128" y1="472" x2="136" y2="472" class="solid"></line>
    <text x="138" y="476" >nginx</text>
    <text x="186" y="476" >1</text>
    <line x1="200" y1="472" x2="208" y2="472" class="solid"></line>
    <text x="210" y="476" >n</text>
    <text x="226" y="476" >ingress</text>
    <text x="322" y="476" >#</text>
    <text x="338" y="476" >Roll</text>
    <text x="378" y="476" >back</text>
    <text x="418" y="476" >to</text>
    <text x="442" y="476" >revision</text>
    <text x="514" y="476" >1</text>
    <text x="2" y="508" >#</text>
    <line x1="16" y1="504" x2="32" y2="504" class="solid"></line>
    <text x="2" y="524" >helm</text>
    <text x="42" y="508" >Uninstalling</text>
    <line x1="144" y1="504" x2="544" y2="504" class="solid"></line>
    <text x="42" y="524" >uninstall</text>
    <text x="122" y="524" >my</text>
    <line x1="136" y1="520" x2="144" y2="520" class="solid"></line>
    <text x="146" y="524" >nginx</text>
    <line x1="192" y1="520" x2="200" y2="520" class="solid"></line>
    <text x="202" y="524" >n</text>
    <text x="218" y="524" >ingress</text>
    <text x="322" y="524" >#</text>
    <text x="338" y="524" >Remove</text>
    <text x="394" y="524" >the</text>
    <text x="426" y="524" >release</text>
    <text x="490" y="524" >and</text>
    <text x="522" y="524" >all</text>
    <text x="554" y="524" >its</text>
    <text x="586" y="524" >resources</text>
    <text x="554" y="92" >nginx</text>
    <text x="642" y="140" >my-nginx</text>
</svg>