<svg xmlns="http://www.w3.org/2000/svg" width="464" height="160" style="background:#ffffff;border:1px solid #e5e5e5;border-radius:8px;max-width:100%;height:auto"><rect x="0" y="0" width="100%" height="100%" fill="#ffffff"/>
    <style>
        line, path, circle, rect, polygon{stroke:black;stroke-width:2;stroke-opacity:1;fill-opacity:1;stroke-linecap:round;stroke-linejoin:miter;}text{font-family:Iosevka Fixed, monospace;font-size:14px;}rect.backdrop{stroke:none;fill:transparent;}.broken{stroke-dasharray:8;}.filled{fill:black;}.bg_filled{fill:transparent;}.nofill{fill:transparent;}.end_marked_arrow{marker-end:url(#arrow);}.start_marked_arrow{marker-start:url(#arrow);}.end_marked_diamond{marker-end:url(#diamond);}.start_marked_diamond{marker-start:url(#diamond);}.end_marked_circle{marker-end:url(#circle);}.start_marked_circle{marker-start:url(#circle);}.end_marked_open_circle{marker-end:url(#open_circle);}.start_marked_open_circle{marker-start:url(#open_circle);}.end_marked_big_open_circle{marker-end:url(#big_open_circle);}.start_marked_big_open_circle{marker-start:url(#big_open_circle);}
        <!--separator-->
        
    </style>
    <defs>
        <marker id="arrow" viewBox="-2 -2 8 8" refX="4" refY="2" markerWidth="7" markerHeight="7" orient="auto-start-reverse">
            <polygon points="0,0 0,4 4,2 0,0"></polygon>
        </marker>
        <marker id="diamond" viewBox="-2 -2 8 8" refX="4" refY="2" markerWidth="7" markerHeight="7" orient="auto-start-reverse">
            <polygon points="0,2 2,0 4,2 2,4 0,2"></polygon>
        </marker>
        <marker id="circle" viewBox="0 0 8 8" refX="4" refY="4" markerWidth="7" markerHeight="7" orient="auto-start-reverse">
            <circle cx="4" cy="4" r="2" class="filled"></circle>
        </marker>
        <marker id="open_circle" viewBox="0 0 8 8" refX="4" refY="4" markerWidth="7" markerHeight="7" orient="auto-start-reverse">
            <circle cx="4" cy="4" r="2" class="bg_filled"></circle>
        </marker>
        <marker id="big_open_circle" viewBox="0 0 8 8" refX="4" refY="4" markerWidth="7" markerHeight="7" orient="auto-start-reverse">
            <circle cx="4" cy="4" r="3" class="bg_filled"></circle>
        </marker>
    </defs>
    <rect class="backdrop" x="0" y="0" width="464" height="160"></rect>
    <text x="2" y="12" >Single</text>
    <text x="58" y="12" >Machine</text>
    <line x1="0" y1="24" x2="104" y2="24" class="solid"></line>
    <text x="2" y="44" >Linux</text>
    <text x="50" y="44" >Kernel</text>
    <text x="2" y="60" >Process</text>
    <text x="2" y="76" >systemd</text>
    <path d="M 72,64 A 16,16 0,0,0 72,80" class="nofill"></path>
    <text x="74" y="76" >init</text>
    <path d="M 104,64 A 16,16 0,0,1 104,80" class="nofill"></path>
    <text x="2" y="92" >iptables</text>
    <line x1="8" y1="96" x2="0" y2="112" class="solid"></line>
    <text x="10" y="108" >etc</text>
    <line x1="40" y1="96" x2="32" y2="112" class="solid"></line>
    <text x="50" y="108" >config</text>
    <text x="2" y="124" >mount</text>
    <text x="50" y="124" >points</text>
    <text x="2" y="140" >cron</text>
    <text x="274" y="12" >Cluster</text>
    <line x1="264" y1="24" x2="320" y2="24" class="solid"></line>
    <text x="266" y="44" >Kubernetes</text>
    <text x="266" y="60" >Pod</text>
    <text x="266" y="76" >kubelet</text>
    <text x="266" y="92" >kube</text>
    <line x1="296" y1="88" x2="304" y2="88" class="solid"></line>
    <text x="306" y="92" >proxy</text>
    <text x="266" y="108" >ConfigMaps</text>
    <text x="370" y="108" >Secrets</text>
    <text x="266" y="124" >Persistent</text>
    <text x="354" y="124" >olumes</text>
    <text x="266" y="140" >CronJob</text>
    <text x="354" y="44" >Control</text>
    <text x="418" y="44" >Plane</text>
    <text x="106" y="108" >files</text>
    <g>
        <line x1="360" y1="96" x2="350" y2="116" class="solid"></line>
        <polygon points="353,116 346,124 346,113" class="filled"></polygon>
    </g>
    <g>
        <text x="178" y="44">←</text>
        <text x="186" y="44">→</text>
    </g>
    <g>
        <text x="178" y="60">←</text>
        <text x="186" y="60">→</text>
    </g>
    <g>
        <text x="178" y="76">←</text>
        <text x="186" y="76">→</text>
    </g>
    <g>
        <text x="178" y="92">←</text>
        <text x="186" y="92">→</text>
    </g>
    <g>
        <text x="178" y="108">←</text>
        <text x="186" y="108">→</text>
    </g>
    <g>
        <text x="178" y="124">←</text>
        <text x="186" y="124">→</text>
    </g>
    <g>
        <text x="178" y="140">←</text>
        <text x="186" y="140">→</text>
    </g>
</svg>