<svg xmlns="http://www.w3.org/2000/svg" width="704" height="592" style="background:#ffffff;border:1px solid #e5e5e5;border-radius:8px;max-width:100%;height:auto"><rect x="0" y="0" width="100%" height="100%" fill="#ffffff"/>
    <style>
        line, path, circle, rect, polygon{stroke:black;stroke-width:2;stroke-opacity:1;fill-opacity:1;stroke-linecap:round;stroke-linejoin:miter;}text{font-family:Iosevka Fixed, monospace;font-size:14px;}rect.backdrop{stroke:none;fill:transparent;}.broken{stroke-dasharray:8;}.filled{fill:black;}.bg_filled{fill:transparent;}.nofill{fill:transparent;}.end_marked_arrow{marker-end:url(#arrow);}.start_marked_arrow{marker-start:url(#arrow);}.end_marked_diamond{marker-end:url(#diamond);}.start_marked_diamond{marker-start:url(#diamond);}.end_marked_circle{marker-end:url(#circle);}.start_marked_circle{marker-start:url(#circle);}.end_marked_open_circle{marker-end:url(#open_circle);}.start_marked_open_circle{marker-start:url(#open_circle);}.end_marked_big_open_circle{marker-end:url(#big_open_circle);}.start_marked_big_open_circle{marker-start:url(#big_open_circle);}
        <!--separator-->
        
    </style>
    <defs>
        <marker id="arrow" viewBox="-2 -2 8 8" refX="4" refY="2" markerWidth="7" markerHeight="7" orient="auto-start-reverse">
            <polygon points="0,0 0,4 4,2 0,0"></polygon>
        </marker>
        <marker id="diamond" viewBox="-2 -2 8 8" refX="4" refY="2" markerWidth="7" markerHeight="7" orient="auto-start-reverse">
            <polygon points="0,2 2,0 4,2 2,4 0,2"></polygon>
        </marker>
        <marker id="circle" viewBox="0 0 8 8" refX="4" refY="4" markerWidth="7" markerHeight="7" orient="auto-start-reverse">
            <circle cx="4" cy="4" r="2" class="filled"></circle>
        </marker>
        <marker id="open_circle" viewBox="0 0 8 8" refX="4" refY="4" markerWidth="7" markerHeight="7" orient="auto-start-reverse">
            <circle cx="4" cy="4" r="2" class="bg_filled"></circle>
        </marker>
        <marker id="big_open_circle" viewBox="0 0 8 8" refX="4" refY="4" markerWidth="7" markerHeight="7" orient="auto-start-reverse">
            <circle cx="4" cy="4" r="3" class="bg_filled"></circle>
        </marker>
    </defs>
    <rect class="backdrop" x="0" y="0" width="704" height="592"></rect>
    <text x="2" y="12" >#</text>
    <line x1="16" y1="8" x2="32" y2="8" class="solid"></line>
    <text x="2" y="28" >brew</text>
    <text x="2" y="44" >brew</text>
    <text x="2" y="60" >brew</text>
    <text x="2" y="76" >brew</text>
    <text x="2" y="92" >brew</text>
    <text x="42" y="12" >macOS</text>
    <path d="M 96,0 A 16,16 0,0,0 96,16" class="nofill"></path>
    <text x="98" y="12" >Homebrew</text>
    <path d="M 160,0 A 16,16 0,0,1 160,16" class="nofill"></path>
    <text x="42" y="28" >install</text>
    <text x="106" y="28" >kubectl</text>
    <text x="42" y="44" >install</text>
    <text x="106" y="44" >helm</text>
    <text x="42" y="60" >install</text>
    <text x="106" y="60" >k9s</text>
    <text x="42" y="76" >install</text>
    <text x="106" y="76" >minikube</text>
    <text x="42" y="92" >install</text>
    <text x="106" y="92" >kind</text>
    <line x1="176" y1="8" x2="544" y2="8" class="solid"></line>
    <rect x="216" y="20" width="8" height="8" class="solid filled" rx="0"></rect>
    <line x1="220" y1="28" x2="220" y2="36" class="solid"></line>
    <text x="234" y="28" >Kubernetes</text>
    <text x="322" y="28" >CLI</text>
    <line x1="352" y1="24" x2="360" y2="24" class="solid"></line>
    <text x="370" y="28" >talks</text>
    <text x="418" y="28" >to</text>
    <text x="442" y="28" >the</text>
    <text x="474" y="28" >API</text>
    <text x="506" y="28" >server</text>
    <rect x="216" y="36" width="8" height="8" class="solid filled" rx="0"></rect>
    <line x1="220" y1="44" x2="220" y2="52" class="solid"></line>
    <text x="234" y="44" >Package</text>
    <text x="298" y="44" >manager</text>
    <text x="362" y="44" >for</text>
    <text x="394" y="44" >K8s</text>
    <path d="M 432,32 A 16,16 0,0,0 432,48" class="nofill"></path>
    <text x="434" y="44" >like</text>
    <text x="474" y="44" >apt</text>
    <text x="506" y="44" >for</text>
    <text x="538" y="44" >Debian</text>
    <path d="M 584,32 A 16,16 0,0,1 584,48" class="nofill"></path>
    <rect x="216" y="52" width="8" height="8" class="solid filled" rx="0"></rect>
    <line x1="220" y1="60" x2="220" y2="68" class="solid"></line>
    <text x="234" y="60" >Terminal</text>
    <text x="306" y="60" >UI</text>
    <text x="330" y="60" >for</text>
    <text x="362" y="60" >navigating</text>
    <text x="450" y="60" >cluster</text>
    <text x="514" y="60" >resources</text>
    <rect x="216" y="68" width="8" height="8" class="solid filled" rx="0"></rect>
    <line x1="220" y1="76" x2="220" y2="84" class="solid"></line>
    <text x="234" y="76" >Runs</text>
    <text x="274" y="76" >a</text>
    <text x="290" y="76" >single</text>
    <line x1="336" y1="72" x2="344" y2="72" class="solid"></line>
    <text x="346" y="76" >node</text>
    <text x="386" y="76" >K8s</text>
    <text x="418" y="76" >cluster</text>
    <text x="482" y="76" >in</text>
    <text x="506" y="76" >a</text>
    <text x="522" y="76" >VM</text>
    <text x="546" y="76" >or</text>
    <text x="570" y="76" >container</text>
    <rect x="216" y="84" width="8" height="8" class="solid filled" rx="0"></rect>
    <line x1="416" y1="88" x2="424" y2="88" class="solid"></line>
    <text x="434" y="92" >multi</text>
    <line x1="472" y1="88" x2="480" y2="88" class="solid"></line>
    <text x="482" y="92" >node</text>
    <text x="522" y="92" >clusters</text>
    <text x="594" y="92" >in</text>
    <text x="618" y="92" >containers</text>
    <rect x="0" y="116" width="8" height="8" class="solid filled" rx="0"></rect>
    <line x1="4" y1="124" x2="4" y2="132" class="solid"></line>
    <line x1="16" y1="120" x2="32" y2="120" class="solid"></line>
    <text x="42" y="124" >Linux</text>
    <rect x="0" y="132" width="8" height="8" class="solid filled" rx="0"></rect>
    <text x="18" y="140" >kubectl</text>
    <text x="2" y="156" >curl</text>
    <line x1="40" y1="152" x2="48" y2="152" class="solid"></line>
    <text x="50" y="156" >LO</text>
    <text x="2" y="172" >chmod</text>
    <text x="50" y="172" >+x</text>
    <text x="74" y="172" >kubectl</text>
    <text x="234" y="172" >Make</text>
    <text x="274" y="172" >the</text>
    <text x="306" y="172" >binary</text>
    <text x="2" y="188" >sudo</text>
    <text x="42" y="188" >m</text>
    <text x="66" y="188" >kubectl</text>
    <line x1="136" y1="176" x2="128" y2="192" class="solid"></line>
    <text x="138" y="188" >usr</text>
    <line x1="168" y1="176" x2="160" y2="192" class="solid"></line>
    <text x="170" y="188" >local</text>
    <text x="218" y="188" >bin</text>
    <line x1="248" y1="176" x2="240" y2="192" class="solid"></line>
    <text x="266" y="188" >#</text>
    <text x="282" y="188" >Move</text>
    <text x="322" y="188" >to</text>
    <text x="346" y="188" >a</text>
    <path d="M 96,112 A 16,16 0,0,0 96,128" class="nofill"></path>
    <text x="98" y="124" >x86</text>
    <line x1="120" y1="128" x2="128" y2="128" class="solid"></line>
    <text x="130" y="124" >64</text>
    <path d="M 144,112 A 16,16 0,0,1 144,128" class="nofill"></path>
    <line x1="160" y1="120" x2="536" y2="120" class="solid"></line>
    <text x="362" y="172" >executable</text>
    <text x="362" y="188" >directory</text>
    <text x="442" y="188" >in</text>
    <text x="466" y="188" >PATH</text>
    <text x="2" y="220" >#</text>
    <text x="18" y="220" >minikube</text>
    <text x="2" y="236" >curl</text>
    <line x1="40" y1="232" x2="48" y2="232" class="solid"></line>
    <text x="50" y="236" >LO</text>
    <text x="74" y="236" >https:</text>
    <line x1="128" y1="224" x2="120" y2="240" class="solid"></line>
    <line x1="136" y1="224" x2="128" y2="240" class="solid"></line>
    <text x="138" y="236" >storage.googleapis.com</text>
    <line x1="320" y1="224" x2="312" y2="240" class="solid"></line>
    <text x="322" y="236" >minikube</text>
    <line x1="392" y1="224" x2="384" y2="240" class="solid"></line>
    <text x="394" y="236" >releases</text>
    <line x1="464" y1="224" x2="456" y2="240" class="solid"></line>
    <text x="466" y="236" >latest</text>
    <line x1="520" y1="224" x2="512" y2="240" class="solid"></line>
    <text x="522" y="236" >minikube</text>
    <line x1="584" y1="232" x2="592" y2="232" class="solid"></line>
    <text x="594" y="236" >linux</text>
    <line x1="632" y1="232" x2="640" y2="232" class="solid"></line>
    <text x="642" y="236" >amd64</text>
    <text x="2" y="252" >chmod</text>
    <text x="50" y="252" >+x</text>
    <text x="74" y="252" >minikube</text>
    <line x1="136" y1="248" x2="144" y2="248" class="solid"></line>
    <text x="146" y="252" >linux</text>
    <line x1="184" y1="248" x2="192" y2="248" class="solid"></line>
    <text x="194" y="252" >amd64</text>
    <text x="2" y="268" >sudo</text>
    <text x="42" y="268" >m</text>
    <text x="66" y="268" >minikube</text>
    <line x1="128" y1="264" x2="136" y2="264" class="solid"></line>
    <text x="138" y="268" >linux</text>
    <line x1="176" y1="264" x2="184" y2="264" class="solid"></line>
    <text x="186" y="268" >amd64</text>
    <line x1="240" y1="256" x2="232" y2="272" class="solid"></line>
    <text x="242" y="268" >usr</text>
    <line x1="272" y1="256" x2="264" y2="272" class="solid"></line>
    <text x="274" y="268" >local</text>
    <line x1="320" y1="256" x2="312" y2="272" class="solid"></line>
    <text x="322" y="268" >bin</text>
    <line x1="352" y1="256" x2="344" y2="272" class="solid"></line>
    <text x="354" y="268" >minikube</text>
    <text x="2" y="300" >#</text>
    <text x="18" y="300" >helm</text>
    <text x="2" y="316" >curl</text>
    <text x="42" y="316" >https:</text>
    <line x1="96" y1="304" x2="88" y2="320" class="solid"></line>
    <line x1="104" y1="304" x2="96" y2="320" class="solid"></line>
    <text x="106" y="316" >raw.githubusercontent.com</text>
    <line x1="312" y1="304" x2="304" y2="320" class="solid"></line>
    <text x="314" y="316" >helm</text>
    <line x1="352" y1="304" x2="344" y2="320" class="solid"></line>
    <text x="354" y="316" >helm</text>
    <line x1="392" y1="304" x2="384" y2="320" class="solid"></line>
    <text x="394" y="316" >main</text>
    <line x1="432" y1="304" x2="424" y2="320" class="solid"></line>
    <text x="434" y="316" >scripts</text>
    <line x1="496" y1="304" x2="488" y2="320" class="solid"></line>
    <text x="498" y="316" >get</text>
    <line x1="520" y1="312" x2="528" y2="312" class="solid"></line>
    <text x="530" y="316" >helm</text>
    <line x1="560" y1="312" x2="568" y2="312" class="solid"></line>
    <text x="570" y="316" >3</text>
    <line x1="588" y1="304" x2="588" y2="320" class="solid"></line>
    <text x="602" y="316" >bash</text>
    <text x="2" y="348" >#</text>
    <text x="18" y="348" >kind</text>
    <text x="2" y="364" >go</text>
    <text x="26" y="364" >install</text>
    <text x="90" y="364" >sigs.k8s.io</text>
    <line x1="184" y1="352" x2="176" y2="368" class="solid"></line>
    <text x="186" y="364" >kind@latest</text>
    <text x="2" y="380" >#</text>
    <text x="18" y="380" >OR</text>
    <text x="42" y="380" >download</text>
    <text x="114" y="380" >binary</text>
    <text x="170" y="380" >directly:</text>
    <text x="2" y="396" >curl</text>
    <line x1="40" y1="392" x2="48" y2="392" class="solid"></line>
    <text x="50" y="396" >Lo</text>
    <text x="74" y="396" >.</text>
    <line x1="88" y1="384" x2="80" y2="400" class="solid"></line>
    <text x="90" y="396" >kind</text>
    <text x="130" y="396" >https:</text>
    <line x1="184" y1="384" x2="176" y2="400" class="solid"></line>
    <line x1="192" y1="384" x2="184" y2="400" class="solid"></line>
    <text x="194" y="396" >kind.sigs.k8s.io</text>
    <line x1="328" y1="384" x2="320" y2="400" class="solid"></line>
    <text x="330" y="396" >dl</text>
    <line x1="352" y1="384" x2="344" y2="400" class="solid"></line>
    <text x="354" y="396" >latest</text>
    <line x1="408" y1="384" x2="400" y2="400" class="solid"></line>
    <text x="410" y="396" >kind</text>
    <line x1="440" y1="392" x2="448" y2="392" class="solid"></line>
    <text x="450" y="396" >linux</text>
    <line x1="488" y1="392" x2="496" y2="392" class="solid"></line>
    <text x="498" y="396" >amd64</text>
    <text x="2" y="412" >chmod</text>
    <text x="50" y="412" >+x</text>
    <text x="74" y="412" >kind</text>
    <text x="114" y="412" >&amp;&amp;</text>
    <text x="138" y="412" >sudo</text>
    <text x="178" y="412" >mv</text>
    <text x="202" y="412" >kind</text>
    <line x1="248" y1="400" x2="240" y2="416" class="solid"></line>
    <text x="250" y="412" >usr</text>
    <line x1="280" y1="400" x2="272" y2="416" class="solid"></line>
    <text x="282" y="412" >local</text>
    <line x1="328" y1="400" x2="320" y2="416" class="solid"></line>
    <text x="330" y="412" >bin</text>
    <line x1="360" y1="400" x2="352" y2="416" class="solid"></line>
    <text x="290" y="364" >#</text>
    <text x="306" y="364" >Requires</text>
    <text x="378" y="364" >Go</text>
    <text x="402" y="364" >installed</text>
    <text x="2" y="444" >#</text>
    <text x="18" y="444" >k9s</text>
    <text x="2" y="460" >curl</text>
    <line x1="40" y1="456" x2="48" y2="456" class="solid"></line>
    <text x="50" y="460" >sS</text>
    <text x="74" y="460" >https:</text>
    <line x1="128" y1="448" x2="120" y2="464" class="solid"></line>
    <line x1="136" y1="448" x2="128" y2="464" class="solid"></line>
    <text x="138" y="460" >webi.sh</text>
    <line x1="200" y1="448" x2="192" y2="464" class="solid"></line>
    <text x="202" y="460" >k9s</text>
    <line x1="236" y1="448" x2="236" y2="464" class="solid"></line>
    <text x="250" y="460" >sh</text>
    <text x="282" y="460" >#</text>
    <text x="298" y="460" >One</text>
    <line x1="320" y1="456" x2="328" y2="456" class="solid"></line>
    <text x="330" y="460" >liner</text>
    <text x="378" y="460" >install</text>
    <text x="2" y="492" >#</text>
    <line x1="16" y1="488" x2="32" y2="488" class="solid"></line>
    <text x="42" y="492" >Windows</text>
    <path d="M 112,480 A 16,16 0,0,0 112,496" class="nofill"></path>
    <text x="114" y="492" >Chocolatey</text>
    <path d="M 192,480 A 16,16 0,0,1 192,496" class="nofill"></path>
    <line x1="208" y1="488" x2="536" y2="488" class="solid"></line>
    <text x="2" y="508" >choco</text>
    <text x="50" y="508" >install</text>
    <text x="114" y="508" >kubernetes</text>
    <line x1="192" y1="504" x2="200" y2="504" class="solid"></line>
    <text x="202" y="508" >cli</text>
    <rect x="248" y="500" width="8" height="8" class="solid filled" rx="0"></rect>
    <line x1="252" y1="508" x2="252" y2="516" class="solid"></line>
    <text x="266" y="508" >kubectl</text>
    <text x="2" y="524" >choco</text>
    <text x="50" y="524" >install</text>
    <text x="114" y="524" >minikube</text>
    <rect x="248" y="516" width="8" height="8" class="solid filled" rx="0"></rect>
    <line x1="252" y1="524" x2="252" y2="532" class="solid"></line>
    <text x="266" y="524" >Local</text>
    <text x="314" y="524" >cluster</text>
    <text x="2" y="540" >choco</text>
    <text x="50" y="540" >install</text>
    <text x="114" y="540" >kubernetes</text>
    <line x1="192" y1="536" x2="200" y2="536" class="solid"></line>
    <text x="202" y="540" >helm</text>
    <rect x="248" y="532" width="8" height="8" class="solid filled" rx="0"></rect>
    <line x1="252" y1="540" x2="252" y2="548" class="solid"></line>
    <text x="266" y="540" >Helm</text>
    <text x="2" y="556" >choco</text>
    <text x="50" y="556" >install</text>
    <text x="114" y="556" >kind</text>
    <rect x="248" y="548" width="8" height="8" class="solid filled" rx="0"></rect>
    <text x="266" y="556" >kind</text>
    <text x="2" y="572" >#</text>
    <text x="18" y="572" >k9s:</text>
    <text x="58" y="572" >download</text>
    <text x="130" y="572" >from</text>
    <text x="170" y="572" >https:</text>
    <line x1="224" y1="560" x2="216" y2="576" class="solid"></line>
    <line x1="232" y1="560" x2="224" y2="576" class="solid"></line>
    <text x="234" y="572" >github.com</text>
    <line x1="320" y1="560" x2="312" y2="576" class="solid"></line>
    <text x="322" y="572" >derailed</text>
    <line x1="392" y1="560" x2="384" y2="576" class="solid"></line>
    <text x="394" y="572" >k9s</text>
    <line x1="424" y1="560" x2="416" y2="576" class="solid"></line>
    <text x="426" y="572" >releases</text>
    <text x="234" y="92" >Kubernetes IN Docker</text>
    <text x="74" y="156" >https://dl.k8s.io/release/$(curl -L -s https://dl.k8s.io/release/stable.txt)/bin/linux/amd64/kubectl</text>
    <g>
        <polygon points="222.8,172 222.8,164 217.2,164 217.2,172" class="filled"></polygon>
        <line x1="218" y1="172" x2="208" y2="192" class="solid"></line>
    </g>
    <g>
        <line x1="52" y1="176" x2="52" y2="180" class="solid"></line>
        <polygon points="48,180 56,180 52,192" class="filled"></polygon>
    </g>
    <g>
        <line x1="52" y1="256" x2="52" y2="260" class="solid"></line>
        <polygon points="48,260 56,260 52,272" class="filled"></polygon>
    </g>
</svg>