<svg xmlns="http://www.w3.org/2000/svg" width="528" height="176" style="background:#ffffff;border:1px solid #e5e5e5;border-radius:8px;max-width:100%;height:auto"><rect x="0" y="0" width="100%" height="100%" fill="#ffffff"/>
    <style>
        line, path, circle, rect, polygon{stroke:black;stroke-width:2;stroke-opacity:1;fill-opacity:1;stroke-linecap:round;stroke-linejoin:miter;}text{font-family:Iosevka Fixed, monospace;font-size:14px;}rect.backdrop{stroke:none;fill:transparent;}.broken{stroke-dasharray:8;}.filled{fill:black;}.bg_filled{fill:transparent;}.nofill{fill:transparent;}.end_marked_arrow{marker-end:url(#arrow);}.start_marked_arrow{marker-start:url(#arrow);}.end_marked_diamond{marker-end:url(#diamond);}.start_marked_diamond{marker-start:url(#diamond);}.end_marked_circle{marker-end:url(#circle);}.start_marked_circle{marker-start:url(#circle);}.end_marked_open_circle{marker-end:url(#open_circle);}.start_marked_open_circle{marker-start:url(#open_circle);}.end_marked_big_open_circle{marker-end:url(#big_open_circle);}.start_marked_big_open_circle{marker-start:url(#big_open_circle);}
        <!--separator-->
        
    </style>
    <defs>
        <marker id="arrow" viewBox="-2 -2 8 8" refX="4" refY="2" markerWidth="7" markerHeight="7" orient="auto-start-reverse">
            <polygon points="0,0 0,4 4,2 0,0"></polygon>
        </marker>
        <marker id="diamond" viewBox="-2 -2 8 8" refX="4" refY="2" markerWidth="7" markerHeight="7" orient="auto-start-reverse">
            <polygon points="0,2 2,0 4,2 2,4 0,2"></polygon>
        </marker>
        <marker id="circle" viewBox="0 0 8 8" refX="4" refY="4" markerWidth="7" markerHeight="7" orient="auto-start-reverse">
            <circle cx="4" cy="4" r="2" class="filled"></circle>
        </marker>
        <marker id="open_circle" viewBox="0 0 8 8" refX="4" refY="4" markerWidth="7" markerHeight="7" orient="auto-start-reverse">
            <circle cx="4" cy="4" r="2" class="bg_filled"></circle>
        </marker>
        <marker id="big_open_circle" viewBox="0 0 8 8" refX="4" refY="4" markerWidth="7" markerHeight="7" orient="auto-start-reverse">
            <circle cx="4" cy="4" r="3" class="bg_filled"></circle>
        </marker>
    </defs>
    <rect class="backdrop" x="0" y="0" width="528" height="176"></rect>
    <text x="2" y="12" >Deployment</text>
    <text x="50" y="28" >manages</text>
    <text x="114" y="28" >→</text>
    <text x="130" y="28" >ReplicaSet</text>
    <text x="178" y="44" >manages</text>
    <text x="242" y="44" >→</text>
    <text x="258" y="44" >Pod</text>
    <path d="M 288,32 A 16,16 0,0,0 288,48" class="nofill"></path>
    <text x="290" y="44" >s</text>
    <path d="M 296,32 A 16,16 0,0,1 296,48" class="nofill"></path>
    <text x="306" y="60" >contains</text>
    <text x="2" y="76" >Service</text>
    <line x1="64" y1="72" x2="80" y2="72" class="solid"></line>
    <text x="82" y="76" >selects</text>
    <text x="170" y="76" >Pod</text>
    <path d="M 200,64 A 16,16 0,0,0 200,80" class="nofill"></path>
    <text x="202" y="76" >s</text>
    <path d="M 208,64 A 16,16 0,0,1 208,80" class="nofill"></path>
    <text x="226" y="76" >by</text>
    <text x="250" y="76" >label</text>
    <text x="2" y="92" >Ingress</text>
    <line x1="64" y1="88" x2="80" y2="88" class="solid"></line>
    <text x="82" y="92" >r</text>
    <circle cx="92" cy="88" r="3" class="nofill"></circle>
    <line x1="90" y1="92" x2="80" y2="112" class="solid"></line>
    <text x="98" y="92" >utes</text>
    <text x="162" y="92" >Service</text>
    <path d="M 224,80 A 16,16 0,0,0 224,96" class="nofill"></path>
    <text x="226" y="92" >s</text>
    <path d="M 232,80 A 16,16 0,0,1 232,96" class="nofill"></path>
    <text x="250" y="92" >by</text>
    <text x="274" y="92" >host</text>
    <line x1="312" y1="80" x2="304" y2="96" class="solid"></line>
    <text x="314" y="92" >path</text>
    <text x="2" y="108" >ConfigMap</text>
    <text x="98" y="108" >Secret</text>
    <line x1="152" y1="104" x2="168" y2="104" class="solid"></line>
    <text x="170" y="108" >injected</text>
    <text x="242" y="108" >int</text>
    <circle cx="268" cy="104" r="3" class="nofill"></circle>
    <text x="306" y="108" >Pod</text>
    <text x="338" y="108" >s</text>
    <path d="M 344,96 A 16,16 0,0,1 344,112" class="nofill"></path>
    <text x="362" y="108" >as</text>
    <text x="386" y="108" >env</text>
    <text x="418" y="108" >vars</text>
    <text x="2" y="124" >PVC</text>
    <line x1="32" y1="120" x2="48" y2="120" class="solid"></line>
    <text x="50" y="124" >bound</text>
    <text x="98" y="124" >t</text>
    <circle cx="108" cy="120" r="3" class="nofill"></circle>
    <text x="146" y="124" >PV</text>
    <line x1="168" y1="120" x2="184" y2="120" class="solid"></line>
    <text x="186" y="124" >mounted</text>
    <text x="250" y="124" >in</text>
    <text x="298" y="124" >Pod</text>
    <path d="M 328,112 A 16,16 0,0,0 328,128" class="nofill"></path>
    <text x="330" y="124" >s</text>
    <text x="354" y="124" >as</text>
    <text x="378" y="124" >volumes</text>
    <text x="2" y="140" >HPA</text>
    <line x1="32" y1="136" x2="48" y2="136" class="solid"></line>
    <text x="50" y="140" >scales</text>
    <text x="130" y="140" >Deployment</text>
    <path d="M 224,128 A 16,16 0,0,0 224,144" class="nofill"></path>
    <text x="226" y="140" >adjusts</text>
    <text x="290" y="140" >replica</text>
    <text x="354" y="140" >count</text>
    <text x="2" y="156" >NetworkPolicy</text>
    <line x1="112" y1="152" x2="128" y2="152" class="solid"></line>
    <text x="130" y="156" >restricts</text>
    <text x="210" y="156" >traffic</text>
    <text x="274" y="156" >to</text>
    <line x1="296" y1="144" x2="288" y2="160" class="solid"></line>
    <text x="298" y="156" >from</text>
    <text x="362" y="156" >Pod</text>
    <text x="394" y="156" >s</text>
    <path d="M 400,144 A 16,16 0,0,1 400,160" class="nofill"></path>
    <text x="378" y="60" >→</text>
    <text x="394" y="60" >Container</text>
    <path d="M 472,48 A 16,16 0,0,0 472,64" class="nofill"></path>
    <text x="474" y="60" >s</text>
    <path d="M 480,48 A 16,16 0,0,1 480,64" class="nofill"></path>
    <text x="458" y="108" >or</text>
    <text x="482" y="108" >files</text>
    <g>
        <line x1="20" y1="16" x2="20" y2="24" class="solid"></line>
        <line x1="20" y1="24" x2="40" y2="24" class="solid"></line>
    </g>
    <g>
        <line x1="148" y1="32" x2="148" y2="40" class="solid"></line>
        <line x1="148" y1="40" x2="168" y2="40" class="solid"></line>
    </g>
    <g>
        <line x1="276" y1="48" x2="276" y2="56" class="solid"></line>
        <line x1="276" y1="56" x2="296" y2="56" class="solid"></line>
    </g>
    <g>
        <line x1="136" y1="72" x2="152" y2="72" class="solid"></line>
        <polygon points="152,68 160,72 152,76" class="filled"></polygon>
    </g>
    <g>
        <line x1="128" y1="88" x2="144" y2="88" class="solid"></line>
        <polygon points="144,84 152,88 144,92" class="filled"></polygon>
    </g>
    <g>
        <line x1="272" y1="104" x2="288" y2="104" class="solid"></line>
        <polygon points="288,100 296,104 288,108" class="filled"></polygon>
    </g>
    <g>
        <path d="M 336,96 A 16,16 0,0,0 336,112" class="nofill"></path>
        <path d="M 336,112 A 16,16 0,0,1 336,128" class="nofill"></path>
    </g>
    <g>
        <line x1="112" y1="120" x2="128" y2="120" class="solid"></line>
        <polygon points="128,116 136,120 128,124" class="filled"></polygon>
    </g>
    <g>
        <line x1="264" y1="120" x2="280" y2="120" class="solid"></line>
        <polygon points="280,116 288,120 280,124" class="filled"></polygon>
    </g>
    <g>
        <line x1="96" y1="136" x2="112" y2="136" class="solid"></line>
        <polygon points="112,132 120,136 112,140" class="filled"></polygon>
    </g>
    <g>
        <path d="M 392,128 A 16,16 0,0,1 392,144" class="nofill"></path>
        <path d="M 392,144 A 16,16 0,0,0 392,160" class="nofill"></path>
    </g>
    <g>
        <line x1="328" y1="152" x2="344" y2="152" class="solid"></line>
        <polygon points="344,148 352,152 344,156" class="filled"></polygon>
    </g>
</svg>