<svg xmlns="http://www.w3.org/2000/svg" width="608" height="656" style="background:#ffffff;border:1px solid #e5e5e5;border-radius:8px;max-width:100%;height:auto"><rect x="0" y="0" width="100%" height="100%" fill="#ffffff"/>
    <style>
        line, path, circle, rect, polygon{stroke:black;stroke-width:2;stroke-opacity:1;fill-opacity:1;stroke-linecap:round;stroke-linejoin:miter;}text{font-family:Iosevka Fixed, monospace;font-size:14px;}rect.backdrop{stroke:none;fill:transparent;}.broken{stroke-dasharray:8;}.filled{fill:black;}.bg_filled{fill:transparent;}.nofill{fill:transparent;}.end_marked_arrow{marker-end:url(#arrow);}.start_marked_arrow{marker-start:url(#arrow);}.end_marked_diamond{marker-end:url(#diamond);}.start_marked_diamond{marker-start:url(#diamond);}.end_marked_circle{marker-end:url(#circle);}.start_marked_circle{marker-start:url(#circle);}.end_marked_open_circle{marker-end:url(#open_circle);}.start_marked_open_circle{marker-start:url(#open_circle);}.end_marked_big_open_circle{marker-end:url(#big_open_circle);}.start_marked_big_open_circle{marker-start:url(#big_open_circle);}
        <!--separator-->
        
    </style>
    <defs>
        <marker id="arrow" viewBox="-2 -2 8 8" refX="4" refY="2" markerWidth="7" markerHeight="7" orient="auto-start-reverse">
            <polygon points="0,0 0,4 4,2 0,0"></polygon>
        </marker>
        <marker id="diamond" viewBox="-2 -2 8 8" refX="4" refY="2" markerWidth="7" markerHeight="7" orient="auto-start-reverse">
            <polygon points="0,2 2,0 4,2 2,4 0,2"></polygon>
        </marker>
        <marker id="circle" viewBox="0 0 8 8" refX="4" refY="4" markerWidth="7" markerHeight="7" orient="auto-start-reverse">
            <circle cx="4" cy="4" r="2" class="filled"></circle>
        </marker>
        <marker id="open_circle" viewBox="0 0 8 8" refX="4" refY="4" markerWidth="7" markerHeight="7" orient="auto-start-reverse">
            <circle cx="4" cy="4" r="2" class="bg_filled"></circle>
        </marker>
        <marker id="big_open_circle" viewBox="0 0 8 8" refX="4" refY="4" markerWidth="7" markerHeight="7" orient="auto-start-reverse">
            <circle cx="4" cy="4" r="3" class="bg_filled"></circle>
        </marker>
    </defs>
    <rect class="backdrop" x="0" y="0" width="608" height="656"></rect>
    <rect x="28" y="520" width="536" height="96" class="solid nofill" rx="0"></rect>
    <text x="50" y="540" >Supporting</text>
    <text x="138" y="540" >Services</text>
    <text x="50" y="556" >ECR</text>
    <line x1="88" y1="544" x2="80" y2="560" class="solid"></line>
    <text x="98" y="556" >GAR</text>
    <line x1="136" y1="544" x2="118" y2="580" class="solid"></line>
    <text x="146" y="556" >ACR</text>
    <path d="M 184,544 A 16,16 0,0,0 184,560" class="nofill"></path>
    <text x="186" y="556" >Container</text>
    <text x="50" y="572" >Route</text>
    <text x="98" y="572" >53</text>
    <text x="138" y="572" >Cloud</text>
    <text x="186" y="572" >DNS</text>
    <path d="M 224,560 A 16,16 0,0,0 224,576" class="nofill"></path>
    <text x="226" y="572" >DNS</text>
    <text x="50" y="588" >ACM</text>
    <line x1="88" y1="576" x2="80" y2="592" class="solid"></line>
    <text x="98" y="588" >Cl</text>
    <circle cx="116" cy="584" r="3" class="nofill"></circle>
    <text x="122" y="588" >ud</text>
    <text x="146" y="588" >Armor</text>
    <line x1="200" y1="576" x2="192" y2="592" class="solid"></line>
    <text x="210" y="588" >WAF</text>
    <text x="250" y="588" >TLS</text>
    <text x="282" y="588" >+</text>
    <text x="298" y="588" >Security</text>
    <path d="M 360,576 A 16,16 0,0,1 360,592" class="nofill"></path>
    <text x="50" y="604" >CloudWatch</text>
    <line x1="144" y1="592" x2="136" y2="608" class="solid"></line>
    <text x="154" y="604" >Cloud</text>
    <text x="202" y="604" >Monitoring</text>
    <path d="M 296,592 A 16,16 0,0,0 296,608" class="nofill"></path>
    <text x="298" y="604" >Observability</text>
    <path d="M 400,592 A 16,16 0,0,1 400,608" class="nofill"></path>
    <text x="266" y="556" >Registry</text>
    <path d="M 328,544 A 16,16 0,0,1 328,560" class="nofill"></path>
    <rect x="52" y="104" width="184" height="224" class="solid nofill" rx="0"></rect>
    <rect x="76" y="152" width="136" height="48" class="solid nofill" rx="0"></rect>
    <text x="90" y="172" >Load</text>
    <text x="130" y="172" >Balancer</text>
    <path d="M 96,176 A 16,16 0,0,0 96,192" class="nofill"></path>
    <text x="98" y="188" >ALB</text>
    <line x1="136" y1="176" x2="128" y2="192" class="solid"></line>
    <text x="146" y="188" >NLB</text>
    <path d="M 168,176 A 16,16 0,0,1 168,192" class="nofill"></path>
    <rect x="76" y="232" width="136" height="64" class="solid nofill" rx="0"></rect>
    <text x="90" y="252" >NAT</text>
    <text x="122" y="252" >Gateway</text>
    <path d="M 96,256 A 16,16 0,0,0 96,272" class="nofill"></path>
    <text x="98" y="268" >outbound</text>
    <text x="170" y="268" >from</text>
    <text x="98" y="284" >private</text>
    <text x="162" y="284" >subs</text>
    <path d="M 192,272 A 16,16 0,0,1 192,288" class="nofill"></path>
    <text x="82" y="124" >Public</text>
    <text x="138" y="124" >Subnets</text>
    <line x1="216" y1="168" x2="232" y2="168" class="solid"></line>
    <rect x="292" y="376" width="224" height="80" class="solid nofill" rx="0"></rect>
    <text x="306" y="396" >Managed</text>
    <text x="370" y="396" >Data</text>
    <text x="410" y="396" >Stores</text>
    <text x="306" y="412" >RDS</text>
    <path d="M 344,400 A 16,16 0,0,0 344,416" class="nofill"></path>
    <text x="346" y="412" >Postgres</text>
    <text x="418" y="412" >MySQL</text>
    <path d="M 456,400 A 16,16 0,0,1 456,416" class="nofill"></path>
    <text x="306" y="428" >ElastiCache</text>
    <text x="410" y="428" >Redis</text>
    <path d="M 448,416 A 16,16 0,0,1 448,432" class="nofill"></path>
    <text x="306" y="444" >S3</text>
    <line x1="336" y1="432" x2="328" y2="448" class="solid"></line>
    <text x="346" y="444" >GCS</text>
    <line x1="384" y1="432" x2="376" y2="448" class="solid"></line>
    <text x="394" y="444" >Blob</text>
    <text x="434" y="444" >Storage</text>
    <rect x="316" y="216" width="176" height="48" class="solid nofill" rx="0"></rect>
    <text x="330" y="236" >Node</text>
    <text x="370" y="236" >Group</text>
    <path d="M 424,224 A 16,16 0,0,0 424,240" class="nofill"></path>
    <text x="426" y="236" >AZ</text>
    <line x1="440" y1="232" x2="448" y2="232" class="solid"></line>
    <text x="450" y="236" >1</text>
    <path d="M 456,224 A 16,16 0,0,1 456,240" class="nofill"></path>
    <text x="330" y="252" >m5.xlarge</text>
    <text x="410" y="252" >x</text>
    <text x="426" y="252" >3</text>
    <rect x="316" y="280" width="176" height="48" class="solid nofill" rx="0"></rect>
    <text x="330" y="300" >Node</text>
    <text x="370" y="300" >Group</text>
    <path d="M 424,288 A 16,16 0,0,0 424,304" class="nofill"></path>
    <text x="426" y="300" >AZ</text>
    <line x1="440" y1="296" x2="448" y2="296" class="solid"></line>
    <text x="450" y="300" >2</text>
    <path d="M 456,288 A 16,16 0,0,1 456,304" class="nofill"></path>
    <text x="330" y="316" >m5.xlarge</text>
    <text x="410" y="316" >x</text>
    <text x="426" y="316" >3</text>
    <text x="186" y="28" >Cloud</text>
    <text x="234" y="28" >Provider</text>
    <path d="M 312,16 A 16,16 0,0,0 312,32" class="nofill"></path>
    <text x="314" y="28" >AWS</text>
    <line x1="352" y1="16" x2="344" y2="32" class="solid"></line>
    <text x="362" y="28" >GCP</text>
    <line x1="400" y1="16" x2="392" y2="32" class="solid"></line>
    <text x="410" y="28" >Azure</text>
    <path d="M 448,16 A 16,16 0,0,1 448,32" class="nofill"></path>
    <line x1="588" y1="32" x2="588" y2="96" class="solid"></line>
    <line x1="580" y1="96" x2="580" y2="160" class="solid"></line>
    <line x1="572" y1="160" x2="572" y2="176" class="solid"></line>
    <line x1="580" y1="176" x2="580" y2="480" class="solid"></line>
    <line x1="588" y1="480" x2="588" y2="624" class="solid"></line>
    <text x="202" y="76" >VPC</text>
    <line x1="240" y1="64" x2="232" y2="80" class="solid"></line>
    <text x="250" y="76" >Virtual</text>
    <text x="314" y="76" >Network</text>
    <line x1="556" y1="96" x2="556" y2="160" class="solid"></line>
    <text x="322" y="124" >Private</text>
    <text x="386" y="124" >Subnets</text>
    <line x1="532" y1="160" x2="532" y2="176" class="solid"></line>
    <line x1="548" y1="160" x2="548" y2="176" class="solid"></line>
    <line x1="556" y1="176" x2="556" y2="480" class="solid"></line>
    <line x1="240" y1="264" x2="264" y2="264" class="solid"></line>
    <text x="314" y="172" >EKS</text>
    <line x1="352" y1="160" x2="344" y2="176" class="solid"></line>
    <text x="362" y="172" >GKE</text>
    <line x1="400" y1="160" x2="392" y2="176" class="solid"></line>
    <text x="410" y="172" >AKS</text>
    <text x="442" y="172" >Cluster</text>
    <line x1="508" y1="160" x2="508" y2="176" class="solid"></line>
    <text x="314" y="204" >Control</text>
    <text x="378" y="204" >Plane</text>
    <path d="M 432,192 A 16,16 0,0,0 432,208" class="nofill"></path>
    <text x="434" y="204" >managed</text>
    <path d="M 488,192 A 16,16 0,0,1 488,208" class="nofill"></path>
    <g>
        <line x1="4" y1="8" x2="596" y2="8" class="solid"></line>
        <line x1="4" y1="8" x2="4" y2="632" class="solid"></line>
        <line x1="596" y1="8" x2="596" y2="32" class="solid"></line>
        <line x1="4" y1="632" x2="596" y2="632" class="solid"></line>
        <line x1="596" y1="624" x2="596" y2="632" class="solid"></line>
    </g>
    <g>
        <path d="M 248,560 A 16,16 0,0,1 248,576" class="nofill"></path>
        <path d="M 248,576 A 16,16 0,0,0 248,592" class="nofill"></path>
    </g>
    <g>
        <line x1="28" y1="56" x2="564" y2="56" class="solid"></line>
        <line x1="28" y1="56" x2="28" y2="488" class="solid"></line>
        <line x1="564" y1="56" x2="564" y2="96" class="solid"></line>
        <line x1="28" y1="488" x2="564" y2="488" class="solid"></line>
        <line x1="564" y1="480" x2="564" y2="488" class="solid"></line>
    </g>
    <g>
        <line x1="268" y1="104" x2="540" y2="104" class="solid"></line>
        <line x1="268" y1="104" x2="268" y2="472" class="solid"></line>
        <line x1="540" y1="104" x2="540" y2="160" class="solid"></line>
        <line x1="540" y1="176" x2="540" y2="472" class="solid"></line>
        <line x1="268" y1="472" x2="540" y2="472" class="solid"></line>
    </g>
    <g>
        <line x1="240" y1="168" x2="256" y2="168" class="solid"></line>
        <polygon points="256,164 264,168 256,172" class="filled"></polygon>
    </g>
    <g>
        <polygon points="224,260 216,264 224,268" class="filled"></polygon>
        <line x1="224" y1="264" x2="232" y2="264" class="solid"></line>
    </g>
    <g>
        <line x1="416" y1="400" x2="408" y2="416" class="solid"></line>
        <path d="M 408,416 A 16,16 0,0,0 408,432" class="nofill"></path>
    </g>
    <g>
        <line x1="292" y1="152" x2="516" y2="152" class="solid"></line>
        <line x1="292" y1="152" x2="292" y2="344" class="solid"></line>
        <line x1="516" y1="152" x2="516" y2="160" class="solid"></line>
        <line x1="516" y1="176" x2="516" y2="344" class="solid"></line>
        <line x1="292" y1="344" x2="516" y2="344" class="solid"></line>
    </g>
</svg>