<svg xmlns="http://www.w3.org/2000/svg" width="568" height="784" style="background:#ffffff;border:1px solid #e5e5e5;border-radius:8px;max-width:100%;height:auto"><rect x="0" y="0" width="100%" height="100%" fill="#ffffff"/>
    <style>
        line, path, circle, rect, polygon{stroke:black;stroke-width:2;stroke-opacity:1;fill-opacity:1;stroke-linecap:round;stroke-linejoin:miter;}text{font-family:Iosevka Fixed, monospace;font-size:14px;}rect.backdrop{stroke:none;fill:transparent;}.broken{stroke-dasharray:8;}.filled{fill:black;}.bg_filled{fill:transparent;}.nofill{fill:transparent;}.end_marked_arrow{marker-end:url(#arrow);}.start_marked_arrow{marker-start:url(#arrow);}.end_marked_diamond{marker-end:url(#diamond);}.start_marked_diamond{marker-start:url(#diamond);}.end_marked_circle{marker-end:url(#circle);}.start_marked_circle{marker-start:url(#circle);}.end_marked_open_circle{marker-end:url(#open_circle);}.start_marked_open_circle{marker-start:url(#open_circle);}.end_marked_big_open_circle{marker-end:url(#big_open_circle);}.start_marked_big_open_circle{marker-start:url(#big_open_circle);}
        <!--separator-->
        
    </style>
    <defs>
        <marker id="arrow" viewBox="-2 -2 8 8" refX="4" refY="2" markerWidth="7" markerHeight="7" orient="auto-start-reverse">
            <polygon points="0,0 0,4 4,2 0,0"></polygon>
        </marker>
        <marker id="diamond" viewBox="-2 -2 8 8" refX="4" refY="2" markerWidth="7" markerHeight="7" orient="auto-start-reverse">
            <polygon points="0,2 2,0 4,2 2,4 0,2"></polygon>
        </marker>
        <marker id="circle" viewBox="0 0 8 8" refX="4" refY="4" markerWidth="7" markerHeight="7" orient="auto-start-reverse">
            <circle cx="4" cy="4" r="2" class="filled"></circle>
        </marker>
        <marker id="open_circle" viewBox="0 0 8 8" refX="4" refY="4" markerWidth="7" markerHeight="7" orient="auto-start-reverse">
            <circle cx="4" cy="4" r="2" class="bg_filled"></circle>
        </marker>
        <marker id="big_open_circle" viewBox="0 0 8 8" refX="4" refY="4" markerWidth="7" markerHeight="7" orient="auto-start-reverse">
            <circle cx="4" cy="4" r="3" class="bg_filled"></circle>
        </marker>
    </defs>
    <rect class="backdrop" x="0" y="0" width="568" height="784"></rect>
    <text x="2" y="12" >BridgeOnline</text>
    <line x1="104" y1="0" x2="96" y2="16" class="solid"></line>
    <text x="34" y="44" >app</text>
    <line x1="64" y1="32" x2="56" y2="48" class="solid"></line>
    <text x="66" y="60" >page.tsx</text>
    <text x="66" y="76" >login</text>
    <line x1="112" y1="64" x2="104" y2="80" class="solid"></line>
    <text x="66" y="92" >register</text>
    <line x1="136" y1="80" x2="128" y2="96" class="solid"></line>
    <text x="66" y="108" >dashb</text>
    <circle cx="108" cy="104" r="3" class="nofill"></circle>
    <line x1="106" y1="108" x2="96" y2="128" class="solid"></line>
    <text x="114" y="108" >ard</text>
    <line x1="144" y1="96" x2="134" y2="116" class="solid"></line>
    <text x="66" y="124" >room</text>
    <text x="106" y="124" >[ro</text>
    <circle cx="132" cy="120" r="3" class="nofill"></circle>
    <text x="138" y="124" >mId]</text>
    <line x1="176" y1="112" x2="168" y2="128" class="solid"></line>
    <text x="66" y="140" >game</text>
    <line x1="104" y1="128" x2="88" y2="160" class="solid"></line>
    <text x="106" y="140" >[gameId]</text>
    <line x1="176" y1="128" x2="168" y2="144" class="solid"></line>
    <text x="66" y="156" >api</text>
    <text x="98" y="172" >auth</text>
    <line x1="136" y1="160" x2="128" y2="176" class="solid"></line>
    <text x="98" y="188" >rooms</text>
    <line x1="144" y1="176" x2="136" y2="192" class="solid"></line>
    <text x="98" y="204" >games</text>
    <line x1="144" y1="192" x2="136" y2="208" class="solid"></line>
    <text x="226" y="44" >←</text>
    <text x="226" y="60" >←</text>
    <text x="226" y="76" >←</text>
    <text x="226" y="92" >←</text>
    <text x="226" y="108" >←</text>
    <text x="226" y="124" >←</text>
    <text x="226" y="140" >←</text>
    <text x="226" y="156" >←</text>
    <text x="226" y="172" >←</text>
    <text x="226" y="188" >←</text>
    <text x="226" y="204" >←</text>
    <text x="242" y="44" >Next.js</text>
    <text x="306" y="44" >pages</text>
    <text x="242" y="60" >Homepage</text>
    <text x="242" y="76" >Login</text>
    <text x="290" y="76" >page</text>
    <text x="346" y="76" >login</text>
    <path d="M 384,64 A 16,16 0,0,1 384,80" class="nofill"></path>
    <text x="242" y="92" >Registration</text>
    <text x="362" y="92" >register</text>
    <path d="M 424,80 A 16,16 0,0,1 424,96" class="nofill"></path>
    <text x="242" y="108" >User</text>
    <text x="282" y="108" >dashboard</text>
    <text x="378" y="108" >dashboard</text>
    <path d="M 448,96 A 16,16 0,0,1 448,112" class="nofill"></path>
    <text x="242" y="124" >Lobby</text>
    <text x="290" y="124" >for</text>
    <text x="322" y="124" >a</text>
    <text x="338" y="124" >game</text>
    <text x="378" y="124" >r</text>
    <circle cx="388" cy="120" r="3" class="nofill"></circle>
    <text x="394" y="124" >om</text>
    <path d="M 424,112 A 16,16 0,0,0 424,128" class="nofill"></path>
    <line x1="432" y1="112" x2="416" y2="144" class="solid"></line>
    <text x="426" y="140" >xyz789</text>
    <text x="434" y="124" >room</text>
    <line x1="472" y1="112" x2="464" y2="128" class="solid"></line>
    <text x="474" y="124" >abc123</text>
    <path d="M 520,112 A 16,16 0,0,1 520,128" class="nofill"></path>
    <text x="242" y="140" >Live</text>
    <text x="282" y="140" >game</text>
    <text x="322" y="140" >table</text>
    <text x="386" y="140" >game</text>
    <path d="M 472,128 A 16,16 0,0,1 472,144" class="nofill"></path>
    <text x="242" y="156" >HTTP</text>
    <text x="282" y="156" >API</text>
    <text x="314" y="156" >endpoints</text>
    <text x="242" y="172" >NextAuth</text>
    <text x="314" y="172" >authentication</text>
    <text x="242" y="188" >Create</text>
    <text x="298" y="188" >room,</text>
    <text x="346" y="188" >join</text>
    <text x="386" y="188" >room</text>
    <text x="242" y="204" >Game</text>
    <text x="282" y="204" >state,</text>
    <text x="338" y="204" >bids,</text>
    <text x="386" y="204" >card</text>
    <path d="M 360,32 A 16,16 0,0,0 360,48" class="nofill"></path>
    <text x="362" y="44" >URL</text>
    <text x="394" y="44" >routes</text>
    <path d="M 440,32 A 16,16 0,0,1 440,48" class="nofill"></path>
    <text x="426" y="204" >plays</text>
    <text x="34" y="236" >lib</text>
    <line x1="64" y1="224" x2="56" y2="240" class="solid"></line>
    <text x="66" y="252" >game</text>
    <line x1="104" y1="240" x2="96" y2="256" class="solid"></line>
    <text x="98" y="268" >deck.ts</text>
    <text x="98" y="284" >bidding.ts</text>
    <text x="98" y="300" >playing.ts</text>
    <text x="98" y="316" >scoring.ts</text>
    <text x="98" y="332" >cardUtils.ts</text>
    <text x="98" y="348" >gameEngine.ts</text>
    <text x="66" y="364" >voice</text>
    <line x1="112" y1="352" x2="104" y2="368" class="solid"></line>
    <text x="66" y="380" >hooks</text>
    <line x1="112" y1="368" x2="104" y2="384" class="solid"></line>
    <text x="66" y="396" >constants</text>
    <line x1="144" y1="384" x2="136" y2="400" class="solid"></line>
    <text x="226" y="236" >←</text>
    <text x="226" y="252" >←</text>
    <text x="226" y="268" >←</text>
    <text x="226" y="284" >←</text>
    <text x="226" y="300" >←</text>
    <text x="226" y="316" >←</text>
    <text x="226" y="332" >←</text>
    <text x="226" y="348" >←</text>
    <text x="226" y="364" >←</text>
    <text x="226" y="380" >←</text>
    <text x="226" y="396" >←</text>
    <text x="242" y="236" >Shared</text>
    <text x="298" y="236" >business</text>
    <text x="370" y="236" >logic</text>
    <text x="242" y="252" >Pure</text>
    <text x="282" y="252" >game</text>
    <text x="322" y="252" >logic</text>
    <path d="M 376,240 A 16,16 0,0,0 376,256" class="nofill"></path>
    <text x="378" y="252" >NO</text>
    <text x="402" y="252" >side</text>
    <text x="442" y="252" >effects</text>
    <path d="M 496,240 A 16,16 0,0,1 496,256" class="nofill"></path>
    <text x="242" y="268" >Card</text>
    <text x="282" y="268" >generation,</text>
    <text x="378" y="268" >shuffle,</text>
    <text x="450" y="268" >deal</text>
    <text x="242" y="284" >Bid</text>
    <text x="274" y="284" >validation,</text>
    <text x="370" y="284" >auction</text>
    <text x="434" y="284" >end</text>
    <text x="466" y="284" >detection</text>
    <text x="242" y="300" >Card</text>
    <text x="282" y="300" >play</text>
    <text x="322" y="300" >rules,</text>
    <text x="378" y="300" >trick</text>
    <text x="426" y="300" >winner</text>
    <text x="242" y="316" >ACBL</text>
    <text x="282" y="316" >scoring</text>
    <text x="346" y="316" >formula</text>
    <text x="242" y="332" >Card</text>
    <text x="282" y="332" >string</text>
    <line x1="336" y1="320" x2="328" y2="336" class="solid"></line>
    <text x="338" y="332" >object</text>
    <text x="394" y="332" >conversion</text>
    <text x="242" y="348" >Vulnerability,</text>
    <text x="362" y="348" >dealer</text>
    <text x="418" y="348" >rotation</text>
    <text x="242" y="364" >WebRTC</text>
    <text x="298" y="364" >connection</text>
    <text x="386" y="364" >management</text>
    <text x="242" y="380" >React</text>
    <text x="290" y="380" >hooks</text>
    <path d="M 344,368 A 16,16 0,0,0 344,384" class="nofill"></path>
    <text x="346" y="380" >useVoiceChat,</text>
    <text x="458" y="380" >etc.</text>
    <path d="M 488,368 A 16,16 0,0,1 488,384" class="nofill"></path>
    <text x="242" y="396" >Card</text>
    <text x="282" y="396" >ranks,</text>
    <text x="338" y="396" >suits,</text>
    <text x="394" y="396" >suit</text>
    <text x="434" y="396" >order</text>
    <text x="34" y="428" >server</text>
    <line x1="88" y1="416" x2="80" y2="432" class="solid"></line>
    <text x="66" y="444" >index.js</text>
    <text x="226" y="428" >←</text>
    <text x="226" y="444" >←</text>
    <text x="242" y="428" >Socket.io</text>
    <text x="242" y="444" >WebSocket</text>
    <text x="322" y="428" >server</text>
    <text x="322" y="444" >server</text>
    <text x="378" y="444" >entrypoint</text>
    <text x="34" y="476" >components</text>
    <line x1="120" y1="464" x2="104" y2="496" class="solid"></line>
    <text x="66" y="492" >voice</text>
    <text x="66" y="508" >...</text>
    <text x="226" y="476" >←</text>
    <text x="226" y="492" >←</text>
    <text x="242" y="476" >React</text>
    <text x="242" y="492" >Voice</text>
    <text x="290" y="476" >UI</text>
    <text x="314" y="476" >components</text>
    <text x="290" y="492" >chat</text>
    <text x="330" y="492" >UI</text>
    <path d="M 360,480 A 16,16 0,0,0 360,496" class="nofill"></path>
    <text x="362" y="492" >mute</text>
    <text x="402" y="492" >button,</text>
    <text x="466" y="492" >indicators</text>
    <path d="M 544,480 A 16,16 0,0,1 544,496" class="nofill"></path>
    <text x="34" y="540" >prisma</text>
    <line x1="88" y1="528" x2="80" y2="544" class="solid"></line>
    <text x="66" y="556" >schema.prisma</text>
    <text x="226" y="540" >←</text>
    <text x="226" y="556" >←</text>
    <text x="242" y="540" >Database</text>
    <text x="314" y="540" >schema</text>
    <text x="370" y="540" >and</text>
    <text x="402" y="540" >client</text>
    <text x="242" y="556" >Single</text>
    <text x="298" y="556" >source</text>
    <text x="354" y="556" >of</text>
    <text x="378" y="556" >truth</text>
    <text x="426" y="556" >for</text>
    <text x="458" y="556" >all</text>
    <text x="490" y="556" >DB</text>
    <text x="514" y="556" >models</text>
    <text x="50" y="588" >tests</text>
    <text x="66" y="604" >unit</text>
    <text x="66" y="620" >db</text>
    <line x1="88" y1="608" x2="78" y2="628" class="solid"></line>
    <text x="66" y="636" >s</text>
    <circle cx="76" cy="632" r="3" class="nofill"></circle>
    <text x="82" y="636" >cket</text>
    <line x1="120" y1="624" x2="112" y2="640" class="solid"></line>
    <text x="66" y="652" >e2e</text>
    <line x1="96" y1="640" x2="88" y2="656" class="solid"></line>
    <text x="66" y="668" >helpers</text>
    <line x1="128" y1="656" x2="120" y2="672" class="solid"></line>
    <text x="226" y="588" >←</text>
    <text x="226" y="604" >←</text>
    <text x="226" y="620" >←</text>
    <text x="226" y="636" >←</text>
    <text x="226" y="652" >←</text>
    <text x="226" y="668" >←</text>
    <text x="242" y="588" >All</text>
    <text x="274" y="588" >tests</text>
    <path d="M 328,576 A 16,16 0,0,0 328,592" class="nofill"></path>
    <text x="330" y="588" >5</text>
    <text x="346" y="588" >layers</text>
    <path d="M 392,576 A 16,16 0,0,1 392,592" class="nofill"></path>
    <text x="242" y="604" >Pure</text>
    <text x="282" y="604" >function</text>
    <text x="354" y="604" >tests</text>
    <path d="M 408,592 A 16,16 0,0,0 408,608" class="nofill"></path>
    <text x="410" y="604" >no</text>
    <text x="434" y="604" >I</text>
    <line x1="448" y1="592" x2="440" y2="608" class="solid"></line>
    <text x="450" y="604" >O</text>
    <path d="M 456,592 A 16,16 0,0,1 456,608" class="nofill"></path>
    <text x="242" y="620" >Database</text>
    <text x="314" y="620" >integration</text>
    <text x="410" y="620" >tests</text>
    <text x="242" y="636" >Socket.io</text>
    <text x="322" y="636" >integration</text>
    <text x="418" y="636" >tests</text>
    <text x="242" y="652" >Playwright</text>
    <text x="330" y="652" >browser</text>
    <text x="394" y="652" >tests</text>
    <text x="242" y="668" >Shared</text>
    <text x="298" y="668" >test</text>
    <text x="338" y="668" >utilities</text>
    <text x="34" y="700" >docs</text>
    <line x1="72" y1="688" x2="64" y2="704" class="solid"></line>
    <text x="66" y="716" >design</text>
    <line x1="112" y1="712" x2="120" y2="712" class="solid"></line>
    <text x="122" y="716" >document.md</text>
    <text x="66" y="732" >testing</text>
    <line x1="120" y1="728" x2="128" y2="728" class="solid"></line>
    <text x="130" y="732" >guide.md</text>
    <text x="226" y="700" >←</text>
    <text x="226" y="716" >←</text>
    <text x="226" y="732" >←</text>
    <text x="242" y="700" >Technical</text>
    <text x="322" y="700" >documentation</text>
    <text x="242" y="716" >Architecture</text>
    <text x="346" y="716" >decisions</text>
    <text x="242" y="732" >How</text>
    <text x="274" y="732" >to</text>
    <text x="298" y="732" >run</text>
    <text x="330" y="732" >each</text>
    <text x="370" y="732" >test</text>
    <text x="410" y="732" >layer</text>
    <text x="34" y="764" >learning</text>
    <line x1="104" y1="752" x2="96" y2="768" class="solid"></line>
    <text x="226" y="764" >←</text>
    <text x="242" y="764" >This</text>
    <text x="282" y="764" >folder</text>
    <line x1="336" y1="760" x2="344" y2="760" class="solid"></line>
    <text x="354" y="764" >developer</text>
    <text x="434" y="764" >learning</text>
    <text x="506" y="764" >guide</text>
    <g>
        <line x1="4" y1="16" x2="4" y2="760" class="solid"></line>
        <line x1="4" y1="40" x2="24" y2="40" class="solid"></line>
        <line x1="4" y1="232" x2="24" y2="232" class="solid"></line>
        <line x1="4" y1="424" x2="24" y2="424" class="solid"></line>
        <line x1="4" y1="472" x2="24" y2="472" class="solid"></line>
        <line x1="4" y1="536" x2="24" y2="536" class="solid"></line>
        <line x1="4" y1="584" x2="24" y2="584" class="solid"></line>
        <line x1="4" y1="696" x2="24" y2="696" class="solid"></line>
        <line x1="4" y1="760" x2="24" y2="760" class="solid"></line>
    </g>
    <g>
        <line x1="36" y1="48" x2="36" y2="152" class="solid"></line>
        <line x1="36" y1="56" x2="56" y2="56" class="solid"></line>
        <line x1="36" y1="72" x2="56" y2="72" class="solid"></line>
        <line x1="36" y1="88" x2="56" y2="88" class="solid"></line>
        <line x1="36" y1="104" x2="56" y2="104" class="solid"></line>
        <line x1="36" y1="120" x2="56" y2="120" class="solid"></line>
        <line x1="36" y1="136" x2="56" y2="136" class="solid"></line>
        <line x1="36" y1="152" x2="56" y2="152" class="solid"></line>
    </g>
    <g>
        <line x1="68" y1="160" x2="68" y2="200" class="solid"></line>
        <line x1="68" y1="168" x2="88" y2="168" class="solid"></line>
        <line x1="68" y1="184" x2="88" y2="184" class="solid"></line>
        <line x1="68" y1="200" x2="88" y2="200" class="solid"></line>
    </g>
    <g>
        <path d="M 320,48 A 16,16 0,0,0 320,64" class="nofill"></path>
        <line x1="328" y1="48" x2="320" y2="64" class="solid"></line>
        <path d="M 328,48 A 16,16 0,0,1 328,64" class="nofill"></path>
    </g>
    <g>
        <path d="M 336,64 A 16,16 0,0,0 336,80" class="nofill"></path>
        <line x1="344" y1="64" x2="336" y2="80" class="solid"></line>
    </g>
    <g>
        <path d="M 352,80 A 16,16 0,0,0 352,96" class="nofill"></path>
        <line x1="360" y1="80" x2="352" y2="96" class="solid"></line>
    </g>
    <g>
        <path d="M 368,96 A 16,16 0,0,0 368,112" class="nofill"></path>
        <line x1="376" y1="96" x2="368" y2="112" class="solid"></line>
    </g>
    <g>
        <line x1="386" y1="124" x2="376" y2="144" class="solid"></line>
        <path d="M 376,128 A 16,16 0,0,0 376,144" class="nofill"></path>
    </g>
    <g>
        <line x1="36" y1="240" x2="36" y2="392" class="solid"></line>
        <line x1="36" y1="248" x2="56" y2="248" class="solid"></line>
        <line x1="36" y1="360" x2="56" y2="360" class="solid"></line>
        <line x1="36" y1="376" x2="56" y2="376" class="solid"></line>
        <line x1="36" y1="392" x2="56" y2="392" class="solid"></line>
    </g>
    <g>
        <line x1="68" y1="256" x2="68" y2="344" class="solid"></line>
        <line x1="68" y1="264" x2="88" y2="264" class="solid"></line>
        <line x1="68" y1="280" x2="88" y2="280" class="solid"></line>
        <line x1="68" y1="296" x2="88" y2="296" class="solid"></line>
        <line x1="68" y1="312" x2="88" y2="312" class="solid"></line>
        <line x1="68" y1="328" x2="88" y2="328" class="solid"></line>
        <line x1="68" y1="344" x2="88" y2="344" class="solid"></line>
    </g>
    <g>
        <line x1="36" y1="432" x2="36" y2="440" class="solid"></line>
        <line x1="36" y1="440" x2="56" y2="440" class="solid"></line>
    </g>
    <g>
        <line x1="36" y1="480" x2="36" y2="504" class="solid"></line>
        <line x1="36" y1="488" x2="56" y2="488" class="solid"></line>
        <line x1="36" y1="504" x2="56" y2="504" class="solid"></line>
    </g>
    <g>
        <line x1="36" y1="544" x2="36" y2="552" class="solid"></line>
        <line x1="36" y1="552" x2="56" y2="552" class="solid"></line>
    </g>
    <g>
        <line x1="32" y1="592" x2="48" y2="592" class="solid"></line>
        <line x1="36" y1="592" x2="36" y2="664" class="solid"></line>
        <line x1="36" y1="600" x2="56" y2="600" class="solid"></line>
        <line x1="36" y1="616" x2="56" y2="616" class="solid"></line>
        <line x1="36" y1="632" x2="56" y2="632" class="solid"></line>
        <line x1="36" y1="648" x2="56" y2="648" class="solid"></line>
        <line x1="36" y1="664" x2="56" y2="664" class="solid"></line>
    </g>
    <g>
        <line x1="88" y1="592" x2="104" y2="592" class="solid"></line>
        <line x1="112" y1="576" x2="96" y2="608" class="solid"></line>
    </g>
    <g>
        <line x1="36" y1="704" x2="36" y2="728" class="solid"></line>
        <line x1="36" y1="712" x2="56" y2="712" class="solid"></line>
        <line x1="36" y1="728" x2="56" y2="728" class="solid"></line>
    </g>
</svg>