<svg xmlns="http://www.w3.org/2000/svg" width="376" height="144" style="background:#ffffff;border:1px solid #e5e5e5;border-radius:8px;max-width:100%;height:auto"><rect x="0" y="0" width="100%" height="100%" fill="#ffffff"/>
    <style>
        line, path, circle, rect, polygon{stroke:black;stroke-width:2;stroke-opacity:1;fill-opacity:1;stroke-linecap:round;stroke-linejoin:miter;}text{font-family:Iosevka Fixed, monospace;font-size:14px;}rect.backdrop{stroke:none;fill:transparent;}.broken{stroke-dasharray:8;}.filled{fill:black;}.bg_filled{fill:transparent;}.nofill{fill:transparent;}.end_marked_arrow{marker-end:url(#arrow);}.start_marked_arrow{marker-start:url(#arrow);}.end_marked_diamond{marker-end:url(#diamond);}.start_marked_diamond{marker-start:url(#diamond);}.end_marked_circle{marker-end:url(#circle);}.start_marked_circle{marker-start:url(#circle);}.end_marked_open_circle{marker-end:url(#open_circle);}.start_marked_open_circle{marker-start:url(#open_circle);}.end_marked_big_open_circle{marker-end:url(#big_open_circle);}.start_marked_big_open_circle{marker-start:url(#big_open_circle);}
        <!--separator-->
        
    </style>
    <defs>
        <marker id="arrow" viewBox="-2 -2 8 8" refX="4" refY="2" markerWidth="7" markerHeight="7" orient="auto-start-reverse">
            <polygon points="0,0 0,4 4,2 0,0"></polygon>
        </marker>
        <marker id="diamond" viewBox="-2 -2 8 8" refX="4" refY="2" markerWidth="7" markerHeight="7" orient="auto-start-reverse">
            <polygon points="0,2 2,0 4,2 2,4 0,2"></polygon>
        </marker>
        <marker id="circle" viewBox="0 0 8 8" refX="4" refY="4" markerWidth="7" markerHeight="7" orient="auto-start-reverse">
            <circle cx="4" cy="4" r="2" class="filled"></circle>
        </marker>
        <marker id="open_circle" viewBox="0 0 8 8" refX="4" refY="4" markerWidth="7" markerHeight="7" orient="auto-start-reverse">
            <circle cx="4" cy="4" r="2" class="bg_filled"></circle>
        </marker>
        <marker id="big_open_circle" viewBox="0 0 8 8" refX="4" refY="4" markerWidth="7" markerHeight="7" orient="auto-start-reverse">
            <circle cx="4" cy="4" r="3" class="bg_filled"></circle>
        </marker>
    </defs>
    <rect class="backdrop" x="0" y="0" width="376" height="144"></rect>
    <text x="2" y="12" >Server</text>
    <text x="58" y="12" >1</text>
    <text x="34" y="28" >Alice</text>
    <text x="34" y="44" >Carol</text>
    <text x="210" y="12" >Server</text>
    <text x="266" y="12" >2</text>
    <text x="242" y="28" >Bob</text>
    <path d="M 280,16 A 16,16 0,0,0 280,32" class="nofill"></path>
    <text x="282" y="28" >room:</text>
    <text x="330" y="28" >abc</text>
    <path d="M 352,16 A 16,16 0,0,1 352,32" class="nofill"></path>
    <text x="242" y="44" >Dave</text>
    <path d="M 288,32 A 16,16 0,0,0 288,48" class="nofill"></path>
    <text x="290" y="44" >room:</text>
    <text x="338" y="44" >abc</text>
    <path d="M 360,32 A 16,16 0,0,1 360,48" class="nofill"></path>
    <text x="90" y="28" >room</text>
    <line x1="124" y1="16" x2="124" y2="48" class="broken"></line>
    <text x="90" y="44" >room</text>
    <text x="138" y="28" >abc</text>
    <text x="138" y="44" >xyz</text>
    <text x="2" y="76" >When</text>
    <text x="42" y="76" >Alice</text>
    <text x="90" y="76" >plays</text>
    <text x="138" y="76" >a</text>
    <text x="154" y="76" >card:</text>
    <text x="18" y="92" >io.to</text>
    <path d="M 64,80 A 16,16 0,0,0 64,96" class="nofill"></path>
    <text x="66" y="92" >&#39;abc&#39;</text>
    <path d="M 104,80 A 16,16 0,0,1 104,96" class="nofill"></path>
    <text x="114" y="92" >.emit</text>
    <path d="M 160,80 A 16,16 0,0,0 160,96" class="nofill"></path>
    <text x="162" y="92" >&#39;card</text>
    <line x1="200" y1="96" x2="208" y2="96" class="solid"></line>
    <text x="210" y="92" >played&#39;,</text>
    <text x="98" y="108" >Bob</text>
    <text x="130" y="108" >✓on</text>
    <path d="M 152,96 A 16,16 0,0,0 152,112" class="nofill"></path>
    <text x="178" y="108" >Server</text>
    <text x="234" y="108" >1</text>
    <path d="M 240,96 A 16,16 0,0,1 240,112" class="nofill"></path>
    <text x="74" y="124" >NOT</text>
    <text x="106" y="124" >reach</text>
    <text x="154" y="124" >Bob</text>
    <text x="186" y="124" >and</text>
    <text x="218" y="124" >Dave</text>
    <text x="282" y="92" >...</text>
    <path d="M 304,80 A 16,16 0,0,1 304,96" class="nofill"></path>
    <text x="258" y="124" >on</text>
    <text x="282" y="124" >Server</text>
    <text x="338" y="124" >2</text>
    <text x="354" y="124" >✗</text>
    <g>
        <line x1="4" y1="16" x2="4" y2="40" class="solid"></line>
        <line x1="4" y1="24" x2="24" y2="24" class="solid"></line>
        <line x1="4" y1="40" x2="24" y2="40" class="solid"></line>
    </g>
    <g>
        <line x1="212" y1="16" x2="212" y2="40" class="solid"></line>
        <line x1="212" y1="24" x2="232" y2="24" class="solid"></line>
        <line x1="212" y1="40" x2="232" y2="40" class="solid"></line>
    </g>
    <g>
        <path d="M 88,16 A 16,16 0,0,0 88,32" class="nofill"></path>
        <path d="M 88,32 A 16,16 0,0,0 88,48" class="nofill"></path>
    </g>
    <g>
        <path d="M 160,16 A 16,16 0,0,1 160,32" class="nofill"></path>
        <path d="M 160,32 A 16,16 0,0,1 160,48" class="nofill"></path>
    </g>
    <g>
        <text x="18" y="108">→</text>
        <text x="34" y="108">reaches</text>
    </g>
    <g>
        <text x="18" y="124">→</text>
        <text x="34" y="124">does</text>
    </g>
</svg>