<svg xmlns="http://www.w3.org/2000/svg" width="528" height="80" style="background:#ffffff;border:1px solid #e5e5e5;border-radius:8px;max-width:100%;height:auto"><rect x="0" y="0" width="100%" height="100%" fill="#ffffff"/>
    <style>
        line, path, circle, rect, polygon{stroke:black;stroke-width:2;stroke-opacity:1;fill-opacity:1;stroke-linecap:round;stroke-linejoin:miter;}text{font-family:Iosevka Fixed, monospace;font-size:14px;}rect.backdrop{stroke:none;fill:transparent;}.broken{stroke-dasharray:8;}.filled{fill:black;}.bg_filled{fill:transparent;}.nofill{fill:transparent;}.end_marked_arrow{marker-end:url(#arrow);}.start_marked_arrow{marker-start:url(#arrow);}.end_marked_diamond{marker-end:url(#diamond);}.start_marked_diamond{marker-start:url(#diamond);}.end_marked_circle{marker-end:url(#circle);}.start_marked_circle{marker-start:url(#circle);}.end_marked_open_circle{marker-end:url(#open_circle);}.start_marked_open_circle{marker-start:url(#open_circle);}.end_marked_big_open_circle{marker-end:url(#big_open_circle);}.start_marked_big_open_circle{marker-start:url(#big_open_circle);}
        <!--separator-->
        
    </style>
    <defs>
        <marker id="arrow" viewBox="-2 -2 8 8" refX="4" refY="2" markerWidth="7" markerHeight="7" orient="auto-start-reverse">
            <polygon points="0,0 0,4 4,2 0,0"></polygon>
        </marker>
        <marker id="diamond" viewBox="-2 -2 8 8" refX="4" refY="2" markerWidth="7" markerHeight="7" orient="auto-start-reverse">
            <polygon points="0,2 2,0 4,2 2,4 0,2"></polygon>
        </marker>
        <marker id="circle" viewBox="0 0 8 8" refX="4" refY="4" markerWidth="7" markerHeight="7" orient="auto-start-reverse">
            <circle cx="4" cy="4" r="2" class="filled"></circle>
        </marker>
        <marker id="open_circle" viewBox="0 0 8 8" refX="4" refY="4" markerWidth="7" markerHeight="7" orient="auto-start-reverse">
            <circle cx="4" cy="4" r="2" class="bg_filled"></circle>
        </marker>
        <marker id="big_open_circle" viewBox="0 0 8 8" refX="4" refY="4" markerWidth="7" markerHeight="7" orient="auto-start-reverse">
            <circle cx="4" cy="4" r="3" class="bg_filled"></circle>
        </marker>
    </defs>
    <rect class="backdrop" x="0" y="0" width="528" height="80"></rect>
    <text x="2" y="12" >Server</text>
    <text x="58" y="12" >1</text>
    <text x="106" y="12" >Redis</text>
    <text x="154" y="12" >Channel</text>
    <text x="178" y="28" >↓</text>
    <text x="170" y="44" >servers</text>
    <text x="170" y="60" >forward</text>
    <text x="338" y="12" >Server</text>
    <text x="394" y="12" >2</text>
    <text x="130" y="44" >Both</text>
    <text x="130" y="60" >Both</text>
    <text x="234" y="44" >subscribe</text>
    <text x="314" y="44" >to</text>
    <text x="338" y="44" >Redis</text>
    <text x="234" y="60" >the</text>
    <text x="266" y="60" >broadcast</text>
    <text x="346" y="60" >to</text>
    <text x="370" y="60" >their</text>
    <text x="418" y="60" >local</text>
    <text x="466" y="60" >sockets</text>
    <text x="218" y="12" >room:abc</text>
    <g>
        <line x1="72" y1="8" x2="88" y2="8" class="solid"></line>
        <polygon points="88,4 96,8 88,12" class="filled"></polygon>
    </g>
    <g>
        <polygon points="312,4 304,8 312,12" class="filled"></polygon>
        <line x1="312" y1="8" x2="328" y2="8" class="solid"></line>
    </g>
</svg>