<svg xmlns="http://www.w3.org/2000/svg" width="424" height="176" style="background:#ffffff;border:1px solid #e5e5e5;border-radius:8px;max-width:100%;height:auto"><rect x="0" y="0" width="100%" height="100%" fill="#ffffff"/>
    <style>
        line, path, circle, rect, polygon{stroke:black;stroke-width:2;stroke-opacity:1;fill-opacity:1;stroke-linecap:round;stroke-linejoin:miter;}text{font-family:Iosevka Fixed, monospace;font-size:14px;}rect.backdrop{stroke:none;fill:transparent;}.broken{stroke-dasharray:8;}.filled{fill:black;}.bg_filled{fill:transparent;}.nofill{fill:transparent;}.end_marked_arrow{marker-end:url(#arrow);}.start_marked_arrow{marker-start:url(#arrow);}.end_marked_diamond{marker-end:url(#diamond);}.start_marked_diamond{marker-start:url(#diamond);}.end_marked_circle{marker-end:url(#circle);}.start_marked_circle{marker-start:url(#circle);}.end_marked_open_circle{marker-end:url(#open_circle);}.start_marked_open_circle{marker-start:url(#open_circle);}.end_marked_big_open_circle{marker-end:url(#big_open_circle);}.start_marked_big_open_circle{marker-start:url(#big_open_circle);}
        <!--separator-->
        
    </style>
    <defs>
        <marker id="arrow" viewBox="-2 -2 8 8" refX="4" refY="2" markerWidth="7" markerHeight="7" orient="auto-start-reverse">
            <polygon points="0,0 0,4 4,2 0,0"></polygon>
        </marker>
        <marker id="diamond" viewBox="-2 -2 8 8" refX="4" refY="2" markerWidth="7" markerHeight="7" orient="auto-start-reverse">
            <polygon points="0,2 2,0 4,2 2,4 0,2"></polygon>
        </marker>
        <marker id="circle" viewBox="0 0 8 8" refX="4" refY="4" markerWidth="7" markerHeight="7" orient="auto-start-reverse">
            <circle cx="4" cy="4" r="2" class="filled"></circle>
        </marker>
        <marker id="open_circle" viewBox="0 0 8 8" refX="4" refY="4" markerWidth="7" markerHeight="7" orient="auto-start-reverse">
            <circle cx="4" cy="4" r="2" class="bg_filled"></circle>
        </marker>
        <marker id="big_open_circle" viewBox="0 0 8 8" refX="4" refY="4" markerWidth="7" markerHeight="7" orient="auto-start-reverse">
            <circle cx="4" cy="4" r="3" class="bg_filled"></circle>
        </marker>
    </defs>
    <rect class="backdrop" x="0" y="0" width="424" height="176"></rect>
    <rect x="4" y="24" width="152" height="128" class="solid nofill" rx="0"></rect>
    <rect x="28" y="56" width="104" height="80" class="solid nofill" rx="0"></rect>
    <text x="42" y="76" >EC2,</text>
    <text x="82" y="76" >EBS</text>
    <text x="42" y="92" >ECS,</text>
    <text x="82" y="92" >RDS</text>
    <text x="42" y="108" >S3</text>
    <text x="66" y="108" >on</text>
    <text x="42" y="124" >Outposts</text>
    <text x="26" y="44" >AWS</text>
    <text x="58" y="44" >Outpost</text>
    <text x="2" y="12" >Your</text>
    <text x="42" y="12" >Data</text>
    <text x="82" y="12" >Center</text>
    <text x="330" y="12" >AWS</text>
    <text x="362" y="12" >Region</text>
    <text x="186" y="60" >VPN</text>
    <line x1="224" y1="48" x2="216" y2="64" class="solid"></line>
    <text x="234" y="60" >DX</text>
    <line x1="284" y1="48" x2="284" y2="64" class="solid"></line>
    <line x1="404" y1="48" x2="404" y2="64" class="solid"></line>
    <line x1="292" y1="64" x2="292" y2="80" class="solid"></line>
    <line x1="412" y1="64" x2="412" y2="80" class="solid"></line>
    <path d="M 184,80 A 16,16 0,0,0 184,96" class="nofill"></path>
    <text x="186" y="92" >encrypted</text>
    <path d="M 256,80 A 16,16 0,0,1 256,96" class="nofill"></path>
    <line x1="284" y1="80" x2="284" y2="144" class="solid"></line>
    <line x1="404" y1="80" x2="404" y2="144" class="solid"></line>
    <text x="314" y="60" >Control</text>
    <text x="322" y="76" >Plane</text>
    <text x="314" y="108" >Full</text>
    <text x="354" y="108" >AWS</text>
    <text x="314" y="124" >Services</text>
    <g>
        <line x1="292" y1="24" x2="412" y2="24" class="solid"></line>
        <line x1="292" y1="24" x2="292" y2="48" class="solid"></line>
        <line x1="412" y1="24" x2="412" y2="48" class="solid"></line>
    </g>
    <g>
        <polygon points="168,68 160,72 168,76" class="filled"></polygon>
        <line x1="168" y1="72" x2="280" y2="72" class="solid"></line>
        <polygon points="280,68 288,72 280,76" class="filled"></polygon>
    </g>
    <g>
        <line x1="292" y1="144" x2="292" y2="152" class="solid"></line>
        <line x1="292" y1="152" x2="412" y2="152" class="solid"></line>
        <line x1="412" y1="144" x2="412" y2="152" class="solid"></line>
    </g>
</svg>