<svg xmlns="http://www.w3.org/2000/svg" width="392" height="432" style="background:#ffffff;border:1px solid #e5e5e5;border-radius:8px;max-width:100%;height:auto"><rect x="0" y="0" width="100%" height="100%" fill="#ffffff"/>
    <style>
        line, path, circle, rect, polygon{stroke:black;stroke-width:2;stroke-opacity:1;fill-opacity:1;stroke-linecap:round;stroke-linejoin:miter;}text{font-family:Iosevka Fixed, monospace;font-size:14px;}rect.backdrop{stroke:none;fill:transparent;}.broken{stroke-dasharray:8;}.filled{fill:black;}.bg_filled{fill:transparent;}.nofill{fill:transparent;}.end_marked_arrow{marker-end:url(#arrow);}.start_marked_arrow{marker-start:url(#arrow);}.end_marked_diamond{marker-end:url(#diamond);}.start_marked_diamond{marker-start:url(#diamond);}.end_marked_circle{marker-end:url(#circle);}.start_marked_circle{marker-start:url(#circle);}.end_marked_open_circle{marker-end:url(#open_circle);}.start_marked_open_circle{marker-start:url(#open_circle);}.end_marked_big_open_circle{marker-end:url(#big_open_circle);}.start_marked_big_open_circle{marker-start:url(#big_open_circle);}
        <!--separator-->
        
    </style>
    <defs>
        <marker id="arrow" viewBox="-2 -2 8 8" refX="4" refY="2" markerWidth="7" markerHeight="7" orient="auto-start-reverse">
            <polygon points="0,0 0,4 4,2 0,0"></polygon>
        </marker>
        <marker id="diamond" viewBox="-2 -2 8 8" refX="4" refY="2" markerWidth="7" markerHeight="7" orient="auto-start-reverse">
            <polygon points="0,2 2,0 4,2 2,4 0,2"></polygon>
        </marker>
        <marker id="circle" viewBox="0 0 8 8" refX="4" refY="4" markerWidth="7" markerHeight="7" orient="auto-start-reverse">
            <circle cx="4" cy="4" r="2" class="filled"></circle>
        </marker>
        <marker id="open_circle" viewBox="0 0 8 8" refX="4" refY="4" markerWidth="7" markerHeight="7" orient="auto-start-reverse">
            <circle cx="4" cy="4" r="2" class="bg_filled"></circle>
        </marker>
        <marker id="big_open_circle" viewBox="0 0 8 8" refX="4" refY="4" markerWidth="7" markerHeight="7" orient="auto-start-reverse">
            <circle cx="4" cy="4" r="3" class="bg_filled"></circle>
        </marker>
    </defs>
    <rect class="backdrop" x="0" y="0" width="392" height="432"></rect>
    <rect x="68" y="328" width="112" height="48" class="solid nofill" rx="0"></rect>
    <text x="82" y="348" >Data</text>
    <text x="122" y="348" >Center</text>
    <text x="90" y="364" >Cluster</text>
    <text x="82" y="12" >Region:</text>
    <text x="146" y="12" >us</text>
    <line x1="160" y1="8" x2="168" y2="8" class="solid"></line>
    <text x="170" y="12" >east</text>
    <line x1="200" y1="8" x2="208" y2="8" class="solid"></line>
    <text x="210" y="12" >1</text>
    <text x="42" y="60" >AZ</text>
    <line x1="56" y1="56" x2="64" y2="56" class="solid"></line>
    <text x="66" y="60" >a</text>
    <path d="M 88,48 A 16,16 0,0,0 88,64" class="nofill"></path>
    <text x="90" y="60" >use1</text>
    <line x1="120" y1="56" x2="128" y2="56" class="solid"></line>
    <text x="130" y="60" >az1</text>
    <path d="M 152,48 A 16,16 0,0,1 152,64" class="nofill"></path>
    <text x="218" y="60" >AZ</text>
    <line x1="232" y1="56" x2="240" y2="56" class="solid"></line>
    <text x="242" y="60" >b</text>
    <path d="M 264,48 A 16,16 0,0,0 264,64" class="nofill"></path>
    <text x="266" y="60" >use1</text>
    <line x1="296" y1="56" x2="304" y2="56" class="solid"></line>
    <text x="306" y="60" >az2</text>
    <path d="M 328,48 A 16,16 0,0,1 328,64" class="nofill"></path>
    <line x1="372" y1="48" x2="372" y2="208" class="solid"></line>
    <text x="58" y="92" >Data</text>
    <text x="98" y="92" >Center</text>
    <text x="234" y="92" >Data</text>
    <text x="274" y="92" >Center</text>
    <text x="66" y="108" >Cluster</text>
    <text x="242" y="108" >Cluster</text>
    <line x1="56" y1="136" x2="64" y2="136" class="solid"></line>
    <text x="74" y="140" >Own</text>
    <text x="106" y="140" >power</text>
    <line x1="232" y1="136" x2="240" y2="136" class="solid"></line>
    <text x="250" y="140" >Own</text>
    <text x="282" y="140" >power</text>
    <line x1="56" y1="152" x2="64" y2="152" class="solid"></line>
    <text x="74" y="156" >Own</text>
    <text x="106" y="156" >UPS</text>
    <line x1="232" y1="152" x2="240" y2="152" class="solid"></line>
    <text x="250" y="156" >Own</text>
    <text x="282" y="156" >UPS</text>
    <line x1="56" y1="168" x2="64" y2="168" class="solid"></line>
    <text x="74" y="172" >Own</text>
    <text x="106" y="172" >HVAC</text>
    <line x1="232" y1="168" x2="240" y2="168" class="solid"></line>
    <text x="250" y="172" >Own</text>
    <text x="282" y="172" >HVAC</text>
    <line x1="56" y1="184" x2="64" y2="184" class="solid"></line>
    <text x="74" y="188" >Own</text>
    <text x="106" y="188" >net</text>
    <line x1="232" y1="184" x2="240" y2="184" class="solid"></line>
    <text x="250" y="188" >Own</text>
    <text x="282" y="188" >net</text>
    <text x="138" y="220" >High</text>
    <line x1="168" y1="216" x2="176" y2="216" class="solid"></line>
    <text x="178" y="220" >bandwidth</text>
    <line x1="380" y1="208" x2="380" y2="288" class="solid"></line>
    <text x="138" y="236" >dark</text>
    <text x="178" y="236" >fiber</text>
    <text x="138" y="252" >&lt;</text>
    <text x="154" y="252" >2ms</text>
    <text x="186" y="252" >RTT</text>
    <line x1="372" y1="288" x2="372" y2="384" class="solid"></line>
    <text x="66" y="316" >AZ</text>
    <line x1="80" y1="312" x2="88" y2="312" class="solid"></line>
    <text x="90" y="316" >c</text>
    <path d="M 112,304 A 16,16 0,0,0 112,320" class="nofill"></path>
    <text x="114" y="316" >use1</text>
    <line x1="144" y1="312" x2="152" y2="312" class="solid"></line>
    <text x="154" y="316" >az3</text>
    <path d="M 176,304 A 16,16 0,0,1 176,320" class="nofill"></path>
    <g>
        <line x1="12" y1="24" x2="380" y2="24" class="solid"></line>
        <line x1="12" y1="24" x2="12" y2="408" class="solid"></line>
        <line x1="380" y1="24" x2="380" y2="48" class="solid"></line>
        <line x1="380" y1="384" x2="380" y2="408" class="solid"></line>
        <line x1="12" y1="408" x2="380" y2="408" class="solid"></line>
    </g>
    <g>
        <line x1="44" y1="72" x2="156" y2="72" class="solid"></line>
        <line x1="44" y1="72" x2="44" y2="200" class="solid"></line>
        <line x1="156" y1="72" x2="156" y2="200" class="solid"></line>
        <line x1="44" y1="200" x2="156" y2="200" class="solid"></line>
        <line x1="100" y1="200" x2="100" y2="296" class="solid"></line>
        <line x1="220" y1="72" x2="332" y2="72" class="solid"></line>
        <line x1="220" y1="72" x2="220" y2="200" class="solid"></line>
        <line x1="332" y1="72" x2="332" y2="200" class="solid"></line>
        <line x1="220" y1="200" x2="332" y2="200" class="solid"></line>
        <line x1="276" y1="200" x2="276" y2="264" class="solid"></line>
        <line x1="180" y1="264" x2="276" y2="264" class="solid"></line>
        <line x1="180" y1="264" x2="180" y2="296" class="solid"></line>
        <line x1="44" y1="296" x2="204" y2="296" class="solid"></line>
        <line x1="44" y1="296" x2="44" y2="392" class="solid"></line>
        <line x1="204" y1="296" x2="204" y2="384" class="solid"></line>
        <line x1="44" y1="392" x2="212" y2="392" class="solid"></line>
        <line x1="212" y1="384" x2="212" y2="392" class="solid"></line>
    </g>
    <g>
        <polygon points="112,228 104,232 112,236" class="filled"></polygon>
        <line x1="112" y1="232" x2="128" y2="232" class="solid"></line>
    </g>
    <g>
        <line x1="224" y1="232" x2="264" y2="232" class="solid"></line>
        <polygon points="264,228 272,232 264,236" class="filled"></polygon>
    </g>
</svg>