<svg xmlns="http://www.w3.org/2000/svg" width="536" height="144" style="background:#ffffff;border:1px solid #e5e5e5;border-radius:8px;max-width:100%;height:auto"><rect x="0" y="0" width="100%" height="100%" fill="#ffffff"/>
    <style>
        line, path, circle, rect, polygon{stroke:black;stroke-width:2;stroke-opacity:1;fill-opacity:1;stroke-linecap:round;stroke-linejoin:miter;}text{font-family:Iosevka Fixed, monospace;font-size:14px;}rect.backdrop{stroke:none;fill:transparent;}.broken{stroke-dasharray:8;}.filled{fill:black;}.bg_filled{fill:transparent;}.nofill{fill:transparent;}.end_marked_arrow{marker-end:url(#arrow);}.start_marked_arrow{marker-start:url(#arrow);}.end_marked_diamond{marker-end:url(#diamond);}.start_marked_diamond{marker-start:url(#diamond);}.end_marked_circle{marker-end:url(#circle);}.start_marked_circle{marker-start:url(#circle);}.end_marked_open_circle{marker-end:url(#open_circle);}.start_marked_open_circle{marker-start:url(#open_circle);}.end_marked_big_open_circle{marker-end:url(#big_open_circle);}.start_marked_big_open_circle{marker-start:url(#big_open_circle);}
        <!--separator-->
        
    </style>
    <defs>
        <marker id="arrow" viewBox="-2 -2 8 8" refX="4" refY="2" markerWidth="7" markerHeight="7" orient="auto-start-reverse">
            <polygon points="0,0 0,4 4,2 0,0"></polygon>
        </marker>
        <marker id="diamond" viewBox="-2 -2 8 8" refX="4" refY="2" markerWidth="7" markerHeight="7" orient="auto-start-reverse">
            <polygon points="0,2 2,0 4,2 2,4 0,2"></polygon>
        </marker>
        <marker id="circle" viewBox="0 0 8 8" refX="4" refY="4" markerWidth="7" markerHeight="7" orient="auto-start-reverse">
            <circle cx="4" cy="4" r="2" class="filled"></circle>
        </marker>
        <marker id="open_circle" viewBox="0 0 8 8" refX="4" refY="4" markerWidth="7" markerHeight="7" orient="auto-start-reverse">
            <circle cx="4" cy="4" r="2" class="bg_filled"></circle>
        </marker>
        <marker id="big_open_circle" viewBox="0 0 8 8" refX="4" refY="4" markerWidth="7" markerHeight="7" orient="auto-start-reverse">
            <circle cx="4" cy="4" r="3" class="bg_filled"></circle>
        </marker>
    </defs>
    <rect class="backdrop" x="0" y="0" width="536" height="144"></rect>
    <rect x="20" y="40" width="88" height="48" class="solid nofill" rx="0"></rect>
    <text x="34" y="60" >i</text>
    <line x1="40" y1="56" x2="48" y2="56" class="solid"></line>
    <text x="50" y="60" >1</text>
    <text x="74" y="60" >i</text>
    <line x1="80" y1="56" x2="88" y2="56" class="solid"></line>
    <text x="90" y="60" >2</text>
    <text x="34" y="76" >i</text>
    <line x1="40" y1="72" x2="48" y2="72" class="solid"></line>
    <text x="50" y="76" >3</text>
    <text x="74" y="76" >i</text>
    <line x1="80" y1="72" x2="88" y2="72" class="solid"></line>
    <text x="90" y="76" >4</text>
    <rect x="148" y="40" width="88" height="48" class="solid nofill" rx="0"></rect>
    <text x="162" y="60" >i</text>
    <line x1="168" y1="56" x2="176" y2="56" class="solid"></line>
    <text x="178" y="60" >5</text>
    <text x="202" y="60" >i</text>
    <line x1="208" y1="56" x2="216" y2="56" class="solid"></line>
    <text x="218" y="60" >6</text>
    <text x="162" y="76" >i</text>
    <line x1="168" y1="72" x2="176" y2="72" class="solid"></line>
    <text x="178" y="76" >7</text>
    <text x="202" y="76" >i</text>
    <line x1="208" y1="72" x2="216" y2="72" class="solid"></line>
    <text x="218" y="76" >8</text>
    <rect x="276" y="40" width="88" height="48" class="solid nofill" rx="0"></rect>
    <text x="290" y="60" >i</text>
    <line x1="296" y1="56" x2="304" y2="56" class="solid"></line>
    <text x="306" y="60" >9</text>
    <text x="330" y="60" >i</text>
    <line x1="336" y1="56" x2="344" y2="56" class="solid"></line>
    <text x="346" y="60" >10</text>
    <text x="290" y="76" >i</text>
    <line x1="296" y1="72" x2="304" y2="72" class="solid"></line>
    <text x="306" y="76" >11</text>
    <text x="330" y="76" >i</text>
    <line x1="336" y1="72" x2="344" y2="72" class="solid"></line>
    <text x="346" y="76" >12</text>
    <text x="18" y="12" >Partition</text>
    <path d="M 24,16 A 16,16 0,0,0 24,32" class="nofill"></path>
    <text x="26" y="28" >Rack</text>
    <text x="66" y="28" >A</text>
    <path d="M 72,16 A 16,16 0,0,1 72,32" class="nofill"></path>
    <text x="98" y="12" >1</text>
    <text x="154" y="12" >Partition</text>
    <path d="M 160,16 A 16,16 0,0,0 160,32" class="nofill"></path>
    <text x="162" y="28" >Rack</text>
    <text x="202" y="28" >B</text>
    <path d="M 208,16 A 16,16 0,0,1 208,32" class="nofill"></path>
    <text x="234" y="12" >2</text>
    <text x="290" y="12" >Partition</text>
    <path d="M 296,16 A 16,16 0,0,0 296,32" class="nofill"></path>
    <text x="298" y="28" >Rack</text>
    <text x="338" y="28" >C</text>
    <path d="M 344,16 A 16,16 0,0,1 344,32" class="nofill"></path>
    <text x="370" y="12" >3</text>
    <text x="18" y="124" >Use:</text>
    <text x="58" y="124" >HDFS,</text>
    <text x="106" y="124" >Cassandra,</text>
    <text x="194" y="124" >Kafka</text>
    <path d="M 248,112 A 16,16 0,0,0 248,128" class="nofill"></path>
    <text x="250" y="124" >topology</text>
    <line x1="312" y1="120" x2="320" y2="120" class="solid"></line>
    <text x="322" y="124" >aware</text>
    <text x="370" y="124" >distributed</text>
    <text x="466" y="124" >systems</text>
    <path d="M 520,112 A 16,16 0,0,1 520,128" class="nofill"></path>
</svg>