<svg xmlns="http://www.w3.org/2000/svg" width="448" height="272" style="background:#ffffff;border:1px solid #e5e5e5;border-radius:8px;max-width:100%;height:auto"><rect x="0" y="0" width="100%" height="100%" fill="#ffffff"/>
    <style>
        line, path, circle, rect, polygon{stroke:black;stroke-width:2;stroke-opacity:1;fill-opacity:1;stroke-linecap:round;stroke-linejoin:miter;}text{font-family:Iosevka Fixed, monospace;font-size:14px;}rect.backdrop{stroke:none;fill:transparent;}.broken{stroke-dasharray:8;}.filled{fill:black;}.bg_filled{fill:transparent;}.nofill{fill:transparent;}.end_marked_arrow{marker-end:url(#arrow);}.start_marked_arrow{marker-start:url(#arrow);}.end_marked_diamond{marker-end:url(#diamond);}.start_marked_diamond{marker-start:url(#diamond);}.end_marked_circle{marker-end:url(#circle);}.start_marked_circle{marker-start:url(#circle);}.end_marked_open_circle{marker-end:url(#open_circle);}.start_marked_open_circle{marker-start:url(#open_circle);}.end_marked_big_open_circle{marker-end:url(#big_open_circle);}.start_marked_big_open_circle{marker-start:url(#big_open_circle);}
        <!--separator-->
        
    </style>
    <defs>
        <marker id="arrow" viewBox="-2 -2 8 8" refX="4" refY="2" markerWidth="7" markerHeight="7" orient="auto-start-reverse">
            <polygon points="0,0 0,4 4,2 0,0"></polygon>
        </marker>
        <marker id="diamond" viewBox="-2 -2 8 8" refX="4" refY="2" markerWidth="7" markerHeight="7" orient="auto-start-reverse">
            <polygon points="0,2 2,0 4,2 2,4 0,2"></polygon>
        </marker>
        <marker id="circle" viewBox="0 0 8 8" refX="4" refY="4" markerWidth="7" markerHeight="7" orient="auto-start-reverse">
            <circle cx="4" cy="4" r="2" class="filled"></circle>
        </marker>
        <marker id="open_circle" viewBox="0 0 8 8" refX="4" refY="4" markerWidth="7" markerHeight="7" orient="auto-start-reverse">
            <circle cx="4" cy="4" r="2" class="bg_filled"></circle>
        </marker>
        <marker id="big_open_circle" viewBox="0 0 8 8" refX="4" refY="4" markerWidth="7" markerHeight="7" orient="auto-start-reverse">
            <circle cx="4" cy="4" r="3" class="bg_filled"></circle>
        </marker>
    </defs>
    <rect class="backdrop" x="0" y="0" width="448" height="272"></rect>
    <text x="2" y="12" >Base</text>
    <text x="42" y="12" >AMI</text>
    <text x="2" y="60" >Launch</text>
    <text x="2" y="108" >Install</text>
    <text x="2" y="156" >Create</text>
    <text x="34" y="204" >custom</text>
    <text x="2" y="252" >Copy</text>
    <text x="42" y="252" >AMI</text>
    <path d="M 80,0 A 16,16 0,0,0 80,16" class="nofill"></path>
    <text x="82" y="12" >Amazon</text>
    <text x="138" y="12" >Linux,</text>
    <text x="194" y="12" >Ubuntu,</text>
    <text x="258" y="12" >etc.</text>
    <path d="M 288,0 A 16,16 0,0,1 288,16" class="nofill"></path>
    <text x="58" y="60" >instance</text>
    <text x="130" y="60" >from</text>
    <text x="170" y="60" >base</text>
    <text x="210" y="60" >AMI</text>
    <text x="66" y="108" >software,</text>
    <text x="146" y="108" >configure,</text>
    <text x="234" y="108" >harden</text>
    <text x="58" y="156" >custom</text>
    <text x="114" y="156" >AMI</text>
    <path d="M 152,144 A 16,16 0,0,0 152,160" class="nofill"></path>
    <text x="154" y="156" >snapshot</text>
    <text x="226" y="156" >taken</text>
    <text x="274" y="156" >automatically</text>
    <path d="M 376,144 A 16,16 0,0,1 376,160" class="nofill"></path>
    <text x="2" y="204" >Use</text>
    <text x="90" y="204" >AMI</text>
    <text x="122" y="204" >in</text>
    <text x="146" y="204" >Launch</text>
    <text x="202" y="204" >Templates</text>
    <line x1="288" y1="192" x2="280" y2="208" class="solid"></line>
    <text x="298" y="204" >ASGs</text>
    <text x="74" y="252" >to</text>
    <text x="98" y="252" >other</text>
    <text x="146" y="252" >regions</text>
    <path d="M 216,240 A 16,16 0,0,0 216,256" class="nofill"></path>
    <text x="218" y="252" >for</text>
    <text x="250" y="252" >multi</text>
    <line x1="288" y1="248" x2="296" y2="248" class="solid"></line>
    <text x="298" y="252" >region</text>
    <text x="354" y="252" >deployment</text>
    <path d="M 432,240 A 16,16 0,0,1 432,256" class="nofill"></path>
    <g>
        <line x1="36" y1="16" x2="36" y2="36" class="solid"></line>
        <polygon points="32,36 40,36 36,48" class="filled"></polygon>
    </g>
    <g>
        <line x1="36" y1="64" x2="36" y2="84" class="solid"></line>
        <polygon points="32,84 40,84 36,96" class="filled"></polygon>
    </g>
    <g>
        <line x1="36" y1="112" x2="36" y2="132" class="solid"></line>
        <polygon points="32,132 40,132 36,144" class="filled"></polygon>
    </g>
    <g>
        <line x1="36" y1="160" x2="36" y2="180" class="solid"></line>
        <polygon points="32,180 40,180 36,192" class="filled"></polygon>
    </g>
    <g>
        <line x1="36" y1="208" x2="36" y2="228" class="solid"></line>
        <polygon points="32,228 40,228 36,240" class="filled"></polygon>
    </g>
</svg>