<svg xmlns="http://www.w3.org/2000/svg" width="576" height="416" style="background:#ffffff;border:1px solid #e5e5e5;border-radius:8px;max-width:100%;height:auto"><rect x="0" y="0" width="100%" height="100%" fill="#ffffff"/>
    <style>
        line, path, circle, rect, polygon{stroke:black;stroke-width:2;stroke-opacity:1;fill-opacity:1;stroke-linecap:round;stroke-linejoin:miter;}text{font-family:Iosevka Fixed, monospace;font-size:14px;}rect.backdrop{stroke:none;fill:transparent;}.broken{stroke-dasharray:8;}.filled{fill:black;}.bg_filled{fill:transparent;}.nofill{fill:transparent;}.end_marked_arrow{marker-end:url(#arrow);}.start_marked_arrow{marker-start:url(#arrow);}.end_marked_diamond{marker-end:url(#diamond);}.start_marked_diamond{marker-start:url(#diamond);}.end_marked_circle{marker-end:url(#circle);}.start_marked_circle{marker-start:url(#circle);}.end_marked_open_circle{marker-end:url(#open_circle);}.start_marked_open_circle{marker-start:url(#open_circle);}.end_marked_big_open_circle{marker-end:url(#big_open_circle);}.start_marked_big_open_circle{marker-start:url(#big_open_circle);}
        <!--separator-->
        
    </style>
    <defs>
        <marker id="arrow" viewBox="-2 -2 8 8" refX="4" refY="2" markerWidth="7" markerHeight="7" orient="auto-start-reverse">
            <polygon points="0,0 0,4 4,2 0,0"></polygon>
        </marker>
        <marker id="diamond" viewBox="-2 -2 8 8" refX="4" refY="2" markerWidth="7" markerHeight="7" orient="auto-start-reverse">
            <polygon points="0,2 2,0 4,2 2,4 0,2"></polygon>
        </marker>
        <marker id="circle" viewBox="0 0 8 8" refX="4" refY="4" markerWidth="7" markerHeight="7" orient="auto-start-reverse">
            <circle cx="4" cy="4" r="2" class="filled"></circle>
        </marker>
        <marker id="open_circle" viewBox="0 0 8 8" refX="4" refY="4" markerWidth="7" markerHeight="7" orient="auto-start-reverse">
            <circle cx="4" cy="4" r="2" class="bg_filled"></circle>
        </marker>
        <marker id="big_open_circle" viewBox="0 0 8 8" refX="4" refY="4" markerWidth="7" markerHeight="7" orient="auto-start-reverse">
            <circle cx="4" cy="4" r="3" class="bg_filled"></circle>
        </marker>
    </defs>
    <rect class="backdrop" x="0" y="0" width="576" height="416"></rect>
    <text x="2" y="12" >START:</text>
    <text x="58" y="12" >What</text>
    <text x="98" y="12" >kind</text>
    <text x="138" y="12" >of</text>
    <text x="162" y="12" >workload?</text>
    <text x="34" y="44" >Web</text>
    <text x="66" y="44" >server</text>
    <line x1="128" y1="32" x2="120" y2="48" class="solid"></line>
    <text x="138" y="44" >App</text>
    <text x="170" y="44" >server</text>
    <path d="M 232,32 A 16,16 0,0,0 232,48" class="nofill"></path>
    <text x="234" y="44" >balanced</text>
    <text x="306" y="44" >CPU</text>
    <text x="338" y="44" >+</text>
    <text x="354" y="44" >memory</text>
    <text x="66" y="60" >Steady</text>
    <text x="122" y="60" >traffic</text>
    <text x="218" y="60" >M</text>
    <line x1="224" y1="56" x2="232" y2="56" class="solid"></line>
    <text x="234" y="60" >family</text>
    <path d="M 296,48 A 16,16 0,0,0 296,64" class="nofill"></path>
    <text x="298" y="60" >m7i,</text>
    <text x="338" y="60" >m7g,</text>
    <text x="378" y="60" >m7a</text>
    <text x="66" y="76" >Variable</text>
    <line x1="136" y1="64" x2="128" y2="80" class="solid"></line>
    <text x="138" y="76" >spikey</text>
    <text x="194" y="76" >traffic</text>
    <text x="290" y="76" >T</text>
    <line x1="296" y1="72" x2="304" y2="72" class="solid"></line>
    <text x="306" y="76" >family</text>
    <path d="M 368,64 A 16,16 0,0,0 368,80" class="nofill"></path>
    <text x="370" y="76" >t3,</text>
    <text x="402" y="76" >t4g</text>
    <path d="M 424,64 A 16,16 0,0,1 424,80" class="nofill"></path>
    <text x="442" y="76" >if</text>
    <text x="466" y="76" >CPU</text>
    <text x="498" y="76" >&lt;</text>
    <text x="514" y="76" >30%</text>
    <text x="546" y="76" >avg</text>
    <text x="34" y="108" >CPU</text>
    <line x1="56" y1="104" x2="64" y2="104" class="solid"></line>
    <text x="66" y="108" >intensive</text>
    <path d="M 152,96 A 16,16 0,0,0 152,112" class="nofill"></path>
    <text x="154" y="108" >video</text>
    <text x="202" y="108" >encoding,</text>
    <text x="66" y="124" >C</text>
    <line x1="72" y1="120" x2="80" y2="120" class="solid"></line>
    <text x="82" y="124" >family</text>
    <path d="M 144,112 A 16,16 0,0,0 144,128" class="nofill"></path>
    <text x="146" y="124" >c7i,</text>
    <text x="186" y="124" >c7g,</text>
    <text x="226" y="124" >c7a</text>
    <path d="M 248,112 A 16,16 0,0,1 248,128" class="nofill"></path>
    <text x="282" y="108" >batch</text>
    <text x="330" y="108" >compute,</text>
    <text x="402" y="108" >scientific</text>
    <path d="M 480,96 A 16,16 0,0,1 480,112" class="nofill"></path>
    <text x="34" y="156" >Memory</text>
    <line x1="80" y1="152" x2="88" y2="152" class="solid"></line>
    <text x="90" y="156" >intensive</text>
    <path d="M 176,144 A 16,16 0,0,0 176,160" class="nofill"></path>
    <text x="178" y="156" >in</text>
    <line x1="192" y1="152" x2="200" y2="152" class="solid"></line>
    <text x="202" y="156" >memory</text>
    <text x="258" y="156" >DB,</text>
    <text x="290" y="156" >real</text>
    <line x1="320" y1="152" x2="328" y2="152" class="solid"></line>
    <text x="330" y="156" >time</text>
    <text x="66" y="172" >Up</text>
    <text x="90" y="172" >to</text>
    <text x="114" y="172" >512</text>
    <text x="146" y="172" >GB</text>
    <text x="202" y="172" >R</text>
    <line x1="208" y1="168" x2="216" y2="168" class="solid"></line>
    <text x="218" y="172" >family</text>
    <path d="M 280,160 A 16,16 0,0,0 280,176" class="nofill"></path>
    <text x="282" y="172" >r7i,</text>
    <text x="322" y="172" >r7g</text>
    <path d="M 344,160 A 16,16 0,0,1 344,176" class="nofill"></path>
    <text x="66" y="188" >&gt;</text>
    <text x="82" y="188" >512</text>
    <text x="114" y="188" >GB</text>
    <path d="M 144,176 A 16,16 0,0,0 144,192" class="nofill"></path>
    <text x="146" y="188" >SAP</text>
    <text x="178" y="188" >HANA</text>
    <path d="M 208,176 A 16,16 0,0,1 208,192" class="nofill"></path>
    <line x1="260" y1="184" x2="272" y2="184" class="solid"></line>
    <text x="274" y="188" >family</text>
    <path d="M 336,176 A 16,16 0,0,0 336,192" class="nofill"></path>
    <text x="338" y="188" >x2idn</text>
    <path d="M 376,176 A 16,16 0,0,1 376,192" class="nofill"></path>
    <text x="370" y="156" >analytics</text>
    <path d="M 440,144 A 16,16 0,0,1 440,160" class="nofill"></path>
    <text x="394" y="188" >or</text>
    <text x="418" y="188" >High</text>
    <text x="458" y="188" >Memory</text>
    <path d="M 520,176 A 16,16 0,0,0 520,192" class="nofill"></path>
    <text x="522" y="188" >u</text>
    <line x1="528" y1="184" x2="536" y2="184" class="solid"></line>
    <path d="M 536,176 A 16,16 0,0,1 536,192" class="nofill"></path>
    <text x="34" y="220" >Storage</text>
    <line x1="88" y1="216" x2="96" y2="216" class="solid"></line>
    <text x="98" y="220" >intensive</text>
    <path d="M 184,208 A 16,16 0,0,0 184,224" class="nofill"></path>
    <text x="186" y="220" >NoSQL,</text>
    <text x="242" y="220" >data</text>
    <text x="282" y="220" >warehouse</text>
    <path d="M 352,208 A 16,16 0,0,1 352,224" class="nofill"></path>
    <text x="66" y="236" >High</text>
    <text x="106" y="236" >random</text>
    <text x="162" y="236" >IOPS</text>
    <text x="234" y="236" >I</text>
    <line x1="240" y1="232" x2="248" y2="232" class="solid"></line>
    <text x="250" y="236" >family</text>
    <path d="M 312,224 A 16,16 0,0,0 312,240" class="nofill"></path>
    <text x="314" y="236" >i4i</text>
    <path d="M 336,224 A 16,16 0,0,1 336,240" class="nofill"></path>
    <text x="354" y="236" >with</text>
    <text x="394" y="236" >NVMe</text>
    <text x="434" y="236" >instance</text>
    <text x="506" y="236" >store</text>
    <text x="66" y="252" >High</text>
    <text x="106" y="252" >sequential</text>
    <text x="194" y="252" >throughput</text>
    <text x="314" y="252" >D</text>
    <line x1="320" y1="248" x2="328" y2="248" class="solid"></line>
    <text x="330" y="252" >family</text>
    <path d="M 392,240 A 16,16 0,0,0 392,256" class="nofill"></path>
    <text x="394" y="252" >d3en</text>
    <path d="M 424,240 A 16,16 0,0,1 424,256" class="nofill"></path>
    <text x="442" y="252" >with</text>
    <text x="482" y="252" >HDD</text>
    <text x="34" y="284" >Machine</text>
    <text x="98" y="284" >Learning</text>
    <text x="66" y="300" >Training</text>
    <text x="170" y="300" >P</text>
    <line x1="176" y1="296" x2="184" y2="296" class="solid"></line>
    <text x="186" y="300" >family</text>
    <path d="M 248,288 A 16,16 0,0,0 248,304" class="nofill"></path>
    <text x="250" y="300" >p5,</text>
    <text x="282" y="300" >p4d</text>
    <text x="66" y="316" >Inference</text>
    <text x="178" y="316" >G</text>
    <line x1="184" y1="312" x2="192" y2="312" class="solid"></line>
    <text x="194" y="316" >family</text>
    <path d="M 256,304 A 16,16 0,0,0 256,320" class="nofill"></path>
    <text x="258" y="316" >g6,</text>
    <text x="290" y="316" >g5</text>
    <text x="322" y="300" >or</text>
    <text x="322" y="316" >or</text>
    <text x="346" y="300" >Trn1</text>
    <text x="346" y="316" >Inf2</text>
    <text x="34" y="348" >Cost</text>
    <line x1="64" y1="344" x2="72" y2="344" class="solid"></line>
    <circle cx="76" cy="344" r="3" class="nofill"></circle>
    <text x="82" y="348" >ptimized?</text>
    <text x="66" y="364" >Use</text>
    <text x="98" y="364" >Graviton</text>
    <path d="M 176,352 A 16,16 0,0,0 176,368" class="nofill"></path>
    <text x="178" y="364" >g</text>
    <text x="194" y="364" >suffix</text>
    <path d="M 240,352 A 16,16 0,0,1 240,368" class="nofill"></path>
    <text x="258" y="364" >for</text>
    <text x="290" y="364" >40%</text>
    <text x="322" y="364" >better</text>
    <text x="66" y="380" >Use</text>
    <text x="98" y="380" >AMD</text>
    <path d="M 136,368 A 16,16 0,0,0 136,384" class="nofill"></path>
    <text x="138" y="380" >a</text>
    <text x="154" y="380" >suffix</text>
    <path d="M 200,368 A 16,16 0,0,1 200,384" class="nofill"></path>
    <text x="218" y="380" >for</text>
    <text x="250" y="380" >10%</text>
    <text x="282" y="380" >lower</text>
    <text x="330" y="380" >price</text>
    <text x="66" y="396" >Use</text>
    <text x="98" y="396" >Spot</text>
    <text x="138" y="396" >Instances</text>
    <text x="218" y="396" >for</text>
    <text x="250" y="396" >up</text>
    <text x="274" y="396" >to</text>
    <text x="298" y="396" >90%</text>
    <text x="330" y="396" >savings</text>
    <text x="378" y="364" >price</text>
    <line x1="424" y1="352" x2="416" y2="368" class="solid"></line>
    <text x="426" y="364" >performance</text>
    <text x="394" y="396" >on</text>
    <text x="418" y="396" >fault</text>
    <line x1="456" y1="392" x2="464" y2="392" class="solid"></line>
    <text x="466" y="396" >tolerant</text>
    <text x="538" y="396" >work</text>
    <g>
        <line x1="4" y1="16" x2="4" y2="344" class="solid"></line>
        <line x1="4" y1="40" x2="24" y2="40" class="solid"></line>
        <line x1="4" y1="104" x2="24" y2="104" class="solid"></line>
        <line x1="4" y1="152" x2="24" y2="152" class="solid"></line>
        <line x1="4" y1="216" x2="24" y2="216" class="solid"></line>
        <line x1="4" y1="280" x2="24" y2="280" class="solid"></line>
        <line x1="4" y1="344" x2="24" y2="344" class="solid"></line>
    </g>
    <g>
        <line x1="36" y1="48" x2="36" y2="72" class="solid"></line>
        <line x1="36" y1="56" x2="56" y2="56" class="solid"></line>
        <line x1="36" y1="72" x2="56" y2="72" class="solid"></line>
    </g>
    <g>
        <path d="M 400,32 A 16,16 0,0,1 400,48" class="nofill"></path>
        <path d="M 400,48 A 16,16 0,0,1 400,64" class="nofill"></path>
    </g>
    <g>
        <line x1="184" y1="56" x2="200" y2="56" class="solid"></line>
        <polygon points="200,52 208,56 200,60" class="filled"></polygon>
    </g>
    <g>
        <line x1="256" y1="72" x2="272" y2="72" class="solid"></line>
        <polygon points="272,68 280,72 272,76" class="filled"></polygon>
    </g>
    <g>
        <line x1="36" y1="112" x2="36" y2="120" class="solid"></line>
        <line x1="36" y1="120" x2="56" y2="120" class="solid"></line>
    </g>
    <g>
        <line x1="36" y1="160" x2="36" y2="184" class="solid"></line>
        <line x1="36" y1="168" x2="56" y2="168" class="solid"></line>
        <line x1="36" y1="184" x2="56" y2="184" class="solid"></line>
    </g>
    <g>
        <line x1="168" y1="168" x2="184" y2="168" class="solid"></line>
        <polygon points="184,164 192,168 184,172" class="filled"></polygon>
    </g>
    <g>
        <line x1="224" y1="184" x2="240" y2="184" class="solid"></line>
        <polygon points="240,180 248,184 240,188" class="filled"></polygon>
    </g>
    <g>
        <line x1="36" y1="224" x2="36" y2="248" class="solid"></line>
        <line x1="36" y1="232" x2="56" y2="232" class="solid"></line>
        <line x1="36" y1="248" x2="56" y2="248" class="solid"></line>
    </g>
    <g>
        <line x1="200" y1="232" x2="216" y2="232" class="solid"></line>
        <polygon points="216,228 224,232 216,236" class="filled"></polygon>
    </g>
    <g>
        <line x1="280" y1="248" x2="296" y2="248" class="solid"></line>
        <polygon points="296,244 304,248 296,252" class="filled"></polygon>
    </g>
    <g>
        <line x1="36" y1="288" x2="36" y2="312" class="solid"></line>
        <line x1="36" y1="296" x2="56" y2="296" class="solid"></line>
        <line x1="36" y1="312" x2="56" y2="312" class="solid"></line>
    </g>
    <g>
        <line x1="136" y1="296" x2="152" y2="296" class="solid"></line>
        <polygon points="152,292 160,296 152,300" class="filled"></polygon>
    </g>
    <g>
        <path d="M 304,288 A 16,16 0,0,1 304,304" class="nofill"></path>
        <path d="M 304,304 A 16,16 0,0,1 304,320" class="nofill"></path>
    </g>
    <g>
        <line x1="144" y1="312" x2="160" y2="312" class="solid"></line>
        <polygon points="160,308 168,312 160,316" class="filled"></polygon>
    </g>
    <g>
        <line x1="36" y1="352" x2="36" y2="392" class="solid"></line>
        <line x1="36" y1="360" x2="56" y2="360" class="solid"></line>
        <line x1="36" y1="376" x2="56" y2="376" class="solid"></line>
        <line x1="36" y1="392" x2="56" y2="392" class="solid"></line>
    </g>
</svg>