<svg xmlns="http://www.w3.org/2000/svg" width="536" height="128" style="background:#ffffff;border:1px solid #e5e5e5;border-radius:8px;max-width:100%;height:auto"><rect x="0" y="0" width="100%" height="100%" fill="#ffffff"/>
    <style>
        line, path, circle, rect, polygon{stroke:black;stroke-width:2;stroke-opacity:1;fill-opacity:1;stroke-linecap:round;stroke-linejoin:miter;}text{font-family:Iosevka Fixed, monospace;font-size:14px;}rect.backdrop{stroke:none;fill:transparent;}.broken{stroke-dasharray:8;}.filled{fill:black;}.bg_filled{fill:transparent;}.nofill{fill:transparent;}.end_marked_arrow{marker-end:url(#arrow);}.start_marked_arrow{marker-start:url(#arrow);}.end_marked_diamond{marker-end:url(#diamond);}.start_marked_diamond{marker-start:url(#diamond);}.end_marked_circle{marker-end:url(#circle);}.start_marked_circle{marker-start:url(#circle);}.end_marked_open_circle{marker-end:url(#open_circle);}.start_marked_open_circle{marker-start:url(#open_circle);}.end_marked_big_open_circle{marker-end:url(#big_open_circle);}.start_marked_big_open_circle{marker-start:url(#big_open_circle);}
        <!--separator-->
        
    </style>
    <defs>
        <marker id="arrow" viewBox="-2 -2 8 8" refX="4" refY="2" markerWidth="7" markerHeight="7" orient="auto-start-reverse">
            <polygon points="0,0 0,4 4,2 0,0"></polygon>
        </marker>
        <marker id="diamond" viewBox="-2 -2 8 8" refX="4" refY="2" markerWidth="7" markerHeight="7" orient="auto-start-reverse">
            <polygon points="0,2 2,0 4,2 2,4 0,2"></polygon>
        </marker>
        <marker id="circle" viewBox="0 0 8 8" refX="4" refY="4" markerWidth="7" markerHeight="7" orient="auto-start-reverse">
            <circle cx="4" cy="4" r="2" class="filled"></circle>
        </marker>
        <marker id="open_circle" viewBox="0 0 8 8" refX="4" refY="4" markerWidth="7" markerHeight="7" orient="auto-start-reverse">
            <circle cx="4" cy="4" r="2" class="bg_filled"></circle>
        </marker>
        <marker id="big_open_circle" viewBox="0 0 8 8" refX="4" refY="4" markerWidth="7" markerHeight="7" orient="auto-start-reverse">
            <circle cx="4" cy="4" r="3" class="bg_filled"></circle>
        </marker>
    </defs>
    <rect class="backdrop" x="0" y="0" width="536" height="128"></rect>
    <rect x="4" y="24" width="80" height="64" class="solid nofill" rx="0"></rect>
    <text x="26" y="44" >EC2</text>
    <text x="18" y="60" >Instance</text>
    <rect x="276" y="24" width="80" height="64" class="solid nofill" rx="0"></rect>
    <text x="298" y="44" >EC2</text>
    <text x="290" y="60" >Instance</text>
    <rect x="436" y="24" width="88" height="80" class="solid nofill" rx="0"></rect>
    <text x="458" y="44" >EBS</text>
    <text x="458" y="60" >Volume</text>
    <path d="M 464,64 A 16,16 0,0,0 464,80" class="nofill"></path>
    <text x="466" y="76" >persist</text>
    <text x="458" y="92" >on</text>
    <text x="482" y="92" >stop</text>
    <path d="M 512,80 A 16,16 0,0,1 512,96" class="nofill"></path>
    <text x="2" y="12" >Instance</text>
    <text x="74" y="12" >Store:</text>
    <text x="282" y="12" >EBS:</text>
    <text x="370" y="60" >network</text>
    <text x="106" y="60" >←</text>
    <text x="106" y="76" >←</text>
    <text x="122" y="60" >NVMe</text>
    <text x="122" y="76" >Lost</text>
    <text x="162" y="60" >local</text>
    <text x="210" y="60" >disk</text>
    <text x="162" y="76" >on</text>
    <text x="186" y="76" >stop</text>
    <line x1="224" y1="64" x2="216" y2="80" class="solid"></line>
    <text x="226" y="76" >term</text>
    <g>
        <polygon points="368,36 360,40 368,44" class="filled"></polygon>
        <line x1="368" y1="40" x2="424" y2="40" class="solid"></line>
        <polygon points="424,36 432,40 424,44" class="filled"></polygon>
    </g>
</svg>