<svg xmlns="http://www.w3.org/2000/svg" width="616" height="160" style="background:#ffffff;border:1px solid #e5e5e5;border-radius:8px;max-width:100%;height:auto"><rect x="0" y="0" width="100%" height="100%" fill="#ffffff"/>
    <style>
        line, path, circle, rect, polygon{stroke:black;stroke-width:2;stroke-opacity:1;fill-opacity:1;stroke-linecap:round;stroke-linejoin:miter;}text{font-family:Iosevka Fixed, monospace;font-size:14px;}rect.backdrop{stroke:none;fill:transparent;}.broken{stroke-dasharray:8;}.filled{fill:black;}.bg_filled{fill:transparent;}.nofill{fill:transparent;}.end_marked_arrow{marker-end:url(#arrow);}.start_marked_arrow{marker-start:url(#arrow);}.end_marked_diamond{marker-end:url(#diamond);}.start_marked_diamond{marker-start:url(#diamond);}.end_marked_circle{marker-end:url(#circle);}.start_marked_circle{marker-start:url(#circle);}.end_marked_open_circle{marker-end:url(#open_circle);}.start_marked_open_circle{marker-start:url(#open_circle);}.end_marked_big_open_circle{marker-end:url(#big_open_circle);}.start_marked_big_open_circle{marker-start:url(#big_open_circle);}
        <!--separator-->
        
    </style>
    <defs>
        <marker id="arrow" viewBox="-2 -2 8 8" refX="4" refY="2" markerWidth="7" markerHeight="7" orient="auto-start-reverse">
            <polygon points="0,0 0,4 4,2 0,0"></polygon>
        </marker>
        <marker id="diamond" viewBox="-2 -2 8 8" refX="4" refY="2" markerWidth="7" markerHeight="7" orient="auto-start-reverse">
            <polygon points="0,2 2,0 4,2 2,4 0,2"></polygon>
        </marker>
        <marker id="circle" viewBox="0 0 8 8" refX="4" refY="4" markerWidth="7" markerHeight="7" orient="auto-start-reverse">
            <circle cx="4" cy="4" r="2" class="filled"></circle>
        </marker>
        <marker id="open_circle" viewBox="0 0 8 8" refX="4" refY="4" markerWidth="7" markerHeight="7" orient="auto-start-reverse">
            <circle cx="4" cy="4" r="2" class="bg_filled"></circle>
        </marker>
        <marker id="big_open_circle" viewBox="0 0 8 8" refX="4" refY="4" markerWidth="7" markerHeight="7" orient="auto-start-reverse">
            <circle cx="4" cy="4" r="3" class="bg_filled"></circle>
        </marker>
    </defs>
    <rect class="backdrop" x="0" y="0" width="616" height="160"></rect>
    <rect x="4" y="24" width="120" height="80" class="solid nofill" rx="0"></rect>
    <text x="18" y="44" >Block</text>
    <text x="66" y="44" >A</text>
    <line x1="80" y1="40" x2="120" y2="40" class="solid"></line>
    <text x="18" y="60" >Block</text>
    <text x="66" y="60" >B</text>
    <line x1="80" y1="56" x2="120" y2="56" class="solid"></line>
    <text x="18" y="76" >Block</text>
    <text x="66" y="76" >C</text>
    <line x1="80" y1="72" x2="120" y2="72" class="solid"></line>
    <text x="18" y="92" >Block</text>
    <text x="66" y="92" >D</text>
    <line x1="80" y1="88" x2="120" y2="88" class="solid"></line>
    <rect x="244" y="24" width="120" height="80" class="solid nofill" rx="0"></rect>
    <path d="M 264,32 A 16,16 0,0,0 264,48" class="nofill"></path>
    <text x="266" y="44" >unchanged</text>
    <path d="M 336,32 A 16,16 0,0,1 336,48" class="nofill"></path>
    <text x="258" y="60" >Block</text>
    <text x="306" y="60" >B&#39;</text>
    <line x1="328" y1="56" x2="360" y2="56" class="solid"></line>
    <path d="M 264,64 A 16,16 0,0,0 264,80" class="nofill"></path>
    <text x="266" y="76" >unchanged</text>
    <path d="M 336,64 A 16,16 0,0,1 336,80" class="nofill"></path>
    <text x="258" y="92" >Block</text>
    <text x="306" y="92" >D&#39;</text>
    <line x1="328" y1="88" x2="360" y2="88" class="solid"></line>
    <rect x="460" y="24" width="120" height="80" class="solid nofill" rx="0"></rect>
    <text x="474" y="44" >Block</text>
    <text x="522" y="44" >A&#39;</text>
    <line x1="544" y1="40" x2="576" y2="40" class="solid"></line>
    <text x="482" y="60" >unchanged</text>
    <text x="482" y="76" >unchanged</text>
    <text x="482" y="92" >unchanged</text>
    <text x="2" y="12" >Time</text>
    <text x="42" y="12" >0:</text>
    <text x="66" y="12" >Full</text>
    <text x="106" y="12" >snapshot</text>
    <text x="242" y="12" >Time</text>
    <text x="282" y="12" >1:</text>
    <text x="306" y="12" >Incremental</text>
    <text x="458" y="12" >Time</text>
    <text x="498" y="12" >2:</text>
    <text x="522" y="12" >Incremental</text>
    <text x="2" y="140" >Each</text>
    <text x="42" y="140" >snapshot</text>
    <text x="114" y="140" >is</text>
    <text x="138" y="140" >independently</text>
    <text x="250" y="140" >restorable</text>
    <path d="M 344,128 A 16,16 0,0,0 344,144" class="nofill"></path>
    <text x="346" y="140" >AWS</text>
    <text x="378" y="140" >manages</text>
    <text x="442" y="140" >block</text>
    <text x="490" y="140" >references</text>
    <path d="M 568,128 A 16,16 0,0,1 568,144" class="nofill"></path>
    <g>
        <line x1="128" y1="40" x2="208" y2="40" class="solid"></line>
        <polygon points="208,36 216,40 208,44" class="filled"></polygon>
    </g>
    <g>
        <line x1="128" y1="56" x2="208" y2="56" class="solid"></line>
        <polygon points="208,52 216,56 208,60" class="filled"></polygon>
    </g>
    <g>
        <line x1="128" y1="72" x2="208" y2="72" class="solid"></line>
        <polygon points="208,68 216,72 208,76" class="filled"></polygon>
    </g>
    <g>
        <line x1="128" y1="88" x2="208" y2="88" class="solid"></line>
        <polygon points="208,84 216,88 208,92" class="filled"></polygon>
    </g>
    <g>
        <line x1="368" y1="56" x2="416" y2="56" class="solid"></line>
        <polygon points="416,52 424,56 416,60" class="filled"></polygon>
    </g>
    <g>
        <line x1="368" y1="88" x2="416" y2="88" class="solid"></line>
        <polygon points="416,84 424,88 416,92" class="filled"></polygon>
    </g>
    <g>
        <line x1="584" y1="40" x2="600" y2="40" class="solid"></line>
        <polygon points="600,36 608,40 600,44" class="filled"></polygon>
    </g>
    <g>
        <path d="M 480,48 A 16,16 0,0,0 480,64" class="nofill"></path>
        <path d="M 480,64 A 16,16 0,0,0 480,80" class="nofill"></path>
        <path d="M 480,80 A 16,16 0,0,0 480,96" class="nofill"></path>
    </g>
    <g>
        <path d="M 552,48 A 16,16 0,0,1 552,64" class="nofill"></path>
        <path d="M 552,64 A 16,16 0,0,1 552,80" class="nofill"></path>
        <path d="M 552,80 A 16,16 0,0,1 552,96" class="nofill"></path>
    </g>
</svg>