<svg xmlns="http://www.w3.org/2000/svg" width="680" height="144" style="background:#ffffff;border:1px solid #e5e5e5;border-radius:8px;max-width:100%;height:auto"><rect x="0" y="0" width="100%" height="100%" fill="#ffffff"/>
    <style>
        line, path, circle, rect, polygon{stroke:black;stroke-width:2;stroke-opacity:1;fill-opacity:1;stroke-linecap:round;stroke-linejoin:miter;}text{font-family:Iosevka Fixed, monospace;font-size:14px;}rect.backdrop{stroke:none;fill:transparent;}.broken{stroke-dasharray:8;}.filled{fill:black;}.bg_filled{fill:transparent;}.nofill{fill:transparent;}.end_marked_arrow{marker-end:url(#arrow);}.start_marked_arrow{marker-start:url(#arrow);}.end_marked_diamond{marker-end:url(#diamond);}.start_marked_diamond{marker-start:url(#diamond);}.end_marked_circle{marker-end:url(#circle);}.start_marked_circle{marker-start:url(#circle);}.end_marked_open_circle{marker-end:url(#open_circle);}.start_marked_open_circle{marker-start:url(#open_circle);}.end_marked_big_open_circle{marker-end:url(#big_open_circle);}.start_marked_big_open_circle{marker-start:url(#big_open_circle);}
        <!--separator-->
        
    </style>
    <defs>
        <marker id="arrow" viewBox="-2 -2 8 8" refX="4" refY="2" markerWidth="7" markerHeight="7" orient="auto-start-reverse">
            <polygon points="0,0 0,4 4,2 0,0"></polygon>
        </marker>
        <marker id="diamond" viewBox="-2 -2 8 8" refX="4" refY="2" markerWidth="7" markerHeight="7" orient="auto-start-reverse">
            <polygon points="0,2 2,0 4,2 2,4 0,2"></polygon>
        </marker>
        <marker id="circle" viewBox="0 0 8 8" refX="4" refY="4" markerWidth="7" markerHeight="7" orient="auto-start-reverse">
            <circle cx="4" cy="4" r="2" class="filled"></circle>
        </marker>
        <marker id="open_circle" viewBox="0 0 8 8" refX="4" refY="4" markerWidth="7" markerHeight="7" orient="auto-start-reverse">
            <circle cx="4" cy="4" r="2" class="bg_filled"></circle>
        </marker>
        <marker id="big_open_circle" viewBox="0 0 8 8" refX="4" refY="4" markerWidth="7" markerHeight="7" orient="auto-start-reverse">
            <circle cx="4" cy="4" r="3" class="bg_filled"></circle>
        </marker>
    </defs>
    <rect class="backdrop" x="0" y="0" width="680" height="144"></rect>
    <text x="2" y="12" >Bucket:</text>
    <text x="66" y="12" >my</text>
    <line x1="80" y1="8" x2="88" y2="8" class="solid"></line>
    <text x="90" y="12" >application</text>
    <line x1="176" y1="8" x2="184" y2="8" class="solid"></line>
    <text x="186" y="12" >data</text>
    <text x="34" y="44" >Key</text>
    <line x1="60" y1="32" x2="60" y2="96" class="broken"></line>
    <text x="34" y="60" >Key</text>
    <text x="34" y="76" >Key</text>
    <text x="34" y="92" >Key</text>
    <text x="74" y="44" >images</text>
    <line x1="128" y1="32" x2="120" y2="48" class="solid"></line>
    <text x="130" y="44" >profile</text>
    <line x1="192" y1="32" x2="184" y2="48" class="solid"></line>
    <text x="194" y="44" >user123.jpg</text>
    <text x="74" y="60" >images</text>
    <line x1="128" y1="48" x2="120" y2="64" class="solid"></line>
    <text x="130" y="60" >profile</text>
    <line x1="192" y1="48" x2="184" y2="64" class="solid"></line>
    <text x="194" y="60" >user456.jpg</text>
    <text x="74" y="76" >logs</text>
    <line x1="112" y1="64" x2="104" y2="80" class="solid"></line>
    <text x="114" y="76" >2024</text>
    <line x1="152" y1="64" x2="144" y2="80" class="solid"></line>
    <text x="154" y="76" >01</text>
    <line x1="176" y1="64" x2="168" y2="80" class="solid"></line>
    <text x="178" y="76" >15</text>
    <line x1="200" y1="64" x2="192" y2="80" class="solid"></line>
    <text x="202" y="76" >access.log.gz</text>
    <text x="74" y="92" >config</text>
    <line x1="128" y1="80" x2="120" y2="96" class="solid"></line>
    <text x="130" y="92" >app.json</text>
    <text x="322" y="44" >→</text>
    <text x="322" y="60" >→</text>
    <text x="322" y="76" >→</text>
    <text x="322" y="92" >→</text>
    <text x="346" y="44" >Object</text>
    <text x="346" y="60" >Object</text>
    <text x="346" y="76" >Object</text>
    <text x="346" y="92" >Object</text>
    <path d="M 408,32 A 16,16 0,0,0 408,48" class="nofill"></path>
    <text x="410" y="44" >binary</text>
    <text x="466" y="44" >+</text>
    <text x="482" y="44" >metadata</text>
    <path d="M 544,32 A 16,16 0,0,1 544,48" class="nofill"></path>
    <text x="2" y="124" >There</text>
    <text x="50" y="124" >is</text>
    <text x="74" y="124" >no</text>
    <text x="170" y="124" >directory.</text>
    <text x="258" y="124" >The</text>
    <text x="290" y="124" >prefix</text>
    <text x="426" y="124" >is</text>
    <text x="450" y="124" >just</text>
    <text x="490" y="124" >part</text>
    <text x="530" y="124" >of</text>
    <text x="554" y="124" >the</text>
    <text x="586" y="124" >key</text>
    <text x="618" y="124" >string.</text>
    <text x="98" y="124" >images</text>
    <text x="346" y="124" >images/</text>
    <g>
        <line x1="4" y1="16" x2="4" y2="88" class="solid"></line>
        <line x1="4" y1="40" x2="24" y2="40" class="solid"></line>
        <line x1="4" y1="56" x2="24" y2="56" class="solid"></line>
        <line x1="4" y1="72" x2="24" y2="72" class="solid"></line>
        <line x1="4" y1="88" x2="24" y2="88" class="solid"></line>
    </g>
</svg>