<svg xmlns="http://www.w3.org/2000/svg" width="584" height="32" style="background:#ffffff;border:1px solid #e5e5e5;border-radius:8px;max-width:100%;height:auto"><rect x="0" y="0" width="100%" height="100%" fill="#ffffff"/>
    <style>
        line, path, circle, rect, polygon{stroke:black;stroke-width:2;stroke-opacity:1;fill-opacity:1;stroke-linecap:round;stroke-linejoin:miter;}text{font-family:Iosevka Fixed, monospace;font-size:14px;}rect.backdrop{stroke:none;fill:transparent;}.broken{stroke-dasharray:8;}.filled{fill:black;}.bg_filled{fill:transparent;}.nofill{fill:transparent;}.end_marked_arrow{marker-end:url(#arrow);}.start_marked_arrow{marker-start:url(#arrow);}.end_marked_diamond{marker-end:url(#diamond);}.start_marked_diamond{marker-start:url(#diamond);}.end_marked_circle{marker-end:url(#circle);}.start_marked_circle{marker-start:url(#circle);}.end_marked_open_circle{marker-end:url(#open_circle);}.start_marked_open_circle{marker-start:url(#open_circle);}.end_marked_big_open_circle{marker-end:url(#big_open_circle);}.start_marked_big_open_circle{marker-start:url(#big_open_circle);}
        <!--separator-->
        
    </style>
    <defs>
        <marker id="arrow" viewBox="-2 -2 8 8" refX="4" refY="2" markerWidth="7" markerHeight="7" orient="auto-start-reverse">
            <polygon points="0,0 0,4 4,2 0,0"></polygon>
        </marker>
        <marker id="diamond" viewBox="-2 -2 8 8" refX="4" refY="2" markerWidth="7" markerHeight="7" orient="auto-start-reverse">
            <polygon points="0,2 2,0 4,2 2,4 0,2"></polygon>
        </marker>
        <marker id="circle" viewBox="0 0 8 8" refX="4" refY="4" markerWidth="7" markerHeight="7" orient="auto-start-reverse">
            <circle cx="4" cy="4" r="2" class="filled"></circle>
        </marker>
        <marker id="open_circle" viewBox="0 0 8 8" refX="4" refY="4" markerWidth="7" markerHeight="7" orient="auto-start-reverse">
            <circle cx="4" cy="4" r="2" class="bg_filled"></circle>
        </marker>
        <marker id="big_open_circle" viewBox="0 0 8 8" refX="4" refY="4" markerWidth="7" markerHeight="7" orient="auto-start-reverse">
            <circle cx="4" cy="4" r="3" class="bg_filled"></circle>
        </marker>
    </defs>
    <rect class="backdrop" x="0" y="0" width="584" height="32"></rect>
    <text x="2" y="12" >On</text>
    <line x1="16" y1="8" x2="24" y2="8" class="solid"></line>
    <text x="26" y="12" >Prem</text>
    <text x="98" y="12" >Direct</text>
    <text x="154" y="12" >Connect</text>
    <path d="M 224,0 A 16,16 0,0,0 224,16" class="nofill"></path>
    <text x="226" y="12" >high</text>
    <text x="266" y="12" >bandwidth</text>
    <path d="M 336,0 A 16,16 0,0,1 336,16" class="nofill"></path>
    <text x="386" y="12" >VPN</text>
    <path d="M 424,0 A 16,16 0,0,0 424,16" class="nofill"></path>
    <text x="426" y="12" >encryption</text>
    <path d="M 504,0 A 16,16 0,0,1 504,16" class="nofill"></path>
    <text x="554" y="12" >VPC</text>
    <g>
        <line x1="64" y1="8" x2="80" y2="8" class="solid"></line>
        <polygon points="80,4 88,8 80,12" class="filled"></polygon>
    </g>
    <g>
        <line x1="352" y1="8" x2="368" y2="8" class="solid"></line>
        <polygon points="368,4 376,8 368,12" class="filled"></polygon>
    </g>
    <g>
        <line x1="520" y1="8" x2="536" y2="8" class="solid"></line>
        <polygon points="536,4 544,8 536,12" class="filled"></polygon>
    </g>
</svg>