<svg xmlns="http://www.w3.org/2000/svg" width="448" height="272" style="background:#ffffff;border:1px solid #e5e5e5;border-radius:8px;max-width:100%;height:auto"><rect x="0" y="0" width="100%" height="100%" fill="#ffffff"/>
    <style>
        line, path, circle, rect, polygon{stroke:black;stroke-width:2;stroke-opacity:1;fill-opacity:1;stroke-linecap:round;stroke-linejoin:miter;}text{font-family:Iosevka Fixed, monospace;font-size:14px;}rect.backdrop{stroke:none;fill:transparent;}.broken{stroke-dasharray:8;}.filled{fill:black;}.bg_filled{fill:transparent;}.nofill{fill:transparent;}.end_marked_arrow{marker-end:url(#arrow);}.start_marked_arrow{marker-start:url(#arrow);}.end_marked_diamond{marker-end:url(#diamond);}.start_marked_diamond{marker-start:url(#diamond);}.end_marked_circle{marker-end:url(#circle);}.start_marked_circle{marker-start:url(#circle);}.end_marked_open_circle{marker-end:url(#open_circle);}.start_marked_open_circle{marker-start:url(#open_circle);}.end_marked_big_open_circle{marker-end:url(#big_open_circle);}.start_marked_big_open_circle{marker-start:url(#big_open_circle);}
        <!--separator-->
        
    </style>
    <defs>
        <marker id="arrow" viewBox="-2 -2 8 8" refX="4" refY="2" markerWidth="7" markerHeight="7" orient="auto-start-reverse">
            <polygon points="0,0 0,4 4,2 0,0"></polygon>
        </marker>
        <marker id="diamond" viewBox="-2 -2 8 8" refX="4" refY="2" markerWidth="7" markerHeight="7" orient="auto-start-reverse">
            <polygon points="0,2 2,0 4,2 2,4 0,2"></polygon>
        </marker>
        <marker id="circle" viewBox="0 0 8 8" refX="4" refY="4" markerWidth="7" markerHeight="7" orient="auto-start-reverse">
            <circle cx="4" cy="4" r="2" class="filled"></circle>
        </marker>
        <marker id="open_circle" viewBox="0 0 8 8" refX="4" refY="4" markerWidth="7" markerHeight="7" orient="auto-start-reverse">
            <circle cx="4" cy="4" r="2" class="bg_filled"></circle>
        </marker>
        <marker id="big_open_circle" viewBox="0 0 8 8" refX="4" refY="4" markerWidth="7" markerHeight="7" orient="auto-start-reverse">
            <circle cx="4" cy="4" r="3" class="bg_filled"></circle>
        </marker>
    </defs>
    <rect class="backdrop" x="0" y="0" width="448" height="272"></rect>
    <rect x="28" y="88" width="80" height="64" class="solid nofill" rx="0"></rect>
    <text x="42" y="108" >Server</text>
    <path d="M 48,128 A 16,16 0,0,0 48,144" class="nofill"></path>
    <text x="50" y="140" >DYING</text>
    <path d="M 88,128 A 16,16 0,0,1 88,144" class="nofill"></path>
    <rect x="276" y="184" width="40" height="64" class="solid nofill" rx="0"></rect>
    <text x="290" y="204" >S1</text>
    <text x="282" y="220" >333</text>
    <text x="282" y="236" >r</text>
    <line x1="296" y1="224" x2="288" y2="240" class="solid"></line>
    <text x="298" y="236" >s</text>
    <rect x="332" y="184" width="40" height="64" class="solid nofill" rx="0"></rect>
    <text x="346" y="204" >S2</text>
    <text x="338" y="220" >333</text>
    <text x="338" y="236" >r</text>
    <line x1="352" y1="224" x2="344" y2="240" class="solid"></line>
    <text x="354" y="236" >s</text>
    <rect x="388" y="184" width="40" height="64" class="solid nofill" rx="0"></rect>
    <text x="402" y="204" >S3</text>
    <text x="394" y="220" >334</text>
    <text x="394" y="236" >r</text>
    <line x1="408" y1="224" x2="400" y2="240" class="solid"></line>
    <text x="410" y="236" >s</text>
    <text x="2" y="12" >Without</text>
    <text x="66" y="12" >Load</text>
    <text x="106" y="12" >Balancer:</text>
    <text x="290" y="12" >With</text>
    <text x="330" y="12" >Load</text>
    <text x="370" y="12" >Balancer:</text>
    <text x="34" y="44" >1000</text>
    <text x="74" y="44" >req</text>
    <line x1="104" y1="32" x2="96" y2="48" class="solid"></line>
    <text x="106" y="44" >s</text>
    <text x="322" y="44" >1000</text>
    <text x="362" y="44" >req</text>
    <line x1="392" y1="32" x2="384" y2="48" class="solid"></line>
    <text x="394" y="44" >s</text>
    <text x="330" y="108" >Load</text>
    <text x="322" y="124" >Balancer</text>
    <text x="130" y="108" >←</text>
    <text x="130" y="124" >←</text>
    <text x="146" y="108" >500</text>
    <text x="146" y="124" >50%</text>
    <text x="178" y="108" >req</text>
    <line x1="208" y1="96" x2="198" y2="116" class="solid"></line>
    <text x="210" y="108" >s</text>
    <text x="226" y="108" >max</text>
    <text x="178" y="124" >dr</text>
    <circle cx="196" cy="120" r="3" class="nofill"></circle>
    <text x="202" y="124" >pped</text>
    <g>
        <line x1="68" y1="48" x2="68" y2="68" class="solid"></line>
        <polygon points="64,68 72,68 68,80" class="filled"></polygon>
    </g>
    <g>
        <line x1="356" y1="48" x2="356" y2="68" class="solid"></line>
        <polygon points="352,68 360,68 356,80" class="filled"></polygon>
    </g>
    <g>
        <line x1="308" y1="88" x2="388" y2="88" class="solid"></line>
        <line x1="308" y1="88" x2="308" y2="136" class="solid"></line>
        <line x1="388" y1="88" x2="388" y2="136" class="solid"></line>
        <line x1="308" y1="136" x2="388" y2="136" class="solid"></line>
        <line x1="348" y1="136" x2="348" y2="164" class="solid"></line>
        <polygon points="344,164 352,164 348,176" class="filled"></polygon>
    </g>
    <g>
        <line x1="300" y1="152" x2="396" y2="152" class="solid"></line>
        <line x1="300" y1="152" x2="300" y2="164" class="solid"></line>
        <line x1="396" y1="152" x2="396" y2="164" class="solid"></line>
        <polygon points="296,164 304,164 300,176" class="filled"></polygon>
        <polygon points="392,164 400,164 396,176" class="filled"></polygon>
    </g>
</svg>