<svg xmlns="http://www.w3.org/2000/svg" width="512" height="336" style="background:#ffffff;border:1px solid #e5e5e5;border-radius:8px;max-width:100%;height:auto"><rect x="0" y="0" width="100%" height="100%" fill="#ffffff"/>
    <style>
        line, path, circle, rect, polygon{stroke:black;stroke-width:2;stroke-opacity:1;fill-opacity:1;stroke-linecap:round;stroke-linejoin:miter;}text{font-family:Iosevka Fixed, monospace;font-size:14px;}rect.backdrop{stroke:none;fill:transparent;}.broken{stroke-dasharray:8;}.filled{fill:black;}.bg_filled{fill:transparent;}.nofill{fill:transparent;}.end_marked_arrow{marker-end:url(#arrow);}.start_marked_arrow{marker-start:url(#arrow);}.end_marked_diamond{marker-end:url(#diamond);}.start_marked_diamond{marker-start:url(#diamond);}.end_marked_circle{marker-end:url(#circle);}.start_marked_circle{marker-start:url(#circle);}.end_marked_open_circle{marker-end:url(#open_circle);}.start_marked_open_circle{marker-start:url(#open_circle);}.end_marked_big_open_circle{marker-end:url(#big_open_circle);}.start_marked_big_open_circle{marker-start:url(#big_open_circle);}
        <!--separator-->
        
    </style>
    <defs>
        <marker id="arrow" viewBox="-2 -2 8 8" refX="4" refY="2" markerWidth="7" markerHeight="7" orient="auto-start-reverse">
            <polygon points="0,0 0,4 4,2 0,0"></polygon>
        </marker>
        <marker id="diamond" viewBox="-2 -2 8 8" refX="4" refY="2" markerWidth="7" markerHeight="7" orient="auto-start-reverse">
            <polygon points="0,2 2,0 4,2 2,4 0,2"></polygon>
        </marker>
        <marker id="circle" viewBox="0 0 8 8" refX="4" refY="4" markerWidth="7" markerHeight="7" orient="auto-start-reverse">
            <circle cx="4" cy="4" r="2" class="filled"></circle>
        </marker>
        <marker id="open_circle" viewBox="0 0 8 8" refX="4" refY="4" markerWidth="7" markerHeight="7" orient="auto-start-reverse">
            <circle cx="4" cy="4" r="2" class="bg_filled"></circle>
        </marker>
        <marker id="big_open_circle" viewBox="0 0 8 8" refX="4" refY="4" markerWidth="7" markerHeight="7" orient="auto-start-reverse">
            <circle cx="4" cy="4" r="3" class="bg_filled"></circle>
        </marker>
    </defs>
    <rect class="backdrop" x="0" y="0" width="512" height="336"></rect>
    <text x="2" y="12" >Health</text>
    <text x="58" y="12" >Check</text>
    <text x="106" y="12" >Configuration:</text>
    <line x1="0" y1="24" x2="280" y2="24" class="solid"></line>
    <line x1="0" y1="28" x2="280" y2="28" class="solid"></line>
    <text x="2" y="44" >Prot</text>
    <circle cx="36" cy="40" r="3" class="nofill"></circle>
    <line x1="36" y1="44" x2="36" y2="80" class="broken"></line>
    <text x="42" y="44" >col:</text>
    <text x="170" y="44" >HTTP</text>
    <text x="2" y="60" >Path</text>
    <line x1="176" y1="48" x2="168" y2="64" class="solid"></line>
    <text x="178" y="60" >health</text>
    <text x="2" y="76" >Port</text>
    <text x="170" y="76" >8080</text>
    <path d="M 216,64 A 16,16 0,0,0 216,80" class="nofill"></path>
    <text x="218" y="76" >traffic</text>
    <text x="2" y="92" >Healthy</text>
    <text x="66" y="92" >threshold:</text>
    <text x="170" y="92" >3</text>
    <text x="186" y="92" >consecutive</text>
    <text x="2" y="108" >Unhealthy</text>
    <text x="82" y="108" >threshold:</text>
    <text x="170" y="108" >2</text>
    <text x="186" y="108" >consecutive</text>
    <text x="2" y="124" >Timeout:</text>
    <text x="170" y="124" >5</text>
    <text x="186" y="124" >seconds</text>
    <text x="2" y="140" >Interval:</text>
    <text x="170" y="140" >15</text>
    <text x="194" y="140" >seconds</text>
    <text x="2" y="156" >Success</text>
    <text x="66" y="156" >codes:</text>
    <text x="170" y="156" >200</text>
    <line x1="192" y1="152" x2="200" y2="152" class="solid"></line>
    <text x="202" y="156" >299</text>
    <text x="282" y="76" >port</text>
    <text x="322" y="76" >or</text>
    <text x="346" y="76" >override</text>
    <path d="M 408,64 A 16,16 0,0,1 408,80" class="nofill"></path>
    <text x="282" y="92" >successes</text>
    <text x="282" y="108" >failures</text>
    <text x="2" y="188" >Timeline:</text>
    <text x="18" y="204" >t</text>
    <line x1="24" y1="198" x2="32" y2="198" class="solid"></line>
    <line x1="24" y1="202" x2="32" y2="202" class="solid"></line>
    <text x="34" y="204" >0s</text>
    <text x="74" y="204" >CHECK</text>
    <text x="18" y="220" >t</text>
    <line x1="24" y1="214" x2="32" y2="214" class="solid"></line>
    <line x1="24" y1="218" x2="32" y2="218" class="solid"></line>
    <text x="34" y="220" >15s</text>
    <text x="74" y="220" >CHECK</text>
    <text x="18" y="236" >t</text>
    <line x1="24" y1="230" x2="32" y2="230" class="solid"></line>
    <line x1="24" y1="234" x2="32" y2="234" class="solid"></line>
    <text x="34" y="236" >30s</text>
    <text x="74" y="236" >CHECK</text>
    <text x="18" y="252" >t</text>
    <line x1="24" y1="246" x2="32" y2="246" class="solid"></line>
    <line x1="24" y1="250" x2="32" y2="250" class="solid"></line>
    <text x="34" y="252" >45s</text>
    <text x="74" y="252" >CHECK</text>
    <text x="18" y="268" >...</text>
    <text x="18" y="284" >t</text>
    <line x1="24" y1="278" x2="32" y2="278" class="solid"></line>
    <line x1="24" y1="282" x2="32" y2="282" class="solid"></line>
    <text x="34" y="284" >120s</text>
    <text x="18" y="300" >t</text>
    <line x1="24" y1="294" x2="32" y2="294" class="solid"></line>
    <line x1="24" y1="298" x2="32" y2="298" class="solid"></line>
    <text x="34" y="300" >135s</text>
    <text x="18" y="316" >t</text>
    <line x1="24" y1="310" x2="32" y2="310" class="solid"></line>
    <line x1="24" y1="314" x2="32" y2="314" class="solid"></line>
    <text x="34" y="316" >150s</text>
    <text x="122" y="204" >→</text>
    <text x="122" y="220" >→</text>
    <text x="122" y="236" >→</text>
    <text x="122" y="252" >→</text>
    <text x="138" y="204" >200</text>
    <text x="138" y="220" >200</text>
    <text x="138" y="236" >500</text>
    <text x="138" y="252" >500</text>
    <text x="170" y="204" >OK</text>
    <text x="170" y="220" >OK</text>
    <text x="202" y="204" >healthy</text>
    <text x="202" y="220" >healthy</text>
    <text x="202" y="236" >failure</text>
    <text x="266" y="236" >1</text>
    <text x="202" y="252" >failure</text>
    <text x="266" y="252" >2</text>
    <text x="290" y="252" >→</text>
    <text x="306" y="252" >MARKED</text>
    <text x="362" y="252" >UNHEALTHY,</text>
    <text x="450" y="252" >removed</text>
    <text x="74" y="284" >CHECK</text>
    <text x="74" y="300" >CHECK</text>
    <text x="74" y="316" >CHECK</text>
    <text x="122" y="284" >→</text>
    <text x="122" y="300" >→</text>
    <text x="122" y="316" >→</text>
    <text x="138" y="284" >200</text>
    <text x="138" y="300" >200</text>
    <text x="138" y="316" >200</text>
    <text x="170" y="284" >OK</text>
    <text x="170" y="300" >OK</text>
    <text x="170" y="316" >OK</text>
    <text x="202" y="284" >pass</text>
    <text x="202" y="300" >pass</text>
    <text x="202" y="316" >pass</text>
    <text x="242" y="284" >1</text>
    <text x="242" y="300" >2</text>
    <text x="242" y="316" >3</text>
    <text x="266" y="316" >→</text>
    <text x="282" y="316" >MARKED</text>
    <text x="338" y="316" >HEALTHY,</text>
    <text x="410" y="316" >re</text>
    <line x1="424" y1="312" x2="432" y2="312" class="solid"></line>
    <text x="434" y="316" >added</text>
    <g>
        <path d="M 200,192 A 16,16 0,0,0 200,208" class="nofill"></path>
        <path d="M 200,208 A 16,16 0,0,0 200,224" class="nofill"></path>
        <path d="M 200,224 A 16,16 0,0,0 200,240" class="nofill"></path>
        <path d="M 200,240 A 16,16 0,0,0 200,256" class="nofill"></path>
    </g>
    <g>
        <path d="M 256,192 A 16,16 0,0,1 256,208" class="nofill"></path>
        <path d="M 256,208 A 16,16 0,0,1 256,224" class="nofill"></path>
    </g>
    <g>
        <path d="M 272,224 A 16,16 0,0,1 272,240" class="nofill"></path>
        <path d="M 272,240 A 16,16 0,0,1 272,256" class="nofill"></path>
    </g>
    <g>
        <path d="M 200,272 A 16,16 0,0,0 200,288" class="nofill"></path>
        <path d="M 200,288 A 16,16 0,0,0 200,304" class="nofill"></path>
        <path d="M 200,304 A 16,16 0,0,0 200,320" class="nofill"></path>
    </g>
    <g>
        <path d="M 248,272 A 16,16 0,0,1 248,288" class="nofill"></path>
        <path d="M 248,288 A 16,16 0,0,1 248,304" class="nofill"></path>
        <path d="M 248,304 A 16,16 0,0,1 248,320" class="nofill"></path>
    </g>
</svg>