<svg xmlns="http://www.w3.org/2000/svg" width="440" height="112" style="background:#ffffff;border:1px solid #e5e5e5;border-radius:8px;max-width:100%;height:auto"><rect x="0" y="0" width="100%" height="100%" fill="#ffffff"/>
    <style>
        line, path, circle, rect, polygon{stroke:black;stroke-width:2;stroke-opacity:1;fill-opacity:1;stroke-linecap:round;stroke-linejoin:miter;}text{font-family:Iosevka Fixed, monospace;font-size:14px;}rect.backdrop{stroke:none;fill:transparent;}.broken{stroke-dasharray:8;}.filled{fill:black;}.bg_filled{fill:transparent;}.nofill{fill:transparent;}.end_marked_arrow{marker-end:url(#arrow);}.start_marked_arrow{marker-start:url(#arrow);}.end_marked_diamond{marker-end:url(#diamond);}.start_marked_diamond{marker-start:url(#diamond);}.end_marked_circle{marker-end:url(#circle);}.start_marked_circle{marker-start:url(#circle);}.end_marked_open_circle{marker-end:url(#open_circle);}.start_marked_open_circle{marker-start:url(#open_circle);}.end_marked_big_open_circle{marker-end:url(#big_open_circle);}.start_marked_big_open_circle{marker-start:url(#big_open_circle);}
        <!--separator-->
        
    </style>
    <defs>
        <marker id="arrow" viewBox="-2 -2 8 8" refX="4" refY="2" markerWidth="7" markerHeight="7" orient="auto-start-reverse">
            <polygon points="0,0 0,4 4,2 0,0"></polygon>
        </marker>
        <marker id="diamond" viewBox="-2 -2 8 8" refX="4" refY="2" markerWidth="7" markerHeight="7" orient="auto-start-reverse">
            <polygon points="0,2 2,0 4,2 2,4 0,2"></polygon>
        </marker>
        <marker id="circle" viewBox="0 0 8 8" refX="4" refY="4" markerWidth="7" markerHeight="7" orient="auto-start-reverse">
            <circle cx="4" cy="4" r="2" class="filled"></circle>
        </marker>
        <marker id="open_circle" viewBox="0 0 8 8" refX="4" refY="4" markerWidth="7" markerHeight="7" orient="auto-start-reverse">
            <circle cx="4" cy="4" r="2" class="bg_filled"></circle>
        </marker>
        <marker id="big_open_circle" viewBox="0 0 8 8" refX="4" refY="4" markerWidth="7" markerHeight="7" orient="auto-start-reverse">
            <circle cx="4" cy="4" r="3" class="bg_filled"></circle>
        </marker>
    </defs>
    <rect class="backdrop" x="0" y="0" width="440" height="112"></rect>
    <text x="2" y="12" >t</text>
    <line x1="8" y1="6" x2="16" y2="6" class="solid"></line>
    <line x1="8" y1="10" x2="16" y2="10" class="solid"></line>
    <text x="18" y="12" >0</text>
    <text x="58" y="12" >Target</text>
    <text x="114" y="12" >marked</text>
    <text x="170" y="12" >for</text>
    <text x="202" y="12" >deregistration</text>
    <text x="90" y="28" >New</text>
    <text x="122" y="28" >requests:</text>
    <text x="202" y="28" >sent</text>
    <text x="242" y="28" >to</text>
    <text x="266" y="28" >other</text>
    <text x="314" y="28" >targets</text>
    <text x="90" y="44" >In</text>
    <line x1="104" y1="40" x2="112" y2="40" class="solid"></line>
    <text x="114" y="44" >flight</text>
    <text x="170" y="44" >requests:</text>
    <text x="250" y="44" >continue</text>
    <text x="322" y="44" >on</text>
    <text x="346" y="44" >this</text>
    <text x="58" y="76" >Deregistration</text>
    <text x="178" y="76" >delay</text>
    <text x="226" y="76" >expires</text>
    <path d="M 296,64 A 16,16 0,0,0 296,80" class="nofill"></path>
    <text x="298" y="76" >default:</text>
    <text x="90" y="92" >All</text>
    <text x="122" y="92" >remaining</text>
    <text x="202" y="92" >connections</text>
    <text x="298" y="92" >forcibly</text>
    <text x="386" y="44" >target</text>
    <text x="2" y="76" >t</text>
    <line x1="8" y1="70" x2="16" y2="70" class="solid"></line>
    <line x1="8" y1="74" x2="16" y2="74" class="solid"></line>
    <text x="18" y="76" >300s</text>
    <text x="370" y="76" >300s</text>
    <path d="M 400,64 A 16,16 0,0,1 400,80" class="nofill"></path>
    <text x="370" y="92" >closed</text>
    <g>
        <line x1="60" y1="16" x2="60" y2="64" class="solid"></line>
        <line x1="60" y1="24" x2="80" y2="24" class="solid"></line>
        <line x1="60" y1="40" x2="80" y2="40" class="solid"></line>
    </g>
    <g>
        <line x1="60" y1="80" x2="60" y2="88" class="solid"></line>
        <line x1="60" y1="88" x2="80" y2="88" class="solid"></line>
    </g>
</svg>