<svg xmlns="http://www.w3.org/2000/svg" width="504" height="160" style="background:#ffffff;border:1px solid #e5e5e5;border-radius:8px;max-width:100%;height:auto"><rect x="0" y="0" width="100%" height="100%" fill="#ffffff"/>
    <style>
        line, path, circle, rect, polygon{stroke:black;stroke-width:2;stroke-opacity:1;fill-opacity:1;stroke-linecap:round;stroke-linejoin:miter;}text{font-family:Iosevka Fixed, monospace;font-size:14px;}rect.backdrop{stroke:none;fill:transparent;}.broken{stroke-dasharray:8;}.filled{fill:black;}.bg_filled{fill:transparent;}.nofill{fill:transparent;}.end_marked_arrow{marker-end:url(#arrow);}.start_marked_arrow{marker-start:url(#arrow);}.end_marked_diamond{marker-end:url(#diamond);}.start_marked_diamond{marker-start:url(#diamond);}.end_marked_circle{marker-end:url(#circle);}.start_marked_circle{marker-start:url(#circle);}.end_marked_open_circle{marker-end:url(#open_circle);}.start_marked_open_circle{marker-start:url(#open_circle);}.end_marked_big_open_circle{marker-end:url(#big_open_circle);}.start_marked_big_open_circle{marker-start:url(#big_open_circle);}
        <!--separator-->
        
    </style>
    <defs>
        <marker id="arrow" viewBox="-2 -2 8 8" refX="4" refY="2" markerWidth="7" markerHeight="7" orient="auto-start-reverse">
            <polygon points="0,0 0,4 4,2 0,0"></polygon>
        </marker>
        <marker id="diamond" viewBox="-2 -2 8 8" refX="4" refY="2" markerWidth="7" markerHeight="7" orient="auto-start-reverse">
            <polygon points="0,2 2,0 4,2 2,4 0,2"></polygon>
        </marker>
        <marker id="circle" viewBox="0 0 8 8" refX="4" refY="4" markerWidth="7" markerHeight="7" orient="auto-start-reverse">
            <circle cx="4" cy="4" r="2" class="filled"></circle>
        </marker>
        <marker id="open_circle" viewBox="0 0 8 8" refX="4" refY="4" markerWidth="7" markerHeight="7" orient="auto-start-reverse">
            <circle cx="4" cy="4" r="2" class="bg_filled"></circle>
        </marker>
        <marker id="big_open_circle" viewBox="0 0 8 8" refX="4" refY="4" markerWidth="7" markerHeight="7" orient="auto-start-reverse">
            <circle cx="4" cy="4" r="3" class="bg_filled"></circle>
        </marker>
    </defs>
    <rect class="backdrop" x="0" y="0" width="504" height="160"></rect>
    <text x="2" y="12" >DynamoDB</text>
    <text x="74" y="12" >Table</text>
    <text x="154" y="12" >Stream</text>
    <text x="242" y="12" >Lambda</text>
    <path d="M 304,0 A 16,16 0,0,0 304,16" class="nofill"></path>
    <text x="306" y="12" >process</text>
    <text x="370" y="12" >changes</text>
    <path d="M 424,0 A 16,16 0,0,1 424,16" class="nofill"></path>
    <text x="234" y="28" >Kinesis</text>
    <text x="298" y="28" >Data</text>
    <text x="338" y="28" >Streams</text>
    <text x="234" y="44" >EventBridge</text>
    <text x="330" y="44" >Pipes</text>
    <text x="2" y="76" >Use</text>
    <text x="34" y="76" >cases:</text>
    <line x1="0" y1="88" x2="8" y2="88" class="solid"></line>
    <text x="18" y="92" >Materialized</text>
    <text x="122" y="92" >views</text>
    <path d="M 176,80 A 16,16 0,0,0 176,96" class="nofill"></path>
    <text x="178" y="92" >replicate</text>
    <line x1="0" y1="104" x2="8" y2="104" class="solid"></line>
    <text x="18" y="108" >Real</text>
    <line x1="48" y1="104" x2="56" y2="104" class="solid"></line>
    <text x="58" y="108" >time</text>
    <text x="98" y="108" >aggregations</text>
    <line x1="0" y1="120" x2="8" y2="120" class="solid"></line>
    <text x="18" y="124" >Cross</text>
    <line x1="56" y1="120" x2="64" y2="120" class="solid"></line>
    <text x="66" y="124" >region</text>
    <text x="122" y="124" >replication</text>
    <path d="M 224,112 A 16,16 0,0,0 224,128" class="nofill"></path>
    <text x="226" y="124" >Global</text>
    <line x1="0" y1="136" x2="8" y2="136" class="solid"></line>
    <text x="18" y="140" >Event</text>
    <line x1="56" y1="136" x2="64" y2="136" class="solid"></line>
    <text x="66" y="140" >driven</text>
    <text x="122" y="140" >architectures</text>
    <text x="258" y="92" >to</text>
    <text x="282" y="92" >another</text>
    <text x="346" y="92" >table</text>
    <line x1="392" y1="80" x2="384" y2="96" class="solid"></line>
    <text x="394" y="92" >service</text>
    <path d="M 448,80 A 16,16 0,0,1 448,96" class="nofill"></path>
    <text x="282" y="124" >Tables</text>
    <text x="338" y="124" >use</text>
    <text x="370" y="124" >this</text>
    <text x="410" y="124" >internally</text>
    <path d="M 488,112 A 16,16 0,0,1 488,128" class="nofill"></path>
    <g>
        <line x1="120" y1="8" x2="136" y2="8" class="solid"></line>
        <polygon points="136,4 144,8 136,12" class="filled"></polygon>
    </g>
    <g>
        <line x1="208" y1="8" x2="224" y2="8" class="solid"></line>
        <polygon points="224,4 232,8 224,12" class="filled"></polygon>
    </g>
    <g>
        <line x1="200" y1="24" x2="216" y2="24" class="solid"></line>
        <polygon points="216,20 224,24 216,28" class="filled"></polygon>
    </g>
    <g>
        <line x1="200" y1="40" x2="216" y2="40" class="solid"></line>
        <polygon points="216,36 224,40 216,44" class="filled"></polygon>
    </g>
</svg>