<svg xmlns="http://www.w3.org/2000/svg" width="584" height="192" style="background:#ffffff;border:1px solid #e5e5e5;border-radius:8px;max-width:100%;height:auto"><rect x="0" y="0" width="100%" height="100%" fill="#ffffff"/>
    <style>
        line, path, circle, rect, polygon{stroke:black;stroke-width:2;stroke-opacity:1;fill-opacity:1;stroke-linecap:round;stroke-linejoin:miter;}text{font-family:Iosevka Fixed, monospace;font-size:14px;}rect.backdrop{stroke:none;fill:transparent;}.broken{stroke-dasharray:8;}.filled{fill:black;}.bg_filled{fill:transparent;}.nofill{fill:transparent;}.end_marked_arrow{marker-end:url(#arrow);}.start_marked_arrow{marker-start:url(#arrow);}.end_marked_diamond{marker-end:url(#diamond);}.start_marked_diamond{marker-start:url(#diamond);}.end_marked_circle{marker-end:url(#circle);}.start_marked_circle{marker-start:url(#circle);}.end_marked_open_circle{marker-end:url(#open_circle);}.start_marked_open_circle{marker-start:url(#open_circle);}.end_marked_big_open_circle{marker-end:url(#big_open_circle);}.start_marked_big_open_circle{marker-start:url(#big_open_circle);}
        <!--separator-->
        
    </style>
    <defs>
        <marker id="arrow" viewBox="-2 -2 8 8" refX="4" refY="2" markerWidth="7" markerHeight="7" orient="auto-start-reverse">
            <polygon points="0,0 0,4 4,2 0,0"></polygon>
        </marker>
        <marker id="diamond" viewBox="-2 -2 8 8" refX="4" refY="2" markerWidth="7" markerHeight="7" orient="auto-start-reverse">
            <polygon points="0,2 2,0 4,2 2,4 0,2"></polygon>
        </marker>
        <marker id="circle" viewBox="0 0 8 8" refX="4" refY="4" markerWidth="7" markerHeight="7" orient="auto-start-reverse">
            <circle cx="4" cy="4" r="2" class="filled"></circle>
        </marker>
        <marker id="open_circle" viewBox="0 0 8 8" refX="4" refY="4" markerWidth="7" markerHeight="7" orient="auto-start-reverse">
            <circle cx="4" cy="4" r="2" class="bg_filled"></circle>
        </marker>
        <marker id="big_open_circle" viewBox="0 0 8 8" refX="4" refY="4" markerWidth="7" markerHeight="7" orient="auto-start-reverse">
            <circle cx="4" cy="4" r="3" class="bg_filled"></circle>
        </marker>
    </defs>
    <rect class="backdrop" x="0" y="0" width="584" height="192"></rect>
    <text x="2" y="12" >Fully</text>
    <text x="50" y="12" >Serverless</text>
    <text x="2" y="28" >(no</text>
    <text x="34" y="28" >servers,</text>
    <text x="106" y="28" >pay</text>
    <line x1="128" y1="24" x2="136" y2="24" class="solid"></line>
    <text x="138" y="28" >per</text>
    <line x1="160" y1="24" x2="168" y2="24" class="solid"></line>
    <text x="170" y="28" >use,</text>
    <text x="370" y="12" >Serverless</text>
    <line x1="448" y1="8" x2="456" y2="8" class="solid"></line>
    <text x="458" y="12" >ish</text>
    <path d="M 376,16 A 16,16 0,0,0 376,32" class="nofill"></path>
    <text x="378" y="28" >managed,</text>
    <text x="450" y="28" >but</text>
    <text x="482" y="28" >some</text>
    <text x="410" y="60" >Aurora</text>
    <text x="466" y="60" >Serverless</text>
    <text x="410" y="76" >ECS</text>
    <text x="442" y="76" >Fargate</text>
    <text x="410" y="92" >OpenSearch</text>
    <text x="498" y="92" >Serverless</text>
    <text x="410" y="108" >MSK</text>
    <text x="442" y="108" >Serverless</text>
    <text x="402" y="124" >ElastiCache</text>
    <text x="498" y="124" >Serverless</text>
    <line x1="380" y1="128" x2="380" y2="176" class="solid"></line>
    <text x="210" y="28" >scale</text>
    <text x="258" y="28" >to</text>
    <text x="282" y="28" >zero</text>
    <path d="M 312,16 A 16,16 0,0,1 312,32" class="nofill"></path>
    <text x="522" y="28" >config</text>
    <path d="M 568,16 A 16,16 0,0,1 568,32" class="nofill"></path>
    <text x="34" y="60" >Lambda</text>
    <text x="34" y="76" >API</text>
    <text x="66" y="76" >Gateway</text>
    <text x="34" y="92" >DynamoDB</text>
    <path d="M 112,80 A 16,16 0,0,0 112,96" class="nofill"></path>
    <text x="114" y="92" >on</text>
    <line x1="128" y1="88" x2="136" y2="88" class="solid"></line>
    <text x="138" y="92" >demand</text>
    <path d="M 184,80 A 16,16 0,0,1 184,96" class="nofill"></path>
    <text x="34" y="108" >S3</text>
    <text x="34" y="124" >SQS</text>
    <line x1="72" y1="112" x2="64" y2="128" class="solid"></line>
    <text x="82" y="124" >SNS</text>
    <text x="34" y="140" >EventBridge</text>
    <text x="34" y="156" >Step</text>
    <text x="74" y="156" >Functions</text>
    <text x="34" y="172" >AppSync</text>
    <text x="554" y="60" >v2</text>
    <g>
        <line x1="4" y1="32" x2="4" y2="168" class="solid"></line>
        <line x1="4" y1="56" x2="24" y2="56" class="solid"></line>
        <line x1="4" y1="72" x2="24" y2="72" class="solid"></line>
        <line x1="4" y1="88" x2="24" y2="88" class="solid"></line>
        <line x1="4" y1="104" x2="24" y2="104" class="solid"></line>
        <line x1="4" y1="120" x2="24" y2="120" class="solid"></line>
        <line x1="4" y1="136" x2="24" y2="136" class="solid"></line>
        <line x1="4" y1="152" x2="24" y2="152" class="solid"></line>
        <line x1="4" y1="168" x2="24" y2="168" class="solid"></line>
    </g>
    <g>
        <line x1="380" y1="32" x2="380" y2="112" class="solid"></line>
        <line x1="380" y1="56" x2="400" y2="56" class="solid"></line>
        <line x1="380" y1="72" x2="400" y2="72" class="solid"></line>
        <line x1="380" y1="88" x2="400" y2="88" class="solid"></line>
        <line x1="380" y1="104" x2="400" y2="104" class="solid"></line>
    </g>
    <g>
        <line x1="372" y1="112" x2="372" y2="128" class="solid"></line>
        <line x1="372" y1="120" x2="392" y2="120" class="solid"></line>
    </g>
</svg>