<svg xmlns="http://www.w3.org/2000/svg" width="464" height="384" style="background:#ffffff;border:1px solid #e5e5e5;border-radius:8px;max-width:100%;height:auto"><rect x="0" y="0" width="100%" height="100%" fill="#ffffff"/>
    <style>
        line, path, circle, rect, polygon{stroke:black;stroke-width:2;stroke-opacity:1;fill-opacity:1;stroke-linecap:round;stroke-linejoin:miter;}text{font-family:Iosevka Fixed, monospace;font-size:14px;}rect.backdrop{stroke:none;fill:transparent;}.broken{stroke-dasharray:8;}.filled{fill:black;}.bg_filled{fill:transparent;}.nofill{fill:transparent;}.end_marked_arrow{marker-end:url(#arrow);}.start_marked_arrow{marker-start:url(#arrow);}.end_marked_diamond{marker-end:url(#diamond);}.start_marked_diamond{marker-start:url(#diamond);}.end_marked_circle{marker-end:url(#circle);}.start_marked_circle{marker-start:url(#circle);}.end_marked_open_circle{marker-end:url(#open_circle);}.start_marked_open_circle{marker-start:url(#open_circle);}.end_marked_big_open_circle{marker-end:url(#big_open_circle);}.start_marked_big_open_circle{marker-start:url(#big_open_circle);}
        <!--separator-->
        
    </style>
    <defs>
        <marker id="arrow" viewBox="-2 -2 8 8" refX="4" refY="2" markerWidth="7" markerHeight="7" orient="auto-start-reverse">
            <polygon points="0,0 0,4 4,2 0,0"></polygon>
        </marker>
        <marker id="diamond" viewBox="-2 -2 8 8" refX="4" refY="2" markerWidth="7" markerHeight="7" orient="auto-start-reverse">
            <polygon points="0,2 2,0 4,2 2,4 0,2"></polygon>
        </marker>
        <marker id="circle" viewBox="0 0 8 8" refX="4" refY="4" markerWidth="7" markerHeight="7" orient="auto-start-reverse">
            <circle cx="4" cy="4" r="2" class="filled"></circle>
        </marker>
        <marker id="open_circle" viewBox="0 0 8 8" refX="4" refY="4" markerWidth="7" markerHeight="7" orient="auto-start-reverse">
            <circle cx="4" cy="4" r="2" class="bg_filled"></circle>
        </marker>
        <marker id="big_open_circle" viewBox="0 0 8 8" refX="4" refY="4" markerWidth="7" markerHeight="7" orient="auto-start-reverse">
            <circle cx="4" cy="4" r="3" class="bg_filled"></circle>
        </marker>
    </defs>
    <rect class="backdrop" x="0" y="0" width="464" height="384"></rect>
    <rect x="76" y="152" width="88" height="48" class="solid nofill" rx="0"></rect>
    <text x="82" y="172" >Container</text>
    <path d="M 96,176 A 16,16 0,0,0 96,192" class="nofill"></path>
    <text x="98" y="188" >app</text>
    <path d="M 120,176 A 16,16 0,0,1 120,192" class="nofill"></path>
    <rect x="236" y="152" width="88" height="48" class="solid nofill" rx="0"></rect>
    <text x="242" y="172" >Container</text>
    <path d="M 256,176 A 16,16 0,0,0 256,192" class="nofill"></path>
    <text x="258" y="188" >app</text>
    <path d="M 280,176 A 16,16 0,0,1 280,192" class="nofill"></path>
    <rect x="76" y="216" width="88" height="48" class="solid nofill" rx="0"></rect>
    <text x="82" y="236" >Container</text>
    <path d="M 96,240 A 16,16 0,0,0 96,256" class="nofill"></path>
    <text x="98" y="252" >sidecar</text>
    <path d="M 152,240 A 16,16 0,0,1 152,256" class="nofill"></path>
    <rect x="236" y="216" width="88" height="48" class="solid nofill" rx="0"></rect>
    <text x="242" y="236" >Container</text>
    <path d="M 256,240 A 16,16 0,0,0 256,256" class="nofill"></path>
    <text x="258" y="252" >sidecar</text>
    <path d="M 312,240 A 16,16 0,0,1 312,256" class="nofill"></path>
    <text x="162" y="28" >ECS</text>
    <text x="194" y="28" >CLUSTER</text>
    <line x1="452" y1="128" x2="452" y2="144" class="solid"></line>
    <text x="26" y="332" >Task</text>
    <text x="66" y="332" >Definition:</text>
    <text x="162" y="332" >Blueprint</text>
    <text x="242" y="332" >for</text>
    <text x="274" y="332" >a</text>
    <text x="290" y="332" >task</text>
    <path d="M 32,336 A 16,16 0,0,0 32,352" class="nofill"></path>
    <text x="34" y="348" >image,</text>
    <text x="90" y="348" >CPU,</text>
    <text x="130" y="348" >memory,</text>
    <text x="194" y="348" >ports,</text>
    <text x="250" y="348" >env</text>
    <text x="282" y="348" >vars,</text>
    <text x="330" y="348" >IAM</text>
    <text x="362" y="348" >role</text>
    <path d="M 392,336 A 16,16 0,0,1 392,352" class="nofill"></path>
    <text x="146" y="76" >SERVICE</text>
    <line x1="404" y1="64" x2="404" y2="128" class="solid"></line>
    <text x="138" y="92" >desired</text>
    <text x="202" y="92" >count</text>
    <text x="90" y="140" >TASK</text>
    <line x1="188" y1="128" x2="188" y2="272" class="solid"></line>
    <line x1="212" y1="128" x2="212" y2="272" class="solid"></line>
    <text x="250" y="140" >TASK</text>
    <line x1="412" y1="128" x2="412" y2="144" class="solid"></line>
    <line x1="404" y1="144" x2="404" y2="288" class="solid"></line>
    <path d="M 56,80 A 16,16 0,0,0 56,96" class="nofill"></path>
    <text x="58" y="92" >maintains</text>
    <text x="250" y="92" >of</text>
    <text x="274" y="92" >tasks</text>
    <path d="M 312,80 A 16,16 0,0,1 312,96" class="nofill"></path>
    <line x1="348" y1="128" x2="348" y2="272" class="solid"></line>
    <g>
        <line x1="4" y1="8" x2="444" y2="8" class="solid"></line>
        <line x1="4" y1="8" x2="4" y2="360" class="solid"></line>
        <line x1="444" y1="8" x2="444" y2="128" class="solid"></line>
        <line x1="444" y1="144" x2="444" y2="360" class="solid"></line>
        <line x1="4" y1="360" x2="444" y2="360" class="solid"></line>
    </g>
    <g>
        <line x1="28" y1="56" x2="396" y2="56" class="solid"></line>
        <line x1="28" y1="56" x2="28" y2="296" class="solid"></line>
        <line x1="396" y1="56" x2="396" y2="64" class="solid"></line>
        <line x1="28" y1="296" x2="396" y2="296" class="solid"></line>
        <line x1="396" y1="288" x2="396" y2="296" class="solid"></line>
    </g>
    <g>
        <line x1="52" y1="120" x2="180" y2="120" class="solid"></line>
        <line x1="52" y1="120" x2="52" y2="280" class="solid"></line>
        <line x1="180" y1="120" x2="180" y2="128" class="solid"></line>
        <line x1="52" y1="280" x2="180" y2="280" class="solid"></line>
        <line x1="180" y1="272" x2="180" y2="280" class="solid"></line>
    </g>
    <g>
        <line x1="204" y1="120" x2="332" y2="120" class="solid"></line>
        <line x1="204" y1="120" x2="204" y2="128" class="solid"></line>
        <line x1="332" y1="120" x2="332" y2="128" class="solid"></line>
    </g>
    <g>
        <line x1="204" y1="272" x2="204" y2="280" class="solid"></line>
        <line x1="204" y1="280" x2="332" y2="280" class="solid"></line>
        <line x1="332" y1="272" x2="332" y2="280" class="solid"></line>
    </g>
</svg>