<svg xmlns="http://www.w3.org/2000/svg" width="608" height="208" style="background:#ffffff;border:1px solid #e5e5e5;border-radius:8px;max-width:100%;height:auto"><rect x="0" y="0" width="100%" height="100%" fill="#ffffff"/>
    <style>
        line, path, circle, rect, polygon{stroke:black;stroke-width:2;stroke-opacity:1;fill-opacity:1;stroke-linecap:round;stroke-linejoin:miter;}text{font-family:Iosevka Fixed, monospace;font-size:14px;}rect.backdrop{stroke:none;fill:transparent;}.broken{stroke-dasharray:8;}.filled{fill:black;}.bg_filled{fill:transparent;}.nofill{fill:transparent;}.end_marked_arrow{marker-end:url(#arrow);}.start_marked_arrow{marker-start:url(#arrow);}.end_marked_diamond{marker-end:url(#diamond);}.start_marked_diamond{marker-start:url(#diamond);}.end_marked_circle{marker-end:url(#circle);}.start_marked_circle{marker-start:url(#circle);}.end_marked_open_circle{marker-end:url(#open_circle);}.start_marked_open_circle{marker-start:url(#open_circle);}.end_marked_big_open_circle{marker-end:url(#big_open_circle);}.start_marked_big_open_circle{marker-start:url(#big_open_circle);}
        <!--separator-->
        
    </style>
    <defs>
        <marker id="arrow" viewBox="-2 -2 8 8" refX="4" refY="2" markerWidth="7" markerHeight="7" orient="auto-start-reverse">
            <polygon points="0,0 0,4 4,2 0,0"></polygon>
        </marker>
        <marker id="diamond" viewBox="-2 -2 8 8" refX="4" refY="2" markerWidth="7" markerHeight="7" orient="auto-start-reverse">
            <polygon points="0,2 2,0 4,2 2,4 0,2"></polygon>
        </marker>
        <marker id="circle" viewBox="0 0 8 8" refX="4" refY="4" markerWidth="7" markerHeight="7" orient="auto-start-reverse">
            <circle cx="4" cy="4" r="2" class="filled"></circle>
        </marker>
        <marker id="open_circle" viewBox="0 0 8 8" refX="4" refY="4" markerWidth="7" markerHeight="7" orient="auto-start-reverse">
            <circle cx="4" cy="4" r="2" class="bg_filled"></circle>
        </marker>
        <marker id="big_open_circle" viewBox="0 0 8 8" refX="4" refY="4" markerWidth="7" markerHeight="7" orient="auto-start-reverse">
            <circle cx="4" cy="4" r="3" class="bg_filled"></circle>
        </marker>
    </defs>
    <rect class="backdrop" x="0" y="0" width="608" height="208"></rect>
    <text x="162" y="12" >Security</text>
    <text x="234" y="12" >Groups</text>
    <line x1="160" y1="24" x2="296" y2="24" class="solid"></line>
    <text x="162" y="44" >Instance</text>
    <line x1="232" y1="32" x2="224" y2="48" class="solid"></line>
    <text x="234" y="44" >ENI</text>
    <text x="266" y="44" >level</text>
    <text x="162" y="60" >YES</text>
    <path d="M 200,48 A 16,16 0,0,0 200,64" class="nofill"></path>
    <text x="202" y="60" >return</text>
    <text x="258" y="60" >traffic</text>
    <text x="162" y="76" >aut</text>
    <circle cx="188" cy="72" r="3" class="nofill"></circle>
    <line x1="192" y1="72" x2="200" y2="72" class="solid"></line>
    <text x="202" y="76" >allowed</text>
    <path d="M 256,64 A 16,16 0,0,1 256,80" class="nofill"></path>
    <text x="162" y="92" >Allow</text>
    <text x="210" y="92" >only</text>
    <text x="162" y="108" >All</text>
    <text x="194" y="108" >rules</text>
    <text x="242" y="108" >evaluated</text>
    <text x="162" y="124" >together</text>
    <text x="162" y="140" >Deny</text>
    <text x="202" y="140" >all</text>
    <text x="234" y="140" >inbound,</text>
    <text x="162" y="156" >Allow</text>
    <text x="210" y="156" >all</text>
    <text x="242" y="156" >outbound</text>
    <text x="162" y="172" >Primary</text>
    <text x="226" y="172" >firewall</text>
    <text x="394" y="12" >NACLs</text>
    <line x1="384" y1="24" x2="528" y2="24" class="solid"></line>
    <text x="394" y="44" >Subnet</text>
    <text x="450" y="44" >level</text>
    <text x="394" y="60" >NO</text>
    <path d="M 424,48 A 16,16 0,0,0 424,64" class="nofill"></path>
    <text x="426" y="60" >must</text>
    <text x="466" y="60" >explicitly</text>
    <text x="394" y="76" >allow</text>
    <text x="442" y="76" >return</text>
    <text x="498" y="76" >traffic</text>
    <path d="M 552,64 A 16,16 0,0,1 552,80" class="nofill"></path>
    <text x="394" y="92" >Allow</text>
    <text x="442" y="92" >AND</text>
    <text x="474" y="92" >Deny</text>
    <text x="394" y="108" >Rules</text>
    <text x="442" y="108" >evaluated</text>
    <text x="522" y="108" >in</text>
    <text x="394" y="124" >number</text>
    <text x="450" y="124" >order</text>
    <path d="M 504,112 A 16,16 0,0,0 504,128" class="nofill"></path>
    <text x="506" y="124" >first</text>
    <text x="554" y="124" >match</text>
    <path d="M 592,112 A 16,16 0,0,1 592,128" class="nofill"></path>
    <text x="394" y="140" >Allow</text>
    <text x="442" y="140" >all</text>
    <text x="474" y="140" >inbound</text>
    <text x="538" y="140" >and</text>
    <text x="394" y="156" >outbound</text>
    <text x="394" y="172" >Broad</text>
    <text x="442" y="172" >deny</text>
    <text x="482" y="172" >rules</text>
    <path d="M 400,176 A 16,16 0,0,0 400,192" class="nofill"></path>
    <text x="402" y="188" >block</text>
    <text x="450" y="188" >IP</text>
    <text x="474" y="188" >ranges</text>
    <path d="M 520,176 A 16,16 0,0,1 520,192" class="nofill"></path>
    <text x="2" y="44" >Level:</text>
    <text x="2" y="60" >Stateful:</text>
    <text x="2" y="92" >Rules:</text>
    <text x="2" y="108" >Evaluation:</text>
    <text x="2" y="140" >Default:</text>
    <text x="2" y="172" >Best</text>
    <text x="42" y="172" >for:</text>
</svg>