<svg xmlns="http://www.w3.org/2000/svg" width="472" height="112" style="background:#ffffff;border:1px solid #e5e5e5;border-radius:8px;max-width:100%;height:auto"><rect x="0" y="0" width="100%" height="100%" fill="#ffffff"/>
    <style>
        line, path, circle, rect, polygon{stroke:black;stroke-width:2;stroke-opacity:1;fill-opacity:1;stroke-linecap:round;stroke-linejoin:miter;}text{font-family:Iosevka Fixed, monospace;font-size:14px;}rect.backdrop{stroke:none;fill:transparent;}.broken{stroke-dasharray:8;}.filled{fill:black;}.bg_filled{fill:transparent;}.nofill{fill:transparent;}.end_marked_arrow{marker-end:url(#arrow);}.start_marked_arrow{marker-start:url(#arrow);}.end_marked_diamond{marker-end:url(#diamond);}.start_marked_diamond{marker-start:url(#diamond);}.end_marked_circle{marker-end:url(#circle);}.start_marked_circle{marker-start:url(#circle);}.end_marked_open_circle{marker-end:url(#open_circle);}.start_marked_open_circle{marker-start:url(#open_circle);}.end_marked_big_open_circle{marker-end:url(#big_open_circle);}.start_marked_big_open_circle{marker-start:url(#big_open_circle);}
        <!--separator-->
        
    </style>
    <defs>
        <marker id="arrow" viewBox="-2 -2 8 8" refX="4" refY="2" markerWidth="7" markerHeight="7" orient="auto-start-reverse">
            <polygon points="0,0 0,4 4,2 0,0"></polygon>
        </marker>
        <marker id="diamond" viewBox="-2 -2 8 8" refX="4" refY="2" markerWidth="7" markerHeight="7" orient="auto-start-reverse">
            <polygon points="0,2 2,0 4,2 2,4 0,2"></polygon>
        </marker>
        <marker id="circle" viewBox="0 0 8 8" refX="4" refY="4" markerWidth="7" markerHeight="7" orient="auto-start-reverse">
            <circle cx="4" cy="4" r="2" class="filled"></circle>
        </marker>
        <marker id="open_circle" viewBox="0 0 8 8" refX="4" refY="4" markerWidth="7" markerHeight="7" orient="auto-start-reverse">
            <circle cx="4" cy="4" r="2" class="bg_filled"></circle>
        </marker>
        <marker id="big_open_circle" viewBox="0 0 8 8" refX="4" refY="4" markerWidth="7" markerHeight="7" orient="auto-start-reverse">
            <circle cx="4" cy="4" r="3" class="bg_filled"></circle>
        </marker>
    </defs>
    <rect class="backdrop" x="0" y="0" width="472" height="112"></rect>
    <rect x="4" y="8" width="88" height="80" class="solid nofill" rx="0"></rect>
    <text x="34" y="28" >User</text>
    <path d="M 24,48 A 16,16 0,0,0 24,64" class="nofill"></path>
    <text x="26" y="60" >human</text>
    <text x="26" y="76" >or</text>
    <text x="50" y="76" >svc</text>
    <path d="M 72,64 A 16,16 0,0,1 72,80" class="nofill"></path>
    <rect x="228" y="8" width="88" height="80" class="solid nofill" rx="0"></rect>
    <text x="258" y="28" >Role</text>
    <path d="M 240,48 A 16,16 0,0,0 240,64" class="nofill"></path>
    <text x="242" y="60" >assumable</text>
    <text x="242" y="76" >identity</text>
    <path d="M 304,64 A 16,16 0,0,1 304,80" class="nofill"></path>
    <rect x="340" y="8" width="120" height="80" class="solid nofill" rx="0"></rect>
    <text x="354" y="28" >Federated</text>
    <text x="354" y="44" >Identity</text>
    <path d="M 352,48 A 16,16 0,0,0 352,64" class="nofill"></path>
    <text x="354" y="60" >external</text>
    <text x="426" y="60" >IdP:</text>
    <text x="354" y="76" >SAML,</text>
    <text x="402" y="76" >OIDC</text>
    <path d="M 432,64 A 16,16 0,0,1 432,80" class="nofill"></path>
    <text x="138" y="28" >Group</text>
    <path d="M 128,48 A 16,16 0,0,0 128,64" class="nofill"></path>
    <text x="130" y="60" >collection</text>
    <line x1="212" y1="48" x2="212" y2="80" class="solid"></line>
    <text x="130" y="76" >of</text>
    <text x="154" y="76" >users</text>
    <path d="M 192,64 A 16,16 0,0,1 192,80" class="nofill"></path>
    <g>
        <line x1="116" y1="8" x2="204" y2="8" class="solid"></line>
        <line x1="116" y1="8" x2="116" y2="88" class="solid"></line>
        <line x1="204" y1="8" x2="204" y2="48" class="solid"></line>
        <line x1="116" y1="88" x2="204" y2="88" class="solid"></line>
        <line x1="204" y1="80" x2="204" y2="88" class="solid"></line>
    </g>
</svg>