<svg xmlns="http://www.w3.org/2000/svg" width="488" height="608" style="background:#ffffff;border:1px solid #e5e5e5;border-radius:8px;max-width:100%;height:auto"><rect x="0" y="0" width="100%" height="100%" fill="#ffffff"/>
    <style>
        line, path, circle, rect, polygon{stroke:black;stroke-width:2;stroke-opacity:1;fill-opacity:1;stroke-linecap:round;stroke-linejoin:miter;}text{font-family:Iosevka Fixed, monospace;font-size:14px;}rect.backdrop{stroke:none;fill:transparent;}.broken{stroke-dasharray:8;}.filled{fill:black;}.bg_filled{fill:transparent;}.nofill{fill:transparent;}.end_marked_arrow{marker-end:url(#arrow);}.start_marked_arrow{marker-start:url(#arrow);}.end_marked_diamond{marker-end:url(#diamond);}.start_marked_diamond{marker-start:url(#diamond);}.end_marked_circle{marker-end:url(#circle);}.start_marked_circle{marker-start:url(#circle);}.end_marked_open_circle{marker-end:url(#open_circle);}.start_marked_open_circle{marker-start:url(#open_circle);}.end_marked_big_open_circle{marker-end:url(#big_open_circle);}.start_marked_big_open_circle{marker-start:url(#big_open_circle);}
        <!--separator-->
        
    </style>
    <defs>
        <marker id="arrow" viewBox="-2 -2 8 8" refX="4" refY="2" markerWidth="7" markerHeight="7" orient="auto-start-reverse">
            <polygon points="0,0 0,4 4,2 0,0"></polygon>
        </marker>
        <marker id="diamond" viewBox="-2 -2 8 8" refX="4" refY="2" markerWidth="7" markerHeight="7" orient="auto-start-reverse">
            <polygon points="0,2 2,0 4,2 2,4 0,2"></polygon>
        </marker>
        <marker id="circle" viewBox="0 0 8 8" refX="4" refY="4" markerWidth="7" markerHeight="7" orient="auto-start-reverse">
            <circle cx="4" cy="4" r="2" class="filled"></circle>
        </marker>
        <marker id="open_circle" viewBox="0 0 8 8" refX="4" refY="4" markerWidth="7" markerHeight="7" orient="auto-start-reverse">
            <circle cx="4" cy="4" r="2" class="bg_filled"></circle>
        </marker>
        <marker id="big_open_circle" viewBox="0 0 8 8" refX="4" refY="4" markerWidth="7" markerHeight="7" orient="auto-start-reverse">
            <circle cx="4" cy="4" r="3" class="bg_filled"></circle>
        </marker>
    </defs>
    <rect class="backdrop" x="0" y="0" width="488" height="608"></rect>
    <rect x="148" y="56" width="120" height="48" class="solid nofill" rx="0"></rect>
    <text x="162" y="76" >Explicit</text>
    <text x="234" y="76" >DENY</text>
    <text x="162" y="92" >in</text>
    <text x="186" y="92" >any</text>
    <text x="218" y="92" >policy</text>
    <rect x="68" y="136" width="80" height="32" class="solid nofill" rx="0"></rect>
    <text x="82" y="156" >DENIED</text>
    <rect x="244" y="136" width="120" height="48" class="solid nofill" rx="0"></rect>
    <text x="290" y="156" >SCP</text>
    <text x="258" y="172" >allows</text>
    <text x="314" y="172" >it?</text>
    <rect x="148" y="216" width="120" height="64" class="solid nofill" rx="0"></rect>
    <text x="162" y="236" >Resource</text>
    <line x1="224" y1="232" x2="232" y2="232" class="solid"></line>
    <text x="162" y="252" >based</text>
    <text x="210" y="252" >policy</text>
    <text x="162" y="268" >allows</text>
    <text x="218" y="268" >it?</text>
    <rect x="356" y="216" width="80" height="32" class="solid nofill" rx="0"></rect>
    <text x="370" y="236" >DENIED</text>
    <rect x="260" y="312" width="120" height="64" class="solid nofill" rx="0"></rect>
    <text x="274" y="332" >Permission</text>
    <text x="274" y="348" >boundary</text>
    <text x="274" y="364" >allows</text>
    <text x="330" y="364" >it?</text>
    <rect x="84" y="504" width="80" height="32" class="solid nofill" rx="0"></rect>
    <text x="98" y="524" >ALLOWED</text>
    <rect x="268" y="504" width="80" height="32" class="solid nofill" rx="0"></rect>
    <text x="282" y="524" >DENIED</text>
    <text x="162" y="12" >Request</text>
    <text x="114" y="92" >YES</text>
    <text x="314" y="92" >NO</text>
    <text x="210" y="172" >YES</text>
    <text x="410" y="172" >NO</text>
    <text x="114" y="252" >YES</text>
    <text x="314" y="252" >NO</text>
    <path d="M 72,304 A 16,16 0,0,0 72,320" class="nofill"></path>
    <text x="74" y="316" >If</text>
    <text x="98" y="316" >same</text>
    <text x="138" y="316" >account:</text>
    <text x="74" y="332" >may</text>
    <text x="106" y="332" >be</text>
    <text x="130" y="332" >allowed</text>
    <path d="M 184,320 A 16,16 0,0,1 184,336" class="nofill"></path>
    <text x="226" y="348" >YES</text>
    <text x="426" y="348" >NO</text>
    <text x="178" y="428" >Identity</text>
    <line x1="240" y1="424" x2="248" y2="424" class="solid"></line>
    <line x1="276" y1="416" x2="276" y2="464" class="solid"></line>
    <text x="378" y="428" >DENIED</text>
    <text x="130" y="444" >YES</text>
    <text x="178" y="444" >based</text>
    <text x="226" y="444" >policy</text>
    <text x="322" y="444" >NO</text>
    <text x="178" y="460" >allows</text>
    <text x="234" y="460" >it?</text>
    <text x="226" y="12" >arrives</text>
    <text x="2" y="572" >Key</text>
    <text x="34" y="572" >rule:</text>
    <text x="82" y="572" >Default</text>
    <text x="74" y="588" >An</text>
    <text x="98" y="588" >Allow</text>
    <text x="146" y="572" >DENY.</text>
    <text x="194" y="572" >Explicit</text>
    <text x="266" y="572" >DENY</text>
    <text x="306" y="572" >always</text>
    <text x="362" y="572" >wins.</text>
    <text x="146" y="588" >is</text>
    <text x="170" y="588" >only</text>
    <text x="210" y="588" >effective</text>
    <text x="290" y="588" >if</text>
    <text x="314" y="588" >no</text>
    <text x="338" y="588" >Deny</text>
    <text x="378" y="588" >o</text>
    <polygon points="392,580 384,584 388,576" class="filled"></polygon>
    <text x="394" y="588" >errides</text>
    <text x="458" y="588" >it.</text>
    <g>
        <line x1="204" y1="16" x2="204" y2="36" class="solid"></line>
        <polygon points="200,36 208,36 204,48" class="filled"></polygon>
    </g>
    <g>
        <line x1="108" y1="72" x2="144" y2="72" class="solid"></line>
        <line x1="108" y1="72" x2="108" y2="116" class="solid"></line>
        <polygon points="104,116 112,116 108,128" class="filled"></polygon>
    </g>
    <g>
        <line x1="272" y1="72" x2="308" y2="72" class="solid"></line>
        <line x1="308" y1="72" x2="308" y2="116" class="solid"></line>
        <polygon points="304,116 312,116 308,128" class="filled"></polygon>
    </g>
    <g>
        <line x1="204" y1="152" x2="240" y2="152" class="solid"></line>
        <line x1="204" y1="152" x2="204" y2="196" class="solid"></line>
        <polygon points="200,196 208,196 204,208" class="filled"></polygon>
    </g>
    <g>
        <line x1="368" y1="152" x2="404" y2="152" class="solid"></line>
        <line x1="404" y1="152" x2="404" y2="196" class="solid"></line>
        <polygon points="400,196 408,196 404,208" class="filled"></polygon>
    </g>
    <g>
        <line x1="108" y1="232" x2="144" y2="232" class="solid"></line>
        <line x1="108" y1="232" x2="108" y2="292" class="solid"></line>
        <polygon points="104,292 112,292 108,304" class="filled"></polygon>
    </g>
    <g>
        <line x1="272" y1="232" x2="308" y2="232" class="solid"></line>
        <line x1="308" y1="232" x2="308" y2="292" class="solid"></line>
        <polygon points="304,292 312,292 308,304" class="filled"></polygon>
    </g>
    <g>
        <line x1="220" y1="328" x2="256" y2="328" class="solid"></line>
        <line x1="220" y1="328" x2="220" y2="388" class="solid"></line>
        <polygon points="216,388 224,388 220,400" class="filled"></polygon>
    </g>
    <g>
        <line x1="384" y1="328" x2="420" y2="328" class="solid"></line>
        <line x1="420" y1="328" x2="420" y2="388" class="solid"></line>
        <polygon points="416,388 424,388 420,400" class="filled"></polygon>
    </g>
    <g>
        <line x1="164" y1="408" x2="284" y2="408" class="solid"></line>
        <line x1="164" y1="408" x2="164" y2="472" class="solid"></line>
        <line x1="284" y1="408" x2="284" y2="416" class="solid"></line>
        <line x1="164" y1="472" x2="284" y2="472" class="solid"></line>
        <line x1="284" y1="464" x2="284" y2="472" class="solid"></line>
    </g>
    <g>
        <line x1="372" y1="408" x2="452" y2="408" class="solid"></line>
        <line x1="372" y1="408" x2="372" y2="416" class="solid"></line>
        <line x1="452" y1="408" x2="452" y2="416" class="solid"></line>
    </g>
    <g>
        <line x1="124" y1="424" x2="160" y2="424" class="solid"></line>
        <line x1="124" y1="424" x2="124" y2="484" class="solid"></line>
        <polygon points="120,484 128,484 124,496" class="filled"></polygon>
    </g>
    <g>
        <line x1="280" y1="424" x2="316" y2="424" class="solid"></line>
        <line x1="316" y1="424" x2="316" y2="464" class="solid"></line>
    </g>
    <g>
        <line x1="364" y1="416" x2="364" y2="440" class="solid"></line>
        <line x1="444" y1="416" x2="444" y2="440" class="solid"></line>
        <line x1="364" y1="440" x2="444" y2="440" class="solid"></line>
    </g>
    <g>
        <line x1="324" y1="464" x2="324" y2="484" class="solid"></line>
        <polygon points="320,484 328,484 324,496" class="filled"></polygon>
    </g>
</svg>