<svg xmlns="http://www.w3.org/2000/svg" width="512" height="304" style="background:#ffffff;border:1px solid #e5e5e5;border-radius:8px;max-width:100%;height:auto"><rect x="0" y="0" width="100%" height="100%" fill="#ffffff"/>
    <style>
        line, path, circle, rect, polygon{stroke:black;stroke-width:2;stroke-opacity:1;fill-opacity:1;stroke-linecap:round;stroke-linejoin:miter;}text{font-family:Iosevka Fixed, monospace;font-size:14px;}rect.backdrop{stroke:none;fill:transparent;}.broken{stroke-dasharray:8;}.filled{fill:black;}.bg_filled{fill:transparent;}.nofill{fill:transparent;}.end_marked_arrow{marker-end:url(#arrow);}.start_marked_arrow{marker-start:url(#arrow);}.end_marked_diamond{marker-end:url(#diamond);}.start_marked_diamond{marker-start:url(#diamond);}.end_marked_circle{marker-end:url(#circle);}.start_marked_circle{marker-start:url(#circle);}.end_marked_open_circle{marker-end:url(#open_circle);}.start_marked_open_circle{marker-start:url(#open_circle);}.end_marked_big_open_circle{marker-end:url(#big_open_circle);}.start_marked_big_open_circle{marker-start:url(#big_open_circle);}
        <!--separator-->
        
    </style>
    <defs>
        <marker id="arrow" viewBox="-2 -2 8 8" refX="4" refY="2" markerWidth="7" markerHeight="7" orient="auto-start-reverse">
            <polygon points="0,0 0,4 4,2 0,0"></polygon>
        </marker>
        <marker id="diamond" viewBox="-2 -2 8 8" refX="4" refY="2" markerWidth="7" markerHeight="7" orient="auto-start-reverse">
            <polygon points="0,2 2,0 4,2 2,4 0,2"></polygon>
        </marker>
        <marker id="circle" viewBox="0 0 8 8" refX="4" refY="4" markerWidth="7" markerHeight="7" orient="auto-start-reverse">
            <circle cx="4" cy="4" r="2" class="filled"></circle>
        </marker>
        <marker id="open_circle" viewBox="0 0 8 8" refX="4" refY="4" markerWidth="7" markerHeight="7" orient="auto-start-reverse">
            <circle cx="4" cy="4" r="2" class="bg_filled"></circle>
        </marker>
        <marker id="big_open_circle" viewBox="0 0 8 8" refX="4" refY="4" markerWidth="7" markerHeight="7" orient="auto-start-reverse">
            <circle cx="4" cy="4" r="3" class="bg_filled"></circle>
        </marker>
    </defs>
    <rect class="backdrop" x="0" y="0" width="512" height="304"></rect>
    <text x="2" y="12" >Zero</text>
    <text x="42" y="12" >Trust</text>
    <text x="90" y="12" >Principles</text>
    <text x="178" y="12" >in</text>
    <text x="202" y="12" >AWS:</text>
    <line x1="0" y1="24" x2="440" y2="24" class="solid"></line>
    <line x1="0" y1="28" x2="440" y2="28" class="solid"></line>
    <text x="2" y="60" >1.</text>
    <text x="26" y="60" >VERIFY</text>
    <text x="82" y="60" >EXPLICITLY</text>
    <line x1="24" y1="72" x2="32" y2="72" class="solid"></line>
    <text x="42" y="76" >Use</text>
    <text x="74" y="76" >IAM</text>
    <text x="106" y="76" >roles,</text>
    <text x="162" y="76" >not</text>
    <text x="194" y="76" >long</text>
    <line x1="224" y1="72" x2="232" y2="72" class="solid"></line>
    <text x="234" y="76" >lived</text>
    <line x1="24" y1="88" x2="32" y2="88" class="solid"></line>
    <text x="42" y="92" >MFA</text>
    <text x="74" y="92" >for</text>
    <text x="106" y="92" >all</text>
    <text x="138" y="92" >human</text>
    <text x="186" y="92" >access</text>
    <line x1="24" y1="104" x2="32" y2="104" class="solid"></line>
    <text x="42" y="108" >Validate</text>
    <text x="114" y="108" >JWTs</text>
    <text x="154" y="108" >at</text>
    <text x="178" y="108" >every</text>
    <text x="226" y="108" >API</text>
    <text x="282" y="76" >credentials</text>
    <text x="258" y="108" >boundary</text>
    <text x="2" y="140" >2.</text>
    <text x="26" y="140" >LEAST</text>
    <text x="74" y="140" >PRIVILEGE</text>
    <text x="154" y="140" >ACCESS</text>
    <line x1="24" y1="152" x2="32" y2="152" class="solid"></line>
    <text x="42" y="156" >Scope</text>
    <text x="90" y="156" >IAM</text>
    <text x="122" y="156" >policies</text>
    <text x="194" y="156" >to</text>
    <text x="218" y="156" >specific</text>
    <line x1="24" y1="168" x2="32" y2="168" class="solid"></line>
    <text x="42" y="172" >Use</text>
    <text x="74" y="172" >permission</text>
    <text x="162" y="172" >boundaries</text>
    <line x1="24" y1="184" x2="32" y2="184" class="solid"></line>
    <text x="42" y="188" >Review</text>
    <text x="98" y="188" >and</text>
    <text x="130" y="188" >remove</text>
    <text x="186" y="188" >unused</text>
    <text x="242" y="188" >permissions</text>
    <text x="290" y="156" >resources</text>
    <path d="M 344,176 A 16,16 0,0,0 344,192" class="nofill"></path>
    <text x="346" y="188" >IAM</text>
    <text x="378" y="188" >Access</text>
    <text x="434" y="188" >Analyzer</text>
    <path d="M 496,176 A 16,16 0,0,1 496,192" class="nofill"></path>
    <text x="2" y="220" >3.</text>
    <text x="26" y="220" >ASSUME</text>
    <text x="82" y="220" >BREACH</text>
    <line x1="24" y1="232" x2="32" y2="232" class="solid"></line>
    <text x="42" y="236" >Encrypt</text>
    <text x="106" y="236" >everything</text>
    <text x="194" y="236" >at</text>
    <text x="218" y="236" >rest</text>
    <text x="258" y="236" >and</text>
    <text x="290" y="236" >in</text>
    <text x="314" y="236" >transit</text>
    <line x1="24" y1="248" x2="32" y2="248" class="solid"></line>
    <text x="42" y="252" >Enable</text>
    <text x="98" y="252" >CloudTrail,</text>
    <text x="194" y="252" >GuardDuty,</text>
    <text x="282" y="252" >VPC</text>
    <text x="314" y="252" >Flow</text>
    <text x="354" y="252" >Logs</text>
    <line x1="24" y1="264" x2="32" y2="264" class="solid"></line>
    <text x="42" y="268" >Segment</text>
    <text x="106" y="268" >networks</text>
    <path d="M 184,256 A 16,16 0,0,0 184,272" class="nofill"></path>
    <text x="186" y="268" >private</text>
    <text x="250" y="268" >subnets,</text>
    <text x="322" y="268" >security</text>
    <text x="394" y="268" >groups</text>
    <path d="M 440,256 A 16,16 0,0,1 440,272" class="nofill"></path>
    <line x1="24" y1="280" x2="32" y2="280" class="solid"></line>
    <text x="42" y="284" >Use</text>
    <text x="74" y="284" >VPC</text>
    <text x="106" y="284" >endpoints</text>
    <text x="186" y="284" >to</text>
    <text x="210" y="284" >avoid</text>
    <text x="258" y="284" >internet</text>
    <text x="330" y="284" >exposure</text>
</svg>