<svg xmlns="http://www.w3.org/2000/svg" width="392" height="192" style="background:#ffffff;border:1px solid #e5e5e5;border-radius:8px;max-width:100%;height:auto"><rect x="0" y="0" width="100%" height="100%" fill="#ffffff"/>
    <style>
        line, path, circle, rect, polygon{stroke:black;stroke-width:2;stroke-opacity:1;fill-opacity:1;stroke-linecap:round;stroke-linejoin:miter;}text{font-family:Iosevka Fixed, monospace;font-size:14px;}rect.backdrop{stroke:none;fill:transparent;}.broken{stroke-dasharray:8;}.filled{fill:black;}.bg_filled{fill:transparent;}.nofill{fill:transparent;}.end_marked_arrow{marker-end:url(#arrow);}.start_marked_arrow{marker-start:url(#arrow);}.end_marked_diamond{marker-end:url(#diamond);}.start_marked_diamond{marker-start:url(#diamond);}.end_marked_circle{marker-end:url(#circle);}.start_marked_circle{marker-start:url(#circle);}.end_marked_open_circle{marker-end:url(#open_circle);}.start_marked_open_circle{marker-start:url(#open_circle);}.end_marked_big_open_circle{marker-end:url(#big_open_circle);}.start_marked_big_open_circle{marker-start:url(#big_open_circle);}
        <!--separator-->
        
    </style>
    <defs>
        <marker id="arrow" viewBox="-2 -2 8 8" refX="4" refY="2" markerWidth="7" markerHeight="7" orient="auto-start-reverse">
            <polygon points="0,0 0,4 4,2 0,0"></polygon>
        </marker>
        <marker id="diamond" viewBox="-2 -2 8 8" refX="4" refY="2" markerWidth="7" markerHeight="7" orient="auto-start-reverse">
            <polygon points="0,2 2,0 4,2 2,4 0,2"></polygon>
        </marker>
        <marker id="circle" viewBox="0 0 8 8" refX="4" refY="4" markerWidth="7" markerHeight="7" orient="auto-start-reverse">
            <circle cx="4" cy="4" r="2" class="filled"></circle>
        </marker>
        <marker id="open_circle" viewBox="0 0 8 8" refX="4" refY="4" markerWidth="7" markerHeight="7" orient="auto-start-reverse">
            <circle cx="4" cy="4" r="2" class="bg_filled"></circle>
        </marker>
        <marker id="big_open_circle" viewBox="0 0 8 8" refX="4" refY="4" markerWidth="7" markerHeight="7" orient="auto-start-reverse">
            <circle cx="4" cy="4" r="3" class="bg_filled"></circle>
        </marker>
    </defs>
    <rect class="backdrop" x="0" y="0" width="392" height="192"></rect>
    <text x="2" y="12" >Root</text>
    <path d="M 48,0 A 16,16 0,0,0 48,16" class="nofill"></path>
    <text x="50" y="12" >Management</text>
    <text x="138" y="12" >Account</text>
    <path d="M 192,0 A 16,16 0,0,1 192,16" class="nofill"></path>
    <circle cx="36" cy="24" r="4" class="nofill"></circle>
    <text x="42" y="28" >U:</text>
    <text x="66" y="28" >Production</text>
    <text x="66" y="44" >Account</text>
    <line x1="124" y1="32" x2="124" y2="64" class="broken"></line>
    <text x="138" y="44" >prod</text>
    <line x1="168" y1="40" x2="176" y2="40" class="solid"></line>
    <text x="178" y="44" >us</text>
    <text x="66" y="60" >Account</text>
    <text x="138" y="60" >prod</text>
    <line x1="168" y1="56" x2="176" y2="56" class="solid"></line>
    <text x="178" y="60" >eu</text>
    <circle cx="36" cy="72" r="4" class="nofill"></circle>
    <text x="42" y="76" >U:</text>
    <text x="66" y="76" >Development</text>
    <text x="66" y="92" >Account</text>
    <line x1="124" y1="80" x2="124" y2="112" class="broken"></line>
    <text x="138" y="92" >dev</text>
    <path d="M 176,80 A 16,16 0,0,0 176,96" class="nofill"></path>
    <text x="178" y="92" >345678901234</text>
    <path d="M 272,80 A 16,16 0,0,1 272,96" class="nofill"></path>
    <text x="66" y="108" >Account</text>
    <text x="138" y="108" >staging</text>
    <path d="M 208,96 A 16,16 0,0,0 208,112" class="nofill"></path>
    <text x="210" y="108" >456789012345</text>
    <path d="M 304,96 A 16,16 0,0,1 304,112" class="nofill"></path>
    <circle cx="36" cy="120" r="4" class="nofill"></circle>
    <text x="42" y="124" >U:</text>
    <text x="66" y="124" >Security</text>
    <text x="66" y="140" >Account:</text>
    <circle cx="36" cy="152" r="4" class="nofill"></circle>
    <text x="42" y="156" >U:</text>
    <text x="66" y="156" >Sandbox</text>
    <text x="66" y="172" >Account:</text>
    <text x="210" y="44" >123456789012</text>
    <text x="210" y="60" >234567890123</text>
    <text x="138" y="140" >security</text>
    <line x1="200" y1="136" x2="208" y2="136" class="solid"></line>
    <text x="210" y="140" >tooling</text>
    <path d="M 280,128 A 16,16 0,0,0 280,144" class="nofill"></path>
    <text x="282" y="140" >567890123456</text>
    <path d="M 376,128 A 16,16 0,0,1 376,144" class="nofill"></path>
    <text x="138" y="172" >experiments</text>
    <path d="M 240,160 A 16,16 0,0,0 240,176" class="nofill"></path>
    <text x="242" y="172" >678901234567</text>
    <path d="M 336,160 A 16,16 0,0,1 336,176" class="nofill"></path>
    <g>
        <line x1="4" y1="16" x2="4" y2="152" class="solid"></line>
        <line x1="4" y1="24" x2="24" y2="24" class="solid"></line>
        <line x1="4" y1="72" x2="24" y2="72" class="solid"></line>
        <line x1="4" y1="120" x2="24" y2="120" class="solid"></line>
        <line x1="4" y1="152" x2="24" y2="152" class="solid"></line>
    </g>
    <g>
        <line x1="36" y1="28" x2="36" y2="56" class="solid"></line>
        <line x1="36" y1="40" x2="56" y2="40" class="solid"></line>
        <line x1="36" y1="56" x2="56" y2="56" class="solid"></line>
    </g>
    <g>
        <line x1="36" y1="76" x2="36" y2="104" class="solid"></line>
        <line x1="36" y1="88" x2="56" y2="88" class="solid"></line>
        <line x1="36" y1="104" x2="56" y2="104" class="solid"></line>
    </g>
    <g>
        <line x1="36" y1="124" x2="36" y2="136" class="solid"></line>
        <line x1="36" y1="136" x2="56" y2="136" class="solid"></line>
    </g>
    <g>
        <line x1="36" y1="156" x2="36" y2="168" class="solid"></line>
        <line x1="36" y1="168" x2="56" y2="168" class="solid"></line>
    </g>
    <g>
        <path d="M 208,32 A 16,16 0,0,0 208,48" class="nofill"></path>
        <path d="M 208,48 A 16,16 0,0,0 208,64" class="nofill"></path>
    </g>
    <g>
        <path d="M 304,32 A 16,16 0,0,1 304,48" class="nofill"></path>
        <path d="M 304,48 A 16,16 0,0,1 304,64" class="nofill"></path>
    </g>
</svg>