<svg xmlns="http://www.w3.org/2000/svg" width="480" height="352" style="background:#ffffff;border:1px solid #e5e5e5;border-radius:8px;max-width:100%;height:auto"><rect x="0" y="0" width="100%" height="100%" fill="#ffffff"/>
    <style>
        line, path, circle, rect, polygon{stroke:black;stroke-width:2;stroke-opacity:1;fill-opacity:1;stroke-linecap:round;stroke-linejoin:miter;}text{font-family:Iosevka Fixed, monospace;font-size:14px;}rect.backdrop{stroke:none;fill:transparent;}.broken{stroke-dasharray:8;}.filled{fill:black;}.bg_filled{fill:transparent;}.nofill{fill:transparent;}.end_marked_arrow{marker-end:url(#arrow);}.start_marked_arrow{marker-start:url(#arrow);}.end_marked_diamond{marker-end:url(#diamond);}.start_marked_diamond{marker-start:url(#diamond);}.end_marked_circle{marker-end:url(#circle);}.start_marked_circle{marker-start:url(#circle);}.end_marked_open_circle{marker-end:url(#open_circle);}.start_marked_open_circle{marker-start:url(#open_circle);}.end_marked_big_open_circle{marker-end:url(#big_open_circle);}.start_marked_big_open_circle{marker-start:url(#big_open_circle);}
        <!--separator-->
        
    </style>
    <defs>
        <marker id="arrow" viewBox="-2 -2 8 8" refX="4" refY="2" markerWidth="7" markerHeight="7" orient="auto-start-reverse">
            <polygon points="0,0 0,4 4,2 0,0"></polygon>
        </marker>
        <marker id="diamond" viewBox="-2 -2 8 8" refX="4" refY="2" markerWidth="7" markerHeight="7" orient="auto-start-reverse">
            <polygon points="0,2 2,0 4,2 2,4 0,2"></polygon>
        </marker>
        <marker id="circle" viewBox="0 0 8 8" refX="4" refY="4" markerWidth="7" markerHeight="7" orient="auto-start-reverse">
            <circle cx="4" cy="4" r="2" class="filled"></circle>
        </marker>
        <marker id="open_circle" viewBox="0 0 8 8" refX="4" refY="4" markerWidth="7" markerHeight="7" orient="auto-start-reverse">
            <circle cx="4" cy="4" r="2" class="bg_filled"></circle>
        </marker>
        <marker id="big_open_circle" viewBox="0 0 8 8" refX="4" refY="4" markerWidth="7" markerHeight="7" orient="auto-start-reverse">
            <circle cx="4" cy="4" r="3" class="bg_filled"></circle>
        </marker>
    </defs>
    <rect class="backdrop" x="0" y="0" width="480" height="352"></rect>
    <text x="26" y="28" >1.</text>
    <text x="50" y="28" >SERVICE</text>
    <text x="114" y="28" >CONTROL</text>
    <text x="178" y="28" >POLICIES</text>
    <path d="M 256,16 A 16,16 0,0,0 256,32" class="nofill"></path>
    <text x="258" y="28" >SCPs</text>
    <path d="M 288,16 A 16,16 0,0,1 288,32" class="nofill"></path>
    <text x="50" y="44" >Organization</text>
    <line x1="144" y1="40" x2="152" y2="40" class="solid"></line>
    <text x="154" y="44" >level</text>
    <text x="202" y="44" >guardrails</text>
    <text x="26" y="92" >2.</text>
    <text x="50" y="92" >RESOURCE</text>
    <line x1="112" y1="88" x2="120" y2="88" class="solid"></line>
    <text x="122" y="92" >BASED</text>
    <text x="170" y="92" >POLICIES</text>
    <text x="50" y="108" >Attached</text>
    <text x="122" y="108" >to</text>
    <text x="146" y="108" >resources</text>
    <path d="M 232,96 A 16,16 0,0,0 232,112" class="nofill"></path>
    <text x="234" y="108" >S3</text>
    <text x="26" y="156" >3.</text>
    <text x="50" y="156" >PERMISSION</text>
    <text x="138" y="156" >BOUNDARIES</text>
    <text x="50" y="172" >Maximum</text>
    <text x="114" y="172" >permissions</text>
    <text x="210" y="172" >an</text>
    <text x="26" y="220" >4.</text>
    <text x="50" y="220" >IDENTITY</text>
    <line x1="112" y1="216" x2="120" y2="216" class="solid"></line>
    <text x="122" y="220" >BASED</text>
    <text x="170" y="220" >POLICIES</text>
    <text x="50" y="236" >Attached</text>
    <text x="122" y="236" >to</text>
    <text x="146" y="236" >users,</text>
    <text x="202" y="236" >groups,</text>
    <text x="26" y="284" >5.</text>
    <text x="50" y="284" >SESSION</text>
    <text x="114" y="284" >POLICIES</text>
    <text x="50" y="300" >Passed</text>
    <text x="106" y="300" >during</text>
    <text x="162" y="300" >AssumeRole</text>
    <text x="250" y="300" >or</text>
    <text x="274" y="300" >federation</text>
    <text x="50" y="316" >Further</text>
    <text x="114" y="316" >limits</text>
    <text x="170" y="316" >permissions</text>
    <text x="266" y="316" >for</text>
    <text x="298" y="316" >this</text>
    <text x="338" y="316" >session</text>
    <text x="258" y="108" >bucket,</text>
    <text x="322" y="108" >SQS</text>
    <text x="354" y="108" >queue,</text>
    <text x="410" y="108" >etc.</text>
    <path d="M 440,96 A 16,16 0,0,1 440,112" class="nofill"></path>
    <text x="234" y="172" >IAM</text>
    <text x="266" y="172" >entity</text>
    <text x="322" y="172" >can</text>
    <text x="354" y="172" >have</text>
    <text x="266" y="236" >or</text>
    <text x="290" y="236" >roles</text>
    <text x="50" y="60" >No one in this account can delete CloudTrail logs</text>
    <text x="50" y="124" >This bucket allows access from account 987654</text>
    <text x="50" y="188" >This role can never exceed S3 + DynamoDB access</text>
    <text x="50" y="252" >This role can read from S3 bucket X</text>
    <g>
        <line x1="4" y1="8" x2="468" y2="8" class="solid"></line>
        <line x1="4" y1="8" x2="4" y2="328" class="solid"></line>
        <line x1="468" y1="8" x2="468" y2="328" class="solid"></line>
        <line x1="4" y1="72" x2="468" y2="72" class="solid"></line>
        <line x1="4" y1="136" x2="468" y2="136" class="solid"></line>
        <line x1="4" y1="200" x2="468" y2="200" class="solid"></line>
        <line x1="4" y1="264" x2="468" y2="264" class="solid"></line>
        <line x1="4" y1="328" x2="468" y2="328" class="solid"></line>
    </g>
</svg>