<svg xmlns="http://www.w3.org/2000/svg" width="552" height="256" style="background:#ffffff;border:1px solid #e5e5e5;border-radius:8px;max-width:100%;height:auto"><rect x="0" y="0" width="100%" height="100%" fill="#ffffff"/>
    <style>
        line, path, circle, rect, polygon{stroke:black;stroke-width:2;stroke-opacity:1;fill-opacity:1;stroke-linecap:round;stroke-linejoin:miter;}text{font-family:Iosevka Fixed, monospace;font-size:14px;}rect.backdrop{stroke:none;fill:transparent;}.broken{stroke-dasharray:8;}.filled{fill:black;}.bg_filled{fill:transparent;}.nofill{fill:transparent;}.end_marked_arrow{marker-end:url(#arrow);}.start_marked_arrow{marker-start:url(#arrow);}.end_marked_diamond{marker-end:url(#diamond);}.start_marked_diamond{marker-start:url(#diamond);}.end_marked_circle{marker-end:url(#circle);}.start_marked_circle{marker-start:url(#circle);}.end_marked_open_circle{marker-end:url(#open_circle);}.start_marked_open_circle{marker-start:url(#open_circle);}.end_marked_big_open_circle{marker-end:url(#big_open_circle);}.start_marked_big_open_circle{marker-start:url(#big_open_circle);}
        <!--separator-->
        
    </style>
    <defs>
        <marker id="arrow" viewBox="-2 -2 8 8" refX="4" refY="2" markerWidth="7" markerHeight="7" orient="auto-start-reverse">
            <polygon points="0,0 0,4 4,2 0,0"></polygon>
        </marker>
        <marker id="diamond" viewBox="-2 -2 8 8" refX="4" refY="2" markerWidth="7" markerHeight="7" orient="auto-start-reverse">
            <polygon points="0,2 2,0 4,2 2,4 0,2"></polygon>
        </marker>
        <marker id="circle" viewBox="0 0 8 8" refX="4" refY="4" markerWidth="7" markerHeight="7" orient="auto-start-reverse">
            <circle cx="4" cy="4" r="2" class="filled"></circle>
        </marker>
        <marker id="open_circle" viewBox="0 0 8 8" refX="4" refY="4" markerWidth="7" markerHeight="7" orient="auto-start-reverse">
            <circle cx="4" cy="4" r="2" class="bg_filled"></circle>
        </marker>
        <marker id="big_open_circle" viewBox="0 0 8 8" refX="4" refY="4" markerWidth="7" markerHeight="7" orient="auto-start-reverse">
            <circle cx="4" cy="4" r="3" class="bg_filled"></circle>
        </marker>
    </defs>
    <rect class="backdrop" x="0" y="0" width="552" height="256"></rect>
    <rect x="316" y="40" width="224" height="176" class="solid nofill" rx="0"></rect>
    <text x="330" y="60" >Amazon</text>
    <text x="386" y="60" >Managed</text>
    <text x="450" y="60" >Grafana</text>
    <text x="370" y="76" >Dashboards</text>
    <path d="M 384,80 A 16,16 0,0,0 384,96" class="nofill"></path>
    <text x="386" y="92" >SLO,</text>
    <text x="426" y="92" >capacity</text>
    <path d="M 488,80 A 16,16 0,0,1 488,96" class="nofill"></path>
    <text x="370" y="108" >Alerting</text>
    <text x="442" y="108" >&gt;</text>
    <text x="458" y="108" >PagerDuty</text>
    <text x="338" y="140" >Data</text>
    <text x="378" y="140" >Sources:</text>
    <text x="370" y="156" >AMP</text>
    <path d="M 408,144 A 16,16 0,0,0 408,160" class="nofill"></path>
    <text x="410" y="156" >metrics</text>
    <text x="474" y="156" >PromQL</text>
    <path d="M 520,144 A 16,16 0,0,1 520,160" class="nofill"></path>
    <text x="370" y="172" >OpenSearch</text>
    <text x="466" y="172" >logs</text>
    <path d="M 496,160 A 16,16 0,0,1 496,176" class="nofill"></path>
    <line x1="372" y1="184" x2="384" y2="184" class="solid"></line>
    <text x="386" y="188" >Ray</text>
    <path d="M 424,176 A 16,16 0,0,0 424,192" class="nofill"></path>
    <text x="426" y="188" >traces</text>
    <path d="M 472,176 A 16,16 0,0,1 472,192" class="nofill"></path>
    <text x="370" y="204" >CloudWatch</text>
    <path d="M 464,192 A 16,16 0,0,0 464,208" class="nofill"></path>
    <text x="466" y="204" >infra</text>
    <path d="M 504,192 A 16,16 0,0,1 504,208" class="nofill"></path>
    <text x="154" y="12" >OBSERVABILITY</text>
    <text x="266" y="12" >PIPELINE</text>
    <path d="M 344,0 A 16,16 0,0,0 344,16" class="nofill"></path>
    <text x="346" y="12" >PROMETHEUS</text>
    <line x1="440" y1="0" x2="432" y2="16" class="solid"></line>
    <text x="450" y="12" >GRAFANA</text>
    <path d="M 504,0 A 16,16 0,0,1 504,16" class="nofill"></path>
    <text x="34" y="60" >App</text>
    <text x="162" y="60" >Amazon</text>
    <text x="218" y="60" >Managed</text>
    <line x1="40" y1="64" x2="32" y2="80" class="solid"></line>
    <text x="42" y="76" >metrics</text>
    <text x="162" y="76" >Prometheus</text>
    <text x="34" y="92" >endpoint</text>
    <path d="M 168,80 A 16,16 0,0,0 168,96" class="nofill"></path>
    <text x="170" y="92" >AMP</text>
    <path d="M 192,80 A 16,16 0,0,1 192,96" class="nofill"></path>
    <text x="34" y="140" >ADOT</text>
    <text x="162" y="140" >OpenSearch</text>
    <path d="M 40,144 A 16,16 0,0,0 40,160" class="nofill"></path>
    <text x="42" y="156" >logs</text>
    <path d="M 72,144 A 16,16 0,0,1 72,160" class="nofill"></path>
    <text x="162" y="156" >Service</text>
    <text x="34" y="204" >ADOT</text>
    <line x1="164" y1="200" x2="176" y2="200" class="solid"></line>
    <text x="178" y="204" >Ray</text>
    <path d="M 40,208 A 16,16 0,0,0 40,224" class="nofill"></path>
    <text x="42" y="220" >traces</text>
    <path d="M 88,208 A 16,16 0,0,1 88,224" class="nofill"></path>
    <g>
        <line x1="20" y1="40" x2="108" y2="40" class="solid"></line>
        <line x1="20" y1="40" x2="20" y2="104" class="solid"></line>
        <line x1="108" y1="40" x2="108" y2="104" class="solid"></line>
        <line x1="108" y1="72" x2="136" y2="72" class="solid"></line>
        <polygon points="136,68 144,72 136,76" class="filled"></polygon>
        <line x1="20" y1="104" x2="108" y2="104" class="solid"></line>
    </g>
    <g>
        <line x1="148" y1="40" x2="276" y2="40" class="solid"></line>
        <line x1="148" y1="40" x2="148" y2="104" class="solid"></line>
        <line x1="276" y1="40" x2="276" y2="104" class="solid"></line>
        <line x1="276" y1="72" x2="304" y2="72" class="solid"></line>
        <polygon points="304,68 312,72 304,76" class="filled"></polygon>
        <line x1="148" y1="104" x2="276" y2="104" class="solid"></line>
    </g>
    <g>
        <line x1="340" y1="64" x2="340" y2="128" class="solid"></line>
        <line x1="340" y1="72" x2="360" y2="72" class="solid"></line>
        <line x1="340" y1="104" x2="360" y2="104" class="solid"></line>
    </g>
    <g>
        <line x1="20" y1="120" x2="108" y2="120" class="solid"></line>
        <line x1="20" y1="120" x2="20" y2="168" class="solid"></line>
        <line x1="108" y1="120" x2="108" y2="168" class="solid"></line>
        <line x1="108" y1="136" x2="136" y2="136" class="solid"></line>
        <polygon points="136,132 144,136 136,140" class="filled"></polygon>
        <line x1="20" y1="168" x2="108" y2="168" class="solid"></line>
    </g>
    <g>
        <line x1="148" y1="120" x2="276" y2="120" class="solid"></line>
        <line x1="148" y1="120" x2="148" y2="168" class="solid"></line>
        <line x1="276" y1="120" x2="276" y2="168" class="solid"></line>
        <line x1="276" y1="136" x2="304" y2="136" class="solid"></line>
        <polygon points="304,132 312,136 304,140" class="filled"></polygon>
        <line x1="148" y1="168" x2="276" y2="168" class="solid"></line>
    </g>
    <g>
        <line x1="340" y1="144" x2="340" y2="200" class="solid"></line>
        <line x1="340" y1="152" x2="360" y2="152" class="solid"></line>
        <line x1="340" y1="168" x2="360" y2="168" class="solid"></line>
        <line x1="340" y1="184" x2="360" y2="184" class="solid"></line>
        <line x1="340" y1="200" x2="360" y2="200" class="solid"></line>
    </g>
    <g>
        <line x1="472" y1="144" x2="464" y2="160" class="solid"></line>
        <path d="M 464,160 A 16,16 0,0,0 464,176" class="nofill"></path>
    </g>
    <g>
        <line x1="20" y1="184" x2="108" y2="184" class="solid"></line>
        <line x1="20" y1="184" x2="20" y2="232" class="solid"></line>
        <line x1="108" y1="184" x2="108" y2="232" class="solid"></line>
        <line x1="108" y1="200" x2="136" y2="200" class="solid"></line>
        <polygon points="136,196 144,200 136,204" class="filled"></polygon>
        <line x1="20" y1="232" x2="108" y2="232" class="solid"></line>
    </g>
    <g>
        <line x1="148" y1="184" x2="276" y2="184" class="solid"></line>
        <line x1="148" y1="184" x2="148" y2="232" class="solid"></line>
        <line x1="276" y1="184" x2="276" y2="232" class="solid"></line>
        <line x1="276" y1="200" x2="304" y2="200" class="solid"></line>
        <polygon points="304,196 312,200 304,204" class="filled"></polygon>
        <line x1="148" y1="232" x2="276" y2="232" class="solid"></line>
    </g>
</svg>