<svg xmlns="http://www.w3.org/2000/svg" width="392" height="160" style="background:#ffffff;border:1px solid #e5e5e5;border-radius:8px;max-width:100%;height:auto"><rect x="0" y="0" width="100%" height="100%" fill="#ffffff"/>
    <style>
        line, path, circle, rect, polygon{stroke:black;stroke-width:2;stroke-opacity:1;fill-opacity:1;stroke-linecap:round;stroke-linejoin:miter;}text{font-family:Iosevka Fixed, monospace;font-size:14px;}rect.backdrop{stroke:none;fill:transparent;}.broken{stroke-dasharray:8;}.filled{fill:black;}.bg_filled{fill:transparent;}.nofill{fill:transparent;}.end_marked_arrow{marker-end:url(#arrow);}.start_marked_arrow{marker-start:url(#arrow);}.end_marked_diamond{marker-end:url(#diamond);}.start_marked_diamond{marker-start:url(#diamond);}.end_marked_circle{marker-end:url(#circle);}.start_marked_circle{marker-start:url(#circle);}.end_marked_open_circle{marker-end:url(#open_circle);}.start_marked_open_circle{marker-start:url(#open_circle);}.end_marked_big_open_circle{marker-end:url(#big_open_circle);}.start_marked_big_open_circle{marker-start:url(#big_open_circle);}
        <!--separator-->
        
    </style>
    <defs>
        <marker id="arrow" viewBox="-2 -2 8 8" refX="4" refY="2" markerWidth="7" markerHeight="7" orient="auto-start-reverse">
            <polygon points="0,0 0,4 4,2 0,0"></polygon>
        </marker>
        <marker id="diamond" viewBox="-2 -2 8 8" refX="4" refY="2" markerWidth="7" markerHeight="7" orient="auto-start-reverse">
            <polygon points="0,2 2,0 4,2 2,4 0,2"></polygon>
        </marker>
        <marker id="circle" viewBox="0 0 8 8" refX="4" refY="4" markerWidth="7" markerHeight="7" orient="auto-start-reverse">
            <circle cx="4" cy="4" r="2" class="filled"></circle>
        </marker>
        <marker id="open_circle" viewBox="0 0 8 8" refX="4" refY="4" markerWidth="7" markerHeight="7" orient="auto-start-reverse">
            <circle cx="4" cy="4" r="2" class="bg_filled"></circle>
        </marker>
        <marker id="big_open_circle" viewBox="0 0 8 8" refX="4" refY="4" markerWidth="7" markerHeight="7" orient="auto-start-reverse">
            <circle cx="4" cy="4" r="3" class="bg_filled"></circle>
        </marker>
    </defs>
    <rect class="backdrop" x="0" y="0" width="392" height="160"></rect>
    <text x="18" y="12" >MARKET</text>
    <text x="74" y="12" >SHARE</text>
    <path d="M 128,0 A 16,16 0,0,0 128,16" class="nofill"></path>
    <text x="130" y="12" >Approximate,</text>
    <text x="234" y="12" >2025</text>
    <path d="M 264,0 A 16,16 0,0,1 264,16" class="nofill"></path>
    <line x1="16" y1="22" x2="272" y2="22" class="solid"></line>
    <line x1="16" y1="26" x2="272" y2="26" class="solid"></line>
    <text x="18" y="60" >AWS</text>
    <text x="18" y="76" >Azure</text>
    <text x="18" y="92" >GCP</text>
    <text x="18" y="108" >Others</text>
    <rect x="80" y="48" width="8" height="16" class="solid filled" rx="0"></rect>
    <rect x="88" y="48" width="8" height="16" class="solid filled" rx="0"></rect>
    <rect x="96" y="48" width="8" height="16" class="solid filled" rx="0"></rect>
    <rect x="104" y="48" width="8" height="16" class="solid filled" rx="0"></rect>
    <rect x="112" y="48" width="8" height="16" class="solid filled" rx="0"></rect>
    <rect x="120" y="48" width="8" height="16" class="solid filled" rx="0"></rect>
    <rect x="128" y="48" width="8" height="16" class="solid filled" rx="0"></rect>
    <rect x="136" y="48" width="8" height="16" class="solid filled" rx="0"></rect>
    <rect x="144" y="48" width="8" height="16" class="solid filled" rx="0"></rect>
    <rect x="152" y="48" width="8" height="16" class="solid filled" rx="0"></rect>
    <rect x="160" y="48" width="8" height="16" class="solid filled" rx="0"></rect>
    <rect x="168" y="48" width="8" height="16" class="solid filled" rx="0"></rect>
    <rect x="176" y="48" width="8" height="16" class="solid filled" rx="0"></rect>
    <rect x="184" y="48" width="8" height="16" class="solid filled" rx="0"></rect>
    <rect x="192" y="48" width="8" height="16" class="solid filled" rx="0"></rect>
    <rect x="200" y="48" width="8" height="16" class="solid filled" rx="0"></rect>
    <rect x="208" y="48" width="8" height="16" class="solid filled" rx="0"></rect>
    <rect x="216" y="48" width="8" height="16" class="solid filled" rx="0"></rect>
    <rect x="224" y="48" width="8" height="16" class="solid filled" rx="0"></rect>
    <rect x="232" y="48" width="8" height="16" class="solid filled" rx="0"></rect>
    <rect x="240" y="48" width="8" height="16" class="solid filled" rx="0"></rect>
    <rect x="248" y="48" width="8" height="16" class="solid filled" rx="0"></rect>
    <rect x="256" y="48" width="8" height="16" class="solid filled" rx="0"></rect>
    <rect x="264" y="48" width="8" height="16" class="solid filled" rx="0"></rect>
    <rect x="272" y="48" width="8" height="16" class="solid filled" rx="0"></rect>
    <rect x="280" y="48" width="8" height="16" class="solid filled" rx="0"></rect>
    <rect x="288" y="48" width="8" height="16" class="solid filled" rx="0"></rect>
    <rect x="296" y="48" width="8" height="16" class="solid filled" rx="0"></rect>
    <rect x="304" y="48" width="8" height="16" class="solid filled" rx="0"></rect>
    <rect x="312" y="48" width="8" height="16" class="solid filled" rx="0"></rect>
    <rect x="320" y="48" width="8" height="16" class="solid filled" rx="0"></rect>
    <rect x="328" y="48" width="8" height="16" class="solid filled" rx="0"></rect>
    <rect x="80" y="64" width="8" height="16" class="solid filled" rx="0"></rect>
    <rect x="88" y="64" width="8" height="16" class="solid filled" rx="0"></rect>
    <rect x="96" y="64" width="8" height="16" class="solid filled" rx="0"></rect>
    <rect x="104" y="64" width="8" height="16" class="solid filled" rx="0"></rect>
    <rect x="112" y="64" width="8" height="16" class="solid filled" rx="0"></rect>
    <rect x="120" y="64" width="8" height="16" class="solid filled" rx="0"></rect>
    <rect x="128" y="64" width="8" height="16" class="solid filled" rx="0"></rect>
    <rect x="136" y="64" width="8" height="16" class="solid filled" rx="0"></rect>
    <rect x="144" y="64" width="8" height="16" class="solid filled" rx="0"></rect>
    <rect x="152" y="64" width="8" height="16" class="solid filled" rx="0"></rect>
    <rect x="160" y="64" width="8" height="16" class="solid filled" rx="0"></rect>
    <rect x="168" y="64" width="8" height="16" class="solid filled" rx="0"></rect>
    <rect x="176" y="64" width="8" height="16" class="solid filled" rx="0"></rect>
    <rect x="184" y="64" width="8" height="16" class="solid filled" rx="0"></rect>
    <rect x="192" y="64" width="8" height="16" class="solid filled" rx="0"></rect>
    <rect x="200" y="64" width="8" height="16" class="solid filled" rx="0"></rect>
    <rect x="208" y="64" width="8" height="16" class="solid filled" rx="0"></rect>
    <rect x="216" y="64" width="8" height="16" class="solid filled" rx="0"></rect>
    <rect x="224" y="64" width="8" height="16" class="solid filled" rx="0"></rect>
    <rect x="232" y="64" width="8" height="16" class="solid filled" rx="0"></rect>
    <rect x="240" y="64" width="8" height="16" class="solid filled" rx="0"></rect>
    <rect x="248" y="64" width="8" height="16" class="solid filled" rx="0"></rect>
    <rect x="256" y="64" width="8" height="16" class="solid filled" rx="0"></rect>
    <rect x="264" y="64" width="8" height="16" class="solid filled" rx="0"></rect>
    <rect x="272" y="64" width="8" height="16" class="solid filled" rx="0"></rect>
    <rect x="80" y="80" width="8" height="16" class="solid filled" rx="0"></rect>
    <rect x="88" y="80" width="8" height="16" class="solid filled" rx="0"></rect>
    <rect x="96" y="80" width="8" height="16" class="solid filled" rx="0"></rect>
    <rect x="104" y="80" width="8" height="16" class="solid filled" rx="0"></rect>
    <rect x="112" y="80" width="8" height="16" class="solid filled" rx="0"></rect>
    <rect x="120" y="80" width="8" height="16" class="solid filled" rx="0"></rect>
    <rect x="128" y="80" width="8" height="16" class="solid filled" rx="0"></rect>
    <rect x="136" y="80" width="8" height="16" class="solid filled" rx="0"></rect>
    <rect x="144" y="80" width="8" height="16" class="solid filled" rx="0"></rect>
    <rect x="152" y="80" width="8" height="16" class="solid filled" rx="0"></rect>
    <rect x="160" y="80" width="8" height="16" class="solid filled" rx="0"></rect>
    <rect x="80" y="96" width="8" height="16" class="solid filled" rx="0"></rect>
    <rect x="88" y="96" width="8" height="16" class="solid filled" rx="0"></rect>
    <rect x="96" y="96" width="8" height="16" class="solid filled" rx="0"></rect>
    <rect x="104" y="96" width="8" height="16" class="solid filled" rx="0"></rect>
    <rect x="112" y="96" width="8" height="16" class="solid filled" rx="0"></rect>
    <rect x="120" y="96" width="8" height="16" class="solid filled" rx="0"></rect>
    <rect x="128" y="96" width="8" height="16" class="solid filled" rx="0"></rect>
    <rect x="136" y="96" width="8" height="16" class="solid filled" rx="0"></rect>
    <rect x="144" y="96" width="8" height="16" class="solid filled" rx="0"></rect>
    <rect x="152" y="96" width="8" height="16" class="solid filled" rx="0"></rect>
    <rect x="160" y="96" width="8" height="16" class="solid filled" rx="0"></rect>
    <rect x="168" y="96" width="8" height="16" class="solid filled" rx="0"></rect>
    <rect x="176" y="96" width="8" height="16" class="solid filled" rx="0"></rect>
    <rect x="184" y="96" width="8" height="16" class="solid filled" rx="0"></rect>
    <rect x="192" y="96" width="8" height="16" class="solid filled" rx="0"></rect>
    <rect x="200" y="96" width="8" height="16" class="solid filled" rx="0"></rect>
    <rect x="208" y="96" width="8" height="16" class="solid filled" rx="0"></rect>
    <rect x="216" y="96" width="8" height="16" class="solid filled" rx="0"></rect>
    <rect x="224" y="96" width="8" height="16" class="solid filled" rx="0"></rect>
    <rect x="232" y="96" width="8" height="16" class="solid filled" rx="0"></rect>
    <rect x="240" y="96" width="8" height="16" class="solid filled" rx="0"></rect>
    <rect x="248" y="96" width="8" height="16" class="solid filled" rx="0"></rect>
    <rect x="256" y="96" width="8" height="16" class="solid filled" rx="0"></rect>
    <rect x="264" y="96" width="8" height="16" class="solid filled" rx="0"></rect>
    <rect x="272" y="96" width="8" height="16" class="solid filled" rx="0"></rect>
    <rect x="280" y="96" width="8" height="16" class="solid filled" rx="0"></rect>
    <rect x="288" y="96" width="8" height="16" class="solid filled" rx="0"></rect>
    <rect x="296" y="96" width="8" height="16" class="solid filled" rx="0"></rect>
    <rect x="304" y="96" width="8" height="16" class="solid filled" rx="0"></rect>
    <rect x="312" y="96" width="8" height="16" class="solid filled" rx="0"></rect>
    <rect x="320" y="96" width="8" height="16" class="solid filled" rx="0"></rect>
    <rect x="328" y="96" width="8" height="16" class="solid filled" rx="0"></rect>
    <rect x="336" y="96" width="8" height="16" class="solid filled" rx="0"></rect>
    <line x1="84" y1="112" x2="84" y2="128" class="solid"></line>
    <line x1="124" y1="112" x2="124" y2="128" class="solid"></line>
    <line x1="164" y1="112" x2="164" y2="128" class="solid"></line>
    <line x1="204" y1="112" x2="204" y2="128" class="solid"></line>
    <line x1="244" y1="112" x2="244" y2="128" class="solid"></line>
    <line x1="284" y1="112" x2="284" y2="128" class="solid"></line>
    <line x1="324" y1="112" x2="324" y2="128" class="solid"></line>
    <text x="82" y="140" >0%</text>
    <text x="122" y="140" >5%</text>
    <text x="162" y="140" >10%</text>
    <text x="202" y="140" >15%</text>
    <text x="242" y="140" >20%</text>
    <text x="282" y="140" >25%</text>
    <text x="322" y="140" >35%</text>
    <text x="354" y="60" >31%</text>
    <text x="354" y="76" >25%</text>
    <text x="354" y="92" >11%</text>
    <text x="362" y="108" >33%</text>
</svg>