<svg xmlns="http://www.w3.org/2000/svg" viewBox="0 0 690 555" width="690" height="555" style="background:#ffffff;border:1px solid #e5e5e5;border-radius:8px;max-width:100%;height:auto;font-family:Iosevka Fixed,ui-monospace,monospace"><rect x="0" y="0" width="690" height="555" fill="#ffffff"/><text x="71" y="46.3" font-size="24" fill="#1e1e1e" text-anchor="start" dominant-baseline="auto">Cloud Abstraction Layers</text><text x="71" y="67.0" font-size="15" fill="#757575" text-anchor="start" dominant-baseline="auto">From physics up to the user</text><rect x="41" y="81" width="460" height="38" rx="10" fill="#a5d8ff" fill-opacity="1.0" stroke="#2563eb" stroke-width="2"/><text x="271.0" y="105.8" font-size="16" fill="#1e1e1e" text-anchor="middle" dominant-baseline="auto">SaaS Application (Gmail, Salesforce)</text><text x="521" y="110.0" font-size="15" fill="#2563eb" text-anchor="start" dominant-baseline="auto">&lt;- User sees this</text><rect x="41" y="123" width="460" height="38" rx="10" fill="#a5d8ff" fill-opacity="1.0" stroke="#2563eb" stroke-width="2"/><text x="271.0" y="147.8" font-size="16" fill="#1e1e1e" text-anchor="middle" dominant-baseline="auto">PaaS Runtime (Heroku, App Engine)</text><rect x="41" y="165" width="460" height="38" rx="10" fill="#d0bfff" fill-opacity="1.0" stroke="#8b5cf6" stroke-width="2"/><text x="271.0" y="189.8" font-size="16" fill="#1e1e1e" text-anchor="middle" dominant-baseline="auto">Container Orchestration (Kubernetes)</text><rect x="41" y="207" width="460" height="38" rx="10" fill="#d0bfff" fill-opacity="1.0" stroke="#8b5cf6" stroke-width="2"/><text x="271.0" y="231.8" font-size="16" fill="#1e1e1e" text-anchor="middle" dominant-baseline="auto">Container Runtime (Docker, containerd)</text><rect x="41" y="249" width="460" height="38" rx="10" fill="#b2f2bb" fill-opacity="1.0" stroke="#15803d" stroke-width="2"/><text x="271.0" y="273.8" font-size="16" fill="#1e1e1e" text-anchor="middle" dominant-baseline="auto">Operating System (Linux kernel)</text><rect x="41" y="291" width="460" height="38" rx="10" fill="#b2f2bb" fill-opacity="1.0" stroke="#15803d" stroke-width="2"/><text x="271.0" y="315.8" font-size="16" fill="#1e1e1e" text-anchor="middle" dominant-baseline="auto">Hypervisor (KVM, Xen, Hyper-V)</text><rect x="41" y="333" width="460" height="38" rx="10" fill="#fff3bf" fill-opacity="1.0" stroke="#b45309" stroke-width="2"/><text x="271.0" y="357.8" font-size="16" fill="#1e1e1e" text-anchor="middle" dominant-baseline="auto">Hardware Abstraction (BIOS/UEFI, drivers)</text><rect x="41" y="375" width="460" height="38" rx="10" fill="#ffd8a8" fill-opacity="1.0" stroke="#b45309" stroke-width="2"/><text x="271.0" y="399.8" font-size="16" fill="#1e1e1e" text-anchor="middle" dominant-baseline="auto">CPU Architecture (x86-64, ARM)</text><rect x="41" y="417" width="460" height="38" rx="10" fill="#ffd8a8" fill-opacity="1.0" stroke="#b45309" stroke-width="2"/><text x="271.0" y="441.8" font-size="16" fill="#1e1e1e" text-anchor="middle" dominant-baseline="auto">Microarchitecture (pipeline, cache)</text><rect x="41" y="459" width="460" height="38" rx="10" fill="#ffc9c9" fill-opacity="1.0" stroke="#dc2626" stroke-width="2"/><text x="271.0" y="483.8" font-size="16" fill="#1e1e1e" text-anchor="middle" dominant-baseline="auto">Logic Gates (AND, OR, NOT, NAND)</text><rect x="41" y="501" width="460" height="38" rx="10" fill="#ffc9c9" fill-opacity="1.0" stroke="#dc2626" stroke-width="2"/><text x="271.0" y="525.8" font-size="16" fill="#1e1e1e" text-anchor="middle" dominant-baseline="auto">Transistors (MOSFET)</text><text x="521" y="530.0" font-size="15" fill="#dc2626" text-anchor="start" dominant-baseline="auto">&lt;- Physics here</text><line x1="16" y1="86" x2="16" y2="536" stroke="#757575" stroke-width="2"/><line x1="16" y1="536" x2="20.8" y2="527.2" stroke="#757575" stroke-width="2"/><line x1="16" y1="536" x2="11.2" y2="527.2" stroke="#757575" stroke-width="2"/><rect x="-33.3" y="299.8" width="98.6" height="21.0" fill="#ffffff"/><text x="16.0" y="316.1" font-size="14" fill="#555" text-anchor="middle" dominant-baseline="auto">abstraction</text></svg>