<svg xmlns="http://www.w3.org/2000/svg" width="472" height="240" style="background:#ffffff;border:1px solid #e5e5e5;border-radius:8px;max-width:100%;height:auto"><rect x="0" y="0" width="100%" height="100%" fill="#ffffff"/>
    <style>
        line, path, circle, rect, polygon{stroke:black;stroke-width:2;stroke-opacity:1;fill-opacity:1;stroke-linecap:round;stroke-linejoin:miter;}text{font-family:Iosevka Fixed, monospace;font-size:14px;}rect.backdrop{stroke:none;fill:transparent;}.broken{stroke-dasharray:8;}.filled{fill:black;}.bg_filled{fill:transparent;}.nofill{fill:transparent;}.end_marked_arrow{marker-end:url(#arrow);}.start_marked_arrow{marker-start:url(#arrow);}.end_marked_diamond{marker-end:url(#diamond);}.start_marked_diamond{marker-start:url(#diamond);}.end_marked_circle{marker-end:url(#circle);}.start_marked_circle{marker-start:url(#circle);}.end_marked_open_circle{marker-end:url(#open_circle);}.start_marked_open_circle{marker-start:url(#open_circle);}.end_marked_big_open_circle{marker-end:url(#big_open_circle);}.start_marked_big_open_circle{marker-start:url(#big_open_circle);}
        <!--separator-->
        
    </style>
    <defs>
        <marker id="arrow" viewBox="-2 -2 8 8" refX="4" refY="2" markerWidth="7" markerHeight="7" orient="auto-start-reverse">
            <polygon points="0,0 0,4 4,2 0,0"></polygon>
        </marker>
        <marker id="diamond" viewBox="-2 -2 8 8" refX="4" refY="2" markerWidth="7" markerHeight="7" orient="auto-start-reverse">
            <polygon points="0,2 2,0 4,2 2,4 0,2"></polygon>
        </marker>
        <marker id="circle" viewBox="0 0 8 8" refX="4" refY="4" markerWidth="7" markerHeight="7" orient="auto-start-reverse">
            <circle cx="4" cy="4" r="2" class="filled"></circle>
        </marker>
        <marker id="open_circle" viewBox="0 0 8 8" refX="4" refY="4" markerWidth="7" markerHeight="7" orient="auto-start-reverse">
            <circle cx="4" cy="4" r="2" class="bg_filled"></circle>
        </marker>
        <marker id="big_open_circle" viewBox="0 0 8 8" refX="4" refY="4" markerWidth="7" markerHeight="7" orient="auto-start-reverse">
            <circle cx="4" cy="4" r="3" class="bg_filled"></circle>
        </marker>
    </defs>
    <rect class="backdrop" x="0" y="0" width="472" height="240"></rect>
    <text x="18" y="12" >ABSTRACTION</text>
    <text x="114" y="12" >LEVEL</text>
    <text x="162" y="12" >vs</text>
    <text x="186" y="12" >CONTROL</text>
    <text x="250" y="12" >vs</text>
    <text x="274" y="12" >CONVENIENCE</text>
    <line x1="16" y1="22" x2="376" y2="22" class="solid"></line>
    <line x1="16" y1="26" x2="376" y2="26" class="solid"></line>
    <text x="170" y="60" >Control</text>
    <line x1="168" y1="72" x2="224" y2="72" class="solid"></line>
    <line x1="172" y1="80" x2="172" y2="176" class="solid"></line>
    <rect x="176" y="84" width="8" height="8" class="solid filled" rx="0"></rect>
    <line x1="180" y1="92" x2="180" y2="100" class="solid"></line>
    <rect x="184" y="84" width="8" height="8" class="solid filled" rx="0"></rect>
    <line x1="188" y1="92" x2="188" y2="100" class="solid"></line>
    <rect x="192" y="84" width="8" height="8" class="solid filled" rx="0"></rect>
    <line x1="196" y1="92" x2="196" y2="100" class="solid"></line>
    <rect x="200" y="84" width="8" height="8" class="solid filled" rx="0"></rect>
    <line x1="204" y1="92" x2="204" y2="100" class="solid"></line>
    <rect x="208" y="84" width="8" height="8" class="solid filled" rx="0"></rect>
    <line x1="220" y1="80" x2="220" y2="176" class="solid"></line>
    <rect x="176" y="100" width="8" height="8" class="solid filled" rx="0"></rect>
    <line x1="180" y1="108" x2="180" y2="116" class="solid"></line>
    <rect x="184" y="100" width="8" height="8" class="solid filled" rx="0"></rect>
    <line x1="188" y1="108" x2="188" y2="116" class="solid"></line>
    <rect x="192" y="100" width="8" height="8" class="solid filled" rx="0"></rect>
    <line x1="196" y1="108" x2="196" y2="116" class="solid"></line>
    <rect x="200" y="100" width="8" height="8" class="solid filled" rx="0"></rect>
    <rect x="176" y="116" width="8" height="8" class="solid filled" rx="0"></rect>
    <line x1="180" y1="124" x2="180" y2="132" class="solid"></line>
    <rect x="184" y="116" width="8" height="8" class="solid filled" rx="0"></rect>
    <line x1="188" y1="124" x2="188" y2="132" class="solid"></line>
    <rect x="192" y="116" width="8" height="8" class="solid filled" rx="0"></rect>
    <rect x="176" y="132" width="8" height="8" class="solid filled" rx="0"></rect>
    <line x1="180" y1="140" x2="180" y2="148" class="solid"></line>
    <rect x="184" y="132" width="8" height="8" class="solid filled" rx="0"></rect>
    <rect x="176" y="148" width="8" height="8" class="solid filled" rx="0"></rect>
    <text x="258" y="60" >Convenience</text>
    <line x1="256" y1="72" x2="344" y2="72" class="solid"></line>
    <line x1="260" y1="80" x2="260" y2="176" class="solid"></line>
    <rect x="264" y="84" width="8" height="8" class="solid filled" rx="0"></rect>
    <line x1="268" y1="92" x2="268" y2="100" class="solid"></line>
    <line x1="308" y1="80" x2="308" y2="176" class="solid"></line>
    <rect x="264" y="100" width="8" height="8" class="solid filled" rx="0"></rect>
    <line x1="268" y1="108" x2="268" y2="116" class="solid"></line>
    <rect x="272" y="100" width="8" height="8" class="solid filled" rx="0"></rect>
    <line x1="276" y1="108" x2="276" y2="116" class="solid"></line>
    <rect x="264" y="116" width="8" height="8" class="solid filled" rx="0"></rect>
    <line x1="268" y1="124" x2="268" y2="132" class="solid"></line>
    <rect x="272" y="116" width="8" height="8" class="solid filled" rx="0"></rect>
    <line x1="276" y1="124" x2="276" y2="132" class="solid"></line>
    <rect x="280" y="116" width="8" height="8" class="solid filled" rx="0"></rect>
    <line x1="284" y1="124" x2="284" y2="132" class="solid"></line>
    <rect x="264" y="132" width="8" height="8" class="solid filled" rx="0"></rect>
    <line x1="268" y1="140" x2="268" y2="148" class="solid"></line>
    <rect x="272" y="132" width="8" height="8" class="solid filled" rx="0"></rect>
    <line x1="276" y1="140" x2="276" y2="148" class="solid"></line>
    <rect x="280" y="132" width="8" height="8" class="solid filled" rx="0"></rect>
    <line x1="284" y1="140" x2="284" y2="148" class="solid"></line>
    <rect x="288" y="132" width="8" height="8" class="solid filled" rx="0"></rect>
    <line x1="292" y1="140" x2="292" y2="148" class="solid"></line>
    <rect x="264" y="148" width="8" height="8" class="solid filled" rx="0"></rect>
    <line x1="268" y1="156" x2="268" y2="164" class="solid"></line>
    <rect x="272" y="148" width="8" height="8" class="solid filled" rx="0"></rect>
    <line x1="276" y1="156" x2="276" y2="164" class="solid"></line>
    <rect x="280" y="148" width="8" height="8" class="solid filled" rx="0"></rect>
    <line x1="284" y1="156" x2="284" y2="164" class="solid"></line>
    <rect x="288" y="148" width="8" height="8" class="solid filled" rx="0"></rect>
    <line x1="292" y1="156" x2="292" y2="164" class="solid"></line>
    <rect x="296" y="148" width="8" height="8" class="solid filled" rx="0"></rect>
    <line x1="300" y1="156" x2="300" y2="164" class="solid"></line>
    <rect x="264" y="164" width="8" height="8" class="solid filled" rx="0"></rect>
    <rect x="272" y="164" width="8" height="8" class="solid filled" rx="0"></rect>
    <rect x="280" y="164" width="8" height="8" class="solid filled" rx="0"></rect>
    <rect x="288" y="164" width="8" height="8" class="solid filled" rx="0"></rect>
    <rect x="296" y="164" width="8" height="8" class="solid filled" rx="0"></rect>
    <text x="378" y="60" >Performance</text>
    <line x1="376" y1="72" x2="464" y2="72" class="solid"></line>
    <line x1="380" y1="80" x2="380" y2="176" class="solid"></line>
    <rect x="384" y="84" width="8" height="8" class="solid filled" rx="0"></rect>
    <line x1="388" y1="92" x2="388" y2="100" class="solid"></line>
    <rect x="392" y="84" width="8" height="8" class="solid filled" rx="0"></rect>
    <line x1="396" y1="92" x2="396" y2="100" class="solid"></line>
    <rect x="400" y="84" width="8" height="8" class="solid filled" rx="0"></rect>
    <line x1="404" y1="92" x2="404" y2="100" class="solid"></line>
    <rect x="408" y="84" width="8" height="8" class="solid filled" rx="0"></rect>
    <line x1="412" y1="92" x2="412" y2="100" class="solid"></line>
    <rect x="416" y="84" width="8" height="8" class="solid filled" rx="0"></rect>
    <line x1="428" y1="80" x2="428" y2="176" class="solid"></line>
    <rect x="384" y="100" width="8" height="8" class="solid filled" rx="0"></rect>
    <line x1="388" y1="108" x2="388" y2="116" class="solid"></line>
    <rect x="392" y="100" width="8" height="8" class="solid filled" rx="0"></rect>
    <line x1="396" y1="108" x2="396" y2="116" class="solid"></line>
    <rect x="400" y="100" width="8" height="8" class="solid filled" rx="0"></rect>
    <line x1="404" y1="108" x2="404" y2="116" class="solid"></line>
    <rect x="408" y="100" width="8" height="8" class="solid filled" rx="0"></rect>
    <line x1="412" y1="108" x2="412" y2="116" class="solid"></line>
    <rect x="384" y="116" width="8" height="8" class="solid filled" rx="0"></rect>
    <line x1="388" y1="124" x2="388" y2="132" class="solid"></line>
    <rect x="392" y="116" width="8" height="8" class="solid filled" rx="0"></rect>
    <line x1="396" y1="124" x2="396" y2="132" class="solid"></line>
    <rect x="400" y="116" width="8" height="8" class="solid filled" rx="0"></rect>
    <line x1="404" y1="124" x2="404" y2="132" class="solid"></line>
    <rect x="408" y="116" width="8" height="8" class="solid filled" rx="0"></rect>
    <rect x="384" y="132" width="8" height="8" class="solid filled" rx="0"></rect>
    <line x1="388" y1="140" x2="388" y2="148" class="solid"></line>
    <rect x="392" y="132" width="8" height="8" class="solid filled" rx="0"></rect>
    <line x1="396" y1="140" x2="396" y2="148" class="solid"></line>
    <rect x="400" y="132" width="8" height="8" class="solid filled" rx="0"></rect>
    <rect x="384" y="148" width="8" height="8" class="solid filled" rx="0"></rect>
    <line x1="388" y1="156" x2="388" y2="164" class="solid"></line>
    <rect x="392" y="148" width="8" height="8" class="solid filled" rx="0"></rect>
    <line x1="396" y1="156" x2="396" y2="164" class="solid"></line>
    <rect x="384" y="164" width="8" height="8" class="solid filled" rx="0"></rect>
    <rect x="392" y="164" width="8" height="8" class="solid filled" rx="0"></rect>
    <text x="18" y="92" >Bare</text>
    <text x="58" y="92" >Metal</text>
    <text x="18" y="108" >VM</text>
    <path d="M 48,96 A 16,16 0,0,0 48,112" class="nofill"></path>
    <text x="50" y="108" >IaaS</text>
    <path d="M 80,96 A 16,16 0,0,1 80,112" class="nofill"></path>
    <text x="18" y="124" >Container</text>
    <text x="18" y="140" >PaaS</text>
    <text x="18" y="156" >Serverless</text>
    <text x="18" y="172" >SaaS</text>
    <path d="M 104,112 A 16,16 0,0,0 104,128" class="nofill"></path>
    <text x="106" y="124" >CaaS</text>
    <path d="M 136,112 A 16,16 0,0,1 136,128" class="nofill"></path>
    <path d="M 112,144 A 16,16 0,0,0 112,160" class="nofill"></path>
    <text x="114" y="156" >FaaS</text>
    <path d="M 144,144 A 16,16 0,0,1 144,160" class="nofill"></path>
    <text x="18" y="204" >Moving</text>
    <text x="18" y="220" >Moving</text>
    <text x="74" y="204" >up</text>
    <text x="98" y="204" >the</text>
    <text x="130" y="204" >stack:</text>
    <text x="186" y="204" >less</text>
    <text x="226" y="204" >control,</text>
    <text x="298" y="204" >more</text>
    <text x="338" y="204" >convenience.</text>
    <text x="74" y="220" >down</text>
    <text x="114" y="220" >the</text>
    <text x="146" y="220" >stack:</text>
    <text x="202" y="220" >more</text>
    <text x="242" y="220" >control,</text>
    <text x="314" y="220" >less</text>
    <text x="354" y="220" >convenience.</text>
</svg>