<svg xmlns="http://www.w3.org/2000/svg" width="552" height="304" style="background:#ffffff;border:1px solid #e5e5e5;border-radius:8px;max-width:100%;height:auto"><rect x="0" y="0" width="100%" height="100%" fill="#ffffff"/>
    <style>
        line, path, circle, rect, polygon{stroke:black;stroke-width:2;stroke-opacity:1;fill-opacity:1;stroke-linecap:round;stroke-linejoin:miter;}text{font-family:Iosevka Fixed, monospace;font-size:14px;}rect.backdrop{stroke:none;fill:transparent;}.broken{stroke-dasharray:8;}.filled{fill:black;}.bg_filled{fill:transparent;}.nofill{fill:transparent;}.end_marked_arrow{marker-end:url(#arrow);}.start_marked_arrow{marker-start:url(#arrow);}.end_marked_diamond{marker-end:url(#diamond);}.start_marked_diamond{marker-start:url(#diamond);}.end_marked_circle{marker-end:url(#circle);}.start_marked_circle{marker-start:url(#circle);}.end_marked_open_circle{marker-end:url(#open_circle);}.start_marked_open_circle{marker-start:url(#open_circle);}.end_marked_big_open_circle{marker-end:url(#big_open_circle);}.start_marked_big_open_circle{marker-start:url(#big_open_circle);}
        <!--separator-->
        
    </style>
    <defs>
        <marker id="arrow" viewBox="-2 -2 8 8" refX="4" refY="2" markerWidth="7" markerHeight="7" orient="auto-start-reverse">
            <polygon points="0,0 0,4 4,2 0,0"></polygon>
        </marker>
        <marker id="diamond" viewBox="-2 -2 8 8" refX="4" refY="2" markerWidth="7" markerHeight="7" orient="auto-start-reverse">
            <polygon points="0,2 2,0 4,2 2,4 0,2"></polygon>
        </marker>
        <marker id="circle" viewBox="0 0 8 8" refX="4" refY="4" markerWidth="7" markerHeight="7" orient="auto-start-reverse">
            <circle cx="4" cy="4" r="2" class="filled"></circle>
        </marker>
        <marker id="open_circle" viewBox="0 0 8 8" refX="4" refY="4" markerWidth="7" markerHeight="7" orient="auto-start-reverse">
            <circle cx="4" cy="4" r="2" class="bg_filled"></circle>
        </marker>
        <marker id="big_open_circle" viewBox="0 0 8 8" refX="4" refY="4" markerWidth="7" markerHeight="7" orient="auto-start-reverse">
            <circle cx="4" cy="4" r="3" class="bg_filled"></circle>
        </marker>
    </defs>
    <rect class="backdrop" x="0" y="0" width="552" height="304"></rect>
    <text x="18" y="12" >VIRTUAL</text>
    <text x="82" y="12" >MACHINES</text>
    <line x1="16" y1="22" x2="144" y2="22" class="solid"></line>
    <line x1="16" y1="26" x2="144" y2="26" class="solid"></line>
    <text x="306" y="12" >CONTAINERS</text>
    <line x1="304" y1="22" x2="384" y2="22" class="solid"></line>
    <line x1="304" y1="26" x2="384" y2="26" class="solid"></line>
    <text x="34" y="76" >App</text>
    <text x="66" y="76" >A</text>
    <text x="114" y="76" >App</text>
    <text x="146" y="76" >B</text>
    <text x="194" y="76" >App</text>
    <text x="226" y="76" >C</text>
    <text x="34" y="108" >Libs</text>
    <text x="114" y="108" >Libs</text>
    <text x="194" y="108" >Libs</text>
    <text x="26" y="140" >Guest</text>
    <text x="106" y="140" >Guest</text>
    <text x="186" y="140" >Guest</text>
    <text x="42" y="156" >OS</text>
    <text x="122" y="156" >OS</text>
    <text x="202" y="156" >OS</text>
    <text x="82" y="188" >Hypervisor</text>
    <text x="58" y="220" >Physical</text>
    <text x="130" y="220" >Hardware</text>
    <text x="314" y="76" >App</text>
    <text x="346" y="76" >A</text>
    <text x="394" y="76" >App</text>
    <text x="426" y="76" >B</text>
    <text x="474" y="76" >App</text>
    <text x="506" y="76" >C</text>
    <text x="314" y="108" >Libs</text>
    <text x="394" y="108" >Libs</text>
    <text x="474" y="108" >Libs</text>
    <text x="322" y="140" >Container</text>
    <text x="402" y="140" >Runtime</text>
    <path d="M 472,128 A 16,16 0,0,0 472,144" class="nofill"></path>
    <text x="474" y="140" >Docker,</text>
    <line x1="540" y1="128" x2="540" y2="144" class="solid"></line>
    <text x="330" y="156" >containerd,</text>
    <text x="426" y="156" >CRI</text>
    <line x1="448" y1="152" x2="456" y2="152" class="solid"></line>
    <circle cx="460" cy="152" r="4" class="nofill"></circle>
    <path d="M 464,144 A 16,16 0,0,1 464,160" class="nofill"></path>
    <text x="354" y="188" >Host</text>
    <text x="394" y="188" >OS</text>
    <path d="M 424,176 A 16,16 0,0,0 424,192" class="nofill"></path>
    <text x="426" y="188" >Linux</text>
    <path d="M 464,176 A 16,16 0,0,1 464,192" class="nofill"></path>
    <line x1="540" y1="176" x2="540" y2="192" class="solid"></line>
    <text x="338" y="220" >Physical</text>
    <text x="410" y="220" >Hardware</text>
    <line x1="540" y1="208" x2="540" y2="224" class="solid"></line>
    <text x="18" y="268" >VM</text>
    <text x="42" y="268" >overhead:</text>
    <text x="138" y="268" >Full</text>
    <text x="18" y="284" >Container</text>
    <text x="98" y="284" >o</text>
    <text x="114" y="284" >erhead:</text>
    <text x="178" y="268" >OS</text>
    <text x="202" y="268" >per</text>
    <text x="178" y="284" >Shared</text>
    <text x="234" y="268" >VM</text>
    <path d="M 264,256 A 16,16 0,0,0 264,272" class="nofill"></path>
    <line x1="264" y1="264" x2="272" y2="264" class="broken"></line>
    <text x="274" y="268" >1</text>
    <line x1="280" y1="264" x2="288" y2="264" class="solid"></line>
    <text x="290" y="268" >10</text>
    <text x="314" y="268" >GB</text>
    <text x="338" y="268" >RAM,</text>
    <text x="378" y="268" >30s</text>
    <line x1="400" y1="264" x2="408" y2="264" class="solid"></line>
    <text x="410" y="268" >2min</text>
    <text x="450" y="268" >boot</text>
    <path d="M 480,256 A 16,16 0,0,1 480,272" class="nofill"></path>
    <text x="234" y="284" >kernel</text>
    <path d="M 296,272 A 16,16 0,0,0 296,288" class="nofill"></path>
    <line x1="296" y1="280" x2="304" y2="280" class="broken"></line>
    <text x="306" y="284" >10</text>
    <line x1="320" y1="280" x2="328" y2="280" class="solid"></line>
    <text x="330" y="284" >100</text>
    <text x="362" y="284" >MB,</text>
    <text x="394" y="284" >&lt;1s</text>
    <text x="426" y="284" >boot</text>
    <path d="M 456,272 A 16,16 0,0,1 456,288" class="nofill"></path>
    <g>
        <line x1="20" y1="56" x2="84" y2="56" class="solid"></line>
        <line x1="20" y1="56" x2="20" y2="232" class="solid"></line>
        <line x1="84" y1="56" x2="84" y2="168" class="solid"></line>
        <line x1="20" y1="88" x2="84" y2="88" class="solid"></line>
        <line x1="20" y1="120" x2="84" y2="120" class="solid"></line>
        <line x1="20" y1="168" x2="84" y2="168" class="solid"></line>
        <line x1="180" y1="56" x2="244" y2="56" class="solid"></line>
        <line x1="180" y1="56" x2="180" y2="168" class="solid"></line>
        <line x1="244" y1="56" x2="244" y2="232" class="solid"></line>
        <line x1="180" y1="88" x2="244" y2="88" class="solid"></line>
        <line x1="180" y1="120" x2="244" y2="120" class="solid"></line>
        <line x1="180" y1="168" x2="244" y2="168" class="solid"></line>
        <line x1="20" y1="200" x2="244" y2="200" class="solid"></line>
        <line x1="20" y1="232" x2="244" y2="232" class="solid"></line>
    </g>
    <g>
        <line x1="100" y1="56" x2="164" y2="56" class="solid"></line>
        <line x1="100" y1="56" x2="100" y2="168" class="solid"></line>
        <line x1="164" y1="56" x2="164" y2="168" class="solid"></line>
        <line x1="100" y1="88" x2="164" y2="88" class="solid"></line>
        <line x1="100" y1="120" x2="164" y2="120" class="solid"></line>
        <line x1="100" y1="168" x2="164" y2="168" class="solid"></line>
    </g>
    <g>
        <line x1="300" y1="56" x2="364" y2="56" class="solid"></line>
        <line x1="300" y1="56" x2="300" y2="232" class="solid"></line>
        <line x1="364" y1="56" x2="364" y2="120" class="solid"></line>
        <line x1="300" y1="88" x2="364" y2="88" class="solid"></line>
        <line x1="300" y1="120" x2="364" y2="120" class="solid"></line>
        <line x1="300" y1="200" x2="532" y2="200" class="solid"></line>
        <line x1="300" y1="232" x2="532" y2="232" class="solid"></line>
        <line x1="532" y1="144" x2="532" y2="168" class="solid"></line>
        <line x1="300" y1="168" x2="532" y2="168" class="solid"></line>
    </g>
    <g>
        <line x1="380" y1="56" x2="444" y2="56" class="solid"></line>
        <line x1="380" y1="56" x2="380" y2="120" class="solid"></line>
        <line x1="444" y1="56" x2="444" y2="120" class="solid"></line>
        <line x1="380" y1="88" x2="444" y2="88" class="solid"></line>
        <line x1="380" y1="120" x2="444" y2="120" class="solid"></line>
    </g>
    <g>
        <line x1="460" y1="56" x2="524" y2="56" class="solid"></line>
        <line x1="460" y1="56" x2="460" y2="120" class="solid"></line>
        <line x1="524" y1="56" x2="524" y2="120" class="solid"></line>
        <line x1="460" y1="88" x2="524" y2="88" class="solid"></line>
        <line x1="460" y1="120" x2="524" y2="120" class="solid"></line>
    </g>
    <g>
        <line x1="108" y1="272" x2="108" y2="276" class="solid"></line>
        <polygon points="104,276 112,276 108,288" class="filled"></polygon>
    </g>
</svg>