<svg xmlns="http://www.w3.org/2000/svg" width="528" height="272" style="background:#ffffff;border:1px solid #e5e5e5;border-radius:8px;max-width:100%;height:auto"><rect x="0" y="0" width="100%" height="100%" fill="#ffffff"/>
    <style>
        line, path, circle, rect, polygon{stroke:black;stroke-width:2;stroke-opacity:1;fill-opacity:1;stroke-linecap:round;stroke-linejoin:miter;}text{font-family:Iosevka Fixed, monospace;font-size:14px;}rect.backdrop{stroke:none;fill:transparent;}.broken{stroke-dasharray:8;}.filled{fill:black;}.bg_filled{fill:transparent;}.nofill{fill:transparent;}.end_marked_arrow{marker-end:url(#arrow);}.start_marked_arrow{marker-start:url(#arrow);}.end_marked_diamond{marker-end:url(#diamond);}.start_marked_diamond{marker-start:url(#diamond);}.end_marked_circle{marker-end:url(#circle);}.start_marked_circle{marker-start:url(#circle);}.end_marked_open_circle{marker-end:url(#open_circle);}.start_marked_open_circle{marker-start:url(#open_circle);}.end_marked_big_open_circle{marker-end:url(#big_open_circle);}.start_marked_big_open_circle{marker-start:url(#big_open_circle);}
        <!--separator-->
        
    </style>
    <defs>
        <marker id="arrow" viewBox="-2 -2 8 8" refX="4" refY="2" markerWidth="7" markerHeight="7" orient="auto-start-reverse">
            <polygon points="0,0 0,4 4,2 0,0"></polygon>
        </marker>
        <marker id="diamond" viewBox="-2 -2 8 8" refX="4" refY="2" markerWidth="7" markerHeight="7" orient="auto-start-reverse">
            <polygon points="0,2 2,0 4,2 2,4 0,2"></polygon>
        </marker>
        <marker id="circle" viewBox="0 0 8 8" refX="4" refY="4" markerWidth="7" markerHeight="7" orient="auto-start-reverse">
            <circle cx="4" cy="4" r="2" class="filled"></circle>
        </marker>
        <marker id="open_circle" viewBox="0 0 8 8" refX="4" refY="4" markerWidth="7" markerHeight="7" orient="auto-start-reverse">
            <circle cx="4" cy="4" r="2" class="bg_filled"></circle>
        </marker>
        <marker id="big_open_circle" viewBox="0 0 8 8" refX="4" refY="4" markerWidth="7" markerHeight="7" orient="auto-start-reverse">
            <circle cx="4" cy="4" r="3" class="bg_filled"></circle>
        </marker>
    </defs>
    <rect class="backdrop" x="0" y="0" width="528" height="272"></rect>
    <rect x="20" y="56" width="72" height="48" class="solid nofill" rx="0"></rect>
    <text x="34" y="76" >VM</text>
    <text x="58" y="76" >1</text>
    <text x="34" y="92" >VF</text>
    <text x="58" y="92" >1</text>
    <rect x="116" y="56" width="72" height="48" class="solid nofill" rx="0"></rect>
    <text x="130" y="76" >VM</text>
    <text x="154" y="76" >2</text>
    <text x="130" y="92" >VF</text>
    <text x="154" y="92" >2</text>
    <rect x="212" y="56" width="72" height="48" class="solid nofill" rx="0"></rect>
    <text x="226" y="76" >VM</text>
    <text x="250" y="76" >3</text>
    <text x="226" y="92" >VF</text>
    <text x="250" y="92" >3</text>
    <text x="18" y="12" >SR</text>
    <line x1="32" y1="8" x2="40" y2="8" class="solid"></line>
    <text x="42" y="12" >IOV</text>
    <text x="74" y="12" >ARCHITECTURE</text>
    <line x1="16" y1="22" x2="176" y2="22" class="solid"></line>
    <line x1="16" y1="26" x2="176" y2="26" class="solid"></line>
    <line x1="52" y1="96" x2="52" y2="144" class="solid"></line>
    <line x1="148" y1="96" x2="148" y2="144" class="solid"></line>
    <line x1="244" y1="96" x2="244" y2="144" class="solid"></line>
    <text x="42" y="156" >Physical</text>
    <text x="114" y="156" >NIC</text>
    <text x="146" y="156" >with</text>
    <text x="186" y="156" >SR</text>
    <line x1="200" y1="152" x2="208" y2="152" class="solid"></line>
    <text x="210" y="156" >IOV</text>
    <text x="42" y="172" >PF</text>
    <path d="M 72,160 A 16,16 0,0,0 72,176" class="nofill"></path>
    <text x="74" y="172" >Physical</text>
    <text x="146" y="172" >Function</text>
    <path d="M 208,160 A 16,16 0,0,1 208,176" class="nofill"></path>
    <text x="42" y="188" >VF1</text>
    <text x="98" y="188" >VF2</text>
    <text x="154" y="188" >VF3</text>
    <text x="338" y="92" >Direct</text>
    <text x="394" y="92" >hardware</text>
    <text x="466" y="92" >access</text>
    <text x="330" y="188" >Hardware</text>
    <line x1="392" y1="184" x2="400" y2="184" class="solid"></line>
    <text x="402" y="188" >level</text>
    <text x="450" y="188" >isolation</text>
    <text x="18" y="236" >Performance:</text>
    <text x="18" y="252" >Used</text>
    <text x="58" y="252" >by:</text>
    <text x="90" y="252" >AWS</text>
    <line x1="120" y1="232" x2="128" y2="232" class="broken"></line>
    <text x="130" y="236" >99%</text>
    <text x="162" y="236" >of</text>
    <text x="186" y="236" >bare</text>
    <text x="122" y="252" >Nitro</text>
    <path d="M 176,240 A 16,16 0,0,0 176,256" class="nofill"></path>
    <text x="178" y="252" >ENA</text>
    <path d="M 200,240 A 16,16 0,0,1 200,256" class="nofill"></path>
    <text x="210" y="252" >,</text>
    <text x="226" y="236" >metal</text>
    <text x="226" y="252" >Azure</text>
    <text x="274" y="252" >Accelerated</text>
    <text x="370" y="252" >Networking</text>
    <g>
        <line x1="20" y1="136" x2="284" y2="136" class="solid"></line>
        <line x1="20" y1="136" x2="20" y2="200" class="solid"></line>
        <line x1="276" y1="144" x2="276" y2="200" class="solid"></line>
        <line x1="20" y1="200" x2="276" y2="200" class="solid"></line>
    </g>
    <g>
        <polygon points="312,84 304,88 312,92" class="filled"></polygon>
        <line x1="312" y1="88" x2="328" y2="88" class="solid"></line>
    </g>
    <g>
        <polygon points="304,180 296,184 304,188" class="filled"></polygon>
        <line x1="304" y1="184" x2="320" y2="184" class="solid"></line>
    </g>
</svg>