<svg xmlns="http://www.w3.org/2000/svg" width="496" height="224" style="background:#ffffff;border:1px solid #e5e5e5;border-radius:8px;max-width:100%;height:auto"><rect x="0" y="0" width="100%" height="100%" fill="#ffffff"/>
    <style>
        line, path, circle, rect, polygon{stroke:black;stroke-width:2;stroke-opacity:1;fill-opacity:1;stroke-linecap:round;stroke-linejoin:miter;}text{font-family:Iosevka Fixed, monospace;font-size:14px;}rect.backdrop{stroke:none;fill:transparent;}.broken{stroke-dasharray:8;}.filled{fill:black;}.bg_filled{fill:transparent;}.nofill{fill:transparent;}.end_marked_arrow{marker-end:url(#arrow);}.start_marked_arrow{marker-start:url(#arrow);}.end_marked_diamond{marker-end:url(#diamond);}.start_marked_diamond{marker-start:url(#diamond);}.end_marked_circle{marker-end:url(#circle);}.start_marked_circle{marker-start:url(#circle);}.end_marked_open_circle{marker-end:url(#open_circle);}.start_marked_open_circle{marker-start:url(#open_circle);}.end_marked_big_open_circle{marker-end:url(#big_open_circle);}.start_marked_big_open_circle{marker-start:url(#big_open_circle);}
        <!--separator-->
        
    </style>
    <defs>
        <marker id="arrow" viewBox="-2 -2 8 8" refX="4" refY="2" markerWidth="7" markerHeight="7" orient="auto-start-reverse">
            <polygon points="0,0 0,4 4,2 0,0"></polygon>
        </marker>
        <marker id="diamond" viewBox="-2 -2 8 8" refX="4" refY="2" markerWidth="7" markerHeight="7" orient="auto-start-reverse">
            <polygon points="0,2 2,0 4,2 2,4 0,2"></polygon>
        </marker>
        <marker id="circle" viewBox="0 0 8 8" refX="4" refY="4" markerWidth="7" markerHeight="7" orient="auto-start-reverse">
            <circle cx="4" cy="4" r="2" class="filled"></circle>
        </marker>
        <marker id="open_circle" viewBox="0 0 8 8" refX="4" refY="4" markerWidth="7" markerHeight="7" orient="auto-start-reverse">
            <circle cx="4" cy="4" r="2" class="bg_filled"></circle>
        </marker>
        <marker id="big_open_circle" viewBox="0 0 8 8" refX="4" refY="4" markerWidth="7" markerHeight="7" orient="auto-start-reverse">
            <circle cx="4" cy="4" r="3" class="bg_filled"></circle>
        </marker>
    </defs>
    <rect class="backdrop" x="0" y="0" width="496" height="224"></rect>
    <rect x="116" y="56" width="72" height="32" class="solid nofill" rx="0"></rect>
    <text x="130" y="76" >VM</text>
    <text x="154" y="76" >2</text>
    <text x="18" y="12" >TYPE</text>
    <line x1="48" y1="8" x2="56" y2="8" class="solid"></line>
    <text x="58" y="12" >2</text>
    <text x="74" y="12" >HYPERVISOR</text>
    <text x="162" y="12" >ARCHITECTURE</text>
    <line x1="16" y1="22" x2="264" y2="22" class="solid"></line>
    <line x1="16" y1="26" x2="264" y2="26" class="solid"></line>
    <text x="34" y="76" >VM</text>
    <text x="58" y="76" >1</text>
    <text x="66" y="108" >HYPERVISOR</text>
    <line x1="204" y1="96" x2="204" y2="112" class="solid"></line>
    <text x="258" y="108" >Runs</text>
    <text x="298" y="108" >as</text>
    <path d="M 48,112 A 16,16 0,0,0 48,128" class="nofill"></path>
    <text x="50" y="124" >VirtualBox</text>
    <line x1="144" y1="112" x2="136" y2="128" class="solid"></line>
    <text x="154" y="124" >VMware</text>
    <text x="210" y="124" >Workstation</text>
    <line x1="312" y1="112" x2="304" y2="128" class="solid"></line>
    <text x="66" y="156" >HOST</text>
    <text x="106" y="156" >OS</text>
    <text x="42" y="188" >PHYSICAL</text>
    <text x="114" y="188" >HARDWARE</text>
    <text x="242" y="76" >Guest</text>
    <text x="290" y="76" >VMs</text>
    <text x="322" y="108" >an</text>
    <text x="346" y="108" >app</text>
    <text x="378" y="108" >on</text>
    <text x="402" y="108" >the</text>
    <text x="322" y="124" >Parallels</text>
    <path d="M 392,112 A 16,16 0,0,1 392,128" class="nofill"></path>
    <text x="434" y="108" >host</text>
    <text x="474" y="108" >OS</text>
    <text x="258" y="156" >Windows,</text>
    <text x="330" y="156" >macOS,</text>
    <text x="386" y="156" >Linux</text>
    <g>
        <line x1="20" y1="56" x2="92" y2="56" class="solid"></line>
        <line x1="20" y1="56" x2="20" y2="200" class="solid"></line>
        <line x1="92" y1="56" x2="92" y2="88" class="solid"></line>
        <line x1="20" y1="88" x2="92" y2="88" class="solid"></line>
        <line x1="20" y1="136" x2="204" y2="136" class="solid"></line>
        <line x1="204" y1="136" x2="204" y2="200" class="solid"></line>
        <line x1="20" y1="168" x2="204" y2="168" class="solid"></line>
        <line x1="20" y1="200" x2="204" y2="200" class="solid"></line>
    </g>
    <g>
        <polygon points="232,100 224,104 232,108" class="filled"></polygon>
        <line x1="232" y1="104" x2="248" y2="104" class="solid"></line>
    </g>
    <g>
        <polygon points="216,68 208,72 216,76" class="filled"></polygon>
        <line x1="216" y1="72" x2="232" y2="72" class="solid"></line>
    </g>
    <g>
        <polygon points="232,148 224,152 232,156" class="filled"></polygon>
        <line x1="232" y1="152" x2="248" y2="152" class="solid"></line>
    </g>
</svg>