<svg xmlns="http://www.w3.org/2000/svg" width="512" height="256" style="background:#ffffff;border:1px solid #e5e5e5;border-radius:8px;max-width:100%;height:auto"><rect x="0" y="0" width="100%" height="100%" fill="#ffffff"/>
    <style>
        line, path, circle, rect, polygon{stroke:black;stroke-width:2;stroke-opacity:1;fill-opacity:1;stroke-linecap:round;stroke-linejoin:miter;}text{font-family:Iosevka Fixed, monospace;font-size:14px;}rect.backdrop{stroke:none;fill:transparent;}.broken{stroke-dasharray:8;}.filled{fill:black;}.bg_filled{fill:transparent;}.nofill{fill:transparent;}.end_marked_arrow{marker-end:url(#arrow);}.start_marked_arrow{marker-start:url(#arrow);}.end_marked_diamond{marker-end:url(#diamond);}.start_marked_diamond{marker-start:url(#diamond);}.end_marked_circle{marker-end:url(#circle);}.start_marked_circle{marker-start:url(#circle);}.end_marked_open_circle{marker-end:url(#open_circle);}.start_marked_open_circle{marker-start:url(#open_circle);}.end_marked_big_open_circle{marker-end:url(#big_open_circle);}.start_marked_big_open_circle{marker-start:url(#big_open_circle);}
        <!--separator-->
        
    </style>
    <defs>
        <marker id="arrow" viewBox="-2 -2 8 8" refX="4" refY="2" markerWidth="7" markerHeight="7" orient="auto-start-reverse">
            <polygon points="0,0 0,4 4,2 0,0"></polygon>
        </marker>
        <marker id="diamond" viewBox="-2 -2 8 8" refX="4" refY="2" markerWidth="7" markerHeight="7" orient="auto-start-reverse">
            <polygon points="0,2 2,0 4,2 2,4 0,2"></polygon>
        </marker>
        <marker id="circle" viewBox="0 0 8 8" refX="4" refY="4" markerWidth="7" markerHeight="7" orient="auto-start-reverse">
            <circle cx="4" cy="4" r="2" class="filled"></circle>
        </marker>
        <marker id="open_circle" viewBox="0 0 8 8" refX="4" refY="4" markerWidth="7" markerHeight="7" orient="auto-start-reverse">
            <circle cx="4" cy="4" r="2" class="bg_filled"></circle>
        </marker>
        <marker id="big_open_circle" viewBox="0 0 8 8" refX="4" refY="4" markerWidth="7" markerHeight="7" orient="auto-start-reverse">
            <circle cx="4" cy="4" r="3" class="bg_filled"></circle>
        </marker>
    </defs>
    <rect class="backdrop" x="0" y="0" width="512" height="256"></rect>
    <text x="18" y="12" >COMBINED</text>
    <text x="90" y="12" >AVAILABILITY</text>
    <line x1="16" y1="22" x2="184" y2="22" class="solid"></line>
    <line x1="16" y1="26" x2="184" y2="26" class="solid"></line>
    <text x="18" y="60" >[LB]</text>
    <text x="90" y="60" >[Web</text>
    <path d="M 136,48 A 16,16 0,0,0 136,64" class="nofill"></path>
    <text x="138" y="60" >x3</text>
    <path d="M 152,48 A 16,16 0,0,1 152,64" class="nofill"></path>
    <text x="162" y="60" >]</text>
    <text x="210" y="60" >[App</text>
    <path d="M 256,48 A 16,16 0,0,0 256,64" class="nofill"></path>
    <text x="258" y="60" >x3</text>
    <path d="M 272,48 A 16,16 0,0,1 272,64" class="nofill"></path>
    <text x="282" y="60" >]</text>
    <text x="330" y="60" >[DB</text>
    <text x="362" y="60" >Primary</text>
    <text x="426" y="60" >+</text>
    <text x="442" y="60" >Standby]</text>
    <text x="18" y="92" >Web</text>
    <text x="50" y="92" >tier</text>
    <line x1="84" y1="80" x2="84" y2="112" class="broken"></line>
    <text x="18" y="108" >App</text>
    <text x="50" y="108" >tier</text>
    <text x="18" y="124" >DB</text>
    <text x="42" y="124" >tier:</text>
    <text x="18" y="140" >LB:</text>
    <text x="106" y="92" >1</text>
    <line x1="120" y1="88" x2="128" y2="88" class="solid"></line>
    <text x="146" y="92" >0.01</text>
    <text x="186" y="92" >^3</text>
    <line x1="208" y1="86" x2="216" y2="86" class="solid"></line>
    <line x1="208" y1="90" x2="216" y2="90" class="solid"></line>
    <text x="226" y="92" >99.9999%</text>
    <text x="106" y="108" >1</text>
    <line x1="120" y1="104" x2="128" y2="104" class="solid"></line>
    <text x="146" y="108" >0.01</text>
    <text x="186" y="108" >^3</text>
    <line x1="208" y1="102" x2="216" y2="102" class="solid"></line>
    <line x1="208" y1="106" x2="216" y2="106" class="solid"></line>
    <text x="226" y="108" >99.9999%</text>
    <text x="106" y="124" >1</text>
    <line x1="120" y1="120" x2="128" y2="120" class="solid"></line>
    <text x="146" y="124" >0.01</text>
    <text x="186" y="124" >^2</text>
    <line x1="208" y1="118" x2="216" y2="118" class="solid"></line>
    <line x1="208" y1="122" x2="216" y2="122" class="solid"></line>
    <text x="226" y="124" >99.99%</text>
    <text x="106" y="140" >99.99%</text>
    <path d="M 168,128 A 16,16 0,0,0 168,144" class="nofill"></path>
    <text x="170" y="140" >managed</text>
    <text x="234" y="140" >service</text>
    <text x="298" y="140" >SLA</text>
    <path d="M 320,128 A 16,16 0,0,1 320,144" class="nofill"></path>
    <text x="18" y="172" >Overall</text>
    <line x1="80" y1="166" x2="88" y2="166" class="solid"></line>
    <line x1="80" y1="170" x2="88" y2="170" class="solid"></line>
    <line x1="80" y1="182" x2="88" y2="182" class="solid"></line>
    <line x1="80" y1="186" x2="88" y2="186" class="solid"></line>
    <text x="98" y="172" >0.999999</text>
    <text x="98" y="188" >0.9998</text>
    <line x1="152" y1="182" x2="160" y2="182" class="solid"></line>
    <line x1="152" y1="186" x2="160" y2="186" class="solid"></line>
    <text x="170" y="172" >*</text>
    <text x="186" y="172" >0.999999</text>
    <text x="170" y="188" >99.98%</text>
    <text x="258" y="172" >*</text>
    <text x="274" y="172" >0.9999</text>
    <text x="330" y="172" >*</text>
    <text x="346" y="172" >0.9999</text>
    <text x="18" y="220" >The</text>
    <text x="50" y="220" >weakest</text>
    <text x="114" y="220" >link</text>
    <path d="M 160,208 A 16,16 0,0,0 160,224" class="nofill"></path>
    <text x="162" y="220" >database</text>
    <text x="234" y="220" >with</text>
    <text x="274" y="220" >only</text>
    <text x="18" y="236" >dominates</text>
    <text x="98" y="236" >the</text>
    <text x="130" y="236" >overall</text>
    <text x="194" y="236" >availability.</text>
    <text x="314" y="220" >2x</text>
    <text x="338" y="220" >redundancy</text>
    <path d="M 416,208 A 16,16 0,0,1 416,224" class="nofill"></path>
    <g>
        <line x1="56" y1="56" x2="72" y2="56" class="solid"></line>
        <polygon points="72,52 80,56 72,60" class="filled"></polygon>
    </g>
    <g>
        <line x1="176" y1="56" x2="192" y2="56" class="solid"></line>
        <polygon points="192,52 200,56 192,60" class="filled"></polygon>
    </g>
    <g>
        <line x1="296" y1="56" x2="312" y2="56" class="solid"></line>
        <polygon points="312,52 320,56 312,60" class="filled"></polygon>
    </g>
    <g>
        <path d="M 144,80 A 16,16 0,0,0 144,96" class="nofill"></path>
        <path d="M 144,96 A 16,16 0,0,0 144,112" class="nofill"></path>
        <path d="M 144,112 A 16,16 0,0,0 144,128" class="nofill"></path>
    </g>
    <g>
        <path d="M 176,80 A 16,16 0,0,1 176,96" class="nofill"></path>
        <path d="M 176,96 A 16,16 0,0,1 176,112" class="nofill"></path>
        <path d="M 176,112 A 16,16 0,0,1 176,128" class="nofill"></path>
    </g>
</svg>