<svg xmlns="http://www.w3.org/2000/svg" width="464" height="336" style="background:#ffffff;border:1px solid #e5e5e5;border-radius:8px;max-width:100%;height:auto"><rect x="0" y="0" width="100%" height="100%" fill="#ffffff"/>
    <style>
        line, path, circle, rect, polygon{stroke:black;stroke-width:2;stroke-opacity:1;fill-opacity:1;stroke-linecap:round;stroke-linejoin:miter;}text{font-family:Iosevka Fixed, monospace;font-size:14px;}rect.backdrop{stroke:none;fill:transparent;}.broken{stroke-dasharray:8;}.filled{fill:black;}.bg_filled{fill:transparent;}.nofill{fill:transparent;}.end_marked_arrow{marker-end:url(#arrow);}.start_marked_arrow{marker-start:url(#arrow);}.end_marked_diamond{marker-end:url(#diamond);}.start_marked_diamond{marker-start:url(#diamond);}.end_marked_circle{marker-end:url(#circle);}.start_marked_circle{marker-start:url(#circle);}.end_marked_open_circle{marker-end:url(#open_circle);}.start_marked_open_circle{marker-start:url(#open_circle);}.end_marked_big_open_circle{marker-end:url(#big_open_circle);}.start_marked_big_open_circle{marker-start:url(#big_open_circle);}
        <!--separator-->
        
    </style>
    <defs>
        <marker id="arrow" viewBox="-2 -2 8 8" refX="4" refY="2" markerWidth="7" markerHeight="7" orient="auto-start-reverse">
            <polygon points="0,0 0,4 4,2 0,0"></polygon>
        </marker>
        <marker id="diamond" viewBox="-2 -2 8 8" refX="4" refY="2" markerWidth="7" markerHeight="7" orient="auto-start-reverse">
            <polygon points="0,2 2,0 4,2 2,4 0,2"></polygon>
        </marker>
        <marker id="circle" viewBox="0 0 8 8" refX="4" refY="4" markerWidth="7" markerHeight="7" orient="auto-start-reverse">
            <circle cx="4" cy="4" r="2" class="filled"></circle>
        </marker>
        <marker id="open_circle" viewBox="0 0 8 8" refX="4" refY="4" markerWidth="7" markerHeight="7" orient="auto-start-reverse">
            <circle cx="4" cy="4" r="2" class="bg_filled"></circle>
        </marker>
        <marker id="big_open_circle" viewBox="0 0 8 8" refX="4" refY="4" markerWidth="7" markerHeight="7" orient="auto-start-reverse">
            <circle cx="4" cy="4" r="3" class="bg_filled"></circle>
        </marker>
    </defs>
    <rect class="backdrop" x="0" y="0" width="464" height="336"></rect>
    <rect x="44" y="104" width="128" height="64" class="solid nofill" rx="0"></rect>
    <text x="58" y="124" >Rack</text>
    <text x="98" y="124" >1</text>
    <text x="122" y="124" >Rack</text>
    <text x="162" y="124" >2</text>
    <text x="58" y="140" >[S][S]</text>
    <text x="122" y="140" >[S][S]</text>
    <text x="58" y="156" >[S][S]</text>
    <text x="122" y="156" >[S][S]</text>
    <rect x="196" y="104" width="128" height="64" class="solid nofill" rx="0"></rect>
    <text x="210" y="124" >Rack</text>
    <text x="250" y="124" >1</text>
    <text x="274" y="124" >Rack</text>
    <text x="314" y="124" >2</text>
    <text x="210" y="140" >[S][S]</text>
    <text x="274" y="140" >[S][S]</text>
    <text x="210" y="156" >[S][S]</text>
    <text x="274" y="156" >[S][S]</text>
    <rect x="348" y="104" width="80" height="64" class="solid nofill" rx="0"></rect>
    <text x="362" y="124" >Rack</text>
    <text x="402" y="124" >1</text>
    <text x="362" y="140" >[S][S]</text>
    <text x="362" y="156" >[S][S]</text>
    <text x="18" y="12" >AWS</text>
    <text x="50" y="12" >FAILURE</text>
    <text x="114" y="12" >DOMAIN</text>
    <text x="170" y="12" >HIERARCHY</text>
    <line x1="16" y1="22" x2="248" y2="22" class="solid"></line>
    <line x1="16" y1="26" x2="248" y2="26" class="solid"></line>
    <text x="18" y="60" >Region:</text>
    <text x="82" y="60" >us</text>
    <line x1="96" y1="56" x2="104" y2="56" class="solid"></line>
    <text x="106" y="60" >east</text>
    <line x1="136" y1="56" x2="144" y2="56" class="solid"></line>
    <text x="146" y="60" >1</text>
    <path d="M 168,48 A 16,16 0,0,0 168,64" class="nofill"></path>
    <text x="170" y="60" >N.</text>
    <text x="194" y="60" >Virginia</text>
    <path d="M 256,48 A 16,16 0,0,1 256,64" class="nofill"></path>
    <text x="42" y="92" >AZ:</text>
    <text x="74" y="92" >us</text>
    <line x1="88" y1="88" x2="96" y2="88" class="solid"></line>
    <text x="98" y="92" >east</text>
    <line x1="128" y1="88" x2="136" y2="88" class="solid"></line>
    <text x="138" y="92" >1a</text>
    <text x="202" y="92" >AZ:</text>
    <text x="234" y="92" >us</text>
    <line x1="248" y1="88" x2="256" y2="88" class="solid"></line>
    <text x="258" y="92" >east</text>
    <line x1="288" y1="88" x2="296" y2="88" class="solid"></line>
    <text x="298" y="92" >1b</text>
    <text x="354" y="92" >AZ:</text>
    <text x="386" y="92" >1c</text>
    <line x1="436" y1="80" x2="436" y2="96" class="solid"></line>
    <line x1="68" y1="192" x2="68" y2="224" class="solid"></line>
    <line x1="120" y1="200" x2="128" y2="200" class="broken"></line>
    <text x="130" y="204" >2ms</text>
    <line x1="204" y1="192" x2="204" y2="208" class="solid"></line>
    <text x="114" y="220" >independent</text>
    <text x="210" y="220" >power,</text>
    <text x="266" y="220" >cooling,</text>
    <text x="338" y="220" >networking</text>
    <line x1="452" y1="208" x2="452" y2="224" class="solid"></line>
    <text x="18" y="252" >Region:</text>
    <text x="82" y="252" >eu</text>
    <line x1="96" y1="248" x2="104" y2="248" class="solid"></line>
    <text x="106" y="252" >west</text>
    <line x1="136" y1="248" x2="144" y2="248" class="solid"></line>
    <text x="146" y="252" >1</text>
    <path d="M 168,240 A 16,16 0,0,0 168,256" class="nofill"></path>
    <text x="170" y="252" >Ireland</text>
    <path d="M 224,240 A 16,16 0,0,1 224,256" class="nofill"></path>
    <line x1="240" y1="248" x2="256" y2="248" class="solid"></line>
    <text x="266" y="252" >completely</text>
    <text x="354" y="252" >independent</text>
    <text x="42" y="284" >AZ:</text>
    <text x="74" y="284" >eu</text>
    <line x1="88" y1="280" x2="96" y2="280" class="solid"></line>
    <text x="98" y="284" >west</text>
    <line x1="128" y1="280" x2="136" y2="280" class="solid"></line>
    <text x="138" y="284" >1a</text>
    <text x="194" y="284" >AZ:</text>
    <text x="226" y="284" >eu</text>
    <line x1="240" y1="280" x2="248" y2="280" class="solid"></line>
    <text x="250" y="284" >west</text>
    <line x1="280" y1="280" x2="288" y2="280" class="solid"></line>
    <text x="290" y="284" >1b</text>
    <text x="346" y="284" >AZ:</text>
    <text x="378" y="284" >1c</text>
    <line x1="436" y1="272" x2="436" y2="288" class="solid"></line>
    <text x="42" y="300" >...</text>
    <text x="202" y="300" >...</text>
    <text x="362" y="300" >...</text>
    <line x1="452" y1="288" x2="452" y2="304" class="solid"></line>
    <g>
        <line x1="20" y1="72" x2="444" y2="72" class="solid"></line>
        <line x1="20" y1="72" x2="20" y2="184" class="solid"></line>
        <line x1="444" y1="96" x2="444" y2="184" class="solid"></line>
        <line x1="20" y1="184" x2="444" y2="184" class="solid"></line>
    </g>
    <g>
        <polygon points="80,196 72,200 80,204" class="filled"></polygon>
        <line x1="80" y1="200" x2="112" y2="200" class="solid"></line>
    </g>
    <g>
        <line x1="160" y1="200" x2="192" y2="200" class="solid"></line>
        <polygon points="192,196 200,200 192,204" class="filled"></polygon>
    </g>
    <g>
        <polygon points="80,212 72,216 80,220" class="filled"></polygon>
        <line x1="80" y1="216" x2="104" y2="216" class="solid"></line>
    </g>
    <g>
        <line x1="424" y1="216" x2="440" y2="216" class="solid"></line>
        <polygon points="440,212 448,216 440,220" class="filled"></polygon>
    </g>
    <g>
        <line x1="20" y1="264" x2="444" y2="264" class="solid"></line>
        <line x1="20" y1="264" x2="20" y2="312" class="solid"></line>
        <line x1="20" y1="312" x2="444" y2="312" class="solid"></line>
    </g>
</svg>