<svg xmlns="http://www.w3.org/2000/svg" width="544" height="192" style="background:#ffffff;border:1px solid #e5e5e5;border-radius:8px;max-width:100%;height:auto"><rect x="0" y="0" width="100%" height="100%" fill="#ffffff"/>
    <style>
        line, path, circle, rect, polygon{stroke:black;stroke-width:2;stroke-opacity:1;fill-opacity:1;stroke-linecap:round;stroke-linejoin:miter;}text{font-family:Iosevka Fixed, monospace;font-size:14px;}rect.backdrop{stroke:none;fill:transparent;}.broken{stroke-dasharray:8;}.filled{fill:black;}.bg_filled{fill:transparent;}.nofill{fill:transparent;}.end_marked_arrow{marker-end:url(#arrow);}.start_marked_arrow{marker-start:url(#arrow);}.end_marked_diamond{marker-end:url(#diamond);}.start_marked_diamond{marker-start:url(#diamond);}.end_marked_circle{marker-end:url(#circle);}.start_marked_circle{marker-start:url(#circle);}.end_marked_open_circle{marker-end:url(#open_circle);}.start_marked_open_circle{marker-start:url(#open_circle);}.end_marked_big_open_circle{marker-end:url(#big_open_circle);}.start_marked_big_open_circle{marker-start:url(#big_open_circle);}
        <!--separator-->
        
    </style>
    <defs>
        <marker id="arrow" viewBox="-2 -2 8 8" refX="4" refY="2" markerWidth="7" markerHeight="7" orient="auto-start-reverse">
            <polygon points="0,0 0,4 4,2 0,0"></polygon>
        </marker>
        <marker id="diamond" viewBox="-2 -2 8 8" refX="4" refY="2" markerWidth="7" markerHeight="7" orient="auto-start-reverse">
            <polygon points="0,2 2,0 4,2 2,4 0,2"></polygon>
        </marker>
        <marker id="circle" viewBox="0 0 8 8" refX="4" refY="4" markerWidth="7" markerHeight="7" orient="auto-start-reverse">
            <circle cx="4" cy="4" r="2" class="filled"></circle>
        </marker>
        <marker id="open_circle" viewBox="0 0 8 8" refX="4" refY="4" markerWidth="7" markerHeight="7" orient="auto-start-reverse">
            <circle cx="4" cy="4" r="2" class="bg_filled"></circle>
        </marker>
        <marker id="big_open_circle" viewBox="0 0 8 8" refX="4" refY="4" markerWidth="7" markerHeight="7" orient="auto-start-reverse">
            <circle cx="4" cy="4" r="3" class="bg_filled"></circle>
        </marker>
    </defs>
    <rect class="backdrop" x="0" y="0" width="544" height="192"></rect>
    <text x="2" y="12" >Leader</text>
    <text x="58" y="12" >log:</text>
    <text x="2" y="28" >Follower</text>
    <text x="74" y="28" >2</text>
    <text x="90" y="28" >log</text>
    <line x1="116" y1="16" x2="116" y2="48" class="broken"></line>
    <text x="2" y="44" >Follower</text>
    <text x="74" y="44" >3</text>
    <text x="90" y="44" >log</text>
    <text x="130" y="12" >[1</text>
    <line x1="148" y1="0" x2="148" y2="48" class="broken"></line>
    <text x="130" y="28" >[1</text>
    <text x="130" y="44" >[1</text>
    <text x="162" y="12" >set</text>
    <text x="162" y="28" >set</text>
    <text x="162" y="44" >set</text>
    <text x="194" y="12" >x</text>
    <line x1="200" y1="6" x2="208" y2="6" class="solid"></line>
    <line x1="200" y1="10" x2="208" y2="10" class="solid"></line>
    <text x="210" y="12" >1]</text>
    <text x="194" y="28" >x</text>
    <line x1="200" y1="22" x2="208" y2="22" class="solid"></line>
    <line x1="200" y1="26" x2="208" y2="26" class="solid"></line>
    <text x="210" y="28" >1]</text>
    <text x="194" y="44" >x</text>
    <line x1="200" y1="38" x2="208" y2="38" class="solid"></line>
    <line x1="200" y1="42" x2="208" y2="42" class="solid"></line>
    <text x="210" y="44" >1]</text>
    <text x="234" y="12" >[2</text>
    <line x1="252" y1="0" x2="252" y2="48" class="broken"></line>
    <text x="234" y="28" >[2</text>
    <text x="234" y="44" >[2</text>
    <text x="266" y="12" >set</text>
    <text x="266" y="28" >set</text>
    <text x="266" y="44" >set</text>
    <text x="298" y="12" >y</text>
    <line x1="304" y1="6" x2="312" y2="6" class="solid"></line>
    <line x1="304" y1="10" x2="312" y2="10" class="solid"></line>
    <text x="314" y="12" >2]</text>
    <text x="298" y="28" >y</text>
    <line x1="304" y1="22" x2="312" y2="22" class="solid"></line>
    <line x1="304" y1="26" x2="312" y2="26" class="solid"></line>
    <text x="314" y="28" >2]</text>
    <text x="298" y="44" >y</text>
    <line x1="304" y1="38" x2="312" y2="38" class="solid"></line>
    <line x1="304" y1="42" x2="312" y2="42" class="solid"></line>
    <text x="314" y="44" >2]</text>
    <text x="338" y="12" >[3</text>
    <line x1="356" y1="0" x2="356" y2="32" class="broken"></line>
    <text x="338" y="28" >[3</text>
    <text x="370" y="12" >set</text>
    <text x="370" y="28" >set</text>
    <text x="402" y="12" >x</text>
    <line x1="408" y1="6" x2="416" y2="6" class="solid"></line>
    <line x1="408" y1="10" x2="416" y2="10" class="solid"></line>
    <text x="418" y="12" >5]</text>
    <text x="402" y="28" >x</text>
    <line x1="408" y1="22" x2="416" y2="22" class="solid"></line>
    <line x1="408" y1="26" x2="416" y2="26" class="solid"></line>
    <text x="418" y="28" >5]</text>
    <text x="450" y="12" >←</text>
    <text x="450" y="28" >←</text>
    <text x="450" y="44" >←</text>
    <text x="466" y="12" >committed</text>
    <text x="466" y="28" >in</text>
    <text x="490" y="28" >sync</text>
    <text x="466" y="44" >lagging</text>
    <text x="2" y="76" >Leader</text>
    <text x="58" y="76" >gets</text>
    <text x="98" y="76" >new</text>
    <text x="130" y="76" >write:</text>
    <text x="186" y="76" >set</text>
    <text x="218" y="76" >z</text>
    <line x1="224" y1="70" x2="232" y2="70" class="solid"></line>
    <line x1="224" y1="74" x2="232" y2="74" class="solid"></line>
    <text x="234" y="76" >9</text>
    <text x="98" y="92" >[4:</text>
    <text x="130" y="92" >set</text>
    <text x="162" y="92" >z</text>
    <line x1="168" y1="86" x2="176" y2="86" class="solid"></line>
    <line x1="168" y1="90" x2="176" y2="90" class="solid"></line>
    <text x="178" y="92" >9]</text>
    <text x="202" y="92" >locally</text>
    <text x="82" y="108" >AppendEntries</text>
    <text x="194" y="108" >RPC</text>
    <text x="226" y="108" >to</text>
    <text x="250" y="108" >followers</text>
    <text x="82" y="124" >for</text>
    <text x="114" y="124" >majority</text>
    <text x="186" y="124" >ACK</text>
    <path d="M 224,112 A 16,16 0,0,0 224,128" class="nofill"></path>
    <text x="226" y="124" >at</text>
    <text x="250" y="124" >least</text>
    <text x="298" y="124" >1</text>
    <text x="314" y="124" >follower</text>
    <path d="M 376,112 A 16,16 0,0,1 376,128" class="nofill"></path>
    <text x="98" y="140" >entry</text>
    <text x="146" y="140" >4</text>
    <text x="98" y="156" >to</text>
    <text x="122" y="156" >state</text>
    <text x="170" y="156" >machine</text>
    <text x="106" y="172" >to</text>
    <text x="130" y="172" >client:</text>
    <text x="194" y="172" >success</text>
    <g>
        <text x="18" y="92">→</text>
        <text x="34" y="92">appends</text>
    </g>
    <g>
        <text x="18" y="108">→</text>
        <text x="34" y="108">sends</text>
    </g>
    <g>
        <text x="18" y="124">→</text>
        <text x="34" y="124">waits</text>
    </g>
    <g>
        <text x="18" y="140">→</text>
        <text x="34" y="140">commits</text>
    </g>
    <g>
        <text x="18" y="156">→</text>
        <text x="34" y="156">applies</text>
    </g>
    <g>
        <text x="18" y="172">→</text>
        <text x="34" y="172">responds</text>
    </g>
</svg>