<svg xmlns="http://www.w3.org/2000/svg" width="528" height="176" style="background:#ffffff;border:1px solid #e5e5e5;border-radius:8px;max-width:100%;height:auto"><rect x="0" y="0" width="100%" height="100%" fill="#ffffff"/>
    <style>
        line, path, circle, rect, polygon{stroke:black;stroke-width:2;stroke-opacity:1;fill-opacity:1;stroke-linecap:round;stroke-linejoin:miter;}text{font-family:Iosevka Fixed, monospace;font-size:14px;}rect.backdrop{stroke:none;fill:transparent;}.broken{stroke-dasharray:8;}.filled{fill:black;}.bg_filled{fill:transparent;}.nofill{fill:transparent;}.end_marked_arrow{marker-end:url(#arrow);}.start_marked_arrow{marker-start:url(#arrow);}.end_marked_diamond{marker-end:url(#diamond);}.start_marked_diamond{marker-start:url(#diamond);}.end_marked_circle{marker-end:url(#circle);}.start_marked_circle{marker-start:url(#circle);}.end_marked_open_circle{marker-end:url(#open_circle);}.start_marked_open_circle{marker-start:url(#open_circle);}.end_marked_big_open_circle{marker-end:url(#big_open_circle);}.start_marked_big_open_circle{marker-start:url(#big_open_circle);}
        <!--separator-->
        
    </style>
    <defs>
        <marker id="arrow" viewBox="-2 -2 8 8" refX="4" refY="2" markerWidth="7" markerHeight="7" orient="auto-start-reverse">
            <polygon points="0,0 0,4 4,2 0,0"></polygon>
        </marker>
        <marker id="diamond" viewBox="-2 -2 8 8" refX="4" refY="2" markerWidth="7" markerHeight="7" orient="auto-start-reverse">
            <polygon points="0,2 2,0 4,2 2,4 0,2"></polygon>
        </marker>
        <marker id="circle" viewBox="0 0 8 8" refX="4" refY="4" markerWidth="7" markerHeight="7" orient="auto-start-reverse">
            <circle cx="4" cy="4" r="2" class="filled"></circle>
        </marker>
        <marker id="open_circle" viewBox="0 0 8 8" refX="4" refY="4" markerWidth="7" markerHeight="7" orient="auto-start-reverse">
            <circle cx="4" cy="4" r="2" class="bg_filled"></circle>
        </marker>
        <marker id="big_open_circle" viewBox="0 0 8 8" refX="4" refY="4" markerWidth="7" markerHeight="7" orient="auto-start-reverse">
            <circle cx="4" cy="4" r="3" class="bg_filled"></circle>
        </marker>
    </defs>
    <rect class="backdrop" x="0" y="0" width="528" height="176"></rect>
    <text x="18" y="12" >SERIAL</text>
    <text x="74" y="12" >SYSTEM</text>
    <line x1="16" y1="22" x2="128" y2="22" class="solid"></line>
    <line x1="16" y1="26" x2="128" y2="26" class="solid"></line>
    <text x="18" y="60" >Request</text>
    <text x="114" y="60" >[Web</text>
    <text x="154" y="60" >Server]</text>
    <text x="138" y="76" >99.9%</text>
    <text x="250" y="60" >[App</text>
    <text x="290" y="60" >Server]</text>
    <text x="266" y="76" >99.9%</text>
    <text x="386" y="60" >[Database]</text>
    <text x="394" y="76" >99.9%</text>
    <text x="18" y="108" >System</text>
    <text x="74" y="108" >availability</text>
    <line x1="176" y1="102" x2="184" y2="102" class="solid"></line>
    <line x1="176" y1="106" x2="184" y2="106" class="solid"></line>
    <text x="194" y="108" >0.999</text>
    <text x="242" y="108" >*</text>
    <text x="258" y="108" >0.999</text>
    <text x="306" y="108" >*</text>
    <text x="322" y="108" >0.999</text>
    <line x1="368" y1="102" x2="376" y2="102" class="solid"></line>
    <line x1="368" y1="106" x2="376" y2="106" class="solid"></line>
    <text x="386" y="108" >0.997</text>
    <line x1="432" y1="102" x2="440" y2="102" class="solid"></line>
    <line x1="432" y1="106" x2="440" y2="106" class="solid"></line>
    <text x="450" y="108" >99.7%</text>
    <text x="18" y="140" >Three</text>
    <text x="66" y="140" >nines</text>
    <text x="114" y="140" >per</text>
    <text x="18" y="156" >The</text>
    <text x="50" y="156" >more</text>
    <text x="90" y="156" >serial</text>
    <text x="146" y="140" >component</text>
    <text x="226" y="140" >yields</text>
    <text x="282" y="140" >less</text>
    <text x="146" y="156" >components,</text>
    <text x="242" y="156" >the</text>
    <text x="274" y="156" >lower</text>
    <text x="322" y="140" >than</text>
    <text x="362" y="140" >three</text>
    <text x="410" y="140" >nines</text>
    <text x="458" y="140" >overall.</text>
    <text x="322" y="156" >the</text>
    <text x="354" y="156" >availability.</text>
    <g>
        <line x1="80" y1="56" x2="96" y2="56" class="solid"></line>
        <polygon points="96,52 104,56 96,60" class="filled"></polygon>
    </g>
    <g>
        <line x1="216" y1="56" x2="232" y2="56" class="solid"></line>
        <polygon points="232,52 240,56 232,60" class="filled"></polygon>
    </g>
    <g>
        <line x1="352" y1="56" x2="368" y2="56" class="solid"></line>
        <polygon points="368,52 376,56 368,60" class="filled"></polygon>
    </g>
</svg>