<svg xmlns="http://www.w3.org/2000/svg" width="520" height="192" style="background:#ffffff;border:1px solid #e5e5e5;border-radius:8px;max-width:100%;height:auto"><rect x="0" y="0" width="100%" height="100%" fill="#ffffff"/>
    <style>
        line, path, circle, rect, polygon{stroke:black;stroke-width:2;stroke-opacity:1;fill-opacity:1;stroke-linecap:round;stroke-linejoin:miter;}text{font-family:Iosevka Fixed, monospace;font-size:14px;}rect.backdrop{stroke:none;fill:transparent;}.broken{stroke-dasharray:8;}.filled{fill:black;}.bg_filled{fill:transparent;}.nofill{fill:transparent;}.end_marked_arrow{marker-end:url(#arrow);}.start_marked_arrow{marker-start:url(#arrow);}.end_marked_diamond{marker-end:url(#diamond);}.start_marked_diamond{marker-start:url(#diamond);}.end_marked_circle{marker-end:url(#circle);}.start_marked_circle{marker-start:url(#circle);}.end_marked_open_circle{marker-end:url(#open_circle);}.start_marked_open_circle{marker-start:url(#open_circle);}.end_marked_big_open_circle{marker-end:url(#big_open_circle);}.start_marked_big_open_circle{marker-start:url(#big_open_circle);}
        <!--separator-->
        
    </style>
    <defs>
        <marker id="arrow" viewBox="-2 -2 8 8" refX="4" refY="2" markerWidth="7" markerHeight="7" orient="auto-start-reverse">
            <polygon points="0,0 0,4 4,2 0,0"></polygon>
        </marker>
        <marker id="diamond" viewBox="-2 -2 8 8" refX="4" refY="2" markerWidth="7" markerHeight="7" orient="auto-start-reverse">
            <polygon points="0,2 2,0 4,2 2,4 0,2"></polygon>
        </marker>
        <marker id="circle" viewBox="0 0 8 8" refX="4" refY="4" markerWidth="7" markerHeight="7" orient="auto-start-reverse">
            <circle cx="4" cy="4" r="2" class="filled"></circle>
        </marker>
        <marker id="open_circle" viewBox="0 0 8 8" refX="4" refY="4" markerWidth="7" markerHeight="7" orient="auto-start-reverse">
            <circle cx="4" cy="4" r="2" class="bg_filled"></circle>
        </marker>
        <marker id="big_open_circle" viewBox="0 0 8 8" refX="4" refY="4" markerWidth="7" markerHeight="7" orient="auto-start-reverse">
            <circle cx="4" cy="4" r="3" class="bg_filled"></circle>
        </marker>
    </defs>
    <rect class="backdrop" x="0" y="0" width="520" height="192"></rect>
    <text x="18" y="12" >ACTIVE</text>
    <line x1="64" y1="8" x2="72" y2="8" class="solid"></line>
    <text x="74" y="12" >ACTIVE</text>
    <line x1="16" y1="22" x2="128" y2="22" class="solid"></line>
    <line x1="16" y1="26" x2="128" y2="26" class="solid"></line>
    <text x="18" y="60" >Traffic</text>
    <text x="114" y="60" >[Load</text>
    <text x="162" y="60" >Balancer]</text>
    <line x1="136" y1="64" x2="128" y2="80" class="solid"></line>
    <line x1="172" y1="64" x2="172" y2="80" class="solid"></line>
    <line x1="208" y1="64" x2="216" y2="80" class="solid"></line>
    <text x="90" y="92" >[Srv</text>
    <text x="130" y="92" >A]</text>
    <text x="154" y="92" >[Srv</text>
    <text x="194" y="92" >B]</text>
    <text x="218" y="92" >[Srv</text>
    <text x="258" y="92" >C]</text>
    <path d="M 104,96 A 16,16 0,0,0 104,112" class="nofill"></path>
    <text x="106" y="108" >active</text>
    <path d="M 152,96 A 16,16 0,0,1 152,112" class="nofill"></path>
    <path d="M 168,96 A 16,16 0,0,0 168,112" class="nofill"></path>
    <text x="170" y="108" >active</text>
    <path d="M 216,96 A 16,16 0,0,1 216,112" class="nofill"></path>
    <path d="M 232,96 A 16,16 0,0,0 232,112" class="nofill"></path>
    <text x="234" y="108" >active</text>
    <path d="M 280,96 A 16,16 0,0,1 280,112" class="nofill"></path>
    <text x="18" y="140" >Normal:</text>
    <text x="82" y="140" >Traffic</text>
    <text x="146" y="140" >split</text>
    <text x="194" y="140" >33</text>
    <line x1="216" y1="128" x2="208" y2="144" class="solid"></line>
    <text x="218" y="140" >33</text>
    <line x1="240" y1="128" x2="232" y2="144" class="solid"></line>
    <text x="242" y="140" >33</text>
    <text x="18" y="156" >Failure</text>
    <text x="82" y="156" >of</text>
    <text x="106" y="156" >A:</text>
    <text x="130" y="156" >Traffic</text>
    <text x="194" y="156" >split</text>
    <text x="242" y="156" >0</text>
    <line x1="256" y1="144" x2="248" y2="160" class="solid"></line>
    <text x="258" y="156" >50</text>
    <line x1="280" y1="144" x2="272" y2="160" class="solid"></line>
    <text x="282" y="156" >50</text>
    <text x="18" y="172" >Requirement:</text>
    <text x="122" y="172" >Each</text>
    <text x="162" y="172" >server</text>
    <text x="218" y="172" >must</text>
    <text x="258" y="172" >handle</text>
    <text x="314" y="172" >50%</text>
    <text x="346" y="172" >headroom</text>
    <text x="418" y="172" >for</text>
    <text x="450" y="172" >failover</text>
    <g>
        <line x1="80" y1="56" x2="96" y2="56" class="solid"></line>
        <polygon points="96,52 104,56 96,60" class="filled"></polygon>
    </g>
</svg>