<svg xmlns="http://www.w3.org/2000/svg" width="528" height="320" style="background:#ffffff;border:1px solid #e5e5e5;border-radius:8px;max-width:100%;height:auto"><rect x="0" y="0" width="100%" height="100%" fill="#ffffff"/>
    <style>
        line, path, circle, rect, polygon{stroke:black;stroke-width:2;stroke-opacity:1;fill-opacity:1;stroke-linecap:round;stroke-linejoin:miter;}text{font-family:Iosevka Fixed, monospace;font-size:14px;}rect.backdrop{stroke:none;fill:transparent;}.broken{stroke-dasharray:8;}.filled{fill:black;}.bg_filled{fill:transparent;}.nofill{fill:transparent;}.end_marked_arrow{marker-end:url(#arrow);}.start_marked_arrow{marker-start:url(#arrow);}.end_marked_diamond{marker-end:url(#diamond);}.start_marked_diamond{marker-start:url(#diamond);}.end_marked_circle{marker-end:url(#circle);}.start_marked_circle{marker-start:url(#circle);}.end_marked_open_circle{marker-end:url(#open_circle);}.start_marked_open_circle{marker-start:url(#open_circle);}.end_marked_big_open_circle{marker-end:url(#big_open_circle);}.start_marked_big_open_circle{marker-start:url(#big_open_circle);}
        <!--separator-->
        
    </style>
    <defs>
        <marker id="arrow" viewBox="-2 -2 8 8" refX="4" refY="2" markerWidth="7" markerHeight="7" orient="auto-start-reverse">
            <polygon points="0,0 0,4 4,2 0,0"></polygon>
        </marker>
        <marker id="diamond" viewBox="-2 -2 8 8" refX="4" refY="2" markerWidth="7" markerHeight="7" orient="auto-start-reverse">
            <polygon points="0,2 2,0 4,2 2,4 0,2"></polygon>
        </marker>
        <marker id="circle" viewBox="0 0 8 8" refX="4" refY="4" markerWidth="7" markerHeight="7" orient="auto-start-reverse">
            <circle cx="4" cy="4" r="2" class="filled"></circle>
        </marker>
        <marker id="open_circle" viewBox="0 0 8 8" refX="4" refY="4" markerWidth="7" markerHeight="7" orient="auto-start-reverse">
            <circle cx="4" cy="4" r="2" class="bg_filled"></circle>
        </marker>
        <marker id="big_open_circle" viewBox="0 0 8 8" refX="4" refY="4" markerWidth="7" markerHeight="7" orient="auto-start-reverse">
            <circle cx="4" cy="4" r="3" class="bg_filled"></circle>
        </marker>
    </defs>
    <rect class="backdrop" x="0" y="0" width="528" height="320"></rect>
    <text x="18" y="12" >L4</text>
    <text x="42" y="12" >vs</text>
    <text x="66" y="12" >L7</text>
    <text x="90" y="12" >LOAD</text>
    <text x="130" y="12" >BALANCER</text>
    <line x1="16" y1="22" x2="208" y2="22" class="solid"></line>
    <line x1="16" y1="26" x2="208" y2="26" class="solid"></line>
    <text x="18" y="60" >L4</text>
    <path d="M 48,48 A 16,16 0,0,0 48,64" class="nofill"></path>
    <text x="50" y="60" >NLB</text>
    <path d="M 72,48 A 16,16 0,0,1 72,64" class="nofill"></path>
    <text x="82" y="60" >:</text>
    <text x="18" y="76" >Client</text>
    <text x="106" y="76" >[NLB</text>
    <text x="146" y="76" >sees:</text>
    <text x="194" y="76" >TCP,</text>
    <text x="106" y="92" >Routes</text>
    <text x="162" y="92" >based</text>
    <text x="210" y="92" >on</text>
    <text x="234" y="76" >src:1.2.3.4:54321,</text>
    <text x="234" y="92" >IP</text>
    <line x1="256" y1="80" x2="248" y2="96" class="solid"></line>
    <text x="258" y="92" >port</text>
    <text x="298" y="92" >only.</text>
    <text x="386" y="76" >dst:5.6.7.8:443]</text>
    <text x="18" y="140" >L7</text>
    <path d="M 48,128 A 16,16 0,0,0 48,144" class="nofill"></path>
    <text x="50" y="140" >ALB</text>
    <path d="M 72,128 A 16,16 0,0,1 72,144" class="nofill"></path>
    <text x="82" y="140" >:</text>
    <text x="18" y="156" >Client</text>
    <text x="106" y="156" >[ALB</text>
    <text x="146" y="156" >sees:</text>
    <text x="194" y="156" >GET</text>
    <line x1="232" y1="144" x2="224" y2="160" class="solid"></line>
    <text x="234" y="156" >api</text>
    <line x1="264" y1="144" x2="256" y2="160" class="solid"></line>
    <text x="266" y="156" >users</text>
    <text x="106" y="172" >Routes</text>
    <text x="162" y="172" >based</text>
    <text x="210" y="172" >on</text>
    <text x="234" y="172" >content.</text>
    <text x="314" y="156" >HTTP</text>
    <line x1="352" y1="144" x2="344" y2="160" class="solid"></line>
    <text x="354" y="156" >1.1,</text>
    <text x="394" y="156" >Host:</text>
    <text x="442" y="156" >myapp.com]</text>
    <text x="18" y="236" >R</text>
    <circle cx="28" cy="232" r="3" class="nofill"></circle>
    <line x1="26" y1="236" x2="16" y2="256" class="solid"></line>
    <text x="34" y="236" >uting</text>
    <text x="26" y="252" >api</text>
    <line x1="56" y1="240" x2="48" y2="256" class="solid"></line>
    <text x="58" y="252" >*</text>
    <line x1="24" y1="256" x2="16" y2="272" class="solid"></line>
    <text x="26" y="268" >admin</text>
    <line x1="72" y1="256" x2="64" y2="272" class="solid"></line>
    <text x="74" y="268" >*</text>
    <line x1="24" y1="272" x2="16" y2="288" class="solid"></line>
    <text x="26" y="284" >static</text>
    <line x1="80" y1="272" x2="72" y2="288" class="solid"></line>
    <text x="82" y="284" >*</text>
    <text x="18" y="300" >default</text>
    <text x="82" y="236" >rules</text>
    <path d="M 136,224 A 16,16 0,0,0 136,240" class="nofill"></path>
    <text x="138" y="236" >ALB</text>
    <path d="M 160,224 A 16,16 0,0,1 160,240" class="nofill"></path>
    <text x="170" y="236" >:</text>
    <text x="162" y="252" >API</text>
    <text x="194" y="252" >target</text>
    <text x="250" y="252" >group</text>
    <path d="M 304,240 A 16,16 0,0,0 304,256" class="nofill"></path>
    <text x="306" y="252" >port</text>
    <text x="346" y="252" >8080</text>
    <path d="M 376,240 A 16,16 0,0,1 376,256" class="nofill"></path>
    <text x="162" y="268" >Admin</text>
    <text x="210" y="268" >target</text>
    <text x="266" y="268" >group</text>
    <path d="M 320,256 A 16,16 0,0,0 320,272" class="nofill"></path>
    <text x="322" y="268" >port</text>
    <text x="362" y="268" >9090</text>
    <path d="M 392,256 A 16,16 0,0,1 392,272" class="nofill"></path>
    <text x="162" y="284" >S3</text>
    <text x="186" y="284" >bucket</text>
    <path d="M 248,272 A 16,16 0,0,0 248,288" class="nofill"></path>
    <text x="250" y="284" >via</text>
    <text x="282" y="284" >redirect</text>
    <path d="M 344,272 A 16,16 0,0,1 344,288" class="nofill"></path>
    <text x="162" y="300" >Web</text>
    <text x="194" y="300" >target</text>
    <text x="250" y="300" >group</text>
    <path d="M 304,288 A 16,16 0,0,0 304,304" class="nofill"></path>
    <text x="306" y="300" >port</text>
    <text x="346" y="300" >80</text>
    <path d="M 360,288 A 16,16 0,0,1 360,304" class="nofill"></path>
    <text x="106" y="108" >I see a packet for port 443. Send it to target group.</text>
    <text x="106" y="188" >I see a request for /api/users. Send it to the API service.</text>
    <text x="106" y="204" >I see a request for /static/logo.png. Send it to the CDN.</text>
    <g>
        <line x1="72" y1="72" x2="88" y2="72" class="solid"></line>
        <polygon points="88,68 96,72 88,76" class="filled"></polygon>
    </g>
    <g>
        <line x1="72" y1="152" x2="88" y2="152" class="solid"></line>
        <polygon points="88,148 96,152 88,156" class="filled"></polygon>
    </g>
    <g>
        <line x1="128" y1="248" x2="144" y2="248" class="solid"></line>
        <polygon points="144,244 152,248 144,252" class="filled"></polygon>
    </g>
    <g>
        <line x1="128" y1="264" x2="144" y2="264" class="solid"></line>
        <polygon points="144,260 152,264 144,268" class="filled"></polygon>
    </g>
    <g>
        <line x1="128" y1="280" x2="144" y2="280" class="solid"></line>
        <polygon points="144,276 152,280 144,284" class="filled"></polygon>
    </g>
    <g>
        <line x1="128" y1="296" x2="144" y2="296" class="solid"></line>
        <polygon points="144,292 152,296 144,300" class="filled"></polygon>
    </g>
</svg>