<svg xmlns="http://www.w3.org/2000/svg" width="568" height="256" style="background:#ffffff;border:1px solid #e5e5e5;border-radius:8px;max-width:100%;height:auto"><rect x="0" y="0" width="100%" height="100%" fill="#ffffff"/>
    <style>
        line, path, circle, rect, polygon{stroke:black;stroke-width:2;stroke-opacity:1;fill-opacity:1;stroke-linecap:round;stroke-linejoin:miter;}text{font-family:Iosevka Fixed, monospace;font-size:14px;}rect.backdrop{stroke:none;fill:transparent;}.broken{stroke-dasharray:8;}.filled{fill:black;}.bg_filled{fill:transparent;}.nofill{fill:transparent;}.end_marked_arrow{marker-end:url(#arrow);}.start_marked_arrow{marker-start:url(#arrow);}.end_marked_diamond{marker-end:url(#diamond);}.start_marked_diamond{marker-start:url(#diamond);}.end_marked_circle{marker-end:url(#circle);}.start_marked_circle{marker-start:url(#circle);}.end_marked_open_circle{marker-end:url(#open_circle);}.start_marked_open_circle{marker-start:url(#open_circle);}.end_marked_big_open_circle{marker-end:url(#big_open_circle);}.start_marked_big_open_circle{marker-start:url(#big_open_circle);}
        <!--separator-->
        
    </style>
    <defs>
        <marker id="arrow" viewBox="-2 -2 8 8" refX="4" refY="2" markerWidth="7" markerHeight="7" orient="auto-start-reverse">
            <polygon points="0,0 0,4 4,2 0,0"></polygon>
        </marker>
        <marker id="diamond" viewBox="-2 -2 8 8" refX="4" refY="2" markerWidth="7" markerHeight="7" orient="auto-start-reverse">
            <polygon points="0,2 2,0 4,2 2,4 0,2"></polygon>
        </marker>
        <marker id="circle" viewBox="0 0 8 8" refX="4" refY="4" markerWidth="7" markerHeight="7" orient="auto-start-reverse">
            <circle cx="4" cy="4" r="2" class="filled"></circle>
        </marker>
        <marker id="open_circle" viewBox="0 0 8 8" refX="4" refY="4" markerWidth="7" markerHeight="7" orient="auto-start-reverse">
            <circle cx="4" cy="4" r="2" class="bg_filled"></circle>
        </marker>
        <marker id="big_open_circle" viewBox="0 0 8 8" refX="4" refY="4" markerWidth="7" markerHeight="7" orient="auto-start-reverse">
            <circle cx="4" cy="4" r="3" class="bg_filled"></circle>
        </marker>
    </defs>
    <rect class="backdrop" x="0" y="0" width="568" height="256"></rect>
    <text x="18" y="12" >CDN</text>
    <text x="50" y="12" >TOPOLOGY</text>
    <line x1="16" y1="22" x2="120" y2="22" class="solid"></line>
    <line x1="16" y1="26" x2="120" y2="26" class="solid"></line>
    <text x="18" y="60" >Without</text>
    <text x="82" y="60" >CDN:</text>
    <text x="18" y="76" >User</text>
    <path d="M 64,64 A 16,16 0,0,0 64,80" class="nofill"></path>
    <text x="66" y="76" >T</text>
    <circle cx="76" cy="72" r="3" class="nofill"></circle>
    <line x1="76" y1="76" x2="76" y2="80" class="solid"></line>
    <text x="82" y="76" >kyo)</text>
    <line x1="120" y1="72" x2="136" y2="72" class="solid"></line>
    <text x="138" y="76" >[public</text>
    <text x="18" y="92" >Latency:</text>
    <text x="90" y="92" >200</text>
    <line x1="112" y1="88" x2="120" y2="88" class="solid"></line>
    <text x="122" y="92" >400ms</text>
    <text x="202" y="76" >internet,</text>
    <text x="282" y="76" >15+</text>
    <text x="314" y="76" >hops]</text>
    <text x="386" y="76" >Origin</text>
    <path d="M 448,64 A 16,16 0,0,0 448,80" class="nofill"></path>
    <text x="450" y="76" >Virginia</text>
    <path d="M 512,64 A 16,16 0,0,1 512,80" class="nofill"></path>
    <text x="18" y="124" >With</text>
    <text x="58" y="124" >CDN:</text>
    <text x="18" y="140" >User</text>
    <path d="M 64,128 A 16,16 0,0,0 64,144" class="nofill"></path>
    <text x="66" y="140" >Tokyo</text>
    <path d="M 104,128 A 16,16 0,0,1 104,144" class="nofill"></path>
    <line x1="120" y1="136" x2="136" y2="136" class="solid"></line>
    <text x="138" y="140" >[1</text>
    <line x1="152" y1="136" x2="160" y2="136" class="solid"></line>
    <text x="162" y="140" >2</text>
    <text x="178" y="140" >hops]</text>
    <text x="250" y="140" >Edge</text>
    <path d="M 296,128 A 16,16 0,0,0 296,144" class="nofill"></path>
    <text x="298" y="140" >Tokyo</text>
    <path d="M 336,128 A 16,16 0,0,1 336,144" class="nofill"></path>
    <line x1="352" y1="136" x2="368" y2="136" class="solid"></line>
    <text x="370" y="140" >[AWS</text>
    <text x="410" y="140" >backbone]</text>
    <text x="18" y="156" >Cache</text>
    <text x="66" y="156" >HIT:</text>
    <text x="114" y="156" >20</text>
    <line x1="128" y1="152" x2="136" y2="152" class="solid"></line>
    <text x="138" y="156" >50ms</text>
    <path d="M 184,144 A 16,16 0,0,0 184,160" class="nofill"></path>
    <text x="186" y="156" >served</text>
    <text x="242" y="156" >from</text>
    <text x="282" y="156" >edge,</text>
    <text x="330" y="156" >no</text>
    <text x="354" y="156" >origin</text>
    <text x="410" y="156" >contact</text>
    <path d="M 464,144 A 16,16 0,0,1 464,160" class="nofill"></path>
    <text x="18" y="172" >Cache</text>
    <text x="66" y="172" >MISS:</text>
    <text x="114" y="172" >120</text>
    <line x1="136" y1="168" x2="144" y2="168" class="solid"></line>
    <text x="146" y="172" >200ms</text>
    <path d="M 200,160 A 16,16 0,0,0 200,176" class="nofill"></path>
    <text x="202" y="172" >fetched</text>
    <text x="266" y="172" >via</text>
    <text x="298" y="172" >optimized</text>
    <text x="378" y="172" >backbone,</text>
    <text x="458" y="172" >then</text>
    <text x="514" y="140" >Origin</text>
    <text x="498" y="172" >cached</text>
    <path d="M 544,160 A 16,16 0,0,1 544,176" class="nofill"></path>
    <text x="18" y="204" >AWS</text>
    <text x="50" y="204" >CloudFront:</text>
    <text x="146" y="204" >600+</text>
    <text x="186" y="204" >edge</text>
    <text x="226" y="204" >locations</text>
    <text x="18" y="220" >Azure</text>
    <text x="66" y="220" >CDN:</text>
    <text x="106" y="220" >180</text>
    <line x1="132" y1="208" x2="132" y2="216" class="solid"></line>
    <text x="146" y="220" >PoPs</text>
    <text x="186" y="220" >globally</text>
    <text x="18" y="236" >GCP</text>
    <text x="50" y="236" >Cloud</text>
    <text x="98" y="236" >CDN:</text>
    <text x="138" y="236" >180+</text>
    <text x="178" y="236" >edge</text>
    <text x="218" y="236" >locations</text>
    <text x="306" y="204" >in</text>
    <text x="330" y="204" >100+</text>
    <text x="370" y="204" >cities</text>
    <g>
        <line x1="352" y1="72" x2="368" y2="72" class="solid"></line>
        <polygon points="368,68 376,72 368,76" class="filled"></polygon>
    </g>
    <g>
        <line x1="216" y1="136" x2="232" y2="136" class="solid"></line>
        <polygon points="232,132 240,136 232,140" class="filled"></polygon>
    </g>
    <g>
        <line x1="480" y1="136" x2="496" y2="136" class="solid"></line>
        <polygon points="496,132 504,136 496,140" class="filled"></polygon>
    </g>
</svg>