<svg xmlns="http://www.w3.org/2000/svg" width="544" height="352" style="background:#ffffff;border:1px solid #e5e5e5;border-radius:8px;max-width:100%;height:auto"><rect x="0" y="0" width="100%" height="100%" fill="#ffffff"/>
    <style>
        line, path, circle, rect, polygon{stroke:black;stroke-width:2;stroke-opacity:1;fill-opacity:1;stroke-linecap:round;stroke-linejoin:miter;}text{font-family:Iosevka Fixed, monospace;font-size:14px;}rect.backdrop{stroke:none;fill:transparent;}.broken{stroke-dasharray:8;}.filled{fill:black;}.bg_filled{fill:transparent;}.nofill{fill:transparent;}.end_marked_arrow{marker-end:url(#arrow);}.start_marked_arrow{marker-start:url(#arrow);}.end_marked_diamond{marker-end:url(#diamond);}.start_marked_diamond{marker-start:url(#diamond);}.end_marked_circle{marker-end:url(#circle);}.start_marked_circle{marker-start:url(#circle);}.end_marked_open_circle{marker-end:url(#open_circle);}.start_marked_open_circle{marker-start:url(#open_circle);}.end_marked_big_open_circle{marker-end:url(#big_open_circle);}.start_marked_big_open_circle{marker-start:url(#big_open_circle);}
        <!--separator-->
        
    </style>
    <defs>
        <marker id="arrow" viewBox="-2 -2 8 8" refX="4" refY="2" markerWidth="7" markerHeight="7" orient="auto-start-reverse">
            <polygon points="0,0 0,4 4,2 0,0"></polygon>
        </marker>
        <marker id="diamond" viewBox="-2 -2 8 8" refX="4" refY="2" markerWidth="7" markerHeight="7" orient="auto-start-reverse">
            <polygon points="0,2 2,0 4,2 2,4 0,2"></polygon>
        </marker>
        <marker id="circle" viewBox="0 0 8 8" refX="4" refY="4" markerWidth="7" markerHeight="7" orient="auto-start-reverse">
            <circle cx="4" cy="4" r="2" class="filled"></circle>
        </marker>
        <marker id="open_circle" viewBox="0 0 8 8" refX="4" refY="4" markerWidth="7" markerHeight="7" orient="auto-start-reverse">
            <circle cx="4" cy="4" r="2" class="bg_filled"></circle>
        </marker>
        <marker id="big_open_circle" viewBox="0 0 8 8" refX="4" refY="4" markerWidth="7" markerHeight="7" orient="auto-start-reverse">
            <circle cx="4" cy="4" r="3" class="bg_filled"></circle>
        </marker>
    </defs>
    <rect class="backdrop" x="0" y="0" width="544" height="352"></rect>
    <text x="18" y="12" >INTERNET</text>
    <text x="90" y="12" >GATEWAY</text>
    <text x="154" y="12" >vs</text>
    <text x="178" y="12" >NAT</text>
    <text x="210" y="12" >GATEWAY</text>
    <line x1="16" y1="22" x2="272" y2="22" class="solid"></line>
    <line x1="16" y1="26" x2="272" y2="26" class="solid"></line>
    <text x="18" y="60" >Internet</text>
    <text x="90" y="60" >Gateway:</text>
    <text x="34" y="92" >Internet</text>
    <text x="34" y="156" >IGW</text>
    <text x="34" y="220" >Public</text>
    <text x="34" y="236" >Subnet</text>
    <path d="M 40,240 A 16,16 0,0,0 40,256" class="nofill"></path>
    <text x="42" y="252" >has</text>
    <text x="42" y="268" >public</text>
    <text x="98" y="268" >IP</text>
    <line x1="124" y1="256" x2="124" y2="272" class="solid"></line>
    <text x="282" y="60" >NAT</text>
    <text x="314" y="60" >Gateway:</text>
    <text x="298" y="92" >Internet</text>
    <text x="290" y="156" >NAT</text>
    <text x="322" y="156" >GW</text>
    <text x="290" y="220" >Private</text>
    <text x="290" y="236" >Subnet</text>
    <path d="M 296,240 A 16,16 0,0,0 296,256" class="nofill"></path>
    <text x="298" y="252" >no</text>
    <text x="298" y="268" >public</text>
    <text x="354" y="268" >IP</text>
    <line x1="380" y1="256" x2="380" y2="272" class="solid"></line>
    <path d="M 400,144 A 16,16 0,0,0 400,160" class="nofill"></path>
    <text x="402" y="156" >in</text>
    <text x="426" y="156" >public</text>
    <text x="482" y="156" >subnet</text>
    <path d="M 528,144 A 16,16 0,0,1 528,160" class="nofill"></path>
    <text x="18" y="316" >IGW</text>
    <line x1="44" y1="304" x2="44" y2="336" class="broken"></line>
    <text x="18" y="332" >NAT</text>
    <text x="58" y="316" >Tw</text>
    <circle cx="76" cy="312" r="3" class="nofill"></circle>
    <line x1="80" y1="312" x2="88" y2="312" class="solid"></line>
    <text x="90" y="316" >way</text>
    <text x="58" y="332" >One</text>
    <line x1="80" y1="328" x2="88" y2="328" class="solid"></line>
    <text x="90" y="332" >way</text>
    <text x="122" y="316" >door.</text>
    <text x="178" y="316" >Anyone</text>
    <text x="234" y="316" >can</text>
    <text x="266" y="316" >walk</text>
    <text x="306" y="316" >in</text>
    <text x="330" y="316" >or</text>
    <text x="122" y="332" >mirror.</text>
    <text x="186" y="332" >You</text>
    <text x="218" y="332" >can</text>
    <text x="250" y="332" >see</text>
    <text x="282" y="332" >out,</text>
    <text x="322" y="332" >but</text>
    <text x="354" y="316" >out.</text>
    <text x="354" y="332" >no</text>
    <text x="378" y="332" >one</text>
    <text x="410" y="332" >can</text>
    <text x="442" y="332" >see</text>
    <text x="474" y="332" >in.</text>
    <g>
        <line x1="20" y1="72" x2="116" y2="72" class="solid"></line>
        <line x1="20" y1="72" x2="20" y2="104" class="solid"></line>
        <line x1="116" y1="72" x2="116" y2="104" class="solid"></line>
        <line x1="20" y1="104" x2="116" y2="104" class="solid"></line>
        <line x1="68" y1="104" x2="68" y2="136" class="solid"></line>
        <line x1="20" y1="136" x2="116" y2="136" class="solid"></line>
        <line x1="20" y1="136" x2="20" y2="168" class="solid"></line>
        <line x1="116" y1="136" x2="116" y2="168" class="solid"></line>
        <line x1="20" y1="168" x2="116" y2="168" class="solid"></line>
        <line x1="68" y1="168" x2="68" y2="200" class="solid"></line>
        <line x1="20" y1="200" x2="116" y2="200" class="solid"></line>
        <line x1="20" y1="200" x2="20" y2="280" class="solid"></line>
        <line x1="116" y1="200" x2="116" y2="256" class="solid"></line>
        <path d="M 116,256 A 12,12 0,0,1 116,272" class="nofill"></path>
        <line x1="20" y1="280" x2="116" y2="280" class="solid"></line>
    </g>
    <g>
        <line x1="284" y1="72" x2="380" y2="72" class="solid"></line>
        <line x1="284" y1="72" x2="284" y2="96" class="solid"></line>
        <line x1="380" y1="72" x2="380" y2="96" class="solid"></line>
    </g>
    <g>
        <line x1="276" y1="104" x2="372" y2="104" class="solid"></line>
        <line x1="324" y1="104" x2="324" y2="136" class="solid"></line>
        <line x1="276" y1="136" x2="372" y2="136" class="solid"></line>
        <line x1="276" y1="136" x2="276" y2="168" class="solid"></line>
        <line x1="372" y1="136" x2="372" y2="168" class="solid"></line>
        <line x1="276" y1="168" x2="372" y2="168" class="solid"></line>
        <line x1="324" y1="168" x2="324" y2="200" class="solid"></line>
        <line x1="276" y1="200" x2="372" y2="200" class="solid"></line>
        <line x1="276" y1="200" x2="276" y2="280" class="solid"></line>
        <line x1="372" y1="200" x2="372" y2="256" class="solid"></line>
        <path d="M 372,256 A 12,12 0,0,1 372,272" class="nofill"></path>
        <line x1="276" y1="280" x2="372" y2="280" class="solid"></line>
    </g>
</svg>