<svg xmlns="http://www.w3.org/2000/svg" width="496" height="464" style="background:#ffffff;border:1px solid #e5e5e5;border-radius:8px;max-width:100%;height:auto"><rect x="0" y="0" width="100%" height="100%" fill="#ffffff"/>
    <style>
        line, path, circle, rect, polygon{stroke:black;stroke-width:2;stroke-opacity:1;fill-opacity:1;stroke-linecap:round;stroke-linejoin:miter;}text{font-family:Iosevka Fixed, monospace;font-size:14px;}rect.backdrop{stroke:none;fill:transparent;}.broken{stroke-dasharray:8;}.filled{fill:black;}.bg_filled{fill:transparent;}.nofill{fill:transparent;}.end_marked_arrow{marker-end:url(#arrow);}.start_marked_arrow{marker-start:url(#arrow);}.end_marked_diamond{marker-end:url(#diamond);}.start_marked_diamond{marker-start:url(#diamond);}.end_marked_circle{marker-end:url(#circle);}.start_marked_circle{marker-start:url(#circle);}.end_marked_open_circle{marker-end:url(#open_circle);}.start_marked_open_circle{marker-start:url(#open_circle);}.end_marked_big_open_circle{marker-end:url(#big_open_circle);}.start_marked_big_open_circle{marker-start:url(#big_open_circle);}
        <!--separator-->
        
    </style>
    <defs>
        <marker id="arrow" viewBox="-2 -2 8 8" refX="4" refY="2" markerWidth="7" markerHeight="7" orient="auto-start-reverse">
            <polygon points="0,0 0,4 4,2 0,0"></polygon>
        </marker>
        <marker id="diamond" viewBox="-2 -2 8 8" refX="4" refY="2" markerWidth="7" markerHeight="7" orient="auto-start-reverse">
            <polygon points="0,2 2,0 4,2 2,4 0,2"></polygon>
        </marker>
        <marker id="circle" viewBox="0 0 8 8" refX="4" refY="4" markerWidth="7" markerHeight="7" orient="auto-start-reverse">
            <circle cx="4" cy="4" r="2" class="filled"></circle>
        </marker>
        <marker id="open_circle" viewBox="0 0 8 8" refX="4" refY="4" markerWidth="7" markerHeight="7" orient="auto-start-reverse">
            <circle cx="4" cy="4" r="2" class="bg_filled"></circle>
        </marker>
        <marker id="big_open_circle" viewBox="0 0 8 8" refX="4" refY="4" markerWidth="7" markerHeight="7" orient="auto-start-reverse">
            <circle cx="4" cy="4" r="3" class="bg_filled"></circle>
        </marker>
    </defs>
    <rect class="backdrop" x="0" y="0" width="496" height="464"></rect>
    <rect x="260" y="200" width="112" height="64" class="solid nofill" rx="0"></rect>
    <text x="274" y="220" >Public</text>
    <text x="274" y="236" >Subnet</text>
    <path d="M 280,240 A 16,16 0,0,0 280,256" class="nofill"></path>
    <text x="282" y="252" >NAT</text>
    <text x="314" y="252" >GW</text>
    <path d="M 328,240 A 16,16 0,0,1 328,256" class="nofill"></path>
    <text x="18" y="12" >PUBLIC</text>
    <text x="74" y="12" >vs</text>
    <text x="98" y="12" >PRIVATE</text>
    <text x="162" y="12" >SUBNET</text>
    <text x="218" y="12" >TRAFFIC</text>
    <text x="282" y="12" >FLOW</text>
    <line x1="16" y1="22" x2="320" y2="22" class="solid"></line>
    <line x1="16" y1="26" x2="320" y2="26" class="solid"></line>
    <text x="194" y="60" >Internet</text>
    <text x="178" y="108" >Internet</text>
    <text x="178" y="124" >Gateway</text>
    <text x="74" y="220" >Public</text>
    <text x="74" y="236" >Subnet</text>
    <path d="M 80,240 A 16,16 0,0,0 80,256" class="nofill"></path>
    <text x="82" y="252" >Web</text>
    <line x1="112" y1="240" x2="104" y2="256" class="solid"></line>
    <text x="114" y="252" >ALB</text>
    <path d="M 136,240 A 16,16 0,0,1 136,256" class="nofill"></path>
    <text x="178" y="348" >Private</text>
    <text x="178" y="364" >Subnet</text>
    <path d="M 184,368 A 16,16 0,0,0 184,384" class="nofill"></path>
    <text x="186" y="380" >App</text>
    <line x1="216" y1="368" x2="208" y2="384" class="solid"></line>
    <text x="218" y="380" >DB</text>
    <path d="M 232,368 A 16,16 0,0,1 232,384" class="nofill"></path>
    <text x="18" y="428" >Inbound:</text>
    <text x="90" y="428" >Internet</text>
    <text x="18" y="444" >Outbound:</text>
    <text x="98" y="444" >Private</text>
    <text x="186" y="428" >IGW</text>
    <text x="162" y="444" >Subnet</text>
    <text x="242" y="428" >Public</text>
    <text x="242" y="444" >NAT</text>
    <text x="274" y="444" >GW</text>
    <text x="298" y="428" >Subnet</text>
    <text x="322" y="444" >IGW</text>
    <text x="378" y="428" >Private</text>
    <text x="442" y="428" >Subnet</text>
    <text x="378" y="444" >Internet</text>
    <g>
        <line x1="220" y1="64" x2="220" y2="88" class="solid"></line>
        <line x1="164" y1="88" x2="276" y2="88" class="solid"></line>
        <line x1="164" y1="88" x2="164" y2="136" class="solid"></line>
        <line x1="276" y1="88" x2="276" y2="136" class="solid"></line>
        <line x1="164" y1="136" x2="276" y2="136" class="solid"></line>
        <line x1="220" y1="136" x2="220" y2="168" class="solid"></line>
        <line x1="116" y1="168" x2="324" y2="168" class="solid"></line>
        <line x1="116" y1="168" x2="116" y2="200" class="solid"></line>
        <line x1="324" y1="168" x2="324" y2="192" class="solid"></line>
        <line x1="60" y1="200" x2="172" y2="200" class="solid"></line>
        <line x1="60" y1="200" x2="60" y2="264" class="solid"></line>
        <line x1="172" y1="200" x2="172" y2="264" class="solid"></line>
        <line x1="60" y1="264" x2="172" y2="264" class="solid"></line>
        <line x1="116" y1="264" x2="116" y2="296" class="solid"></line>
        <line x1="324" y1="272" x2="324" y2="296" class="solid"></line>
        <line x1="116" y1="296" x2="324" y2="296" class="solid"></line>
        <line x1="220" y1="296" x2="220" y2="328" class="solid"></line>
        <line x1="164" y1="328" x2="276" y2="328" class="solid"></line>
        <line x1="164" y1="328" x2="164" y2="392" class="solid"></line>
        <line x1="276" y1="328" x2="276" y2="392" class="solid"></line>
        <line x1="164" y1="392" x2="276" y2="392" class="solid"></line>
    </g>
    <g>
        <line x1="160" y1="424" x2="168" y2="424" class="solid"></line>
        <polygon points="168,420 176,424 168,428" class="filled"></polygon>
    </g>
    <g>
        <line x1="216" y1="424" x2="224" y2="424" class="solid"></line>
        <polygon points="224,420 232,424 224,428" class="filled"></polygon>
    </g>
    <g>
        <line x1="216" y1="440" x2="224" y2="440" class="solid"></line>
        <polygon points="224,436 232,440 224,444" class="filled"></polygon>
    </g>
    <g>
        <line x1="296" y1="440" x2="304" y2="440" class="solid"></line>
        <polygon points="304,436 312,440 304,444" class="filled"></polygon>
    </g>
    <g>
        <line x1="352" y1="424" x2="360" y2="424" class="solid"></line>
        <polygon points="360,420 368,424 360,428" class="filled"></polygon>
    </g>
    <g>
        <line x1="352" y1="440" x2="360" y2="440" class="solid"></line>
        <polygon points="360,436 368,440 360,444" class="filled"></polygon>
    </g>
</svg>