<svg xmlns="http://www.w3.org/2000/svg" width="528" height="240" style="background:#ffffff;border:1px solid #e5e5e5;border-radius:8px;max-width:100%;height:auto"><rect x="0" y="0" width="100%" height="100%" fill="#ffffff"/>
    <style>
        line, path, circle, rect, polygon{stroke:black;stroke-width:2;stroke-opacity:1;fill-opacity:1;stroke-linecap:round;stroke-linejoin:miter;}text{font-family:Iosevka Fixed, monospace;font-size:14px;}rect.backdrop{stroke:none;fill:transparent;}.broken{stroke-dasharray:8;}.filled{fill:black;}.bg_filled{fill:transparent;}.nofill{fill:transparent;}.end_marked_arrow{marker-end:url(#arrow);}.start_marked_arrow{marker-start:url(#arrow);}.end_marked_diamond{marker-end:url(#diamond);}.start_marked_diamond{marker-start:url(#diamond);}.end_marked_circle{marker-end:url(#circle);}.start_marked_circle{marker-start:url(#circle);}.end_marked_open_circle{marker-end:url(#open_circle);}.start_marked_open_circle{marker-start:url(#open_circle);}.end_marked_big_open_circle{marker-end:url(#big_open_circle);}.start_marked_big_open_circle{marker-start:url(#big_open_circle);}
        <!--separator-->
        
    </style>
    <defs>
        <marker id="arrow" viewBox="-2 -2 8 8" refX="4" refY="2" markerWidth="7" markerHeight="7" orient="auto-start-reverse">
            <polygon points="0,0 0,4 4,2 0,0"></polygon>
        </marker>
        <marker id="diamond" viewBox="-2 -2 8 8" refX="4" refY="2" markerWidth="7" markerHeight="7" orient="auto-start-reverse">
            <polygon points="0,2 2,0 4,2 2,4 0,2"></polygon>
        </marker>
        <marker id="circle" viewBox="0 0 8 8" refX="4" refY="4" markerWidth="7" markerHeight="7" orient="auto-start-reverse">
            <circle cx="4" cy="4" r="2" class="filled"></circle>
        </marker>
        <marker id="open_circle" viewBox="0 0 8 8" refX="4" refY="4" markerWidth="7" markerHeight="7" orient="auto-start-reverse">
            <circle cx="4" cy="4" r="2" class="bg_filled"></circle>
        </marker>
        <marker id="big_open_circle" viewBox="0 0 8 8" refX="4" refY="4" markerWidth="7" markerHeight="7" orient="auto-start-reverse">
            <circle cx="4" cy="4" r="3" class="bg_filled"></circle>
        </marker>
    </defs>
    <rect class="backdrop" x="0" y="0" width="528" height="240"></rect>
    <text x="18" y="12" >PREDICTIVE</text>
    <text x="106" y="12" >SCALING</text>
    <line x1="16" y1="22" x2="168" y2="22" class="solid"></line>
    <line x1="16" y1="26" x2="168" y2="26" class="solid"></line>
    <text x="18" y="60" >Historical</text>
    <text x="106" y="60" >data</text>
    <text x="154" y="60" >last</text>
    <text x="18" y="76" >Day</text>
    <text x="50" y="76" >1</text>
    <line x1="60" y1="64" x2="60" y2="112" class="broken"></line>
    <text x="18" y="92" >Day</text>
    <text x="50" y="92" >2</text>
    <text x="18" y="108" >Day</text>
    <text x="50" y="108" >3</text>
    <text x="18" y="124" >...</text>
    <text x="194" y="60" >14</text>
    <text x="218" y="60" >days</text>
    <path d="M 248,48 A 16,16 0,0,1 248,64" class="nofill"></path>
    <text x="258" y="60" >:</text>
    <path d="M 200,64 A 16,16 0,0,0 200,80" class="nofill"></path>
    <text x="202" y="76" >traffic</text>
    <text x="266" y="76" >peak</text>
    <text x="306" y="76" >at</text>
    <text x="330" y="76" >9</text>
    <text x="346" y="76" >AM</text>
    <text x="370" y="76" >and</text>
    <text x="402" y="76" >2</text>
    <text x="418" y="76" >PM</text>
    <path d="M 432,64 A 16,16 0,0,1 432,80" class="nofill"></path>
    <text x="18" y="156" >ML</text>
    <text x="42" y="156" >model</text>
    <text x="90" y="156" >predicts:</text>
    <text x="170" y="156" >tomorrow</text>
    <text x="18" y="172" >Pre</text>
    <line x1="40" y1="168" x2="48" y2="168" class="solid"></line>
    <text x="50" y="172" >scales</text>
    <text x="106" y="172" >capacity</text>
    <text x="178" y="172" >at</text>
    <text x="202" y="172" >8:30</text>
    <text x="242" y="156" >at</text>
    <text x="266" y="156" >8:45</text>
    <text x="306" y="156" >AM,</text>
    <text x="338" y="156" >demand</text>
    <text x="394" y="156" >will</text>
    <text x="434" y="156" >rise.</text>
    <text x="242" y="172" >AM,</text>
    <text x="274" y="172" >before</text>
    <text x="330" y="172" >the</text>
    <text x="362" y="172" >traffic</text>
    <text x="426" y="172" >arri</text>
    <polygon points="464,164 456,168 460,160" class="filled"></polygon>
    <text x="466" y="172" >es.</text>
    <text x="18" y="204" >Advantage:</text>
    <text x="106" y="204" >no</text>
    <text x="130" y="204" >cold</text>
    <line x1="160" y1="200" x2="168" y2="200" class="solid"></line>
    <text x="170" y="204" >start</text>
    <text x="218" y="204" >delay</text>
    <text x="266" y="204" >during</text>
    <text x="322" y="204" >predictable</text>
    <text x="418" y="204" >peaks.</text>
    <text x="18" y="220" >Limitation:</text>
    <text x="114" y="220" >cannot</text>
    <text x="170" y="220" >predict</text>
    <text x="234" y="220" >unprecedented</text>
    <text x="346" y="220" >events</text>
    <path d="M 408,208 A 16,16 0,0,0 408,224" class="nofill"></path>
    <text x="410" y="220" >viral</text>
    <text x="458" y="220" >tweets</text>
    <path d="M 504,208 A 16,16 0,0,1 504,224" class="nofill"></path>
    <text x="514" y="220" >.</text>
    <g>
        <path d="M 152,48 A 16,16 0,0,0 152,64" class="nofill"></path>
        <line x1="80" y1="80" x2="104" y2="80" class="solid"></line>
        <line x1="112" y1="64" x2="104" y2="80" class="solid"></line>
        <line x1="112" y1="64" x2="120" y2="80" class="solid"></line>
        <line x1="120" y1="80" x2="144" y2="80" class="solid"></line>
        <line x1="152" y1="64" x2="144" y2="80" class="solid"></line>
        <line x1="152" y1="64" x2="160" y2="80" class="solid"></line>
        <line x1="160" y1="80" x2="184" y2="80" class="solid"></line>
    </g>
    <g>
        <line x1="80" y1="96" x2="104" y2="96" class="solid"></line>
        <line x1="112" y1="80" x2="104" y2="96" class="solid"></line>
        <line x1="112" y1="80" x2="120" y2="96" class="solid"></line>
        <line x1="120" y1="96" x2="144" y2="96" class="solid"></line>
        <line x1="152" y1="80" x2="144" y2="96" class="solid"></line>
        <line x1="152" y1="80" x2="160" y2="96" class="solid"></line>
        <line x1="160" y1="96" x2="184" y2="96" class="solid"></line>
    </g>
    <g>
        <line x1="80" y1="112" x2="104" y2="112" class="solid"></line>
        <line x1="112" y1="96" x2="104" y2="112" class="solid"></line>
        <line x1="112" y1="96" x2="120" y2="112" class="solid"></line>
        <line x1="120" y1="112" x2="144" y2="112" class="solid"></line>
        <line x1="152" y1="96" x2="144" y2="112" class="solid"></line>
        <line x1="152" y1="96" x2="160" y2="112" class="solid"></line>
        <line x1="160" y1="112" x2="184" y2="112" class="solid"></line>
    </g>
</svg>