<svg xmlns="http://www.w3.org/2000/svg" width="464" height="544" style="background:#ffffff;border:1px solid #e5e5e5;border-radius:8px;max-width:100%;height:auto"><rect x="0" y="0" width="100%" height="100%" fill="#ffffff"/>
    <style>
        line, path, circle, rect, polygon{stroke:black;stroke-width:2;stroke-opacity:1;fill-opacity:1;stroke-linecap:round;stroke-linejoin:miter;}text{font-family:Iosevka Fixed, monospace;font-size:14px;}rect.backdrop{stroke:none;fill:transparent;}.broken{stroke-dasharray:8;}.filled{fill:black;}.bg_filled{fill:transparent;}.nofill{fill:transparent;}.end_marked_arrow{marker-end:url(#arrow);}.start_marked_arrow{marker-start:url(#arrow);}.end_marked_diamond{marker-end:url(#diamond);}.start_marked_diamond{marker-start:url(#diamond);}.end_marked_circle{marker-end:url(#circle);}.start_marked_circle{marker-start:url(#circle);}.end_marked_open_circle{marker-end:url(#open_circle);}.start_marked_open_circle{marker-start:url(#open_circle);}.end_marked_big_open_circle{marker-end:url(#big_open_circle);}.start_marked_big_open_circle{marker-start:url(#big_open_circle);}
        <!--separator-->
        
    </style>
    <defs>
        <marker id="arrow" viewBox="-2 -2 8 8" refX="4" refY="2" markerWidth="7" markerHeight="7" orient="auto-start-reverse">
            <polygon points="0,0 0,4 4,2 0,0"></polygon>
        </marker>
        <marker id="diamond" viewBox="-2 -2 8 8" refX="4" refY="2" markerWidth="7" markerHeight="7" orient="auto-start-reverse">
            <polygon points="0,2 2,0 4,2 2,4 0,2"></polygon>
        </marker>
        <marker id="circle" viewBox="0 0 8 8" refX="4" refY="4" markerWidth="7" markerHeight="7" orient="auto-start-reverse">
            <circle cx="4" cy="4" r="2" class="filled"></circle>
        </marker>
        <marker id="open_circle" viewBox="0 0 8 8" refX="4" refY="4" markerWidth="7" markerHeight="7" orient="auto-start-reverse">
            <circle cx="4" cy="4" r="2" class="bg_filled"></circle>
        </marker>
        <marker id="big_open_circle" viewBox="0 0 8 8" refX="4" refY="4" markerWidth="7" markerHeight="7" orient="auto-start-reverse">
            <circle cx="4" cy="4" r="3" class="bg_filled"></circle>
        </marker>
    </defs>
    <rect class="backdrop" x="0" y="0" width="464" height="544"></rect>
    <rect x="76" y="408" width="184" height="80" class="solid nofill" rx="0"></rect>
    <text x="98" y="428" >BPF</text>
    <text x="130" y="428" >Maps</text>
    <path d="M 176,416 A 16,16 0,0,0 176,432" class="nofill"></path>
    <text x="178" y="428" >shared</text>
    <text x="98" y="444" >data</text>
    <text x="138" y="444" >structures:</text>
    <text x="98" y="460" >hash</text>
    <text x="138" y="460" >maps,</text>
    <text x="186" y="460" >arrays,</text>
    <text x="98" y="476" >ring</text>
    <text x="138" y="476" >buffers</text>
    <path d="M 192,464 A 16,16 0,0,1 192,480" class="nofill"></path>
    <rect x="76" y="312" width="80" height="64" class="solid nofill" rx="0"></rect>
    <text x="98" y="332" >XDP</text>
    <path d="M 88,336 A 16,16 0,0,0 88,352" class="nofill"></path>
    <text x="90" y="348" >packet</text>
    <text x="90" y="364" >arrive</text>
    <path d="M 136,352 A 16,16 0,0,1 136,368" class="nofill"></path>
    <rect x="180" y="312" width="80" height="64" class="solid nofill" rx="0"></rect>
    <text x="194" y="332" >tc</text>
    <path d="M 192,336 A 16,16 0,0,0 192,352" class="nofill"></path>
    <text x="194" y="348" >traffic</text>
    <text x="194" y="364" >control</text>
    <path d="M 248,352 A 16,16 0,0,1 248,368" class="nofill"></path>
    <text x="34" y="28" >User</text>
    <text x="74" y="28" >Space</text>
    <text x="58" y="60" >Cilium</text>
    <line x1="132" y1="48" x2="132" y2="80" class="solid"></line>
    <text x="58" y="76" >Agent</text>
    <line x1="32" y1="120" x2="72" y2="120" class="solid"></line>
    <line x1="32" y1="124" x2="72" y2="124" class="solid"></line>
    <line x1="80" y1="120" x2="136" y2="120" class="solid"></line>
    <line x1="80" y1="124" x2="136" y2="124" class="solid"></line>
    <text x="58" y="172" >Kernel</text>
    <text x="82" y="220" >Verifier</text>
    <line x1="164" y1="208" x2="164" y2="256" class="solid"></line>
    <text x="218" y="220" >JIT</text>
    <text x="250" y="220" >Compiler</text>
    <path d="M 88,224 A 16,16 0,0,0 88,240" class="nofill"></path>
    <text x="90" y="236" >safety</text>
    <line x1="204" y1="224" x2="204" y2="256" class="solid"></line>
    <path d="M 232,224 A 16,16 0,0,0 232,240" class="nofill"></path>
    <text x="234" y="236" >compiles</text>
    <text x="306" y="236" >eBPF</text>
    <line x1="380" y1="224" x2="380" y2="256" class="solid"></line>
    <line x1="420" y1="224" x2="420" y2="256" class="solid"></line>
    <line x1="452" y1="224" x2="452" y2="256" class="solid"></line>
    <text x="90" y="252" >checks</text>
    <path d="M 136,240 A 16,16 0,0,1 136,256" class="nofill"></path>
    <text x="234" y="252" >to</text>
    <text x="258" y="252" >native</text>
    <text x="314" y="252" >code</text>
    <path d="M 344,240 A 16,16 0,0,1 344,256" class="nofill"></path>
    <line x1="412" y1="256" x2="412" y2="304" class="solid"></line>
    <line x1="444" y1="256" x2="444" y2="304" class="solid"></line>
    <line x1="404" y1="304" x2="404" y2="336" class="solid"></line>
    <line x1="436" y1="304" x2="436" y2="336" class="solid"></line>
    <text x="306" y="332" >kprobe</text>
    <line x1="360" y1="320" x2="352" y2="336" class="solid"></line>
    <text x="306" y="348" >tracepoint</text>
    <line x1="388" y1="336" x2="388" y2="352" class="solid"></line>
    <line x1="412" y1="336" x2="412" y2="352" class="solid"></line>
    <line x1="444" y1="336" x2="444" y2="352" class="solid"></line>
    <path d="M 312,352 A 16,16 0,0,0 312,368" class="nofill"></path>
    <text x="314" y="364" >func</text>
    <line x1="404" y1="352" x2="404" y2="432" class="solid"></line>
    <line x1="436" y1="352" x2="436" y2="432" class="solid"></line>
    <text x="314" y="380" >entry</text>
    <path d="M 352,368 A 16,16 0,0,1 352,384" class="nofill"></path>
    <text x="154" y="60" >Compiles</text>
    <text x="226" y="60" >eBPF</text>
    <text x="266" y="60" >programs,</text>
    <text x="346" y="60" >loads</text>
    <text x="154" y="76" >into</text>
    <text x="194" y="76" >kernel</text>
    <text x="250" y="76" >via</text>
    <text x="282" y="76" >bpf</text>
    <text x="330" y="76" >syscall</text>
    <text x="394" y="60" >them</text>
    <text x="146" y="124" >bpf</text>
    <text x="194" y="124" >system</text>
    <text x="250" y="124" >call</text>
    <line x1="288" y1="120" x2="408" y2="120" class="solid"></line>
    <line x1="288" y1="124" x2="408" y2="124" class="solid"></line>
    <text x="74" y="300" >Attached</text>
    <text x="146" y="300" >to</text>
    <text x="170" y="300" >hook</text>
    <text x="210" y="300" >points:</text>
    <g>
        <line x1="12" y1="8" x2="444" y2="8" class="solid"></line>
        <line x1="12" y1="8" x2="12" y2="520" class="solid"></line>
        <line x1="444" y1="8" x2="444" y2="224" class="solid"></line>
        <line x1="444" y1="432" x2="444" y2="520" class="solid"></line>
        <line x1="12" y1="520" x2="444" y2="520" class="solid"></line>
    </g>
    <g>
        <line x1="36" y1="40" x2="124" y2="40" class="solid"></line>
        <line x1="36" y1="40" x2="36" y2="88" class="solid"></line>
        <line x1="124" y1="40" x2="124" y2="48" class="solid"></line>
        <line x1="36" y1="88" x2="124" y2="88" class="solid"></line>
        <line x1="76" y1="88" x2="76" y2="116" class="solid"></line>
        <line x1="124" y1="80" x2="124" y2="88" class="solid"></line>
        <polygon points="72,116 80,116 76,128" class="filled"></polygon>
    </g>
    <g>
        <line x1="36" y1="152" x2="412" y2="152" class="solid"></line>
        <line x1="36" y1="152" x2="36" y2="504" class="solid"></line>
        <line x1="412" y1="152" x2="412" y2="224" class="solid"></line>
        <line x1="412" y1="432" x2="412" y2="504" class="solid"></line>
        <line x1="36" y1="504" x2="412" y2="504" class="solid"></line>
    </g>
    <g>
        <line x1="60" y1="200" x2="156" y2="200" class="solid"></line>
        <line x1="60" y1="200" x2="60" y2="264" class="solid"></line>
        <line x1="156" y1="200" x2="156" y2="208" class="solid"></line>
        <line x1="60" y1="264" x2="156" y2="264" class="solid"></line>
        <line x1="156" y1="256" x2="156" y2="264" class="solid"></line>
    </g>
    <g>
        <line x1="196" y1="200" x2="372" y2="200" class="solid"></line>
        <line x1="196" y1="200" x2="196" y2="224" class="solid"></line>
        <line x1="372" y1="200" x2="372" y2="224" class="solid"></line>
    </g>
    <g>
        <line x1="168" y1="216" x2="184" y2="216" class="solid"></line>
        <polygon points="184,212 192,216 184,220" class="filled"></polygon>
    </g>
    <g>
        <line x1="196" y1="256" x2="196" y2="264" class="solid"></line>
        <line x1="196" y1="264" x2="372" y2="264" class="solid"></line>
        <line x1="284" y1="264" x2="284" y2="304" class="solid"></line>
        <line x1="372" y1="256" x2="372" y2="264" class="solid"></line>
    </g>
    <g>
        <line x1="276" y1="304" x2="276" y2="424" class="solid"></line>
        <polygon points="272,420 264,424 272,428" class="filled"></polygon>
        <line x1="272" y1="424" x2="276" y2="424" class="solid"></line>
    </g>
    <g>
        <line x1="292" y1="312" x2="380" y2="312" class="solid"></line>
        <line x1="292" y1="312" x2="292" y2="392" class="solid"></line>
        <line x1="380" y1="312" x2="380" y2="336" class="solid"></line>
        <line x1="380" y1="352" x2="380" y2="392" class="solid"></line>
        <line x1="292" y1="392" x2="380" y2="392" class="solid"></line>
    </g>
    <g>
        <path d="M 312,64 A 16,16 0,0,0 312,80" class="nofill"></path>
        <path d="M 312,64 A 16,16 0,0,1 312,80" class="nofill"></path>
    </g>
    <g>
        <path d="M 176,112 A 16,16 0,0,0 176,128" class="nofill"></path>
        <path d="M 176,112 A 16,16 0,0,1 176,128" class="nofill"></path>
    </g>
</svg>