<svg xmlns="http://www.w3.org/2000/svg" width="472" height="464" style="background:#ffffff;border:1px solid #e5e5e5;border-radius:8px;max-width:100%;height:auto"><rect x="0" y="0" width="100%" height="100%" fill="#ffffff"/>
    <style>
        line, path, circle, rect, polygon{stroke:black;stroke-width:2;stroke-opacity:1;fill-opacity:1;stroke-linecap:round;stroke-linejoin:miter;}text{font-family:Iosevka Fixed, monospace;font-size:14px;}rect.backdrop{stroke:none;fill:transparent;}.broken{stroke-dasharray:8;}.filled{fill:black;}.bg_filled{fill:transparent;}.nofill{fill:transparent;}.end_marked_arrow{marker-end:url(#arrow);}.start_marked_arrow{marker-start:url(#arrow);}.end_marked_diamond{marker-end:url(#diamond);}.start_marked_diamond{marker-start:url(#diamond);}.end_marked_circle{marker-end:url(#circle);}.start_marked_circle{marker-start:url(#circle);}.end_marked_open_circle{marker-end:url(#open_circle);}.start_marked_open_circle{marker-start:url(#open_circle);}.end_marked_big_open_circle{marker-end:url(#big_open_circle);}.start_marked_big_open_circle{marker-start:url(#big_open_circle);}
        <!--separator-->
        
    </style>
    <defs>
        <marker id="arrow" viewBox="-2 -2 8 8" refX="4" refY="2" markerWidth="7" markerHeight="7" orient="auto-start-reverse">
            <polygon points="0,0 0,4 4,2 0,0"></polygon>
        </marker>
        <marker id="diamond" viewBox="-2 -2 8 8" refX="4" refY="2" markerWidth="7" markerHeight="7" orient="auto-start-reverse">
            <polygon points="0,2 2,0 4,2 2,4 0,2"></polygon>
        </marker>
        <marker id="circle" viewBox="0 0 8 8" refX="4" refY="4" markerWidth="7" markerHeight="7" orient="auto-start-reverse">
            <circle cx="4" cy="4" r="2" class="filled"></circle>
        </marker>
        <marker id="open_circle" viewBox="0 0 8 8" refX="4" refY="4" markerWidth="7" markerHeight="7" orient="auto-start-reverse">
            <circle cx="4" cy="4" r="2" class="bg_filled"></circle>
        </marker>
        <marker id="big_open_circle" viewBox="0 0 8 8" refX="4" refY="4" markerWidth="7" markerHeight="7" orient="auto-start-reverse">
            <circle cx="4" cy="4" r="3" class="bg_filled"></circle>
        </marker>
    </defs>
    <rect class="backdrop" x="0" y="0" width="472" height="464"></rect>
    <rect x="60" y="184" width="88" height="48" class="solid nofill" rx="0"></rect>
    <text x="74" y="204" >Process</text>
    <text x="74" y="220" >Sched.</text>
    <rect x="164" y="184" width="72" height="48" class="solid nofill" rx="0"></rect>
    <text x="178" y="204" >Memory</text>
    <text x="178" y="220" >Mgmt</text>
    <rect x="252" y="184" width="72" height="48" class="solid nofill" rx="0"></rect>
    <text x="274" y="204" >File</text>
    <text x="266" y="220" >System</text>
    <rect x="340" y="184" width="64" height="48" class="solid nofill" rx="0"></rect>
    <text x="362" y="204" >Net</text>
    <text x="354" y="220" >Stack</text>
    <rect x="60" y="248" width="88" height="48" class="solid nofill" rx="0"></rect>
    <text x="74" y="268" >Device</text>
    <text x="74" y="284" >Drivers</text>
    <rect x="164" y="248" width="72" height="48" class="solid nofill" rx="0"></rect>
    <text x="170" y="268" >Security</text>
    <text x="178" y="284" >Module</text>
    <rect x="252" y="248" width="168" height="48" class="solid nofill" rx="0"></rect>
    <text x="274" y="268" >IPC</text>
    <path d="M 312,256 A 16,16 0,0,0 312,272" class="nofill"></path>
    <text x="314" y="268" >pipes,</text>
    <text x="274" y="284" >shared</text>
    <text x="330" y="284" >mem,</text>
    <text x="370" y="284" >etc.</text>
    <path d="M 400,272 A 16,16 0,0,1 400,288" class="nofill"></path>
    <rect x="132" y="360" width="160" height="64" class="solid nofill" rx="0"></rect>
    <text x="178" y="380" >HARDWARE</text>
    <text x="154" y="396" >CPU,</text>
    <text x="194" y="396" >RAM,</text>
    <text x="234" y="396" >Disk,</text>
    <text x="154" y="412" >NIC,</text>
    <text x="194" y="412" >GPU,</text>
    <text x="234" y="412" >...</text>
    <text x="178" y="28" >USER</text>
    <text x="218" y="28" >SPACE</text>
    <line x1="460" y1="16" x2="460" y2="32" class="solid"></line>
    <text x="170" y="60" >python</text>
    <text x="290" y="60" >bash</text>
    <line x1="460" y1="80" x2="460" y2="176" class="solid"></line>
    <text x="186" y="124" >CALL</text>
    <line x1="304" y1="120" x2="432" y2="120" class="solid"></line>
    <line x1="304" y1="124" x2="432" y2="124" class="solid"></line>
    <text x="162" y="172" >KERNEL</text>
    <text x="218" y="172" >SPACE</text>
    <line x1="428" y1="176" x2="428" y2="304" class="solid"></line>
    <line x1="452" y1="176" x2="452" y2="304" class="solid"></line>
    <line x1="460" y1="304" x2="460" y2="432" class="solid"></line>
    <text x="58" y="60" >nginx</text>
    <line x1="32" y1="120" x2="120" y2="120" class="solid"></line>
    <line x1="32" y1="124" x2="120" y2="124" class="solid"></line>
    <line x1="444" y1="32" x2="444" y2="80" class="solid"></line>
    <text x="370" y="60" >...</text>
    <text x="130" y="124" >SYSTEM</text>
    <text x="226" y="124" >INTERFACE</text>
    <g>
        <line x1="12" y1="8" x2="452" y2="8" class="solid"></line>
        <line x1="12" y1="8" x2="12" y2="440" class="solid"></line>
        <line x1="452" y1="8" x2="452" y2="16" class="solid"></line>
        <line x1="12" y1="440" x2="452" y2="440" class="solid"></line>
        <line x1="452" y1="432" x2="452" y2="440" class="solid"></line>
    </g>
    <g>
        <line x1="148" y1="40" x2="236" y2="40" class="solid"></line>
        <line x1="148" y1="40" x2="148" y2="72" class="solid"></line>
        <line x1="236" y1="40" x2="236" y2="72" class="solid"></line>
        <line x1="148" y1="72" x2="236" y2="72" class="solid"></line>
        <line x1="188" y1="72" x2="188" y2="80" class="solid"></line>
    </g>
    <g>
        <line x1="260" y1="40" x2="348" y2="40" class="solid"></line>
        <line x1="260" y1="40" x2="260" y2="72" class="solid"></line>
        <line x1="348" y1="40" x2="348" y2="72" class="solid"></line>
        <line x1="260" y1="72" x2="348" y2="72" class="solid"></line>
        <line x1="300" y1="72" x2="300" y2="80" class="solid"></line>
    </g>
    <g>
        <line x1="196" y1="80" x2="196" y2="100" class="solid"></line>
        <polygon points="192,100 200,100 196,112" class="filled"></polygon>
    </g>
    <g>
        <line x1="316" y1="80" x2="316" y2="100" class="solid"></line>
        <polygon points="312,100 320,100 316,112" class="filled"></polygon>
    </g>
    <g>
        <line x1="36" y1="152" x2="436" y2="152" class="solid"></line>
        <line x1="36" y1="152" x2="36" y2="312" class="solid"></line>
        <line x1="436" y1="152" x2="436" y2="176" class="solid"></line>
        <line x1="36" y1="312" x2="436" y2="312" class="solid"></line>
        <line x1="436" y1="304" x2="436" y2="312" class="solid"></line>
    </g>
    <g>
        <line x1="212" y1="320" x2="212" y2="340" class="solid"></line>
        <polygon points="208,340 216,340 212,352" class="filled"></polygon>
    </g>
    <g>
        <line x1="36" y1="40" x2="124" y2="40" class="solid"></line>
        <line x1="36" y1="40" x2="36" y2="72" class="solid"></line>
        <line x1="124" y1="40" x2="124" y2="72" class="solid"></line>
        <line x1="36" y1="72" x2="124" y2="72" class="solid"></line>
        <line x1="76" y1="72" x2="76" y2="100" class="solid"></line>
        <polygon points="72,100 80,100 76,112" class="filled"></polygon>
    </g>
</svg>