<svg xmlns="http://www.w3.org/2000/svg" width="568" height="368" style="background:#ffffff;border:1px solid #e5e5e5;border-radius:8px;max-width:100%;height:auto"><rect x="0" y="0" width="100%" height="100%" fill="#ffffff"/>
    <style>
        line, path, circle, rect, polygon{stroke:black;stroke-width:2;stroke-opacity:1;fill-opacity:1;stroke-linecap:round;stroke-linejoin:miter;}text{font-family:Iosevka Fixed, monospace;font-size:14px;}rect.backdrop{stroke:none;fill:transparent;}.broken{stroke-dasharray:8;}.filled{fill:black;}.bg_filled{fill:transparent;}.nofill{fill:transparent;}.end_marked_arrow{marker-end:url(#arrow);}.start_marked_arrow{marker-start:url(#arrow);}.end_marked_diamond{marker-end:url(#diamond);}.start_marked_diamond{marker-start:url(#diamond);}.end_marked_circle{marker-end:url(#circle);}.start_marked_circle{marker-start:url(#circle);}.end_marked_open_circle{marker-end:url(#open_circle);}.start_marked_open_circle{marker-start:url(#open_circle);}.end_marked_big_open_circle{marker-end:url(#big_open_circle);}.start_marked_big_open_circle{marker-start:url(#big_open_circle);}
        <!--separator-->
        
    </style>
    <defs>
        <marker id="arrow" viewBox="-2 -2 8 8" refX="4" refY="2" markerWidth="7" markerHeight="7" orient="auto-start-reverse">
            <polygon points="0,0 0,4 4,2 0,0"></polygon>
        </marker>
        <marker id="diamond" viewBox="-2 -2 8 8" refX="4" refY="2" markerWidth="7" markerHeight="7" orient="auto-start-reverse">
            <polygon points="0,2 2,0 4,2 2,4 0,2"></polygon>
        </marker>
        <marker id="circle" viewBox="0 0 8 8" refX="4" refY="4" markerWidth="7" markerHeight="7" orient="auto-start-reverse">
            <circle cx="4" cy="4" r="2" class="filled"></circle>
        </marker>
        <marker id="open_circle" viewBox="0 0 8 8" refX="4" refY="4" markerWidth="7" markerHeight="7" orient="auto-start-reverse">
            <circle cx="4" cy="4" r="2" class="bg_filled"></circle>
        </marker>
        <marker id="big_open_circle" viewBox="0 0 8 8" refX="4" refY="4" markerWidth="7" markerHeight="7" orient="auto-start-reverse">
            <circle cx="4" cy="4" r="3" class="bg_filled"></circle>
        </marker>
    </defs>
    <rect class="backdrop" x="0" y="0" width="568" height="368"></rect>
    <rect x="36" y="40" width="80" height="48" class="solid nofill" rx="0"></rect>
    <text x="58" y="60" >eth0</text>
    <text x="42" y="76" >10.0.1.5</text>
    <rect x="36" y="184" width="80" height="48" class="solid nofill" rx="0"></rect>
    <text x="58" y="204" >eth0</text>
    <text x="42" y="220" >10.0.1.6</text>
    <line x1="300" y1="16" x2="300" y2="144" class="solid"></line>
    <line x1="556" y1="16" x2="556" y2="144" class="solid"></line>
    <text x="426" y="60" >vethXXXX</text>
    <text x="138" y="76" >veth</text>
    <text x="178" y="76" >pair</text>
    <text x="434" y="124" >cbr0</text>
    <path d="M 432,128 A 16,16 0,0,0 432,144" class="nofill"></path>
    <text x="434" y="140" >bridge</text>
    <path d="M 480,128 A 16,16 0,0,1 480,144" class="nofill"></path>
    <line x1="292" y1="144" x2="292" y2="160" class="solid"></line>
    <line x1="396" y1="144" x2="396" y2="160" class="solid"></line>
    <text x="418" y="156" >10.0.1.1</text>
    <line x1="500" y1="144" x2="500" y2="160" class="solid"></line>
    <line x1="548" y1="144" x2="548" y2="160" class="solid"></line>
    <line x1="556" y1="160" x2="556" y2="192" class="solid"></line>
    <line x1="548" y1="192" x2="548" y2="240" class="solid"></line>
    <text x="138" y="220" >veth</text>
    <text x="178" y="220" >pair</text>
    <text x="418" y="220" >vethYYYY</text>
    <text x="426" y="284" >eth0</text>
    <path d="M 424,288 A 16,16 0,0,0 424,304" class="nofill"></path>
    <text x="426" y="300" >host</text>
    <text x="466" y="300" >NIC</text>
    <path d="M 488,288 A 16,16 0,0,1 488,304" class="nofill"></path>
    <text x="418" y="316" >192.168.1.10</text>
    <line x1="516" y1="304" x2="516" y2="320" class="solid"></line>
    <text x="50" y="12" >Container</text>
    <text x="130" y="12" >Net</text>
    <text x="162" y="12" >NS</text>
    <text x="330" y="12" >Host</text>
    <text x="370" y="12" >Net</text>
    <text x="402" y="12" >NS</text>
    <text x="50" y="156" >Container</text>
    <text x="130" y="156" >Net</text>
    <text x="162" y="156" >NS</text>
    <g>
        <line x1="12" y1="8" x2="40" y2="8" class="solid"></line>
        <line x1="12" y1="8" x2="12" y2="120" class="solid"></line>
        <line x1="220" y1="16" x2="220" y2="120" class="solid"></line>
        <line x1="12" y1="120" x2="220" y2="120" class="solid"></line>
    </g>
    <g>
        <line x1="184" y1="8" x2="212" y2="8" class="solid"></line>
        <line x1="212" y1="8" x2="212" y2="16" class="solid"></line>
    </g>
    <g>
        <line x1="292" y1="8" x2="320" y2="8" class="solid"></line>
        <line x1="292" y1="8" x2="292" y2="16" class="solid"></line>
    </g>
    <g>
        <line x1="424" y1="8" x2="548" y2="8" class="solid"></line>
        <line x1="548" y1="8" x2="548" y2="16" class="solid"></line>
    </g>
    <g>
        <line x1="404" y1="40" x2="508" y2="40" class="solid"></line>
        <line x1="404" y1="40" x2="404" y2="72" class="solid"></line>
        <line x1="508" y1="40" x2="508" y2="72" class="solid"></line>
        <line x1="404" y1="72" x2="508" y2="72" class="solid"></line>
        <line x1="452" y1="72" x2="452" y2="100" class="solid"></line>
        <polygon points="448,100 456,100 452,112" class="filled"></polygon>
    </g>
    <g>
        <polygon points="128,52 120,56 128,60" class="filled"></polygon>
        <line x1="128" y1="56" x2="392" y2="56" class="solid"></line>
        <line x1="128" y1="60" x2="392" y2="60" class="solid"></line>
        <polygon points="392,52 400,56 392,60" class="filled"></polygon>
    </g>
    <g>
        <line x1="404" y1="104" x2="448" y2="104" class="solid"></line>
        <line x1="404" y1="104" x2="404" y2="144" class="solid"></line>
    </g>
    <g>
        <line x1="456" y1="104" x2="508" y2="104" class="solid"></line>
        <line x1="508" y1="104" x2="508" y2="144" class="solid"></line>
    </g>
    <g>
        <line x1="12" y1="152" x2="40" y2="152" class="solid"></line>
        <line x1="12" y1="152" x2="12" y2="264" class="solid"></line>
        <line x1="220" y1="160" x2="220" y2="264" class="solid"></line>
        <line x1="12" y1="264" x2="220" y2="264" class="solid"></line>
    </g>
    <g>
        <line x1="184" y1="152" x2="212" y2="152" class="solid"></line>
        <line x1="212" y1="152" x2="212" y2="160" class="solid"></line>
    </g>
    <g>
        <line x1="300" y1="160" x2="300" y2="344" class="solid"></line>
        <line x1="556" y1="240" x2="556" y2="344" class="solid"></line>
        <line x1="300" y1="344" x2="556" y2="344" class="solid"></line>
    </g>
    <g>
        <line x1="404" y1="160" x2="404" y2="168" class="solid"></line>
        <line x1="404" y1="168" x2="508" y2="168" class="solid"></line>
        <line x1="452" y1="168" x2="452" y2="192" class="solid"></line>
        <line x1="508" y1="160" x2="508" y2="168" class="solid"></line>
        <line x1="444" y1="192" x2="444" y2="196" class="solid"></line>
        <polygon points="440,196 448,196 444,208" class="filled"></polygon>
    </g>
    <g>
        <polygon points="128,196 120,200 128,204" class="filled"></polygon>
        <line x1="128" y1="200" x2="384" y2="200" class="solid"></line>
        <line x1="128" y1="204" x2="384" y2="204" class="solid"></line>
        <polygon points="384,196 392,200 384,204" class="filled"></polygon>
    </g>
    <g>
        <line x1="396" y1="200" x2="440" y2="200" class="solid"></line>
        <line x1="396" y1="200" x2="396" y2="232" class="solid"></line>
        <line x1="448" y1="200" x2="500" y2="200" class="solid"></line>
        <line x1="500" y1="200" x2="500" y2="232" class="solid"></line>
        <line x1="396" y1="232" x2="500" y2="232" class="solid"></line>
    </g>
    <g>
        <line x1="452" y1="240" x2="452" y2="260" class="solid"></line>
        <polygon points="448,260 456,260 452,272" class="filled"></polygon>
    </g>
    <g>
        <line x1="404" y1="264" x2="448" y2="264" class="solid"></line>
        <line x1="404" y1="264" x2="404" y2="328" class="solid"></line>
        <line x1="404" y1="328" x2="508" y2="328" class="solid"></line>
        <line x1="508" y1="320" x2="508" y2="328" class="solid"></line>
    </g>
    <g>
        <line x1="456" y1="264" x2="508" y2="264" class="solid"></line>
        <line x1="508" y1="264" x2="508" y2="304" class="solid"></line>
    </g>
</svg>