<svg xmlns="http://www.w3.org/2000/svg" width="440" height="256" style="background:#ffffff;border:1px solid #e5e5e5;border-radius:8px;max-width:100%;height:auto"><rect x="0" y="0" width="100%" height="100%" fill="#ffffff"/>
    <style>
        line, path, circle, rect, polygon{stroke:black;stroke-width:2;stroke-opacity:1;fill-opacity:1;stroke-linecap:round;stroke-linejoin:miter;}text{font-family:Iosevka Fixed, monospace;font-size:14px;}rect.backdrop{stroke:none;fill:transparent;}.broken{stroke-dasharray:8;}.filled{fill:black;}.bg_filled{fill:transparent;}.nofill{fill:transparent;}.end_marked_arrow{marker-end:url(#arrow);}.start_marked_arrow{marker-start:url(#arrow);}.end_marked_diamond{marker-end:url(#diamond);}.start_marked_diamond{marker-start:url(#diamond);}.end_marked_circle{marker-end:url(#circle);}.start_marked_circle{marker-start:url(#circle);}.end_marked_open_circle{marker-end:url(#open_circle);}.start_marked_open_circle{marker-start:url(#open_circle);}.end_marked_big_open_circle{marker-end:url(#big_open_circle);}.start_marked_big_open_circle{marker-start:url(#big_open_circle);}
        <!--separator-->
        
    </style>
    <defs>
        <marker id="arrow" viewBox="-2 -2 8 8" refX="4" refY="2" markerWidth="7" markerHeight="7" orient="auto-start-reverse">
            <polygon points="0,0 0,4 4,2 0,0"></polygon>
        </marker>
        <marker id="diamond" viewBox="-2 -2 8 8" refX="4" refY="2" markerWidth="7" markerHeight="7" orient="auto-start-reverse">
            <polygon points="0,2 2,0 4,2 2,4 0,2"></polygon>
        </marker>
        <marker id="circle" viewBox="0 0 8 8" refX="4" refY="4" markerWidth="7" markerHeight="7" orient="auto-start-reverse">
            <circle cx="4" cy="4" r="2" class="filled"></circle>
        </marker>
        <marker id="open_circle" viewBox="0 0 8 8" refX="4" refY="4" markerWidth="7" markerHeight="7" orient="auto-start-reverse">
            <circle cx="4" cy="4" r="2" class="bg_filled"></circle>
        </marker>
        <marker id="big_open_circle" viewBox="0 0 8 8" refX="4" refY="4" markerWidth="7" markerHeight="7" orient="auto-start-reverse">
            <circle cx="4" cy="4" r="3" class="bg_filled"></circle>
        </marker>
    </defs>
    <rect class="backdrop" x="0" y="0" width="440" height="256"></rect>
    <rect x="68" y="104" width="40" height="32" class="solid nofill" rx="0"></rect>
    <text x="74" y="124" >fd</text>
    <line x1="88" y1="118" x2="96" y2="118" class="solid"></line>
    <line x1="88" y1="122" x2="96" y2="122" class="solid"></line>
    <text x="98" y="124" >3</text>
    <rect x="132" y="104" width="48" height="32" class="solid nofill" rx="0"></rect>
    <text x="138" y="124" >fd</text>
    <line x1="152" y1="118" x2="160" y2="118" class="solid"></line>
    <line x1="152" y1="122" x2="160" y2="122" class="solid"></line>
    <text x="162" y="124" >12</text>
    <rect x="44" y="184" width="40" height="32" class="solid nofill" rx="0"></rect>
    <text x="50" y="204" >fd</text>
    <line x1="64" y1="198" x2="72" y2="198" class="solid"></line>
    <line x1="64" y1="202" x2="72" y2="202" class="solid"></line>
    <text x="74" y="204" >3</text>
    <rect x="116" y="184" width="40" height="32" class="solid nofill" rx="0"></rect>
    <text x="122" y="204" >fd</text>
    <line x1="136" y1="198" x2="144" y2="198" class="solid"></line>
    <line x1="136" y1="202" x2="144" y2="202" class="solid"></line>
    <text x="146" y="204" >7</text>
    <rect x="188" y="184" width="48" height="32" class="solid nofill" rx="0"></rect>
    <text x="194" y="204" >fd</text>
    <line x1="208" y1="198" x2="216" y2="198" class="solid"></line>
    <line x1="208" y1="202" x2="216" y2="202" class="solid"></line>
    <text x="218" y="204" >12</text>
    <text x="18" y="12" >epoll</text>
    <text x="66" y="12" >internal</text>
    <text x="138" y="12" >structure:</text>
    <text x="42" y="44" >Red</text>
    <line x1="64" y1="40" x2="72" y2="40" class="solid"></line>
    <text x="74" y="44" >Black</text>
    <text x="122" y="44" >Tree</text>
    <path d="M 168,32 A 16,16 0,0,0 168,48" class="nofill"></path>
    <text x="170" y="44" >all</text>
    <text x="202" y="44" >monitored</text>
    <text x="282" y="44" >FDs</text>
    <path d="M 304,32 A 16,16 0,0,1 304,48" class="nofill"></path>
    <line x1="428" y1="48" x2="428" y2="96" class="solid"></line>
    <text x="114" y="76" >fd</text>
    <line x1="128" y1="70" x2="136" y2="70" class="solid"></line>
    <line x1="128" y1="74" x2="136" y2="74" class="solid"></line>
    <text x="138" y="76" >7</text>
    <line x1="104" y1="80" x2="96" y2="96" class="solid"></line>
    <line x1="136" y1="80" x2="144" y2="96" class="solid"></line>
    <line x1="420" y1="96" x2="420" y2="112" class="solid"></line>
    <line x1="412" y1="112" x2="412" y2="128" class="solid"></line>
    <line x1="420" y1="128" x2="420" y2="144" class="solid"></line>
    <line x1="428" y1="144" x2="428" y2="176" class="solid"></line>
    <text x="42" y="172" >Ready</text>
    <text x="90" y="172" >List</text>
    <path d="M 136,160 A 16,16 0,0,0 136,176" class="nofill"></path>
    <text x="138" y="172" >FDs</text>
    <text x="170" y="172" >with</text>
    <text x="210" y="172" >pending</text>
    <text x="98" y="188" >→</text>
    <text x="170" y="188" >→</text>
    <line x1="412" y1="176" x2="412" y2="224" class="solid"></line>
    <text x="210" y="124" >←</text>
    <text x="226" y="124" >O</text>
    <path d="M 240,112 A 16,16 0,0,0 240,128" class="nofill"></path>
    <text x="242" y="124" >log</text>
    <text x="274" y="124" >n</text>
    <path d="M 280,112 A 16,16 0,0,1 280,128" class="nofill"></path>
    <text x="298" y="124" >add</text>
    <line x1="328" y1="112" x2="320" y2="128" class="solid"></line>
    <text x="330" y="124" >remove</text>
    <text x="274" y="172" >events</text>
    <path d="M 320,160 A 16,16 0,0,1 320,176" class="nofill"></path>
    <text x="258" y="204" >←</text>
    <text x="274" y="204" >O</text>
    <path d="M 288,192 A 16,16 0,0,0 288,208" class="nofill"></path>
    <text x="290" y="204" >1</text>
    <path d="M 296,192 A 16,16 0,0,1 296,208" class="nofill"></path>
    <text x="314" y="204" >retrieval</text>
    <g>
        <line x1="20" y1="24" x2="420" y2="24" class="solid"></line>
        <line x1="20" y1="24" x2="20" y2="232" class="solid"></line>
        <line x1="420" y1="24" x2="420" y2="48" class="solid"></line>
        <line x1="20" y1="232" x2="420" y2="232" class="solid"></line>
        <line x1="420" y1="224" x2="420" y2="232" class="solid"></line>
    </g>
    <g>
        <line x1="108" y1="56" x2="148" y2="56" class="solid"></line>
        <line x1="108" y1="56" x2="108" y2="80" class="solid"></line>
        <line x1="148" y1="56" x2="148" y2="80" class="solid"></line>
    </g>
</svg>