<svg xmlns="http://www.w3.org/2000/svg" width="392" height="288" style="background:#ffffff;border:1px solid #e5e5e5;border-radius:8px;max-width:100%;height:auto"><rect x="0" y="0" width="100%" height="100%" fill="#ffffff"/>
    <style>
        line, path, circle, rect, polygon{stroke:black;stroke-width:2;stroke-opacity:1;fill-opacity:1;stroke-linecap:round;stroke-linejoin:miter;}text{font-family:Iosevka Fixed, monospace;font-size:14px;}rect.backdrop{stroke:none;fill:transparent;}.broken{stroke-dasharray:8;}.filled{fill:black;}.bg_filled{fill:transparent;}.nofill{fill:transparent;}.end_marked_arrow{marker-end:url(#arrow);}.start_marked_arrow{marker-start:url(#arrow);}.end_marked_diamond{marker-end:url(#diamond);}.start_marked_diamond{marker-start:url(#diamond);}.end_marked_circle{marker-end:url(#circle);}.start_marked_circle{marker-start:url(#circle);}.end_marked_open_circle{marker-end:url(#open_circle);}.start_marked_open_circle{marker-start:url(#open_circle);}.end_marked_big_open_circle{marker-end:url(#big_open_circle);}.start_marked_big_open_circle{marker-start:url(#big_open_circle);}
        <!--separator-->
        
    </style>
    <defs>
        <marker id="arrow" viewBox="-2 -2 8 8" refX="4" refY="2" markerWidth="7" markerHeight="7" orient="auto-start-reverse">
            <polygon points="0,0 0,4 4,2 0,0"></polygon>
        </marker>
        <marker id="diamond" viewBox="-2 -2 8 8" refX="4" refY="2" markerWidth="7" markerHeight="7" orient="auto-start-reverse">
            <polygon points="0,2 2,0 4,2 2,4 0,2"></polygon>
        </marker>
        <marker id="circle" viewBox="0 0 8 8" refX="4" refY="4" markerWidth="7" markerHeight="7" orient="auto-start-reverse">
            <circle cx="4" cy="4" r="2" class="filled"></circle>
        </marker>
        <marker id="open_circle" viewBox="0 0 8 8" refX="4" refY="4" markerWidth="7" markerHeight="7" orient="auto-start-reverse">
            <circle cx="4" cy="4" r="2" class="bg_filled"></circle>
        </marker>
        <marker id="big_open_circle" viewBox="0 0 8 8" refX="4" refY="4" markerWidth="7" markerHeight="7" orient="auto-start-reverse">
            <circle cx="4" cy="4" r="3" class="bg_filled"></circle>
        </marker>
    </defs>
    <rect class="backdrop" x="0" y="0" width="392" height="288"></rect>
    <text x="18" y="12" >Memory</text>
    <text x="74" y="12" >Hierarchy</text>
    <path d="M 160,0 A 16,16 0,0,0 160,16" class="nofill"></path>
    <text x="162" y="12" >speed</text>
    <text x="210" y="12" >vs</text>
    <text x="234" y="12" >capacity</text>
    <text x="306" y="12" >tradeoff</text>
    <path d="M 368,0 A 16,16 0,0,1 368,16" class="nofill"></path>
    <text x="378" y="12" >:</text>
    <text x="42" y="60" >CPU</text>
    <text x="74" y="60" >Registers</text>
    <line x1="148" y1="48" x2="148" y2="64" class="solid"></line>
    <text x="42" y="92" >L1</text>
    <line x1="64" y1="80" x2="56" y2="96" class="solid"></line>
    <text x="66" y="92" >L2</text>
    <line x1="88" y1="80" x2="80" y2="96" class="solid"></line>
    <text x="90" y="92" >L3</text>
    <text x="42" y="108" >CPU</text>
    <text x="74" y="108" >Cache</text>
    <line x1="148" y1="96" x2="148" y2="112" class="solid"></line>
    <text x="42" y="140" >Physical</text>
    <text x="114" y="140" >RAM</text>
    <line x1="148" y1="128" x2="148" y2="160" class="solid"></line>
    <path d="M 48,144 A 16,16 0,0,0 48,160" class="nofill"></path>
    <text x="50" y="156" >DRAM</text>
    <path d="M 80,144 A 16,16 0,0,1 80,160" class="nofill"></path>
    <text x="42" y="188" >SSD</text>
    <line x1="80" y1="176" x2="72" y2="192" class="solid"></line>
    <text x="90" y="188" >Swap</text>
    <line x1="148" y1="176" x2="148" y2="192" class="solid"></line>
    <text x="42" y="220" >HDD</text>
    <line x1="80" y1="208" x2="72" y2="224" class="solid"></line>
    <text x="90" y="220" >Network</text>
    <line x1="148" y1="208" x2="148" y2="240" class="solid"></line>
    <text x="42" y="236" >Storage</text>
    <text x="42" y="268" >Slower</text>
    <text x="98" y="268" >but</text>
    <text x="130" y="268" >larger</text>
    <line x1="160" y1="40" x2="168" y2="40" class="broken"></line>
    <text x="170" y="44" >1</text>
    <text x="186" y="44" >ns</text>
    <line x1="160" y1="72" x2="168" y2="72" class="broken"></line>
    <text x="170" y="76" >1</text>
    <line x1="176" y1="72" x2="184" y2="72" class="solid"></line>
    <text x="186" y="76" >10</text>
    <text x="210" y="76" >ns</text>
    <line x1="160" y1="120" x2="168" y2="120" class="broken"></line>
    <text x="170" y="124" >100</text>
    <text x="202" y="124" >ns</text>
    <line x1="160" y1="168" x2="168" y2="168" class="broken"></line>
    <text x="170" y="172" >10,000,000</text>
    <text x="258" y="172" >ns</text>
    <path d="M 288,160 A 16,16 0,0,0 288,176" class="nofill"></path>
    <text x="290" y="172" >10</text>
    <text x="314" y="172" >ms</text>
    <path d="M 328,160 A 16,16 0,0,1 328,176" class="nofill"></path>
    <line x1="160" y1="200" x2="168" y2="200" class="broken"></line>
    <text x="170" y="204" >100,000,000</text>
    <text x="266" y="204" >ns</text>
    <path d="M 296,192 A 16,16 0,0,0 296,208" class="nofill"></path>
    <text x="298" y="204" >100</text>
    <text x="330" y="204" >ms</text>
    <path d="M 344,192 A 16,16 0,0,1 344,208" class="nofill"></path>
    <g>
        <line x1="20" y1="40" x2="140" y2="40" class="solid"></line>
        <line x1="20" y1="40" x2="20" y2="248" class="solid"></line>
        <line x1="140" y1="40" x2="140" y2="48" class="solid"></line>
        <line x1="20" y1="72" x2="140" y2="72" class="solid"></line>
        <line x1="140" y1="64" x2="140" y2="96" class="solid"></line>
        <line x1="20" y1="120" x2="140" y2="120" class="solid"></line>
        <line x1="140" y1="112" x2="140" y2="128" class="solid"></line>
        <line x1="20" y1="168" x2="140" y2="168" class="solid"></line>
        <line x1="140" y1="160" x2="140" y2="176" class="solid"></line>
        <line x1="20" y1="200" x2="140" y2="200" class="solid"></line>
        <line x1="140" y1="192" x2="140" y2="208" class="solid"></line>
        <line x1="20" y1="248" x2="140" y2="248" class="solid"></line>
        <line x1="140" y1="240" x2="140" y2="248" class="solid"></line>
    </g>
    <g>
        <line x1="188" y1="256" x2="188" y2="260" class="solid"></line>
        <polygon points="184,260 192,260 188,272" class="filled"></polygon>
    </g>
</svg>