<svg xmlns="http://www.w3.org/2000/svg" width="464" height="272" style="background:#ffffff;border:1px solid #e5e5e5;border-radius:8px;max-width:100%;height:auto"><rect x="0" y="0" width="100%" height="100%" fill="#ffffff"/>
    <style>
        line, path, circle, rect, polygon{stroke:black;stroke-width:2;stroke-opacity:1;fill-opacity:1;stroke-linecap:round;stroke-linejoin:miter;}text{font-family:Iosevka Fixed, monospace;font-size:14px;}rect.backdrop{stroke:none;fill:transparent;}.broken{stroke-dasharray:8;}.filled{fill:black;}.bg_filled{fill:transparent;}.nofill{fill:transparent;}.end_marked_arrow{marker-end:url(#arrow);}.start_marked_arrow{marker-start:url(#arrow);}.end_marked_diamond{marker-end:url(#diamond);}.start_marked_diamond{marker-start:url(#diamond);}.end_marked_circle{marker-end:url(#circle);}.start_marked_circle{marker-start:url(#circle);}.end_marked_open_circle{marker-end:url(#open_circle);}.start_marked_open_circle{marker-start:url(#open_circle);}.end_marked_big_open_circle{marker-end:url(#big_open_circle);}.start_marked_big_open_circle{marker-start:url(#big_open_circle);}
        <!--separator-->
        
    </style>
    <defs>
        <marker id="arrow" viewBox="-2 -2 8 8" refX="4" refY="2" markerWidth="7" markerHeight="7" orient="auto-start-reverse">
            <polygon points="0,0 0,4 4,2 0,0"></polygon>
        </marker>
        <marker id="diamond" viewBox="-2 -2 8 8" refX="4" refY="2" markerWidth="7" markerHeight="7" orient="auto-start-reverse">
            <polygon points="0,2 2,0 4,2 2,4 0,2"></polygon>
        </marker>
        <marker id="circle" viewBox="0 0 8 8" refX="4" refY="4" markerWidth="7" markerHeight="7" orient="auto-start-reverse">
            <circle cx="4" cy="4" r="2" class="filled"></circle>
        </marker>
        <marker id="open_circle" viewBox="0 0 8 8" refX="4" refY="4" markerWidth="7" markerHeight="7" orient="auto-start-reverse">
            <circle cx="4" cy="4" r="2" class="bg_filled"></circle>
        </marker>
        <marker id="big_open_circle" viewBox="0 0 8 8" refX="4" refY="4" markerWidth="7" markerHeight="7" orient="auto-start-reverse">
            <circle cx="4" cy="4" r="3" class="bg_filled"></circle>
        </marker>
    </defs>
    <rect class="backdrop" x="0" y="0" width="464" height="272"></rect>
    <text x="18" y="12" >CFS</text>
    <text x="50" y="12" >Red</text>
    <line x1="72" y1="8" x2="80" y2="8" class="solid"></line>
    <text x="82" y="12" >Black</text>
    <text x="130" y="12" >Tree</text>
    <path d="M 176,0 A 16,16 0,0,0 176,16" class="nofill"></path>
    <text x="178" y="12" >sorted</text>
    <text x="234" y="12" >by</text>
    <text x="178" y="44" >Task</text>
    <text x="218" y="44" >C</text>
    <text x="178" y="60" >vrt</text>
    <line x1="200" y1="54" x2="208" y2="54" class="solid"></line>
    <line x1="200" y1="58" x2="208" y2="58" class="solid"></line>
    <text x="210" y="60" >500</text>
    <text x="98" y="124" >Task</text>
    <text x="138" y="124" >A</text>
    <text x="258" y="124" >Task</text>
    <text x="298" y="124" >E</text>
    <text x="98" y="140" >vrt</text>
    <line x1="120" y1="134" x2="128" y2="134" class="solid"></line>
    <line x1="120" y1="138" x2="128" y2="138" class="solid"></line>
    <text x="130" y="140" >300</text>
    <text x="258" y="140" >vrt</text>
    <line x1="280" y1="134" x2="288" y2="134" class="solid"></line>
    <line x1="280" y1="138" x2="288" y2="138" class="solid"></line>
    <text x="290" y="140" >700</text>
    <text x="234" y="188" >Task</text>
    <text x="274" y="188" >D</text>
    <text x="42" y="204" >Task</text>
    <text x="82" y="204" >B</text>
    <path d="M 152,192 A 16,16 0,0,0 152,208" class="nofill"></path>
    <text x="154" y="204" >empty</text>
    <path d="M 192,192 A 16,16 0,0,1 192,208" class="nofill"></path>
    <text x="234" y="204" >vrt</text>
    <line x1="256" y1="198" x2="264" y2="198" class="solid"></line>
    <line x1="256" y1="202" x2="264" y2="202" class="solid"></line>
    <text x="266" y="204" >600</text>
    <text x="42" y="220" >vrt</text>
    <line x1="64" y1="214" x2="72" y2="214" class="solid"></line>
    <line x1="64" y1="218" x2="72" y2="218" class="solid"></line>
    <text x="74" y="220" >200</text>
    <text x="114" y="252" >node</text>
    <text x="258" y="12" >vruntime</text>
    <path d="M 320,0 A 16,16 0,0,1 320,16" class="nofill"></path>
    <text x="330" y="12" >:</text>
    <line x1="152" y1="246" x2="160" y2="246" class="solid"></line>
    <line x1="152" y1="250" x2="160" y2="250" class="solid"></line>
    <text x="170" y="252" >smallest</text>
    <text x="242" y="252" >vruntime</text>
    <line x1="312" y1="246" x2="320" y2="246" class="solid"></line>
    <line x1="312" y1="250" x2="320" y2="250" class="solid"></line>
    <text x="330" y="252" >NEXT</text>
    <text x="370" y="252" >to</text>
    <text x="394" y="252" >schedule</text>
    <g>
        <line x1="164" y1="24" x2="244" y2="24" class="solid"></line>
        <line x1="164" y1="24" x2="164" y2="72" class="solid"></line>
        <line x1="244" y1="24" x2="244" y2="72" class="solid"></line>
        <line x1="164" y1="72" x2="244" y2="72" class="solid"></line>
        <line x1="204" y1="72" x2="204" y2="88" class="solid"></line>
        <line x1="124" y1="88" x2="284" y2="88" class="solid"></line>
        <line x1="124" y1="88" x2="124" y2="104" class="solid"></line>
        <line x1="284" y1="88" x2="284" y2="104" class="solid"></line>
        <line x1="84" y1="104" x2="164" y2="104" class="solid"></line>
        <line x1="84" y1="104" x2="84" y2="152" class="solid"></line>
        <line x1="164" y1="104" x2="164" y2="152" class="solid"></line>
        <line x1="244" y1="104" x2="324" y2="104" class="solid"></line>
        <line x1="244" y1="104" x2="244" y2="152" class="solid"></line>
        <line x1="324" y1="104" x2="324" y2="152" class="solid"></line>
        <line x1="84" y1="152" x2="164" y2="152" class="solid"></line>
        <line x1="124" y1="152" x2="124" y2="168" class="solid"></line>
        <line x1="244" y1="152" x2="324" y2="152" class="solid"></line>
        <line x1="284" y1="152" x2="284" y2="160" class="solid"></line>
        <line x1="68" y1="168" x2="180" y2="168" class="solid"></line>
        <line x1="68" y1="168" x2="68" y2="184" class="solid"></line>
        <line x1="180" y1="168" x2="180" y2="184" class="solid"></line>
        <line x1="28" y1="184" x2="108" y2="184" class="solid"></line>
        <line x1="28" y1="184" x2="28" y2="232" class="solid"></line>
        <line x1="108" y1="184" x2="108" y2="232" class="solid"></line>
        <line x1="132" y1="184" x2="212" y2="184" class="solid"></line>
        <line x1="132" y1="184" x2="132" y2="216" class="solid"></line>
        <line x1="212" y1="184" x2="212" y2="216" class="solid"></line>
        <line x1="132" y1="216" x2="212" y2="216" class="solid"></line>
        <line x1="28" y1="232" x2="108" y2="232" class="solid"></line>
    </g>
    <g>
        <line x1="228" y1="168" x2="332" y2="168" class="solid"></line>
        <line x1="228" y1="168" x2="228" y2="176" class="solid"></line>
        <line x1="276" y1="160" x2="276" y2="168" class="solid"></line>
        <line x1="332" y1="168" x2="332" y2="176" class="solid"></line>
    </g>
    <g>
        <line x1="220" y1="176" x2="220" y2="216" class="solid"></line>
        <line x1="324" y1="176" x2="324" y2="216" class="solid"></line>
        <line x1="220" y1="216" x2="324" y2="216" class="solid"></line>
    </g>
    <g>
        <text x="26" y="252">↑</text>
        <text x="42" y="252">Leftmost</text>
    </g>
</svg>