<svg xmlns="http://www.w3.org/2000/svg" width="520" height="208" style="background:#ffffff;border:1px solid #e5e5e5;border-radius:8px;max-width:100%;height:auto"><rect x="0" y="0" width="100%" height="100%" fill="#ffffff"/>
    <style>
        line, path, circle, rect, polygon{stroke:black;stroke-width:2;stroke-opacity:1;fill-opacity:1;stroke-linecap:round;stroke-linejoin:miter;}text{font-family:Iosevka Fixed, monospace;font-size:14px;}rect.backdrop{stroke:none;fill:transparent;}.broken{stroke-dasharray:8;}.filled{fill:black;}.bg_filled{fill:transparent;}.nofill{fill:transparent;}.end_marked_arrow{marker-end:url(#arrow);}.start_marked_arrow{marker-start:url(#arrow);}.end_marked_diamond{marker-end:url(#diamond);}.start_marked_diamond{marker-start:url(#diamond);}.end_marked_circle{marker-end:url(#circle);}.start_marked_circle{marker-start:url(#circle);}.end_marked_open_circle{marker-end:url(#open_circle);}.start_marked_open_circle{marker-start:url(#open_circle);}.end_marked_big_open_circle{marker-end:url(#big_open_circle);}.start_marked_big_open_circle{marker-start:url(#big_open_circle);}
        <!--separator-->
        
    </style>
    <defs>
        <marker id="arrow" viewBox="-2 -2 8 8" refX="4" refY="2" markerWidth="7" markerHeight="7" orient="auto-start-reverse">
            <polygon points="0,0 0,4 4,2 0,0"></polygon>
        </marker>
        <marker id="diamond" viewBox="-2 -2 8 8" refX="4" refY="2" markerWidth="7" markerHeight="7" orient="auto-start-reverse">
            <polygon points="0,2 2,0 4,2 2,4 0,2"></polygon>
        </marker>
        <marker id="circle" viewBox="0 0 8 8" refX="4" refY="4" markerWidth="7" markerHeight="7" orient="auto-start-reverse">
            <circle cx="4" cy="4" r="2" class="filled"></circle>
        </marker>
        <marker id="open_circle" viewBox="0 0 8 8" refX="4" refY="4" markerWidth="7" markerHeight="7" orient="auto-start-reverse">
            <circle cx="4" cy="4" r="2" class="bg_filled"></circle>
        </marker>
        <marker id="big_open_circle" viewBox="0 0 8 8" refX="4" refY="4" markerWidth="7" markerHeight="7" orient="auto-start-reverse">
            <circle cx="4" cy="4" r="3" class="bg_filled"></circle>
        </marker>
    </defs>
    <rect class="backdrop" x="0" y="0" width="520" height="208"></rect>
    <text x="18" y="12" >Common</text>
    <text x="74" y="12" >Interface</text>
    <text x="154" y="12" >Types:</text>
    <text x="34" y="44" >Interface</text>
    <text x="154" y="44" >Purpose</text>
    <text x="34" y="76" >lo</text>
    <text x="154" y="76" >Loopback</text>
    <path d="M 232,64 A 16,16 0,0,0 232,80" class="nofill"></path>
    <text x="234" y="76" >127.0.0.1</text>
    <path d="M 304,64 A 16,16 0,0,1 304,80" class="nofill"></path>
    <line x1="320" y1="72" x2="328" y2="72" class="solid"></line>
    <text x="338" y="76" >talk</text>
    <text x="378" y="76" >to</text>
    <text x="402" y="76" >yourself</text>
    <line x1="500" y1="64" x2="500" y2="80" class="solid"></line>
    <text x="34" y="92" >eth0</text>
    <line x1="80" y1="80" x2="72" y2="96" class="solid"></line>
    <text x="90" y="92" >ens*</text>
    <text x="154" y="92" >Physical</text>
    <text x="226" y="92" >ethernet</text>
    <text x="298" y="92" >NIC</text>
    <text x="34" y="108" >docker0</text>
    <text x="154" y="108" >Docker</text>
    <text x="210" y="108" >bridge</text>
    <line x1="264" y1="104" x2="272" y2="104" class="solid"></line>
    <text x="282" y="108" >containers</text>
    <text x="34" y="124" >cni0</text>
    <line x1="80" y1="112" x2="70" y2="132" class="solid"></line>
    <text x="90" y="124" >cbr0</text>
    <text x="154" y="124" >Kubernetes</text>
    <text x="242" y="124" >CNI</text>
    <text x="274" y="124" >bridge</text>
    <text x="34" y="140" >veth</text>
    <circle cx="68" cy="136" r="3" class="filled"></circle>
    <text x="154" y="140" >Virtual</text>
    <text x="218" y="140" >ethernet</text>
    <text x="290" y="140" >pair</text>
    <path d="M 336,128 A 16,16 0,0,0 336,144" class="nofill"></path>
    <text x="338" y="140" >container</text>
    <text x="34" y="156" >flannel.*</text>
    <text x="154" y="156" >Flannel</text>
    <text x="218" y="156" >overlay</text>
    <text x="282" y="156" >network</text>
    <text x="34" y="172" >wg0</text>
    <text x="154" y="172" >WireGuard</text>
    <text x="234" y="172" >VPN</text>
    <text x="266" y="172" >tunnel</text>
    <text x="370" y="108" >connect</text>
    <text x="434" y="108" >here</text>
    <text x="418" y="140" >↔</text>
    <text x="434" y="140" >bridge</text>
    <path d="M 480,128 A 16,16 0,0,1 480,144" class="nofill"></path>
    <g>
        <line x1="20" y1="24" x2="508" y2="24" class="solid"></line>
        <line x1="20" y1="24" x2="20" y2="184" class="solid"></line>
        <line x1="140" y1="24" x2="140" y2="184" class="solid"></line>
        <line x1="508" y1="24" x2="508" y2="64" class="solid"></line>
        <line x1="20" y1="56" x2="508" y2="56" class="solid"></line>
        <line x1="508" y1="80" x2="508" y2="184" class="solid"></line>
        <line x1="20" y1="184" x2="508" y2="184" class="solid"></line>
    </g>
</svg>