<svg xmlns="http://www.w3.org/2000/svg" width="512" height="224" style="background:#ffffff;border:1px solid #e5e5e5;border-radius:8px;max-width:100%;height:auto"><rect x="0" y="0" width="100%" height="100%" fill="#ffffff"/>
    <style>
        line, path, circle, rect, polygon{stroke:black;stroke-width:2;stroke-opacity:1;fill-opacity:1;stroke-linecap:round;stroke-linejoin:miter;}text{font-family:Iosevka Fixed, monospace;font-size:14px;}rect.backdrop{stroke:none;fill:transparent;}.broken{stroke-dasharray:8;}.filled{fill:black;}.bg_filled{fill:transparent;}.nofill{fill:transparent;}.end_marked_arrow{marker-end:url(#arrow);}.start_marked_arrow{marker-start:url(#arrow);}.end_marked_diamond{marker-end:url(#diamond);}.start_marked_diamond{marker-start:url(#diamond);}.end_marked_circle{marker-end:url(#circle);}.start_marked_circle{marker-start:url(#circle);}.end_marked_open_circle{marker-end:url(#open_circle);}.start_marked_open_circle{marker-start:url(#open_circle);}.end_marked_big_open_circle{marker-end:url(#big_open_circle);}.start_marked_big_open_circle{marker-start:url(#big_open_circle);}
        <!--separator-->
        
    </style>
    <defs>
        <marker id="arrow" viewBox="-2 -2 8 8" refX="4" refY="2" markerWidth="7" markerHeight="7" orient="auto-start-reverse">
            <polygon points="0,0 0,4 4,2 0,0"></polygon>
        </marker>
        <marker id="diamond" viewBox="-2 -2 8 8" refX="4" refY="2" markerWidth="7" markerHeight="7" orient="auto-start-reverse">
            <polygon points="0,2 2,0 4,2 2,4 0,2"></polygon>
        </marker>
        <marker id="circle" viewBox="0 0 8 8" refX="4" refY="4" markerWidth="7" markerHeight="7" orient="auto-start-reverse">
            <circle cx="4" cy="4" r="2" class="filled"></circle>
        </marker>
        <marker id="open_circle" viewBox="0 0 8 8" refX="4" refY="4" markerWidth="7" markerHeight="7" orient="auto-start-reverse">
            <circle cx="4" cy="4" r="2" class="bg_filled"></circle>
        </marker>
        <marker id="big_open_circle" viewBox="0 0 8 8" refX="4" refY="4" markerWidth="7" markerHeight="7" orient="auto-start-reverse">
            <circle cx="4" cy="4" r="3" class="bg_filled"></circle>
        </marker>
    </defs>
    <rect class="backdrop" x="0" y="0" width="512" height="224"></rect>
    <text x="18" y="12" >Virtual</text>
    <text x="82" y="12" >Address</text>
    <text x="146" y="12" >Space</text>
    <text x="338" y="12" >Physical</text>
    <text x="410" y="12" >RAM</text>
    <path d="M 448,0 A 16,16 0,0,0 448,16" class="nofill"></path>
    <text x="450" y="12" >shared</text>
    <path d="M 496,0 A 16,16 0,0,1 496,16" class="nofill"></path>
    <text x="34" y="44" >Page</text>
    <text x="74" y="44" >0</text>
    <text x="346" y="44" >Frame</text>
    <text x="394" y="44" >7</text>
    <text x="34" y="60" >Page</text>
    <text x="74" y="60" >1</text>
    <text x="346" y="60" >Frame</text>
    <text x="394" y="60" >42</text>
    <text x="34" y="76" >Page</text>
    <text x="74" y="76" >2</text>
    <line x1="96" y1="72" x2="112" y2="72" class="solid"></line>
    <path d="M 128,64 A 16,16 0,0,0 128,80" class="nofill"></path>
    <text x="130" y="76" >not</text>
    <text x="162" y="76" >in</text>
    <text x="186" y="76" >RAM,</text>
    <text x="226" y="76" >on</text>
    <text x="250" y="76" >disk</text>
    <path d="M 280,64 A 16,16 0,0,1 280,80" class="nofill"></path>
    <line x1="332" y1="64" x2="332" y2="80" class="solid"></line>
    <text x="346" y="76" >Frame</text>
    <text x="394" y="76" >43</text>
    <text x="34" y="92" >Page</text>
    <text x="74" y="92" >3</text>
    <text x="346" y="92" >Frame</text>
    <text x="394" y="92" >100</text>
    <text x="34" y="108" >Page</text>
    <text x="74" y="108" >4</text>
    <line x1="96" y1="104" x2="112" y2="104" class="solid"></line>
    <path d="M 128,96 A 16,16 0,0,0 128,112" class="nofill"></path>
    <text x="130" y="108" >not</text>
    <text x="162" y="108" >allocated</text>
    <path d="M 232,96 A 16,16 0,0,1 232,112" class="nofill"></path>
    <line x1="332" y1="96" x2="332" y2="112" class="solid"></line>
    <text x="346" y="108" >...</text>
    <text x="34" y="124" >...</text>
    <line x1="100" y1="112" x2="100" y2="128" class="solid"></line>
    <line x1="340" y1="112" x2="340" y2="128" class="solid"></line>
    <line x1="492" y1="112" x2="492" y2="128" class="solid"></line>
    <line x1="148" y1="144" x2="148" y2="160" class="solid"></line>
    <text x="82" y="172" >PAGE</text>
    <text x="122" y="172" >TABLE</text>
    <text x="178" y="172" >per</text>
    <text x="210" y="172" >process</text>
    <path d="M 264,160 A 16,16 0,0,1 264,176" class="nofill"></path>
    <text x="82" y="188" >translates</text>
    <text x="178" y="188" >irtual</text>
    <text x="234" y="188" >page</text>
    <text x="274" y="188" >→</text>
    <text x="82" y="204" >also</text>
    <text x="122" y="204" >stores:</text>
    <text x="186" y="204" >present</text>
    <text x="250" y="204" >bit,</text>
    <path d="M 200,0 A 16,16 0,0,0 200,16" class="nofill"></path>
    <text x="202" y="12" >per</text>
    <text x="234" y="12" >process</text>
    <path d="M 288,0 A 16,16 0,0,1 288,16" class="nofill"></path>
    <text x="290" y="188" >physical</text>
    <text x="362" y="188" >frame</text>
    <text x="290" y="204" >dirty</text>
    <text x="338" y="204" >bit,</text>
    <text x="378" y="204" >access</text>
    <text x="434" y="204" >bit</text>
    <g>
        <line x1="20" y1="24" x2="172" y2="24" class="solid"></line>
        <line x1="20" y1="24" x2="20" y2="136" class="solid"></line>
        <line x1="172" y1="24" x2="172" y2="32" class="solid"></line>
        <line x1="20" y1="136" x2="172" y2="136" class="solid"></line>
        <line x1="172" y1="128" x2="172" y2="136" class="solid"></line>
    </g>
    <g>
        <line x1="332" y1="24" x2="484" y2="24" class="solid"></line>
        <line x1="332" y1="24" x2="332" y2="32" class="solid"></line>
        <line x1="484" y1="24" x2="484" y2="112" class="solid"></line>
    </g>
    <g>
        <line x1="96" y1="40" x2="328" y2="40" class="solid"></line>
        <polygon points="328,36 336,40 328,44" class="filled"></polygon>
    </g>
    <g>
        <line x1="96" y1="56" x2="328" y2="56" class="solid"></line>
        <polygon points="328,52 336,56 328,60" class="filled"></polygon>
    </g>
    <g>
        <line x1="296" y1="72" x2="312" y2="72" class="solid"></line>
        <polygon points="312,68 320,72 312,76" class="filled"></polygon>
    </g>
    <g>
        <line x1="96" y1="88" x2="328" y2="88" class="solid"></line>
        <polygon points="328,84 336,88 328,92" class="filled"></polygon>
    </g>
    <g>
        <line x1="248" y1="104" x2="312" y2="104" class="solid"></line>
        <polygon points="312,100 320,104 312,108" class="filled"></polygon>
    </g>
    <g>
        <line x1="332" y1="128" x2="332" y2="136" class="solid"></line>
        <line x1="332" y1="136" x2="484" y2="136" class="solid"></line>
        <line x1="484" y1="128" x2="484" y2="136" class="solid"></line>
    </g>
    <g>
        <path d="M 176,160 A 16,16 0,0,0 176,176" class="nofill"></path>
        <line x1="168" y1="176" x2="172" y2="192" class="solid"></line>
        <line x1="176" y1="176" x2="172" y2="192" class="solid"></line>
    </g>
</svg>