<svg xmlns="http://www.w3.org/2000/svg" width="648" height="544" style="background:#ffffff;border:1px solid #e5e5e5;border-radius:8px;max-width:100%;height:auto"><rect x="0" y="0" width="100%" height="100%" fill="#ffffff"/>
    <style>
        line, path, circle, rect, polygon{stroke:black;stroke-width:2;stroke-opacity:1;fill-opacity:1;stroke-linecap:round;stroke-linejoin:miter;}text{font-family:Iosevka Fixed, monospace;font-size:14px;}rect.backdrop{stroke:none;fill:transparent;}.broken{stroke-dasharray:8;}.filled{fill:black;}.bg_filled{fill:transparent;}.nofill{fill:transparent;}.end_marked_arrow{marker-end:url(#arrow);}.start_marked_arrow{marker-start:url(#arrow);}.end_marked_diamond{marker-end:url(#diamond);}.start_marked_diamond{marker-start:url(#diamond);}.end_marked_circle{marker-end:url(#circle);}.start_marked_circle{marker-start:url(#circle);}.end_marked_open_circle{marker-end:url(#open_circle);}.start_marked_open_circle{marker-start:url(#open_circle);}.end_marked_big_open_circle{marker-end:url(#big_open_circle);}.start_marked_big_open_circle{marker-start:url(#big_open_circle);}
        <!--separator-->
        
    </style>
    <defs>
        <marker id="arrow" viewBox="-2 -2 8 8" refX="4" refY="2" markerWidth="7" markerHeight="7" orient="auto-start-reverse">
            <polygon points="0,0 0,4 4,2 0,0"></polygon>
        </marker>
        <marker id="diamond" viewBox="-2 -2 8 8" refX="4" refY="2" markerWidth="7" markerHeight="7" orient="auto-start-reverse">
            <polygon points="0,2 2,0 4,2 2,4 0,2"></polygon>
        </marker>
        <marker id="circle" viewBox="0 0 8 8" refX="4" refY="4" markerWidth="7" markerHeight="7" orient="auto-start-reverse">
            <circle cx="4" cy="4" r="2" class="filled"></circle>
        </marker>
        <marker id="open_circle" viewBox="0 0 8 8" refX="4" refY="4" markerWidth="7" markerHeight="7" orient="auto-start-reverse">
            <circle cx="4" cy="4" r="2" class="bg_filled"></circle>
        </marker>
        <marker id="big_open_circle" viewBox="0 0 8 8" refX="4" refY="4" markerWidth="7" markerHeight="7" orient="auto-start-reverse">
            <circle cx="4" cy="4" r="3" class="bg_filled"></circle>
        </marker>
    </defs>
    <rect class="backdrop" x="0" y="0" width="648" height="544"></rect>
    <text x="234" y="12" >←</text>
    <text x="234" y="28" >←</text>
    <text x="234" y="44" >←</text>
    <text x="234" y="60" >←</text>
    <text x="234" y="76" >←</text>
    <text x="234" y="92" >←</text>
    <text x="234" y="108" >←</text>
    <text x="234" y="124" >←</text>
    <text x="234" y="140" >←</text>
    <text x="234" y="156" >←</text>
    <text x="234" y="172" >←</text>
    <text x="234" y="188" >←</text>
    <text x="234" y="204" >←</text>
    <text x="234" y="220" >←</text>
    <text x="234" y="236" >←</text>
    <text x="234" y="252" >←</text>
    <text x="234" y="268" >←</text>
    <text x="234" y="284" >←</text>
    <text x="234" y="300" >←</text>
    <text x="234" y="316" >←</text>
    <text x="234" y="332" >←</text>
    <text x="234" y="348" >←</text>
    <text x="234" y="364" >←</text>
    <text x="234" y="380" >←</text>
    <text x="234" y="396" >←</text>
    <text x="234" y="412" >←</text>
    <text x="234" y="428" >←</text>
    <text x="234" y="444" >←</text>
    <text x="234" y="460" >←</text>
    <text x="234" y="476" >←</text>
    <text x="234" y="492" >←</text>
    <text x="234" y="508" >←</text>
    <text x="234" y="524" >←</text>
    <text x="250" y="12" >Root</text>
    <text x="290" y="12" >of</text>
    <text x="314" y="12" >the</text>
    <text x="346" y="12" >entire</text>
    <text x="402" y="12" >filesystem</text>
    <text x="250" y="28" >Essential</text>
    <text x="330" y="28" >user</text>
    <text x="370" y="28" >binaries</text>
    <path d="M 448,16 A 16,16 0,0,0 448,32" class="nofill"></path>
    <text x="450" y="28" >ls</text>
    <text x="482" y="28" >cp,</text>
    <text x="514" y="28" >cat</text>
    <path d="M 536,16 A 16,16 0,0,1 536,32" class="nofill"></path>
    <text x="250" y="44" >Essential</text>
    <text x="330" y="44" >system</text>
    <text x="386" y="44" >binaries</text>
    <text x="466" y="44" >iptables,</text>
    <text x="546" y="44" >mount</text>
    <path d="M 584,32 A 16,16 0,0,1 584,48" class="nofill"></path>
    <text x="250" y="60" >System</text>
    <line x1="296" y1="56" x2="304" y2="56" class="solid"></line>
    <text x="306" y="60" >wide</text>
    <text x="346" y="60" >configuration</text>
    <text x="458" y="60" >files</text>
    <text x="250" y="76" >Static</text>
    <text x="306" y="76" >DNS</text>
    <text x="338" y="76" >entries</text>
    <text x="250" y="92" >DNS</text>
    <text x="282" y="92" >nameserver</text>
    <text x="370" y="92" >config</text>
    <text x="250" y="108" >Filesystem</text>
    <text x="338" y="108" >mount</text>
    <text x="386" y="108" >table</text>
    <text x="250" y="124" >User</text>
    <text x="290" y="124" >account</text>
    <text x="354" y="124" >info</text>
    <text x="250" y="140" >Systemd</text>
    <text x="314" y="140" >unit</text>
    <text x="354" y="140" >files</text>
    <text x="250" y="156" >Virtual</text>
    <text x="314" y="156" >filesystem</text>
    <line x1="400" y1="152" x2="408" y2="152" class="solid"></line>
    <text x="418" y="156" >live</text>
    <text x="250" y="172" >Per</text>
    <line x1="272" y1="168" x2="280" y2="168" class="solid"></line>
    <text x="282" y="172" >process</text>
    <text x="346" y="172" >info</text>
    <path d="M 392,160 A 16,16 0,0,0 392,176" class="nofill"></path>
    <text x="394" y="172" >status,</text>
    <text x="250" y="188" >System</text>
    <text x="306" y="188" >memory</text>
    <text x="362" y="188" >statistics</text>
    <text x="250" y="204" >CPU</text>
    <text x="282" y="204" >information</text>
    <text x="250" y="220" >Tunable</text>
    <text x="314" y="220" >kernel</text>
    <text x="370" y="220" >parameters</text>
    <text x="250" y="236" >Virtual</text>
    <text x="314" y="236" >filesystem</text>
    <line x1="400" y1="232" x2="408" y2="232" class="solid"></line>
    <text x="418" y="236" >device</text>
    <line x1="472" y1="224" x2="464" y2="240" class="solid"></line>
    <text x="474" y="236" >driver</text>
    <line x1="528" y1="224" x2="520" y2="240" class="solid"></line>
    <text x="530" y="236" >kernel</text>
    <text x="250" y="252" >Cgroup</text>
    <text x="306" y="252" >hierarchy</text>
    <path d="M 392,240 A 16,16 0,0,0 392,256" class="nofill"></path>
    <text x="394" y="252" >resource</text>
    <text x="466" y="252" >limits</text>
    <path d="M 512,240 A 16,16 0,0,1 512,256" class="nofill"></path>
    <text x="250" y="268" >Device</text>
    <text x="306" y="268" >files</text>
    <text x="250" y="284" >Discards</text>
    <text x="322" y="284" >all</text>
    <text x="354" y="284" >data</text>
    <text x="394" y="284" >written</text>
    <text x="458" y="284" >to</text>
    <text x="482" y="284" >it</text>
    <text x="250" y="300" >Infinite</text>
    <text x="322" y="300" >stream</text>
    <text x="378" y="300" >of</text>
    <text x="402" y="300" >zero</text>
    <text x="442" y="300" >bytes</text>
    <text x="250" y="316" >Cryptographic</text>
    <text x="362" y="316" >random</text>
    <text x="418" y="316" >number</text>
    <text x="474" y="316" >generator</text>
    <text x="250" y="332" >First</text>
    <text x="298" y="332" >SCSI</text>
    <line x1="336" y1="320" x2="328" y2="336" class="solid"></line>
    <text x="338" y="332" >SATA</text>
    <text x="378" y="332" >disk</text>
    <text x="250" y="348" >Temporary</text>
    <text x="330" y="348" >files</text>
    <path d="M 384,336 A 16,16 0,0,0 384,352" class="nofill"></path>
    <text x="386" y="348" >cleared</text>
    <text x="450" y="348" >on</text>
    <text x="474" y="348" >reboot</text>
    <path d="M 520,336 A 16,16 0,0,1 520,352" class="nofill"></path>
    <text x="250" y="364" >Variable</text>
    <text x="322" y="364" >data</text>
    <path d="M 368,352 A 16,16 0,0,0 368,368" class="nofill"></path>
    <text x="370" y="364" >logs,</text>
    <text x="418" y="364" >caches,</text>
    <text x="482" y="364" >mail</text>
    <path d="M 512,352 A 16,16 0,0,1 512,368" class="nofill"></path>
    <text x="250" y="380" >System</text>
    <text x="306" y="380" >and</text>
    <text x="338" y="380" >application</text>
    <text x="434" y="380" >logs</text>
    <text x="250" y="396" >Docker</text>
    <text x="306" y="396" >storage</text>
    <path d="M 376,384 A 16,16 0,0,0 376,400" class="nofill"></path>
    <text x="378" y="396" >images,</text>
    <text x="442" y="396" >containers,</text>
    <text x="250" y="412" >Kubelet</text>
    <text x="314" y="412" >data</text>
    <text x="354" y="412" >directory</text>
    <text x="250" y="428" >User</text>
    <text x="290" y="428" >home</text>
    <text x="330" y="428" >directories</text>
    <text x="250" y="444" >Root</text>
    <text x="290" y="444" >user&#39;s</text>
    <text x="346" y="444" >home</text>
    <text x="386" y="444" >directory</text>
    <text x="250" y="460" >User</text>
    <text x="290" y="460" >programs,</text>
    <text x="370" y="460" >libraries,</text>
    <text x="458" y="460" >docs</text>
    <text x="250" y="476" >Non</text>
    <line x1="272" y1="472" x2="280" y2="472" class="solid"></line>
    <text x="282" y="476" >essential</text>
    <text x="362" y="476" >user</text>
    <text x="402" y="476" >binaries</text>
    <text x="250" y="492" >Libraries</text>
    <text x="250" y="508" >Optional</text>
    <line x1="320" y1="496" x2="310" y2="516" class="solid"></line>
    <text x="322" y="508" >third</text>
    <line x1="360" y1="504" x2="368" y2="504" class="solid"></line>
    <text x="370" y="508" >party</text>
    <text x="418" y="508" >software</text>
    <text x="250" y="524" >Mount</text>
    <text x="298" y="524" >p</text>
    <circle cx="308" cy="520" r="3" class="nofill"></circle>
    <text x="314" y="524" >ints</text>
    <text x="354" y="524" >for</text>
    <text x="386" y="524" >external</text>
    <text x="458" y="524" >filesystems</text>
    <line x1="56" y1="16" x2="48" y2="32" class="solid"></line>
    <text x="58" y="28" >bin</text>
    <line x1="56" y1="32" x2="48" y2="48" class="solid"></line>
    <text x="58" y="44" >sbin</text>
    <text x="58" y="60" >etc</text>
    <line x1="88" y1="64" x2="80" y2="80" class="solid"></line>
    <text x="90" y="76" >etc</text>
    <line x1="120" y1="64" x2="112" y2="80" class="solid"></line>
    <text x="122" y="76" >hosts</text>
    <line x1="88" y1="80" x2="80" y2="96" class="solid"></line>
    <text x="90" y="92" >etc</text>
    <line x1="120" y1="80" x2="112" y2="96" class="solid"></line>
    <text x="122" y="92" >resolv.conf</text>
    <line x1="88" y1="96" x2="80" y2="112" class="solid"></line>
    <text x="90" y="108" >etc</text>
    <line x1="120" y1="96" x2="112" y2="112" class="solid"></line>
    <text x="122" y="108" >fstab</text>
    <line x1="88" y1="112" x2="80" y2="128" class="solid"></line>
    <text x="90" y="124" >etc</text>
    <line x1="120" y1="112" x2="112" y2="128" class="solid"></line>
    <text x="122" y="124" >passwd</text>
    <line x1="88" y1="128" x2="78" y2="148" class="solid"></line>
    <text x="90" y="140" >etc</text>
    <line x1="120" y1="128" x2="112" y2="144" class="solid"></line>
    <text x="122" y="140" >systemd</text>
    <line x1="184" y1="128" x2="176" y2="144" class="solid"></line>
    <text x="58" y="156" >pr</text>
    <circle cx="76" cy="152" r="3" class="nofill"></circle>
    <text x="82" y="156" >c</text>
    <line x1="88" y1="160" x2="80" y2="176" class="solid"></line>
    <text x="90" y="172" >proc</text>
    <line x1="128" y1="160" x2="120" y2="176" class="solid"></line>
    <text x="130" y="172" >&lt;pid&gt;</text>
    <line x1="176" y1="160" x2="168" y2="176" class="solid"></line>
    <line x1="88" y1="176" x2="80" y2="192" class="solid"></line>
    <text x="90" y="188" >proc</text>
    <line x1="128" y1="176" x2="120" y2="192" class="solid"></line>
    <text x="130" y="188" >meminfo</text>
    <line x1="88" y1="192" x2="80" y2="208" class="solid"></line>
    <text x="90" y="204" >proc</text>
    <line x1="128" y1="192" x2="120" y2="208" class="solid"></line>
    <text x="130" y="204" >cpuinfo</text>
    <line x1="88" y1="208" x2="80" y2="224" class="solid"></line>
    <text x="90" y="220" >proc</text>
    <line x1="128" y1="208" x2="120" y2="224" class="solid"></line>
    <text x="130" y="220" >sys</text>
    <line x1="160" y1="208" x2="152" y2="224" class="solid"></line>
    <text x="58" y="236" >sys</text>
    <text x="90" y="252" >sys</text>
    <line x1="120" y1="240" x2="112" y2="256" class="solid"></line>
    <text x="122" y="252" >fs</text>
    <line x1="144" y1="240" x2="136" y2="256" class="solid"></line>
    <text x="146" y="252" >cgroup</text>
    <line x1="200" y1="240" x2="192" y2="256" class="solid"></line>
    <text x="58" y="268" >de</text>
    <text x="90" y="284" >dev</text>
    <text x="122" y="284" >null</text>
    <line x1="88" y1="288" x2="80" y2="304" class="solid"></line>
    <text x="90" y="300" >de</text>
    <text x="122" y="300" >zero</text>
    <line x1="88" y1="304" x2="80" y2="320" class="solid"></line>
    <text x="90" y="316" >de</text>
    <text x="122" y="316" >random</text>
    <line x1="88" y1="320" x2="80" y2="336" class="solid"></line>
    <text x="90" y="332" >de</text>
    <text x="122" y="332" >sda</text>
    <line x1="56" y1="336" x2="48" y2="352" class="solid"></line>
    <text x="58" y="348" >tmp</text>
    <text x="58" y="364" >var</text>
    <line x1="88" y1="368" x2="80" y2="384" class="solid"></line>
    <text x="90" y="380" >var</text>
    <line x1="120" y1="368" x2="112" y2="384" class="solid"></line>
    <text x="122" y="380" >log</text>
    <line x1="152" y1="368" x2="144" y2="384" class="solid"></line>
    <line x1="88" y1="384" x2="80" y2="400" class="solid"></line>
    <text x="90" y="396" >var</text>
    <line x1="120" y1="384" x2="112" y2="400" class="solid"></line>
    <text x="122" y="396" >lib</text>
    <line x1="152" y1="384" x2="144" y2="400" class="solid"></line>
    <text x="154" y="396" >docker</text>
    <line x1="208" y1="384" x2="200" y2="400" class="solid"></line>
    <line x1="88" y1="400" x2="80" y2="416" class="solid"></line>
    <text x="90" y="412" >var</text>
    <line x1="120" y1="400" x2="112" y2="416" class="solid"></line>
    <text x="122" y="412" >lib</text>
    <line x1="152" y1="400" x2="144" y2="416" class="solid"></line>
    <text x="154" y="412" >kubelet</text>
    <line x1="216" y1="400" x2="208" y2="416" class="solid"></line>
    <line x1="56" y1="416" x2="48" y2="432" class="solid"></line>
    <text x="58" y="428" >home</text>
    <line x1="56" y1="432" x2="48" y2="448" class="solid"></line>
    <text x="58" y="444" >root</text>
    <text x="58" y="460" >usr</text>
    <line x1="88" y1="464" x2="80" y2="480" class="solid"></line>
    <text x="90" y="476" >usr</text>
    <line x1="120" y1="464" x2="112" y2="480" class="solid"></line>
    <text x="122" y="476" >bin</text>
    <line x1="152" y1="464" x2="144" y2="480" class="solid"></line>
    <line x1="88" y1="480" x2="80" y2="496" class="solid"></line>
    <text x="90" y="492" >usr</text>
    <line x1="120" y1="480" x2="112" y2="496" class="solid"></line>
    <text x="122" y="492" >lib</text>
    <line x1="152" y1="480" x2="144" y2="496" class="solid"></line>
    <line x1="56" y1="496" x2="48" y2="512" class="solid"></line>
    <circle cx="60" cy="504" r="3" class="nofill"></circle>
    <line x1="58" y1="508" x2="48" y2="528" class="solid"></line>
    <text x="66" y="508" >pt</text>
    <text x="58" y="524" >mnt,</text>
    <text x="458" y="156" >kernel</text>
    <line x1="512" y1="144" x2="504" y2="160" class="solid"></line>
    <text x="514" y="156" >process</text>
    <text x="458" y="172" >maps,</text>
    <text x="506" y="172" >fd,</text>
    <text x="538" y="172" >ns</text>
    <path d="M 552,160 A 16,16 0,0,1 552,176" class="nofill"></path>
    <text x="578" y="156" >data</text>
    <text x="586" y="236" >objects</text>
    <text x="538" y="396" >volumes</text>
    <path d="M 592,384 A 16,16 0,0,1 592,400" class="nofill"></path>
    <line x1="104" y1="512" x2="96" y2="528" class="solid"></line>
    <text x="106" y="524" >media</text>
    <g>
        <line x1="24" y1="0" x2="20" y2="8" class="solid"></line>
        <line x1="20" y1="8" x2="20" y2="520" class="solid"></line>
        <line x1="20" y1="24" x2="40" y2="24" class="solid"></line>
        <line x1="20" y1="40" x2="40" y2="40" class="solid"></line>
        <line x1="20" y1="56" x2="40" y2="56" class="solid"></line>
        <line x1="20" y1="152" x2="40" y2="152" class="solid"></line>
        <line x1="20" y1="232" x2="40" y2="232" class="solid"></line>
        <line x1="20" y1="264" x2="40" y2="264" class="solid"></line>
        <line x1="20" y1="344" x2="40" y2="344" class="solid"></line>
        <line x1="20" y1="360" x2="40" y2="360" class="solid"></line>
        <line x1="20" y1="424" x2="40" y2="424" class="solid"></line>
        <line x1="20" y1="440" x2="40" y2="440" class="solid"></line>
        <line x1="20" y1="456" x2="40" y2="456" class="solid"></line>
        <line x1="20" y1="504" x2="40" y2="504" class="solid"></line>
        <line x1="20" y1="520" x2="40" y2="520" class="solid"></line>
    </g>
    <g>
        <path d="M 472,24 A 8,8 0,0,0 466,28" class="nofill"></path>
        <line x1="466" y1="28" x2="464" y2="32" class="solid"></line>
        <path d="M 464,32 A 16,16 0,0,0 464,48" class="nofill"></path>
    </g>
    <g>
        <line x1="56" y1="48" x2="52" y2="56" class="solid"></line>
        <line x1="52" y1="56" x2="52" y2="136" class="solid"></line>
        <line x1="52" y1="72" x2="72" y2="72" class="solid"></line>
        <line x1="52" y1="88" x2="72" y2="88" class="solid"></line>
        <line x1="52" y1="104" x2="72" y2="104" class="solid"></line>
        <line x1="52" y1="120" x2="72" y2="120" class="solid"></line>
        <line x1="52" y1="136" x2="72" y2="136" class="solid"></line>
    </g>
    <g>
        <line x1="56" y1="144" x2="52" y2="152" class="solid"></line>
        <line x1="52" y1="152" x2="52" y2="216" class="solid"></line>
        <line x1="52" y1="168" x2="72" y2="168" class="solid"></line>
        <line x1="52" y1="184" x2="72" y2="184" class="solid"></line>
        <line x1="52" y1="200" x2="72" y2="200" class="solid"></line>
        <line x1="52" y1="216" x2="72" y2="216" class="solid"></line>
    </g>
    <g>
        <line x1="56" y1="224" x2="52" y2="232" class="solid"></line>
        <line x1="52" y1="232" x2="52" y2="248" class="solid"></line>
        <line x1="52" y1="248" x2="72" y2="248" class="solid"></line>
    </g>
    <g>
        <line x1="88" y1="240" x2="78" y2="260" class="solid"></line>
        <polygon points="81,260 74,268 74,257" class="filled"></polygon>
        <line x1="88" y1="272" x2="80" y2="288" class="solid"></line>
    </g>
    <g>
        <line x1="56" y1="256" x2="52" y2="264" class="solid"></line>
        <line x1="52" y1="264" x2="52" y2="328" class="solid"></line>
        <line x1="52" y1="280" x2="72" y2="280" class="solid"></line>
        <line x1="52" y1="296" x2="72" y2="296" class="solid"></line>
        <line x1="52" y1="312" x2="72" y2="312" class="solid"></line>
        <line x1="52" y1="328" x2="72" y2="328" class="solid"></line>
    </g>
    <g>
        <line x1="120" y1="272" x2="110" y2="292" class="solid"></line>
        <polygon points="113,292 106,300 106,289" class="filled"></polygon>
        <line x1="120" y1="288" x2="110" y2="308" class="solid"></line>
        <polygon points="113,308 106,316 106,305" class="filled"></polygon>
        <line x1="120" y1="304" x2="110" y2="324" class="solid"></line>
        <polygon points="113,324 106,332 106,321" class="filled"></polygon>
        <line x1="120" y1="320" x2="112" y2="336" class="solid"></line>
    </g>
    <g>
        <line x1="56" y1="352" x2="52" y2="360" class="solid"></line>
        <line x1="52" y1="360" x2="52" y2="408" class="solid"></line>
        <line x1="52" y1="376" x2="72" y2="376" class="solid"></line>
        <line x1="52" y1="392" x2="72" y2="392" class="solid"></line>
        <line x1="52" y1="408" x2="72" y2="408" class="solid"></line>
    </g>
    <g>
        <line x1="56" y1="448" x2="52" y2="456" class="solid"></line>
        <line x1="52" y1="456" x2="52" y2="488" class="solid"></line>
        <line x1="52" y1="472" x2="72" y2="472" class="solid"></line>
        <line x1="52" y1="488" x2="72" y2="488" class="solid"></line>
    </g>
</svg>