<svg xmlns="http://www.w3.org/2000/svg" width="536" height="192" style="background:#ffffff;border:1px solid #e5e5e5;border-radius:8px;max-width:100%;height:auto"><rect x="0" y="0" width="100%" height="100%" fill="#ffffff"/>
    <style>
        line, path, circle, rect, polygon{stroke:black;stroke-width:2;stroke-opacity:1;fill-opacity:1;stroke-linecap:round;stroke-linejoin:miter;}text{font-family:Iosevka Fixed, monospace;font-size:14px;}rect.backdrop{stroke:none;fill:transparent;}.broken{stroke-dasharray:8;}.filled{fill:black;}.bg_filled{fill:transparent;}.nofill{fill:transparent;}.end_marked_arrow{marker-end:url(#arrow);}.start_marked_arrow{marker-start:url(#arrow);}.end_marked_diamond{marker-end:url(#diamond);}.start_marked_diamond{marker-start:url(#diamond);}.end_marked_circle{marker-end:url(#circle);}.start_marked_circle{marker-start:url(#circle);}.end_marked_open_circle{marker-end:url(#open_circle);}.start_marked_open_circle{marker-start:url(#open_circle);}.end_marked_big_open_circle{marker-end:url(#big_open_circle);}.start_marked_big_open_circle{marker-start:url(#big_open_circle);}
        <!--separator-->
        
    </style>
    <defs>
        <marker id="arrow" viewBox="-2 -2 8 8" refX="4" refY="2" markerWidth="7" markerHeight="7" orient="auto-start-reverse">
            <polygon points="0,0 0,4 4,2 0,0"></polygon>
        </marker>
        <marker id="diamond" viewBox="-2 -2 8 8" refX="4" refY="2" markerWidth="7" markerHeight="7" orient="auto-start-reverse">
            <polygon points="0,2 2,0 4,2 2,4 0,2"></polygon>
        </marker>
        <marker id="circle" viewBox="0 0 8 8" refX="4" refY="4" markerWidth="7" markerHeight="7" orient="auto-start-reverse">
            <circle cx="4" cy="4" r="2" class="filled"></circle>
        </marker>
        <marker id="open_circle" viewBox="0 0 8 8" refX="4" refY="4" markerWidth="7" markerHeight="7" orient="auto-start-reverse">
            <circle cx="4" cy="4" r="2" class="bg_filled"></circle>
        </marker>
        <marker id="big_open_circle" viewBox="0 0 8 8" refX="4" refY="4" markerWidth="7" markerHeight="7" orient="auto-start-reverse">
            <circle cx="4" cy="4" r="3" class="bg_filled"></circle>
        </marker>
    </defs>
    <rect class="backdrop" x="0" y="0" width="536" height="192"></rect>
    <text x="2" y="12" >Dirty</text>
    <text x="50" y="12" >Page</text>
    <text x="90" y="12" >Bitmap:</text>
    <text x="2" y="44" >Page:</text>
    <text x="2" y="60" >Bit:</text>
    <text x="58" y="44" >0</text>
    <text x="82" y="44" >1</text>
    <text x="106" y="44" >2</text>
    <text x="130" y="44" >3</text>
    <text x="154" y="44" >4</text>
    <text x="178" y="44" >5</text>
    <text x="202" y="44" >6</text>
    <text x="226" y="44" >7</text>
    <text x="250" y="44" >8</text>
    <text x="274" y="44" >9</text>
    <text x="298" y="44" >10</text>
    <text x="322" y="44" >11</text>
    <text x="346" y="44" >12</text>
    <text x="50" y="60" >[0][1][0][0][1][0][0][0][1][0][</text>
    <text x="306" y="60" >0][</text>
    <text x="338" y="60" >0][</text>
    <line x1="60" y1="64" x2="60" y2="96" class="solid"></line>
    <text x="82" y="76" >↑</text>
    <text x="154" y="76" >↑</text>
    <text x="274" y="76" >↑</text>
    <text x="82" y="92" >dirty</text>
    <text x="154" y="92" >dirty</text>
    <text x="274" y="92" >dirty</text>
    <text x="58" y="108" >clean</text>
    <text x="370" y="44" >...</text>
    <text x="370" y="60" >1]...</text>
    <text x="410" y="76" >↑</text>
    <text x="410" y="92" >dirty</text>
    <text x="2" y="140" >→</text>
    <text x="2" y="156" >→</text>
    <text x="2" y="172" >→</text>
    <text x="18" y="140" >Copy</text>
    <text x="58" y="140" >pages</text>
    <text x="106" y="140" >1,</text>
    <text x="130" y="140" >4,</text>
    <text x="154" y="140" >8,</text>
    <text x="18" y="156" >Clear</text>
    <text x="66" y="156" >all</text>
    <text x="98" y="156" >bits</text>
    <text x="138" y="156" >to</text>
    <text x="162" y="156" >0</text>
    <text x="18" y="172" >Repeat</text>
    <text x="74" y="172" >until</text>
    <text x="122" y="172" >dirty</text>
    <text x="170" y="172" >count</text>
    <text x="178" y="140" >12,</text>
    <text x="210" y="140" >...</text>
    <text x="242" y="140" >to</text>
    <text x="266" y="140" >destination</text>
    <text x="218" y="172" >is</text>
    <text x="242" y="172" >small</text>
    <text x="290" y="172" >enough</text>
    <text x="346" y="172" >for</text>
    <text x="378" y="172" >final</text>
    <text x="426" y="172" >stop</text>
    <line x1="456" y1="168" x2="464" y2="168" class="solid"></line>
    <text x="466" y="172" >and</text>
    <line x1="488" y1="168" x2="496" y2="168" class="solid"></line>
    <text x="498" y="172" >copy</text>
</svg>