<svg xmlns="http://www.w3.org/2000/svg" width="432" height="320" style="background:#ffffff;border:1px solid #e5e5e5;border-radius:8px;max-width:100%;height:auto"><rect x="0" y="0" width="100%" height="100%" fill="#ffffff"/>
    <style>
        line, path, circle, rect, polygon{stroke:black;stroke-width:2;stroke-opacity:1;fill-opacity:1;stroke-linecap:round;stroke-linejoin:miter;}text{font-family:Iosevka Fixed, monospace;font-size:14px;}rect.backdrop{stroke:none;fill:transparent;}.broken{stroke-dasharray:8;}.filled{fill:black;}.bg_filled{fill:transparent;}.nofill{fill:transparent;}.end_marked_arrow{marker-end:url(#arrow);}.start_marked_arrow{marker-start:url(#arrow);}.end_marked_diamond{marker-end:url(#diamond);}.start_marked_diamond{marker-start:url(#diamond);}.end_marked_circle{marker-end:url(#circle);}.start_marked_circle{marker-start:url(#circle);}.end_marked_open_circle{marker-end:url(#open_circle);}.start_marked_open_circle{marker-start:url(#open_circle);}.end_marked_big_open_circle{marker-end:url(#big_open_circle);}.start_marked_big_open_circle{marker-start:url(#big_open_circle);}
        <!--separator-->
        
    </style>
    <defs>
        <marker id="arrow" viewBox="-2 -2 8 8" refX="4" refY="2" markerWidth="7" markerHeight="7" orient="auto-start-reverse">
            <polygon points="0,0 0,4 4,2 0,0"></polygon>
        </marker>
        <marker id="diamond" viewBox="-2 -2 8 8" refX="4" refY="2" markerWidth="7" markerHeight="7" orient="auto-start-reverse">
            <polygon points="0,2 2,0 4,2 2,4 0,2"></polygon>
        </marker>
        <marker id="circle" viewBox="0 0 8 8" refX="4" refY="4" markerWidth="7" markerHeight="7" orient="auto-start-reverse">
            <circle cx="4" cy="4" r="2" class="filled"></circle>
        </marker>
        <marker id="open_circle" viewBox="0 0 8 8" refX="4" refY="4" markerWidth="7" markerHeight="7" orient="auto-start-reverse">
            <circle cx="4" cy="4" r="2" class="bg_filled"></circle>
        </marker>
        <marker id="big_open_circle" viewBox="0 0 8 8" refX="4" refY="4" markerWidth="7" markerHeight="7" orient="auto-start-reverse">
            <circle cx="4" cy="4" r="3" class="bg_filled"></circle>
        </marker>
    </defs>
    <rect class="backdrop" x="0" y="0" width="432" height="320"></rect>
    <text x="26" y="28" >Host</text>
    <text x="66" y="28" >Machine</text>
    <line x1="420" y1="16" x2="420" y2="48" class="solid"></line>
    <text x="50" y="76" >VM</text>
    <text x="74" y="76" >1</text>
    <text x="162" y="76" >VM</text>
    <text x="186" y="76" >2</text>
    <text x="266" y="76" >Host</text>
    <text x="306" y="76" >Apps</text>
    <line x1="380" y1="64" x2="380" y2="80" class="solid"></line>
    <text x="34" y="92" >10.0.0.20</text>
    <text x="146" y="92" >10.0.0.21</text>
    <text x="266" y="92" >10.0.0.5</text>
    <line x1="420" y1="112" x2="420" y2="128" class="solid"></line>
    <line x1="412" y1="128" x2="412" y2="144" class="solid"></line>
    <text x="98" y="156" >Bridge</text>
    <path d="M 160,144 A 16,16 0,0,0 160,160" class="nofill"></path>
    <text x="162" y="156" >br0</text>
    <path d="M 184,144 A 16,16 0,0,1 184,160" class="nofill"></path>
    <line x1="364" y1="144" x2="364" y2="160" class="solid"></line>
    <line x1="420" y1="144" x2="420" y2="160" class="solid"></line>
    <line x1="412" y1="160" x2="412" y2="176" class="solid"></line>
    <line x1="420" y1="176" x2="420" y2="192" class="solid"></line>
    <line x1="412" y1="192" x2="412" y2="208" class="solid"></line>
    <text x="58" y="220" >Physical</text>
    <text x="130" y="220" >NIC</text>
    <path d="M 168,208 A 16,16 0,0,0 168,224" class="nofill"></path>
    <text x="170" y="220" >eth0</text>
    <path d="M 200,208 A 16,16 0,0,1 200,224" class="nofill"></path>
    <line x1="364" y1="208" x2="364" y2="224" class="solid"></line>
    <line x1="420" y1="208" x2="420" y2="224" class="solid"></line>
    <line x1="412" y1="224" x2="412" y2="240" class="solid"></line>
    <text x="122" y="284" >Physical</text>
    <text x="194" y="284" >Network</text>
    <text x="114" y="300" >devices</text>
    <text x="178" y="300" >on</text>
    <text x="202" y="300" >10.0.0.0</text>
    <line x1="272" y1="288" x2="264" y2="304" class="solid"></line>
    <text x="274" y="300" >24</text>
    <path d="M 288,288 A 16,16 0,0,1 288,304" class="nofill"></path>
    <line x1="404" y1="48" x2="404" y2="64" class="solid"></line>
    <line x1="412" y1="64" x2="412" y2="80" class="solid"></line>
    <line x1="404" y1="80" x2="404" y2="112" class="solid"></line>
    <path d="M 80,288 A 16,16 0,0,0 80,304" class="nofill"></path>
    <text x="82" y="300" >all</text>
    <g>
        <line x1="4" y1="8" x2="412" y2="8" class="solid"></line>
        <line x1="4" y1="8" x2="4" y2="248" class="solid"></line>
        <line x1="412" y1="8" x2="412" y2="16" class="solid"></line>
        <line x1="4" y1="248" x2="420" y2="248" class="solid"></line>
        <line x1="420" y1="240" x2="420" y2="248" class="solid"></line>
    </g>
    <g>
        <line x1="28" y1="56" x2="116" y2="56" class="solid"></line>
        <line x1="28" y1="56" x2="28" y2="104" class="solid"></line>
        <line x1="116" y1="56" x2="116" y2="104" class="solid"></line>
        <line x1="28" y1="104" x2="116" y2="104" class="solid"></line>
        <line x1="68" y1="104" x2="68" y2="136" class="solid"></line>
        <line x1="316" y1="112" x2="316" y2="136" class="solid"></line>
        <line x1="28" y1="136" x2="356" y2="136" class="solid"></line>
        <line x1="28" y1="136" x2="28" y2="168" class="solid"></line>
        <line x1="356" y1="136" x2="356" y2="144" class="solid"></line>
        <line x1="28" y1="168" x2="356" y2="168" class="solid"></line>
        <line x1="188" y1="168" x2="188" y2="200" class="solid"></line>
        <line x1="356" y1="160" x2="356" y2="168" class="solid"></line>
        <line x1="28" y1="200" x2="356" y2="200" class="solid"></line>
        <line x1="28" y1="200" x2="28" y2="232" class="solid"></line>
        <line x1="356" y1="200" x2="356" y2="208" class="solid"></line>
        <line x1="28" y1="232" x2="356" y2="232" class="solid"></line>
        <line x1="188" y1="232" x2="188" y2="272" class="solid"></line>
        <line x1="356" y1="224" x2="356" y2="232" class="solid"></line>
        <line x1="188" y1="112" x2="188" y2="136" class="solid"></line>
    </g>
    <g>
        <line x1="140" y1="56" x2="228" y2="56" class="solid"></line>
        <line x1="140" y1="56" x2="140" y2="104" class="solid"></line>
        <line x1="228" y1="56" x2="228" y2="104" class="solid"></line>
        <line x1="140" y1="104" x2="228" y2="104" class="solid"></line>
        <line x1="180" y1="104" x2="180" y2="112" class="solid"></line>
    </g>
    <g>
        <line x1="252" y1="56" x2="372" y2="56" class="solid"></line>
        <line x1="252" y1="56" x2="252" y2="104" class="solid"></line>
        <line x1="372" y1="56" x2="372" y2="64" class="solid"></line>
        <line x1="372" y1="80" x2="372" y2="104" class="solid"></line>
        <line x1="252" y1="104" x2="372" y2="104" class="solid"></line>
        <line x1="308" y1="104" x2="308" y2="112" class="solid"></line>
    </g>
</svg>