<svg xmlns="http://www.w3.org/2000/svg" width="424" height="336" style="background:#ffffff;border:1px solid #e5e5e5;border-radius:8px;max-width:100%;height:auto"><rect x="0" y="0" width="100%" height="100%" fill="#ffffff"/>
    <style>
        line, path, circle, rect, polygon{stroke:black;stroke-width:2;stroke-opacity:1;fill-opacity:1;stroke-linecap:round;stroke-linejoin:miter;}text{font-family:Iosevka Fixed, monospace;font-size:14px;}rect.backdrop{stroke:none;fill:transparent;}.broken{stroke-dasharray:8;}.filled{fill:black;}.bg_filled{fill:transparent;}.nofill{fill:transparent;}.end_marked_arrow{marker-end:url(#arrow);}.start_marked_arrow{marker-start:url(#arrow);}.end_marked_diamond{marker-end:url(#diamond);}.start_marked_diamond{marker-start:url(#diamond);}.end_marked_circle{marker-end:url(#circle);}.start_marked_circle{marker-start:url(#circle);}.end_marked_open_circle{marker-end:url(#open_circle);}.start_marked_open_circle{marker-start:url(#open_circle);}.end_marked_big_open_circle{marker-end:url(#big_open_circle);}.start_marked_big_open_circle{marker-start:url(#big_open_circle);}
        <!--separator-->
        
    </style>
    <defs>
        <marker id="arrow" viewBox="-2 -2 8 8" refX="4" refY="2" markerWidth="7" markerHeight="7" orient="auto-start-reverse">
            <polygon points="0,0 0,4 4,2 0,0"></polygon>
        </marker>
        <marker id="diamond" viewBox="-2 -2 8 8" refX="4" refY="2" markerWidth="7" markerHeight="7" orient="auto-start-reverse">
            <polygon points="0,2 2,0 4,2 2,4 0,2"></polygon>
        </marker>
        <marker id="circle" viewBox="0 0 8 8" refX="4" refY="4" markerWidth="7" markerHeight="7" orient="auto-start-reverse">
            <circle cx="4" cy="4" r="2" class="filled"></circle>
        </marker>
        <marker id="open_circle" viewBox="0 0 8 8" refX="4" refY="4" markerWidth="7" markerHeight="7" orient="auto-start-reverse">
            <circle cx="4" cy="4" r="2" class="bg_filled"></circle>
        </marker>
        <marker id="big_open_circle" viewBox="0 0 8 8" refX="4" refY="4" markerWidth="7" markerHeight="7" orient="auto-start-reverse">
            <circle cx="4" cy="4" r="3" class="bg_filled"></circle>
        </marker>
    </defs>
    <rect class="backdrop" x="0" y="0" width="424" height="336"></rect>
    <text x="26" y="28" >Host</text>
    <text x="66" y="28" >Machine</text>
    <path d="M 136,16 A 16,16 0,0,0 136,32" class="nofill"></path>
    <text x="138" y="28" >IP:</text>
    <text x="170" y="28" >10.0.0.5</text>
    <path d="M 232,16 A 16,16 0,0,1 232,32" class="nofill"></path>
    <line x1="412" y1="32" x2="412" y2="48" class="solid"></line>
    <line x1="404" y1="48" x2="404" y2="128" class="solid"></line>
    <text x="50" y="76" >VM</text>
    <text x="74" y="76" >1</text>
    <text x="162" y="76" >VM</text>
    <text x="186" y="76" >2</text>
    <text x="34" y="92" >192.168.</text>
    <text x="146" y="92" >192.168.</text>
    <text x="34" y="108" >122.10</text>
    <text x="146" y="108" >122.11</text>
    <line x1="412" y1="128" x2="412" y2="144" class="solid"></line>
    <line x1="404" y1="144" x2="404" y2="160" class="solid"></line>
    <text x="50" y="172" >Virtual</text>
    <text x="114" y="172" >NAT</text>
    <text x="146" y="172" >Router</text>
    <line x1="412" y1="160" x2="412" y2="176" class="solid"></line>
    <path d="M 56,176 A 16,16 0,0,0 56,192" class="nofill"></path>
    <text x="58" y="188" >virbr0:</text>
    <text x="122" y="188" >192.168.122.1</text>
    <path d="M 224,176 A 16,16 0,0,1 224,192" class="nofill"></path>
    <text x="146" y="220" >NAT</text>
    <text x="50" y="252" >Host</text>
    <text x="90" y="252" >Network</text>
    <text x="154" y="252" >Stack</text>
    <text x="66" y="316" >Physical</text>
    <text x="138" y="316" >Network</text>
    <text x="258" y="188" >←</text>
    <text x="274" y="188" >dnsmasq</text>
    <text x="338" y="188" >DHCP</text>
    <line x1="396" y1="176" x2="396" y2="192" class="solid"></line>
    <g>
        <line x1="4" y1="8" x2="404" y2="8" class="solid"></line>
        <line x1="4" y1="8" x2="4" y2="280" class="solid"></line>
        <line x1="404" y1="8" x2="404" y2="32" class="solid"></line>
        <line x1="412" y1="192" x2="412" y2="280" class="solid"></line>
        <line x1="4" y1="280" x2="412" y2="280" class="solid"></line>
    </g>
    <g>
        <line x1="28" y1="56" x2="116" y2="56" class="solid"></line>
        <line x1="28" y1="56" x2="28" y2="120" class="solid"></line>
        <line x1="116" y1="56" x2="116" y2="120" class="solid"></line>
        <line x1="28" y1="120" x2="116" y2="120" class="solid"></line>
        <line x1="68" y1="120" x2="68" y2="152" class="solid"></line>
        <line x1="188" y1="128" x2="188" y2="152" class="solid"></line>
        <line x1="28" y1="152" x2="228" y2="152" class="solid"></line>
        <line x1="28" y1="152" x2="28" y2="200" class="solid"></line>
        <line x1="228" y1="152" x2="228" y2="160" class="solid"></line>
        <line x1="236" y1="160" x2="236" y2="200" class="solid"></line>
        <line x1="28" y1="200" x2="236" y2="200" class="solid"></line>
        <line x1="132" y1="200" x2="132" y2="232" class="solid"></line>
        <line x1="28" y1="232" x2="236" y2="232" class="solid"></line>
        <line x1="28" y1="232" x2="28" y2="264" class="solid"></line>
        <line x1="236" y1="232" x2="236" y2="264" class="solid"></line>
        <line x1="28" y1="264" x2="236" y2="264" class="solid"></line>
        <line x1="132" y1="264" x2="132" y2="304" class="solid"></line>
    </g>
    <g>
        <line x1="140" y1="56" x2="228" y2="56" class="solid"></line>
        <line x1="140" y1="56" x2="140" y2="120" class="solid"></line>
        <line x1="228" y1="56" x2="228" y2="120" class="solid"></line>
        <line x1="140" y1="120" x2="228" y2="120" class="solid"></line>
        <line x1="180" y1="120" x2="180" y2="128" class="solid"></line>
    </g>
</svg>