<svg xmlns="http://www.w3.org/2000/svg" width="704" height="832" style="background:#ffffff;border:1px solid #e5e5e5;border-radius:8px;max-width:100%;height:auto"><rect x="0" y="0" width="100%" height="100%" fill="#ffffff"/>
    <style>
        line, path, circle, rect, polygon{stroke:black;stroke-width:2;stroke-opacity:1;fill-opacity:1;stroke-linecap:round;stroke-linejoin:miter;}text{font-family:Iosevka Fixed, monospace;font-size:14px;}rect.backdrop{stroke:none;fill:transparent;}.broken{stroke-dasharray:8;}.filled{fill:black;}.bg_filled{fill:transparent;}.nofill{fill:transparent;}.end_marked_arrow{marker-end:url(#arrow);}.start_marked_arrow{marker-start:url(#arrow);}.end_marked_diamond{marker-end:url(#diamond);}.start_marked_diamond{marker-start:url(#diamond);}.end_marked_circle{marker-end:url(#circle);}.start_marked_circle{marker-start:url(#circle);}.end_marked_open_circle{marker-end:url(#open_circle);}.start_marked_open_circle{marker-start:url(#open_circle);}.end_marked_big_open_circle{marker-end:url(#big_open_circle);}.start_marked_big_open_circle{marker-start:url(#big_open_circle);}
        <!--separator-->
        
    </style>
    <defs>
        <marker id="arrow" viewBox="-2 -2 8 8" refX="4" refY="2" markerWidth="7" markerHeight="7" orient="auto-start-reverse">
            <polygon points="0,0 0,4 4,2 0,0"></polygon>
        </marker>
        <marker id="diamond" viewBox="-2 -2 8 8" refX="4" refY="2" markerWidth="7" markerHeight="7" orient="auto-start-reverse">
            <polygon points="0,2 2,0 4,2 2,4 0,2"></polygon>
        </marker>
        <marker id="circle" viewBox="0 0 8 8" refX="4" refY="4" markerWidth="7" markerHeight="7" orient="auto-start-reverse">
            <circle cx="4" cy="4" r="2" class="filled"></circle>
        </marker>
        <marker id="open_circle" viewBox="0 0 8 8" refX="4" refY="4" markerWidth="7" markerHeight="7" orient="auto-start-reverse">
            <circle cx="4" cy="4" r="2" class="bg_filled"></circle>
        </marker>
        <marker id="big_open_circle" viewBox="0 0 8 8" refX="4" refY="4" markerWidth="7" markerHeight="7" orient="auto-start-reverse">
            <circle cx="4" cy="4" r="3" class="bg_filled"></circle>
        </marker>
    </defs>
    <rect class="backdrop" x="0" y="0" width="704" height="832"></rect>
    <rect x="0" y="4" width="8" height="8" class="solid filled" rx="0"></rect>
    <line x1="4" y1="12" x2="4" y2="20" class="solid"></line>
    <line x1="16" y1="8" x2="32" y2="8" class="solid"></line>
    <text x="42" y="12" >CREATE</text>
    <text x="98" y="12" >A</text>
    <text x="114" y="12" >NETWORK</text>
    <line x1="176" y1="8" x2="480" y2="8" class="solid"></line>
    <rect x="0" y="20" width="8" height="8" class="solid filled" rx="0"></rect>
    <line x1="4" y1="28" x2="4" y2="36" class="solid"></line>
    <text x="18" y="28" >Create</text>
    <text x="74" y="28" >a</text>
    <text x="90" y="28" >user</text>
    <line x1="120" y1="24" x2="128" y2="24" class="solid"></line>
    <text x="130" y="28" >defined</text>
    <text x="194" y="28" >bridge</text>
    <text x="250" y="28" >network.</text>
    <rect x="0" y="36" width="8" height="8" class="solid filled" rx="0"></rect>
    <line x1="4" y1="44" x2="4" y2="52" class="solid"></line>
    <text x="18" y="44" >User</text>
    <line x1="48" y1="40" x2="56" y2="40" class="solid"></line>
    <text x="58" y="44" >defined</text>
    <text x="122" y="44" >bridges</text>
    <text x="186" y="44" >provide</text>
    <text x="250" y="44" >DNS</text>
    <line x1="272" y1="40" x2="280" y2="40" class="solid"></line>
    <text x="282" y="44" >based</text>
    <text x="330" y="44" >service</text>
    <text x="394" y="44" >discovery</text>
    <rect x="0" y="52" width="8" height="8" class="solid filled" rx="0"></rect>
    <text x="18" y="60" >containers</text>
    <text x="106" y="60" >can</text>
    <text x="138" y="60" >reach</text>
    <text x="186" y="60" >each</text>
    <text x="226" y="60" >other</text>
    <text x="274" y="60" >by</text>
    <text x="298" y="60" >name,</text>
    <text x="346" y="60" >not</text>
    <text x="378" y="60" >just</text>
    <text x="418" y="60" >IP.</text>
    <text x="2" y="76" >docker</text>
    <text x="58" y="76" >network</text>
    <text x="122" y="76" >create</text>
    <line x1="176" y1="72" x2="192" y2="72" class="solid"></line>
    <text x="194" y="76" >driver</text>
    <text x="250" y="76" >bridge</text>
    <text x="306" y="76" >mynet</text>
    <line x1="472" y1="40" x2="480" y2="40" class="solid"></line>
    <text x="2" y="108" >#</text>
    <text x="18" y="108" >Create</text>
    <text x="74" y="108" >a</text>
    <text x="90" y="108" >network</text>
    <text x="154" y="108" >with</text>
    <text x="194" y="108" >a</text>
    <text x="210" y="108" >specific</text>
    <text x="282" y="108" >subnet</text>
    <path d="M 344,96 A 16,16 0,0,0 344,112" class="nofill"></path>
    <text x="346" y="108" >useful</text>
    <text x="402" y="108" >for</text>
    <text x="434" y="108" >av</text>
    <circle cx="452" cy="104" r="3" class="nofill"></circle>
    <line x1="450" y1="108" x2="440" y2="128" class="solid"></line>
    <text x="458" y="108" >iding</text>
    <text x="506" y="108" >conflicts</text>
    <path d="M 576,96 A 16,16 0,0,1 576,112" class="nofill"></path>
    <text x="586" y="108" >:</text>
    <text x="2" y="124" >docker</text>
    <text x="58" y="124" >network</text>
    <text x="122" y="124" >create</text>
    <line x1="176" y1="120" x2="192" y2="120" class="solid"></line>
    <text x="194" y="124" >driver</text>
    <text x="250" y="124" >bridge</text>
    <line x1="304" y1="120" x2="320" y2="120" class="solid"></line>
    <text x="322" y="124" >subnet</text>
    <text x="378" y="124" >10.0.0.0</text>
    <text x="450" y="124" >24</text>
    <text x="474" y="124" >mynet</text>
    <rect x="0" y="148" width="8" height="8" class="solid filled" rx="0"></rect>
    <line x1="4" y1="156" x2="4" y2="164" class="solid"></line>
    <line x1="16" y1="152" x2="32" y2="152" class="solid"></line>
    <text x="42" y="156" >RUN</text>
    <text x="74" y="156" >CONTAINERS</text>
    <text x="162" y="156" >ON</text>
    <text x="186" y="156" >THE</text>
    <text x="218" y="156" >NETWORK</text>
    <line x1="280" y1="152" x2="472" y2="152" class="solid"></line>
    <rect x="0" y="164" width="8" height="8" class="solid filled" rx="0"></rect>
    <line x1="4" y1="172" x2="4" y2="180" class="solid"></line>
    <text x="18" y="172" >Run</text>
    <text x="50" y="172" >an</text>
    <text x="74" y="172" >API</text>
    <text x="106" y="172" >container</text>
    <text x="186" y="172" >attached</text>
    <text x="258" y="172" >to</text>
    <text x="282" y="172" >&#39;mynet&#39;.</text>
    <rect x="0" y="180" width="8" height="8" class="solid filled" rx="0"></rect>
    <text x="18" y="188" >Other</text>
    <text x="66" y="188" >containers</text>
    <text x="154" y="188" >on</text>
    <text x="178" y="188" >&#39;mynet&#39;</text>
    <text x="242" y="188" >can</text>
    <text x="274" y="188" >reach</text>
    <text x="322" y="188" >it</text>
    <text x="346" y="188" >at</text>
    <text x="370" y="188" >hostname</text>
    <text x="442" y="188" >&#39;api&#39;.</text>
    <text x="2" y="204" >docker</text>
    <text x="58" y="204" >run</text>
    <line x1="88" y1="200" x2="96" y2="200" class="solid"></line>
    <text x="98" y="204" >d</text>
    <line x1="112" y1="200" x2="128" y2="200" class="solid"></line>
    <text x="130" y="204" >name</text>
    <text x="170" y="204" >api</text>
    <line x1="200" y1="200" x2="216" y2="200" class="solid"></line>
    <text x="218" y="204" >network</text>
    <text x="282" y="204" >mynet</text>
    <line x1="328" y1="200" x2="336" y2="200" class="solid"></line>
    <text x="338" y="204" >p</text>
    <text x="354" y="204" >3000:3000</text>
    <text x="434" y="204" >myapp:1.0</text>
    <rect x="0" y="228" width="8" height="8" class="solid filled" rx="0"></rect>
    <line x1="4" y1="236" x2="4" y2="244" class="solid"></line>
    <text x="18" y="236" >Run</text>
    <text x="50" y="236" >a</text>
    <text x="66" y="236" >database</text>
    <text x="138" y="236" >container</text>
    <text x="218" y="236" >on</text>
    <text x="242" y="236" >the</text>
    <text x="274" y="236" >same</text>
    <text x="314" y="236" >network</text>
    <rect x="0" y="244" width="8" height="8" class="solid filled" rx="0"></rect>
    <text x="18" y="252" >The</text>
    <text x="50" y="252" >API</text>
    <text x="82" y="252" >can</text>
    <text x="114" y="252" >connect</text>
    <text x="178" y="252" >to</text>
    <text x="202" y="252" >it</text>
    <text x="226" y="252" >at</text>
    <text x="250" y="252" >hostname</text>
    <text x="322" y="252" >&#39;db&#39;</text>
    <text x="370" y="252" >e.g.,</text>
    <text x="2" y="268" >docker</text>
    <text x="58" y="268" >run</text>
    <line x1="88" y1="264" x2="96" y2="264" class="solid"></line>
    <text x="98" y="268" >d</text>
    <line x1="112" y1="264" x2="128" y2="264" class="solid"></line>
    <text x="130" y="268" >name</text>
    <text x="170" y="268" >db</text>
    <line x1="192" y1="264" x2="208" y2="264" class="solid"></line>
    <text x="210" y="268" >network</text>
    <text x="274" y="268" >mynet</text>
    <line x1="320" y1="256" x2="328" y2="272" class="solid"></line>
    <line x1="16" y1="280" x2="24" y2="280" class="solid"></line>
    <text x="26" y="284" >e</text>
    <text x="42" y="284" >POSTGRES</text>
    <line x1="104" y1="288" x2="112" y2="288" class="solid"></line>
    <text x="114" y="284" >PASSWORD</text>
    <line x1="176" y1="278" x2="184" y2="278" class="solid"></line>
    <line x1="176" y1="282" x2="184" y2="282" class="solid"></line>
    <text x="186" y="284" >secret</text>
    <line x1="240" y1="272" x2="248" y2="288" class="solid"></line>
    <text x="18" y="300" >postgres:16</text>
    <text x="418" y="252" >postgres:</text>
    <line x1="496" y1="240" x2="488" y2="256" class="solid"></line>
    <line x1="504" y1="240" x2="496" y2="256" class="solid"></line>
    <text x="506" y="252" >db:5432</text>
    <path d="M 560,240 A 16,16 0,0,1 560,256" class="nofill"></path>
    <text x="570" y="252" >.</text>
    <rect x="0" y="324" width="8" height="8" class="solid filled" rx="0"></rect>
    <line x1="4" y1="332" x2="4" y2="340" class="solid"></line>
    <line x1="16" y1="328" x2="32" y2="328" class="solid"></line>
    <text x="42" y="332" >INSPECT</text>
    <line x1="104" y1="328" x2="480" y2="328" class="solid"></line>
    <rect x="0" y="340" width="8" height="8" class="solid filled" rx="0"></rect>
    <text x="18" y="348" >Show</text>
    <text x="58" y="348" >full</text>
    <text x="98" y="348" >details</text>
    <text x="162" y="348" >of</text>
    <text x="186" y="348" >a</text>
    <text x="202" y="348" >network:</text>
    <text x="274" y="348" >subnet,</text>
    <text x="338" y="348" >gateway,</text>
    <text x="410" y="348" >connected</text>
    <text x="2" y="364" >docker</text>
    <text x="58" y="364" >network</text>
    <text x="122" y="364" >inspect</text>
    <text x="186" y="364" >mynet</text>
    <rect x="0" y="372" width="8" height="8" class="solid filled" rx="0"></rect>
    <line x1="4" y1="380" x2="4" y2="388" class="solid"></line>
    <text x="18" y="380" >Key</text>
    <text x="50" y="380" >output:</text>
    <rect x="0" y="388" width="8" height="8" class="solid filled" rx="0"></rect>
    <line x1="4" y1="396" x2="4" y2="404" class="solid"></line>
    <rect x="0" y="404" width="8" height="8" class="solid filled" rx="0"></rect>
    <line x1="4" y1="412" x2="4" y2="420" class="solid"></line>
    <rect x="0" y="420" width="8" height="8" class="solid filled" rx="0"></rect>
    <line x1="4" y1="428" x2="4" y2="436" class="solid"></line>
    <rect x="0" y="436" width="8" height="8" class="solid filled" rx="0"></rect>
    <line x1="4" y1="444" x2="4" y2="452" class="solid"></line>
    <rect x="0" y="452" width="8" height="8" class="solid filled" rx="0"></rect>
    <line x1="4" y1="460" x2="4" y2="468" class="solid"></line>
    <rect x="0" y="468" width="8" height="8" class="solid filled" rx="0"></rect>
    <line x1="4" y1="476" x2="4" y2="484" class="solid"></line>
    <rect x="0" y="484" width="8" height="8" class="solid filled" rx="0"></rect>
    <line x1="4" y1="492" x2="4" y2="500" class="solid"></line>
    <rect x="0" y="500" width="8" height="8" class="solid filled" rx="0"></rect>
    <line x1="4" y1="508" x2="4" y2="516" class="solid"></line>
    <rect x="0" y="516" width="8" height="8" class="solid filled" rx="0"></rect>
    <line x1="4" y1="524" x2="4" y2="532" class="solid"></line>
    <rect x="0" y="532" width="8" height="8" class="solid filled" rx="0"></rect>
    <text x="490" y="348" >containers</text>
    <text x="578" y="348" >with</text>
    <text x="618" y="348" >their</text>
    <text x="666" y="348" >IPs.</text>
    <line x1="116" y1="384" x2="116" y2="416" class="broken"></line>
    <text x="130" y="396" >{</text>
    <text x="130" y="412" >{</text>
    <text x="130" y="428" >:</text>
    <text x="186" y="428" >,</text>
    <text x="186" y="444" >:</text>
    <text x="50" y="460" >},</text>
    <text x="114" y="476" >:</text>
    <text x="130" y="476" >{</text>
    <text x="130" y="492" >:</text>
    <text x="178" y="492" >,</text>
    <text x="186" y="508" >:</text>
    <text x="50" y="524" >}</text>
    <text x="18" y="540" >}</text>
    <rect x="0" y="564" width="8" height="8" class="solid filled" rx="0"></rect>
    <line x1="4" y1="572" x2="4" y2="580" class="solid"></line>
    <line x1="16" y1="568" x2="32" y2="568" class="solid"></line>
    <text x="42" y="572" >TEST</text>
    <text x="82" y="572" >CONNECTIVITY</text>
    <line x1="184" y1="568" x2="472" y2="568" class="solid"></line>
    <rect x="0" y="580" width="8" height="8" class="solid filled" rx="0"></rect>
    <text x="18" y="588" >From</text>
    <text x="58" y="588" >inside</text>
    <text x="114" y="588" >one</text>
    <text x="146" y="588" >container,</text>
    <text x="234" y="588" >you</text>
    <text x="266" y="588" >can</text>
    <text x="298" y="588" >reach</text>
    <text x="346" y="588" >the</text>
    <text x="378" y="588" >other</text>
    <text x="426" y="588" >by</text>
    <text x="450" y="588" >name:</text>
    <text x="2" y="604" >docker</text>
    <text x="58" y="604" >exec</text>
    <text x="98" y="604" >api</text>
    <text x="130" y="604" >ping</text>
    <line x1="168" y1="600" x2="176" y2="600" class="solid"></line>
    <text x="178" y="604" >c</text>
    <text x="194" y="604" >2</text>
    <text x="210" y="604" >db</text>
    <text x="2" y="620" >#</text>
    <text x="18" y="620" >Output:</text>
    <text x="82" y="620" >PING</text>
    <text x="122" y="620" >db</text>
    <path d="M 152,608 A 16,16 0,0,0 152,624" class="nofill"></path>
    <text x="154" y="620" >172.18.0.3</text>
    <path d="M 232,608 A 16,16 0,0,1 232,624" class="nofill"></path>
    <text x="242" y="620" >:</text>
    <text x="258" y="620" >56</text>
    <text x="282" y="620" >data</text>
    <text x="322" y="620" >bytes</text>
    <text x="370" y="620" >...</text>
    <rect x="0" y="644" width="8" height="8" class="solid filled" rx="0"></rect>
    <line x1="4" y1="652" x2="4" y2="660" class="solid"></line>
    <line x1="16" y1="648" x2="32" y2="648" class="solid"></line>
    <text x="42" y="652" >CONNECT</text>
    <line x1="112" y1="640" x2="104" y2="656" class="solid"></line>
    <text x="122" y="652" >DISCONNECT</text>
    <line x1="208" y1="648" x2="472" y2="648" class="solid"></line>
    <rect x="0" y="660" width="8" height="8" class="solid filled" rx="0"></rect>
    <text x="18" y="668" >Connect</text>
    <text x="82" y="668" >a</text>
    <text x="98" y="668" >running</text>
    <text x="162" y="668" >container</text>
    <text x="242" y="668" >to</text>
    <text x="266" y="668" >an</text>
    <text x="290" y="668" >additional</text>
    <text x="378" y="668" >network:</text>
    <text x="2" y="684" >docker</text>
    <text x="58" y="684" >network</text>
    <text x="122" y="684" >connect</text>
    <text x="186" y="684" >mynet</text>
    <text x="234" y="684" >existing</text>
    <line x1="296" y1="680" x2="304" y2="680" class="solid"></line>
    <text x="306" y="684" >container</text>
    <text x="2" y="716" >#</text>
    <text x="18" y="716" >Disconnect</text>
    <text x="106" y="716" >a</text>
    <text x="2" y="732" >docker</text>
    <text x="58" y="732" >network</text>
    <text x="122" y="716" >container</text>
    <text x="202" y="716" >from</text>
    <text x="242" y="716" >a</text>
    <text x="122" y="732" >disconnect</text>
    <text x="210" y="732" >mynet</text>
    <text x="258" y="716" >network:</text>
    <text x="258" y="732" >existing</text>
    <line x1="320" y1="728" x2="328" y2="728" class="solid"></line>
    <text x="330" y="732" >container</text>
    <text x="2" y="764" >#</text>
    <line x1="16" y1="760" x2="32" y2="760" class="solid"></line>
    <text x="42" y="764" >LIST</text>
    <text x="82" y="764" >&amp;</text>
    <text x="98" y="764" >CLEANUP</text>
    <text x="2" y="780" >docker</text>
    <text x="58" y="780" >network</text>
    <text x="122" y="780" >ls</text>
    <text x="2" y="796" >docker</text>
    <text x="58" y="796" >network</text>
    <text x="122" y="796" >prune</text>
    <text x="2" y="812" >docker</text>
    <text x="58" y="812" >network</text>
    <text x="122" y="812" >rm</text>
    <text x="146" y="812" >mynet</text>
    <line x1="160" y1="760" x2="480" y2="760" class="solid"></line>
    <rect x="296" y="772" width="8" height="8" class="solid filled" rx="0"></rect>
    <line x1="300" y1="780" x2="300" y2="788" class="solid"></line>
    <text x="314" y="780" >list</text>
    <text x="354" y="780" >all</text>
    <text x="386" y="780" >networks</text>
    <rect x="296" y="788" width="8" height="8" class="solid filled" rx="0"></rect>
    <line x1="300" y1="796" x2="300" y2="804" class="solid"></line>
    <text x="314" y="796" >remove</text>
    <text x="370" y="796" >unused</text>
    <text x="426" y="796" >networks</text>
    <rect x="296" y="804" width="8" height="8" class="solid filled" rx="0"></rect>
    <text x="314" y="812" >remove</text>
    <text x="370" y="812" >a</text>
    <text x="386" y="812" >specific</text>
    <text x="458" y="812" >network</text>
    <text x="18" y="396" >Containers</text>
    <text x="50" y="412" >abc123</text>
    <text x="82" y="428" >Name</text>
    <text x="146" y="428" >api</text>
    <text x="82" y="444" >IPv4Address</text>
    <text x="202" y="444" >172.18.0.2/16</text>
    <text x="50" y="476" >def456</text>
    <text x="82" y="492" >Name</text>
    <text x="146" y="492" >db</text>
    <text x="82" y="508" >IPv4Address</text>
    <text x="202" y="508" >172.18.0.3/16</text>
    <g>
        <path d="M 376,232 A 8,8 0,0,0 370,236" class="nofill"></path>
        <line x1="370" y1="236" x2="368" y2="240" class="solid"></line>
        <path d="M 368,240 A 16,16 0,0,0 368,256" class="nofill"></path>
    </g>
</svg>