<svg xmlns="http://www.w3.org/2000/svg" width="792" height="192" style="background:#ffffff;border:1px solid #e5e5e5;border-radius:8px;max-width:100%;height:auto"><rect x="0" y="0" width="100%" height="100%" fill="#ffffff"/>
    <style>
        line, path, circle, rect, polygon{stroke:black;stroke-width:2;stroke-opacity:1;fill-opacity:1;stroke-linecap:round;stroke-linejoin:miter;}text{font-family:Iosevka Fixed, monospace;font-size:14px;}rect.backdrop{stroke:none;fill:transparent;}.broken{stroke-dasharray:8;}.filled{fill:black;}.bg_filled{fill:transparent;}.nofill{fill:transparent;}.end_marked_arrow{marker-end:url(#arrow);}.start_marked_arrow{marker-start:url(#arrow);}.end_marked_diamond{marker-end:url(#diamond);}.start_marked_diamond{marker-start:url(#diamond);}.end_marked_circle{marker-end:url(#circle);}.start_marked_circle{marker-start:url(#circle);}.end_marked_open_circle{marker-end:url(#open_circle);}.start_marked_open_circle{marker-start:url(#open_circle);}.end_marked_big_open_circle{marker-end:url(#big_open_circle);}.start_marked_big_open_circle{marker-start:url(#big_open_circle);}
        <!--separator-->
        
    </style>
    <defs>
        <marker id="arrow" viewBox="-2 -2 8 8" refX="4" refY="2" markerWidth="7" markerHeight="7" orient="auto-start-reverse">
            <polygon points="0,0 0,4 4,2 0,0"></polygon>
        </marker>
        <marker id="diamond" viewBox="-2 -2 8 8" refX="4" refY="2" markerWidth="7" markerHeight="7" orient="auto-start-reverse">
            <polygon points="0,2 2,0 4,2 2,4 0,2"></polygon>
        </marker>
        <marker id="circle" viewBox="0 0 8 8" refX="4" refY="4" markerWidth="7" markerHeight="7" orient="auto-start-reverse">
            <circle cx="4" cy="4" r="2" class="filled"></circle>
        </marker>
        <marker id="open_circle" viewBox="0 0 8 8" refX="4" refY="4" markerWidth="7" markerHeight="7" orient="auto-start-reverse">
            <circle cx="4" cy="4" r="2" class="bg_filled"></circle>
        </marker>
        <marker id="big_open_circle" viewBox="0 0 8 8" refX="4" refY="4" markerWidth="7" markerHeight="7" orient="auto-start-reverse">
            <circle cx="4" cy="4" r="3" class="bg_filled"></circle>
        </marker>
    </defs>
    <rect class="backdrop" x="0" y="0" width="792" height="192"></rect>
    <text x="2" y="12" >#</text>
    <line x1="16" y1="8" x2="32" y2="8" class="solid"></line>
    <text x="42" y="12" >Contexts</text>
    <line x1="112" y1="8" x2="544" y2="8" class="solid"></line>
    <text x="2" y="28" >kubectl</text>
    <text x="66" y="28" >config</text>
    <text x="122" y="28" >get</text>
    <line x1="144" y1="24" x2="152" y2="24" class="solid"></line>
    <text x="154" y="28" >contexts</text>
    <rect x="328" y="20" width="8" height="8" class="solid filled" rx="0"></rect>
    <line x1="332" y1="28" x2="332" y2="36" class="solid"></line>
    <text x="346" y="28" >List</text>
    <text x="386" y="28" >all</text>
    <text x="418" y="28" >configured</text>
    <text x="506" y="28" >clusters</text>
    <text x="578" y="28" >and</text>
    <text x="2" y="44" >kubectl</text>
    <text x="66" y="44" >config</text>
    <text x="122" y="44" >current</text>
    <line x1="176" y1="40" x2="184" y2="40" class="solid"></line>
    <text x="186" y="44" >context</text>
    <rect x="328" y="36" width="8" height="8" class="solid filled" rx="0"></rect>
    <line x1="332" y1="44" x2="332" y2="52" class="solid"></line>
    <text x="346" y="44" >Print</text>
    <text x="394" y="44" >the</text>
    <text x="426" y="44" >active</text>
    <text x="482" y="44" >context</text>
    <text x="546" y="44" >name</text>
    <text x="2" y="60" >kubectl</text>
    <text x="66" y="60" >config</text>
    <text x="122" y="60" >use</text>
    <line x1="144" y1="56" x2="152" y2="56" class="solid"></line>
    <text x="154" y="60" >context</text>
    <text x="218" y="60" >my</text>
    <line x1="232" y1="56" x2="240" y2="56" class="solid"></line>
    <text x="242" y="60" >cluster</text>
    <rect x="328" y="52" width="8" height="8" class="solid filled" rx="0"></rect>
    <text x="346" y="60" >Switch</text>
    <text x="402" y="60" >to</text>
    <text x="426" y="60" >a</text>
    <text x="442" y="60" >different</text>
    <text x="522" y="60" >cluster</text>
    <text x="2" y="76" >kubectl</text>
    <text x="66" y="76" >config</text>
    <text x="122" y="76" >set</text>
    <line x1="144" y1="72" x2="152" y2="72" class="solid"></line>
    <text x="154" y="76" >context</text>
    <line x1="216" y1="72" x2="232" y2="72" class="solid"></line>
    <text x="234" y="76" >current</text>
    <line x1="296" y1="72" x2="312" y2="72" class="solid"></line>
    <text x="314" y="76" >namespace</text>
    <line x1="384" y1="70" x2="392" y2="70" class="solid"></line>
    <line x1="384" y1="74" x2="392" y2="74" class="solid"></line>
    <text x="394" y="76" >production</text>
    <text x="490" y="76" >#</text>
    <text x="506" y="76" >Set</text>
    <text x="538" y="76" >default</text>
    <text x="610" y="28" >current</text>
    <text x="674" y="28" >context</text>
    <text x="602" y="76" >namespace</text>
    <text x="2" y="108" >#</text>
    <line x1="16" y1="104" x2="32" y2="104" class="solid"></line>
    <text x="42" y="108" >Cluster</text>
    <text x="106" y="108" >info</text>
    <line x1="144" y1="104" x2="544" y2="104" class="solid"></line>
    <text x="2" y="124" >kubectl</text>
    <text x="66" y="124" >cluster</text>
    <line x1="120" y1="120" x2="128" y2="120" class="solid"></line>
    <text x="130" y="124" >info</text>
    <rect x="328" y="116" width="8" height="8" class="solid filled" rx="0"></rect>
    <line x1="332" y1="124" x2="332" y2="132" class="solid"></line>
    <text x="346" y="124" >Show</text>
    <text x="386" y="124" >control</text>
    <text x="450" y="124" >plane</text>
    <text x="498" y="124" >and</text>
    <text x="530" y="124" >CoreDNS</text>
    <text x="594" y="124" >URLs</text>
    <text x="2" y="140" >kubectl</text>
    <text x="66" y="140" >get</text>
    <text x="98" y="140" >nodes</text>
    <rect x="328" y="132" width="8" height="8" class="solid filled" rx="0"></rect>
    <line x1="332" y1="140" x2="332" y2="148" class="solid"></line>
    <text x="346" y="140" >List</text>
    <text x="386" y="140" >all</text>
    <text x="418" y="140" >nodes</text>
    <text x="466" y="140" >with</text>
    <text x="506" y="140" >status</text>
    <text x="562" y="140" >and</text>
    <text x="594" y="140" >version</text>
    <text x="2" y="156" >kubectl</text>
    <text x="66" y="156" >get</text>
    <text x="98" y="156" >nodes</text>
    <rect x="328" y="148" width="8" height="8" class="solid filled" rx="0"></rect>
    <line x1="332" y1="156" x2="332" y2="164" class="solid"></line>
    <text x="346" y="156" >Add</text>
    <text x="378" y="156" >extra</text>
    <text x="426" y="156" >columns:</text>
    <text x="498" y="156" >IP,</text>
    <text x="530" y="156" >OS,</text>
    <text x="562" y="156" >container</text>
    <text x="642" y="156" >runtime</text>
    <text x="2" y="172" >kubectl</text>
    <text x="66" y="172" >top</text>
    <text x="98" y="172" >nodes</text>
    <rect x="328" y="164" width="8" height="8" class="solid filled" rx="0"></rect>
    <text x="346" y="172" >CPU</text>
    <text x="378" y="172" >and</text>
    <text x="410" y="172" >memory</text>
    <text x="466" y="172" >usage</text>
    <text x="514" y="172" >per</text>
    <text x="546" y="172" >node</text>
    <path d="M 592,160 A 16,16 0,0,0 592,176" class="nofill"></path>
    <text x="594" y="172" >requires</text>
    <text x="666" y="172" >metrics</text>
    <line x1="720" y1="168" x2="728" y2="168" class="solid"></line>
    <text x="730" y="172" >server</text>
    <path d="M 776,160 A 16,16 0,0,1 776,176" class="nofill"></path>
    <line x1="144" y1="152" x2="152" y2="152" class="solid"></line>
    <circle cx="156" cy="152" r="3" class="nofill"></circle>
    <text x="170" y="156" >wide</text>
</svg>