<svg xmlns="http://www.w3.org/2000/svg" width="712" height="496" style="background:#ffffff;border:1px solid #e5e5e5;border-radius:8px;max-width:100%;height:auto"><rect x="0" y="0" width="100%" height="100%" fill="#ffffff"/>
    <style>
        line, path, circle, rect, polygon{stroke:black;stroke-width:2;stroke-opacity:1;fill-opacity:1;stroke-linecap:round;stroke-linejoin:miter;}text{font-family:Iosevka Fixed, monospace;font-size:14px;}rect.backdrop{stroke:none;fill:transparent;}.broken{stroke-dasharray:8;}.filled{fill:black;}.bg_filled{fill:transparent;}.nofill{fill:transparent;}.end_marked_arrow{marker-end:url(#arrow);}.start_marked_arrow{marker-start:url(#arrow);}.end_marked_diamond{marker-end:url(#diamond);}.start_marked_diamond{marker-start:url(#diamond);}.end_marked_circle{marker-end:url(#circle);}.start_marked_circle{marker-start:url(#circle);}.end_marked_open_circle{marker-end:url(#open_circle);}.start_marked_open_circle{marker-start:url(#open_circle);}.end_marked_big_open_circle{marker-end:url(#big_open_circle);}.start_marked_big_open_circle{marker-start:url(#big_open_circle);}
        <!--separator-->
        
    </style>
    <defs>
        <marker id="arrow" viewBox="-2 -2 8 8" refX="4" refY="2" markerWidth="7" markerHeight="7" orient="auto-start-reverse">
            <polygon points="0,0 0,4 4,2 0,0"></polygon>
        </marker>
        <marker id="diamond" viewBox="-2 -2 8 8" refX="4" refY="2" markerWidth="7" markerHeight="7" orient="auto-start-reverse">
            <polygon points="0,2 2,0 4,2 2,4 0,2"></polygon>
        </marker>
        <marker id="circle" viewBox="0 0 8 8" refX="4" refY="4" markerWidth="7" markerHeight="7" orient="auto-start-reverse">
            <circle cx="4" cy="4" r="2" class="filled"></circle>
        </marker>
        <marker id="open_circle" viewBox="0 0 8 8" refX="4" refY="4" markerWidth="7" markerHeight="7" orient="auto-start-reverse">
            <circle cx="4" cy="4" r="2" class="bg_filled"></circle>
        </marker>
        <marker id="big_open_circle" viewBox="0 0 8 8" refX="4" refY="4" markerWidth="7" markerHeight="7" orient="auto-start-reverse">
            <circle cx="4" cy="4" r="3" class="bg_filled"></circle>
        </marker>
    </defs>
    <rect class="backdrop" x="0" y="0" width="712" height="496"></rect>
    <text x="2" y="12" >#</text>
    <line x1="16" y1="8" x2="32" y2="8" class="solid"></line>
    <text x="42" y="12" >Install</text>
    <text x="106" y="12" >Flux</text>
    <text x="146" y="12" >CLI</text>
    <line x1="176" y1="8" x2="544" y2="8" class="solid"></line>
    <text x="2" y="28" >brew</text>
    <text x="42" y="28" >install</text>
    <text x="106" y="28" >fluxcd</text>
    <text x="162" y="28" >tap</text>
    <line x1="192" y1="16" x2="184" y2="32" class="solid"></line>
    <text x="194" y="28" >flux</text>
    <text x="330" y="28" >#</text>
    <text x="346" y="28" >macOS</text>
    <text x="2" y="44" >#</text>
    <text x="18" y="44" >OR:</text>
    <text x="50" y="44" >curl</text>
    <line x1="88" y1="40" x2="96" y2="40" class="solid"></line>
    <text x="98" y="44" >s</text>
    <text x="114" y="44" >https:</text>
    <line x1="168" y1="32" x2="160" y2="48" class="solid"></line>
    <line x1="176" y1="32" x2="168" y2="48" class="solid"></line>
    <text x="178" y="44" >fluxcd.io</text>
    <line x1="256" y1="32" x2="248" y2="48" class="solid"></line>
    <text x="258" y="44" >install.sh</text>
    <line x1="348" y1="32" x2="348" y2="48" class="solid"></line>
    <text x="362" y="44" >sudo</text>
    <text x="402" y="44" >bash</text>
    <rect x="0" y="68" width="8" height="8" class="solid filled" rx="0"></rect>
    <line x1="4" y1="76" x2="4" y2="84" class="solid"></line>
    <line x1="16" y1="72" x2="32" y2="72" class="solid"></line>
    <text x="42" y="76" >Bootstrap</text>
    <text x="122" y="76" >Flux</text>
    <text x="162" y="76" >into</text>
    <text x="202" y="76" >your</text>
    <text x="242" y="76" >cluster</text>
    <line x1="304" y1="72" x2="536" y2="72" class="solid"></line>
    <rect x="0" y="84" width="8" height="8" class="solid filled" rx="0"></rect>
    <text x="18" y="92" >This</text>
    <text x="58" y="92" >installs</text>
    <text x="130" y="92" >Flux</text>
    <text x="170" y="92" >controllers</text>
    <text x="266" y="92" >and</text>
    <text x="298" y="92" >commits</text>
    <text x="362" y="92" >their</text>
    <text x="410" y="92" >manifests</text>
    <text x="490" y="92" >to</text>
    <text x="514" y="92" >your</text>
    <text x="2" y="108" >flux</text>
    <text x="42" y="108" >bootstrap</text>
    <text x="122" y="108" >github</text>
    <line x1="176" y1="96" x2="184" y2="112" class="solid"></line>
    <line x1="16" y1="120" x2="32" y2="120" class="solid"></line>
    <circle cx="36" cy="120" r="3" class="nofill"></circle>
    <text x="42" y="124" >wner</text>
    <line x1="72" y1="118" x2="80" y2="118" class="solid"></line>
    <line x1="72" y1="122" x2="80" y2="122" class="solid"></line>
    <text x="82" y="124" >myorg</text>
    <line x1="128" y1="112" x2="136" y2="128" class="solid"></line>
    <line x1="16" y1="136" x2="32" y2="136" class="solid"></line>
    <text x="34" y="140" >repository</text>
    <line x1="112" y1="134" x2="120" y2="134" class="solid"></line>
    <line x1="112" y1="138" x2="120" y2="138" class="solid"></line>
    <text x="122" y="140" >fleet</text>
    <line x1="160" y1="136" x2="168" y2="136" class="solid"></line>
    <text x="170" y="140" >infra</text>
    <line x1="16" y1="152" x2="32" y2="152" class="solid"></line>
    <text x="34" y="156" >branch</text>
    <line x1="80" y1="150" x2="88" y2="150" class="solid"></line>
    <line x1="80" y1="154" x2="88" y2="154" class="solid"></line>
    <text x="90" y="156" >main</text>
    <line x1="128" y1="144" x2="136" y2="160" class="solid"></line>
    <line x1="16" y1="168" x2="32" y2="168" class="solid"></line>
    <text x="34" y="172" >path</text>
    <line x1="64" y1="166" x2="72" y2="166" class="solid"></line>
    <line x1="64" y1="170" x2="72" y2="170" class="solid"></line>
    <text x="74" y="172" >clusters</text>
    <line x1="144" y1="160" x2="136" y2="176" class="solid"></line>
    <text x="146" y="172" >production</text>
    <line x1="16" y1="184" x2="32" y2="184" class="solid"></line>
    <text x="34" y="188" >personal</text>
    <text x="554" y="92" >Git</text>
    <text x="586" y="92" >repo</text>
    <rect x="328" y="116" width="8" height="8" class="solid filled" rx="0"></rect>
    <line x1="332" y1="124" x2="332" y2="132" class="solid"></line>
    <rect x="328" y="132" width="8" height="8" class="solid filled" rx="0"></rect>
    <text x="346" y="124" >GitHub</text>
    <text x="402" y="124" >organization</text>
    <text x="506" y="124" >or</text>
    <text x="346" y="140" >Repo</text>
    <text x="386" y="140" >where</text>
    <text x="434" y="140" >Flux</text>
    <text x="474" y="140" >stores</text>
    <text x="530" y="124" >user</text>
    <text x="530" y="140" >its</text>
    <text x="562" y="140" >own</text>
    <line x1="216" y1="128" x2="224" y2="144" class="solid"></line>
    <text x="594" y="140" >config</text>
    <line x1="232" y1="160" x2="240" y2="176" class="solid"></line>
    <rect x="328" y="164" width="8" height="8" class="solid filled" rx="0"></rect>
    <line x1="332" y1="172" x2="332" y2="180" class="solid"></line>
    <rect x="328" y="180" width="8" height="8" class="solid filled" rx="0"></rect>
    <text x="346" y="172" >Path</text>
    <text x="386" y="172" >within</text>
    <text x="442" y="172" >the</text>
    <text x="474" y="172" >repo</text>
    <text x="514" y="172" >for</text>
    <text x="546" y="172" >this</text>
    <text x="586" y="172" >cluster</text>
    <text x="346" y="188" >Use</text>
    <text x="378" y="188" >a</text>
    <text x="394" y="188" >personal</text>
    <text x="466" y="188" >access</text>
    <text x="522" y="188" >token</text>
    <path d="M 576,176 A 16,16 0,0,0 576,192" class="nofill"></path>
    <text x="578" y="188" >vs.</text>
    <text x="610" y="188" >deploy</text>
    <text x="666" y="188" >key</text>
    <path d="M 688,176 A 16,16 0,0,1 688,192" class="nofill"></path>
    <text x="2" y="220" >#</text>
    <line x1="16" y1="216" x2="32" y2="216" class="solid"></line>
    <text x="42" y="220" >Define</text>
    <text x="98" y="220" >a</text>
    <text x="114" y="220" >GitRepository</text>
    <text x="226" y="220" >source</text>
    <line x1="280" y1="216" x2="544" y2="216" class="solid"></line>
    <text x="2" y="236" >flux</text>
    <text x="42" y="236" >create</text>
    <text x="98" y="236" >s</text>
    <circle cx="108" cy="232" r="3" class="nofill"></circle>
    <line x1="108" y1="236" x2="108" y2="240" class="solid"></line>
    <text x="114" y="236" >urce</text>
    <text x="154" y="236" >git</text>
    <text x="186" y="236" >api</text>
    <line x1="208" y1="232" x2="216" y2="232" class="solid"></line>
    <text x="218" y="236" >server</text>
    <line x1="272" y1="224" x2="280" y2="240" class="solid"></line>
    <line x1="16" y1="248" x2="32" y2="248" class="solid"></line>
    <text x="34" y="252" >url</text>
    <line x1="56" y1="246" x2="64" y2="246" class="solid"></line>
    <line x1="56" y1="250" x2="64" y2="250" class="solid"></line>
    <text x="66" y="252" >https:</text>
    <line x1="120" y1="240" x2="112" y2="256" class="solid"></line>
    <line x1="128" y1="240" x2="120" y2="256" class="solid"></line>
    <text x="130" y="252" >github.com</text>
    <line x1="216" y1="240" x2="208" y2="256" class="solid"></line>
    <text x="218" y="252" >myorg</text>
    <line x1="264" y1="240" x2="256" y2="256" class="solid"></line>
    <text x="266" y="252" >k8s</text>
    <line x1="288" y1="248" x2="296" y2="248" class="solid"></line>
    <text x="298" y="252" >manifests</text>
    <line x1="16" y1="264" x2="32" y2="264" class="solid"></line>
    <text x="34" y="268" >branch</text>
    <line x1="80" y1="262" x2="88" y2="262" class="solid"></line>
    <line x1="80" y1="266" x2="88" y2="266" class="solid"></line>
    <text x="90" y="268" >main</text>
    <line x1="128" y1="256" x2="136" y2="272" class="solid"></line>
    <line x1="16" y1="280" x2="32" y2="280" class="solid"></line>
    <text x="34" y="284" >interval</text>
    <line x1="96" y1="278" x2="104" y2="278" class="solid"></line>
    <line x1="96" y1="282" x2="104" y2="282" class="solid"></line>
    <text x="106" y="284" >1m</text>
    <line x1="376" y1="240" x2="384" y2="256" class="solid"></line>
    <text x="330" y="284" >#</text>
    <text x="346" y="284" >Poll</text>
    <text x="386" y="284" >Git</text>
    <text x="418" y="284" >every</text>
    <text x="466" y="284" >1</text>
    <text x="482" y="284" >minute</text>
    <text x="538" y="284" >for</text>
    <text x="570" y="284" >changes</text>
    <text x="2" y="316" >#</text>
    <line x1="16" y1="312" x2="32" y2="312" class="solid"></line>
    <text x="42" y="316" >Define</text>
    <text x="98" y="316" >a</text>
    <text x="114" y="316" >Kustomization</text>
    <path d="M 232,304 A 16,16 0,0,0 232,320" class="nofill"></path>
    <text x="234" y="316" >what</text>
    <text x="274" y="316" >to</text>
    <text x="2" y="332" >flux</text>
    <text x="42" y="332" >create</text>
    <text x="98" y="332" >kustomization</text>
    <text x="210" y="332" >api</text>
    <line x1="232" y1="328" x2="240" y2="328" class="solid"></line>
    <text x="242" y="332" >server</text>
    <line x1="16" y1="344" x2="32" y2="344" class="solid"></line>
    <text x="34" y="348" >source</text>
    <line x1="80" y1="342" x2="88" y2="342" class="solid"></line>
    <line x1="80" y1="346" x2="88" y2="346" class="solid"></line>
    <text x="90" y="348" >api</text>
    <line x1="112" y1="344" x2="120" y2="344" class="solid"></line>
    <text x="122" y="348" >server</text>
    <line x1="176" y1="336" x2="184" y2="352" class="solid"></line>
    <line x1="16" y1="360" x2="32" y2="360" class="solid"></line>
    <text x="34" y="364" >path</text>
    <line x1="64" y1="358" x2="72" y2="358" class="solid"></line>
    <line x1="64" y1="362" x2="72" y2="362" class="solid"></line>
    <line x1="16" y1="376" x2="32" y2="376" class="solid"></line>
    <text x="34" y="380" >prune</text>
    <line x1="72" y1="374" x2="80" y2="374" class="solid"></line>
    <line x1="72" y1="378" x2="80" y2="378" class="solid"></line>
    <text x="82" y="380" >true</text>
    <line x1="120" y1="368" x2="128" y2="384" class="solid"></line>
    <line x1="16" y1="392" x2="32" y2="392" class="solid"></line>
    <text x="34" y="396" >interval</text>
    <line x1="96" y1="390" x2="104" y2="390" class="solid"></line>
    <line x1="96" y1="394" x2="104" y2="394" class="solid"></line>
    <text x="106" y="396" >5m</text>
    <text x="298" y="316" >deploy</text>
    <line x1="296" y1="320" x2="304" y2="336" class="solid"></line>
    <text x="354" y="316" >from</text>
    <text x="394" y="316" >that</text>
    <text x="434" y="316" >source</text>
    <path d="M 480,304 A 16,16 0,0,1 480,320" class="nofill"></path>
    <line x1="496" y1="312" x2="544" y2="312" class="solid"></line>
    <text x="330" y="348" >#</text>
    <rect x="328" y="372" width="8" height="8" class="solid filled" rx="0"></rect>
    <rect x="328" y="388" width="8" height="8" class="solid filled" rx="0"></rect>
    <text x="346" y="348" >Reference</text>
    <text x="426" y="348" >the</text>
    <text x="458" y="348" >GitRepository</text>
    <text x="346" y="364" >#</text>
    <text x="362" y="364" >Path</text>
    <text x="402" y="364" >within</text>
    <text x="458" y="364" >the</text>
    <text x="490" y="364" >repo</text>
    <text x="346" y="380" >Remove</text>
    <text x="402" y="380" >resources</text>
    <text x="482" y="380" >deleted</text>
    <text x="546" y="380" >from</text>
    <text x="346" y="396" >Reconcile</text>
    <text x="426" y="396" >every</text>
    <text x="474" y="396" >5</text>
    <text x="490" y="396" >minutes</text>
    <text x="570" y="348" >created</text>
    <text x="634" y="348" >above</text>
    <text x="586" y="380" >Git</text>
    <text x="2" y="428" >#</text>
    <line x1="16" y1="424" x2="32" y2="424" class="solid"></line>
    <text x="2" y="444" >flux</text>
    <text x="2" y="460" >flux</text>
    <text x="2" y="476" >flux</text>
    <text x="42" y="428" >Check</text>
    <text x="90" y="428" >status</text>
    <line x1="144" y1="424" x2="544" y2="424" class="solid"></line>
    <text x="42" y="444" >get</text>
    <text x="74" y="444" >kustomizations</text>
    <rect x="328" y="436" width="8" height="8" class="solid filled" rx="0"></rect>
    <line x1="332" y1="444" x2="332" y2="452" class="solid"></line>
    <text x="346" y="444" >List</text>
    <text x="386" y="444" >all</text>
    <text x="418" y="444" >Kustomizations</text>
    <text x="538" y="444" >and</text>
    <text x="570" y="444" >their</text>
    <text x="618" y="444" >sync</text>
    <text x="658" y="444" >status</text>
    <text x="42" y="460" >get</text>
    <text x="74" y="460" >sources</text>
    <text x="138" y="460" >git</text>
    <rect x="328" y="452" width="8" height="8" class="solid filled" rx="0"></rect>
    <line x1="332" y1="460" x2="332" y2="468" class="solid"></line>
    <text x="346" y="460" >List</text>
    <text x="386" y="460" >all</text>
    <text x="418" y="460" >Git</text>
    <text x="450" y="460" >sources</text>
    <text x="514" y="460" >and</text>
    <text x="546" y="460" >last</text>
    <text x="586" y="460" >fetch</text>
    <text x="634" y="460" >time</text>
    <text x="42" y="476" >logs</text>
    <rect x="328" y="468" width="8" height="8" class="solid filled" rx="0"></rect>
    <text x="346" y="476" >View</text>
    <text x="386" y="476" >Flux</text>
    <text x="426" y="476" >controller</text>
    <text x="514" y="476" >logs</text>
    <text x="74" y="364" >./apps/api-server/production</text>
    <g>
        <line x1="160" y1="16" x2="156" y2="24" class="solid"></line>
        <line x1="156" y1="24" x2="156" y2="32" class="solid"></line>
    </g>
    <g>
        <line x1="320" y1="352" x2="330" y2="372" class="solid"></line>
        <polygon points="334.8,380 334.8,372 329.2,372 329.2,380" class="filled"></polygon>
        <line x1="332" y1="380" x2="332" y2="388" class="solid"></line>
    </g>
</svg>