<svg xmlns="http://www.w3.org/2000/svg" width="880" height="352" style="background:#ffffff;border:1px solid #e5e5e5;border-radius:8px;max-width:100%;height:auto"><rect x="0" y="0" width="100%" height="100%" fill="#ffffff"/>
    <style>
        line, path, circle, rect, polygon{stroke:black;stroke-width:2;stroke-opacity:1;fill-opacity:1;stroke-linecap:round;stroke-linejoin:miter;}text{font-family:Iosevka Fixed, monospace;font-size:14px;}rect.backdrop{stroke:none;fill:transparent;}.broken{stroke-dasharray:8;}.filled{fill:black;}.bg_filled{fill:transparent;}.nofill{fill:transparent;}.end_marked_arrow{marker-end:url(#arrow);}.start_marked_arrow{marker-start:url(#arrow);}.end_marked_diamond{marker-end:url(#diamond);}.start_marked_diamond{marker-start:url(#diamond);}.end_marked_circle{marker-end:url(#circle);}.start_marked_circle{marker-start:url(#circle);}.end_marked_open_circle{marker-end:url(#open_circle);}.start_marked_open_circle{marker-start:url(#open_circle);}.end_marked_big_open_circle{marker-end:url(#big_open_circle);}.start_marked_big_open_circle{marker-start:url(#big_open_circle);}
        <!--separator-->
        
    </style>
    <defs>
        <marker id="arrow" viewBox="-2 -2 8 8" refX="4" refY="2" markerWidth="7" markerHeight="7" orient="auto-start-reverse">
            <polygon points="0,0 0,4 4,2 0,0"></polygon>
        </marker>
        <marker id="diamond" viewBox="-2 -2 8 8" refX="4" refY="2" markerWidth="7" markerHeight="7" orient="auto-start-reverse">
            <polygon points="0,2 2,0 4,2 2,4 0,2"></polygon>
        </marker>
        <marker id="circle" viewBox="0 0 8 8" refX="4" refY="4" markerWidth="7" markerHeight="7" orient="auto-start-reverse">
            <circle cx="4" cy="4" r="2" class="filled"></circle>
        </marker>
        <marker id="open_circle" viewBox="0 0 8 8" refX="4" refY="4" markerWidth="7" markerHeight="7" orient="auto-start-reverse">
            <circle cx="4" cy="4" r="2" class="bg_filled"></circle>
        </marker>
        <marker id="big_open_circle" viewBox="0 0 8 8" refX="4" refY="4" markerWidth="7" markerHeight="7" orient="auto-start-reverse">
            <circle cx="4" cy="4" r="3" class="bg_filled"></circle>
        </marker>
    </defs>
    <rect class="backdrop" x="0" y="0" width="880" height="352"></rect>
    <text x="2" y="12" >#</text>
    <line x1="16" y1="8" x2="32" y2="8" class="solid"></line>
    <text x="42" y="12" >Logs</text>
    <line x1="80" y1="8" x2="544" y2="8" class="solid"></line>
    <text x="2" y="28" >kubectl</text>
    <text x="66" y="28" >logs</text>
    <text x="106" y="28" >api</text>
    <line x1="128" y1="24" x2="136" y2="24" class="solid"></line>
    <text x="138" y="28" >server</text>
    <line x1="184" y1="24" x2="192" y2="24" class="solid"></line>
    <text x="194" y="28" >7d4f8b6c9f</text>
    <line x1="272" y1="24" x2="280" y2="24" class="solid"></line>
    <text x="282" y="28" >abc12</text>
    <rect x="416" y="20" width="8" height="8" class="solid filled" rx="0"></rect>
    <line x1="420" y1="28" x2="420" y2="36" class="solid"></line>
    <text x="434" y="28" >Print</text>
    <text x="482" y="28" >logs</text>
    <text x="522" y="28" >from</text>
    <text x="562" y="28" >a</text>
    <text x="578" y="28" >Pod</text>
    <text x="2" y="44" >kubectl</text>
    <text x="66" y="44" >logs</text>
    <text x="106" y="44" >api</text>
    <line x1="128" y1="40" x2="136" y2="40" class="solid"></line>
    <text x="138" y="44" >server</text>
    <line x1="184" y1="40" x2="192" y2="40" class="solid"></line>
    <text x="194" y="44" >7d4f8b6c9f</text>
    <line x1="272" y1="40" x2="280" y2="40" class="solid"></line>
    <text x="282" y="44" >abc12</text>
    <line x1="328" y1="40" x2="336" y2="40" class="solid"></line>
    <text x="338" y="44" >c</text>
    <text x="354" y="44" >api</text>
    <rect x="416" y="36" width="8" height="8" class="solid filled" rx="0"></rect>
    <text x="434" y="44" >Logs</text>
    <text x="474" y="44" >from</text>
    <text x="514" y="44" >a</text>
    <text x="530" y="44" >specific</text>
    <text x="602" y="44" >container</text>
    <text x="2" y="60" >kubectl</text>
    <text x="66" y="60" >logs</text>
    <text x="106" y="60" >api</text>
    <line x1="128" y1="56" x2="136" y2="56" class="solid"></line>
    <text x="138" y="60" >server</text>
    <line x1="184" y1="56" x2="192" y2="56" class="solid"></line>
    <text x="194" y="60" >7d4f8b6c9f</text>
    <line x1="272" y1="56" x2="280" y2="56" class="solid"></line>
    <text x="282" y="60" >abc12</text>
    <line x1="328" y1="56" x2="344" y2="56" class="solid"></line>
    <text x="346" y="60" >tail</text>
    <line x1="376" y1="54" x2="384" y2="54" class="solid"></line>
    <line x1="376" y1="58" x2="384" y2="58" class="solid"></line>
    <text x="386" y="60" >100</text>
    <rect x="424" y="52" width="8" height="8" class="solid filled" rx="0"></rect>
    <line x1="428" y1="60" x2="428" y2="68" class="solid"></line>
    <text x="442" y="60" >Last</text>
    <text x="482" y="60" >100</text>
    <text x="514" y="60" >lines</text>
    <text x="562" y="60" >only</text>
    <text x="2" y="76" >kubectl</text>
    <text x="66" y="76" >logs</text>
    <text x="106" y="76" >api</text>
    <line x1="128" y1="72" x2="136" y2="72" class="solid"></line>
    <text x="138" y="76" >server</text>
    <line x1="184" y1="72" x2="192" y2="72" class="solid"></line>
    <text x="194" y="76" >7d4f8b6c9f</text>
    <line x1="272" y1="72" x2="280" y2="72" class="solid"></line>
    <text x="282" y="76" >abc12</text>
    <line x1="328" y1="72" x2="336" y2="72" class="solid"></line>
    <text x="338" y="76" >f</text>
    <rect x="424" y="68" width="8" height="8" class="solid filled" rx="0"></rect>
    <text x="442" y="76" >Stream</text>
    <text x="498" y="76" >logs</text>
    <text x="538" y="76" >in</text>
    <text x="562" y="76" >real</text>
    <line x1="592" y1="72" x2="600" y2="72" class="solid"></line>
    <text x="602" y="76" >time</text>
    <path d="M 648,64 A 16,16 0,0,0 648,80" class="nofill"></path>
    <text x="650" y="76" >like</text>
    <text x="690" y="76" >tail</text>
    <line x1="728" y1="72" x2="736" y2="72" class="solid"></line>
    <text x="738" y="76" >f</text>
    <path d="M 744,64 A 16,16 0,0,1 744,80" class="nofill"></path>
    <text x="2" y="92" >kubectl</text>
    <text x="66" y="92" >logs</text>
    <line x1="104" y1="88" x2="112" y2="88" class="solid"></line>
    <text x="114" y="92" >l</text>
    <text x="130" y="92" >app</text>
    <line x1="152" y1="86" x2="160" y2="86" class="solid"></line>
    <line x1="152" y1="90" x2="160" y2="90" class="solid"></line>
    <text x="162" y="92" >api</text>
    <line x1="184" y1="88" x2="192" y2="88" class="solid"></line>
    <text x="194" y="92" >server</text>
    <line x1="248" y1="88" x2="264" y2="88" class="solid"></line>
    <text x="266" y="92" >all</text>
    <line x1="288" y1="88" x2="296" y2="88" class="solid"></line>
    <text x="298" y="92" >containers</text>
    <rect x="432" y="84" width="8" height="8" class="solid filled" rx="0"></rect>
    <line x1="436" y1="92" x2="436" y2="100" class="solid"></line>
    <text x="450" y="92" >Logs</text>
    <text x="490" y="92" >from</text>
    <text x="530" y="92" >ALL</text>
    <text x="562" y="92" >Pods</text>
    <text x="602" y="92" >matching</text>
    <text x="674" y="92" >a</text>
    <text x="690" y="92" >label</text>
    <text x="2" y="108" >kubectl</text>
    <text x="66" y="108" >logs</text>
    <text x="106" y="108" >api</text>
    <line x1="128" y1="104" x2="136" y2="104" class="solid"></line>
    <text x="138" y="108" >server</text>
    <line x1="184" y1="104" x2="192" y2="104" class="solid"></line>
    <text x="194" y="108" >7d4f8b6c9f</text>
    <line x1="272" y1="104" x2="280" y2="104" class="solid"></line>
    <text x="282" y="108" >abc12</text>
    <line x1="328" y1="104" x2="344" y2="104" class="solid"></line>
    <text x="346" y="108" >previous</text>
    <rect x="432" y="100" width="8" height="8" class="solid filled" rx="0"></rect>
    <text x="450" y="108" >Logs</text>
    <text x="490" y="108" >from</text>
    <text x="530" y="108" >the</text>
    <text x="562" y="108" >previous</text>
    <path d="M 640,96 A 16,16 0,0,0 640,112" class="nofill"></path>
    <text x="642" y="108" >crashed</text>
    <path d="M 696,96 A 16,16 0,0,1 696,112" class="nofill"></path>
    <text x="714" y="108" >container</text>
    <text x="682" y="44" >in</text>
    <text x="706" y="44" >a</text>
    <text x="722" y="44" >multi</text>
    <line x1="760" y1="40" x2="768" y2="40" class="solid"></line>
    <text x="770" y="44" >container</text>
    <text x="850" y="44" >Pod</text>
    <text x="794" y="108" >instance</text>
    <text x="2" y="140" >#</text>
    <line x1="16" y1="136" x2="32" y2="136" class="solid"></line>
    <text x="42" y="140" >Exec</text>
    <path d="M 88,128 A 16,16 0,0,0 88,144" class="nofill"></path>
    <text x="90" y="140" >run</text>
    <text x="122" y="140" >commands</text>
    <text x="194" y="140" >inside</text>
    <text x="250" y="140" >a</text>
    <text x="266" y="140" >container</text>
    <path d="M 336,128 A 16,16 0,0,1 336,144" class="nofill"></path>
    <line x1="352" y1="136" x2="544" y2="136" class="solid"></line>
    <text x="2" y="156" >kubectl</text>
    <text x="66" y="156" >exec</text>
    <line x1="104" y1="152" x2="112" y2="152" class="solid"></line>
    <text x="114" y="156" >it</text>
    <text x="138" y="156" >api</text>
    <line x1="160" y1="152" x2="168" y2="152" class="solid"></line>
    <text x="170" y="156" >server</text>
    <line x1="216" y1="152" x2="224" y2="152" class="solid"></line>
    <text x="226" y="156" >7d4f8b6c9f</text>
    <line x1="304" y1="152" x2="312" y2="152" class="solid"></line>
    <text x="314" y="156" >abc12</text>
    <line x1="360" y1="152" x2="376" y2="152" class="solid"></line>
    <line x1="392" y1="144" x2="384" y2="160" class="solid"></line>
    <text x="394" y="156" >bin</text>
    <line x1="424" y1="144" x2="416" y2="160" class="solid"></line>
    <text x="426" y="156" >sh</text>
    <text x="466" y="156" >#</text>
    <text x="482" y="156" >Open</text>
    <text x="522" y="156" >a</text>
    <text x="538" y="156" >shell</text>
    <text x="586" y="156" >inside</text>
    <text x="642" y="156" >the</text>
    <text x="674" y="156" >container</text>
    <text x="2" y="172" >kubectl</text>
    <text x="66" y="172" >exec</text>
    <text x="106" y="172" >api</text>
    <line x1="128" y1="168" x2="136" y2="168" class="solid"></line>
    <text x="138" y="172" >server</text>
    <line x1="184" y1="168" x2="192" y2="168" class="solid"></line>
    <text x="194" y="172" >7d4f8b6c9f</text>
    <line x1="272" y1="168" x2="280" y2="168" class="solid"></line>
    <text x="282" y="172" >abc12</text>
    <line x1="328" y1="168" x2="344" y2="168" class="solid"></line>
    <text x="354" y="172" >env</text>
    <text x="474" y="172" >#</text>
    <text x="490" y="172" >Print</text>
    <text x="538" y="172" >environment</text>
    <text x="634" y="172" >variables</text>
    <text x="2" y="188" >kubectl</text>
    <text x="66" y="188" >exec</text>
    <text x="106" y="188" >api</text>
    <line x1="128" y1="184" x2="136" y2="184" class="solid"></line>
    <text x="138" y="188" >server</text>
    <line x1="184" y1="184" x2="192" y2="184" class="solid"></line>
    <text x="194" y="188" >7d4f8b6c9f</text>
    <line x1="272" y1="184" x2="280" y2="184" class="solid"></line>
    <text x="282" y="188" >abc12</text>
    <line x1="328" y1="184" x2="344" y2="184" class="solid"></line>
    <text x="354" y="188" >cat</text>
    <line x1="392" y1="176" x2="384" y2="192" class="solid"></line>
    <text x="394" y="188" >etc</text>
    <line x1="424" y1="176" x2="416" y2="192" class="solid"></line>
    <text x="426" y="188" >resolv.conf</text>
    <text x="530" y="188" >#</text>
    <text x="546" y="188" >Check</text>
    <text x="594" y="188" >DNS</text>
    <text x="626" y="188" >configuration</text>
    <text x="2" y="220" >#</text>
    <line x1="16" y1="216" x2="32" y2="216" class="solid"></line>
    <text x="42" y="220" >Port</text>
    <text x="82" y="220" >forwarding</text>
    <line x1="168" y1="216" x2="544" y2="216" class="solid"></line>
    <text x="2" y="236" >kubectl</text>
    <text x="66" y="236" >port</text>
    <line x1="96" y1="232" x2="104" y2="232" class="solid"></line>
    <text x="106" y="236" >forward</text>
    <text x="170" y="236" >pod</text>
    <line x1="200" y1="224" x2="192" y2="240" class="solid"></line>
    <text x="202" y="236" >api</text>
    <line x1="224" y1="232" x2="232" y2="232" class="solid"></line>
    <text x="234" y="236" >server</text>
    <line x1="280" y1="232" x2="288" y2="232" class="solid"></line>
    <text x="290" y="236" >7d4f8b6c9f</text>
    <line x1="368" y1="232" x2="376" y2="232" class="solid"></line>
    <text x="378" y="236" >abc12</text>
    <text x="426" y="236" >8080:8080</text>
    <text x="514" y="236" >#</text>
    <text x="530" y="236" >Forward</text>
    <text x="594" y="236" >local</text>
    <text x="642" y="236" >8080</text>
    <text x="682" y="236" >to</text>
    <text x="706" y="236" >Pod</text>
    <text x="738" y="236" >8080</text>
    <text x="2" y="252" >kubectl</text>
    <text x="66" y="252" >port</text>
    <line x1="96" y1="248" x2="104" y2="248" class="solid"></line>
    <text x="106" y="252" >forward</text>
    <text x="170" y="252" >svc</text>
    <line x1="200" y1="240" x2="192" y2="256" class="solid"></line>
    <text x="202" y="252" >api</text>
    <line x1="224" y1="248" x2="232" y2="248" class="solid"></line>
    <text x="234" y="252" >service</text>
    <text x="298" y="252" >8080:80</text>
    <text x="522" y="252" >#</text>
    <text x="538" y="252" >Forward</text>
    <text x="602" y="252" >local</text>
    <text x="650" y="252" >8080</text>
    <text x="690" y="252" >to</text>
    <text x="714" y="252" >Service</text>
    <text x="2" y="268" >#</text>
    <text x="18" y="268" >Now</text>
    <text x="50" y="268" >visit</text>
    <text x="98" y="268" >http:</text>
    <line x1="144" y1="256" x2="136" y2="272" class="solid"></line>
    <line x1="152" y1="256" x2="144" y2="272" class="solid"></line>
    <text x="154" y="268" >localhost:8080</text>
    <text x="274" y="268" >in</text>
    <text x="298" y="268" >your</text>
    <text x="338" y="268" >browser</text>
    <text x="778" y="252" >port</text>
    <text x="818" y="252" >80</text>
    <text x="2" y="300" >#</text>
    <line x1="16" y1="296" x2="32" y2="296" class="solid"></line>
    <text x="42" y="300" >Debug</text>
    <path d="M 96,288 A 16,16 0,0,0 96,304" class="nofill"></path>
    <text x="98" y="300" >ephemeral</text>
    <text x="178" y="300" >debug</text>
    <text x="226" y="300" >containers,</text>
    <text x="322" y="300" >K8s</text>
    <text x="354" y="300" >1.25+</text>
    <path d="M 392,288 A 16,16 0,0,1 392,304" class="nofill"></path>
    <line x1="408" y1="296" x2="536" y2="296" class="solid"></line>
    <text x="2" y="316" >kubectl</text>
    <text x="66" y="316" >debug</text>
    <line x1="112" y1="312" x2="120" y2="312" class="solid"></line>
    <text x="122" y="316" >it</text>
    <text x="146" y="316" >api</text>
    <line x1="168" y1="312" x2="176" y2="312" class="solid"></line>
    <text x="178" y="316" >server</text>
    <line x1="224" y1="312" x2="232" y2="312" class="solid"></line>
    <text x="234" y="316" >7d4f8b6c9f</text>
    <line x1="312" y1="312" x2="320" y2="312" class="solid"></line>
    <text x="322" y="316" >abc12</text>
    <line x1="368" y1="312" x2="384" y2="312" class="solid"></line>
    <text x="386" y="316" >image</text>
    <line x1="424" y1="310" x2="432" y2="310" class="solid"></line>
    <line x1="424" y1="314" x2="432" y2="314" class="solid"></line>
    <text x="434" y="316" >busybox</text>
    <line x1="496" y1="312" x2="512" y2="312" class="solid"></line>
    <text x="514" y="316" >target</text>
    <line x1="560" y1="310" x2="568" y2="310" class="solid"></line>
    <line x1="560" y1="314" x2="568" y2="314" class="solid"></line>
    <text x="570" y="316" >api</text>
    <text x="2" y="332" >#</text>
    <text x="18" y="332" >Attaches</text>
    <text x="90" y="332" >a</text>
    <text x="106" y="332" >busybox</text>
    <text x="170" y="332" >container</text>
    <text x="250" y="332" >to</text>
    <text x="274" y="332" >the</text>
    <text x="306" y="332" >running</text>
    <text x="370" y="332" >Pod</text>
    <text x="402" y="332" >for</text>
    <text x="434" y="332" >debugging</text>
</svg>