<svg xmlns="http://www.w3.org/2000/svg" width="592" height="256" style="background:#ffffff;border:1px solid #e5e5e5;border-radius:8px;max-width:100%;height:auto"><rect x="0" y="0" width="100%" height="100%" fill="#ffffff"/>
    <style>
        line, path, circle, rect, polygon{stroke:black;stroke-width:2;stroke-opacity:1;fill-opacity:1;stroke-linecap:round;stroke-linejoin:miter;}text{font-family:Iosevka Fixed, monospace;font-size:14px;}rect.backdrop{stroke:none;fill:transparent;}.broken{stroke-dasharray:8;}.filled{fill:black;}.bg_filled{fill:transparent;}.nofill{fill:transparent;}.end_marked_arrow{marker-end:url(#arrow);}.start_marked_arrow{marker-start:url(#arrow);}.end_marked_diamond{marker-end:url(#diamond);}.start_marked_diamond{marker-start:url(#diamond);}.end_marked_circle{marker-end:url(#circle);}.start_marked_circle{marker-start:url(#circle);}.end_marked_open_circle{marker-end:url(#open_circle);}.start_marked_open_circle{marker-start:url(#open_circle);}.end_marked_big_open_circle{marker-end:url(#big_open_circle);}.start_marked_big_open_circle{marker-start:url(#big_open_circle);}
        <!--separator-->
        
    </style>
    <defs>
        <marker id="arrow" viewBox="-2 -2 8 8" refX="4" refY="2" markerWidth="7" markerHeight="7" orient="auto-start-reverse">
            <polygon points="0,0 0,4 4,2 0,0"></polygon>
        </marker>
        <marker id="diamond" viewBox="-2 -2 8 8" refX="4" refY="2" markerWidth="7" markerHeight="7" orient="auto-start-reverse">
            <polygon points="0,2 2,0 4,2 2,4 0,2"></polygon>
        </marker>
        <marker id="circle" viewBox="0 0 8 8" refX="4" refY="4" markerWidth="7" markerHeight="7" orient="auto-start-reverse">
            <circle cx="4" cy="4" r="2" class="filled"></circle>
        </marker>
        <marker id="open_circle" viewBox="0 0 8 8" refX="4" refY="4" markerWidth="7" markerHeight="7" orient="auto-start-reverse">
            <circle cx="4" cy="4" r="2" class="bg_filled"></circle>
        </marker>
        <marker id="big_open_circle" viewBox="0 0 8 8" refX="4" refY="4" markerWidth="7" markerHeight="7" orient="auto-start-reverse">
            <circle cx="4" cy="4" r="3" class="bg_filled"></circle>
        </marker>
    </defs>
    <rect class="backdrop" x="0" y="0" width="592" height="256"></rect>
    <text x="2" y="12" >my</text>
    <line x1="16" y1="8" x2="24" y2="8" class="solid"></line>
    <text x="26" y="12" >app</text>
    <line x1="56" y1="0" x2="48" y2="16" class="solid"></line>
    <text x="34" y="28" >Chart.yaml</text>
    <text x="34" y="44" >values.yaml</text>
    <text x="34" y="60" >charts</text>
    <line x1="88" y1="48" x2="80" y2="64" class="solid"></line>
    <text x="34" y="76" >templates</text>
    <line x1="112" y1="64" x2="102" y2="84" class="solid"></line>
    <text x="66" y="92" >depl</text>
    <circle cx="100" cy="88" r="3" class="nofill"></circle>
    <text x="106" y="92" >yment.yaml</text>
    <text x="66" y="108" >service.yaml</text>
    <text x="66" y="124" >ingress.yaml</text>
    <text x="66" y="140" >hpa.yaml</text>
    <text x="66" y="156" >ser</text>
    <text x="98" y="156" >iceaccount.yaml</text>
    <line x1="64" y1="176" x2="72" y2="176" class="solid"></line>
    <text x="74" y="172" >helpers.tpl</text>
    <text x="66" y="188" >NOTES.txt</text>
    <text x="66" y="204" >tests</text>
    <line x1="112" y1="192" x2="104" y2="208" class="solid"></line>
    <text x="98" y="220" >test</text>
    <line x1="128" y1="216" x2="136" y2="216" class="solid"></line>
    <text x="138" y="220" >connection.yaml</text>
    <text x="274" y="220" >#</text>
    <text x="34" y="236" >.helmignore</text>
    <text x="226" y="236" >#</text>
    <text x="242" y="236" >Files</text>
    <rect x="224" y="20" width="8" height="8" class="solid filled" rx="0"></rect>
    <line x1="228" y1="28" x2="228" y2="36" class="solid"></line>
    <rect x="224" y="36" width="8" height="8" class="solid filled" rx="0"></rect>
    <line x1="228" y1="44" x2="228" y2="52" class="solid"></line>
    <rect x="224" y="52" width="8" height="8" class="solid filled" rx="0"></rect>
    <line x1="228" y1="60" x2="228" y2="68" class="solid"></line>
    <rect x="224" y="68" width="8" height="8" class="solid filled" rx="0"></rect>
    <line x1="228" y1="76" x2="228" y2="84" class="solid"></line>
    <rect x="224" y="84" width="8" height="8" class="solid filled" rx="0"></rect>
    <line x1="228" y1="92" x2="228" y2="100" class="solid"></line>
    <rect x="224" y="100" width="8" height="8" class="solid filled" rx="0"></rect>
    <line x1="228" y1="108" x2="228" y2="116" class="solid"></line>
    <rect x="224" y="116" width="8" height="8" class="solid filled" rx="0"></rect>
    <line x1="228" y1="124" x2="228" y2="132" class="solid"></line>
    <rect x="224" y="132" width="8" height="8" class="solid filled" rx="0"></rect>
    <line x1="228" y1="140" x2="228" y2="148" class="solid"></line>
    <rect x="224" y="148" width="8" height="8" class="solid filled" rx="0"></rect>
    <line x1="228" y1="156" x2="228" y2="164" class="solid"></line>
    <rect x="224" y="164" width="8" height="8" class="solid filled" rx="0"></rect>
    <line x1="228" y1="172" x2="228" y2="180" class="solid"></line>
    <rect x="224" y="180" width="8" height="8" class="solid filled" rx="0"></rect>
    <text x="242" y="28" >Chart</text>
    <text x="290" y="28" >metadata</text>
    <path d="M 368,16 A 16,16 0,0,0 368,32" class="nofill"></path>
    <text x="370" y="28" >name,</text>
    <text x="418" y="28" >version,</text>
    <text x="242" y="44" >Default</text>
    <text x="306" y="44" >configuration</text>
    <text x="418" y="44" >values</text>
    <text x="242" y="60" >Dependencies</text>
    <path d="M 352,48 A 16,16 0,0,0 352,64" class="nofill"></path>
    <text x="354" y="60" >sub</text>
    <line x1="376" y1="56" x2="384" y2="56" class="solid"></line>
    <text x="386" y="60" >charts</text>
    <path d="M 432,48 A 16,16 0,0,1 432,64" class="nofill"></path>
    <text x="242" y="76" >Kubernetes</text>
    <text x="330" y="76" >manifest</text>
    <text x="402" y="76" >templates</text>
    <text x="242" y="92" >Deployment</text>
    <text x="330" y="92" >template</text>
    <text x="242" y="108" >Service</text>
    <text x="306" y="108" >template</text>
    <text x="242" y="124" >Ingress</text>
    <text x="306" y="124" >template</text>
    <text x="242" y="140" >HorizontalPodAutoscaler</text>
    <text x="242" y="156" >ServiceAccount</text>
    <text x="362" y="156" >template</text>
    <text x="242" y="172" >Template</text>
    <text x="314" y="172" >helper</text>
    <text x="370" y="172" >functions</text>
    <text x="242" y="188" >Post</text>
    <line x1="272" y1="184" x2="280" y2="184" class="solid"></line>
    <text x="282" y="188" >install</text>
    <text x="346" y="188" >usage</text>
    <text x="394" y="188" >notes</text>
    <text x="490" y="28" >description</text>
    <path d="M 576,16 A 16,16 0,0,1 576,32" class="nofill"></path>
    <text x="434" y="140" >template</text>
    <text x="290" y="220" >Helm</text>
    <text x="330" y="220" >test</text>
    <text x="290" y="236" >to</text>
    <text x="314" y="236" >exclude</text>
    <text x="378" y="236" >from</text>
    <text x="418" y="236" >packaging</text>
    <g>
        <line x1="4" y1="16" x2="4" y2="232" class="solid"></line>
        <line x1="4" y1="24" x2="24" y2="24" class="solid"></line>
        <line x1="4" y1="40" x2="24" y2="40" class="solid"></line>
        <line x1="4" y1="56" x2="24" y2="56" class="solid"></line>
        <line x1="4" y1="72" x2="24" y2="72" class="solid"></line>
        <line x1="4" y1="232" x2="24" y2="232" class="solid"></line>
    </g>
    <g>
        <line x1="36" y1="80" x2="36" y2="200" class="solid"></line>
        <line x1="36" y1="88" x2="56" y2="88" class="solid"></line>
        <line x1="36" y1="104" x2="56" y2="104" class="solid"></line>
        <line x1="36" y1="120" x2="56" y2="120" class="solid"></line>
        <line x1="36" y1="136" x2="56" y2="136" class="solid"></line>
        <line x1="36" y1="152" x2="56" y2="152" class="solid"></line>
        <line x1="36" y1="168" x2="56" y2="168" class="solid"></line>
        <line x1="36" y1="184" x2="56" y2="184" class="solid"></line>
        <line x1="36" y1="200" x2="56" y2="200" class="solid"></line>
    </g>
    <g>
        <line x1="92" y1="144" x2="92" y2="148" class="solid"></line>
        <polygon points="88,148 96,148 92,160" class="filled"></polygon>
    </g>
    <g>
        <line x1="68" y1="208" x2="68" y2="216" class="solid"></line>
        <line x1="68" y1="216" x2="88" y2="216" class="solid"></line>
    </g>
</svg>