<svg xmlns="http://www.w3.org/2000/svg" width="592" height="560" style="background:#ffffff;border:1px solid #e5e5e5;border-radius:8px;max-width:100%;height:auto"><rect x="0" y="0" width="100%" height="100%" fill="#ffffff"/>
    <style>
        line, path, circle, rect, polygon{stroke:black;stroke-width:2;stroke-opacity:1;fill-opacity:1;stroke-linecap:round;stroke-linejoin:miter;}text{font-family:Iosevka Fixed, monospace;font-size:14px;}rect.backdrop{stroke:none;fill:transparent;}.broken{stroke-dasharray:8;}.filled{fill:black;}.bg_filled{fill:transparent;}.nofill{fill:transparent;}.end_marked_arrow{marker-end:url(#arrow);}.start_marked_arrow{marker-start:url(#arrow);}.end_marked_diamond{marker-end:url(#diamond);}.start_marked_diamond{marker-start:url(#diamond);}.end_marked_circle{marker-end:url(#circle);}.start_marked_circle{marker-start:url(#circle);}.end_marked_open_circle{marker-end:url(#open_circle);}.start_marked_open_circle{marker-start:url(#open_circle);}.end_marked_big_open_circle{marker-end:url(#big_open_circle);}.start_marked_big_open_circle{marker-start:url(#big_open_circle);}
        <!--separator-->
        
    </style>
    <defs>
        <marker id="arrow" viewBox="-2 -2 8 8" refX="4" refY="2" markerWidth="7" markerHeight="7" orient="auto-start-reverse">
            <polygon points="0,0 0,4 4,2 0,0"></polygon>
        </marker>
        <marker id="diamond" viewBox="-2 -2 8 8" refX="4" refY="2" markerWidth="7" markerHeight="7" orient="auto-start-reverse">
            <polygon points="0,2 2,0 4,2 2,4 0,2"></polygon>
        </marker>
        <marker id="circle" viewBox="0 0 8 8" refX="4" refY="4" markerWidth="7" markerHeight="7" orient="auto-start-reverse">
            <circle cx="4" cy="4" r="2" class="filled"></circle>
        </marker>
        <marker id="open_circle" viewBox="0 0 8 8" refX="4" refY="4" markerWidth="7" markerHeight="7" orient="auto-start-reverse">
            <circle cx="4" cy="4" r="2" class="bg_filled"></circle>
        </marker>
        <marker id="big_open_circle" viewBox="0 0 8 8" refX="4" refY="4" markerWidth="7" markerHeight="7" orient="auto-start-reverse">
            <circle cx="4" cy="4" r="3" class="bg_filled"></circle>
        </marker>
    </defs>
    <rect class="backdrop" x="0" y="0" width="592" height="560"></rect>
    <rect x="52" y="136" width="368" height="80" class="solid nofill" rx="0"></rect>
    <text x="74" y="156" >a.</text>
    <text x="98" y="156" >Run</text>
    <text x="130" y="156" >tests</text>
    <text x="74" y="172" >b.</text>
    <text x="98" y="172" >Build</text>
    <text x="146" y="172" >Docker</text>
    <text x="202" y="172" >image</text>
    <text x="74" y="188" >c.</text>
    <text x="98" y="188" >Push</text>
    <text x="138" y="188" >image</text>
    <text x="186" y="188" >to</text>
    <text x="210" y="188" >registry</text>
    <path d="M 288,176 A 16,16 0,0,0 288,192" class="nofill"></path>
    <text x="290" y="188" >tag:</text>
    <text x="330" y="188" >v2.2.0</text>
    <path d="M 376,176 A 16,16 0,0,1 376,192" class="nofill"></path>
    <text x="74" y="204" >d.</text>
    <text x="98" y="204" >Update</text>
    <text x="154" y="204" >image</text>
    <text x="202" y="204" >tag</text>
    <text x="234" y="204" >in</text>
    <text x="258" y="204" >k8s</text>
    <line x1="280" y1="200" x2="288" y2="200" class="solid"></line>
    <text x="290" y="204" >manifests</text>
    <text x="370" y="204" >repo</text>
    <rect x="52" y="344" width="368" height="80" class="solid nofill" rx="0"></rect>
    <text x="74" y="364" >a.</text>
    <text x="98" y="364" >Pulls</text>
    <text x="146" y="364" >latest</text>
    <text x="202" y="364" >manifests</text>
    <text x="282" y="364" >from</text>
    <text x="322" y="364" >Git</text>
    <text x="74" y="380" >b.</text>
    <text x="98" y="380" >Compares</text>
    <text x="170" y="380" >desired</text>
    <text x="234" y="380" >state</text>
    <text x="282" y="380" >vs.</text>
    <text x="314" y="380" >live</text>
    <text x="74" y="396" >c.</text>
    <text x="98" y="396" >Applies</text>
    <text x="162" y="396" >diff</text>
    <text x="202" y="396" >to</text>
    <text x="226" y="396" >the</text>
    <text x="258" y="396" >cluster</text>
    <text x="74" y="412" >d.</text>
    <text x="98" y="412" >Monitors</text>
    <text x="170" y="412" >rollout</text>
    <text x="234" y="412" >health</text>
    <text x="354" y="380" >state</text>
    <text x="202" y="28" >CI</text>
    <line x1="224" y1="16" x2="216" y2="32" class="solid"></line>
    <text x="226" y="28" >CD</text>
    <text x="250" y="28" >+</text>
    <text x="266" y="28" >GitOps</text>
    <text x="322" y="28" >Pipeline</text>
    <line x1="564" y1="272" x2="564" y2="288" class="solid"></line>
    <line x1="572" y1="288" x2="572" y2="464" class="solid"></line>
    <line x1="580" y1="464" x2="580" y2="480" class="solid"></line>
    <line x1="564" y1="480" x2="564" y2="496" class="solid"></line>
    <line x1="572" y1="496" x2="572" y2="512" class="solid"></line>
    <text x="26" y="524" >Rollback?</text>
    <text x="154" y="524" >revert</text>
    <text x="210" y="524" >the</text>
    <text x="242" y="524" >commit</text>
    <text x="370" y="524" >syncs</text>
    <text x="418" y="524" >old</text>
    <text x="450" y="524" >manifests</text>
    <line x1="564" y1="512" x2="564" y2="528" class="solid"></line>
    <text x="26" y="60" >1.</text>
    <text x="50" y="60" >Developer</text>
    <text x="130" y="60" >pushes</text>
    <text x="186" y="60" >code</text>
    <text x="226" y="60" >to</text>
    <text x="250" y="60" >app</text>
    <text x="282" y="60" >repo</text>
    <text x="50" y="76" >github.com</text>
    <line x1="136" y1="64" x2="128" y2="80" class="solid"></line>
    <text x="138" y="76" >myorg</text>
    <line x1="184" y1="64" x2="176" y2="80" class="solid"></line>
    <text x="186" y="76" >api</text>
    <line x1="208" y1="72" x2="216" y2="72" class="solid"></line>
    <text x="218" y="76" >server</text>
    <path d="M 280,64 A 16,16 0,0,0 280,80" class="nofill"></path>
    <text x="282" y="76" >branch:</text>
    <text x="50" y="124" >CI</text>
    <text x="74" y="124" >Pipeline</text>
    <path d="M 152,112 A 16,16 0,0,0 152,128" class="nofill"></path>
    <text x="154" y="124" >GitHub</text>
    <text x="210" y="124" >Actions</text>
    <line x1="280" y1="112" x2="272" y2="128" class="solid"></line>
    <text x="290" y="124" >GitLab</text>
    <text x="346" y="124" >CI</text>
    <path d="M 360,112 A 16,16 0,0,1 360,128" class="nofill"></path>
    <text x="378" y="124" >triggers</text>
    <text x="50" y="268" >k8s</text>
    <line x1="72" y1="264" x2="80" y2="264" class="solid"></line>
    <text x="82" y="268" >manifests</text>
    <text x="162" y="268" >rep</text>
    <circle cx="188" cy="264" r="3" class="nofill"></circle>
    <line x1="186" y1="268" x2="176" y2="288" class="solid"></line>
    <text x="202" y="268" >now</text>
    <text x="234" y="268" >has</text>
    <text x="266" y="268" >updated</text>
    <text x="330" y="268" >image</text>
    <text x="50" y="284" >github.com</text>
    <line x1="136" y1="272" x2="128" y2="288" class="solid"></line>
    <text x="138" y="284" >myorg</text>
    <text x="186" y="284" >k8s</text>
    <line x1="208" y1="280" x2="216" y2="280" class="solid"></line>
    <text x="218" y="284" >manifests</text>
    <path d="M 304,272 A 16,16 0,0,0 304,288" class="nofill"></path>
    <text x="306" y="284" >commit:</text>
    <text x="50" y="332" >ArgoCD</text>
    <line x1="112" y1="320" x2="104" y2="336" class="solid"></line>
    <text x="122" y="332" >Flux</text>
    <text x="162" y="332" >detects</text>
    <text x="226" y="332" >the</text>
    <text x="258" y="332" >new</text>
    <text x="290" y="332" >commit</text>
    <text x="50" y="476" >Kubernetes</text>
    <text x="138" y="476" >performs</text>
    <text x="210" y="476" >rolling</text>
    <text x="274" y="476" >update</text>
    <text x="50" y="492" >New</text>
    <text x="82" y="492" >Pods</text>
    <path d="M 128,480 A 16,16 0,0,0 128,496" class="nofill"></path>
    <text x="130" y="492" >v2.2.0</text>
    <path d="M 176,480 A 16,16 0,0,1 176,496" class="nofill"></path>
    <text x="194" y="492" >pass</text>
    <text x="234" y="492" >health</text>
    <text x="290" y="492" >checks</text>
    <text x="346" y="76" >main</text>
    <path d="M 376,64 A 16,16 0,0,1 376,80" class="nofill"></path>
    <text x="26" y="124" >2.</text>
    <text x="26" y="268" >3.</text>
    <text x="378" y="268" >tag</text>
    <path d="M 528,272 A 16,16 0,0,1 528,288" class="nofill"></path>
    <text x="26" y="332" >4.</text>
    <text x="26" y="476" >5.</text>
    <text x="346" y="492" >→</text>
    <text x="362" y="492" >Old</text>
    <text x="394" y="492" >Pods</text>
    <path d="M 440,480 A 16,16 0,0,0 440,496" class="nofill"></path>
    <text x="442" y="492" >v2.1.0</text>
    <path d="M 488,480 A 16,16 0,0,1 488,496" class="nofill"></path>
    <text x="506" y="492" >drain</text>
    <text x="370" y="284" >bump api to v2.2.0</text>
    <g>
        <line x1="4" y1="8" x2="572" y2="8" class="solid"></line>
        <line x1="4" y1="8" x2="4" y2="536" class="solid"></line>
        <line x1="572" y1="8" x2="572" y2="272" class="solid"></line>
        <line x1="4" y1="536" x2="572" y2="536" class="solid"></line>
        <line x1="572" y1="528" x2="572" y2="536" class="solid"></line>
    </g>
    <g>
        <text x="106" y="524">→</text>
        <text x="122" y="524">git</text>
    </g>
    <g>
        <text x="298" y="524">→</text>
        <text x="314" y="524">ArgoCD</text>
    </g>
    <g>
        <line x1="124" y1="80" x2="124" y2="100" class="solid"></line>
        <polygon points="120,100 128,100 124,112" class="filled"></polygon>
    </g>
    <g>
        <line x1="124" y1="224" x2="124" y2="244" class="solid"></line>
        <polygon points="120,244 128,244 124,256" class="filled"></polygon>
    </g>
    <g>
        <line x1="124" y1="288" x2="124" y2="308" class="solid"></line>
        <polygon points="120,308 128,308 124,320" class="filled"></polygon>
    </g>
    <g>
        <line x1="124" y1="432" x2="124" y2="452" class="solid"></line>
        <polygon points="120,452 128,452 124,464" class="filled"></polygon>
    </g>
</svg>