<svg xmlns="http://www.w3.org/2000/svg" width="552" height="112" style="background:#ffffff;border:1px solid #e5e5e5;border-radius:8px;max-width:100%;height:auto"><rect x="0" y="0" width="100%" height="100%" fill="#ffffff"/>
    <style>
        line, path, circle, rect, polygon{stroke:black;stroke-width:2;stroke-opacity:1;fill-opacity:1;stroke-linecap:round;stroke-linejoin:miter;}text{font-family:Iosevka Fixed, monospace;font-size:14px;}rect.backdrop{stroke:none;fill:transparent;}.broken{stroke-dasharray:8;}.filled{fill:black;}.bg_filled{fill:transparent;}.nofill{fill:transparent;}.end_marked_arrow{marker-end:url(#arrow);}.start_marked_arrow{marker-start:url(#arrow);}.end_marked_diamond{marker-end:url(#diamond);}.start_marked_diamond{marker-start:url(#diamond);}.end_marked_circle{marker-end:url(#circle);}.start_marked_circle{marker-start:url(#circle);}.end_marked_open_circle{marker-end:url(#open_circle);}.start_marked_open_circle{marker-start:url(#open_circle);}.end_marked_big_open_circle{marker-end:url(#big_open_circle);}.start_marked_big_open_circle{marker-start:url(#big_open_circle);}
        <!--separator-->
        
    </style>
    <defs>
        <marker id="arrow" viewBox="-2 -2 8 8" refX="4" refY="2" markerWidth="7" markerHeight="7" orient="auto-start-reverse">
            <polygon points="0,0 0,4 4,2 0,0"></polygon>
        </marker>
        <marker id="diamond" viewBox="-2 -2 8 8" refX="4" refY="2" markerWidth="7" markerHeight="7" orient="auto-start-reverse">
            <polygon points="0,2 2,0 4,2 2,4 0,2"></polygon>
        </marker>
        <marker id="circle" viewBox="0 0 8 8" refX="4" refY="4" markerWidth="7" markerHeight="7" orient="auto-start-reverse">
            <circle cx="4" cy="4" r="2" class="filled"></circle>
        </marker>
        <marker id="open_circle" viewBox="0 0 8 8" refX="4" refY="4" markerWidth="7" markerHeight="7" orient="auto-start-reverse">
            <circle cx="4" cy="4" r="2" class="bg_filled"></circle>
        </marker>
        <marker id="big_open_circle" viewBox="0 0 8 8" refX="4" refY="4" markerWidth="7" markerHeight="7" orient="auto-start-reverse">
            <circle cx="4" cy="4" r="3" class="bg_filled"></circle>
        </marker>
    </defs>
    <rect class="backdrop" x="0" y="0" width="552" height="112"></rect>
    <text x="2" y="12" >#</text>
    <line x1="16" y1="8" x2="32" y2="8" class="solid"></line>
    <text x="42" y="12" >Create</text>
    <text x="98" y="12" >namespaces</text>
    <line x1="184" y1="8" x2="544" y2="8" class="solid"></line>
    <text x="2" y="28" >kubectl</text>
    <text x="66" y="28" >create</text>
    <text x="122" y="28" >namespace</text>
    <text x="202" y="28" >production</text>
    <rect x="328" y="20" width="8" height="8" class="solid filled" rx="0"></rect>
    <line x1="332" y1="28" x2="332" y2="36" class="solid"></line>
    <text x="346" y="28" >Production</text>
    <text x="434" y="28" >workloads</text>
    <text x="2" y="44" >kubectl</text>
    <text x="66" y="44" >create</text>
    <text x="122" y="44" >namespace</text>
    <text x="202" y="44" >staging</text>
    <rect x="328" y="36" width="8" height="8" class="solid filled" rx="0"></rect>
    <line x1="332" y1="44" x2="332" y2="52" class="solid"></line>
    <text x="346" y="44" >Staging</text>
    <line x1="416" y1="32" x2="408" y2="48" class="solid"></line>
    <text x="426" y="44" >pre</text>
    <line x1="448" y1="40" x2="456" y2="40" class="solid"></line>
    <text x="458" y="44" >production</text>
    <text x="2" y="60" >kubectl</text>
    <text x="66" y="60" >create</text>
    <text x="122" y="60" >namespace</text>
    <text x="202" y="60" >monitoring</text>
    <rect x="328" y="52" width="8" height="8" class="solid filled" rx="0"></rect>
    <line x1="332" y1="60" x2="332" y2="68" class="solid"></line>
    <text x="346" y="60" >Prometheus,</text>
    <text x="442" y="60" >Grafana,</text>
    <text x="514" y="60" >Loki</text>
    <text x="2" y="76" >kubectl</text>
    <text x="66" y="76" >create</text>
    <text x="122" y="76" >namespace</text>
    <text x="202" y="76" >ingress</text>
    <rect x="328" y="68" width="8" height="8" class="solid filled" rx="0"></rect>
    <line x1="332" y1="76" x2="332" y2="84" class="solid"></line>
    <text x="346" y="76" >Ingress</text>
    <text x="410" y="76" >controllers</text>
    <text x="2" y="92" >kubectl</text>
    <text x="66" y="92" >create</text>
    <text x="122" y="92" >namespace</text>
    <text x="202" y="92" >argocd</text>
    <rect x="328" y="84" width="8" height="8" class="solid filled" rx="0"></rect>
    <text x="346" y="92" >GitOps</text>
    <text x="402" y="92" >controller</text>
</svg>