<svg xmlns="http://www.w3.org/2000/svg" width="728" height="448" style="background:#ffffff;border:1px solid #e5e5e5;border-radius:8px;max-width:100%;height:auto"><rect x="0" y="0" width="100%" height="100%" fill="#ffffff"/>
    <style>
        line, path, circle, rect, polygon{stroke:black;stroke-width:2;stroke-opacity:1;fill-opacity:1;stroke-linecap:round;stroke-linejoin:miter;}text{font-family:Iosevka Fixed, monospace;font-size:14px;}rect.backdrop{stroke:none;fill:transparent;}.broken{stroke-dasharray:8;}.filled{fill:black;}.bg_filled{fill:transparent;}.nofill{fill:transparent;}.end_marked_arrow{marker-end:url(#arrow);}.start_marked_arrow{marker-start:url(#arrow);}.end_marked_diamond{marker-end:url(#diamond);}.start_marked_diamond{marker-start:url(#diamond);}.end_marked_circle{marker-end:url(#circle);}.start_marked_circle{marker-start:url(#circle);}.end_marked_open_circle{marker-end:url(#open_circle);}.start_marked_open_circle{marker-start:url(#open_circle);}.end_marked_big_open_circle{marker-end:url(#big_open_circle);}.start_marked_big_open_circle{marker-start:url(#big_open_circle);}
        <!--separator-->
        
    </style>
    <defs>
        <marker id="arrow" viewBox="-2 -2 8 8" refX="4" refY="2" markerWidth="7" markerHeight="7" orient="auto-start-reverse">
            <polygon points="0,0 0,4 4,2 0,0"></polygon>
        </marker>
        <marker id="diamond" viewBox="-2 -2 8 8" refX="4" refY="2" markerWidth="7" markerHeight="7" orient="auto-start-reverse">
            <polygon points="0,2 2,0 4,2 2,4 0,2"></polygon>
        </marker>
        <marker id="circle" viewBox="0 0 8 8" refX="4" refY="4" markerWidth="7" markerHeight="7" orient="auto-start-reverse">
            <circle cx="4" cy="4" r="2" class="filled"></circle>
        </marker>
        <marker id="open_circle" viewBox="0 0 8 8" refX="4" refY="4" markerWidth="7" markerHeight="7" orient="auto-start-reverse">
            <circle cx="4" cy="4" r="2" class="bg_filled"></circle>
        </marker>
        <marker id="big_open_circle" viewBox="0 0 8 8" refX="4" refY="4" markerWidth="7" markerHeight="7" orient="auto-start-reverse">
            <circle cx="4" cy="4" r="3" class="bg_filled"></circle>
        </marker>
    </defs>
    <rect class="backdrop" x="0" y="0" width="728" height="448"></rect>
    <rect x="0" y="4" width="8" height="8" class="solid filled" rx="0"></rect>
    <line x1="4" y1="12" x2="4" y2="20" class="solid"></line>
    <line x1="16" y1="8" x2="32" y2="8" class="solid"></line>
    <text x="42" y="12" >Prerequisites</text>
    <line x1="152" y1="8" x2="544" y2="8" class="solid"></line>
    <rect x="0" y="20" width="8" height="8" class="solid filled" rx="0"></rect>
    <text x="18" y="28" >Install</text>
    <text x="82" y="28" >gcloud</text>
    <text x="138" y="28" >CLI</text>
    <text x="170" y="28" >and</text>
    <text x="202" y="28" >authenticate</text>
    <text x="2" y="44" >gcloud</text>
    <text x="58" y="44" >auth</text>
    <text x="98" y="44" >login</text>
    <text x="2" y="60" >gcloud</text>
    <text x="58" y="60" >config</text>
    <text x="114" y="60" >set</text>
    <text x="2" y="76" >gcloud</text>
    <text x="58" y="76" >config</text>
    <text x="114" y="76" >set</text>
    <text x="146" y="60" >project</text>
    <text x="210" y="60" >my</text>
    <line x1="224" y1="56" x2="232" y2="56" class="solid"></line>
    <text x="234" y="60" >project</text>
    <line x1="288" y1="56" x2="296" y2="56" class="solid"></line>
    <text x="298" y="60" >id</text>
    <text x="146" y="76" >compute</text>
    <line x1="208" y1="64" x2="200" y2="80" class="solid"></line>
    <text x="210" y="76" >zone</text>
    <text x="250" y="76" >us</text>
    <line x1="264" y1="72" x2="272" y2="72" class="solid"></line>
    <text x="274" y="76" >central1</text>
    <line x1="336" y1="72" x2="344" y2="72" class="solid"></line>
    <text x="346" y="76" >a</text>
    <text x="2" y="108" >#</text>
    <line x1="16" y1="104" x2="32" y2="104" class="solid"></line>
    <text x="42" y="108" >Create</text>
    <text x="98" y="108" >the</text>
    <text x="130" y="108" >GKE</text>
    <text x="162" y="108" >cluster</text>
    <line x1="224" y1="104" x2="536" y2="104" class="solid"></line>
    <text x="2" y="124" >gcloud</text>
    <text x="58" y="124" >container</text>
    <text x="138" y="124" >clusters</text>
    <text x="210" y="124" >create</text>
    <text x="266" y="124" >production</text>
    <line x1="352" y1="112" x2="360" y2="128" class="solid"></line>
    <line x1="16" y1="136" x2="32" y2="136" class="solid"></line>
    <text x="34" y="140" >region</text>
    <text x="90" y="140" >us</text>
    <line x1="104" y1="136" x2="112" y2="136" class="solid"></line>
    <text x="114" y="140" >central1</text>
    <line x1="184" y1="128" x2="192" y2="144" class="solid"></line>
    <rect x="328" y="132" width="8" height="8" class="solid filled" rx="0"></rect>
    <line x1="332" y1="140" x2="332" y2="148" class="solid"></line>
    <text x="346" y="140" >Regional</text>
    <text x="418" y="140" >cluster</text>
    <path d="M 488,128 A 16,16 0,0,0 488,144" class="nofill"></path>
    <text x="490" y="140" >control</text>
    <text x="554" y="140" >plane</text>
    <text x="602" y="140" >in</text>
    <text x="626" y="140" >3</text>
    <line x1="16" y1="152" x2="32" y2="152" class="solid"></line>
    <text x="34" y="156" >num</text>
    <line x1="56" y1="152" x2="64" y2="152" class="solid"></line>
    <text x="66" y="156" >nodes</text>
    <text x="114" y="156" >3</text>
    <line x1="128" y1="144" x2="136" y2="160" class="solid"></line>
    <rect x="328" y="148" width="8" height="8" class="solid filled" rx="0"></rect>
    <line x1="332" y1="156" x2="332" y2="164" class="solid"></line>
    <text x="346" y="156" >Nodes</text>
    <text x="394" y="156" >per</text>
    <text x="426" y="156" >zone</text>
    <path d="M 472,144 A 16,16 0,0,0 472,160" class="nofill"></path>
    <text x="474" y="156" >9</text>
    <text x="490" y="156" >total</text>
    <text x="538" y="156" >for</text>
    <text x="570" y="156" >3</text>
    <text x="586" y="156" >zones</text>
    <path d="M 624,144 A 16,16 0,0,1 624,160" class="nofill"></path>
    <line x1="16" y1="168" x2="32" y2="168" class="solid"></line>
    <text x="34" y="172" >machine</text>
    <line x1="88" y1="168" x2="96" y2="168" class="solid"></line>
    <text x="98" y="172" >type</text>
    <text x="138" y="172" >e2</text>
    <line x1="152" y1="168" x2="160" y2="168" class="solid"></line>
    <text x="162" y="172" >standard</text>
    <line x1="224" y1="168" x2="232" y2="168" class="solid"></line>
    <text x="234" y="172" >4</text>
    <rect x="328" y="164" width="8" height="8" class="solid filled" rx="0"></rect>
    <line x1="332" y1="172" x2="332" y2="180" class="solid"></line>
    <text x="346" y="172" >4</text>
    <text x="362" y="172" >vCPU,</text>
    <text x="410" y="172" >16</text>
    <text x="434" y="172" >GB</text>
    <text x="458" y="172" >RAM</text>
    <line x1="16" y1="184" x2="32" y2="184" class="solid"></line>
    <text x="34" y="188" >disk</text>
    <line x1="64" y1="184" x2="72" y2="184" class="solid"></line>
    <text x="74" y="188" >size</text>
    <text x="114" y="188" >100</text>
    <line x1="144" y1="176" x2="152" y2="192" class="solid"></line>
    <rect x="328" y="180" width="8" height="8" class="solid filled" rx="0"></rect>
    <line x1="332" y1="188" x2="332" y2="196" class="solid"></line>
    <text x="346" y="188" >100</text>
    <text x="378" y="188" >GB</text>
    <text x="402" y="188" >boot</text>
    <text x="442" y="188" >disk</text>
    <text x="482" y="188" >per</text>
    <text x="514" y="188" >node</text>
    <line x1="16" y1="200" x2="32" y2="200" class="solid"></line>
    <text x="34" y="204" >disk</text>
    <line x1="64" y1="200" x2="72" y2="200" class="solid"></line>
    <text x="74" y="204" >type</text>
    <text x="114" y="204" >pd</text>
    <line x1="128" y1="200" x2="136" y2="200" class="solid"></line>
    <text x="138" y="204" >ssd</text>
    <line x1="168" y1="192" x2="176" y2="208" class="solid"></line>
    <rect x="328" y="196" width="8" height="8" class="solid filled" rx="0"></rect>
    <line x1="332" y1="204" x2="332" y2="212" class="solid"></line>
    <text x="346" y="204" >SSD</text>
    <text x="378" y="204" >persistent</text>
    <text x="466" y="204" >disk</text>
    <text x="506" y="204" >for</text>
    <text x="538" y="204" >better</text>
    <line x1="16" y1="216" x2="32" y2="216" class="solid"></line>
    <text x="34" y="220" >enable</text>
    <line x1="80" y1="216" x2="88" y2="216" class="solid"></line>
    <text x="90" y="220" >autoscaling</text>
    <rect x="328" y="212" width="8" height="8" class="solid filled" rx="0"></rect>
    <line x1="332" y1="220" x2="332" y2="228" class="solid"></line>
    <text x="346" y="220" >Enable</text>
    <text x="402" y="220" >node</text>
    <text x="442" y="220" >autoscaling</text>
    <line x1="16" y1="232" x2="32" y2="232" class="solid"></line>
    <text x="34" y="236" >min</text>
    <line x1="56" y1="232" x2="64" y2="232" class="solid"></line>
    <text x="66" y="236" >nodes</text>
    <text x="114" y="236" >1</text>
    <line x1="128" y1="224" x2="144" y2="256" class="solid"></line>
    <rect x="328" y="228" width="8" height="8" class="solid filled" rx="0"></rect>
    <line x1="332" y1="236" x2="332" y2="244" class="solid"></line>
    <text x="346" y="236" >Min</text>
    <text x="378" y="236" >nodes</text>
    <text x="426" y="236" >per</text>
    <text x="458" y="236" >zone</text>
    <line x1="16" y1="248" x2="32" y2="248" class="solid"></line>
    <text x="34" y="252" >max</text>
    <line x1="56" y1="248" x2="64" y2="248" class="solid"></line>
    <text x="66" y="252" >nodes</text>
    <text x="114" y="252" >10</text>
    <rect x="328" y="244" width="8" height="8" class="solid filled" rx="0"></rect>
    <line x1="332" y1="252" x2="332" y2="260" class="solid"></line>
    <text x="346" y="252" >Max</text>
    <text x="378" y="252" >nodes</text>
    <text x="426" y="252" >per</text>
    <text x="458" y="252" >zone</text>
    <line x1="16" y1="264" x2="32" y2="264" class="solid"></line>
    <text x="34" y="268" >enable</text>
    <line x1="80" y1="264" x2="88" y2="264" class="solid"></line>
    <text x="90" y="268" >autorepair</text>
    <line x1="176" y1="256" x2="192" y2="288" class="solid"></line>
    <rect x="328" y="260" width="8" height="8" class="solid filled" rx="0"></rect>
    <line x1="332" y1="268" x2="332" y2="276" class="solid"></line>
    <text x="346" y="268" >Aut</text>
    <circle cx="372" cy="264" r="3" class="nofill"></circle>
    <line x1="376" y1="264" x2="384" y2="264" class="solid"></line>
    <text x="386" y="268" >repair</text>
    <text x="442" y="268" >unhealthy</text>
    <text x="522" y="268" >nodes</text>
    <line x1="16" y1="280" x2="32" y2="280" class="solid"></line>
    <text x="34" y="284" >enable</text>
    <line x1="80" y1="280" x2="88" y2="280" class="solid"></line>
    <text x="90" y="284" >autoupgrade</text>
    <rect x="328" y="276" width="8" height="8" class="solid filled" rx="0"></rect>
    <line x1="332" y1="284" x2="332" y2="292" class="solid"></line>
    <text x="346" y="284" >Aut</text>
    <circle cx="372" cy="280" r="3" class="nofill"></circle>
    <line x1="376" y1="280" x2="384" y2="280" class="solid"></line>
    <text x="386" y="284" >upgrade</text>
    <text x="450" y="284" >to</text>
    <text x="474" y="284" >new</text>
    <text x="506" y="284" >K8s</text>
    <text x="538" y="284" >patch</text>
    <text x="586" y="284" >versions</text>
    <line x1="16" y1="296" x2="32" y2="296" class="solid"></line>
    <text x="34" y="300" >enable</text>
    <line x1="80" y1="296" x2="88" y2="296" class="solid"></line>
    <text x="90" y="300" >ip</text>
    <line x1="104" y1="296" x2="112" y2="296" class="solid"></line>
    <text x="114" y="300" >alias</text>
    <line x1="160" y1="288" x2="168" y2="304" class="solid"></line>
    <rect x="328" y="292" width="8" height="8" class="solid filled" rx="0"></rect>
    <line x1="332" y1="300" x2="332" y2="308" class="solid"></line>
    <text x="346" y="300" >VPC</text>
    <line x1="368" y1="296" x2="376" y2="296" class="solid"></line>
    <text x="378" y="300" >native</text>
    <text x="434" y="300" >cluster</text>
    <path d="M 504,288 A 16,16 0,0,0 504,304" class="nofill"></path>
    <text x="506" y="300" >required</text>
    <text x="578" y="300" >for</text>
    <text x="610" y="300" >most</text>
    <text x="650" y="300" >features</text>
    <path d="M 712,288 A 16,16 0,0,1 712,304" class="nofill"></path>
    <line x1="16" y1="312" x2="32" y2="312" class="solid"></line>
    <text x="34" y="316" >enable</text>
    <line x1="80" y1="312" x2="88" y2="312" class="solid"></line>
    <text x="90" y="316" >network</text>
    <line x1="144" y1="312" x2="152" y2="312" class="solid"></line>
    <text x="154" y="316" >policy</text>
    <line x1="208" y1="304" x2="218" y2="324" class="solid"></line>
    <rect x="328" y="308" width="8" height="8" class="solid filled" rx="0"></rect>
    <line x1="332" y1="316" x2="332" y2="324" class="solid"></line>
    <text x="346" y="316" >Enable</text>
    <text x="402" y="316" >Calico</text>
    <text x="458" y="316" >NetworkPolicy</text>
    <text x="570" y="316" >enforcement</text>
    <line x1="16" y1="328" x2="32" y2="328" class="solid"></line>
    <text x="34" y="332" >enable</text>
    <line x1="80" y1="328" x2="88" y2="328" class="solid"></line>
    <text x="90" y="332" >vertical</text>
    <line x1="152" y1="328" x2="160" y2="328" class="solid"></line>
    <text x="162" y="332" >pod</text>
    <line x1="184" y1="328" x2="192" y2="328" class="solid"></line>
    <text x="194" y="332" >aut</text>
    <circle cx="220" cy="328" r="3" class="nofill"></circle>
    <text x="226" y="332" >scaling</text>
    <line x1="288" y1="320" x2="296" y2="336" class="solid"></line>
    <rect x="328" y="324" width="8" height="8" class="solid filled" rx="0"></rect>
    <text x="346" y="332" >VPA:</text>
    <text x="386" y="332" >aut</text>
    <circle cx="412" cy="328" r="3" class="nofill"></circle>
    <line x1="416" y1="328" x2="424" y2="328" class="solid"></line>
    <text x="426" y="332" >adjusts</text>
    <text x="490" y="332" >resource</text>
    <text x="562" y="332" >requests</text>
    <line x1="16" y1="344" x2="32" y2="344" class="solid"></line>
    <text x="34" y="348" >workload</text>
    <line x1="96" y1="344" x2="104" y2="344" class="solid"></line>
    <text x="106" y="348" >pool</text>
    <line x1="136" y1="342" x2="144" y2="342" class="solid"></line>
    <line x1="136" y1="346" x2="144" y2="346" class="solid"></line>
    <text x="146" y="348" >my</text>
    <line x1="160" y1="344" x2="168" y2="344" class="solid"></line>
    <text x="170" y="348" >project</text>
    <line x1="224" y1="344" x2="232" y2="344" class="solid"></line>
    <text x="234" y="348" >id.svc.id.goog</text>
    <line x1="352" y1="336" x2="360" y2="352" class="solid"></line>
    <text x="378" y="348" >#</text>
    <text x="394" y="348" >Workload</text>
    <text x="466" y="348" >Identity</text>
    <path d="M 544,336 A 16,16 0,0,0 544,352" class="nofill"></path>
    <text x="546" y="348" >GCP&#39;s</text>
    <text x="594" y="348" >IRSA</text>
    <line x1="16" y1="360" x2="32" y2="360" class="solid"></line>
    <text x="34" y="364" >release</text>
    <line x1="88" y1="360" x2="96" y2="360" class="solid"></line>
    <text x="98" y="364" >channel</text>
    <text x="162" y="364" >regular</text>
    <text x="322" y="364" >#</text>
    <text x="338" y="364" >Follow</text>
    <text x="394" y="364" >the</text>
    <text x="506" y="364" >release</text>
    <text x="570" y="364" >channel</text>
    <text x="642" y="140" >zones</text>
    <path d="M 680,128 A 16,16 0,0,1 680,144" class="nofill"></path>
    <line x1="248" y1="160" x2="256" y2="176" class="solid"></line>
    <text x="594" y="204" >I</text>
    <line x1="608" y1="192" x2="600" y2="208" class="solid"></line>
    <text x="610" y="204" >O</text>
    <line x1="184" y1="208" x2="192" y2="224" class="solid"></line>
    <text x="634" y="348" >equivalent</text>
    <path d="M 712,336 A 16,16 0,0,1 712,352" class="nofill"></path>
    <text x="2" y="396" >#</text>
    <line x1="16" y1="392" x2="32" y2="392" class="solid"></line>
    <text x="42" y="396" >Get</text>
    <text x="74" y="396" >credentials</text>
    <line x1="168" y1="392" x2="544" y2="392" class="solid"></line>
    <text x="2" y="412" >gcloud</text>
    <text x="58" y="412" >container</text>
    <text x="138" y="412" >clusters</text>
    <text x="210" y="412" >get</text>
    <line x1="232" y1="408" x2="240" y2="408" class="solid"></line>
    <text x="242" y="412" >credentials</text>
    <text x="338" y="412" >production</text>
    <line x1="424" y1="408" x2="440" y2="408" class="solid"></line>
    <text x="442" y="412" >region</text>
    <text x="498" y="412" >us</text>
    <line x1="512" y1="408" x2="520" y2="408" class="solid"></line>
    <text x="522" y="412" >central1</text>
    <text x="2" y="428" >kubectl</text>
    <text x="66" y="428" >get</text>
    <text x="98" y="428" >nodes</text>
    <text x="330" y="428" >#</text>
    <text x="346" y="428" >Verify</text>
    <text x="402" y="428" >nodes</text>
    <text x="450" y="428" >are</text>
    <text x="482" y="428" >Ready</text>
    <text x="426" y="364" >regular</text>
</svg>