<svg xmlns="http://www.w3.org/2000/svg" width="976" height="592" style="background:#ffffff;border:1px solid #e5e5e5;border-radius:8px;max-width:100%;height:auto"><rect x="0" y="0" width="100%" height="100%" fill="#ffffff"/>
    <style>
        line, path, circle, rect, polygon{stroke:black;stroke-width:2;stroke-opacity:1;fill-opacity:1;stroke-linecap:round;stroke-linejoin:miter;}text{font-family:Iosevka Fixed, monospace;font-size:14px;}rect.backdrop{stroke:none;fill:transparent;}.broken{stroke-dasharray:8;}.filled{fill:black;}.bg_filled{fill:transparent;}.nofill{fill:transparent;}.end_marked_arrow{marker-end:url(#arrow);}.start_marked_arrow{marker-start:url(#arrow);}.end_marked_diamond{marker-end:url(#diamond);}.start_marked_diamond{marker-start:url(#diamond);}.end_marked_circle{marker-end:url(#circle);}.start_marked_circle{marker-start:url(#circle);}.end_marked_open_circle{marker-end:url(#open_circle);}.start_marked_open_circle{marker-start:url(#open_circle);}.end_marked_big_open_circle{marker-end:url(#big_open_circle);}.start_marked_big_open_circle{marker-start:url(#big_open_circle);}
        <!--separator-->
        
    </style>
    <defs>
        <marker id="arrow" viewBox="-2 -2 8 8" refX="4" refY="2" markerWidth="7" markerHeight="7" orient="auto-start-reverse">
            <polygon points="0,0 0,4 4,2 0,0"></polygon>
        </marker>
        <marker id="diamond" viewBox="-2 -2 8 8" refX="4" refY="2" markerWidth="7" markerHeight="7" orient="auto-start-reverse">
            <polygon points="0,2 2,0 4,2 2,4 0,2"></polygon>
        </marker>
        <marker id="circle" viewBox="0 0 8 8" refX="4" refY="4" markerWidth="7" markerHeight="7" orient="auto-start-reverse">
            <circle cx="4" cy="4" r="2" class="filled"></circle>
        </marker>
        <marker id="open_circle" viewBox="0 0 8 8" refX="4" refY="4" markerWidth="7" markerHeight="7" orient="auto-start-reverse">
            <circle cx="4" cy="4" r="2" class="bg_filled"></circle>
        </marker>
        <marker id="big_open_circle" viewBox="0 0 8 8" refX="4" refY="4" markerWidth="7" markerHeight="7" orient="auto-start-reverse">
            <circle cx="4" cy="4" r="3" class="bg_filled"></circle>
        </marker>
    </defs>
    <rect class="backdrop" x="0" y="0" width="976" height="592"></rect>
    <rect x="0" y="4" width="8" height="8" class="solid filled" rx="0"></rect>
    <line x1="4" y1="12" x2="4" y2="20" class="solid"></line>
    <line x1="16" y1="8" x2="32" y2="8" class="solid"></line>
    <text x="42" y="12" >Prerequisites</text>
    <line x1="152" y1="8" x2="544" y2="8" class="solid"></line>
    <rect x="0" y="20" width="8" height="8" class="solid filled" rx="0"></rect>
    <text x="18" y="28" >Install</text>
    <text x="82" y="28" >eksctl</text>
    <path d="M 144,16 A 16,16 0,0,0 144,32" class="nofill"></path>
    <text x="146" y="28" >the</text>
    <text x="178" y="28" >official</text>
    <text x="250" y="28" >CLI</text>
    <text x="282" y="28" >for</text>
    <text x="314" y="28" >EKS</text>
    <text x="346" y="28" >cluster</text>
    <text x="410" y="28" >management</text>
    <path d="M 488,16 A 16,16 0,0,1 488,32" class="nofill"></path>
    <text x="2" y="44" >curl</text>
    <line x1="40" y1="40" x2="56" y2="40" class="solid"></line>
    <text x="58" y="44" >silent</text>
    <line x1="112" y1="40" x2="128" y2="40" class="solid"></line>
    <text x="130" y="44" >location</text>
    <line x1="20" y1="48" x2="20" y2="64" class="solid"></line>
    <text x="34" y="60" >tar</text>
    <text x="66" y="60" >xz</text>
    <line x1="88" y1="56" x2="96" y2="56" class="solid"></line>
    <text x="98" y="60" >C</text>
    <line x1="120" y1="48" x2="112" y2="64" class="solid"></line>
    <text x="122" y="60" >tmp</text>
    <text x="154" y="60" >&amp;&amp;</text>
    <text x="178" y="60" >sudo</text>
    <line x1="960" y1="32" x2="968" y2="48" class="solid"></line>
    <text x="218" y="60" >mv</text>
    <line x1="248" y1="48" x2="240" y2="64" class="solid"></line>
    <text x="250" y="60" >tmp</text>
    <line x1="280" y1="48" x2="272" y2="64" class="solid"></line>
    <text x="282" y="60" >eksctl</text>
    <line x1="344" y1="48" x2="336" y2="64" class="solid"></line>
    <text x="346" y="60" >usr</text>
    <line x1="376" y1="48" x2="368" y2="64" class="solid"></line>
    <text x="378" y="60" >local</text>
    <line x1="424" y1="48" x2="416" y2="64" class="solid"></line>
    <text x="426" y="60" >bin</text>
    <text x="2" y="92" >#</text>
    <text x="18" y="92" >Install</text>
    <text x="82" y="92" >AWS</text>
    <text x="2" y="108" >aws</text>
    <text x="34" y="108" >configure</text>
    <text x="114" y="92" >CLI</text>
    <text x="146" y="92" >v2</text>
    <text x="170" y="92" >and</text>
    <text x="202" y="92" >configure</text>
    <text x="282" y="92" >credentials</text>
    <text x="330" y="108" >#</text>
    <text x="346" y="108" >Set</text>
    <text x="378" y="108" >up</text>
    <text x="402" y="108" >access</text>
    <text x="458" y="108" >key,</text>
    <text x="498" y="108" >secret,</text>
    <text x="562" y="108" >region</text>
    <text x="2" y="140" >#</text>
    <line x1="16" y1="136" x2="32" y2="136" class="solid"></line>
    <text x="42" y="140" >Create</text>
    <text x="98" y="140" >the</text>
    <text x="130" y="140" >EKS</text>
    <text x="162" y="140" >cluster</text>
    <text x="2" y="156" >eksctl</text>
    <text x="58" y="156" >create</text>
    <text x="114" y="156" >cluster</text>
    <line x1="176" y1="144" x2="184" y2="160" class="solid"></line>
    <line x1="16" y1="168" x2="32" y2="168" class="solid"></line>
    <text x="34" y="172" >name</text>
    <text x="74" y="172" >production</text>
    <line x1="160" y1="160" x2="176" y2="192" class="solid"></line>
    <line x1="16" y1="184" x2="32" y2="184" class="solid"></line>
    <text x="34" y="188" >region</text>
    <text x="90" y="188" >us</text>
    <line x1="104" y1="184" x2="112" y2="184" class="solid"></line>
    <text x="114" y="188" >east</text>
    <line x1="144" y1="184" x2="152" y2="184" class="solid"></line>
    <text x="154" y="188" >1</text>
    <line x1="16" y1="200" x2="32" y2="200" class="solid"></line>
    <text x="34" y="204" >version</text>
    <text x="98" y="204" >1.30</text>
    <line x1="136" y1="192" x2="144" y2="208" class="solid"></line>
    <line x1="16" y1="216" x2="32" y2="216" class="solid"></line>
    <text x="34" y="220" >nodegroup</text>
    <line x1="104" y1="216" x2="112" y2="216" class="solid"></line>
    <text x="114" y="220" >name</text>
    <text x="154" y="220" >workers</text>
    <line x1="16" y1="232" x2="32" y2="232" class="solid"></line>
    <text x="34" y="236" >node</text>
    <line x1="64" y1="232" x2="72" y2="232" class="solid"></line>
    <text x="74" y="236" >type</text>
    <text x="114" y="236" >m5.xlarge</text>
    <line x1="192" y1="224" x2="200" y2="240" class="solid"></line>
    <line x1="16" y1="248" x2="32" y2="248" class="solid"></line>
    <text x="34" y="252" >nodes</text>
    <text x="82" y="252" >3</text>
    <line x1="96" y1="240" x2="104" y2="256" class="solid"></line>
    <line x1="16" y1="264" x2="32" y2="264" class="solid"></line>
    <text x="34" y="268" >nodes</text>
    <line x1="72" y1="264" x2="80" y2="264" class="solid"></line>
    <text x="82" y="268" >min</text>
    <line x1="16" y1="280" x2="32" y2="280" class="solid"></line>
    <text x="34" y="284" >nodes</text>
    <line x1="72" y1="280" x2="80" y2="280" class="solid"></line>
    <text x="82" y="284" >max</text>
    <line x1="16" y1="296" x2="32" y2="296" class="solid"></line>
    <text x="34" y="300" >managed</text>
    <line x1="96" y1="288" x2="104" y2="304" class="solid"></line>
    <line x1="16" y1="312" x2="32" y2="312" class="solid"></line>
    <text x="34" y="316" >with</text>
    <line x1="64" y1="312" x2="72" y2="312" class="solid"></line>
    <circle cx="76" cy="312" r="3" class="nofill"></circle>
    <text x="82" y="316" >idc</text>
    <line x1="112" y1="304" x2="128" y2="336" class="solid"></line>
    <line x1="16" y1="328" x2="32" y2="328" class="solid"></line>
    <text x="34" y="332" >ssh</text>
    <line x1="56" y1="328" x2="64" y2="328" class="solid"></line>
    <text x="66" y="332" >access</text>
    <line x1="16" y1="344" x2="32" y2="344" class="solid"></line>
    <text x="34" y="348" >ssh</text>
    <line x1="56" y1="344" x2="64" y2="344" class="solid"></line>
    <text x="66" y="348" >public</text>
    <line x1="112" y1="344" x2="120" y2="344" class="solid"></line>
    <text x="122" y="348" >key</text>
    <text x="154" y="348" >my</text>
    <line x1="168" y1="344" x2="176" y2="344" class="solid"></line>
    <text x="178" y="348" >key</text>
    <line x1="200" y1="344" x2="208" y2="344" class="solid"></line>
    <text x="210" y="348" >pair</text>
    <line x1="248" y1="336" x2="256" y2="352" class="solid"></line>
    <line x1="16" y1="360" x2="32" y2="360" class="solid"></line>
    <text x="34" y="364" >vpc</text>
    <line x1="56" y1="360" x2="64" y2="360" class="solid"></line>
    <text x="66" y="364" >nat</text>
    <line x1="88" y1="360" x2="96" y2="360" class="solid"></line>
    <text x="98" y="364" >mode</text>
    <text x="138" y="364" >HighlyAvailable</text>
    <line x1="16" y1="376" x2="32" y2="376" class="solid"></line>
    <text x="34" y="380" >asg</text>
    <line x1="56" y1="376" x2="64" y2="376" class="solid"></line>
    <text x="66" y="380" >access</text>
    <line x1="120" y1="368" x2="128" y2="384" class="solid"></line>
    <line x1="16" y1="392" x2="32" y2="392" class="solid"></line>
    <text x="34" y="396" >full</text>
    <line x1="64" y1="392" x2="72" y2="392" class="solid"></line>
    <text x="74" y="396" >ecr</text>
    <line x1="96" y1="392" x2="104" y2="392" class="solid"></line>
    <text x="106" y="396" >access</text>
    <line x1="224" y1="136" x2="536" y2="136" class="solid"></line>
    <rect x="328" y="164" width="8" height="8" class="solid filled" rx="0"></rect>
    <line x1="332" y1="172" x2="332" y2="180" class="solid"></line>
    <rect x="328" y="180" width="8" height="8" class="solid filled" rx="0"></rect>
    <line x1="332" y1="188" x2="332" y2="196" class="solid"></line>
    <rect x="328" y="196" width="8" height="8" class="solid filled" rx="0"></rect>
    <line x1="332" y1="204" x2="332" y2="212" class="solid"></line>
    <rect x="328" y="212" width="8" height="8" class="solid filled" rx="0"></rect>
    <line x1="332" y1="220" x2="332" y2="228" class="solid"></line>
    <rect x="328" y="228" width="8" height="8" class="solid filled" rx="0"></rect>
    <line x1="332" y1="236" x2="332" y2="244" class="solid"></line>
    <rect x="328" y="244" width="8" height="8" class="solid filled" rx="0"></rect>
    <line x1="332" y1="252" x2="332" y2="260" class="solid"></line>
    <rect x="328" y="260" width="8" height="8" class="solid filled" rx="0"></rect>
    <line x1="332" y1="268" x2="332" y2="276" class="solid"></line>
    <rect x="328" y="276" width="8" height="8" class="solid filled" rx="0"></rect>
    <line x1="332" y1="284" x2="332" y2="292" class="solid"></line>
    <rect x="328" y="292" width="8" height="8" class="solid filled" rx="0"></rect>
    <line x1="332" y1="300" x2="332" y2="308" class="solid"></line>
    <rect x="328" y="308" width="8" height="8" class="solid filled" rx="0"></rect>
    <line x1="332" y1="316" x2="332" y2="324" class="solid"></line>
    <rect x="328" y="324" width="8" height="8" class="solid filled" rx="0"></rect>
    <line x1="332" y1="332" x2="332" y2="340" class="solid"></line>
    <rect x="328" y="340" width="8" height="8" class="solid filled" rx="0"></rect>
    <line x1="332" y1="348" x2="332" y2="356" class="solid"></line>
    <rect x="328" y="356" width="8" height="8" class="solid filled" rx="0"></rect>
    <line x1="332" y1="364" x2="332" y2="372" class="solid"></line>
    <rect x="328" y="372" width="8" height="8" class="solid filled" rx="0"></rect>
    <line x1="332" y1="380" x2="332" y2="388" class="solid"></line>
    <rect x="328" y="388" width="8" height="8" class="solid filled" rx="0"></rect>
    <text x="346" y="172" >Cluster</text>
    <text x="410" y="172" >name</text>
    <text x="346" y="188" >AWS</text>
    <text x="378" y="188" >region</text>
    <text x="346" y="204" >Kubernetes</text>
    <text x="434" y="204" >version</text>
    <text x="346" y="220" >Name</text>
    <text x="386" y="220" >for</text>
    <text x="418" y="220" >the</text>
    <text x="450" y="220" >managed</text>
    <text x="514" y="220" >node</text>
    <text x="346" y="236" >Instance</text>
    <text x="418" y="236" >type</text>
    <path d="M 464,224 A 16,16 0,0,0 464,240" class="nofill"></path>
    <text x="466" y="236" >4</text>
    <text x="482" y="236" >vCPU,</text>
    <text x="530" y="236" >16</text>
    <text x="346" y="252" >Desired</text>
    <text x="410" y="252" >number</text>
    <text x="466" y="252" >of</text>
    <text x="490" y="252" >nodes</text>
    <text x="346" y="268" >Minimum</text>
    <text x="410" y="268" >nodes</text>
    <text x="466" y="268" >for</text>
    <text x="498" y="268" >Cluster</text>
    <text x="562" y="268" >Autoscaler</text>
    <text x="346" y="284" >Maximum</text>
    <text x="410" y="284" >nodes</text>
    <text x="466" y="284" >for</text>
    <text x="498" y="284" >Cluster</text>
    <text x="562" y="284" >Autoscaler</text>
    <text x="346" y="300" >Use</text>
    <text x="378" y="300" >EKS</text>
    <line x1="400" y1="296" x2="408" y2="296" class="solid"></line>
    <text x="410" y="300" >managed</text>
    <text x="474" y="300" >node</text>
    <text x="514" y="300" >groups</text>
    <path d="M 576,288 A 16,16 0,0,0 576,304" class="nofill"></path>
    <text x="578" y="300" >recommended</text>
    <path d="M 664,288 A 16,16 0,0,1 664,304" class="nofill"></path>
    <text x="346" y="316" >Enable</text>
    <text x="402" y="316" >OIDC</text>
    <text x="442" y="316" >for</text>
    <text x="474" y="316" >IAM</text>
    <text x="506" y="316" >Roles</text>
    <text x="554" y="316" >for</text>
    <text x="586" y="316" >Service</text>
    <text x="650" y="316" >Accounts</text>
    <text x="346" y="332" >Enable</text>
    <text x="402" y="332" >SSH</text>
    <text x="434" y="332" >access</text>
    <text x="490" y="332" >to</text>
    <text x="514" y="332" >nodes</text>
    <path d="M 568,320 A 16,16 0,0,0 568,336" class="nofill"></path>
    <text x="570" y="332" >for</text>
    <text x="602" y="332" >debugging</text>
    <path d="M 672,320 A 16,16 0,0,1 672,336" class="nofill"></path>
    <text x="346" y="348" >EC2</text>
    <text x="378" y="348" >key</text>
    <text x="410" y="348" >pair</text>
    <text x="450" y="348" >name</text>
    <text x="346" y="364" >NAT</text>
    <text x="378" y="364" >Gateway</text>
    <text x="442" y="364" >in</text>
    <text x="466" y="364" >each</text>
    <text x="506" y="364" >AZ</text>
    <path d="M 536,352 A 16,16 0,0,0 536,368" class="nofill"></path>
    <text x="538" y="364" >production</text>
    <line x1="616" y1="360" x2="624" y2="360" class="solid"></line>
    <text x="626" y="364" >grade</text>
    <path d="M 664,352 A 16,16 0,0,1 664,368" class="nofill"></path>
    <text x="346" y="380" >Allow</text>
    <text x="394" y="380" >Cluster</text>
    <text x="458" y="380" >Autoscaler</text>
    <text x="546" y="380" >to</text>
    <text x="570" y="380" >manage</text>
    <text x="626" y="380" >ASGs</text>
    <text x="346" y="396" >Grant</text>
    <text x="394" y="396" >nodes</text>
    <text x="442" y="396" >access</text>
    <text x="498" y="396" >to</text>
    <text x="522" y="396" >ECR</text>
    <path d="M 560,384 A 16,16 0,0,0 560,400" class="nofill"></path>
    <text x="562" y="396" >container</text>
    <text x="642" y="396" >registry</text>
    <path d="M 704,384 A 16,16 0,0,1 704,400" class="nofill"></path>
    <line x1="216" y1="208" x2="224" y2="224" class="solid"></line>
    <text x="554" y="220" >group</text>
    <text x="554" y="236" >GB</text>
    <text x="578" y="236" >RAM</text>
    <path d="M 600,224 A 16,16 0,0,1 600,240" class="nofill"></path>
    <text x="114" y="268" >2</text>
    <line x1="128" y1="256" x2="144" y2="288" class="solid"></line>
    <text x="114" y="284" >10</text>
    <path d="M 728,304 A 16,16 0,0,0 728,320" class="nofill"></path>
    <text x="730" y="316" >IRSA</text>
    <path d="M 760,304 A 16,16 0,0,1 760,320" class="nofill"></path>
    <line x1="264" y1="352" x2="272" y2="368" class="solid"></line>
    <rect x="0" y="420" width="8" height="8" class="solid filled" rx="0"></rect>
    <line x1="4" y1="428" x2="4" y2="436" class="solid"></line>
    <rect x="0" y="436" width="8" height="8" class="solid filled" rx="0"></rect>
    <line x1="4" y1="444" x2="4" y2="452" class="solid"></line>
    <rect x="0" y="452" width="8" height="8" class="solid filled" rx="0"></rect>
    <line x1="4" y1="460" x2="4" y2="468" class="solid"></line>
    <rect x="0" y="468" width="8" height="8" class="solid filled" rx="0"></rect>
    <line x1="4" y1="476" x2="4" y2="484" class="solid"></line>
    <rect x="0" y="484" width="8" height="8" class="solid filled" rx="0"></rect>
    <text x="18" y="428" >This</text>
    <text x="58" y="428" >command</text>
    <text x="122" y="428" >takes</text>
    <text x="170" y="428" >15</text>
    <line x1="184" y1="424" x2="192" y2="424" class="solid"></line>
    <text x="194" y="428" >20</text>
    <text x="218" y="428" >minutes.</text>
    <text x="290" y="428" >It</text>
    <text x="314" y="428" >creates:</text>
    <line x1="16" y1="440" x2="24" y2="440" class="solid"></line>
    <text x="34" y="444" >A</text>
    <text x="50" y="444" >VPC</text>
    <text x="82" y="444" >with</text>
    <text x="122" y="444" >public</text>
    <text x="178" y="444" >and</text>
    <text x="210" y="444" >private</text>
    <text x="274" y="444" >subnets</text>
    <text x="338" y="444" >across</text>
    <line x1="16" y1="456" x2="24" y2="456" class="solid"></line>
    <text x="34" y="460" >The</text>
    <text x="66" y="460" >EKS</text>
    <text x="98" y="460" >control</text>
    <text x="162" y="460" >plane</text>
    <path d="M 216,448 A 16,16 0,0,0 216,464" class="nofill"></path>
    <text x="218" y="460" >managed</text>
    <text x="282" y="460" >by</text>
    <text x="306" y="460" >AWS</text>
    <path d="M 328,448 A 16,16 0,0,1 328,464" class="nofill"></path>
    <line x1="16" y1="472" x2="24" y2="472" class="solid"></line>
    <text x="34" y="476" >A</text>
    <text x="50" y="476" >managed</text>
    <text x="114" y="476" >node</text>
    <text x="154" y="476" >group</text>
    <text x="202" y="476" >with</text>
    <text x="242" y="476" >3</text>
    <text x="258" y="476" >m5.xlarge</text>
    <text x="338" y="476" >instances</text>
    <line x1="16" y1="488" x2="24" y2="488" class="solid"></line>
    <text x="34" y="492" >IAM</text>
    <text x="66" y="492" >roles,</text>
    <text x="122" y="492" >security</text>
    <text x="194" y="492" >groups,</text>
    <text x="258" y="492" >and</text>
    <text x="290" y="492" >OIDC</text>
    <text x="330" y="492" >provider</text>
    <text x="394" y="444" >3</text>
    <text x="410" y="444" >AZs</text>
    <text x="2" y="524" >#</text>
    <line x1="16" y1="520" x2="32" y2="520" class="solid"></line>
    <text x="42" y="524" >Verify</text>
    <line x1="96" y1="520" x2="544" y2="520" class="solid"></line>
    <text x="2" y="540" >kubectl</text>
    <text x="66" y="540" >get</text>
    <text x="98" y="540" >nodes</text>
    <line x1="144" y1="536" x2="152" y2="536" class="solid"></line>
    <circle cx="156" cy="536" r="3" class="nofill"></circle>
    <text x="170" y="540" >wide</text>
    <text x="330" y="540" >#</text>
    <text x="346" y="540" >All</text>
    <text x="378" y="540" >nodes</text>
    <text x="426" y="540" >should</text>
    <text x="482" y="540" >be</text>
    <text x="506" y="540" >Ready</text>
    <text x="2" y="556" >aws</text>
    <text x="34" y="556" >eks</text>
    <text x="66" y="556" >describe</text>
    <line x1="128" y1="552" x2="136" y2="552" class="solid"></line>
    <text x="138" y="556" >cluster</text>
    <line x1="200" y1="552" x2="216" y2="552" class="solid"></line>
    <text x="218" y="556" >name</text>
    <text x="258" y="556" >production</text>
    <line x1="344" y1="552" x2="360" y2="552" class="solid"></line>
    <text x="362" y="556" >query</text>
    <text x="410" y="556" >&#39;cluster.status&#39;</text>
    <text x="2" y="572" >#</text>
    <text x="18" y="572" >Output:</text>
    <text x="202" y="44" >https://github.com/eksctl-io/eksctl/releases/latest/download/eksctl_$(uname -s)_amd64.tar.gz</text>
    <text x="82" y="572" >ACTIVE</text>
    <g>
        <path d="M 464,256 A 16,16 0,0,0 464,272" class="nofill"></path>
        <path d="M 464,272 A 16,16 0,0,0 464,288" class="nofill"></path>
    </g>
    <g>
        <path d="M 640,256 A 16,16 0,0,1 640,272" class="nofill"></path>
        <path d="M 640,272 A 16,16 0,0,1 640,288" class="nofill"></path>
    </g>
</svg>