<svg xmlns="http://www.w3.org/2000/svg" width="832" height="208" style="background:#ffffff;border:1px solid #e5e5e5;border-radius:8px;max-width:100%;height:auto"><rect x="0" y="0" width="100%" height="100%" fill="#ffffff"/>
    <style>
        line, path, circle, rect, polygon{stroke:black;stroke-width:2;stroke-opacity:1;fill-opacity:1;stroke-linecap:round;stroke-linejoin:miter;}text{font-family:Iosevka Fixed, monospace;font-size:14px;}rect.backdrop{stroke:none;fill:transparent;}.broken{stroke-dasharray:8;}.filled{fill:black;}.bg_filled{fill:transparent;}.nofill{fill:transparent;}.end_marked_arrow{marker-end:url(#arrow);}.start_marked_arrow{marker-start:url(#arrow);}.end_marked_diamond{marker-end:url(#diamond);}.start_marked_diamond{marker-start:url(#diamond);}.end_marked_circle{marker-end:url(#circle);}.start_marked_circle{marker-start:url(#circle);}.end_marked_open_circle{marker-end:url(#open_circle);}.start_marked_open_circle{marker-start:url(#open_circle);}.end_marked_big_open_circle{marker-end:url(#big_open_circle);}.start_marked_big_open_circle{marker-start:url(#big_open_circle);}
        <!--separator-->
        
    </style>
    <defs>
        <marker id="arrow" viewBox="-2 -2 8 8" refX="4" refY="2" markerWidth="7" markerHeight="7" orient="auto-start-reverse">
            <polygon points="0,0 0,4 4,2 0,0"></polygon>
        </marker>
        <marker id="diamond" viewBox="-2 -2 8 8" refX="4" refY="2" markerWidth="7" markerHeight="7" orient="auto-start-reverse">
            <polygon points="0,2 2,0 4,2 2,4 0,2"></polygon>
        </marker>
        <marker id="circle" viewBox="0 0 8 8" refX="4" refY="4" markerWidth="7" markerHeight="7" orient="auto-start-reverse">
            <circle cx="4" cy="4" r="2" class="filled"></circle>
        </marker>
        <marker id="open_circle" viewBox="0 0 8 8" refX="4" refY="4" markerWidth="7" markerHeight="7" orient="auto-start-reverse">
            <circle cx="4" cy="4" r="2" class="bg_filled"></circle>
        </marker>
        <marker id="big_open_circle" viewBox="0 0 8 8" refX="4" refY="4" markerWidth="7" markerHeight="7" orient="auto-start-reverse">
            <circle cx="4" cy="4" r="3" class="bg_filled"></circle>
        </marker>
    </defs>
    <rect class="backdrop" x="0" y="0" width="832" height="208"></rect>
    <text x="2" y="12" >#</text>
    <line x1="16" y1="8" x2="32" y2="8" class="solid"></line>
    <text x="42" y="12" >Manual</text>
    <text x="98" y="12" >scaling</text>
    <line x1="160" y1="8" x2="544" y2="8" class="solid"></line>
    <text x="2" y="28" >kubectl</text>
    <text x="66" y="28" >scale</text>
    <text x="114" y="28" >deployment</text>
    <text x="202" y="28" >api</text>
    <line x1="224" y1="24" x2="232" y2="24" class="solid"></line>
    <text x="234" y="28" >server</text>
    <line x1="288" y1="24" x2="304" y2="24" class="solid"></line>
    <text x="306" y="28" >replicas</text>
    <line x1="368" y1="22" x2="376" y2="22" class="solid"></line>
    <line x1="368" y1="26" x2="376" y2="26" class="solid"></line>
    <text x="378" y="28" >5</text>
    <rect x="424" y="20" width="8" height="8" class="solid filled" rx="0"></rect>
    <line x1="428" y1="28" x2="428" y2="36" class="solid"></line>
    <text x="442" y="28" >Scale</text>
    <text x="490" y="28" >to</text>
    <text x="514" y="28" >5</text>
    <text x="530" y="28" >replicas</text>
    <text x="2" y="44" >kubectl</text>
    <text x="66" y="44" >scale</text>
    <text x="114" y="44" >deployment</text>
    <text x="202" y="44" >api</text>
    <line x1="224" y1="40" x2="232" y2="40" class="solid"></line>
    <text x="234" y="44" >server</text>
    <line x1="288" y1="40" x2="304" y2="40" class="solid"></line>
    <text x="306" y="44" >replicas</text>
    <line x1="368" y1="38" x2="376" y2="38" class="solid"></line>
    <line x1="368" y1="42" x2="376" y2="42" class="solid"></line>
    <text x="378" y="44" >1</text>
    <rect x="424" y="36" width="8" height="8" class="solid filled" rx="0"></rect>
    <text x="442" y="44" >Scale</text>
    <text x="490" y="44" >down</text>
    <text x="530" y="44" >to</text>
    <text x="554" y="44" >1</text>
    <text x="570" y="44" >replica</text>
    <text x="2" y="76" >#</text>
    <line x1="16" y1="72" x2="32" y2="72" class="solid"></line>
    <text x="42" y="76" >Rollout</text>
    <text x="106" y="76" >management</text>
    <line x1="192" y1="72" x2="536" y2="72" class="solid"></line>
    <text x="2" y="92" >kubectl</text>
    <text x="66" y="92" >rollout</text>
    <text x="130" y="92" >status</text>
    <text x="186" y="92" >deployment</text>
    <line x1="272" y1="80" x2="264" y2="96" class="solid"></line>
    <text x="274" y="92" >api</text>
    <line x1="296" y1="88" x2="304" y2="88" class="solid"></line>
    <text x="306" y="92" >server</text>
    <rect x="424" y="84" width="8" height="8" class="solid filled" rx="0"></rect>
    <line x1="428" y1="92" x2="428" y2="100" class="solid"></line>
    <text x="442" y="92" >Watch</text>
    <text x="490" y="92" >the</text>
    <text x="522" y="92" >rollout</text>
    <text x="586" y="92" >progress</text>
    <text x="2" y="108" >kubectl</text>
    <text x="66" y="108" >rollout</text>
    <text x="130" y="108" >history</text>
    <text x="194" y="108" >deployment</text>
    <line x1="280" y1="96" x2="272" y2="112" class="solid"></line>
    <text x="282" y="108" >api</text>
    <line x1="304" y1="104" x2="312" y2="104" class="solid"></line>
    <text x="314" y="108" >server</text>
    <rect x="424" y="100" width="8" height="8" class="solid filled" rx="0"></rect>
    <line x1="428" y1="108" x2="428" y2="116" class="solid"></line>
    <text x="442" y="108" >List</text>
    <text x="482" y="108" >all</text>
    <text x="514" y="108" >rollout</text>
    <text x="578" y="108" >revisions</text>
    <text x="2" y="124" >kubectl</text>
    <text x="66" y="124" >rollout</text>
    <text x="130" y="124" >undo</text>
    <text x="170" y="124" >deployment</text>
    <line x1="256" y1="112" x2="248" y2="128" class="solid"></line>
    <text x="258" y="124" >api</text>
    <line x1="280" y1="120" x2="288" y2="120" class="solid"></line>
    <text x="290" y="124" >server</text>
    <rect x="424" y="116" width="8" height="8" class="solid filled" rx="0"></rect>
    <text x="442" y="124" >Roll</text>
    <text x="482" y="124" >back</text>
    <text x="522" y="124" >to</text>
    <text x="546" y="124" >the</text>
    <text x="578" y="124" >previous</text>
    <text x="650" y="124" >revision</text>
    <text x="2" y="140" >kubectl</text>
    <text x="66" y="140" >rollout</text>
    <text x="130" y="140" >undo</text>
    <text x="170" y="140" >deployment</text>
    <line x1="256" y1="128" x2="248" y2="144" class="solid"></line>
    <text x="258" y="140" >api</text>
    <line x1="280" y1="136" x2="288" y2="136" class="solid"></line>
    <text x="290" y="140" >server</text>
    <line x1="344" y1="136" x2="360" y2="136" class="solid"></line>
    <text x="362" y="140" >t</text>
    <circle cx="372" cy="136" r="3" class="nofill"></circle>
    <line x1="376" y1="136" x2="384" y2="136" class="solid"></line>
    <text x="386" y="140" >revision</text>
    <line x1="448" y1="134" x2="456" y2="134" class="solid"></line>
    <line x1="448" y1="138" x2="456" y2="138" class="solid"></line>
    <text x="458" y="140" >3</text>
    <text x="482" y="140" >#</text>
    <text x="498" y="140" >Roll</text>
    <text x="538" y="140" >back</text>
    <text x="578" y="140" >to</text>
    <text x="602" y="140" >a</text>
    <text x="618" y="140" >specific</text>
    <text x="690" y="140" >revision</text>
    <text x="2" y="156" >kubectl</text>
    <text x="66" y="156" >rollout</text>
    <text x="130" y="156" >restart</text>
    <text x="194" y="156" >deployment</text>
    <line x1="280" y1="144" x2="272" y2="160" class="solid"></line>
    <text x="282" y="156" >api</text>
    <line x1="304" y1="152" x2="312" y2="152" class="solid"></line>
    <text x="314" y="156" >server</text>
    <rect x="424" y="148" width="8" height="8" class="solid filled" rx="0"></rect>
    <line x1="428" y1="156" x2="428" y2="164" class="solid"></line>
    <text x="442" y="156" >Restart</text>
    <text x="506" y="156" >all</text>
    <text x="538" y="156" >Pods</text>
    <path d="M 584,144 A 16,16 0,0,0 584,160" class="nofill"></path>
    <text x="586" y="156" >triggers</text>
    <text x="658" y="156" >a</text>
    <text x="674" y="156" >new</text>
    <text x="706" y="156" >rollout</text>
    <path d="M 760,144 A 16,16 0,0,1 760,160" class="nofill"></path>
    <text x="2" y="172" >kubectl</text>
    <text x="66" y="172" >rollout</text>
    <text x="130" y="172" >pause</text>
    <text x="178" y="172" >deployment</text>
    <line x1="264" y1="160" x2="256" y2="176" class="solid"></line>
    <text x="266" y="172" >api</text>
    <line x1="288" y1="168" x2="296" y2="168" class="solid"></line>
    <text x="298" y="172" >server</text>
    <rect x="424" y="164" width="8" height="8" class="solid filled" rx="0"></rect>
    <line x1="428" y1="172" x2="428" y2="180" class="solid"></line>
    <text x="442" y="172" >Pause</text>
    <text x="490" y="172" >a</text>
    <text x="506" y="172" >rollout</text>
    <path d="M 576,160 A 16,16 0,0,0 576,176" class="nofill"></path>
    <text x="578" y="172" >for</text>
    <text x="610" y="172" >canary</text>
    <line x1="656" y1="168" x2="664" y2="168" class="solid"></line>
    <text x="666" y="172" >style</text>
    <text x="714" y="172" >manual</text>
    <text x="770" y="172" >gating</text>
    <path d="M 816,160 A 16,16 0,0,1 816,176" class="nofill"></path>
    <text x="2" y="188" >kubectl</text>
    <text x="66" y="188" >rollout</text>
    <text x="130" y="188" >resume</text>
    <text x="186" y="188" >deployment</text>
    <line x1="272" y1="176" x2="264" y2="192" class="solid"></line>
    <text x="274" y="188" >api</text>
    <line x1="296" y1="184" x2="304" y2="184" class="solid"></line>
    <text x="306" y="188" >server</text>
    <rect x="424" y="180" width="8" height="8" class="solid filled" rx="0"></rect>
    <text x="442" y="188" >Resume</text>
    <text x="498" y="188" >a</text>
    <text x="514" y="188" >paused</text>
    <text x="570" y="188" >rollout</text>
    <text x="658" y="92" >in</text>
    <text x="682" y="92" >real</text>
    <line x1="712" y1="88" x2="720" y2="88" class="solid"></line>
    <text x="722" y="92" >time</text>
</svg>