<svg xmlns="http://www.w3.org/2000/svg" width="456" height="224" style="background:#ffffff;border:1px solid #e5e5e5;border-radius:8px;max-width:100%;height:auto"><rect x="0" y="0" width="100%" height="100%" fill="#ffffff"/>
    <style>
        line, path, circle, rect, polygon{stroke:black;stroke-width:2;stroke-opacity:1;fill-opacity:1;stroke-linecap:round;stroke-linejoin:miter;}text{font-family:Iosevka Fixed, monospace;font-size:14px;}rect.backdrop{stroke:none;fill:transparent;}.broken{stroke-dasharray:8;}.filled{fill:black;}.bg_filled{fill:transparent;}.nofill{fill:transparent;}.end_marked_arrow{marker-end:url(#arrow);}.start_marked_arrow{marker-start:url(#arrow);}.end_marked_diamond{marker-end:url(#diamond);}.start_marked_diamond{marker-start:url(#diamond);}.end_marked_circle{marker-end:url(#circle);}.start_marked_circle{marker-start:url(#circle);}.end_marked_open_circle{marker-end:url(#open_circle);}.start_marked_open_circle{marker-start:url(#open_circle);}.end_marked_big_open_circle{marker-end:url(#big_open_circle);}.start_marked_big_open_circle{marker-start:url(#big_open_circle);}
        <!--separator-->
        
    </style>
    <defs>
        <marker id="arrow" viewBox="-2 -2 8 8" refX="4" refY="2" markerWidth="7" markerHeight="7" orient="auto-start-reverse">
            <polygon points="0,0 0,4 4,2 0,0"></polygon>
        </marker>
        <marker id="diamond" viewBox="-2 -2 8 8" refX="4" refY="2" markerWidth="7" markerHeight="7" orient="auto-start-reverse">
            <polygon points="0,2 2,0 4,2 2,4 0,2"></polygon>
        </marker>
        <marker id="circle" viewBox="0 0 8 8" refX="4" refY="4" markerWidth="7" markerHeight="7" orient="auto-start-reverse">
            <circle cx="4" cy="4" r="2" class="filled"></circle>
        </marker>
        <marker id="open_circle" viewBox="0 0 8 8" refX="4" refY="4" markerWidth="7" markerHeight="7" orient="auto-start-reverse">
            <circle cx="4" cy="4" r="2" class="bg_filled"></circle>
        </marker>
        <marker id="big_open_circle" viewBox="0 0 8 8" refX="4" refY="4" markerWidth="7" markerHeight="7" orient="auto-start-reverse">
            <circle cx="4" cy="4" r="3" class="bg_filled"></circle>
        </marker>
    </defs>
    <rect class="backdrop" x="0" y="0" width="456" height="224"></rect>
    <text x="34" y="28" >Component</text>
    <text x="194" y="28" >IaaS</text>
    <text x="282" y="28" >PaaS</text>
    <text x="370" y="28" >SaaS</text>
    <text x="34" y="60" >Application</text>
    <text x="194" y="60" >YOU</text>
    <text x="282" y="60" >YOU</text>
    <text x="362" y="60" >Provider</text>
    <text x="34" y="76" >Data</text>
    <text x="194" y="76" >YOU</text>
    <text x="282" y="76" >YOU</text>
    <text x="362" y="76" >Provider</text>
    <text x="34" y="92" >Runtime</text>
    <text x="194" y="92" >YOU</text>
    <text x="274" y="92" >Provider</text>
    <text x="362" y="92" >Provider</text>
    <text x="34" y="108" >Middleware</text>
    <line x1="180" y1="96" x2="180" y2="112" class="solid"></line>
    <text x="202" y="108" >YOU</text>
    <line x1="268" y1="96" x2="268" y2="112" class="solid"></line>
    <text x="282" y="108" >Provider</text>
    <line x1="356" y1="96" x2="356" y2="112" class="solid"></line>
    <text x="370" y="108" >Provider</text>
    <line x1="444" y1="96" x2="444" y2="112" class="solid"></line>
    <text x="34" y="124" >Operating</text>
    <text x="114" y="124" >System</text>
    <text x="194" y="124" >YOU</text>
    <text x="274" y="124" >Provider</text>
    <text x="362" y="124" >Provider</text>
    <text x="34" y="140" >Virtualization</text>
    <text x="186" y="140" >Provider</text>
    <text x="274" y="140" >Provider</text>
    <text x="362" y="140" >Provider</text>
    <text x="34" y="156" >Servers</text>
    <text x="186" y="156" >Provider</text>
    <text x="274" y="156" >Provider</text>
    <text x="362" y="156" >Provider</text>
    <text x="34" y="172" >Storage</text>
    <text x="186" y="172" >Provider</text>
    <text x="274" y="172" >Provider</text>
    <text x="362" y="172" >Provider</text>
    <text x="34" y="188" >Networking</text>
    <text x="186" y="188" >Provider</text>
    <text x="274" y="188" >Provider</text>
    <text x="362" y="188" >Provider</text>
    <g>
        <line x1="20" y1="8" x2="436" y2="8" class="solid"></line>
        <line x1="20" y1="8" x2="20" y2="200" class="solid"></line>
        <line x1="172" y1="8" x2="172" y2="96" class="solid"></line>
        <line x1="260" y1="8" x2="260" y2="96" class="solid"></line>
        <line x1="348" y1="8" x2="348" y2="96" class="solid"></line>
        <line x1="436" y1="8" x2="436" y2="96" class="solid"></line>
        <line x1="20" y1="40" x2="436" y2="40" class="solid"></line>
        <line x1="436" y1="112" x2="436" y2="200" class="solid"></line>
        <line x1="20" y1="200" x2="436" y2="200" class="solid"></line>
        <line x1="172" y1="112" x2="172" y2="200" class="solid"></line>
        <line x1="260" y1="112" x2="260" y2="200" class="solid"></line>
        <line x1="348" y1="112" x2="348" y2="200" class="solid"></line>
    </g>
</svg>