<svg xmlns="http://www.w3.org/2000/svg" width="496" height="432" style="background:#ffffff;border:1px solid #e5e5e5;border-radius:8px;max-width:100%;height:auto"><rect x="0" y="0" width="100%" height="100%" fill="#ffffff"/>
    <style>
        line, path, circle, rect, polygon{stroke:black;stroke-width:2;stroke-opacity:1;fill-opacity:1;stroke-linecap:round;stroke-linejoin:miter;}text{font-family:Iosevka Fixed, monospace;font-size:14px;}rect.backdrop{stroke:none;fill:transparent;}.broken{stroke-dasharray:8;}.filled{fill:black;}.bg_filled{fill:transparent;}.nofill{fill:transparent;}.end_marked_arrow{marker-end:url(#arrow);}.start_marked_arrow{marker-start:url(#arrow);}.end_marked_diamond{marker-end:url(#diamond);}.start_marked_diamond{marker-start:url(#diamond);}.end_marked_circle{marker-end:url(#circle);}.start_marked_circle{marker-start:url(#circle);}.end_marked_open_circle{marker-end:url(#open_circle);}.start_marked_open_circle{marker-start:url(#open_circle);}.end_marked_big_open_circle{marker-end:url(#big_open_circle);}.start_marked_big_open_circle{marker-start:url(#big_open_circle);}
        <!--separator-->
        
    </style>
    <defs>
        <marker id="arrow" viewBox="-2 -2 8 8" refX="4" refY="2" markerWidth="7" markerHeight="7" orient="auto-start-reverse">
            <polygon points="0,0 0,4 4,2 0,0"></polygon>
        </marker>
        <marker id="diamond" viewBox="-2 -2 8 8" refX="4" refY="2" markerWidth="7" markerHeight="7" orient="auto-start-reverse">
            <polygon points="0,2 2,0 4,2 2,4 0,2"></polygon>
        </marker>
        <marker id="circle" viewBox="0 0 8 8" refX="4" refY="4" markerWidth="7" markerHeight="7" orient="auto-start-reverse">
            <circle cx="4" cy="4" r="2" class="filled"></circle>
        </marker>
        <marker id="open_circle" viewBox="0 0 8 8" refX="4" refY="4" markerWidth="7" markerHeight="7" orient="auto-start-reverse">
            <circle cx="4" cy="4" r="2" class="bg_filled"></circle>
        </marker>
        <marker id="big_open_circle" viewBox="0 0 8 8" refX="4" refY="4" markerWidth="7" markerHeight="7" orient="auto-start-reverse">
            <circle cx="4" cy="4" r="3" class="bg_filled"></circle>
        </marker>
    </defs>
    <rect class="backdrop" x="0" y="0" width="496" height="432"></rect>
    <text x="18" y="12" >BIN</text>
    <text x="50" y="12" >PACKING</text>
    <text x="114" y="12" >EXAMPLE</text>
    <line x1="16" y1="22" x2="176" y2="22" class="solid"></line>
    <line x1="16" y1="26" x2="176" y2="26" class="solid"></line>
    <text x="18" y="60" >Physical</text>
    <text x="90" y="60" >Server:</text>
    <text x="154" y="60" >64</text>
    <text x="178" y="60" >vCPU,</text>
    <text x="226" y="60" >256</text>
    <text x="258" y="60" >GB</text>
    <text x="282" y="60" >RAM,</text>
    <text x="322" y="60" >2</text>
    <text x="338" y="60" >TB</text>
    <text x="362" y="60" >disk</text>
    <text x="18" y="92" >VM</text>
    <text x="18" y="108" >A</text>
    <line x1="28" y1="96" x2="28" y2="160" class="broken"></line>
    <text x="18" y="124" >B</text>
    <text x="18" y="140" >C</text>
    <text x="18" y="156" >D</text>
    <text x="42" y="92" >requests:</text>
    <text x="50" y="108" >4</text>
    <text x="66" y="108" >vCPU,</text>
    <text x="114" y="108" >16</text>
    <text x="50" y="124" >2</text>
    <text x="66" y="124" >vCPU,</text>
    <text x="114" y="124" >32</text>
    <text x="50" y="140" >8</text>
    <text x="66" y="140" >vCPU,</text>
    <text x="122" y="140" >8</text>
    <text x="50" y="156" >1</text>
    <text x="66" y="156" >vCPU,</text>
    <text x="114" y="156" >64</text>
    <text x="138" y="108" >GB</text>
    <text x="138" y="124" >GB</text>
    <text x="138" y="140" >GB</text>
    <text x="138" y="156" >GB</text>
    <text x="162" y="108" >RAM,</text>
    <text x="162" y="124" >RAM,</text>
    <text x="162" y="140" >RAM,</text>
    <text x="162" y="156" >RAM,</text>
    <text x="202" y="108" >100</text>
    <text x="202" y="124" >200</text>
    <text x="210" y="140" >50</text>
    <text x="202" y="156" >500</text>
    <text x="234" y="108" >GB</text>
    <text x="234" y="124" >GB</text>
    <text x="234" y="140" >GB</text>
    <text x="234" y="156" >GB</text>
    <text x="258" y="108" >disk</text>
    <text x="258" y="124" >disk</text>
    <text x="258" y="140" >disk</text>
    <text x="258" y="156" >disk</text>
    <text x="18" y="188" >Packing</text>
    <text x="82" y="188" >attempt:</text>
    <text x="42" y="220" >Server</text>
    <path d="M 104,208 A 16,16 0,0,0 104,224" class="nofill"></path>
    <text x="106" y="220" >64</text>
    <text x="130" y="220" >vCPU</text>
    <line x1="176" y1="208" x2="168" y2="224" class="solid"></line>
    <text x="186" y="220" >256</text>
    <text x="218" y="220" >GB</text>
    <line x1="248" y1="208" x2="240" y2="224" class="solid"></line>
    <text x="258" y="220" >2000</text>
    <text x="298" y="220" >GB</text>
    <path d="M 312,208 A 16,16 0,0,1 312,224" class="nofill"></path>
    <text x="42" y="252" >[A][A][A][A][A]</text>
    <line x1="176" y1="246" x2="184" y2="246" class="solid"></line>
    <line x1="176" y1="250" x2="184" y2="250" class="solid"></line>
    <text x="194" y="252" >20</text>
    <text x="218" y="252" >vCPU,</text>
    <text x="266" y="252" >80</text>
    <text x="290" y="252" >GB,</text>
    <text x="330" y="252" >500</text>
    <text x="362" y="252" >GB</text>
    <line x1="428" y1="240" x2="428" y2="304" class="solid"></line>
    <text x="42" y="268" >[B][B][B]</text>
    <line x1="176" y1="262" x2="184" y2="262" class="solid"></line>
    <line x1="176" y1="266" x2="184" y2="266" class="solid"></line>
    <text x="202" y="268" >6</text>
    <text x="218" y="268" >vCPU,</text>
    <text x="266" y="268" >96</text>
    <text x="290" y="268" >GB,</text>
    <text x="330" y="268" >600</text>
    <text x="362" y="268" >GB</text>
    <text x="42" y="284" >[C][C]</text>
    <line x1="176" y1="278" x2="184" y2="278" class="solid"></line>
    <line x1="176" y1="282" x2="184" y2="282" class="solid"></line>
    <text x="194" y="284" >16</text>
    <text x="218" y="284" >vCPU,</text>
    <text x="266" y="284" >16</text>
    <text x="290" y="284" >GB,</text>
    <text x="330" y="284" >100</text>
    <text x="362" y="284" >GB</text>
    <text x="42" y="300" >[D]</text>
    <line x1="176" y1="294" x2="184" y2="294" class="solid"></line>
    <line x1="176" y1="298" x2="184" y2="298" class="solid"></line>
    <text x="202" y="300" >1</text>
    <text x="218" y="300" >vCPU,</text>
    <text x="266" y="300" >64</text>
    <text x="290" y="300" >GB,</text>
    <text x="330" y="300" >500</text>
    <text x="362" y="300" >GB</text>
    <line x1="40" y1="312" x2="424" y2="312" class="solid"></line>
    <line x1="436" y1="304" x2="436" y2="352" class="solid"></line>
    <text x="42" y="332" >Total:</text>
    <text x="186" y="332" >43</text>
    <text x="210" y="332" >vCPU,</text>
    <text x="258" y="332" >256</text>
    <text x="290" y="332" >GB,</text>
    <text x="322" y="332" >1700</text>
    <text x="362" y="332" >GB</text>
    <text x="42" y="348" >Remaining:</text>
    <text x="186" y="348" >21</text>
    <text x="210" y="348" >vCPU,</text>
    <text x="274" y="348" >0</text>
    <text x="290" y="348" >GB,</text>
    <text x="330" y="348" >300</text>
    <text x="362" y="348" >GB</text>
    <line x1="444" y1="224" x2="444" y2="240" class="solid"></line>
    <text x="18" y="396" >RAM</text>
    <text x="50" y="396" >is</text>
    <text x="74" y="396" >the</text>
    <text x="18" y="412" >exhausting</text>
    <text x="106" y="396" >bottleneck</text>
    <text x="194" y="396" >here</text>
    <line x1="232" y1="392" x2="248" y2="392" class="solid"></line>
    <text x="258" y="396" >we</text>
    <text x="282" y="396" >hit</text>
    <text x="314" y="396" >the</text>
    <text x="106" y="412" >CPU</text>
    <text x="138" y="412" >or</text>
    <text x="162" y="412" >disk.</text>
    <text x="210" y="412" >This</text>
    <text x="250" y="412" >is</text>
    <text x="274" y="412" >called</text>
    <text x="346" y="396" >RAM</text>
    <text x="378" y="396" >ceiling</text>
    <text x="442" y="396" >before</text>
    <text x="330" y="412" >stranded resources.</text>
    <g>
        <path d="M 48,96 A 16,16 0,0,0 48,112" class="nofill"></path>
        <path d="M 48,112 A 16,16 0,0,0 48,128" class="nofill"></path>
        <path d="M 48,128 A 16,16 0,0,0 48,144" class="nofill"></path>
        <path d="M 48,144 A 16,16 0,0,0 48,160" class="nofill"></path>
    </g>
    <g>
        <path d="M 288,96 A 16,16 0,0,1 288,112" class="nofill"></path>
        <path d="M 288,112 A 16,16 0,0,1 288,128" class="nofill"></path>
        <path d="M 288,128 A 16,16 0,0,1 288,144" class="nofill"></path>
        <path d="M 288,144 A 16,16 0,0,1 288,160" class="nofill"></path>
    </g>
    <g>
        <line x1="20" y1="200" x2="428" y2="200" class="solid"></line>
        <line x1="20" y1="200" x2="20" y2="360" class="solid"></line>
        <line x1="428" y1="200" x2="428" y2="224" class="solid"></line>
        <line x1="20" y1="360" x2="428" y2="360" class="solid"></line>
    </g>
</svg>