<svg xmlns="http://www.w3.org/2000/svg" width="416" height="368" style="background:#ffffff;border:1px solid #e5e5e5;border-radius:8px;max-width:100%;height:auto"><rect x="0" y="0" width="100%" height="100%" fill="#ffffff"/>
    <style>
        line, path, circle, rect, polygon{stroke:black;stroke-width:2;stroke-opacity:1;fill-opacity:1;stroke-linecap:round;stroke-linejoin:miter;}text{font-family:Iosevka Fixed, monospace;font-size:14px;}rect.backdrop{stroke:none;fill:transparent;}.broken{stroke-dasharray:8;}.filled{fill:black;}.bg_filled{fill:transparent;}.nofill{fill:transparent;}.end_marked_arrow{marker-end:url(#arrow);}.start_marked_arrow{marker-start:url(#arrow);}.end_marked_diamond{marker-end:url(#diamond);}.start_marked_diamond{marker-start:url(#diamond);}.end_marked_circle{marker-end:url(#circle);}.start_marked_circle{marker-start:url(#circle);}.end_marked_open_circle{marker-end:url(#open_circle);}.start_marked_open_circle{marker-start:url(#open_circle);}.end_marked_big_open_circle{marker-end:url(#big_open_circle);}.start_marked_big_open_circle{marker-start:url(#big_open_circle);}
        <!--separator-->
        
    </style>
    <defs>
        <marker id="arrow" viewBox="-2 -2 8 8" refX="4" refY="2" markerWidth="7" markerHeight="7" orient="auto-start-reverse">
            <polygon points="0,0 0,4 4,2 0,0"></polygon>
        </marker>
        <marker id="diamond" viewBox="-2 -2 8 8" refX="4" refY="2" markerWidth="7" markerHeight="7" orient="auto-start-reverse">
            <polygon points="0,2 2,0 4,2 2,4 0,2"></polygon>
        </marker>
        <marker id="circle" viewBox="0 0 8 8" refX="4" refY="4" markerWidth="7" markerHeight="7" orient="auto-start-reverse">
            <circle cx="4" cy="4" r="2" class="filled"></circle>
        </marker>
        <marker id="open_circle" viewBox="0 0 8 8" refX="4" refY="4" markerWidth="7" markerHeight="7" orient="auto-start-reverse">
            <circle cx="4" cy="4" r="2" class="bg_filled"></circle>
        </marker>
        <marker id="big_open_circle" viewBox="0 0 8 8" refX="4" refY="4" markerWidth="7" markerHeight="7" orient="auto-start-reverse">
            <circle cx="4" cy="4" r="3" class="bg_filled"></circle>
        </marker>
    </defs>
    <rect class="backdrop" x="0" y="0" width="416" height="368"></rect>
    <text x="18" y="12" >INDIVIDUAL</text>
    <text x="106" y="12" >WORKLOADS</text>
    <path d="M 192,0 A 16,16 0,0,0 192,16" class="nofill"></path>
    <text x="194" y="12" >Spiky,</text>
    <text x="250" y="12" >Unpredictable</text>
    <path d="M 352,0 A 16,16 0,0,1 352,16" class="nofill"></path>
    <line x1="16" y1="22" x2="368" y2="22" class="solid"></line>
    <line x1="16" y1="26" x2="368" y2="26" class="solid"></line>
    <text x="18" y="60" >Customer</text>
    <text x="42" y="92" >*</text>
    <text x="34" y="108" >*</text>
    <text x="50" y="108" >*</text>
    <text x="26" y="124" >*</text>
    <text x="58" y="124" >*</text>
    <text x="98" y="124" >*</text>
    <text x="66" y="140" >*</text>
    <text x="82" y="140" >**</text>
    <text x="90" y="60" >A:</text>
    <text x="146" y="60" >Customer</text>
    <text x="210" y="92" >*</text>
    <text x="202" y="108" >*</text>
    <text x="218" y="108" >*</text>
    <text x="170" y="124" >*</text>
    <text x="194" y="124" >*</text>
    <text x="226" y="124" >*</text>
    <text x="162" y="140" >*</text>
    <text x="178" y="140" >**</text>
    <text x="234" y="140" >*</text>
    <text x="218" y="60" >B:</text>
    <text x="274" y="60" >Customer</text>
    <text x="314" y="92" >*</text>
    <text x="306" y="108" >*</text>
    <text x="322" y="108" >*</text>
    <text x="290" y="124" >**</text>
    <text x="330" y="124" >**</text>
    <text x="282" y="140" >*</text>
    <text x="346" y="140" >*</text>
    <text x="346" y="60" >C:</text>
    <text x="18" y="188" >AGGREGATED</text>
    <text x="106" y="188" >POOL</text>
    <path d="M 152,176 A 16,16 0,0,0 152,192" class="nofill"></path>
    <text x="154" y="188" >Smooth,</text>
    <text x="218" y="188" >Predictable</text>
    <path d="M 304,176 A 16,16 0,0,1 304,192" class="nofill"></path>
    <line x1="16" y1="198" x2="328" y2="198" class="solid"></line>
    <line x1="16" y1="202" x2="328" y2="202" class="solid"></line>
    <text x="66" y="236" >*****</text>
    <text x="50" y="252" >**</text>
    <text x="106" y="252" >**</text>
    <text x="42" y="268" >*</text>
    <text x="122" y="268" >*</text>
    <text x="34" y="284" >*</text>
    <text x="130" y="284" >*</text>
    <text x="26" y="300" >*</text>
    <text x="138" y="300" >*</text>
    <text x="18" y="348" >The</text>
    <text x="50" y="348" >sum</text>
    <text x="82" y="348" >of</text>
    <text x="106" y="348" >many</text>
    <text x="146" y="348" >spiky</text>
    <text x="194" y="348" >signals</text>
    <text x="258" y="348" >is</text>
    <text x="282" y="348" >a</text>
    <text x="298" y="348" >smooth</text>
    <text x="354" y="348" >signal.</text>
    <g>
        <polygon points="16,76 20,64 24,76" class="filled"></polygon>
        <line x1="20" y1="76" x2="20" y2="152" class="solid"></line>
        <line x1="20" y1="152" x2="112" y2="152" class="solid"></line>
        <polygon points="112,148 120,152 112,156" class="filled"></polygon>
    </g>
    <g>
        <polygon points="144,76 148,64 152,76" class="filled"></polygon>
        <line x1="148" y1="76" x2="148" y2="152" class="solid"></line>
        <line x1="148" y1="152" x2="240" y2="152" class="solid"></line>
        <polygon points="240,148 248,152 240,156" class="filled"></polygon>
    </g>
    <g>
        <polygon points="272,76 276,64 280,76" class="filled"></polygon>
        <line x1="276" y1="76" x2="276" y2="152" class="solid"></line>
        <line x1="276" y1="152" x2="368" y2="152" class="solid"></line>
        <polygon points="368,148 376,152 368,156" class="filled"></polygon>
    </g>
    <g>
        <polygon points="16,220 20,208 24,220" class="filled"></polygon>
        <line x1="20" y1="220" x2="20" y2="312" class="solid"></line>
        <line x1="20" y1="312" x2="192" y2="312" class="solid"></line>
        <polygon points="192,308 200,312 192,316" class="filled"></polygon>
    </g>
</svg>