<svg xmlns="http://www.w3.org/2000/svg" width="600" height="224" style="background:#ffffff;border:1px solid #e5e5e5;border-radius:8px;max-width:100%;height:auto"><rect x="0" y="0" width="100%" height="100%" fill="#ffffff"/>
    <style>
        line, path, circle, rect, polygon{stroke:black;stroke-width:2;stroke-opacity:1;fill-opacity:1;stroke-linecap:round;stroke-linejoin:miter;}text{font-family:Iosevka Fixed, monospace;font-size:14px;}rect.backdrop{stroke:none;fill:transparent;}.broken{stroke-dasharray:8;}.filled{fill:black;}.bg_filled{fill:transparent;}.nofill{fill:transparent;}.end_marked_arrow{marker-end:url(#arrow);}.start_marked_arrow{marker-start:url(#arrow);}.end_marked_diamond{marker-end:url(#diamond);}.start_marked_diamond{marker-start:url(#diamond);}.end_marked_circle{marker-end:url(#circle);}.start_marked_circle{marker-start:url(#circle);}.end_marked_open_circle{marker-end:url(#open_circle);}.start_marked_open_circle{marker-start:url(#open_circle);}.end_marked_big_open_circle{marker-end:url(#big_open_circle);}.start_marked_big_open_circle{marker-start:url(#big_open_circle);}
        <!--separator-->
        
    </style>
    <defs>
        <marker id="arrow" viewBox="-2 -2 8 8" refX="4" refY="2" markerWidth="7" markerHeight="7" orient="auto-start-reverse">
            <polygon points="0,0 0,4 4,2 0,0"></polygon>
        </marker>
        <marker id="diamond" viewBox="-2 -2 8 8" refX="4" refY="2" markerWidth="7" markerHeight="7" orient="auto-start-reverse">
            <polygon points="0,2 2,0 4,2 2,4 0,2"></polygon>
        </marker>
        <marker id="circle" viewBox="0 0 8 8" refX="4" refY="4" markerWidth="7" markerHeight="7" orient="auto-start-reverse">
            <circle cx="4" cy="4" r="2" class="filled"></circle>
        </marker>
        <marker id="open_circle" viewBox="0 0 8 8" refX="4" refY="4" markerWidth="7" markerHeight="7" orient="auto-start-reverse">
            <circle cx="4" cy="4" r="2" class="bg_filled"></circle>
        </marker>
        <marker id="big_open_circle" viewBox="0 0 8 8" refX="4" refY="4" markerWidth="7" markerHeight="7" orient="auto-start-reverse">
            <circle cx="4" cy="4" r="3" class="bg_filled"></circle>
        </marker>
    </defs>
    <rect class="backdrop" x="0" y="0" width="600" height="224"></rect>
    <text x="18" y="12" >OVERLAY</text>
    <text x="82" y="12" >FILESYSTEM</text>
    <line x1="16" y1="22" x2="160" y2="22" class="solid"></line>
    <line x1="16" y1="26" x2="160" y2="26" class="solid"></line>
    <text x="18" y="60" >C</text>
    <circle cx="28" cy="56" r="3" class="nofill"></circle>
    <text x="34" y="60" >ntainer&#39;s</text>
    <text x="114" y="60" >view:</text>
    <text x="194" y="60" >Actual</text>
    <text x="250" y="60" >layers:</text>
    <text x="210" y="92" >Writable</text>
    <text x="282" y="92" >layer</text>
    <path d="M 336,80 A 16,16 0,0,0 336,96" class="nofill"></path>
    <text x="338" y="92" >container</text>
    <path d="M 408,80 A 16,16 0,0,1 408,96" class="nofill"></path>
    <line x1="428" y1="80" x2="428" y2="96" class="solid"></line>
    <text x="210" y="124" >App</text>
    <text x="242" y="124" >layer</text>
    <path d="M 296,112 A 16,16 0,0,0 296,128" class="nofill"></path>
    <text x="298" y="124" >read</text>
    <line x1="328" y1="120" x2="336" y2="120" class="solid"></line>
    <circle cx="340" cy="120" r="3" class="nofill"></circle>
    <text x="346" y="124" >nly</text>
    <path d="M 368,112 A 16,16 0,0,1 368,128" class="nofill"></path>
    <line x1="428" y1="112" x2="428" y2="128" class="solid"></line>
    <text x="210" y="156" >Python</text>
    <text x="266" y="156" >layer</text>
    <path d="M 320,144 A 16,16 0,0,0 320,160" class="nofill"></path>
    <text x="322" y="156" >read</text>
    <line x1="352" y1="152" x2="360" y2="152" class="solid"></line>
    <circle cx="364" cy="152" r="3" class="nofill"></circle>
    <text x="370" y="156" >nly</text>
    <path d="M 392,144 A 16,16 0,0,1 392,160" class="nofill"></path>
    <line x1="428" y1="144" x2="428" y2="160" class="solid"></line>
    <text x="210" y="188" >Ubuntu</text>
    <text x="266" y="188" >layer</text>
    <path d="M 320,176 A 16,16 0,0,0 320,192" class="nofill"></path>
    <text x="322" y="188" >read</text>
    <line x1="352" y1="184" x2="360" y2="184" class="solid"></line>
    <circle cx="364" cy="184" r="3" class="nofill"></circle>
    <text x="370" y="188" >nly</text>
    <path d="M 392,176 A 16,16 0,0,1 392,192" class="nofill"></path>
    <line x1="428" y1="176" x2="428" y2="192" class="solid"></line>
    <text x="50" y="92" >bin</text>
    <line x1="80" y1="80" x2="72" y2="96" class="solid"></line>
    <text x="50" y="108" >etc</text>
    <line x1="80" y1="96" x2="72" y2="112" class="solid"></line>
    <text x="50" y="124" >lib</text>
    <line x1="80" y1="112" x2="72" y2="128" class="solid"></line>
    <text x="50" y="140" >app</text>
    <line x1="80" y1="128" x2="72" y2="144" class="solid"></line>
    <text x="50" y="156" >usr</text>
    <line x1="80" y1="144" x2="72" y2="160" class="solid"></line>
    <text x="474" y="92" >Changes</text>
    <text x="538" y="92" >go</text>
    <text x="562" y="92" >here</text>
    <text x="474" y="124" >pip</text>
    <text x="506" y="124" >install</text>
    <text x="474" y="156" >python:3.11</text>
    <text x="474" y="188" >ubuntu:22.04</text>
    <g>
        <line x1="26" y1="60" x2="20" y2="72" class="solid"></line>
        <line x1="20" y1="72" x2="20" y2="160" class="solid"></line>
        <line x1="20" y1="88" x2="40" y2="88" class="solid"></line>
        <line x1="20" y1="104" x2="40" y2="104" class="solid"></line>
        <line x1="20" y1="120" x2="40" y2="120" class="solid"></line>
        <line x1="20" y1="136" x2="40" y2="136" class="solid"></line>
        <line x1="20" y1="152" x2="40" y2="152" class="solid"></line>
    </g>
    <g>
        <line x1="196" y1="72" x2="420" y2="72" class="solid"></line>
        <line x1="196" y1="72" x2="196" y2="200" class="solid"></line>
        <line x1="196" y1="104" x2="420" y2="104" class="solid"></line>
        <line x1="196" y1="136" x2="420" y2="136" class="solid"></line>
        <line x1="196" y1="168" x2="420" y2="168" class="solid"></line>
        <line x1="196" y1="200" x2="420" y2="200" class="solid"></line>
    </g>
    <g>
        <polygon points="448,84 440,88 448,92" class="filled"></polygon>
        <line x1="448" y1="88" x2="464" y2="88" class="solid"></line>
    </g>
    <g>
        <polygon points="448,116 440,120 448,124" class="filled"></polygon>
        <line x1="448" y1="120" x2="464" y2="120" class="solid"></line>
    </g>
    <g>
        <polygon points="448,148 440,152 448,156" class="filled"></polygon>
        <line x1="448" y1="152" x2="464" y2="152" class="solid"></line>
    </g>
    <g>
        <polygon points="448,180 440,184 448,188" class="filled"></polygon>
        <line x1="448" y1="184" x2="464" y2="184" class="solid"></line>
    </g>
</svg>