<svg xmlns="http://www.w3.org/2000/svg" width="552" height="272" style="background:#ffffff;border:1px solid #e5e5e5;border-radius:8px;max-width:100%;height:auto"><rect x="0" y="0" width="100%" height="100%" fill="#ffffff"/>
    <style>
        line, path, circle, rect, polygon{stroke:black;stroke-width:2;stroke-opacity:1;fill-opacity:1;stroke-linecap:round;stroke-linejoin:miter;}text{font-family:Iosevka Fixed, monospace;font-size:14px;}rect.backdrop{stroke:none;fill:transparent;}.broken{stroke-dasharray:8;}.filled{fill:black;}.bg_filled{fill:transparent;}.nofill{fill:transparent;}.end_marked_arrow{marker-end:url(#arrow);}.start_marked_arrow{marker-start:url(#arrow);}.end_marked_diamond{marker-end:url(#diamond);}.start_marked_diamond{marker-start:url(#diamond);}.end_marked_circle{marker-end:url(#circle);}.start_marked_circle{marker-start:url(#circle);}.end_marked_open_circle{marker-end:url(#open_circle);}.start_marked_open_circle{marker-start:url(#open_circle);}.end_marked_big_open_circle{marker-end:url(#big_open_circle);}.start_marked_big_open_circle{marker-start:url(#big_open_circle);}
        <!--separator-->
        
    </style>
    <defs>
        <marker id="arrow" viewBox="-2 -2 8 8" refX="4" refY="2" markerWidth="7" markerHeight="7" orient="auto-start-reverse">
            <polygon points="0,0 0,4 4,2 0,0"></polygon>
        </marker>
        <marker id="diamond" viewBox="-2 -2 8 8" refX="4" refY="2" markerWidth="7" markerHeight="7" orient="auto-start-reverse">
            <polygon points="0,2 2,0 4,2 2,4 0,2"></polygon>
        </marker>
        <marker id="circle" viewBox="0 0 8 8" refX="4" refY="4" markerWidth="7" markerHeight="7" orient="auto-start-reverse">
            <circle cx="4" cy="4" r="2" class="filled"></circle>
        </marker>
        <marker id="open_circle" viewBox="0 0 8 8" refX="4" refY="4" markerWidth="7" markerHeight="7" orient="auto-start-reverse">
            <circle cx="4" cy="4" r="2" class="bg_filled"></circle>
        </marker>
        <marker id="big_open_circle" viewBox="0 0 8 8" refX="4" refY="4" markerWidth="7" markerHeight="7" orient="auto-start-reverse">
            <circle cx="4" cy="4" r="3" class="bg_filled"></circle>
        </marker>
    </defs>
    <rect class="backdrop" x="0" y="0" width="552" height="272"></rect>
    <text x="18" y="12" >HARDWARE</text>
    <line x1="80" y1="8" x2="88" y2="8" class="solid"></line>
    <text x="90" y="12" >ASSISTED</text>
    <text x="162" y="12" >VIRTUALIZATION</text>
    <line x1="16" y1="22" x2="280" y2="22" class="solid"></line>
    <line x1="16" y1="26" x2="280" y2="26" class="solid"></line>
    <text x="42" y="76" >Ring</text>
    <text x="82" y="76" >3</text>
    <path d="M 104,64 A 16,16 0,0,0 104,80" class="nofill"></path>
    <text x="106" y="76" >Guest</text>
    <text x="154" y="76" >App</text>
    <path d="M 180,64 A 12,12 0,0,1 180,80" class="nofill"></path>
    <text x="42" y="108" >Ring</text>
    <text x="82" y="108" >0</text>
    <path d="M 104,96 A 16,16 0,0,0 104,112" class="nofill"></path>
    <text x="106" y="108" >Guest</text>
    <text x="154" y="108" >Kernel</text>
    <path d="M 200,96 A 16,16 0,0,1 200,112" class="nofill"></path>
    <text x="42" y="140" >VMX</text>
    <text x="74" y="140" >root</text>
    <text x="114" y="140" >mode</text>
    <path d="M 48,144 A 16,16 0,0,0 48,160" class="nofill"></path>
    <text x="50" y="156" >Ring</text>
    <line x1="88" y1="152" x2="96" y2="152" class="solid"></line>
    <text x="98" y="156" >1</text>
    <path d="M 104,144 A 16,16 0,0,1 104,160" class="nofill"></path>
    <text x="42" y="188" >HARDWARE</text>
    <line x1="228" y1="64" x2="228" y2="80" class="solid"></line>
    <line x1="228" y1="96" x2="228" y2="112" class="solid"></line>
    <text x="282" y="108" >Guest</text>
    <text x="330" y="108" >thinks</text>
    <text x="386" y="108" >it</text>
    <text x="410" y="108" >has</text>
    <text x="442" y="108" >full</text>
    <text x="482" y="108" >control</text>
    <line x1="228" y1="128" x2="228" y2="160" class="solid"></line>
    <text x="282" y="140" >Hypervisor</text>
    <text x="370" y="140" >runs</text>
    <text x="410" y="140" >here</text>
    <text x="274" y="156" >CPU</text>
    <text x="306" y="156" >automatically</text>
    <text x="418" y="156" >traps</text>
    <text x="466" y="156" >to</text>
    <text x="490" y="156" >here</text>
    <text x="282" y="172" >when</text>
    <text x="322" y="172" >guest</text>
    <text x="370" y="172" >does</text>
    <text x="410" y="172" >privileged</text>
    <text x="498" y="172" >ops</text>
    <line x1="228" y1="176" x2="228" y2="192" class="solid"></line>
    <text x="18" y="236" >Intel</text>
    <text x="66" y="236" >VT</text>
    <line x1="80" y1="232" x2="88" y2="232" class="solid"></line>
    <text x="90" y="236" >x</text>
    <text x="18" y="252" >All</text>
    <text x="50" y="252" >modern</text>
    <path d="M 112,224 A 16,16 0,0,0 112,240" class="nofill"></path>
    <text x="114" y="236" >2005</text>
    <path d="M 144,224 A 16,16 0,0,1 144,240" class="nofill"></path>
    <line x1="168" y1="224" x2="160" y2="240" class="solid"></line>
    <text x="178" y="236" >AMD</text>
    <line x1="200" y1="232" x2="208" y2="232" class="solid"></line>
    <text x="210" y="236" >V</text>
    <path d="M 232,224 A 16,16 0,0,0 232,240" class="nofill"></path>
    <text x="234" y="236" >2006</text>
    <path d="M 264,224 A 16,16 0,0,1 264,240" class="nofill"></path>
    <text x="106" y="252" >cloud</text>
    <text x="154" y="252" >hypervisors</text>
    <text x="250" y="252" >use</text>
    <text x="282" y="236" >made</text>
    <text x="322" y="236" >this</text>
    <text x="362" y="236" >possible.</text>
    <text x="282" y="252" >hardware</text>
    <line x1="344" y1="248" x2="352" y2="248" class="solid"></line>
    <text x="354" y="252" >assisted</text>
    <text x="434" y="252" >irtualization.</text>
    <g>
        <line x1="20" y1="56" x2="180" y2="56" class="solid"></line>
        <line x1="20" y1="56" x2="20" y2="200" class="solid"></line>
        <line x1="20" y1="88" x2="180" y2="88" class="solid"></line>
        <line x1="20" y1="120" x2="180" y2="120" class="solid"></line>
        <line x1="20" y1="168" x2="180" y2="168" class="solid"></line>
        <line x1="20" y1="200" x2="180" y2="200" class="solid"></line>
    </g>
    <g>
        <polygon points="256,100 248,104 256,108" class="filled"></polygon>
        <line x1="256" y1="104" x2="272" y2="104" class="solid"></line>
    </g>
    <g>
        <polygon points="256,132 248,136 256,140" class="filled"></polygon>
        <line x1="256" y1="136" x2="272" y2="136" class="solid"></line>
    </g>
    <g>
        <line x1="428" y1="240" x2="428" y2="244" class="solid"></line>
        <polygon points="424,244 432,244 428,256" class="filled"></polygon>
    </g>
</svg>