<svg xmlns="http://www.w3.org/2000/svg" width="456" height="288" style="background:#ffffff;border:1px solid #e5e5e5;border-radius:8px;max-width:100%;height:auto"><rect x="0" y="0" width="100%" height="100%" fill="#ffffff"/>
    <style>
        line, path, circle, rect, polygon{stroke:black;stroke-width:2;stroke-opacity:1;fill-opacity:1;stroke-linecap:round;stroke-linejoin:miter;}text{font-family:Iosevka Fixed, monospace;font-size:14px;}rect.backdrop{stroke:none;fill:transparent;}.broken{stroke-dasharray:8;}.filled{fill:black;}.bg_filled{fill:transparent;}.nofill{fill:transparent;}.end_marked_arrow{marker-end:url(#arrow);}.start_marked_arrow{marker-start:url(#arrow);}.end_marked_diamond{marker-end:url(#diamond);}.start_marked_diamond{marker-start:url(#diamond);}.end_marked_circle{marker-end:url(#circle);}.start_marked_circle{marker-start:url(#circle);}.end_marked_open_circle{marker-end:url(#open_circle);}.start_marked_open_circle{marker-start:url(#open_circle);}.end_marked_big_open_circle{marker-end:url(#big_open_circle);}.start_marked_big_open_circle{marker-start:url(#big_open_circle);}
        <!--separator-->
        
    </style>
    <defs>
        <marker id="arrow" viewBox="-2 -2 8 8" refX="4" refY="2" markerWidth="7" markerHeight="7" orient="auto-start-reverse">
            <polygon points="0,0 0,4 4,2 0,0"></polygon>
        </marker>
        <marker id="diamond" viewBox="-2 -2 8 8" refX="4" refY="2" markerWidth="7" markerHeight="7" orient="auto-start-reverse">
            <polygon points="0,2 2,0 4,2 2,4 0,2"></polygon>
        </marker>
        <marker id="circle" viewBox="0 0 8 8" refX="4" refY="4" markerWidth="7" markerHeight="7" orient="auto-start-reverse">
            <circle cx="4" cy="4" r="2" class="filled"></circle>
        </marker>
        <marker id="open_circle" viewBox="0 0 8 8" refX="4" refY="4" markerWidth="7" markerHeight="7" orient="auto-start-reverse">
            <circle cx="4" cy="4" r="2" class="bg_filled"></circle>
        </marker>
        <marker id="big_open_circle" viewBox="0 0 8 8" refX="4" refY="4" markerWidth="7" markerHeight="7" orient="auto-start-reverse">
            <circle cx="4" cy="4" r="3" class="bg_filled"></circle>
        </marker>
    </defs>
    <rect class="backdrop" x="0" y="0" width="456" height="288"></rect>
    <rect x="236" y="104" width="168" height="48" class="solid nofill" rx="0"></rect>
    <text x="250" y="124" >Container</text>
    <line x1="332" y1="112" x2="332" y2="144" class="solid"></line>
    <text x="346" y="124" >Cont.</text>
    <path d="M 256,128 A 16,16 0,0,0 256,144" class="nofill"></path>
    <text x="258" y="140" >ML</text>
    <text x="282" y="140" >svc</text>
    <path d="M 304,128 A 16,16 0,0,1 304,144" class="nofill"></path>
    <path d="M 352,128 A 16,16 0,0,0 352,144" class="nofill"></path>
    <text x="354" y="140" >DB</text>
    <path d="M 368,128 A 16,16 0,0,1 368,144" class="nofill"></path>
    <text x="18" y="12" >CLOUD</text>
    <text x="66" y="12" >REALITY:</text>
    <text x="138" y="12" >VMs</text>
    <text x="170" y="12" >+</text>
    <text x="186" y="12" >CONTAINERS</text>
    <line x1="16" y1="22" x2="280" y2="22" class="solid"></line>
    <line x1="16" y1="26" x2="280" y2="26" class="solid"></line>
    <text x="18" y="60" >Physical</text>
    <text x="90" y="60" >Server</text>
    <text x="50" y="92" >M</text>
    <path d="M 72,80 A 16,16 0,0,0 72,96" class="nofill"></path>
    <text x="74" y="92" >Customer</text>
    <text x="146" y="92" >A</text>
    <path d="M 152,80 A 16,16 0,0,1 152,96" class="nofill"></path>
    <text x="242" y="92" >VM</text>
    <path d="M 272,80 A 16,16 0,0,0 272,96" class="nofill"></path>
    <text x="274" y="92" >Customer</text>
    <text x="346" y="92" >B</text>
    <path d="M 352,80 A 16,16 0,0,1 352,96" class="nofill"></path>
    <line x1="436" y1="80" x2="436" y2="96" class="solid"></line>
    <line x1="428" y1="96" x2="428" y2="160" class="solid"></line>
    <text x="58" y="124" >Container</text>
    <line x1="140" y1="112" x2="140" y2="144" class="solid"></line>
    <text x="154" y="124" >Cont.</text>
    <path d="M 64,128 A 16,16 0,0,0 64,144" class="nofill"></path>
    <text x="66" y="140" >web</text>
    <text x="98" y="140" >app</text>
    <path d="M 120,128 A 16,16 0,0,1 120,144" class="nofill"></path>
    <path d="M 160,128 A 16,16 0,0,0 160,144" class="nofill"></path>
    <text x="162" y="140" >API)</text>
    <text x="58" y="172" >Kubernetes</text>
    <line x1="152" y1="160" x2="144" y2="176" class="solid"></line>
    <text x="162" y="172" >ECS</text>
    <line x1="220" y1="160" x2="220" y2="192" class="solid"></line>
    <line x1="244" y1="160" x2="244" y2="192" class="solid"></line>
    <text x="258" y="172" >Kubernetes</text>
    <line x1="352" y1="160" x2="344" y2="176" class="solid"></line>
    <text x="362" y="172" >ECS</text>
    <line x1="420" y1="160" x2="420" y2="192" class="solid"></line>
    <text x="58" y="188" >Guest</text>
    <text x="106" y="188" >Linux</text>
    <text x="258" y="188" >Guest</text>
    <text x="306" y="188" >Linux</text>
    <line x1="236" y1="200" x2="404" y2="200" class="solid"></line>
    <line x1="428" y1="192" x2="428" y2="208" class="solid"></line>
    <text x="146" y="220" >Hypervisor</text>
    <text x="234" y="220" >(Nitro</text>
    <line x1="296" y1="208" x2="288" y2="224" class="solid"></line>
    <text x="306" y="220" >KVM</text>
    <path d="M 328,208 A 16,16 0,0,1 328,224" class="nofill"></path>
    <line x1="436" y1="208" x2="436" y2="224" class="solid"></line>
    <text x="146" y="252" >Physical</text>
    <text x="218" y="252" >Hardware</text>
    <line x1="444" y1="160" x2="444" y2="192" class="solid"></line>
    <line x1="444" y1="240" x2="444" y2="256" class="solid"></line>
    <g>
        <line x1="20" y1="72" x2="428" y2="72" class="solid"></line>
        <line x1="20" y1="72" x2="20" y2="264" class="solid"></line>
        <line x1="20" y1="232" x2="428" y2="232" class="solid"></line>
        <line x1="20" y1="264" x2="428" y2="264" class="solid"></line>
    </g>
    <g>
        <line x1="40" y1="80" x2="44" y2="96" class="solid"></line>
        <line x1="48" y1="80" x2="44" y2="96" class="solid"></line>
    </g>
    <g>
        <line x1="44" y1="104" x2="212" y2="104" class="solid"></line>
        <line x1="44" y1="104" x2="44" y2="200" class="solid"></line>
        <line x1="212" y1="104" x2="212" y2="152" class="solid"></line>
        <line x1="44" y1="152" x2="212" y2="152" class="solid"></line>
        <line x1="44" y1="200" x2="212" y2="200" class="solid"></line>
    </g>
</svg>