<svg xmlns="http://www.w3.org/2000/svg" width="560" height="304" style="background:#ffffff;border:1px solid #e5e5e5;border-radius:8px;max-width:100%;height:auto"><rect x="0" y="0" width="100%" height="100%" fill="#ffffff"/>
    <style>
        line, path, circle, rect, polygon{stroke:black;stroke-width:2;stroke-opacity:1;fill-opacity:1;stroke-linecap:round;stroke-linejoin:miter;}text{font-family:Iosevka Fixed, monospace;font-size:14px;}rect.backdrop{stroke:none;fill:transparent;}.broken{stroke-dasharray:8;}.filled{fill:black;}.bg_filled{fill:transparent;}.nofill{fill:transparent;}.end_marked_arrow{marker-end:url(#arrow);}.start_marked_arrow{marker-start:url(#arrow);}.end_marked_diamond{marker-end:url(#diamond);}.start_marked_diamond{marker-start:url(#diamond);}.end_marked_circle{marker-end:url(#circle);}.start_marked_circle{marker-start:url(#circle);}.end_marked_open_circle{marker-end:url(#open_circle);}.start_marked_open_circle{marker-start:url(#open_circle);}.end_marked_big_open_circle{marker-end:url(#big_open_circle);}.start_marked_big_open_circle{marker-start:url(#big_open_circle);}
        <!--separator-->
        
    </style>
    <defs>
        <marker id="arrow" viewBox="-2 -2 8 8" refX="4" refY="2" markerWidth="7" markerHeight="7" orient="auto-start-reverse">
            <polygon points="0,0 0,4 4,2 0,0"></polygon>
        </marker>
        <marker id="diamond" viewBox="-2 -2 8 8" refX="4" refY="2" markerWidth="7" markerHeight="7" orient="auto-start-reverse">
            <polygon points="0,2 2,0 4,2 2,4 0,2"></polygon>
        </marker>
        <marker id="circle" viewBox="0 0 8 8" refX="4" refY="4" markerWidth="7" markerHeight="7" orient="auto-start-reverse">
            <circle cx="4" cy="4" r="2" class="filled"></circle>
        </marker>
        <marker id="open_circle" viewBox="0 0 8 8" refX="4" refY="4" markerWidth="7" markerHeight="7" orient="auto-start-reverse">
            <circle cx="4" cy="4" r="2" class="bg_filled"></circle>
        </marker>
        <marker id="big_open_circle" viewBox="0 0 8 8" refX="4" refY="4" markerWidth="7" markerHeight="7" orient="auto-start-reverse">
            <circle cx="4" cy="4" r="3" class="bg_filled"></circle>
        </marker>
    </defs>
    <rect class="backdrop" x="0" y="0" width="560" height="304"></rect>
    <text x="18" y="12" >FIRECRACKER</text>
    <text x="114" y="12" >ARCHITECTURE</text>
    <line x1="16" y1="22" x2="216" y2="22" class="solid"></line>
    <line x1="16" y1="26" x2="216" y2="26" class="solid"></line>
    <text x="26" y="76" >Lambda</text>
    <text x="114" y="76" >Lambda</text>
    <text x="202" y="76" >Lambda</text>
    <text x="290" y="76" >Lambda</text>
    <text x="26" y="92" >Func</text>
    <text x="66" y="92" >A</text>
    <text x="114" y="92" >Func</text>
    <text x="154" y="92" >B</text>
    <text x="202" y="92" >Func</text>
    <text x="242" y="92" >C</text>
    <text x="290" y="92" >Func</text>
    <text x="330" y="92" >D</text>
    <text x="26" y="124" >microVM</text>
    <text x="114" y="124" >microVM</text>
    <text x="202" y="124" >microVM</text>
    <text x="290" y="124" >microVM</text>
    <text x="42" y="156" >Firecracker</text>
    <text x="138" y="156" >VMM</text>
    <path d="M 176,144 A 16,16 0,0,0 176,160" class="nofill"></path>
    <text x="178" y="156" >minimal,</text>
    <line x1="248" y1="152" x2="256" y2="152" class="broken"></line>
    <text x="258" y="156" >50K</text>
    <text x="290" y="156" >LoC</text>
    <path d="M 312,144 A 16,16 0,0,1 312,160" class="nofill"></path>
    <text x="42" y="188" >KVM</text>
    <path d="M 80,176 A 16,16 0,0,0 80,192" class="nofill"></path>
    <text x="82" y="188" >Linux</text>
    <text x="130" y="188" >kernel</text>
    <path d="M 176,176 A 16,16 0,0,1 176,192" class="nofill"></path>
    <line x1="372" y1="176" x2="372" y2="192" class="solid"></line>
    <text x="42" y="220" >Physical</text>
    <text x="114" y="220" >Hardware</text>
    <line x1="372" y1="208" x2="372" y2="224" class="solid"></line>
    <text x="410" y="124" >One</text>
    <text x="442" y="124" >per</text>
    <text x="474" y="124" >invocation</text>
    <text x="18" y="268" >Each</text>
    <text x="58" y="268" >microVM</text>
    <text x="122" y="268" >boots</text>
    <text x="170" y="268" >in</text>
    <text x="194" y="268" >125ms,</text>
    <text x="250" y="268" >uses</text>
    <text x="290" y="268" >5MB</text>
    <text x="322" y="268" >overhead.</text>
    <text x="18" y="284" >Compare:</text>
    <text x="90" y="284" >Traditional</text>
    <text x="186" y="284" >VM</text>
    <text x="210" y="284" >boots</text>
    <text x="258" y="284" >in</text>
    <text x="282" y="284" >30</text>
    <line x1="296" y1="280" x2="304" y2="280" class="solid"></line>
    <text x="306" y="284" >120s,</text>
    <text x="354" y="284" >uses</text>
    <text x="394" y="284" >512MB+</text>
    <text x="450" y="284" >overhead.</text>
    <g>
        <line x1="20" y1="56" x2="92" y2="56" class="solid"></line>
        <line x1="20" y1="56" x2="20" y2="232" class="solid"></line>
        <line x1="92" y1="56" x2="92" y2="136" class="solid"></line>
        <line x1="20" y1="104" x2="92" y2="104" class="solid"></line>
        <line x1="20" y1="136" x2="92" y2="136" class="solid"></line>
        <line x1="20" y1="200" x2="364" y2="200" class="solid"></line>
        <line x1="20" y1="232" x2="364" y2="232" class="solid"></line>
        <line x1="364" y1="144" x2="364" y2="168" class="solid"></line>
        <line x1="20" y1="168" x2="364" y2="168" class="solid"></line>
    </g>
    <g>
        <line x1="108" y1="56" x2="180" y2="56" class="solid"></line>
        <line x1="108" y1="56" x2="108" y2="136" class="solid"></line>
        <line x1="180" y1="56" x2="180" y2="136" class="solid"></line>
        <line x1="108" y1="104" x2="180" y2="104" class="solid"></line>
        <line x1="108" y1="136" x2="180" y2="136" class="solid"></line>
    </g>
    <g>
        <line x1="196" y1="56" x2="268" y2="56" class="solid"></line>
        <line x1="196" y1="56" x2="196" y2="136" class="solid"></line>
        <line x1="268" y1="56" x2="268" y2="136" class="solid"></line>
        <line x1="196" y1="104" x2="268" y2="104" class="solid"></line>
        <line x1="196" y1="136" x2="268" y2="136" class="solid"></line>
    </g>
    <g>
        <line x1="284" y1="56" x2="356" y2="56" class="solid"></line>
        <line x1="284" y1="56" x2="284" y2="136" class="solid"></line>
        <line x1="356" y1="56" x2="356" y2="136" class="solid"></line>
        <line x1="284" y1="104" x2="356" y2="104" class="solid"></line>
        <line x1="284" y1="136" x2="356" y2="136" class="solid"></line>
    </g>
    <g>
        <polygon points="384,116 376,120 384,124" class="filled"></polygon>
        <line x1="384" y1="120" x2="400" y2="120" class="solid"></line>
    </g>
</svg>