<svg xmlns="http://www.w3.org/2000/svg" viewBox="0 0 701 496" width="701" height="496" style="background:#ffffff;border:1px solid #e5e5e5;border-radius:8px;max-width:100%;height:auto;font-family:Iosevka Fixed,ui-monospace,monospace"><rect x="0" y="0" width="701" height="496" fill="#ffffff"/><text x="36" y="46.3" font-size="24" fill="#1e1e1e" text-anchor="start" dominant-baseline="auto">Type-1 (Bare-Metal) Hypervisor</text><rect x="16" y="76" width="160" height="110" rx="10" fill="#a5d8ff" fill-opacity="1.0" stroke="#2563eb" stroke-width="2"/><text x="96.0" y="125.9" font-size="18" fill="#1e1e1e" text-anchor="middle" dominant-baseline="auto">VM 1</text><text x="96.0" y="149.3" font-size="18" fill="#1e1e1e" text-anchor="middle" dominant-baseline="auto">(Linux)</text><rect x="216" y="76" width="160" height="110" rx="10" fill="#a5d8ff" fill-opacity="1.0" stroke="#2563eb" stroke-width="2"/><text x="296.0" y="125.9" font-size="18" fill="#1e1e1e" text-anchor="middle" dominant-baseline="auto">VM 2</text><text x="296.0" y="149.3" font-size="18" fill="#1e1e1e" text-anchor="middle" dominant-baseline="auto">(Windows)</text><rect x="416" y="76" width="160" height="110" rx="10" fill="#a5d8ff" fill-opacity="1.0" stroke="#2563eb" stroke-width="2"/><text x="496.0" y="125.9" font-size="18" fill="#1e1e1e" text-anchor="middle" dominant-baseline="auto">VM 3</text><text x="496.0" y="149.3" font-size="18" fill="#1e1e1e" text-anchor="middle" dominant-baseline="auto">(Linux)</text><text x="586" y="140.0" font-size="15" fill="#2563eb" text-anchor="start" dominant-baseline="auto">Guest VMs</text><line x1="96" y1="186" x2="96" y2="221" stroke="#757575" stroke-width="2"/><line x1="96" y1="221" x2="100.8" y2="212.2" stroke="#757575" stroke-width="2"/><line x1="96" y1="221" x2="91.2" y2="212.2" stroke="#757575" stroke-width="2"/><line x1="296" y1="186" x2="296" y2="221" stroke="#757575" stroke-width="2"/><line x1="296" y1="221" x2="300.8" y2="212.2" stroke="#757575" stroke-width="2"/><line x1="296" y1="221" x2="291.2" y2="212.2" stroke="#757575" stroke-width="2"/><line x1="496" y1="186" x2="496" y2="221" stroke="#757575" stroke-width="2"/><line x1="496" y1="221" x2="500.8" y2="212.2" stroke="#757575" stroke-width="2"/><line x1="496" y1="221" x2="491.2" y2="212.2" stroke="#757575" stroke-width="2"/><rect x="16" y="226" width="560" height="90" rx="10" fill="#d0bfff" fill-opacity="1.0" stroke="#8b5cf6" stroke-width="2"/><text x="296.0" y="265.9" font-size="18" fill="#1e1e1e" text-anchor="middle" dominant-baseline="auto">HYPERVISOR</text><text x="296.0" y="289.3" font-size="18" fill="#1e1e1e" text-anchor="middle" dominant-baseline="auto">(KVM / Xen / ESXi / Hyper-V)</text><rect x="16" y="356" width="560" height="80" rx="10" fill="#ffd8a8" fill-opacity="1.0" stroke="#b45309" stroke-width="2"/><text x="296.0" y="402.6" font-size="18" fill="#1e1e1e" text-anchor="middle" dominant-baseline="auto">Physical Hardware  (CPU / RAM / NIC / Disk)</text><line x1="296" y1="316" x2="296" y2="356" stroke="#757575" stroke-width="2"/><line x1="296" y1="356" x2="300.8" y2="347.2" stroke="#757575" stroke-width="2"/><line x1="296" y1="356" x2="291.2" y2="347.2" stroke="#757575" stroke-width="2"/><text x="46" y="480.0" font-size="15" fill="#757575" text-anchor="start" dominant-baseline="auto">No host OS: the hypervisor runs directly on hardware -&gt; lower overhead.</text></svg>