<svg xmlns="http://www.w3.org/2000/svg" width="512" height="208" style="background:#ffffff;border:1px solid #e5e5e5;border-radius:8px;max-width:100%;height:auto"><rect x="0" y="0" width="100%" height="100%" fill="#ffffff"/>
    <style>
        line, path, circle, rect, polygon{stroke:black;stroke-width:2;stroke-opacity:1;fill-opacity:1;stroke-linecap:round;stroke-linejoin:miter;}text{font-family:Iosevka Fixed, monospace;font-size:14px;}rect.backdrop{stroke:none;fill:transparent;}.broken{stroke-dasharray:8;}.filled{fill:black;}.bg_filled{fill:transparent;}.nofill{fill:transparent;}.end_marked_arrow{marker-end:url(#arrow);}.start_marked_arrow{marker-start:url(#arrow);}.end_marked_diamond{marker-end:url(#diamond);}.start_marked_diamond{marker-start:url(#diamond);}.end_marked_circle{marker-end:url(#circle);}.start_marked_circle{marker-start:url(#circle);}.end_marked_open_circle{marker-end:url(#open_circle);}.start_marked_open_circle{marker-start:url(#open_circle);}.end_marked_big_open_circle{marker-end:url(#big_open_circle);}.start_marked_big_open_circle{marker-start:url(#big_open_circle);}
        <!--separator-->
        
    </style>
    <defs>
        <marker id="arrow" viewBox="-2 -2 8 8" refX="4" refY="2" markerWidth="7" markerHeight="7" orient="auto-start-reverse">
            <polygon points="0,0 0,4 4,2 0,0"></polygon>
        </marker>
        <marker id="diamond" viewBox="-2 -2 8 8" refX="4" refY="2" markerWidth="7" markerHeight="7" orient="auto-start-reverse">
            <polygon points="0,2 2,0 4,2 2,4 0,2"></polygon>
        </marker>
        <marker id="circle" viewBox="0 0 8 8" refX="4" refY="4" markerWidth="7" markerHeight="7" orient="auto-start-reverse">
            <circle cx="4" cy="4" r="2" class="filled"></circle>
        </marker>
        <marker id="open_circle" viewBox="0 0 8 8" refX="4" refY="4" markerWidth="7" markerHeight="7" orient="auto-start-reverse">
            <circle cx="4" cy="4" r="2" class="bg_filled"></circle>
        </marker>
        <marker id="big_open_circle" viewBox="0 0 8 8" refX="4" refY="4" markerWidth="7" markerHeight="7" orient="auto-start-reverse">
            <circle cx="4" cy="4" r="3" class="bg_filled"></circle>
        </marker>
    </defs>
    <rect class="backdrop" x="0" y="0" width="512" height="208"></rect>
    <text x="2" y="12" >Election</text>
    <text x="74" y="12" >timeout</text>
    <text x="138" y="12" >fires</text>
    <path d="M 192,0 A 16,16 0,0,0 192,16" class="nofill"></path>
    <text x="194" y="12" >randomized:</text>
    <text x="290" y="12" >150</text>
    <line x1="312" y1="8" x2="320" y2="8" class="solid"></line>
    <text x="322" y="12" >300ms</text>
    <path d="M 360,0 A 16,16 0,0,1 360,16" class="nofill"></path>
    <text x="42" y="44" >Follower</text>
    <text x="114" y="44" >becomes</text>
    <text x="178" y="44" >Candidate</text>
    <text x="42" y="60" >Increments</text>
    <text x="130" y="60" >its</text>
    <text x="162" y="60" >term</text>
    <text x="202" y="60" >number</text>
    <text x="42" y="76" >Votes</text>
    <text x="90" y="76" >for</text>
    <text x="122" y="76" >itself</text>
    <text x="42" y="92" >Sends</text>
    <text x="90" y="92" >RequestVote</text>
    <path d="M 272,48 A 16,16 0,0,0 272,64" class="nofill"></path>
    <text x="274" y="60" >e.g.,</text>
    <text x="322" y="60" >term</text>
    <text x="362" y="60" >3</text>
    <text x="378" y="60" >→</text>
    <text x="394" y="60" >term</text>
    <text x="434" y="60" >4</text>
    <path d="M 440,48 A 16,16 0,0,1 440,64" class="nofill"></path>
    <text x="186" y="92" >RPC</text>
    <text x="218" y="92" >to</text>
    <text x="242" y="92" >all</text>
    <text x="274" y="92" >other</text>
    <text x="322" y="92" >nodes</text>
    <text x="42" y="124" >Each</text>
    <text x="82" y="124" >node</text>
    <text x="122" y="124" >votes</text>
    <text x="170" y="124" >YES</text>
    <text x="202" y="124" >if:</text>
    <text x="66" y="140" >a</text>
    <text x="90" y="140" >It</text>
    <text x="114" y="140" >hasn&#39;t</text>
    <text x="170" y="140" >voted</text>
    <text x="218" y="140" >in</text>
    <text x="66" y="156" >b</text>
    <text x="90" y="156" >Candidate&#39;s</text>
    <text x="186" y="156" >log</text>
    <text x="218" y="156" >is</text>
    <text x="242" y="140" >this</text>
    <text x="282" y="140" >term</text>
    <text x="322" y="140" >yet</text>
    <text x="242" y="156" >at</text>
    <text x="266" y="156" >least</text>
    <text x="314" y="156" >as</text>
    <text x="338" y="156" >up</text>
    <line x1="352" y1="152" x2="360" y2="152" class="solid"></line>
    <text x="362" y="156" >t</text>
    <circle cx="372" cy="152" r="3" class="nofill"></circle>
    <line x1="376" y1="152" x2="384" y2="152" class="solid"></line>
    <text x="386" y="156" >date</text>
    <text x="426" y="156" >as</text>
    <text x="450" y="156" >its</text>
    <text x="482" y="156" >own</text>
    <text x="18" y="188" >Candidate</text>
    <text x="98" y="188" >wins</text>
    <text x="138" y="188" >if</text>
    <text x="162" y="188" >it</text>
    <text x="186" y="188" >gets</text>
    <text x="226" y="188" >votes</text>
    <text x="274" y="188" >from</text>
    <text x="314" y="188" >a</text>
    <text x="330" y="188" >majority</text>
    <text x="418" y="188" >n</text>
    <line x1="432" y1="176" x2="424" y2="192" class="solid"></line>
    <text x="434" y="188" >2⌋</text>
    <text x="458" y="188" >+</text>
    <text x="474" y="188" >1</text>
    <path d="M 480,176 A 16,16 0,0,1 480,192" class="nofill"></path>
    <g>
        <line x1="20" y1="16" x2="20" y2="120" class="solid"></line>
        <line x1="20" y1="40" x2="32" y2="40" class="solid"></line>
        <line x1="20" y1="56" x2="32" y2="56" class="solid"></line>
        <line x1="20" y1="72" x2="32" y2="72" class="solid"></line>
        <line x1="20" y1="88" x2="32" y2="88" class="solid"></line>
        <line x1="20" y1="120" x2="32" y2="120" class="solid"></line>
    </g>
    <g>
        <path d="M 64,128 A 16,16 0,0,0 64,144" class="nofill"></path>
        <path d="M 64,144 A 16,16 0,0,0 64,160" class="nofill"></path>
    </g>
    <g>
        <path d="M 72,128 A 16,16 0,0,1 72,144" class="nofill"></path>
        <path d="M 72,144 A 16,16 0,0,1 72,160" class="nofill"></path>
    </g>
    <g>
        <path d="M 408,176 A 16,16 0,0,0 408,192" class="nofill"></path>
        <line x1="408" y1="176" x2="408" y2="192" class="solid"></line>
        <line x1="408" y1="192" x2="412" y2="192" class="solid"></line>
    </g>
</svg>