<svg xmlns="http://www.w3.org/2000/svg" width="560" height="112" style="background:#ffffff;border:1px solid #e5e5e5;border-radius:8px;max-width:100%;height:auto"><rect x="0" y="0" width="100%" height="100%" fill="#ffffff"/>
    <style>
        line, path, circle, rect, polygon{stroke:black;stroke-width:2;stroke-opacity:1;fill-opacity:1;stroke-linecap:round;stroke-linejoin:miter;}text{font-family:Iosevka Fixed, monospace;font-size:14px;}rect.backdrop{stroke:none;fill:transparent;}.broken{stroke-dasharray:8;}.filled{fill:black;}.bg_filled{fill:transparent;}.nofill{fill:transparent;}.end_marked_arrow{marker-end:url(#arrow);}.start_marked_arrow{marker-start:url(#arrow);}.end_marked_diamond{marker-end:url(#diamond);}.start_marked_diamond{marker-start:url(#diamond);}.end_marked_circle{marker-end:url(#circle);}.start_marked_circle{marker-start:url(#circle);}.end_marked_open_circle{marker-end:url(#open_circle);}.start_marked_open_circle{marker-start:url(#open_circle);}.end_marked_big_open_circle{marker-end:url(#big_open_circle);}.start_marked_big_open_circle{marker-start:url(#big_open_circle);}
        <!--separator-->
        
    </style>
    <defs>
        <marker id="arrow" viewBox="-2 -2 8 8" refX="4" refY="2" markerWidth="7" markerHeight="7" orient="auto-start-reverse">
            <polygon points="0,0 0,4 4,2 0,0"></polygon>
        </marker>
        <marker id="diamond" viewBox="-2 -2 8 8" refX="4" refY="2" markerWidth="7" markerHeight="7" orient="auto-start-reverse">
            <polygon points="0,2 2,0 4,2 2,4 0,2"></polygon>
        </marker>
        <marker id="circle" viewBox="0 0 8 8" refX="4" refY="4" markerWidth="7" markerHeight="7" orient="auto-start-reverse">
            <circle cx="4" cy="4" r="2" class="filled"></circle>
        </marker>
        <marker id="open_circle" viewBox="0 0 8 8" refX="4" refY="4" markerWidth="7" markerHeight="7" orient="auto-start-reverse">
            <circle cx="4" cy="4" r="2" class="bg_filled"></circle>
        </marker>
        <marker id="big_open_circle" viewBox="0 0 8 8" refX="4" refY="4" markerWidth="7" markerHeight="7" orient="auto-start-reverse">
            <circle cx="4" cy="4" r="3" class="bg_filled"></circle>
        </marker>
    </defs>
    <rect class="backdrop" x="0" y="0" width="560" height="112"></rect>
    <text x="2" y="12" >Write</text>
    <text x="50" y="12" >latency</text>
    <text x="18" y="28" >Leader</text>
    <text x="74" y="28" >must</text>
    <text x="114" y="12" >in</text>
    <text x="138" y="12" >Raft:</text>
    <text x="114" y="28" >wait</text>
    <text x="154" y="28" >for</text>
    <text x="194" y="28" >n</text>
    <line x1="208" y1="16" x2="200" y2="32" class="solid"></line>
    <text x="210" y="28" >2⌋</text>
    <text x="234" y="28" >follower</text>
    <text x="306" y="28" >ACKs</text>
    <text x="346" y="28" >before</text>
    <text x="402" y="28" >committing.</text>
    <text x="18" y="60" >n</text>
    <line x1="24" y1="54" x2="32" y2="54" class="solid"></line>
    <line x1="24" y1="58" x2="32" y2="58" class="solid"></line>
    <text x="34" y="60" >3</text>
    <line x1="44" y1="48" x2="44" y2="96" class="broken"></line>
    <text x="18" y="76" >n</text>
    <line x1="24" y1="70" x2="32" y2="70" class="solid"></line>
    <line x1="24" y1="74" x2="32" y2="74" class="solid"></line>
    <text x="34" y="76" >5</text>
    <text x="18" y="92" >n</text>
    <line x1="24" y1="86" x2="32" y2="86" class="solid"></line>
    <line x1="24" y1="90" x2="32" y2="90" class="solid"></line>
    <text x="34" y="92" >7</text>
    <text x="58" y="60" >wait</text>
    <text x="58" y="76" >wait</text>
    <text x="58" y="92" >wait</text>
    <text x="98" y="60" >for</text>
    <text x="98" y="76" >for</text>
    <text x="98" y="92" >for</text>
    <text x="130" y="60" >1</text>
    <text x="130" y="76" >2</text>
    <text x="130" y="92" >3</text>
    <text x="146" y="60" >follower</text>
    <text x="146" y="76" >followers</text>
    <text x="146" y="92" >followers</text>
    <text x="226" y="60" >→</text>
    <text x="226" y="76" >→</text>
    <text x="226" y="92" >→</text>
    <text x="242" y="60" >fast</text>
    <text x="242" y="76" >latency</text>
    <line x1="304" y1="70" x2="312" y2="70" class="solid"></line>
    <line x1="304" y1="74" x2="312" y2="74" class="solid"></line>
    <text x="322" y="76" >max</text>
    <path d="M 352,64 A 16,16 0,0,0 352,80" class="nofill"></path>
    <text x="354" y="76" >slowest</text>
    <text x="242" y="92" >higher</text>
    <text x="298" y="92" >tail</text>
    <text x="338" y="92" >latency</text>
    <text x="418" y="76" >2</text>
    <text x="434" y="76" >of</text>
    <text x="458" y="76" >4</text>
    <text x="474" y="76" >followers</text>
    <path d="M 544,64 A 16,16 0,0,1 544,80" class="nofill"></path>
    <g>
        <line x1="184" y1="16" x2="184" y2="32" class="solid"></line>
        <line x1="184" y1="32" x2="188" y2="32" class="solid"></line>
    </g>
</svg>