<svg xmlns="http://www.w3.org/2000/svg" width="488" height="176" style="background:#ffffff;border:1px solid #e5e5e5;border-radius:8px;max-width:100%;height:auto"><rect x="0" y="0" width="100%" height="100%" fill="#ffffff"/>
    <style>
        line, path, circle, rect, polygon{stroke:black;stroke-width:2;stroke-opacity:1;fill-opacity:1;stroke-linecap:round;stroke-linejoin:miter;}text{font-family:Iosevka Fixed, monospace;font-size:14px;}rect.backdrop{stroke:none;fill:transparent;}.broken{stroke-dasharray:8;}.filled{fill:black;}.bg_filled{fill:transparent;}.nofill{fill:transparent;}.end_marked_arrow{marker-end:url(#arrow);}.start_marked_arrow{marker-start:url(#arrow);}.end_marked_diamond{marker-end:url(#diamond);}.start_marked_diamond{marker-start:url(#diamond);}.end_marked_circle{marker-end:url(#circle);}.start_marked_circle{marker-start:url(#circle);}.end_marked_open_circle{marker-end:url(#open_circle);}.start_marked_open_circle{marker-start:url(#open_circle);}.end_marked_big_open_circle{marker-end:url(#big_open_circle);}.start_marked_big_open_circle{marker-start:url(#big_open_circle);}
        <!--separator-->
        
    </style>
    <defs>
        <marker id="arrow" viewBox="-2 -2 8 8" refX="4" refY="2" markerWidth="7" markerHeight="7" orient="auto-start-reverse">
            <polygon points="0,0 0,4 4,2 0,0"></polygon>
        </marker>
        <marker id="diamond" viewBox="-2 -2 8 8" refX="4" refY="2" markerWidth="7" markerHeight="7" orient="auto-start-reverse">
            <polygon points="0,2 2,0 4,2 2,4 0,2"></polygon>
        </marker>
        <marker id="circle" viewBox="0 0 8 8" refX="4" refY="4" markerWidth="7" markerHeight="7" orient="auto-start-reverse">
            <circle cx="4" cy="4" r="2" class="filled"></circle>
        </marker>
        <marker id="open_circle" viewBox="0 0 8 8" refX="4" refY="4" markerWidth="7" markerHeight="7" orient="auto-start-reverse">
            <circle cx="4" cy="4" r="2" class="bg_filled"></circle>
        </marker>
        <marker id="big_open_circle" viewBox="0 0 8 8" refX="4" refY="4" markerWidth="7" markerHeight="7" orient="auto-start-reverse">
            <circle cx="4" cy="4" r="3" class="bg_filled"></circle>
        </marker>
    </defs>
    <rect class="backdrop" x="0" y="0" width="488" height="176"></rect>
    <text x="2" y="12" >Client</text>
    <text x="58" y="12" >write</text>
    <text x="106" y="12" >→</text>
    <text x="122" y="12" >Leader</text>
    <text x="42" y="44" >Leader</text>
    <text x="98" y="44" >appends</text>
    <text x="162" y="44" >entry</text>
    <text x="210" y="44" >to</text>
    <text x="234" y="44" >its</text>
    <text x="42" y="60" >Sends</text>
    <text x="90" y="60" >AppendEntries</text>
    <text x="202" y="60" >RPCs</text>
    <text x="242" y="60" >to</text>
    <text x="42" y="76" >Waits</text>
    <text x="90" y="76" >for</text>
    <text x="122" y="76" >majority</text>
    <text x="194" y="76" >ACK</text>
    <text x="42" y="92" >Marks</text>
    <text x="90" y="92" >entry</text>
    <text x="138" y="92" >as</text>
    <text x="162" y="92" >committed,</text>
    <text x="42" y="108" >Returns</text>
    <text x="106" y="108" >success</text>
    <text x="170" y="108" >to</text>
    <text x="194" y="108" >client</text>
    <text x="266" y="44" >log</text>
    <text x="266" y="60" >all</text>
    <path d="M 304,32 A 16,16 0,0,0 304,48" class="nofill"></path>
    <text x="306" y="44" >uncommitted</text>
    <path d="M 392,32 A 16,16 0,0,1 392,48" class="nofill"></path>
    <text x="298" y="60" >followers</text>
    <path d="M 384,48 A 16,16 0,0,0 384,64" class="nofill"></path>
    <text x="386" y="60" >in</text>
    <text x="410" y="60" >parallel</text>
    <path d="M 472,48 A 16,16 0,0,1 472,64" class="nofill"></path>
    <text x="250" y="92" >applies</text>
    <text x="314" y="92" >to</text>
    <text x="338" y="92" >state</text>
    <text x="386" y="92" >machine</text>
    <text x="18" y="140" >On</text>
    <text x="42" y="140" >next</text>
    <text x="82" y="140" >heartbeat</text>
    <text x="250" y="140" >followers</text>
    <text x="330" y="140" >entry</text>
    <text x="378" y="140" >is</text>
    <text x="402" y="140" >committed</text>
    <text x="18" y="156" >Followers</text>
    <text x="98" y="156" >apply</text>
    <text x="146" y="156" >committed</text>
    <text x="226" y="156" >entries</text>
    <text x="290" y="156" >to</text>
    <text x="314" y="156" >their</text>
    <text x="362" y="156" >state</text>
    <text x="410" y="156" >machines</text>
    <g>
        <line x1="20" y1="16" x2="20" y2="104" class="solid"></line>
        <line x1="20" y1="40" x2="32" y2="40" class="solid"></line>
        <line x1="20" y1="56" x2="32" y2="56" class="solid"></line>
        <line x1="20" y1="72" x2="32" y2="72" class="solid"></line>
        <line x1="20" y1="88" x2="32" y2="88" class="solid"></line>
        <line x1="20" y1="104" x2="32" y2="104" class="solid"></line>
    </g>
    <g>
        <text x="162" y="140">→</text>
        <text x="178" y="140">notifies</text>
    </g>
</svg>