<svg xmlns="http://www.w3.org/2000/svg" width="520" height="304" style="background:#ffffff;border:1px solid #e5e5e5;border-radius:8px;max-width:100%;height:auto"><rect x="0" y="0" width="100%" height="100%" fill="#ffffff"/>
    <style>
        line, path, circle, rect, polygon{stroke:black;stroke-width:2;stroke-opacity:1;fill-opacity:1;stroke-linecap:round;stroke-linejoin:miter;}text{font-family:Iosevka Fixed, monospace;font-size:14px;}rect.backdrop{stroke:none;fill:transparent;}.broken{stroke-dasharray:8;}.filled{fill:black;}.bg_filled{fill:transparent;}.nofill{fill:transparent;}.end_marked_arrow{marker-end:url(#arrow);}.start_marked_arrow{marker-start:url(#arrow);}.end_marked_diamond{marker-end:url(#diamond);}.start_marked_diamond{marker-start:url(#diamond);}.end_marked_circle{marker-end:url(#circle);}.start_marked_circle{marker-start:url(#circle);}.end_marked_open_circle{marker-end:url(#open_circle);}.start_marked_open_circle{marker-start:url(#open_circle);}.end_marked_big_open_circle{marker-end:url(#big_open_circle);}.start_marked_big_open_circle{marker-start:url(#big_open_circle);}
        <!--separator-->
        
    </style>
    <defs>
        <marker id="arrow" viewBox="-2 -2 8 8" refX="4" refY="2" markerWidth="7" markerHeight="7" orient="auto-start-reverse">
            <polygon points="0,0 0,4 4,2 0,0"></polygon>
        </marker>
        <marker id="diamond" viewBox="-2 -2 8 8" refX="4" refY="2" markerWidth="7" markerHeight="7" orient="auto-start-reverse">
            <polygon points="0,2 2,0 4,2 2,4 0,2"></polygon>
        </marker>
        <marker id="circle" viewBox="0 0 8 8" refX="4" refY="4" markerWidth="7" markerHeight="7" orient="auto-start-reverse">
            <circle cx="4" cy="4" r="2" class="filled"></circle>
        </marker>
        <marker id="open_circle" viewBox="0 0 8 8" refX="4" refY="4" markerWidth="7" markerHeight="7" orient="auto-start-reverse">
            <circle cx="4" cy="4" r="2" class="bg_filled"></circle>
        </marker>
        <marker id="big_open_circle" viewBox="0 0 8 8" refX="4" refY="4" markerWidth="7" markerHeight="7" orient="auto-start-reverse">
            <circle cx="4" cy="4" r="3" class="bg_filled"></circle>
        </marker>
    </defs>
    <rect class="backdrop" x="0" y="0" width="520" height="304"></rect>
    <text x="18" y="12" >LONGEST</text>
    <text x="82" y="12" >PREFIX</text>
    <text x="138" y="12" >MATCH</text>
    <text x="186" y="12" >EXAMPLE</text>
    <line x1="16" y1="22" x2="248" y2="22" class="solid"></line>
    <line x1="16" y1="26" x2="248" y2="26" class="solid"></line>
    <text x="18" y="60" >Route</text>
    <text x="66" y="60" >Table:</text>
    <text x="18" y="76" >10.0.0.0</text>
    <line x1="88" y1="64" x2="80" y2="80" class="solid"></line>
    <text x="90" y="76" >16</text>
    <text x="18" y="92" >10.0.5.0</text>
    <line x1="88" y1="80" x2="72" y2="112" class="solid"></line>
    <text x="82" y="108" >0</text>
    <text x="90" y="92" >24</text>
    <text x="18" y="108" >0.0.0.0</text>
    <text x="154" y="76" >local</text>
    <text x="154" y="92" >peering</text>
    <line x1="208" y1="88" x2="216" y2="88" class="solid"></line>
    <text x="218" y="92" >connection</text>
    <text x="154" y="108" >igw</text>
    <text x="18" y="140" >Packet</text>
    <text x="74" y="140" >to</text>
    <text x="98" y="140" >10.0.5.17:</text>
    <line x1="16" y1="152" x2="24" y2="152" class="solid"></line>
    <text x="34" y="156" >Matches</text>
    <text x="98" y="156" >10.0.0.0</text>
    <line x1="168" y1="144" x2="160" y2="160" class="solid"></line>
    <text x="170" y="156" >16</text>
    <text x="202" y="156" >16</text>
    <line x1="216" y1="152" x2="224" y2="152" class="solid"></line>
    <text x="226" y="156" >bit</text>
    <text x="258" y="156" >prefix</text>
    <line x1="16" y1="168" x2="24" y2="168" class="solid"></line>
    <text x="34" y="172" >Matches</text>
    <text x="98" y="172" >10.0.5.0</text>
    <line x1="168" y1="160" x2="152" y2="192" class="solid"></line>
    <text x="162" y="188" >0</text>
    <text x="170" y="172" >24</text>
    <text x="202" y="172" >24</text>
    <line x1="216" y1="168" x2="224" y2="168" class="solid"></line>
    <text x="226" y="172" >bit</text>
    <text x="258" y="172" >prefix</text>
    <line x1="16" y1="184" x2="24" y2="184" class="solid"></line>
    <text x="34" y="188" >Matches</text>
    <text x="98" y="188" >0.0.0.0</text>
    <path d="M 184,176 A 16,16 0,0,0 184,192" class="nofill"></path>
    <text x="186" y="188" >0</text>
    <line x1="192" y1="184" x2="200" y2="184" class="solid"></line>
    <text x="202" y="188" >bit</text>
    <text x="234" y="188" >prefix</text>
    <path d="M 280,176 A 16,16 0,0,1 280,192" class="nofill"></path>
    <text x="18" y="204" >Result:</text>
    <text x="82" y="204" >Routed</text>
    <text x="146" y="204" >ia</text>
    <text x="170" y="204" >peering</text>
    <line x1="224" y1="200" x2="232" y2="200" class="solid"></line>
    <text x="234" y="204" >connection</text>
    <text x="362" y="172" >MORE</text>
    <text x="402" y="172" >SPECIFIC,</text>
    <text x="482" y="172" >wins</text>
    <text x="18" y="236" >Packet</text>
    <text x="74" y="236" >to</text>
    <text x="98" y="236" >10.0.9.100:</text>
    <line x1="16" y1="248" x2="24" y2="248" class="solid"></line>
    <text x="34" y="252" >Matches</text>
    <text x="98" y="252" >10.0.0.0</text>
    <line x1="168" y1="240" x2="150" y2="276" class="solid"></line>
    <text x="162" y="268" >0</text>
    <text x="170" y="252" >16</text>
    <path d="M 200,240 A 16,16 0,0,0 200,256" class="nofill"></path>
    <text x="202" y="252" >16</text>
    <line x1="216" y1="248" x2="224" y2="248" class="solid"></line>
    <text x="226" y="252" >bit</text>
    <text x="258" y="252" >prefix</text>
    <path d="M 304,240 A 16,16 0,0,1 304,256" class="nofill"></path>
    <line x1="16" y1="264" x2="24" y2="264" class="solid"></line>
    <text x="34" y="268" >Matches</text>
    <text x="98" y="268" >0.0.0.0</text>
    <path d="M 184,256 A 16,16 0,0,0 184,272" class="nofill"></path>
    <text x="186" y="268" >0</text>
    <line x1="192" y1="264" x2="200" y2="264" class="solid"></line>
    <text x="202" y="268" >bit</text>
    <text x="234" y="268" >prefix</text>
    <path d="M 280,256 A 16,16 0,0,1 280,272" class="nofill"></path>
    <text x="18" y="284" >Result:</text>
    <text x="82" y="284" >Routed</text>
    <text x="138" y="284" >l</text>
    <circle cx="148" cy="280" r="3" class="nofill"></circle>
    <text x="154" y="284" >cally</text>
    <text x="202" y="284" >within</text>
    <text x="258" y="284" >VPC</text>
    <text x="362" y="252" >MOST</text>
    <text x="402" y="252" >SPECIFIC</text>
    <g>
        <line x1="128" y1="72" x2="136" y2="72" class="solid"></line>
        <polygon points="136,68 144,72 136,76" class="filled"></polygon>
    </g>
    <g>
        <line x1="128" y1="88" x2="136" y2="88" class="solid"></line>
        <polygon points="136,84 144,88 136,92" class="filled"></polygon>
    </g>
    <g>
        <line x1="128" y1="104" x2="136" y2="104" class="solid"></line>
        <polygon points="136,100 144,104 136,108" class="filled"></polygon>
    </g>
    <g>
        <path d="M 200,144 A 16,16 0,0,0 200,160" class="nofill"></path>
        <path d="M 200,160 A 16,16 0,0,0 200,176" class="nofill"></path>
    </g>
    <g>
        <path d="M 304,144 A 16,16 0,0,1 304,160" class="nofill"></path>
        <path d="M 304,160 A 16,16 0,0,1 304,176" class="nofill"></path>
    </g>
    <g>
        <line x1="140" y1="192" x2="140" y2="196" class="solid"></line>
        <polygon points="136,196 144,196 140,208" class="filled"></polygon>
    </g>
    <g>
        <polygon points="336,164 328,168 336,172" class="filled"></polygon>
        <line x1="336" y1="168" x2="352" y2="168" class="solid"></line>
    </g>
    <g>
        <polygon points="336,244 328,248 336,252" class="filled"></polygon>
        <line x1="336" y1="248" x2="352" y2="248" class="solid"></line>
    </g>
</svg>