<svg xmlns="http://www.w3.org/2000/svg" viewBox="0 0 672 602" width="672" height="602" style="background:#ffffff;border:1px solid #e5e5e5;border-radius:8px;max-width:100%;height:auto;font-family:Iosevka Fixed,ui-monospace,monospace"><rect x="0" y="0" width="672" height="602" fill="#ffffff"/><text x="116" y="46.3" font-size="24" fill="#1e1e1e" text-anchor="start" dominant-baseline="auto">VPC Networking</text><text x="106" y="67.0" font-size="15" fill="#757575" text-anchor="start" dominant-baseline="auto">Public / Private / DB subnets across two AZs</text><rect x="16" y="76" width="640" height="420" rx="10" fill="#dbe4ff" fill-opacity="0.3" stroke="#4a9eed" stroke-width="1"/><text x="36" y="106.2" font-size="16" fill="#2563eb" text-anchor="start" dominant-baseline="auto">VPC: 10.0.0.0/16  (65,536 IPs)</text><text x="131" y="135.0" font-size="15" fill="#6d28d9" text-anchor="start" dominant-baseline="auto">AZ: us-east-1a</text><text x="416" y="135.0" font-size="15" fill="#6d28d9" text-anchor="start" dominant-baseline="auto">AZ: us-east-1b</text><rect x="51" y="141" width="270" height="75" rx="10" fill="#b2f2bb" fill-opacity="1.0" stroke="#15803d" stroke-width="2"/><text x="186.0" y="174.2" font-size="15" fill="#1e1e1e" text-anchor="middle" dominant-baseline="auto">Public Subnet  10.0.1.0/24</text><text x="186.0" y="193.7" font-size="15" fill="#1e1e1e" text-anchor="middle" dominant-baseline="auto">[ Web Server ]</text><rect x="351" y="141" width="270" height="75" rx="10" fill="#b2f2bb" fill-opacity="1.0" stroke="#15803d" stroke-width="2"/><text x="486.0" y="174.2" font-size="15" fill="#1e1e1e" text-anchor="middle" dominant-baseline="auto">Public Subnet  10.0.2.0/24</text><text x="486.0" y="193.7" font-size="15" fill="#1e1e1e" text-anchor="middle" dominant-baseline="auto">[ Web Server ]</text><rect x="51" y="231" width="270" height="75" rx="10" fill="#d0bfff" fill-opacity="1.0" stroke="#8b5cf6" stroke-width="2"/><text x="186.0" y="264.2" font-size="15" fill="#1e1e1e" text-anchor="middle" dominant-baseline="auto">Private Subnet  10.0.3.0/24</text><text x="186.0" y="283.7" font-size="15" fill="#1e1e1e" text-anchor="middle" dominant-baseline="auto">[ App Server ]</text><rect x="351" y="231" width="270" height="75" rx="10" fill="#d0bfff" fill-opacity="1.0" stroke="#8b5cf6" stroke-width="2"/><text x="486.0" y="264.2" font-size="15" fill="#1e1e1e" text-anchor="middle" dominant-baseline="auto">Private Subnet  10.0.4.0/24</text><text x="486.0" y="283.7" font-size="15" fill="#1e1e1e" text-anchor="middle" dominant-baseline="auto">[ App Server ]</text><rect x="51" y="321" width="270" height="75" rx="10" fill="#c3fae8" fill-opacity="1.0" stroke="#0d9488" stroke-width="2"/><text x="186.0" y="354.2" font-size="15" fill="#1e1e1e" text-anchor="middle" dominant-baseline="auto">Private Subnet  10.0.5.0/24</text><text x="186.0" y="373.7" font-size="15" fill="#1e1e1e" text-anchor="middle" dominant-baseline="auto">[ Database ]</text><rect x="351" y="321" width="270" height="75" rx="10" fill="#c3fae8" fill-opacity="1.0" stroke="#0d9488" stroke-width="2"/><text x="486.0" y="354.2" font-size="15" fill="#1e1e1e" text-anchor="middle" dominant-baseline="auto">Private Subnet  10.0.6.0/24</text><text x="486.0" y="373.7" font-size="15" fill="#1e1e1e" text-anchor="middle" dominant-baseline="auto">[ Database Standby ]</text><rect x="166" y="521" width="180" height="55" rx="10" fill="#ffd8a8" fill-opacity="1.0" stroke="#b45309" stroke-width="2"/><text x="256.0" y="554.3" font-size="16" fill="#1e1e1e" text-anchor="middle" dominant-baseline="auto">Internet Gateway</text><line x1="256" y1="496" x2="256" y2="521" stroke="#b45309" stroke-width="2"/><line x1="256" y1="521" x2="260.8" y2="512.2" stroke="#b45309" stroke-width="2"/><line x1="256" y1="521" x2="251.2" y2="512.2" stroke="#b45309" stroke-width="2"/><ellipse cx="511.0" cy="548.5" rx="75.0" ry="37.5" fill="#fff3bf" fill-opacity="1.0" stroke="#f59e0b" stroke-width="2"/><text x="511.0" y="554.3" font-size="16" fill="#1e1e1e" text-anchor="middle" dominant-baseline="auto">Internet</text><line x1="346" y1="548" x2="436" y2="548" stroke="#f59e0b" stroke-width="2"/><line x1="436" y1="548" x2="427.2" y2="543.2" stroke="#f59e0b" stroke-width="2"/><line x1="436" y1="548" x2="427.2" y2="552.8" stroke="#f59e0b" stroke-width="2"/></svg>