<svg xmlns="http://www.w3.org/2000/svg" width="552" height="336" style="background:#ffffff;border:1px solid #e5e5e5;border-radius:8px;max-width:100%;height:auto"><rect x="0" y="0" width="100%" height="100%" fill="#ffffff"/>
    <style>
        line, path, circle, rect, polygon{stroke:black;stroke-width:2;stroke-opacity:1;fill-opacity:1;stroke-linecap:round;stroke-linejoin:miter;}text{font-family:Iosevka Fixed, monospace;font-size:14px;}rect.backdrop{stroke:none;fill:transparent;}.broken{stroke-dasharray:8;}.filled{fill:black;}.bg_filled{fill:transparent;}.nofill{fill:transparent;}.end_marked_arrow{marker-end:url(#arrow);}.start_marked_arrow{marker-start:url(#arrow);}.end_marked_diamond{marker-end:url(#diamond);}.start_marked_diamond{marker-start:url(#diamond);}.end_marked_circle{marker-end:url(#circle);}.start_marked_circle{marker-start:url(#circle);}.end_marked_open_circle{marker-end:url(#open_circle);}.start_marked_open_circle{marker-start:url(#open_circle);}.end_marked_big_open_circle{marker-end:url(#big_open_circle);}.start_marked_big_open_circle{marker-start:url(#big_open_circle);}
        <!--separator-->
        
    </style>
    <defs>
        <marker id="arrow" viewBox="-2 -2 8 8" refX="4" refY="2" markerWidth="7" markerHeight="7" orient="auto-start-reverse">
            <polygon points="0,0 0,4 4,2 0,0"></polygon>
        </marker>
        <marker id="diamond" viewBox="-2 -2 8 8" refX="4" refY="2" markerWidth="7" markerHeight="7" orient="auto-start-reverse">
            <polygon points="0,2 2,0 4,2 2,4 0,2"></polygon>
        </marker>
        <marker id="circle" viewBox="0 0 8 8" refX="4" refY="4" markerWidth="7" markerHeight="7" orient="auto-start-reverse">
            <circle cx="4" cy="4" r="2" class="filled"></circle>
        </marker>
        <marker id="open_circle" viewBox="0 0 8 8" refX="4" refY="4" markerWidth="7" markerHeight="7" orient="auto-start-reverse">
            <circle cx="4" cy="4" r="2" class="bg_filled"></circle>
        </marker>
        <marker id="big_open_circle" viewBox="0 0 8 8" refX="4" refY="4" markerWidth="7" markerHeight="7" orient="auto-start-reverse">
            <circle cx="4" cy="4" r="3" class="bg_filled"></circle>
        </marker>
    </defs>
    <rect class="backdrop" x="0" y="0" width="552" height="336"></rect>
    <rect x="20" y="72" width="104" height="64" class="solid nofill" rx="0"></rect>
    <text x="34" y="92" >4</text>
    <text x="50" y="92" >vCPU</text>
    <text x="34" y="108" >16</text>
    <text x="58" y="108" >GB</text>
    <text x="82" y="108" >RAM</text>
    <text x="34" y="124" >t3.large</text>
    <rect x="236" y="72" width="152" height="64" class="solid nofill" rx="0"></rect>
    <text x="250" y="92" >16</text>
    <text x="274" y="92" >vCPU</text>
    <text x="250" y="108" >64</text>
    <text x="274" y="108" >GB</text>
    <text x="298" y="108" >RAM</text>
    <text x="250" y="124" >m5.4xlarge</text>
    <text x="18" y="12" >VERTICAL</text>
    <text x="90" y="12" >SCALING</text>
    <line x1="16" y1="22" x2="144" y2="22" class="solid"></line>
    <line x1="16" y1="26" x2="144" y2="26" class="solid"></line>
    <text x="18" y="60" >Before:</text>
    <text x="234" y="60" >After:</text>
    <text x="18" y="172" >Pros:</text>
    <line x1="16" y1="184" x2="24" y2="184" class="solid"></line>
    <text x="34" y="188" >Simple:</text>
    <text x="98" y="188" >no</text>
    <text x="122" y="188" >application</text>
    <text x="218" y="188" >changes</text>
    <text x="282" y="188" >needed</text>
    <line x1="16" y1="200" x2="24" y2="200" class="solid"></line>
    <text x="34" y="204" >Works</text>
    <text x="82" y="204" >for</text>
    <text x="114" y="204" >monoliths</text>
    <text x="194" y="204" >and</text>
    <text x="226" y="204" >databases</text>
    <line x1="16" y1="216" x2="24" y2="216" class="solid"></line>
    <text x="34" y="220" >No</text>
    <text x="58" y="220" >distributed</text>
    <text x="154" y="220" >systems</text>
    <text x="218" y="220" >complexity</text>
    <text x="18" y="252" >Cons:</text>
    <line x1="16" y1="264" x2="24" y2="264" class="solid"></line>
    <text x="34" y="268" >Has</text>
    <text x="66" y="268" >a</text>
    <text x="82" y="268" >ceiling</text>
    <path d="M 152,256 A 16,16 0,0,0 152,272" class="nofill"></path>
    <text x="154" y="268" >largest</text>
    <text x="218" y="268" >instance:</text>
    <text x="298" y="268" >448</text>
    <text x="330" y="268" >vCPU,</text>
    <line x1="16" y1="280" x2="24" y2="280" class="solid"></line>
    <text x="34" y="284" >Requires</text>
    <text x="106" y="284" >downtime</text>
    <path d="M 184,272 A 16,16 0,0,0 184,288" class="nofill"></path>
    <text x="186" y="284" >usually</text>
    <path d="M 240,272 A 16,16 0,0,1 240,288" class="nofill"></path>
    <text x="258" y="284" >to</text>
    <text x="282" y="284" >resize</text>
    <line x1="16" y1="296" x2="24" y2="296" class="solid"></line>
    <text x="34" y="300" >Single</text>
    <text x="90" y="300" >point</text>
    <text x="138" y="300" >of</text>
    <text x="162" y="300" >failure</text>
    <path d="M 232,288 A 16,16 0,0,0 232,304" class="nofill"></path>
    <text x="234" y="300" >one</text>
    <text x="266" y="300" >big</text>
    <text x="298" y="300" >server</text>
    <path d="M 344,288 A 16,16 0,0,1 344,304" class="nofill"></path>
    <line x1="16" y1="312" x2="24" y2="312" class="solid"></line>
    <text x="34" y="316" >Not</text>
    <text x="66" y="316" >true</text>
    <text x="106" y="316" >elasticity</text>
    <path d="M 200,304 A 16,16 0,0,0 200,320" class="nofill"></path>
    <text x="202" y="316" >manual,</text>
    <text x="266" y="316" >slow</text>
    <text x="306" y="316" >process</text>
    <path d="M 360,304 A 16,16 0,0,1 360,320" class="nofill"></path>
    <text x="378" y="268" >24</text>
    <text x="402" y="268" >TB</text>
    <text x="426" y="268" >RAM</text>
    <text x="458" y="268" >on</text>
    <text x="482" y="268" >u</text>
    <line x1="488" y1="264" x2="496" y2="264" class="solid"></line>
    <text x="498" y="268" >24tb1</text>
    <path d="M 536,256 A 16,16 0,0,1 536,272" class="nofill"></path>
    <g>
        <line x1="168" y1="88" x2="184" y2="88" class="solid"></line>
        <polygon points="184,84 192,88 184,92" class="filled"></polygon>
    </g>
</svg>