<svg xmlns="http://www.w3.org/2000/svg" width="536" height="240" style="background:#ffffff;border:1px solid #e5e5e5;border-radius:8px;max-width:100%;height:auto"><rect x="0" y="0" width="100%" height="100%" fill="#ffffff"/>
    <style>
        line, path, circle, rect, polygon{stroke:black;stroke-width:2;stroke-opacity:1;fill-opacity:1;stroke-linecap:round;stroke-linejoin:miter;}text{font-family:Iosevka Fixed, monospace;font-size:14px;}rect.backdrop{stroke:none;fill:transparent;}.broken{stroke-dasharray:8;}.filled{fill:black;}.bg_filled{fill:transparent;}.nofill{fill:transparent;}.end_marked_arrow{marker-end:url(#arrow);}.start_marked_arrow{marker-start:url(#arrow);}.end_marked_diamond{marker-end:url(#diamond);}.start_marked_diamond{marker-start:url(#diamond);}.end_marked_circle{marker-end:url(#circle);}.start_marked_circle{marker-start:url(#circle);}.end_marked_open_circle{marker-end:url(#open_circle);}.start_marked_open_circle{marker-start:url(#open_circle);}.end_marked_big_open_circle{marker-end:url(#big_open_circle);}.start_marked_big_open_circle{marker-start:url(#big_open_circle);}
        <!--separator-->
        
    </style>
    <defs>
        <marker id="arrow" viewBox="-2 -2 8 8" refX="4" refY="2" markerWidth="7" markerHeight="7" orient="auto-start-reverse">
            <polygon points="0,0 0,4 4,2 0,0"></polygon>
        </marker>
        <marker id="diamond" viewBox="-2 -2 8 8" refX="4" refY="2" markerWidth="7" markerHeight="7" orient="auto-start-reverse">
            <polygon points="0,2 2,0 4,2 2,4 0,2"></polygon>
        </marker>
        <marker id="circle" viewBox="0 0 8 8" refX="4" refY="4" markerWidth="7" markerHeight="7" orient="auto-start-reverse">
            <circle cx="4" cy="4" r="2" class="filled"></circle>
        </marker>
        <marker id="open_circle" viewBox="0 0 8 8" refX="4" refY="4" markerWidth="7" markerHeight="7" orient="auto-start-reverse">
            <circle cx="4" cy="4" r="2" class="bg_filled"></circle>
        </marker>
        <marker id="big_open_circle" viewBox="0 0 8 8" refX="4" refY="4" markerWidth="7" markerHeight="7" orient="auto-start-reverse">
            <circle cx="4" cy="4" r="3" class="bg_filled"></circle>
        </marker>
    </defs>
    <rect class="backdrop" x="0" y="0" width="536" height="240"></rect>
    <text x="18" y="12" >READ</text>
    <text x="58" y="12" >REPLICAS</text>
    <line x1="16" y1="22" x2="128" y2="22" class="solid"></line>
    <line x1="16" y1="26" x2="128" y2="26" class="solid"></line>
    <text x="18" y="60" >Writes</text>
    <text x="18" y="108" >[Primary</text>
    <text x="90" y="108" >DB]</text>
    <path d="M 24,112 A 16,16 0,0,0 24,128" class="nofill"></path>
    <text x="26" y="124" >read</text>
    <line x1="56" y1="120" x2="64" y2="120" class="solid"></line>
    <text x="66" y="124" >write</text>
    <path d="M 104,112 A 16,16 0,0,1 104,128" class="nofill"></path>
    <path d="M 80,48 A 16,16 0,0,0 80,64" class="nofill"></path>
    <text x="82" y="60" >5%</text>
    <path d="M 96,48 A 16,16 0,0,1 96,64" class="nofill"></path>
    <text x="266" y="60" >Reads</text>
    <path d="M 320,48 A 16,16 0,0,0 320,64" class="nofill"></path>
    <text x="322" y="60" >95%</text>
    <line x1="128" y1="104" x2="144" y2="104" class="solid"></line>
    <text x="146" y="108" >replication</text>
    <text x="266" y="108" >[Read]</text>
    <text x="322" y="108" >[Read]</text>
    <text x="378" y="108" >[Read]</text>
    <text x="258" y="124" >Replica</text>
    <text x="322" y="124" >Replica</text>
    <text x="386" y="124" >Replica</text>
    <path d="M 264,128 A 16,16 0,0,0 264,144" class="nofill"></path>
    <text x="266" y="140" >read</text>
    <line x1="296" y1="136" x2="304" y2="136" class="solid"></line>
    <circle cx="308" cy="136" r="3" class="nofill"></circle>
    <text x="314" y="140" >nly</text>
    <path d="M 336,128 A 16,16 0,0,1 336,144" class="nofill"></path>
    <text x="18" y="172" >Use</text>
    <text x="50" y="172" >case:</text>
    <text x="98" y="172" >Read</text>
    <line x1="128" y1="168" x2="136" y2="168" class="solid"></line>
    <text x="138" y="172" >heavy</text>
    <text x="186" y="172" >workloads</text>
    <path d="M 272,160 A 16,16 0,0,0 272,176" class="nofill"></path>
    <text x="274" y="172" >90%+</text>
    <text x="314" y="172" >reads</text>
    <path d="M 352,160 A 16,16 0,0,1 352,176" class="nofill"></path>
    <text x="18" y="188" >Lag:</text>
    <text x="58" y="188" >Async</text>
    <text x="106" y="188" >replication</text>
    <text x="202" y="188" >has</text>
    <text x="234" y="188" >seconds</text>
    <text x="298" y="188" >of</text>
    <text x="322" y="188" >lag</text>
    <path d="M 360,176 A 16,16 0,0,0 360,192" class="nofill"></path>
    <text x="362" y="188" >eventual</text>
    <text x="18" y="204" >AWS</text>
    <text x="50" y="204" >RDS:</text>
    <text x="90" y="204" >Up</text>
    <text x="114" y="204" >to</text>
    <text x="138" y="204" >15</text>
    <text x="162" y="204" >read</text>
    <text x="202" y="204" >replicas</text>
    <text x="274" y="204" >per</text>
    <text x="306" y="204" >primary</text>
    <text x="18" y="220" >Limitation:</text>
    <text x="114" y="220" >Does</text>
    <text x="154" y="220" >not</text>
    <text x="186" y="220" >help</text>
    <text x="226" y="220" >with</text>
    <text x="266" y="220" >write</text>
    <line x1="304" y1="216" x2="312" y2="216" class="solid"></line>
    <text x="314" y="220" >heavy</text>
    <text x="362" y="220" >workloads</text>
    <text x="434" y="188" >consistency</text>
    <path d="M 520,176 A 16,16 0,0,1 520,192" class="nofill"></path>
    <g>
        <line x1="44" y1="64" x2="44" y2="84" class="solid"></line>
        <polygon points="40,84 48,84 44,96" class="filled"></polygon>
    </g>
    <g>
        <path d="M 344,48 A 16,16 0,0,1 344,64" class="nofill"></path>
        <line x1="344" y1="64" x2="354" y2="84" class="solid"></line>
        <polygon points="351,84 358,92 358,81" class="filled"></polygon>
    </g>
    <g>
        <line x1="272" y1="64" x2="262" y2="84" class="solid"></line>
        <polygon points="265,84 258,92 258,81" class="filled"></polygon>
    </g>
    <g>
        <line x1="308" y1="64" x2="308" y2="84" class="solid"></line>
        <polygon points="304,84 312,84 308,96" class="filled"></polygon>
    </g>
    <g>
        <line x1="232" y1="104" x2="248" y2="104" class="solid"></line>
        <polygon points="248,100 256,104 248,108" class="filled"></polygon>
    </g>
</svg>