<svg xmlns="http://www.w3.org/2000/svg" width="456" height="368" style="background:#ffffff;border:1px solid #e5e5e5;border-radius:8px;max-width:100%;height:auto"><rect x="0" y="0" width="100%" height="100%" fill="#ffffff"/>
    <style>
        line, path, circle, rect, polygon{stroke:black;stroke-width:2;stroke-opacity:1;fill-opacity:1;stroke-linecap:round;stroke-linejoin:miter;}text{font-family:Iosevka Fixed, monospace;font-size:14px;}rect.backdrop{stroke:none;fill:transparent;}.broken{stroke-dasharray:8;}.filled{fill:black;}.bg_filled{fill:transparent;}.nofill{fill:transparent;}.end_marked_arrow{marker-end:url(#arrow);}.start_marked_arrow{marker-start:url(#arrow);}.end_marked_diamond{marker-end:url(#diamond);}.start_marked_diamond{marker-start:url(#diamond);}.end_marked_circle{marker-end:url(#circle);}.start_marked_circle{marker-start:url(#circle);}.end_marked_open_circle{marker-end:url(#open_circle);}.start_marked_open_circle{marker-start:url(#open_circle);}.end_marked_big_open_circle{marker-end:url(#big_open_circle);}.start_marked_big_open_circle{marker-start:url(#big_open_circle);}
        <!--separator-->
        
    </style>
    <defs>
        <marker id="arrow" viewBox="-2 -2 8 8" refX="4" refY="2" markerWidth="7" markerHeight="7" orient="auto-start-reverse">
            <polygon points="0,0 0,4 4,2 0,0"></polygon>
        </marker>
        <marker id="diamond" viewBox="-2 -2 8 8" refX="4" refY="2" markerWidth="7" markerHeight="7" orient="auto-start-reverse">
            <polygon points="0,2 2,0 4,2 2,4 0,2"></polygon>
        </marker>
        <marker id="circle" viewBox="0 0 8 8" refX="4" refY="4" markerWidth="7" markerHeight="7" orient="auto-start-reverse">
            <circle cx="4" cy="4" r="2" class="filled"></circle>
        </marker>
        <marker id="open_circle" viewBox="0 0 8 8" refX="4" refY="4" markerWidth="7" markerHeight="7" orient="auto-start-reverse">
            <circle cx="4" cy="4" r="2" class="bg_filled"></circle>
        </marker>
        <marker id="big_open_circle" viewBox="0 0 8 8" refX="4" refY="4" markerWidth="7" markerHeight="7" orient="auto-start-reverse">
            <circle cx="4" cy="4" r="3" class="bg_filled"></circle>
        </marker>
    </defs>
    <rect class="backdrop" x="0" y="0" width="456" height="368"></rect>
    <text x="18" y="12" >THE</text>
    <text x="50" y="12" >CLOUD</text>
    <text x="98" y="12" >COST</text>
    <text x="138" y="12" >ICEBERG</text>
    <line x1="16" y1="22" x2="200" y2="22" class="solid"></line>
    <line x1="16" y1="26" x2="200" y2="26" class="solid"></line>
    <text x="66" y="92" >EC2</text>
    <text x="58" y="108" >RDS</text>
    <text x="50" y="124" >Lambda</text>
    <line x1="16" y1="152" x2="240" y2="152" class="broken"></line>
    <line x1="24" y1="160" x2="80" y2="272" class="solid"></line>
    <text x="50" y="188" >Data</text>
    <text x="50" y="204" >Transfer</text>
    <text x="58" y="220" >NAT</text>
    <text x="66" y="236" >Logs</text>
    <text x="74" y="252" >API</text>
    <line x1="128" y1="160" x2="112" y2="192" class="solid"></line>
    <line x1="120" y1="192" x2="104" y2="224" class="solid"></line>
    <text x="90" y="220" >GW</text>
    <line x1="112" y1="224" x2="96" y2="256" class="solid"></line>
    <text x="82" y="284" >|</text>
    <line x1="84" y1="288" x2="84" y2="352" class="solid"></line>
    <text x="162" y="76" >VISIBLE</text>
    <text x="226" y="76" >COSTS</text>
    <path d="M 280,64 A 16,16 0,0,0 280,80" class="nofill"></path>
    <line x1="280" y1="72" x2="288" y2="72" class="broken"></line>
    <text x="290" y="76" >40</text>
    <line x1="304" y1="72" x2="312" y2="72" class="solid"></line>
    <text x="314" y="76" >60%</text>
    <path d="M 336,64 A 16,16 0,0,1 336,80" class="nofill"></path>
    <line x1="160" y1="88" x2="168" y2="88" class="solid"></line>
    <text x="178" y="92" >Compute</text>
    <text x="242" y="92" >instances</text>
    <line x1="160" y1="104" x2="168" y2="104" class="solid"></line>
    <text x="178" y="108" >Storage</text>
    <path d="M 248,96 A 16,16 0,0,0 248,112" class="nofill"></path>
    <text x="250" y="108" >S3,</text>
    <text x="282" y="108" >EBS</text>
    <path d="M 304,96 A 16,16 0,0,1 304,112" class="nofill"></path>
    <line x1="160" y1="120" x2="168" y2="120" class="solid"></line>
    <text x="178" y="124" >Managed</text>
    <text x="242" y="124" >databases</text>
    <text x="258" y="156" >WATERLINE</text>
    <text x="162" y="188" >HIDDEN</text>
    <text x="218" y="188" >COSTS</text>
    <path d="M 272,176 A 16,16 0,0,0 272,192" class="nofill"></path>
    <line x1="272" y1="184" x2="280" y2="184" class="broken"></line>
    <text x="282" y="188" >40</text>
    <line x1="296" y1="184" x2="304" y2="184" class="solid"></line>
    <text x="306" y="188" >60%</text>
    <path d="M 328,176 A 16,16 0,0,1 328,192" class="nofill"></path>
    <line x1="160" y1="200" x2="168" y2="200" class="solid"></line>
    <text x="178" y="204" >Data</text>
    <text x="218" y="204" >transfer</text>
    <path d="M 296,192 A 16,16 0,0,0 296,208" class="nofill"></path>
    <text x="298" y="204" >cross</text>
    <line x1="336" y1="200" x2="344" y2="200" class="solid"></line>
    <text x="346" y="204" >AZ,</text>
    <text x="378" y="204" >egress</text>
    <path d="M 424,192 A 16,16 0,0,1 424,208" class="nofill"></path>
    <line x1="160" y1="216" x2="168" y2="216" class="solid"></line>
    <text x="178" y="220" >NAT</text>
    <text x="210" y="220" >Gateway</text>
    <text x="274" y="220" >processing</text>
    <text x="362" y="220" >fees</text>
    <line x1="168" y1="232" x2="176" y2="232" class="solid"></line>
    <text x="186" y="236" >CloudWatch</text>
    <text x="274" y="236" >logs</text>
    <text x="314" y="236" >ingestion</text>
    <line x1="392" y1="224" x2="384" y2="240" class="solid"></line>
    <text x="394" y="236" >storage</text>
    <line x1="168" y1="248" x2="176" y2="248" class="solid"></line>
    <text x="186" y="252" >API</text>
    <text x="218" y="252" >Gateway</text>
    <text x="282" y="252" >request</text>
    <text x="346" y="252" >charges</text>
    <line x1="168" y1="264" x2="176" y2="264" class="solid"></line>
    <text x="186" y="268" >DNS</text>
    <text x="218" y="268" >query</text>
    <text x="266" y="268" >charges</text>
    <line x1="168" y1="280" x2="176" y2="280" class="solid"></line>
    <text x="186" y="284" >Load</text>
    <text x="226" y="284" >balancer</text>
    <text x="298" y="284" >hours</text>
    <text x="346" y="284" >+</text>
    <text x="362" y="284" >LCU</text>
    <text x="394" y="284" >charges</text>
    <line x1="168" y1="296" x2="176" y2="296" class="solid"></line>
    <text x="186" y="300" >EBS</text>
    <text x="218" y="300" >snapshots</text>
    <text x="298" y="300" >and</text>
    <text x="330" y="300" >lifecycle</text>
    <line x1="168" y1="312" x2="176" y2="312" class="solid"></line>
    <text x="186" y="316" >Elastic</text>
    <text x="250" y="316" >IPs</text>
    <path d="M 288,304 A 16,16 0,0,0 288,320" class="nofill"></path>
    <text x="290" y="316" >when</text>
    <text x="330" y="316" >unattached</text>
    <path d="M 408,304 A 16,16 0,0,1 408,320" class="nofill"></path>
    <line x1="168" y1="328" x2="176" y2="328" class="solid"></line>
    <text x="186" y="332" >KMS</text>
    <text x="218" y="332" >key</text>
    <text x="250" y="332" >operations</text>
    <line x1="168" y1="344" x2="176" y2="344" class="solid"></line>
    <text x="186" y="348" >Support</text>
    <text x="250" y="348" >plan</text>
    <text x="290" y="348" >fees</text>
    <g>
        <line x1="72" y1="48" x2="24" y2="144" class="solid"></line>
        <line x1="72" y1="48" x2="88" y2="80" class="solid"></line>
        <line x1="96" y1="80" x2="128" y2="144" class="solid"></line>
        <line x1="24" y1="144" x2="128" y2="144" class="solid"></line>
    </g>
    <g>
        <line x1="88" y1="256" x2="84" y2="264" class="solid"></line>
        <line x1="84" y1="264" x2="84" y2="272" class="solid"></line>
    </g>
</svg>