<svg xmlns="http://www.w3.org/2000/svg" width="528" height="496" style="background:#ffffff;border:1px solid #e5e5e5;border-radius:8px;max-width:100%;height:auto"><rect x="0" y="0" width="100%" height="100%" fill="#ffffff"/>
    <style>
        line, path, circle, rect, polygon{stroke:black;stroke-width:2;stroke-opacity:1;fill-opacity:1;stroke-linecap:round;stroke-linejoin:miter;}text{font-family:Iosevka Fixed, monospace;font-size:14px;}rect.backdrop{stroke:none;fill:transparent;}.broken{stroke-dasharray:8;}.filled{fill:black;}.bg_filled{fill:transparent;}.nofill{fill:transparent;}.end_marked_arrow{marker-end:url(#arrow);}.start_marked_arrow{marker-start:url(#arrow);}.end_marked_diamond{marker-end:url(#diamond);}.start_marked_diamond{marker-start:url(#diamond);}.end_marked_circle{marker-end:url(#circle);}.start_marked_circle{marker-start:url(#circle);}.end_marked_open_circle{marker-end:url(#open_circle);}.start_marked_open_circle{marker-start:url(#open_circle);}.end_marked_big_open_circle{marker-end:url(#big_open_circle);}.start_marked_big_open_circle{marker-start:url(#big_open_circle);}
        <!--separator-->
        
    </style>
    <defs>
        <marker id="arrow" viewBox="-2 -2 8 8" refX="4" refY="2" markerWidth="7" markerHeight="7" orient="auto-start-reverse">
            <polygon points="0,0 0,4 4,2 0,0"></polygon>
        </marker>
        <marker id="diamond" viewBox="-2 -2 8 8" refX="4" refY="2" markerWidth="7" markerHeight="7" orient="auto-start-reverse">
            <polygon points="0,2 2,0 4,2 2,4 0,2"></polygon>
        </marker>
        <marker id="circle" viewBox="0 0 8 8" refX="4" refY="4" markerWidth="7" markerHeight="7" orient="auto-start-reverse">
            <circle cx="4" cy="4" r="2" class="filled"></circle>
        </marker>
        <marker id="open_circle" viewBox="0 0 8 8" refX="4" refY="4" markerWidth="7" markerHeight="7" orient="auto-start-reverse">
            <circle cx="4" cy="4" r="2" class="bg_filled"></circle>
        </marker>
        <marker id="big_open_circle" viewBox="0 0 8 8" refX="4" refY="4" markerWidth="7" markerHeight="7" orient="auto-start-reverse">
            <circle cx="4" cy="4" r="3" class="bg_filled"></circle>
        </marker>
    </defs>
    <rect class="backdrop" x="0" y="0" width="528" height="496"></rect>
    <rect x="300" y="56" width="88" height="48" class="solid nofill" rx="0"></rect>
    <text x="314" y="76" >OPERATE</text>
    <path d="M 320,80 A 16,16 0,0,0 320,96" class="nofill"></path>
    <text x="322" y="92" >Act)</text>
    <text x="18" y="12" >THE</text>
    <text x="50" y="12" >FINOPS</text>
    <text x="106" y="12" >LIFECYCLE</text>
    <line x1="16" y1="22" x2="184" y2="22" class="solid"></line>
    <line x1="16" y1="26" x2="184" y2="26" class="solid"></line>
    <text x="34" y="76" >INFORM</text>
    <text x="170" y="76" >OPTIMIZE</text>
    <path d="M 40,80 A 16,16 0,0,0 40,96" class="nofill"></path>
    <text x="42" y="92" >Measure</text>
    <path d="M 96,80 A 16,16 0,0,1 96,96" class="nofill"></path>
    <path d="M 176,80 A 16,16 0,0,0 176,96" class="nofill"></path>
    <text x="178" y="92" >Analyze</text>
    <path d="M 232,80 A 16,16 0,0,1 232,96" class="nofill"></path>
    <path d="M 168,144 A 16,16 0,0,0 168,160" class="nofill"></path>
    <text x="170" y="156" >Continuous</text>
    <text x="258" y="156" >loop</text>
    <path d="M 288,144 A 16,16 0,0,1 288,160" class="nofill"></path>
    <text x="18" y="188" >INFORM:</text>
    <line x1="16" y1="200" x2="24" y2="200" class="solid"></line>
    <text x="34" y="204" >Visibility</text>
    <text x="122" y="204" >into</text>
    <text x="162" y="204" >who</text>
    <text x="194" y="204" >is</text>
    <text x="218" y="204" >spending</text>
    <text x="290" y="204" >what</text>
    <line x1="16" y1="216" x2="24" y2="216" class="solid"></line>
    <text x="34" y="220" >Cost</text>
    <text x="74" y="220" >allocation</text>
    <text x="162" y="220" >by</text>
    <text x="186" y="220" >team,</text>
    <text x="234" y="220" >project,</text>
    <text x="306" y="220" >environment</text>
    <line x1="16" y1="232" x2="24" y2="232" class="solid"></line>
    <text x="34" y="236" >Dashboards</text>
    <text x="122" y="236" >showing</text>
    <text x="186" y="236" >trends</text>
    <text x="242" y="236" >and</text>
    <text x="274" y="236" >anomalies</text>
    <line x1="16" y1="248" x2="24" y2="248" class="solid"></line>
    <text x="34" y="252" >Shared</text>
    <text x="90" y="252" >cost</text>
    <text x="130" y="252" >model</text>
    <path d="M 184,240 A 16,16 0,0,0 184,256" class="nofill"></path>
    <text x="186" y="252" >how</text>
    <text x="218" y="252" >to</text>
    <text x="242" y="252" >split</text>
    <text x="290" y="252" >shared</text>
    <text x="346" y="252" >resources</text>
    <path d="M 416,240 A 16,16 0,0,1 416,256" class="nofill"></path>
    <text x="18" y="284" >OPTIMIZE:</text>
    <line x1="16" y1="296" x2="24" y2="296" class="solid"></line>
    <text x="34" y="300" >Right</text>
    <line x1="72" y1="296" x2="80" y2="296" class="solid"></line>
    <text x="82" y="300" >size</text>
    <text x="122" y="300" >instances</text>
    <text x="210" y="300" >is</text>
    <text x="234" y="300" >that</text>
    <text x="274" y="300" >m5.4xlarge</text>
    <text x="362" y="300" >really</text>
    <line x1="16" y1="312" x2="24" y2="312" class="solid"></line>
    <text x="34" y="316" >Purchase</text>
    <text x="106" y="316" >commitments</text>
    <text x="210" y="316" >RIs,</text>
    <text x="250" y="316" >Savings</text>
    <text x="314" y="316" >Plans</text>
    <path d="M 352,304 A 16,16 0,0,1 352,320" class="nofill"></path>
    <line x1="16" y1="328" x2="24" y2="328" class="solid"></line>
    <text x="34" y="332" >Spot</text>
    <text x="74" y="332" >instances</text>
    <text x="154" y="332" >for</text>
    <text x="186" y="332" >fault</text>
    <line x1="224" y1="328" x2="232" y2="328" class="solid"></line>
    <text x="234" y="332" >tolerant</text>
    <text x="306" y="332" >workloads</text>
    <line x1="16" y1="344" x2="24" y2="344" class="solid"></line>
    <text x="34" y="348" >Storage</text>
    <text x="98" y="348" >tiering</text>
    <path d="M 168,336 A 16,16 0,0,0 168,352" class="nofill"></path>
    <text x="170" y="348" >S3</text>
    <text x="194" y="348" >Standard</text>
    <text x="290" y="348" >Infrequent</text>
    <text x="378" y="348" >Access</text>
    <text x="458" y="348" >Glacier</text>
    <path d="M 512,336 A 16,16 0,0,1 512,352" class="nofill"></path>
    <line x1="16" y1="360" x2="24" y2="360" class="solid"></line>
    <text x="34" y="364" >Delete</text>
    <text x="90" y="364" >unused</text>
    <text x="146" y="364" >resources</text>
    <path d="M 232,352 A 16,16 0,0,0 232,368" class="nofill"></path>
    <text x="234" y="364" >zombie</text>
    <text x="290" y="364" >instances,</text>
    <text x="378" y="364" >old</text>
    <text x="410" y="364" >snapshots</text>
    <path d="M 480,352 A 16,16 0,0,1 480,368" class="nofill"></path>
    <text x="418" y="300" >needed?</text>
    <path d="M 472,288 A 16,16 0,0,1 472,304" class="nofill"></path>
    <text x="18" y="396" >OPERATE:</text>
    <line x1="16" y1="408" x2="24" y2="408" class="solid"></line>
    <text x="34" y="412" >Budget</text>
    <text x="90" y="412" >alerts</text>
    <text x="146" y="412" >and</text>
    <text x="178" y="412" >guardrails</text>
    <line x1="16" y1="424" x2="24" y2="424" class="solid"></line>
    <text x="34" y="428" >Automated</text>
    <text x="114" y="428" >scaling</text>
    <text x="178" y="428" >policies</text>
    <line x1="16" y1="440" x2="24" y2="440" class="solid"></line>
    <text x="34" y="444" >Architecture</text>
    <text x="138" y="444" >decisions</text>
    <text x="218" y="444" >consider</text>
    <line x1="16" y1="456" x2="24" y2="456" class="solid"></line>
    <text x="34" y="460" >Teams</text>
    <text x="82" y="460" >own</text>
    <text x="114" y="460" >their</text>
    <text x="162" y="460" >cloud</text>
    <text x="210" y="460" >spend</text>
    <line x1="16" y1="472" x2="24" y2="472" class="solid"></line>
    <text x="34" y="476" >Regular</text>
    <text x="98" y="476" >cost</text>
    <text x="138" y="476" >reviews</text>
    <path d="M 208,464 A 16,16 0,0,0 208,480" class="nofill"></path>
    <text x="210" y="476" >weekly</text>
    <line x1="264" y1="464" x2="256" y2="480" class="solid"></line>
    <text x="266" y="476" >monthly</text>
    <path d="M 320,464 A 16,16 0,0,1 320,480" class="nofill"></path>
    <text x="290" y="444" >cost</text>
    <g>
        <line x1="20" y1="56" x2="108" y2="56" class="solid"></line>
        <line x1="20" y1="56" x2="20" y2="104" class="solid"></line>
        <line x1="108" y1="56" x2="108" y2="104" class="solid"></line>
        <line x1="20" y1="104" x2="108" y2="104" class="solid"></line>
        <line x1="60" y1="104" x2="60" y2="136" class="solid"></line>
        <line x1="60" y1="136" x2="128" y2="136" class="solid"></line>
        <polygon points="136,132 128,136 136,140" class="filled"></polygon>
        <line x1="156" y1="56" x2="252" y2="56" class="solid"></line>
        <line x1="156" y1="56" x2="156" y2="104" class="solid"></line>
        <line x1="252" y1="56" x2="252" y2="104" class="solid"></line>
        <line x1="156" y1="104" x2="252" y2="104" class="solid"></line>
        <line x1="204" y1="104" x2="204" y2="136" class="solid"></line>
        <line x1="136" y1="136" x2="272" y2="136" class="solid"></line>
        <polygon points="280,132 272,136 280,140" class="filled"></polygon>
        <line x1="356" y1="112" x2="356" y2="136" class="solid"></line>
        <line x1="280" y1="136" x2="356" y2="136" class="solid"></line>
    </g>
    <g>
        <line x1="120" y1="72" x2="136" y2="72" class="solid"></line>
        <polygon points="136,68 144,72 136,76" class="filled"></polygon>
    </g>
    <g>
        <line x1="264" y1="72" x2="280" y2="72" class="solid"></line>
        <polygon points="280,68 288,72 280,76" class="filled"></polygon>
    </g>
    <g>
        <path d="M 208,288 A 16,16 0,0,0 208,304" class="nofill"></path>
        <path d="M 208,304 A 16,16 0,0,0 208,320" class="nofill"></path>
    </g>
    <g>
        <line x1="264" y1="344" x2="272" y2="344" class="solid"></line>
        <polygon points="272,340 280,344 272,348" class="filled"></polygon>
    </g>
    <g>
        <line x1="432" y1="344" x2="440" y2="344" class="solid"></line>
        <polygon points="440,340 448,344 440,348" class="filled"></polygon>
    </g>
</svg>