<svg xmlns="http://www.w3.org/2000/svg" width="496" height="288" style="background:#ffffff;border:1px solid #e5e5e5;border-radius:8px;max-width:100%;height:auto"><rect x="0" y="0" width="100%" height="100%" fill="#ffffff"/>
    <style>
        line, path, circle, rect, polygon{stroke:black;stroke-width:2;stroke-opacity:1;fill-opacity:1;stroke-linecap:round;stroke-linejoin:miter;}text{font-family:Iosevka Fixed, monospace;font-size:14px;}rect.backdrop{stroke:none;fill:transparent;}.broken{stroke-dasharray:8;}.filled{fill:black;}.bg_filled{fill:transparent;}.nofill{fill:transparent;}.end_marked_arrow{marker-end:url(#arrow);}.start_marked_arrow{marker-start:url(#arrow);}.end_marked_diamond{marker-end:url(#diamond);}.start_marked_diamond{marker-start:url(#diamond);}.end_marked_circle{marker-end:url(#circle);}.start_marked_circle{marker-start:url(#circle);}.end_marked_open_circle{marker-end:url(#open_circle);}.start_marked_open_circle{marker-start:url(#open_circle);}.end_marked_big_open_circle{marker-end:url(#big_open_circle);}.start_marked_big_open_circle{marker-start:url(#big_open_circle);}
        <!--separator-->
        
    </style>
    <defs>
        <marker id="arrow" viewBox="-2 -2 8 8" refX="4" refY="2" markerWidth="7" markerHeight="7" orient="auto-start-reverse">
            <polygon points="0,0 0,4 4,2 0,0"></polygon>
        </marker>
        <marker id="diamond" viewBox="-2 -2 8 8" refX="4" refY="2" markerWidth="7" markerHeight="7" orient="auto-start-reverse">
            <polygon points="0,2 2,0 4,2 2,4 0,2"></polygon>
        </marker>
        <marker id="circle" viewBox="0 0 8 8" refX="4" refY="4" markerWidth="7" markerHeight="7" orient="auto-start-reverse">
            <circle cx="4" cy="4" r="2" class="filled"></circle>
        </marker>
        <marker id="open_circle" viewBox="0 0 8 8" refX="4" refY="4" markerWidth="7" markerHeight="7" orient="auto-start-reverse">
            <circle cx="4" cy="4" r="2" class="bg_filled"></circle>
        </marker>
        <marker id="big_open_circle" viewBox="0 0 8 8" refX="4" refY="4" markerWidth="7" markerHeight="7" orient="auto-start-reverse">
            <circle cx="4" cy="4" r="3" class="bg_filled"></circle>
        </marker>
    </defs>
    <rect class="backdrop" x="0" y="0" width="496" height="288"></rect>
    <text x="18" y="12" >THE</text>
    <text x="50" y="12" >PRICING</text>
    <text x="114" y="12" >PYRAMID</text>
    <line x1="16" y1="22" x2="176" y2="22" class="solid"></line>
    <line x1="16" y1="26" x2="176" y2="26" class="solid"></line>
    <text x="66" y="92" >Burst</text>
    <text x="42" y="140" >Flexibility</text>
    <line x1="16" y1="160" x2="144" y2="160" class="solid"></line>
    <text x="34" y="188" >Steady</text>
    <line x1="80" y1="184" x2="88" y2="184" class="solid"></line>
    <text x="90" y="188" >state</text>
    <text x="42" y="204" >baseline</text>
    <text x="146" y="76" >SPOT</text>
    <path d="M 192,64 A 16,16 0,0,0 192,80" class="nofill"></path>
    <text x="194" y="76" >10</text>
    <line x1="208" y1="72" x2="216" y2="72" class="solid"></line>
    <text x="218" y="76" >20%</text>
    <path d="M 240,64 A 16,16 0,0,1 240,80" class="nofill"></path>
    <text x="146" y="92" >Fault</text>
    <line x1="184" y1="88" x2="192" y2="88" class="solid"></line>
    <text x="194" y="92" >tolerant</text>
    <text x="266" y="92" >batch,</text>
    <text x="322" y="92" >CI</text>
    <line x1="344" y1="80" x2="336" y2="96" class="solid"></line>
    <text x="346" y="92" >CD,</text>
    <text x="378" y="92" >dev</text>
    <line x1="408" y1="80" x2="400" y2="96" class="solid"></line>
    <text x="410" y="92" >test</text>
    <text x="154" y="124" >ON</text>
    <line x1="168" y1="120" x2="176" y2="120" class="solid"></line>
    <text x="178" y="124" >DEMAND</text>
    <path d="M 240,112 A 16,16 0,0,0 240,128" class="nofill"></path>
    <text x="242" y="124" >10</text>
    <line x1="256" y1="120" x2="264" y2="120" class="solid"></line>
    <text x="266" y="124" >30%</text>
    <path d="M 288,112 A 16,16 0,0,1 288,128" class="nofill"></path>
    <text x="154" y="140" >Unpredictable</text>
    <text x="266" y="140" >bursts,</text>
    <text x="330" y="140" >new</text>
    <text x="362" y="140" >workloads</text>
    <text x="162" y="172" >RESERVED</text>
    <line x1="240" y1="160" x2="232" y2="176" class="solid"></line>
    <text x="250" y="172" >SAVINGS</text>
    <text x="314" y="172" >PLANS</text>
    <path d="M 368,160 A 16,16 0,0,0 368,176" class="nofill"></path>
    <text x="370" y="172" >50</text>
    <line x1="384" y1="168" x2="392" y2="168" class="solid"></line>
    <text x="394" y="172" >70%</text>
    <path d="M 416,160 A 16,16 0,0,1 416,176" class="nofill"></path>
    <text x="162" y="188" >Known</text>
    <text x="210" y="188" >baseline,</text>
    <text x="290" y="188" >24</text>
    <line x1="312" y1="176" x2="304" y2="192" class="solid"></line>
    <text x="314" y="188" >7</text>
    <text x="330" y="188" >production</text>
    <text x="418" y="188" >workloads</text>
    <text x="18" y="252" >Aim:</text>
    <text x="18" y="268" >This</text>
    <text x="58" y="252" >50</text>
    <line x1="72" y1="248" x2="80" y2="248" class="solid"></line>
    <text x="82" y="252" >70%</text>
    <text x="114" y="252" >committed</text>
    <text x="194" y="252" >spend,</text>
    <text x="250" y="252" >10</text>
    <line x1="264" y1="248" x2="272" y2="248" class="solid"></line>
    <text x="274" y="252" >30%</text>
    <text x="306" y="252" >on</text>
    <line x1="320" y1="248" x2="328" y2="248" class="solid"></line>
    <text x="330" y="252" >demand,</text>
    <text x="394" y="252" >10</text>
    <line x1="408" y1="248" x2="416" y2="248" class="solid"></line>
    <text x="418" y="252" >20%</text>
    <text x="58" y="268" >blend</text>
    <text x="106" y="268" >typically</text>
    <text x="186" y="268" >saves</text>
    <text x="234" y="268" >40</text>
    <line x1="248" y1="264" x2="256" y2="264" class="solid"></line>
    <text x="258" y="268" >60%</text>
    <text x="290" y="268" >vs</text>
    <text x="314" y="268" >all</text>
    <text x="346" y="268" >on</text>
    <line x1="360" y1="264" x2="368" y2="264" class="solid"></line>
    <text x="370" y="268" >demand.</text>
    <text x="450" y="252" >spot.</text>
    <g>
        <line x1="72" y1="48" x2="20" y2="152" class="solid"></line>
        <line x1="72" y1="48" x2="88" y2="80" class="solid"></line>
        <line x1="20" y1="152" x2="20" y2="224" class="solid"></line>
        <line x1="104" y1="80" x2="140" y2="152" class="solid"></line>
        <line x1="40" y1="112" x2="120" y2="112" class="solid"></line>
        <line x1="140" y1="152" x2="140" y2="224" class="solid"></line>
        <line x1="20" y1="224" x2="140" y2="224" class="solid"></line>
    </g>
</svg>