<svg xmlns="http://www.w3.org/2000/svg" width="520" height="400" style="background:#ffffff;border:1px solid #e5e5e5;border-radius:8px;max-width:100%;height:auto"><rect x="0" y="0" width="100%" height="100%" fill="#ffffff"/>
    <style>
        line, path, circle, rect, polygon{stroke:black;stroke-width:2;stroke-opacity:1;fill-opacity:1;stroke-linecap:round;stroke-linejoin:miter;}text{font-family:Iosevka Fixed, monospace;font-size:14px;}rect.backdrop{stroke:none;fill:transparent;}.broken{stroke-dasharray:8;}.filled{fill:black;}.bg_filled{fill:transparent;}.nofill{fill:transparent;}.end_marked_arrow{marker-end:url(#arrow);}.start_marked_arrow{marker-start:url(#arrow);}.end_marked_diamond{marker-end:url(#diamond);}.start_marked_diamond{marker-start:url(#diamond);}.end_marked_circle{marker-end:url(#circle);}.start_marked_circle{marker-start:url(#circle);}.end_marked_open_circle{marker-end:url(#open_circle);}.start_marked_open_circle{marker-start:url(#open_circle);}.end_marked_big_open_circle{marker-end:url(#big_open_circle);}.start_marked_big_open_circle{marker-start:url(#big_open_circle);}
        <!--separator-->
        
    </style>
    <defs>
        <marker id="arrow" viewBox="-2 -2 8 8" refX="4" refY="2" markerWidth="7" markerHeight="7" orient="auto-start-reverse">
            <polygon points="0,0 0,4 4,2 0,0"></polygon>
        </marker>
        <marker id="diamond" viewBox="-2 -2 8 8" refX="4" refY="2" markerWidth="7" markerHeight="7" orient="auto-start-reverse">
            <polygon points="0,2 2,0 4,2 2,4 0,2"></polygon>
        </marker>
        <marker id="circle" viewBox="0 0 8 8" refX="4" refY="4" markerWidth="7" markerHeight="7" orient="auto-start-reverse">
            <circle cx="4" cy="4" r="2" class="filled"></circle>
        </marker>
        <marker id="open_circle" viewBox="0 0 8 8" refX="4" refY="4" markerWidth="7" markerHeight="7" orient="auto-start-reverse">
            <circle cx="4" cy="4" r="2" class="bg_filled"></circle>
        </marker>
        <marker id="big_open_circle" viewBox="0 0 8 8" refX="4" refY="4" markerWidth="7" markerHeight="7" orient="auto-start-reverse">
            <circle cx="4" cy="4" r="3" class="bg_filled"></circle>
        </marker>
    </defs>
    <rect class="backdrop" x="0" y="0" width="520" height="400"></rect>
    <rect x="20" y="72" width="72" height="64" class="solid nofill" rx="0"></rect>
    <text x="34" y="92" >Web</text>
    <text x="34" y="108" >Server</text>
    <rect x="212" y="72" width="72" height="64" class="solid nofill" rx="0"></rect>
    <text x="226" y="92" >App</text>
    <text x="226" y="108" >Server</text>
    <text x="18" y="12" >CROSS</text>
    <line x1="56" y1="8" x2="64" y2="8" class="solid"></line>
    <text x="66" y="12" >AZ</text>
    <text x="90" y="12" >DATA</text>
    <text x="130" y="12" >TRANSFER</text>
    <line x1="16" y1="22" x2="208" y2="22" class="solid"></line>
    <line x1="16" y1="26" x2="208" y2="26" class="solid"></line>
    <text x="18" y="60" >AZ</text>
    <line x1="32" y1="56" x2="40" y2="56" class="solid"></line>
    <text x="42" y="60" >a</text>
    <text x="210" y="60" >AZ</text>
    <line x1="224" y1="56" x2="232" y2="56" class="solid"></line>
    <text x="234" y="60" >b</text>
    <line x1="104" y1="88" x2="120" y2="88" class="solid"></line>
    <text x="122" y="92" >request</text>
    <text x="130" y="124" >response</text>
    <line x1="192" y1="120" x2="200" y2="120" class="solid"></line>
    <text x="18" y="172" >Each</text>
    <text x="58" y="172" >direction:</text>
    <text x="146" y="172" >$0.01</text>
    <line x1="192" y1="160" x2="184" y2="176" class="solid"></line>
    <text x="194" y="172" >GB</text>
    <text x="18" y="188" >Round</text>
    <text x="66" y="188" >trip:</text>
    <text x="114" y="188" >$0.02</text>
    <line x1="160" y1="176" x2="152" y2="192" class="solid"></line>
    <text x="162" y="188" >GB</text>
    <text x="18" y="220" >If</text>
    <text x="42" y="220" >y</text>
    <circle cx="52" cy="216" r="3" class="nofill"></circle>
    <line x1="52" y1="220" x2="52" y2="224" class="solid"></line>
    <text x="58" y="220" >ur</text>
    <text x="82" y="220" >app</text>
    <text x="18" y="236" >Cost:</text>
    <text x="66" y="236" >1,000</text>
    <text x="114" y="220" >does</text>
    <text x="114" y="236" >GB</text>
    <text x="138" y="236" >x</text>
    <text x="154" y="220" >1</text>
    <text x="170" y="220" >TB</text>
    <text x="194" y="220" >of</text>
    <text x="154" y="236" >$0.02</text>
    <line x1="200" y1="230" x2="208" y2="230" class="solid"></line>
    <line x1="200" y1="234" x2="208" y2="234" class="solid"></line>
    <text x="218" y="220" >cross</text>
    <line x1="256" y1="216" x2="264" y2="216" class="solid"></line>
    <text x="266" y="220" >AZ</text>
    <text x="290" y="220" >traffic</text>
    <text x="218" y="236" >$20</text>
    <line x1="248" y1="224" x2="240" y2="240" class="solid"></line>
    <text x="250" y="236" >month</text>
    <text x="354" y="220" >per</text>
    <text x="386" y="220" >month:</text>
    <text x="18" y="268" >Seems</text>
    <text x="18" y="284" >Cost:</text>
    <text x="66" y="268" >small?</text>
    <text x="122" y="268" >At</text>
    <text x="146" y="268" >scale</text>
    <text x="66" y="284" >100</text>
    <text x="98" y="284" >x</text>
    <text x="114" y="284" >10,000</text>
    <text x="170" y="284" >GB</text>
    <path d="M 200,256 A 16,16 0,0,0 200,272" class="nofill"></path>
    <text x="202" y="268" >100</text>
    <text x="234" y="268" >services</text>
    <text x="306" y="268" >x</text>
    <text x="322" y="268" >10</text>
    <text x="346" y="268" >TB</text>
    <text x="370" y="268" >each</text>
    <path d="M 400,256 A 16,16 0,0,1 400,272" class="nofill"></path>
    <text x="410" y="268" >:</text>
    <text x="194" y="284" >x</text>
    <text x="210" y="284" >$0.02</text>
    <line x1="256" y1="278" x2="264" y2="278" class="solid"></line>
    <line x1="256" y1="282" x2="264" y2="282" class="solid"></line>
    <text x="274" y="284" >$200,000</text>
    <line x1="344" y1="272" x2="336" y2="288" class="solid"></line>
    <text x="346" y="284" >month</text>
    <text x="18" y="316" >Mitigation:</text>
    <line x1="16" y1="328" x2="24" y2="328" class="solid"></line>
    <text x="34" y="332" >Keep</text>
    <text x="74" y="332" >chattiest</text>
    <text x="154" y="332" >services</text>
    <text x="226" y="332" >in</text>
    <text x="250" y="332" >the</text>
    <text x="282" y="332" >same</text>
    <text x="322" y="332" >AZ</text>
    <line x1="16" y1="344" x2="24" y2="344" class="solid"></line>
    <text x="34" y="348" >Use</text>
    <text x="66" y="348" >AZ</text>
    <line x1="80" y1="344" x2="88" y2="344" class="solid"></line>
    <text x="90" y="348" >affinity</text>
    <text x="162" y="348" >for</text>
    <text x="194" y="348" >service</text>
    <text x="258" y="348" >mesh</text>
    <text x="298" y="348" >routing</text>
    <line x1="16" y1="360" x2="24" y2="360" class="solid"></line>
    <text x="34" y="364" >Compress</text>
    <text x="106" y="364" >payloads</text>
    <text x="178" y="364" >between</text>
    <text x="242" y="364" >services</text>
    <line x1="16" y1="376" x2="24" y2="376" class="solid"></line>
    <text x="34" y="380" >But:</text>
    <text x="74" y="380" >single</text>
    <line x1="120" y1="376" x2="128" y2="376" class="solid"></line>
    <text x="130" y="380" >AZ</text>
    <line x1="152" y1="374" x2="160" y2="374" class="solid"></line>
    <line x1="152" y1="378" x2="160" y2="378" class="solid"></line>
    <text x="170" y="380" >no</text>
    <text x="194" y="380" >fault</text>
    <text x="242" y="380" >tolerance,</text>
    <text x="330" y="380" >so</text>
    <text x="354" y="380" >balance</text>
    <text x="418" y="380" >cost</text>
    <text x="458" y="380" >vs</text>
    <text x="482" y="380" >risk</text>
    <g>
        <line x1="176" y1="88" x2="192" y2="88" class="solid"></line>
        <polygon points="192,84 200,88 192,92" class="filled"></polygon>
    </g>
    <g>
        <polygon points="112,116 104,120 112,124" class="filled"></polygon>
        <line x1="112" y1="120" x2="128" y2="120" class="solid"></line>
    </g>
</svg>